<svg width="60" height="61" viewBox="0 0 60 61" fill="none" xmlns="http://www.w3.org/2000/svg">
<circle cx="30" cy="30.5" r="30" fill="#8885D7"/>
<path d="M32.6628 13.026L32.2352 37.0227H27.6793L27.2516 13.026H32.6628ZM29.9655 47.0227C29.0554 47.0227 28.2769 46.7047 27.6299 46.0688C26.983 45.4218 26.665 44.6433 26.676 43.7332C26.665 42.8341 26.983 42.0666 27.6299 41.4306C28.2769 40.7837 29.0554 40.4602 29.9655 40.4602C30.8536 40.4602 31.6212 40.7837 32.2681 41.4306C32.915 42.0666 33.244 42.8341 33.2549 43.7332C33.244 44.3363 33.085 44.89 32.778 45.3944C32.4819 45.8878 32.0872 46.2826 31.5937 46.5786C31.1003 46.8747 30.5576 47.0227 29.9655 47.0227Z" fill="white"/>
</svg>
