<svg width="36" height="36" viewBox="0 0 36 36" fill="none" xmlns="http://www.w3.org/2000/svg">
<path d="M11.9553 18.0006C11.9553 21.2896 9.28906 23.9558 6.00012 23.9558C2.71118 23.9558 0.044965 21.2896 0.044965 18.0006C0.044965 14.7117 2.71118 12.0455 6.00012 12.0455C9.28906 12.0455 11.9553 14.7117 11.9553 18.0006Z" fill="#EA526F" stroke="#A1A1A1" stroke-width="0.08993"/>
<path d="M35.9553 6.00012C35.9553 9.28906 33.2891 11.9553 30.0001 11.9553C26.7112 11.9553 24.045 9.28906 24.045 6.00012C24.045 2.71118 26.7112 0.044965 30.0001 0.044965C33.2891 0.044965 35.9553 2.71118 35.9553 6.00012Z" fill="#EA526F" stroke="#A1A1A1" stroke-width="0.08993"/>
<path d="M35.9553 29.9996C35.9553 33.2886 33.2891 35.9548 30.0001 35.9548C26.7112 35.9548 24.045 33.2886 24.045 29.9996C24.045 26.7107 26.7112 24.0445 30.0001 24.0445C33.2891 24.0445 35.9553 26.7107 35.9553 29.9996Z" fill="#EA526F" stroke="#A1A1A1" stroke-width="0.08993"/>
<path d="M6 18.0002L29.9997 6" stroke="#EA526F" stroke-width="3" stroke-miterlimit="10"/>
<path d="M29.9997 30L6 18.0005" stroke="#EA526F" stroke-width="3" stroke-miterlimit="10"/>
</svg>
