<svg width="259" height="188" viewBox="0 0 259 188" fill="none" xmlns="http://www.w3.org/2000/svg">
<path d="M244.527 155.715L211.174 121.637L236.059 69.1682L244.527 155.715Z" fill="#462B74"/>
<path d="M255.665 20.4334C255.665 17.8698 253.727 15.7169 251.177 15.4488L128.979 2.59982C128.64 2.56424 128.299 2.56329 127.961 2.59698L4.76063 14.8625C2.20893 15.1165 0.267624 17.2609 0.26716 19.826L0.248746 121.669C0.248281 124.239 2.19558 126.395 4.75239 126.656L127.989 139.215C128.32 139.249 128.653 139.249 128.984 139.217L251.145 127.248C253.7 126.998 255.646 124.852 255.646 122.284L255.665 20.4334Z" fill="url(#paint0_linear_482_205)"/>
<path d="M36.192 39.8L36.192 51L34.992 51L34.992 40.84L32.288 40.84L32.288 51L31.088 51L31.088 39.8L36.192 39.8ZM38.2733 43.064L39.4733 43.064L39.4733 43.848C39.7293 43.5067 40.0066 43.272 40.3053 43.144C40.6146 43.0053 40.9079 42.936 41.1853 42.936C41.5373 42.936 41.8199 42.9947 42.0333 43.112C42.2573 43.2293 42.4279 43.384 42.5453 43.576C42.6626 43.7573 42.7426 43.9547 42.7853 44.168C42.8279 44.3813 42.8493 44.584 42.8493 44.776L42.8493 49.288C42.8493 49.48 42.8279 49.6827 42.7853 49.896C42.7426 50.1093 42.6626 50.312 42.5453 50.504C42.4279 50.6853 42.2573 50.8347 42.0333 50.952C41.8199 51.0693 41.5373 51.128 41.1853 51.128C40.9079 51.128 40.6146 51.064 40.3053 50.936C40.0066 50.7973 39.7293 50.5573 39.4733 50.216L39.4733 54.264L38.2733 54.264L38.2733 43.064ZM40.6413 49.96C40.8333 49.96 40.9933 49.928 41.1213 49.864C41.2493 49.7893 41.3506 49.6933 41.4253 49.576C41.5106 49.4587 41.5693 49.3253 41.6013 49.176C41.6333 49.0267 41.6493 48.8773 41.6493 48.728L41.6493 45.336C41.6493 45.1867 41.6333 45.0373 41.6013 44.888C41.5693 44.7387 41.5106 44.6053 41.4253 44.488C41.3506 44.3707 41.2493 44.28 41.1213 44.216C40.9933 44.1413 40.8333 44.104 40.6413 44.104C40.3959 44.104 40.1986 44.1573 40.0493 44.264C39.8999 44.3707 39.7826 44.4987 39.6973 44.648C39.6119 44.7973 39.5533 44.9573 39.5213 45.128C39.4893 45.288 39.4733 45.432 39.4733 45.56L39.4733 48.504C39.4733 48.632 39.4893 48.7813 39.5213 48.952C39.5533 49.112 39.6119 49.2667 39.6973 49.416C39.7826 49.5653 39.8999 49.6933 40.0493 49.8C40.1986 49.9067 40.3959 49.96 40.6413 49.96ZM46.0358 43.064L46.0358 48.328L48.5477 44.04L48.5477 43.064L49.7478 43.064L49.7478 51L48.5477 51L48.5477 45.88L46.0358 50.168L46.0358 51L44.8358 51L44.8358 43.064L46.0358 43.064ZM57.3584 49.992L57.3584 52.664L56.2384 52.664L56.2384 51L52.0144 51L52.0144 52.664L50.8944 52.664L50.8944 49.992L51.6784 49.992C51.8917 49.512 52.0517 49.0693 52.1584 48.664C52.2757 48.2587 52.3664 47.848 52.4304 47.432C52.4624 47.1973 52.489 46.936 52.5104 46.648C52.5317 46.3493 52.5477 46.0507 52.5584 45.752C52.5797 45.4427 52.5957 45.1387 52.6064 44.84C52.617 44.5307 52.6224 44.248 52.6224 43.992L52.6224 43.064L56.4144 43.064L56.4144 49.992L57.3584 49.992ZM53.6784 44.056L53.6784 45.064C53.6784 45.512 53.6624 45.9547 53.6304 46.392C53.609 46.8187 53.5557 47.2827 53.4704 47.784C53.417 48.0933 53.3424 48.4347 53.2464 48.808C53.161 49.1707 53.017 49.576 52.8144 50.024L55.2144 50.024L55.2144 44.056L53.6784 44.056ZM61.9576 51L61.9576 47.544L60.8536 47.544L59.6696 51L58.3896 51L59.6696 47.416C59.2643 47.2347 58.987 47.0053 58.8376 46.728C58.699 46.44 58.6296 46.0933 58.6296 45.688L58.6296 44.92C58.6296 44.504 58.7043 44.1733 58.8536 43.928C59.003 43.6827 59.1896 43.496 59.4136 43.368C59.6376 43.24 59.8776 43.16 60.1336 43.128C60.4003 43.0853 60.6403 43.064 60.8536 43.064L63.1576 43.064L63.1576 51L61.9576 51ZM61.9576 43.944L60.9496 43.944C60.6616 43.944 60.4003 44.0347 60.1656 44.216C59.9416 44.3973 59.8296 44.7067 59.8296 45.144L59.8296 45.576C59.8296 45.9707 59.9363 46.2533 60.1496 46.424C60.3736 46.5947 60.6403 46.68 60.9496 46.68L61.9576 46.68L61.9576 43.944ZM74.5146 49.992L74.5146 52.664L73.3946 52.664L73.3946 51L69.1706 51L69.1706 52.664L68.0506 52.664L68.0506 49.992L68.8346 49.992C69.048 49.512 69.208 49.0693 69.3146 48.664C69.432 48.2587 69.5226 47.848 69.5866 47.432C69.6186 47.1973 69.6453 46.936 69.6666 46.648C69.688 46.3493 69.704 46.0507 69.7146 45.752C69.736 45.4427 69.752 45.1387 69.7626 44.84C69.7733 44.5307 69.7786 44.248 69.7786 43.992L69.7786 43.064L73.5706 43.064L73.5706 49.992L74.5146 49.992ZM70.8346 44.056L70.8346 45.064C70.8346 45.512 70.8186 45.9547 70.7866 46.392C70.7653 46.8187 70.712 47.2827 70.6266 47.784C70.5733 48.0933 70.4986 48.4347 70.4026 48.808C70.3173 49.1707 70.1733 49.576 69.9706 50.024L72.3706 50.024L72.3706 44.056L70.8346 44.056ZM75.6936 45.176C75.6936 45.0267 75.7203 44.8293 75.7736 44.584C75.827 44.328 75.9336 44.0773 76.0936 43.832C76.2643 43.5867 76.499 43.3787 76.7976 43.208C77.0963 43.0267 77.491 42.936 77.9816 42.936C78.4723 42.936 78.867 43.0267 79.1656 43.208C79.4643 43.3787 79.6936 43.5867 79.8536 43.832C80.0243 44.0773 80.1363 44.328 80.1896 44.584C80.243 44.8293 80.2696 45.0213 80.2696 45.16L80.2696 48.856C80.2696 49.016 80.243 49.224 80.1896 49.48C80.1363 49.736 80.0243 49.9867 79.8536 50.232C79.6936 50.4773 79.4643 50.6907 79.1656 50.872C78.867 51.0427 78.4723 51.128 77.9816 51.128C77.491 51.128 77.0963 51.0427 76.7976 50.872C76.499 50.6907 76.2643 50.4773 76.0936 50.232C75.9336 49.9867 75.827 49.736 75.7736 49.48C75.7203 49.224 75.6936 49.016 75.6936 48.856L75.6936 45.176ZM79.0696 45.4C79.0696 44.952 78.963 44.6267 78.7496 44.424C78.5363 44.2107 78.2803 44.104 77.9816 44.104C77.683 44.104 77.427 44.2107 77.2136 44.424C77.0003 44.6267 76.8936 44.952 76.8936 45.4L76.8936 48.664C76.8936 49.08 76.9843 49.4 77.1656 49.624C77.3576 49.848 77.6296 49.96 77.9816 49.96C78.323 49.96 78.5896 49.8533 78.7816 49.64C78.9736 49.4267 79.0696 49.1013 79.0696 48.664L79.0696 45.4ZM85.2351 47.96L87.0911 43.064L88.2431 43.064L88.2431 51L87.1071 51L87.1071 45.752L85.4911 49.864L84.9471 49.864L83.3311 45.752L83.3311 51L82.1951 51L82.1951 43.064L83.3311 43.064L85.2351 47.96ZM90.1624 45.176C90.1624 45.0267 90.189 44.8293 90.2424 44.584C90.2957 44.328 90.4024 44.0773 90.5624 43.832C90.733 43.5867 90.9677 43.3787 91.2664 43.208C91.565 43.0267 91.9597 42.936 92.4504 42.936C92.941 42.936 93.3357 43.0267 93.6344 43.208C93.933 43.3787 94.1624 43.5867 94.3224 43.832C94.493 44.0773 94.605 44.328 94.6584 44.584C94.7117 44.8293 94.7384 45.0213 94.7384 45.16L94.7384 48.856C94.7384 49.016 94.7117 49.224 94.6584 49.48C94.605 49.736 94.493 49.9867 94.3224 50.232C94.1624 50.4773 93.933 50.6907 93.6344 50.872C93.3357 51.0427 92.941 51.128 92.4504 51.128C91.9597 51.128 91.565 51.0427 91.2664 50.872C90.9677 50.6907 90.733 50.4773 90.5624 50.232C90.4024 49.9867 90.2957 49.736 90.2424 49.48C90.189 49.224 90.1624 49.016 90.1624 48.856L90.1624 45.176ZM93.5384 45.4C93.5384 44.952 93.4317 44.6267 93.2184 44.424C93.005 44.2107 92.749 44.104 92.4504 44.104C92.1517 44.104 91.8957 44.2107 91.6824 44.424C91.469 44.6267 91.3624 44.952 91.3624 45.4L91.3624 48.664C91.3624 49.08 91.453 49.4 91.6344 49.624C91.8264 49.848 92.0984 49.96 92.4504 49.96C92.7917 49.96 93.0584 49.8533 93.2504 49.64C93.4424 49.4267 93.5384 49.1013 93.5384 48.664L93.5384 45.4ZM97.8639 43.064L97.8639 48.328L100.376 44.04L100.376 43.064L101.576 43.064L101.576 51L100.376 51L100.376 45.88L97.8639 50.168L97.8639 51L96.6639 51L96.6639 43.064L97.8639 43.064ZM99.8319 40.056L100.808 40.056L100.808 40.216C100.808 40.4187 100.781 40.6373 100.728 40.872C100.675 41.096 100.557 41.2933 100.376 41.464C100.195 41.6453 99.9812 41.7573 99.7359 41.8C99.5012 41.8427 99.2932 41.864 99.1119 41.864C98.9305 41.864 98.7172 41.8427 98.4719 41.8C98.2372 41.7573 98.0292 41.6453 97.8479 41.464C97.6665 41.2933 97.5492 41.096 97.4959 40.872C97.4425 40.6373 97.4159 40.4187 97.4159 40.216L97.4159 40.056L98.3919 40.056L98.3919 40.216C98.3919 40.3013 98.3972 40.392 98.4079 40.488C98.4292 40.584 98.4612 40.6747 98.5039 40.76C98.5572 40.8453 98.6319 40.92 98.7279 40.984C98.8239 41.0373 98.9519 41.064 99.1119 41.064C99.2719 41.064 99.3999 41.0373 99.4959 40.984C99.5919 40.92 99.6612 40.8453 99.7039 40.76C99.7572 40.6747 99.7892 40.584 99.7999 40.488C99.8212 40.392 99.8319 40.3013 99.8319 40.216L99.8319 40.056ZM104.899 49.64L104.899 51.144L103.523 52.376L103.523 49.64L104.899 49.64ZM114.118 48.568L115.318 48.568L115.318 48.888C115.318 49.08 115.281 49.3093 115.206 49.576C115.142 49.832 115.019 50.0773 114.838 50.312C114.667 50.536 114.433 50.728 114.134 50.888C113.835 51.048 113.457 51.128 112.998 51.128C112.497 51.128 112.097 51.0427 111.798 50.872C111.499 50.6907 111.265 50.4773 111.094 50.232C110.923 49.9867 110.811 49.736 110.758 49.48C110.705 49.2133 110.678 48.9947 110.678 48.824L110.678 45.224C110.678 45.064 110.705 44.856 110.758 44.6C110.811 44.3333 110.923 44.0773 111.094 43.832C111.265 43.5867 111.499 43.3787 111.798 43.208C112.097 43.0267 112.497 42.936 112.998 42.936C113.467 42.936 113.851 43.016 114.15 43.176C114.459 43.336 114.699 43.5333 114.87 43.768C115.041 44.0027 115.158 44.248 115.222 44.504C115.286 44.7493 115.318 44.968 115.318 45.16L115.318 45.512L114.118 45.512L114.118 45.4C114.118 44.952 114.006 44.6267 113.782 44.424C113.569 44.2107 113.307 44.104 112.998 44.104C112.689 44.104 112.422 44.2107 112.198 44.424C111.985 44.6267 111.878 44.952 111.878 45.4L111.878 48.664C111.878 49.528 112.251 49.96 112.998 49.96C113.35 49.96 113.622 49.8533 113.814 49.64C114.017 49.4267 114.118 49.1013 114.118 48.664L114.118 48.568ZM116.883 43.064L118.083 43.064L118.083 43.848C118.339 43.5067 118.616 43.272 118.915 43.144C119.224 43.0053 119.517 42.936 119.795 42.936C120.147 42.936 120.429 42.9947 120.643 43.112C120.867 43.2293 121.037 43.384 121.155 43.576C121.272 43.7573 121.352 43.9547 121.395 44.168C121.437 44.3813 121.459 44.584 121.459 44.776L121.459 49.288C121.459 49.48 121.437 49.6827 121.395 49.896C121.352 50.1093 121.272 50.312 121.155 50.504C121.037 50.6853 120.867 50.8347 120.643 50.952C120.429 51.0693 120.147 51.128 119.795 51.128C119.517 51.128 119.224 51.064 118.915 50.936C118.616 50.7973 118.339 50.5573 118.083 50.216L118.083 54.264L116.883 54.264L116.883 43.064ZM119.251 49.96C119.443 49.96 119.603 49.928 119.731 49.864C119.859 49.7893 119.96 49.6933 120.035 49.576C120.12 49.4587 120.179 49.3253 120.211 49.176C120.243 49.0267 120.259 48.8773 120.259 48.728L120.259 45.336C120.259 45.1867 120.243 45.0373 120.211 44.888C120.179 44.7387 120.12 44.6053 120.035 44.488C119.96 44.3707 119.859 44.28 119.731 44.216C119.603 44.1413 119.443 44.104 119.251 44.104C119.005 44.104 118.808 44.1573 118.659 44.264C118.509 44.3707 118.392 44.4987 118.307 44.648C118.221 44.7973 118.163 44.9573 118.131 45.128C118.099 45.288 118.083 45.432 118.083 45.56L118.083 48.504C118.083 48.632 118.099 48.7813 118.131 48.952C118.163 49.112 118.221 49.2667 118.307 49.416C118.392 49.5653 118.509 49.6933 118.659 49.8C118.808 49.9067 119.005 49.96 119.251 49.96ZM126.741 50.216L126.725 50.216C126.629 50.3333 126.528 50.4453 126.421 50.552C126.314 50.6587 126.192 50.7547 126.053 50.84C125.914 50.9253 125.754 50.9947 125.573 51.048C125.402 51.1013 125.189 51.128 124.933 51.128C124.613 51.128 124.346 51.0747 124.133 50.968C123.93 50.8507 123.765 50.6907 123.637 50.488C123.52 50.2853 123.434 50.0507 123.381 49.784C123.328 49.5173 123.301 49.224 123.301 48.904C123.301 48.488 123.338 48.12 123.413 47.8C123.488 47.4693 123.616 47.192 123.797 46.968C123.978 46.744 124.213 46.5733 124.501 46.456C124.8 46.3387 125.173 46.28 125.621 46.28C125.706 46.28 125.829 46.2853 125.989 46.296C126.149 46.296 126.4 46.312 126.741 46.344L126.741 45.176C126.741 45.0693 126.72 44.952 126.677 44.824C126.634 44.696 126.565 44.5787 126.469 44.472C126.384 44.3653 126.272 44.28 126.133 44.216C125.994 44.1413 125.824 44.104 125.621 44.104C125.514 44.104 125.402 44.12 125.285 44.152C125.178 44.1733 125.072 44.2213 124.965 44.296C124.869 44.3707 124.778 44.472 124.693 44.6C124.618 44.728 124.565 44.888 124.533 45.08L123.381 45.08C123.381 44.7493 123.44 44.4507 123.557 44.184C123.685 43.9173 123.85 43.6933 124.053 43.512C124.266 43.32 124.512 43.176 124.789 43.08C125.077 42.984 125.381 42.936 125.701 42.936C126.16 42.936 126.533 43.016 126.821 43.176C127.12 43.3253 127.349 43.5173 127.509 43.752C127.68 43.976 127.792 44.232 127.845 44.52C127.909 44.7973 127.941 45.064 127.941 45.32L127.941 51L126.741 51L126.741 50.216ZM126.741 47.224C126.57 47.2027 126.416 47.1867 126.277 47.176C126.138 47.1547 126.021 47.144 125.925 47.144C125.754 47.144 125.584 47.1707 125.413 47.224C125.242 47.2667 125.088 47.352 124.949 47.48C124.821 47.5973 124.714 47.7573 124.629 47.96C124.544 48.152 124.501 48.392 124.501 48.68C124.501 49.2453 124.586 49.624 124.757 49.816C124.928 50.008 125.184 50.104 125.525 50.104C125.653 50.104 125.786 50.0667 125.925 49.992C126.064 49.9173 126.192 49.8107 126.309 49.672C126.437 49.5333 126.538 49.3787 126.613 49.208C126.698 49.0267 126.741 48.8293 126.741 48.616L126.741 47.224ZM129.562 45.16C129.562 44.968 129.588 44.7493 129.642 44.504C129.706 44.248 129.818 44.0027 129.978 43.768C130.148 43.5333 130.383 43.336 130.682 43.176C130.991 43.016 131.386 42.936 131.866 42.936C132.548 42.936 133.082 43.1173 133.466 43.48C133.86 43.8427 134.058 44.36 134.058 45.032L134.058 45.336C134.058 45.784 133.946 46.1307 133.722 46.376C133.508 46.6213 133.263 46.792 132.986 46.888C133.263 46.952 133.476 47.0533 133.626 47.192C133.786 47.3307 133.898 47.48 133.962 47.64C134.036 47.8 134.079 47.96 134.09 48.12C134.111 48.28 134.122 48.408 134.122 48.504L134.122 48.984C134.122 49.6347 133.908 50.1573 133.482 50.552C133.066 50.936 132.511 51.128 131.818 51.128C131.359 51.128 130.98 51.0533 130.682 50.904C130.394 50.7547 130.164 50.568 129.993 50.344C129.823 50.12 129.706 49.88 129.642 49.624C129.578 49.3573 129.546 49.112 129.546 48.888L129.546 48.584L130.746 48.584L130.746 48.76C130.746 49.1973 130.836 49.5067 131.018 49.688C131.199 49.8693 131.466 49.96 131.818 49.96C132.234 49.96 132.522 49.848 132.682 49.624C132.842 49.4 132.922 49.1227 132.922 48.792L132.922 48.584C132.922 48.1467 132.82 47.8533 132.618 47.704C132.426 47.5547 132.175 47.48 131.866 47.48L131.258 47.48L131.258 46.488L131.818 46.488C132.127 46.488 132.378 46.376 132.57 46.152C132.762 45.9173 132.858 45.6453 132.858 45.336L132.858 45.048C132.858 44.76 132.751 44.5307 132.538 44.36C132.335 44.1893 132.111 44.104 131.866 44.104C131.535 44.104 131.268 44.2053 131.066 44.408C130.863 44.6107 130.762 44.936 130.762 45.384L130.762 45.496L129.562 45.496L129.562 45.16ZM138.281 52.408C138.195 52.7493 138.094 53.0373 137.977 53.272C137.859 53.5173 137.715 53.7093 137.545 53.848C137.385 53.9973 137.187 54.104 136.953 54.168C136.729 54.232 136.462 54.264 136.153 54.264L135.881 54.264L135.881 53.176L136.105 53.176C136.478 53.176 136.745 53.0693 136.905 52.856C137.065 52.6427 137.203 52.3013 137.321 51.832L137.545 50.888L135.209 43.064L136.473 43.064L138.073 48.84L138.105 48.84L139.321 43.064L140.537 43.064L138.281 52.408ZM148.626 46.472L148.626 43.064L149.826 43.064L149.826 46.472L150.53 46.472C150.722 46.472 150.876 46.4293 150.994 46.344C151.111 46.248 151.202 46.1307 151.266 45.992C151.34 45.8533 151.388 45.704 151.41 45.544C151.442 45.3733 151.468 45.2133 151.49 45.064L151.586 44.36C151.618 44.1573 151.66 43.9707 151.714 43.8C151.767 43.6293 151.847 43.4853 151.954 43.368C152.071 43.24 152.226 43.144 152.418 43.08C152.62 43.016 152.882 42.984 153.202 42.984L153.346 42.984L153.346 43.96L153.202 43.96C152.988 43.96 152.839 44.04 152.754 44.2C152.668 44.36 152.604 44.5893 152.562 44.888L152.466 45.544C152.412 45.8853 152.359 46.1573 152.306 46.36C152.252 46.5627 152.124 46.7493 151.922 46.92L153.346 51L152.162 51L150.914 47.4L149.826 47.4L149.826 51L148.626 51L148.626 47.4L147.538 47.4L146.29 51L145.106 51L146.53 46.92C146.327 46.7493 146.199 46.5627 146.146 46.36C146.092 46.1573 146.039 45.8853 145.986 45.544L145.89 44.888C145.847 44.5893 145.783 44.36 145.698 44.2C145.612 44.04 145.463 43.96 145.25 43.96L145.106 43.96L145.106 42.984L145.25 42.984C145.57 42.984 145.826 43.016 146.018 43.08C146.22 43.144 146.375 43.24 146.482 43.368C146.599 43.4853 146.684 43.6293 146.738 43.8C146.791 43.9707 146.834 44.1573 146.866 44.36L146.962 45.064C146.983 45.2133 147.004 45.3733 147.026 45.544C147.058 45.704 147.106 45.8533 147.17 45.992C147.244 46.1307 147.34 46.248 147.458 46.344C147.575 46.4293 147.73 46.472 147.922 46.472L148.626 46.472ZM158.115 48.776L159.315 48.776L159.315 48.888C159.315 49.08 159.283 49.3093 159.219 49.576C159.166 49.832 159.059 50.0773 158.899 50.312C158.739 50.536 158.515 50.728 158.227 50.888C157.939 51.048 157.566 51.128 157.107 51.128C156.606 51.128 156.206 51.0427 155.907 50.872C155.609 50.6907 155.374 50.4773 155.203 50.232C155.033 49.9867 154.921 49.736 154.867 49.48C154.814 49.2133 154.787 48.9947 154.787 48.824L154.787 45.144C154.787 44.984 154.814 44.7813 154.867 44.536C154.921 44.2907 155.027 44.0507 155.187 43.816C155.347 43.5707 155.571 43.3627 155.859 43.192C156.158 43.0213 156.547 42.936 157.027 42.936C157.497 42.936 157.881 43.0213 158.179 43.192C158.489 43.3627 158.729 43.5707 158.899 43.816C159.07 44.0507 159.187 44.3013 159.251 44.568C159.315 44.824 159.347 45.0373 159.347 45.208L159.347 47.48L155.987 47.48L155.987 48.744C155.987 49.1707 156.078 49.48 156.259 49.672C156.451 49.864 156.734 49.96 157.107 49.96C157.459 49.96 157.715 49.864 157.875 49.672C158.035 49.4693 158.115 49.2027 158.115 48.872L158.115 48.776ZM158.147 46.584L158.147 45.224C158.147 45.096 158.131 44.968 158.099 44.84C158.067 44.7013 158.009 44.5787 157.923 44.472C157.838 44.3653 157.726 44.28 157.587 44.216C157.449 44.1413 157.278 44.104 157.075 44.104C156.862 44.104 156.686 44.1413 156.547 44.216C156.409 44.2907 156.297 44.3867 156.211 44.504C156.126 44.6213 156.067 44.7493 156.035 44.888C156.003 45.0267 155.987 45.16 155.987 45.288L155.987 46.584L158.147 46.584ZM164.945 43.064L169.425 43.064L169.425 51L168.225 51L168.225 44.072L166.145 44.072L166.145 51L164.945 51L164.945 43.064ZM174.678 48.776L175.878 48.776L175.878 48.888C175.878 49.08 175.846 49.3093 175.782 49.576C175.729 49.832 175.622 50.0773 175.462 50.312C175.302 50.536 175.078 50.728 174.79 50.888C174.502 51.048 174.129 51.128 173.67 51.128C173.169 51.128 172.769 51.0427 172.47 50.872C172.171 50.6907 171.937 50.4773 171.766 50.232C171.595 49.9867 171.483 49.736 171.43 49.48C171.377 49.2133 171.35 48.9947 171.35 48.824L171.35 45.144C171.35 44.984 171.377 44.7813 171.43 44.536C171.483 44.2907 171.59 44.0507 171.75 43.816C171.91 43.5707 172.134 43.3627 172.422 43.192C172.721 43.0213 173.11 42.936 173.59 42.936C174.059 42.936 174.443 43.0213 174.742 43.192C175.051 43.3627 175.291 43.5707 175.462 43.816C175.633 44.0507 175.75 44.3013 175.814 44.568C175.878 44.824 175.91 45.0373 175.91 45.208L175.91 47.48L172.55 47.48L172.55 48.744C172.55 49.1707 172.641 49.48 172.822 49.672C173.014 49.864 173.297 49.96 173.67 49.96C174.022 49.96 174.278 49.864 174.438 49.672C174.598 49.4693 174.678 49.2027 174.678 48.872L174.678 48.776ZM174.71 46.584L174.71 45.224C174.71 45.096 174.694 44.968 174.662 44.84C174.63 44.7013 174.571 44.5787 174.486 44.472C174.401 44.3653 174.289 44.28 174.15 44.216C174.011 44.1413 173.841 44.104 173.638 44.104C173.425 44.104 173.249 44.1413 173.11 44.216C172.971 44.2907 172.859 44.3867 172.774 44.504C172.689 44.6213 172.63 44.7493 172.598 44.888C172.566 45.0267 172.55 45.16 172.55 45.288L172.55 46.584L174.71 46.584ZM177.773 43.064L178.973 43.064L178.973 43.848C179.229 43.5067 179.507 43.272 179.805 43.144C180.115 43.0053 180.408 42.936 180.685 42.936C181.037 42.936 181.32 42.9947 181.533 43.112C181.757 43.2293 181.928 43.384 182.045 43.576C182.163 43.7573 182.243 43.9547 182.285 44.168C182.328 44.3813 182.349 44.584 182.349 44.776L182.349 49.288C182.349 49.48 182.328 49.6827 182.285 49.896C182.243 50.1093 182.163 50.312 182.045 50.504C181.928 50.6853 181.757 50.8347 181.533 50.952C181.32 51.0693 181.037 51.128 180.685 51.128C180.408 51.128 180.115 51.064 179.805 50.936C179.507 50.7973 179.229 50.5573 178.973 50.216L178.973 54.264L177.773 54.264L177.773 43.064ZM180.141 49.96C180.333 49.96 180.493 49.928 180.621 49.864C180.749 49.7893 180.851 49.6933 180.925 49.576C181.011 49.4587 181.069 49.3253 181.101 49.176C181.133 49.0267 181.149 48.8773 181.149 48.728L181.149 45.336C181.149 45.1867 181.133 45.0373 181.101 44.888C181.069 44.7387 181.011 44.6053 180.925 44.488C180.851 44.3707 180.749 44.28 180.621 44.216C180.493 44.1413 180.333 44.104 180.141 44.104C179.896 44.104 179.699 44.1573 179.549 44.264C179.4 44.3707 179.283 44.4987 179.197 44.648C179.112 44.7973 179.053 44.9573 179.021 45.128C178.989 45.288 178.973 45.432 178.973 45.56L178.973 48.504C178.973 48.632 178.989 48.7813 179.021 48.952C179.053 49.112 179.112 49.2667 179.197 49.416C179.283 49.5653 179.4 49.6933 179.549 49.8C179.699 49.9067 179.896 49.96 180.141 49.96ZM187.6 48.776L188.8 48.776L188.8 48.888C188.8 49.08 188.768 49.3093 188.704 49.576C188.65 49.832 188.544 50.0773 188.384 50.312C188.224 50.536 188 50.728 187.712 50.888C187.424 51.048 187.05 51.128 186.592 51.128C186.09 51.128 185.69 51.0427 185.392 50.872C185.093 50.6907 184.858 50.4773 184.688 50.232C184.517 49.9867 184.405 49.736 184.352 49.48C184.298 49.2133 184.272 48.9947 184.272 48.824L184.272 45.144C184.272 44.984 184.298 44.7813 184.352 44.536C184.405 44.2907 184.512 44.0507 184.672 43.816C184.832 43.5707 185.056 43.3627 185.344 43.192C185.642 43.0213 186.032 42.936 186.512 42.936C186.981 42.936 187.365 43.0213 187.664 43.192C187.973 43.3627 188.213 43.5707 188.384 43.816C188.554 44.0507 188.672 44.3013 188.736 44.568C188.8 44.824 188.832 45.0373 188.832 45.208L188.832 47.48L185.472 47.48L185.472 48.744C185.472 49.1707 185.562 49.48 185.744 49.672C185.936 49.864 186.218 49.96 186.592 49.96C186.944 49.96 187.2 49.864 187.36 49.672C187.52 49.4693 187.6 49.2027 187.6 48.872L187.6 48.776ZM187.632 46.584L187.632 45.224C187.632 45.096 187.616 44.968 187.584 44.84C187.552 44.7013 187.493 44.5787 187.408 44.472C187.322 44.3653 187.21 44.28 187.072 44.216C186.933 44.1413 186.762 44.104 186.56 44.104C186.346 44.104 186.17 44.1413 186.032 44.216C185.893 44.2907 185.781 44.3867 185.696 44.504C185.61 44.6213 185.552 44.7493 185.52 44.888C185.488 45.0267 185.472 45.16 185.472 45.288L185.472 46.584L187.632 46.584ZM195.223 51L194.023 51L194.023 44.072L192.503 44.072L192.471 45C192.471 45.1387 192.466 45.352 192.455 45.64C192.444 45.928 192.428 46.248 192.407 46.6C192.386 46.9413 192.359 47.2933 192.327 47.656C192.306 48.008 192.274 48.328 192.231 48.616C192.178 48.9573 192.103 49.272 192.007 49.56C191.922 49.848 191.794 50.0987 191.623 50.312C191.452 50.5253 191.239 50.696 190.983 50.824C190.727 50.9413 190.407 51 190.023 51L189.831 51L189.831 50.008L189.975 50.008C190.231 50.008 190.439 49.9333 190.599 49.784C190.759 49.6347 190.882 49.4373 190.967 49.192C191.063 48.936 191.127 48.6533 191.159 48.344C191.202 48.024 191.239 47.704 191.271 47.384C191.282 47.224 191.292 47.032 191.303 46.808C191.314 46.5733 191.319 46.3387 191.319 46.104C191.33 45.8693 191.34 45.6507 191.351 45.448C191.362 45.2347 191.367 45.0693 191.367 44.952L191.415 43.064L195.223 43.064L195.223 51ZM197.147 45.176C197.147 45.0267 197.173 44.8293 197.227 44.584C197.28 44.328 197.387 44.0773 197.547 43.832C197.717 43.5867 197.952 43.3787 198.251 43.208C198.549 43.0267 198.944 42.936 199.435 42.936C199.925 42.936 200.32 43.0267 200.619 43.208C200.917 43.3787 201.147 43.5867 201.307 43.832C201.477 44.0773 201.589 44.328 201.643 44.584C201.696 44.8293 201.723 45.0213 201.723 45.16L201.723 48.856C201.723 49.016 201.696 49.224 201.643 49.48C201.589 49.736 201.477 49.9867 201.307 50.232C201.147 50.4773 200.917 50.6907 200.619 50.872C200.32 51.0427 199.925 51.128 199.435 51.128C198.944 51.128 198.549 51.0427 198.251 50.872C197.952 50.6907 197.717 50.4773 197.547 50.232C197.387 49.9867 197.28 49.736 197.227 49.48C197.173 49.224 197.147 49.016 197.147 48.856L197.147 45.176ZM200.523 45.4C200.523 44.952 200.416 44.6267 200.203 44.424C199.989 44.2107 199.733 44.104 199.435 44.104C199.136 44.104 198.88 44.2107 198.667 44.424C198.453 44.6267 198.347 44.952 198.347 45.4L198.347 48.664C198.347 49.08 198.437 49.4 198.619 49.624C198.811 49.848 199.083 49.96 199.435 49.96C199.776 49.96 200.043 49.8533 200.235 49.64C200.427 49.4267 200.523 49.1013 200.523 48.664L200.523 45.4ZM206.688 46.472L206.688 43.064L207.888 43.064L207.888 46.472L208.592 46.472C208.784 46.472 208.939 46.4293 209.056 46.344C209.174 46.248 209.264 46.1307 209.328 45.992C209.403 45.8533 209.451 45.704 209.472 45.544C209.504 45.3733 209.531 45.2133 209.552 45.064L209.648 44.36C209.68 44.1573 209.723 43.9707 209.776 43.8C209.83 43.6293 209.91 43.4853 210.016 43.368C210.134 43.24 210.288 43.144 210.48 43.08C210.683 43.016 210.944 42.984 211.264 42.984L211.408 42.984L211.408 43.96L211.264 43.96C211.051 43.96 210.902 44.04 210.816 44.2C210.731 44.36 210.667 44.5893 210.624 44.888L210.528 45.544C210.475 45.8853 210.422 46.1573 210.368 46.36C210.315 46.5627 210.187 46.7493 209.984 46.92L211.408 51L210.224 51L208.976 47.4L207.888 47.4L207.888 51L206.688 51L206.688 47.4L205.6 47.4L204.352 51L203.168 51L204.592 46.92C204.39 46.7493 204.262 46.5627 204.208 46.36C204.155 46.1573 204.102 45.8853 204.048 45.544L203.952 44.888C203.91 44.5893 203.846 44.36 203.76 44.2C203.675 44.04 203.526 43.96 203.312 43.96L203.168 43.96L203.168 42.984L203.312 42.984C203.632 42.984 203.888 43.016 204.08 43.08C204.283 43.144 204.438 43.24 204.544 43.368C204.662 43.4853 204.747 43.6293 204.8 43.8C204.854 43.9707 204.896 44.1573 204.928 44.36L205.024 45.064C205.046 45.2133 205.067 45.3733 205.088 45.544C205.12 45.704 205.168 45.8533 205.232 45.992C205.307 46.1307 205.403 46.248 205.52 46.344C205.638 46.4293 205.792 46.472 205.984 46.472L206.688 46.472ZM214.114 43.064L214.114 48.328L216.626 44.04L216.626 43.064L217.826 43.064L217.826 51L216.626 51L216.626 45.88L214.114 50.168L214.114 51L212.914 51L212.914 43.064L214.114 43.064ZM221.981 44.072L221.981 51L220.781 51L220.781 44.072L219.101 44.072L219.101 43.064L223.661 43.064L223.661 44.072L221.981 44.072ZM228.209 48.776L229.409 48.776L229.409 48.888C229.409 49.08 229.377 49.3093 229.313 49.576C229.26 49.832 229.153 50.0773 228.993 50.312C228.833 50.536 228.609 50.728 228.321 50.888C228.033 51.048 227.66 51.128 227.201 51.128C226.7 51.128 226.3 51.0427 226.001 50.872C225.702 50.6907 225.468 50.4773 225.297 50.232C225.126 49.9867 225.014 49.736 224.961 49.48C224.908 49.2133 224.881 48.9947 224.881 48.824L224.881 45.144C224.881 44.984 224.908 44.7813 224.961 44.536C225.014 44.2907 225.121 44.0507 225.281 43.816C225.441 43.5707 225.665 43.3627 225.953 43.192C226.252 43.0213 226.641 42.936 227.121 42.936C227.59 42.936 227.974 43.0213 228.273 43.192C228.582 43.3627 228.822 43.5707 228.993 43.816C229.164 44.0507 229.281 44.3013 229.345 44.568C229.409 44.824 229.441 45.0373 229.441 45.208L229.441 47.48L226.081 47.48L226.081 48.744C226.081 49.1707 226.172 49.48 226.353 49.672C226.545 49.864 226.828 49.96 227.201 49.96C227.553 49.96 227.809 49.864 227.969 49.672C228.129 49.4693 228.209 49.2027 228.209 48.872L228.209 48.776ZM228.241 46.584L228.241 45.224C228.241 45.096 228.225 44.968 228.193 44.84C228.161 44.7013 228.102 44.5787 228.017 44.472C227.932 44.3653 227.82 44.28 227.681 44.216C227.542 44.1413 227.372 44.104 227.169 44.104C226.956 44.104 226.78 44.1413 226.641 44.216C226.502 44.2907 226.39 44.3867 226.305 44.504C226.22 44.6213 226.161 44.7493 226.129 44.888C226.097 45.0267 226.081 45.16 226.081 45.288L226.081 46.584L228.241 46.584ZM30.992 67.064L35.472 67.064L35.472 75L34.272 75L34.272 68.072L32.192 68.072L32.192 75L30.992 75L30.992 67.064ZM37.3968 69.176C37.3968 69.0267 37.4234 68.8293 37.4768 68.584C37.5301 68.328 37.6368 68.0773 37.7968 67.832C37.9674 67.5867 38.2021 67.3787 38.5008 67.208C38.7994 67.0267 39.1941 66.936 39.6848 66.936C40.1754 66.936 40.5701 67.0267 40.8688 67.208C41.1674 67.3787 41.3968 67.5867 41.5568 67.832C41.7274 68.0773 41.8394 68.328 41.8928 68.584C41.9461 68.8293 41.9728 69.0213 41.9728 69.16L41.9728 72.856C41.9728 73.016 41.9461 73.224 41.8928 73.48C41.8394 73.736 41.7274 73.9867 41.5568 74.232C41.3968 74.4773 41.1674 74.6907 40.8688 74.872C40.5701 75.0427 40.1754 75.128 39.6848 75.128C39.1941 75.128 38.7994 75.0427 38.5008 74.872C38.2021 74.6907 37.9674 74.4773 37.7968 74.232C37.6368 73.9867 37.5301 73.736 37.4768 73.48C37.4234 73.224 37.3968 73.016 37.3968 72.856L37.3968 69.176ZM40.7728 69.4C40.7728 68.952 40.6661 68.6267 40.4528 68.424C40.2394 68.2107 39.9834 68.104 39.6848 68.104C39.3861 68.104 39.1301 68.2107 38.9168 68.424C38.7034 68.6267 38.5968 68.952 38.5968 69.4L38.5968 72.664C38.5968 73.08 38.6874 73.4 38.8688 73.624C39.0608 73.848 39.3328 73.96 39.6848 73.96C40.0261 73.96 40.2928 73.8533 40.4848 73.64C40.6768 73.4267 40.7728 73.1013 40.7728 72.664L40.7728 69.4ZM48.4263 75L47.2263 75L47.2263 68.072L45.7063 68.072L45.6743 69C45.6743 69.1387 45.6689 69.352 45.6583 69.64C45.6476 69.928 45.6316 70.248 45.6103 70.6C45.5889 70.9413 45.5623 71.2933 45.5303 71.656C45.5089 72.008 45.4769 72.328 45.4343 72.616C45.3809 72.9573 45.3063 73.272 45.2103 73.56C45.1249 73.848 44.9969 74.0987 44.8263 74.312C44.6556 74.5253 44.4423 74.696 44.1863 74.824C43.9303 74.9413 43.6103 75 43.2263 75L43.0343 75L43.0343 74.008L43.1783 74.008C43.4343 74.008 43.6423 73.9333 43.8023 73.784C43.9623 73.6347 44.0849 73.4373 44.1703 73.192C44.2663 72.936 44.3303 72.6533 44.3623 72.344C44.4049 72.024 44.4423 71.704 44.4743 71.384C44.4849 71.224 44.4956 71.032 44.5063 70.808C44.5169 70.5733 44.5223 70.3387 44.5223 70.104C44.5329 69.8693 44.5436 69.6507 44.5543 69.448C44.5649 69.2347 44.5703 69.0693 44.5703 68.952L44.6183 67.064L48.4263 67.064L48.4263 75ZM52.7339 76.408C52.6485 76.7493 52.5472 77.0373 52.4299 77.272C52.3125 77.5173 52.1685 77.7093 51.9979 77.848C51.8379 77.9973 51.6405 78.104 51.4059 78.168C51.1819 78.232 50.9152 78.264 50.6059 78.264L50.3339 78.264L50.3339 77.176L50.5579 77.176C50.9312 77.176 51.1979 77.0693 51.3579 76.856C51.5179 76.6427 51.6565 76.3013 51.7739 75.832L51.9979 74.888L49.6619 67.064L50.9259 67.064L52.5259 72.84L52.5579 72.84L53.7739 67.064L54.9899 67.064L52.7339 76.408ZM59.2805 74.328C59.1205 74.6267 58.9178 74.8347 58.6725 74.952C58.4378 75.0693 58.1818 75.128 57.9045 75.128C57.5525 75.128 57.2645 75.0693 57.0405 74.952C56.8272 74.8347 56.6618 74.6853 56.5445 74.504C56.4272 74.312 56.3472 74.1093 56.3045 73.896C56.2618 73.6827 56.2405 73.48 56.2405 73.288L56.2405 68.776C56.2405 68.584 56.2618 68.3813 56.3045 68.168C56.3472 67.9547 56.4272 67.7573 56.5445 67.576C56.6725 67.384 56.8378 67.2293 57.0405 67.112C57.2538 66.9947 57.5205 66.936 57.8405 66.936C58.1285 66.936 58.3952 67 58.6405 67.128C58.8965 67.2453 59.1098 67.448 59.2805 67.736L59.2805 63.8L60.4805 63.8L60.4805 67.736C60.6512 67.448 60.8592 67.2453 61.1045 67.128C61.3605 67 61.6325 66.936 61.9205 66.936C62.2405 66.936 62.5018 66.9947 62.7045 67.112C62.9178 67.2293 63.0832 67.384 63.2005 67.576C63.3285 67.7573 63.4138 67.9547 63.4565 68.168C63.4992 68.3813 63.5205 68.584 63.5205 68.776L63.5205 73.288C63.5205 73.48 63.4992 73.6827 63.4565 73.896C63.4138 74.1093 63.3338 74.312 63.2165 74.504C63.0992 74.6853 62.9285 74.8347 62.7045 74.952C62.4912 75.0693 62.2085 75.128 61.8565 75.128C61.5792 75.128 61.3178 75.0693 61.0725 74.952C60.8378 74.8347 60.6405 74.6267 60.4805 74.328L60.4805 78.264L59.2805 78.264L59.2805 74.328ZM58.2405 74.104C58.4325 74.104 58.5978 74.056 58.7365 73.96C58.8752 73.8533 58.9872 73.7253 59.0725 73.576C59.1685 73.416 59.2378 73.2507 59.2805 73.08C59.3232 72.9093 59.3445 72.7547 59.3445 72.616L59.3445 69.448C59.3445 69.32 59.3338 69.176 59.3125 69.016C59.2912 68.8453 59.2432 68.6853 59.1685 68.536C59.1045 68.3867 59.0032 68.2587 58.8645 68.152C58.7258 68.0453 58.5445 67.992 58.3205 67.992C57.9365 67.992 57.6805 68.1147 57.5525 68.36C57.4352 68.5947 57.3765 68.8827 57.3765 69.224L57.3765 72.872C57.3765 73.2133 57.4352 73.5067 57.5525 73.752C57.6805 73.9867 57.9098 74.104 58.2405 74.104ZM61.5365 74.104C61.8565 74.104 62.0752 73.9867 62.1925 73.752C62.3205 73.5067 62.3845 73.2133 62.3845 72.872L62.3845 69.224C62.3845 68.8827 62.3205 68.5947 62.1925 68.36C62.0752 68.1147 61.8245 67.992 61.4405 67.992C61.2165 67.992 61.0352 68.0453 60.8965 68.152C60.7578 68.2587 60.6512 68.3867 60.5765 68.536C60.5125 68.6853 60.4698 68.8453 60.4485 69.016C60.4272 69.176 60.4165 69.32 60.4165 69.448L60.4165 72.616C60.4165 72.7547 60.4378 72.9093 60.4805 73.08C60.5232 73.2507 60.5872 73.416 60.6725 73.576C60.7685 73.7253 60.8858 73.8533 61.0245 73.96C61.1738 74.056 61.3445 74.104 61.5365 74.104ZM68.7411 74.216L68.7251 74.216C68.6291 74.3333 68.5278 74.4453 68.4211 74.552C68.3145 74.6587 68.1918 74.7547 68.0531 74.84C67.9145 74.9253 67.7545 74.9947 67.5731 75.048C67.4025 75.1013 67.1891 75.128 66.9331 75.128C66.6131 75.128 66.3465 75.0747 66.1331 74.968C65.9305 74.8507 65.7651 74.6907 65.6371 74.488C65.5198 74.2853 65.4345 74.0507 65.3811 73.784C65.3278 73.5173 65.3011 73.224 65.3011 72.904C65.3011 72.488 65.3385 72.12 65.4131 71.8C65.4878 71.4693 65.6158 71.192 65.7971 70.968C65.9785 70.744 66.2131 70.5733 66.5011 70.456C66.7998 70.3387 67.1731 70.28 67.6211 70.28C67.7065 70.28 67.8291 70.2853 67.9891 70.296C68.1491 70.296 68.3998 70.312 68.7411 70.344L68.7411 69.176C68.7411 69.0693 68.7198 68.952 68.6771 68.824C68.6345 68.696 68.5651 68.5787 68.4691 68.472C68.3838 68.3653 68.2718 68.28 68.1331 68.216C67.9945 68.1413 67.8238 68.104 67.6211 68.104C67.5145 68.104 67.4025 68.12 67.2851 68.152C67.1785 68.1733 67.0718 68.2213 66.9651 68.296C66.8691 68.3707 66.7785 68.472 66.6931 68.6C66.6185 68.728 66.5651 68.888 66.5331 69.08L65.3811 69.08C65.3811 68.7493 65.4398 68.4507 65.5571 68.184C65.6851 67.9173 65.8505 67.6933 66.0531 67.512C66.2665 67.32 66.5118 67.176 66.7891 67.08C67.0771 66.984 67.3811 66.936 67.7011 66.936C68.1598 66.936 68.5331 67.016 68.8211 67.176C69.1198 67.3253 69.3491 67.5173 69.5091 67.752C69.6798 67.976 69.7918 68.232 69.8451 68.52C69.9091 68.7973 69.9411 69.064 69.9411 69.32L69.9411 75L68.7411 75L68.7411 74.216ZM68.7411 71.224C68.5705 71.2027 68.4158 71.1867 68.2771 71.176C68.1385 71.1547 68.0211 71.144 67.9251 71.144C67.7545 71.144 67.5838 71.1707 67.4131 71.224C67.2425 71.2667 67.0878 71.352 66.9491 71.48C66.8211 71.5973 66.7145 71.7573 66.6291 71.96C66.5438 72.152 66.5011 72.392 66.5011 72.68C66.5011 73.2453 66.5865 73.624 66.7571 73.816C66.9278 74.008 67.1838 74.104 67.5251 74.104C67.6531 74.104 67.7865 74.0667 67.9251 73.992C68.0638 73.9173 68.1918 73.8107 68.3091 73.672C68.4371 73.5333 68.5385 73.3787 68.6131 73.208C68.6985 73.0267 68.7411 72.8293 68.7411 72.616L68.7411 71.224ZM71.9295 68.36C71.9295 67.9653 71.9508 67.5653 71.9935 67.16C72.0468 66.744 72.1802 66.376 72.3935 66.056C72.5748 65.7787 72.7722 65.5653 72.9855 65.416C73.2095 65.2667 73.4335 65.1493 73.6575 65.064C73.7962 65.0107 73.9348 64.9627 74.0735 64.92C74.2228 64.8667 74.3562 64.8187 74.4735 64.776C75.0282 64.584 75.3055 64.3013 75.3055 63.928L75.3055 63.8L76.3615 63.8L76.3615 64.008C76.3615 64.1467 76.3562 64.3013 76.3455 64.472C76.3348 64.632 76.2975 64.776 76.2335 64.904C76.1162 65.1173 75.9508 65.2773 75.7375 65.384C75.5348 65.48 75.2842 65.576 74.9855 65.672L74.1855 65.944C74.0362 65.9973 73.8708 66.072 73.6895 66.168C73.5188 66.2533 73.3695 66.3813 73.2415 66.552C73.1242 66.712 73.0335 66.8987 72.9695 67.112C72.9162 67.3253 72.8895 67.5227 72.8895 67.704L72.8895 68.104L72.9375 68.104C73.0868 67.8267 73.3055 67.5867 73.5935 67.384C73.8922 67.1707 74.2975 67.064 74.8095 67.064C75.0762 67.064 75.3108 67.1067 75.5135 67.192C75.7162 67.2773 75.8762 67.3787 75.9935 67.496C76.1428 67.6347 76.2655 67.8107 76.3615 68.024C76.4575 68.2267 76.5055 68.4613 76.5055 68.728L76.5055 72.568C76.5055 72.7173 76.5002 72.8827 76.4895 73.064C76.4788 73.2347 76.4468 73.4107 76.3935 73.592C76.3508 73.7733 76.2762 73.9547 76.1695 74.136C76.0735 74.3067 75.9402 74.4613 75.7695 74.6C75.5562 74.7813 75.3108 74.9147 75.0335 75C74.7668 75.0853 74.4948 75.128 74.2175 75.128C73.9402 75.128 73.6628 75.0853 73.3855 75C73.1188 74.9253 72.8788 74.7973 72.6655 74.616C72.4948 74.4773 72.3562 74.3227 72.2495 74.152C72.1535 73.9707 72.0788 73.7893 72.0255 73.608C71.9828 73.416 71.9562 73.2347 71.9455 73.064C71.9348 72.8827 71.9295 72.7173 71.9295 72.568L71.9295 68.36ZM75.3055 69.4C75.3055 69.1867 75.2735 68.9947 75.2095 68.824C75.1455 68.6533 75.0708 68.52 74.9855 68.424C74.7722 68.2107 74.5162 68.104 74.2175 68.104C74.0682 68.104 73.9242 68.136 73.7855 68.2C73.6575 68.264 73.5455 68.344 73.4495 68.44C73.3642 68.536 73.2895 68.68 73.2255 68.872C73.1615 69.0533 73.1295 69.2507 73.1295 69.464L73.1295 72.664C73.1295 72.888 73.1615 73.0853 73.2255 73.256C73.2895 73.4267 73.3642 73.5653 73.4495 73.672C73.5348 73.7573 73.6415 73.8267 73.7695 73.88C73.9082 73.9333 74.0575 73.96 74.2175 73.96C74.3775 73.96 74.5215 73.9333 74.6495 73.88C74.7882 73.8267 74.9002 73.7573 74.9855 73.672C75.0708 73.5653 75.1455 73.4267 75.2095 73.256C75.2735 73.0853 75.3055 72.888 75.3055 72.664L75.3055 69.4ZM78.4295 67.064L79.6295 67.064L79.6295 67.848C79.8855 67.5067 80.1628 67.272 80.4615 67.144C80.7708 67.0053 81.0642 66.936 81.3415 66.936C81.6935 66.936 81.9762 66.9947 82.1895 67.112C82.4135 67.2293 82.5842 67.384 82.7015 67.576C82.8188 67.7573 82.8988 67.9547 82.9415 68.168C82.9842 68.3813 83.0055 68.584 83.0055 68.776L83.0055 73.288C83.0055 73.48 82.9842 73.6827 82.9415 73.896C82.8988 74.1093 82.8188 74.312 82.7015 74.504C82.5842 74.6853 82.4135 74.8347 82.1895 74.952C81.9762 75.0693 81.6935 75.128 81.3415 75.128C81.0642 75.128 80.7708 75.064 80.4615 74.936C80.1628 74.7973 79.8855 74.5573 79.6295 74.216L79.6295 78.264L78.4295 78.264L78.4295 67.064ZM80.7975 73.96C80.9895 73.96 81.1495 73.928 81.2775 73.864C81.4055 73.7893 81.5068 73.6933 81.5815 73.576C81.6668 73.4587 81.7255 73.3253 81.7575 73.176C81.7895 73.0267 81.8055 72.8773 81.8055 72.728L81.8055 69.336C81.8055 69.1867 81.7895 69.0373 81.7575 68.888C81.7255 68.7387 81.6668 68.6053 81.5815 68.488C81.5068 68.3707 81.4055 68.28 81.2775 68.216C81.1495 68.1413 80.9895 68.104 80.7975 68.104C80.5522 68.104 80.3548 68.1573 80.2055 68.264C80.0562 68.3707 79.9388 68.4987 79.8535 68.648C79.7682 68.7973 79.7095 68.9573 79.6775 69.128C79.6455 69.288 79.6295 69.432 79.6295 69.56L79.6295 72.504C79.6295 72.632 79.6455 72.7813 79.6775 72.952C79.7095 73.112 79.7682 73.2667 79.8535 73.416C79.9388 73.5653 80.0562 73.6933 80.2055 73.8C80.3548 73.9067 80.5522 73.96 80.7975 73.96ZM86.192 67.064L86.192 72.328L88.704 68.04L88.704 67.064L89.904 67.064L89.904 75L88.704 75L88.704 69.88L86.192 74.168L86.192 75L84.992 75L84.992 67.064L86.192 67.064ZM93.9786 70.44C94.1706 70.44 94.3253 70.3973 94.4426 70.312C94.56 70.2267 94.6506 70.1147 94.7146 69.976C94.7893 69.8373 94.8373 69.688 94.8586 69.528C94.8906 69.368 94.9173 69.2133 94.9386 69.064L95.0346 68.36C95.0666 68.1573 95.1093 67.9707 95.1626 67.8C95.216 67.6293 95.296 67.4853 95.4026 67.368C95.52 67.24 95.6746 67.144 95.8666 67.08C96.0693 67.016 96.3306 66.984 96.6506 66.984L96.8266 66.984L96.8266 67.992L96.6506 67.992C96.4373 67.992 96.288 68.0667 96.2026 68.216C96.1173 68.3653 96.0533 68.5893 96.0106 68.888L95.9146 69.544C95.8613 69.8853 95.808 70.1573 95.7546 70.36C95.7013 70.5627 95.5733 70.7493 95.3706 70.92L96.7946 75L95.6106 75L94.3626 71.4L93.0826 71.4L93.0826 75L91.8826 75L91.8826 67.064L93.0826 67.064L93.0826 70.44L93.9786 70.44ZM101.647 74.216L101.631 74.216C101.535 74.3333 101.434 74.4453 101.327 74.552C101.221 74.6587 101.098 74.7547 100.959 74.84C100.821 74.9253 100.661 74.9947 100.479 75.048C100.309 75.1013 100.095 75.128 99.8394 75.128C99.5194 75.128 99.2527 75.0747 99.0394 74.968C98.8367 74.8507 98.6714 74.6907 98.5434 74.488C98.426 74.2853 98.3407 74.0507 98.2874 73.784C98.234 73.5173 98.2074 73.224 98.2074 72.904C98.2074 72.488 98.2447 72.12 98.3194 71.8C98.394 71.4693 98.522 71.192 98.7034 70.968C98.8847 70.744 99.1194 70.5733 99.4074 70.456C99.706 70.3387 100.079 70.28 100.527 70.28C100.613 70.28 100.735 70.2853 100.895 70.296C101.055 70.296 101.306 70.312 101.647 70.344L101.647 69.176C101.647 69.0693 101.626 68.952 101.583 68.824C101.541 68.696 101.471 68.5787 101.375 68.472C101.29 68.3653 101.178 68.28 101.039 68.216C100.901 68.1413 100.73 68.104 100.527 68.104C100.421 68.104 100.309 68.12 100.191 68.152C100.085 68.1733 99.978 68.2213 99.8714 68.296C99.7754 68.3707 99.6847 68.472 99.5994 68.6C99.5247 68.728 99.4714 68.888 99.4394 69.08L98.2874 69.08C98.2874 68.7493 98.346 68.4507 98.4634 68.184C98.5914 67.9173 98.7567 67.6933 98.9594 67.512C99.1727 67.32 99.418 67.176 99.6954 67.08C99.9834 66.984 100.287 66.936 100.607 66.936C101.066 66.936 101.439 67.016 101.727 67.176C102.026 67.3253 102.255 67.5173 102.415 67.752C102.586 67.976 102.698 68.232 102.751 68.52C102.815 68.7973 102.847 69.064 102.847 69.32L102.847 75L101.647 75L101.647 74.216ZM101.647 71.224C101.477 71.2027 101.322 71.1867 101.183 71.176C101.045 71.1547 100.927 71.144 100.831 71.144C100.661 71.144 100.49 71.1707 100.319 71.224C100.149 71.2667 99.994 71.352 99.8554 71.48C99.7274 71.5973 99.6207 71.7573 99.5354 71.96C99.45 72.152 99.4074 72.392 99.4074 72.68C99.4074 73.2453 99.4927 73.624 99.6634 73.816C99.834 74.008 100.09 74.104 100.431 74.104C100.559 74.104 100.693 74.0667 100.831 73.992C100.97 73.9173 101.098 73.8107 101.215 73.672C101.343 73.5333 101.445 73.3787 101.519 73.208C101.605 73.0267 101.647 72.8293 101.647 72.616L101.647 71.224ZM107.012 68.072L107.012 75L105.812 75L105.812 68.072L104.132 68.072L104.132 67.064L108.692 67.064L108.692 68.072L107.012 68.072ZM115.704 67.064L116.904 67.064L116.904 75L115.704 75L115.704 67.064ZM111.176 67.064L111.176 70.232L112.248 70.232C112.472 70.232 112.712 70.2533 112.968 70.296C113.235 70.328 113.48 70.408 113.704 70.536C113.928 70.664 114.115 70.8507 114.264 71.096C114.414 71.3413 114.488 71.672 114.488 72.088L114.488 73.048C114.488 73.752 114.28 74.2533 113.864 74.552C113.459 74.8507 112.92 75 112.248 75L109.976 75L109.976 67.064L111.176 67.064ZM111.176 73.992L112.152 73.992C112.28 73.992 112.408 73.976 112.536 73.944C112.675 73.912 112.798 73.8587 112.904 73.784C113.022 73.6987 113.112 73.592 113.176 73.464C113.251 73.3253 113.288 73.1547 113.288 72.952L113.288 72.296C113.288 71.9013 113.166 71.6293 112.92 71.48C112.686 71.32 112.43 71.24 112.152 71.24L111.176 71.24L111.176 73.992ZM124.953 67.064C125.348 67.064 125.678 67.1173 125.945 67.224C126.222 67.32 126.441 67.4533 126.601 67.624C126.772 67.784 126.894 67.976 126.969 68.2C127.044 68.4133 127.081 68.632 127.081 68.856L127.081 69.336C127.081 69.7413 127.006 70.0773 126.857 70.344C126.708 70.6 126.43 70.8027 126.025 70.952C126.494 71.0693 126.798 71.272 126.937 71.56C127.086 71.8373 127.161 72.1627 127.161 72.536L127.161 73.144C127.161 73.5173 127.086 73.8267 126.937 74.072C126.788 74.3067 126.596 74.4933 126.361 74.632C126.126 74.7707 125.87 74.8667 125.593 74.92C125.326 74.9733 125.076 75 124.841 75L122.617 75L122.617 67.064L124.953 67.064ZM123.817 73.992L124.825 73.992C125.134 73.992 125.401 73.9173 125.625 73.768C125.849 73.6187 125.961 73.3573 125.961 72.984L125.961 72.584C125.961 72.1573 125.844 71.8587 125.609 71.688C125.374 71.5067 125.113 71.416 124.825 71.416L123.817 71.416L123.817 73.992ZM123.817 70.536L124.793 70.536C125.124 70.536 125.385 70.4347 125.577 70.232C125.78 70.0293 125.881 69.768 125.881 69.448L125.881 69.032C125.881 68.8187 125.838 68.648 125.753 68.52C125.668 68.392 125.566 68.296 125.449 68.232C125.332 68.168 125.209 68.1253 125.081 68.104C124.964 68.0827 124.868 68.072 124.793 68.072L123.817 68.072L123.817 70.536ZM133.91 70.952L132.07 67.064L133.35 67.064L134.55 69.768L135.686 67.064L136.95 67.064L135.11 70.888L137.046 75L135.798 75L134.518 72.12L133.238 75L131.974 75L133.91 70.952ZM138.162 69.176C138.162 69.0267 138.189 68.8293 138.242 68.584C138.296 68.328 138.402 68.0773 138.562 67.832C138.733 67.5867 138.968 67.3787 139.266 67.208C139.565 67.0267 139.96 66.936 140.45 66.936C140.941 66.936 141.336 67.0267 141.634 67.208C141.933 67.3787 142.162 67.5867 142.322 67.832C142.493 68.0773 142.605 68.328 142.658 68.584C142.712 68.8293 142.738 69.0213 142.738 69.16L142.738 72.856C142.738 73.016 142.712 73.224 142.658 73.48C142.605 73.736 142.493 73.9867 142.322 74.232C142.162 74.4773 141.933 74.6907 141.634 74.872C141.336 75.0427 140.941 75.128 140.45 75.128C139.96 75.128 139.565 75.0427 139.266 74.872C138.968 74.6907 138.733 74.4773 138.562 74.232C138.402 73.9867 138.296 73.736 138.242 73.48C138.189 73.224 138.162 73.016 138.162 72.856L138.162 69.176ZM141.538 69.4C141.538 68.952 141.432 68.6267 141.218 68.424C141.005 68.2107 140.749 68.104 140.45 68.104C140.152 68.104 139.896 68.2107 139.682 68.424C139.469 68.6267 139.362 68.952 139.362 69.4L139.362 72.664C139.362 73.08 139.453 73.4 139.634 73.624C139.826 73.848 140.098 73.96 140.45 73.96C140.792 73.96 141.058 73.8533 141.25 73.64C141.442 73.4267 141.538 73.1013 141.538 72.664L141.538 69.4ZM149.192 75L147.992 75L147.992 68.072L146.472 68.072L146.44 69C146.44 69.1387 146.435 69.352 146.424 69.64C146.413 69.928 146.397 70.248 146.376 70.6C146.355 70.9413 146.328 71.2933 146.296 71.656C146.275 72.008 146.243 72.328 146.2 72.616C146.147 72.9573 146.072 73.272 145.976 73.56C145.891 73.848 145.763 74.0987 145.592 74.312C145.421 74.5253 145.208 74.696 144.952 74.824C144.696 74.9413 144.376 75 143.992 75L143.8 75L143.8 74.008L143.944 74.008C144.2 74.008 144.408 73.9333 144.568 73.784C144.728 73.6347 144.851 73.4373 144.936 73.192C145.032 72.936 145.096 72.6533 145.128 72.344C145.171 72.024 145.208 71.704 145.24 71.384C145.251 71.224 145.261 71.032 145.272 70.808C145.283 70.5733 145.288 70.3387 145.288 70.104C145.299 69.8693 145.309 69.6507 145.32 69.448C145.331 69.2347 145.336 69.0693 145.336 68.952L145.384 67.064L149.192 67.064L149.192 75ZM151.116 69.176C151.116 69.0267 151.142 68.8293 151.196 68.584C151.249 68.328 151.356 68.0773 151.516 67.832C151.686 67.5867 151.921 67.3787 152.22 67.208C152.518 67.0267 152.913 66.936 153.404 66.936C153.894 66.936 154.289 67.0267 154.588 67.208C154.886 67.3787 155.116 67.5867 155.276 67.832C155.446 68.0773 155.558 68.328 155.612 68.584C155.665 68.8293 155.692 69.0213 155.692 69.16L155.692 72.856C155.692 73.016 155.665 73.224 155.612 73.48C155.558 73.736 155.446 73.9867 155.276 74.232C155.116 74.4773 154.886 74.6907 154.588 74.872C154.289 75.0427 153.894 75.128 153.404 75.128C152.913 75.128 152.518 75.0427 152.22 74.872C151.921 74.6907 151.686 74.4773 151.516 74.232C151.356 73.9867 151.249 73.736 151.196 73.48C151.142 73.224 151.116 73.016 151.116 72.856L151.116 69.176ZM154.492 69.4C154.492 68.952 154.385 68.6267 154.172 68.424C153.958 68.2107 153.702 68.104 153.404 68.104C153.105 68.104 152.849 68.2107 152.636 68.424C152.422 68.6267 152.316 68.952 152.316 69.4L152.316 72.664C152.316 73.08 152.406 73.4 152.588 73.624C152.78 73.848 153.052 73.96 153.404 73.96C153.745 73.96 154.012 73.8533 154.204 73.64C154.396 73.4267 154.492 73.1013 154.492 72.664L154.492 69.4ZM163.249 73.992L163.249 76.664L162.129 76.664L162.129 75L157.905 75L157.905 76.664L156.785 76.664L156.785 73.992L157.569 73.992C157.782 73.512 157.942 73.0693 158.049 72.664C158.166 72.2587 158.257 71.848 158.321 71.432C158.353 71.1973 158.38 70.936 158.401 70.648C158.422 70.3493 158.438 70.0507 158.449 69.752C158.47 69.4427 158.486 69.1387 158.497 68.84C158.508 68.5307 158.513 68.248 158.513 67.992L158.513 67.064L162.305 67.064L162.305 73.992L163.249 73.992ZM159.569 68.056L159.569 69.064C159.569 69.512 159.553 69.9547 159.521 70.392C159.5 70.8187 159.446 71.2827 159.361 71.784C159.308 72.0933 159.233 72.4347 159.137 72.808C159.052 73.1707 158.908 73.576 158.705 74.024L161.105 74.024L161.105 68.056L159.569 68.056ZM165.692 67.064L165.692 72.328L168.204 68.04L168.204 67.064L169.404 67.064L169.404 75L168.204 75L168.204 69.88L165.692 74.168L165.692 75L164.492 75L164.492 67.064L165.692 67.064ZM175.911 75L174.711 75L174.711 68.072L173.191 68.072L173.159 69C173.159 69.1387 173.153 69.352 173.143 69.64C173.132 69.928 173.116 70.248 173.095 70.6C173.073 70.9413 173.047 71.2933 173.015 71.656C172.993 72.008 172.961 72.328 172.919 72.616C172.865 72.9573 172.791 73.272 172.695 73.56C172.609 73.848 172.481 74.0987 172.311 74.312C172.14 74.5253 171.927 74.696 171.671 74.824C171.415 74.9413 171.095 75 170.711 75L170.519 75L170.519 74.008L170.663 74.008C170.919 74.008 171.127 73.9333 171.287 73.784C171.447 73.6347 171.569 73.4373 171.655 73.192C171.751 72.936 171.815 72.6533 171.847 72.344C171.889 72.024 171.927 71.704 171.959 71.384C171.969 71.224 171.98 71.032 171.991 70.808C172.001 70.5733 172.007 70.3387 172.007 70.104C172.017 69.8693 172.028 69.6507 172.039 69.448C172.049 69.2347 172.055 69.0693 172.055 68.952L172.103 67.064L175.911 67.064L175.911 75ZM179.098 67.064L179.098 70.232L180.17 70.232C180.394 70.232 180.634 70.2533 180.89 70.296C181.157 70.328 181.402 70.408 181.626 70.536C181.85 70.664 182.037 70.8507 182.186 71.096C182.336 71.3413 182.41 71.672 182.41 72.088L182.41 73.048C182.41 73.752 182.202 74.2533 181.786 74.552C181.381 74.8507 180.842 75 180.17 75L177.898 75L177.898 67.064L179.098 67.064ZM179.098 73.992L180.074 73.992C180.202 73.992 180.33 73.976 180.458 73.944C180.597 73.912 180.72 73.8587 180.826 73.784C180.944 73.6987 181.034 73.592 181.098 73.464C181.173 73.3253 181.21 73.1547 181.21 72.952L181.21 72.296C181.21 71.9013 181.088 71.6293 180.842 71.48C180.608 71.32 180.352 71.24 180.074 71.24L179.098 71.24L179.098 73.992ZM184.008 67.064L185.208 67.064L185.208 70.456L187.384 70.456L187.384 67.064L188.584 67.064L188.584 75L187.384 75L187.384 71.48L185.208 71.48L185.208 75L184.008 75L184.008 67.064ZM191.77 67.064L191.77 72.328L194.282 68.04L194.282 67.064L195.482 67.064L195.482 75L194.282 75L194.282 69.88L191.77 74.168L191.77 75L190.57 75L190.57 67.064L191.77 67.064ZM199.557 70.44C199.749 70.44 199.903 70.3973 200.021 70.312C200.138 70.2267 200.229 70.1147 200.293 69.976C200.367 69.8373 200.415 69.688 200.437 69.528C200.469 69.368 200.495 69.2133 200.517 69.064L200.613 68.36C200.645 68.1573 200.687 67.9707 200.741 67.8C200.794 67.6293 200.874 67.4853 200.981 67.368C201.098 67.24 201.253 67.144 201.445 67.08C201.647 67.016 201.909 66.984 202.229 66.984L202.405 66.984L202.405 67.992L202.229 67.992C202.015 67.992 201.866 68.0667 201.781 68.216C201.695 68.3653 201.631 68.5893 201.589 68.888L201.493 69.544C201.439 69.8853 201.386 70.1573 201.333 70.36C201.279 70.5627 201.151 70.7493 200.949 70.92L202.373 75L201.189 75L199.941 71.4L198.661 71.4L198.661 75L197.461 75L197.461 67.064L198.661 67.064L198.661 70.44L199.557 70.44ZM32.192 91.064L32.192 96.328L34.704 92.04L34.704 91.064L35.904 91.064L35.904 99L34.704 99L34.704 93.88L32.192 98.168L32.192 99L30.992 99L30.992 91.064L32.192 91.064ZM42.4106 99L41.2106 99L41.2106 92.072L39.6906 92.072L39.6586 93C39.6586 93.1387 39.6533 93.352 39.6426 93.64C39.632 93.928 39.616 94.248 39.5946 94.6C39.5733 94.9413 39.5466 95.2933 39.5146 95.656C39.4933 96.008 39.4613 96.328 39.4186 96.616C39.3653 96.9573 39.2906 97.272 39.1946 97.56C39.1093 97.848 38.9813 98.0987 38.8106 98.312C38.64 98.5253 38.4266 98.696 38.1706 98.824C37.9146 98.9413 37.5946 99 37.2106 99L37.0186 99L37.0186 98.008L37.1626 98.008C37.4186 98.008 37.6266 97.9333 37.7866 97.784C37.9466 97.6347 38.0693 97.4373 38.1546 97.192C38.2506 96.936 38.3146 96.6533 38.3466 96.344C38.3893 96.024 38.4266 95.704 38.4586 95.384C38.4693 95.224 38.48 95.032 38.4906 94.808C38.5013 94.5733 38.5066 94.3387 38.5066 94.104C38.5173 93.8693 38.528 93.6507 38.5386 93.448C38.5493 93.2347 38.5546 93.0693 38.5546 92.952L38.6026 91.064L42.4106 91.064L42.4106 99ZM45.5983 91.064L45.5983 96.328L48.1102 92.04L48.1102 91.064L49.3103 91.064L49.3103 99L48.1102 99L48.1102 93.88L45.5983 98.168L45.5983 99L44.3983 99L44.3983 91.064L45.5983 91.064ZM58.0633 95.96L59.9193 91.064L61.0713 91.064L61.0713 99L59.9353 99L59.9353 93.752L58.3193 97.864L57.7753 97.864L56.1593 93.752L56.1593 99L55.0233 99L55.0233 91.064L56.1593 91.064L58.0633 95.96ZM62.9905 93.176C62.9905 93.0267 63.0172 92.8293 63.0705 92.584C63.1238 92.328 63.2305 92.0773 63.3905 91.832C63.5612 91.5867 63.7958 91.3787 64.0945 91.208C64.3932 91.0267 64.7878 90.936 65.2785 90.936C65.7692 90.936 66.1638 91.0267 66.4625 91.208C66.7612 91.3787 66.9905 91.5867 67.1505 91.832C67.3212 92.0773 67.4332 92.328 67.4865 92.584C67.5398 92.8293 67.5665 93.0213 67.5665 93.16L67.5665 96.856C67.5665 97.016 67.5398 97.224 67.4865 97.48C67.4332 97.736 67.3212 97.9867 67.1505 98.232C66.9905 98.4773 66.7612 98.6907 66.4625 98.872C66.1638 99.0427 65.7692 99.128 65.2785 99.128C64.7878 99.128 64.3932 99.0427 64.0945 98.872C63.7958 98.6907 63.5612 98.4773 63.3905 98.232C63.2305 97.9867 63.1238 97.736 63.0705 97.48C63.0172 97.224 62.9905 97.016 62.9905 96.856L62.9905 93.176ZM66.3665 93.4C66.3665 92.952 66.2598 92.6267 66.0465 92.424C65.8332 92.2107 65.5772 92.104 65.2785 92.104C64.9798 92.104 64.7238 92.2107 64.5105 92.424C64.2972 92.6267 64.1905 92.952 64.1905 93.4L64.1905 96.664C64.1905 97.08 64.2812 97.4 64.4625 97.624C64.6545 97.848 64.9265 97.96 65.2785 97.96C65.6198 97.96 65.8865 97.8533 66.0785 97.64C66.2705 97.4267 66.3665 97.1013 66.3665 96.664L66.3665 93.4ZM69.492 91.064L70.692 91.064L70.692 91.848C70.948 91.5067 71.2253 91.272 71.524 91.144C71.8333 91.0053 72.1267 90.936 72.404 90.936C72.756 90.936 73.0387 90.9947 73.252 91.112C73.476 91.2293 73.6467 91.384 73.764 91.576C73.8813 91.7573 73.9613 91.9547 74.004 92.168C74.0467 92.3813 74.068 92.584 74.068 92.776L74.068 97.288C74.068 97.48 74.0467 97.6827 74.004 97.896C73.9613 98.1093 73.8813 98.312 73.764 98.504C73.6467 98.6853 73.476 98.8347 73.252 98.952C73.0387 99.0693 72.756 99.128 72.404 99.128C72.1267 99.128 71.8333 99.064 71.524 98.936C71.2253 98.7973 70.948 98.5573 70.692 98.216L70.692 102.264L69.492 102.264L69.492 91.064ZM71.86 97.96C72.052 97.96 72.212 97.928 72.34 97.864C72.468 97.7893 72.5693 97.6933 72.644 97.576C72.7293 97.4587 72.788 97.3253 72.82 97.176C72.852 97.0267 72.868 96.8773 72.868 96.728L72.868 93.336C72.868 93.1867 72.852 93.0373 72.82 92.888C72.788 92.7387 72.7293 92.6053 72.644 92.488C72.5693 92.3707 72.468 92.28 72.34 92.216C72.212 92.1413 72.052 92.104 71.86 92.104C71.6147 92.104 71.4173 92.1573 71.268 92.264C71.1187 92.3707 71.0013 92.4987 70.916 92.648C70.8307 92.7973 70.772 92.9573 70.74 93.128C70.708 93.288 70.692 93.432 70.692 93.56L70.692 96.504C70.692 96.632 70.708 96.7813 70.74 96.952C70.772 97.112 70.8307 97.2667 70.916 97.416C71.0013 97.5653 71.1187 97.6933 71.268 97.8C71.4173 97.9067 71.6147 97.96 71.86 97.96ZM75.9905 93.176C75.9905 93.0267 76.0172 92.8293 76.0705 92.584C76.1238 92.328 76.2305 92.0773 76.3905 91.832C76.5612 91.5867 76.7958 91.3787 77.0945 91.208C77.3932 91.0267 77.7878 90.936 78.2785 90.936C78.7692 90.936 79.1638 91.0267 79.4625 91.208C79.7612 91.3787 79.9905 91.5867 80.1505 91.832C80.3212 92.0773 80.4332 92.328 80.4865 92.584C80.5398 92.8293 80.5665 93.0213 80.5665 93.16L80.5665 96.856C80.5665 97.016 80.5398 97.224 80.4865 97.48C80.4332 97.736 80.3212 97.9867 80.1505 98.232C79.9905 98.4773 79.7612 98.6907 79.4625 98.872C79.1638 99.0427 78.7692 99.128 78.2785 99.128C77.7878 99.128 77.3932 99.0427 77.0945 98.872C76.7958 98.6907 76.5612 98.4773 76.3905 98.232C76.2305 97.9867 76.1238 97.736 76.0705 97.48C76.0172 97.224 75.9905 97.016 75.9905 96.856L75.9905 93.176ZM79.3665 93.4C79.3665 92.952 79.2598 92.6267 79.0465 92.424C78.8332 92.2107 78.5772 92.104 78.2785 92.104C77.9798 92.104 77.7238 92.2107 77.5105 92.424C77.2972 92.6267 77.1905 92.952 77.1905 93.4L77.1905 96.664C77.1905 97.08 77.2812 97.4 77.4625 97.624C77.6545 97.848 77.9265 97.96 78.2785 97.96C78.6198 97.96 78.8865 97.8533 79.0785 97.64C79.2705 97.4267 79.3665 97.1013 79.3665 96.664L79.3665 93.4ZM82.124 93.16C82.124 92.968 82.1507 92.7493 82.204 92.504C82.268 92.248 82.38 92.0027 82.54 91.768C82.7107 91.5333 82.9453 91.336 83.244 91.176C83.5533 91.016 83.948 90.936 84.428 90.936C85.1107 90.936 85.644 91.1173 86.028 91.48C86.4227 91.8427 86.62 92.36 86.62 93.032L86.62 93.336C86.62 93.784 86.508 94.1307 86.284 94.376C86.0707 94.6213 85.8253 94.792 85.548 94.888C85.8253 94.952 86.0387 95.0533 86.188 95.192C86.348 95.3307 86.46 95.48 86.524 95.64C86.5987 95.8 86.6413 95.96 86.652 96.12C86.6733 96.28 86.684 96.408 86.684 96.504L86.684 96.984C86.684 97.6347 86.4707 98.1573 86.044 98.552C85.628 98.936 85.0733 99.128 84.38 99.128C83.9213 99.128 83.5427 99.0533 83.244 98.904C82.956 98.7547 82.7267 98.568 82.556 98.344C82.3853 98.12 82.268 97.88 82.204 97.624C82.14 97.3573 82.108 97.112 82.108 96.888L82.108 96.584L83.308 96.584L83.308 96.76C83.308 97.1973 83.3987 97.5067 83.58 97.688C83.7613 97.8693 84.028 97.96 84.38 97.96C84.796 97.96 85.084 97.848 85.244 97.624C85.404 97.4 85.484 97.1227 85.484 96.792L85.484 96.584C85.484 96.1467 85.3827 95.8533 85.18 95.704C84.988 95.5547 84.7373 95.48 84.428 95.48L83.82 95.48L83.82 94.488L84.38 94.488C84.6893 94.488 84.94 94.376 85.132 94.152C85.324 93.9173 85.42 93.6453 85.42 93.336L85.42 93.048C85.42 92.76 85.3133 92.5307 85.1 92.36C84.8973 92.1893 84.6733 92.104 84.428 92.104C84.0973 92.104 83.8307 92.2053 83.628 92.408C83.4253 92.6107 83.324 92.936 83.324 93.384L83.324 93.496L82.124 93.496L82.124 93.16ZM89.7233 91.064L89.7233 96.328L92.2352 92.04L92.2352 91.064L93.4353 91.064L93.4353 99L92.2352 99L92.2352 93.88L89.7233 98.168L89.7233 99L88.5233 99L88.5233 91.064L89.7233 91.064ZM99.9419 99L98.7419 99L98.7419 92.072L97.2219 92.072L97.1899 93C97.1899 93.1387 97.1845 93.352 97.1739 93.64C97.1632 93.928 97.1472 94.248 97.1259 94.6C97.1045 94.9413 97.0779 95.2933 97.0459 95.656C97.0245 96.008 96.9925 96.328 96.9499 96.616C96.8965 96.9573 96.8219 97.272 96.7259 97.56C96.6405 97.848 96.5125 98.0987 96.3419 98.312C96.1712 98.5253 95.9579 98.696 95.7019 98.824C95.4459 98.9413 95.1259 99 94.7419 99L94.5499 99L94.5499 98.008L94.6939 98.008C94.9499 98.008 95.1579 97.9333 95.3179 97.784C95.4779 97.6347 95.6005 97.4373 95.6859 97.192C95.7819 96.936 95.8459 96.6533 95.8779 96.344C95.9205 96.024 95.9579 95.704 95.9899 95.384C96.0005 95.224 96.0112 95.032 96.0219 94.808C96.0325 94.5733 96.0379 94.3387 96.0379 94.104C96.0485 93.8693 96.0592 93.6507 96.0699 93.448C96.0805 93.2347 96.0859 93.0693 96.0859 92.952L96.1339 91.064L99.9419 91.064L99.9419 99ZM103.13 91.064L103.13 94.232L104.202 94.232C104.426 94.232 104.666 94.2533 104.922 94.296C105.188 94.328 105.434 94.408 105.658 94.536C105.882 94.664 106.068 94.8507 106.218 95.096C106.367 95.3413 106.442 95.672 106.442 96.088L106.442 97.048C106.442 97.752 106.234 98.2533 105.818 98.552C105.412 98.8507 104.874 99 104.202 99L101.93 99L101.93 91.064L103.13 91.064ZM103.13 97.992L104.106 97.992C104.234 97.992 104.362 97.976 104.49 97.944C104.628 97.912 104.751 97.8587 104.858 97.784C104.975 97.6987 105.066 97.592 105.13 97.464C105.204 97.3253 105.242 97.1547 105.242 96.952L105.242 96.296C105.242 95.9013 105.119 95.6293 104.874 95.48C104.639 95.32 104.383 95.24 104.106 95.24L103.13 95.24L103.13 97.992ZM108.039 91.064L109.239 91.064L109.239 94.456L111.415 94.456L111.415 91.064L112.615 91.064L112.615 99L111.415 99L111.415 95.48L109.239 95.48L109.239 99L108.039 99L108.039 91.064ZM116.921 100.408C116.836 100.749 116.735 101.037 116.617 101.272C116.5 101.517 116.356 101.709 116.185 101.848C116.025 101.997 115.828 102.104 115.593 102.168C115.369 102.232 115.103 102.264 114.793 102.264L114.521 102.264L114.521 101.176L114.745 101.176C115.119 101.176 115.385 101.069 115.545 100.856C115.705 100.643 115.844 100.301 115.961 99.832L116.185 98.888L113.849 91.064L115.113 91.064L116.713 96.84L116.745 96.84L117.961 91.064L119.177 91.064L116.921 100.408ZM123.084 95.48L121.692 95.48L121.692 99L120.492 99L120.492 91.064L121.692 91.064L121.692 94.456L123.084 94.456L123.084 93.176C123.084 93.0267 123.111 92.8293 123.164 92.584C123.217 92.328 123.324 92.0773 123.484 91.832C123.644 91.5867 123.873 91.3787 124.172 91.208C124.471 91.0267 124.865 90.936 125.356 90.936C125.847 90.936 126.241 91.0267 126.54 91.208C126.839 91.3787 127.068 91.5867 127.228 91.832C127.399 92.0773 127.511 92.328 127.564 92.584C127.617 92.8293 127.644 93.0213 127.644 93.16L127.644 96.856C127.644 97.016 127.617 97.224 127.564 97.48C127.511 97.736 127.399 97.9867 127.228 98.232C127.068 98.4773 126.839 98.6907 126.54 98.872C126.241 99.0427 125.847 99.128 125.356 99.128C124.865 99.128 124.471 99.0427 124.172 98.872C123.873 98.6907 123.644 98.4773 123.484 98.232C123.324 97.9867 123.217 97.736 123.164 97.48C123.111 97.224 123.084 97.016 123.084 96.856L123.084 95.48ZM126.444 93.4C126.444 92.952 126.337 92.6267 126.124 92.424C125.911 92.2107 125.655 92.104 125.356 92.104C125.057 92.104 124.801 92.2107 124.588 92.424C124.375 92.6267 124.268 92.952 124.268 93.4L124.268 96.664C124.268 97.08 124.359 97.4 124.54 97.624C124.732 97.848 125.004 97.96 125.356 97.96C125.697 97.96 125.964 97.8533 126.156 97.64C126.348 97.4267 126.444 97.1013 126.444 96.664L126.444 93.4ZM135.401 94.44C135.593 94.44 135.747 94.3973 135.865 94.312C135.982 94.2267 136.073 94.1147 136.137 93.976C136.211 93.8373 136.259 93.688 136.281 93.528C136.313 93.368 136.339 93.2133 136.361 93.064L136.457 92.36C136.489 92.1573 136.531 91.9707 136.585 91.8C136.638 91.6293 136.718 91.4853 136.825 91.368C136.942 91.24 137.097 91.144 137.289 91.08C137.491 91.016 137.753 90.984 138.073 90.984L138.249 90.984L138.249 91.992L138.073 91.992C137.859 91.992 137.71 92.0667 137.625 92.216C137.539 92.3653 137.475 92.5893 137.433 92.888L137.337 93.544C137.283 93.8853 137.23 94.1573 137.177 94.36C137.123 94.5627 136.995 94.7493 136.793 94.92L138.217 99L137.033 99L135.785 95.4L134.505 95.4L134.505 99L133.305 99L133.305 91.064L134.505 91.064L134.505 94.44L135.401 94.44ZM143.069 98.216L143.053 98.216C142.957 98.3333 142.856 98.4453 142.749 98.552C142.643 98.6587 142.52 98.7547 142.381 98.84C142.243 98.9253 142.083 98.9947 141.901 99.048C141.731 99.1013 141.517 99.128 141.261 99.128C140.941 99.128 140.675 99.0747 140.461 98.968C140.259 98.8507 140.093 98.6907 139.965 98.488C139.848 98.2853 139.763 98.0507 139.709 97.784C139.656 97.5173 139.629 97.224 139.629 96.904C139.629 96.488 139.667 96.12 139.741 95.8C139.816 95.4693 139.944 95.192 140.125 94.968C140.307 94.744 140.541 94.5733 140.829 94.456C141.128 94.3387 141.501 94.28 141.949 94.28C142.035 94.28 142.157 94.2853 142.317 94.296C142.477 94.296 142.728 94.312 143.069 94.344L143.069 93.176C143.069 93.0693 143.048 92.952 143.005 92.824C142.963 92.696 142.893 92.5787 142.797 92.472C142.712 92.3653 142.6 92.28 142.461 92.216C142.323 92.1413 142.152 92.104 141.949 92.104C141.843 92.104 141.731 92.12 141.613 92.152C141.507 92.1733 141.4 92.2213 141.293 92.296C141.197 92.3707 141.107 92.472 141.021 92.6C140.947 92.728 140.893 92.888 140.861 93.08L139.709 93.08C139.709 92.7493 139.768 92.4507 139.885 92.184C140.013 91.9173 140.179 91.6933 140.381 91.512C140.595 91.32 140.84 91.176 141.117 91.08C141.405 90.984 141.709 90.936 142.029 90.936C142.488 90.936 142.861 91.016 143.149 91.176C143.448 91.3253 143.677 91.5173 143.837 91.752C144.008 91.976 144.12 92.232 144.173 92.52C144.237 92.7973 144.269 93.064 144.269 93.32L144.269 99L143.069 99L143.069 98.216ZM143.069 95.224C142.899 95.2027 142.744 95.1867 142.605 95.176C142.467 95.1547 142.349 95.144 142.253 95.144C142.083 95.144 141.912 95.1707 141.741 95.224C141.571 95.2667 141.416 95.352 141.277 95.48C141.149 95.5973 141.043 95.7573 140.957 95.96C140.872 96.152 140.829 96.392 140.829 96.68C140.829 97.2453 140.915 97.624 141.085 97.816C141.256 98.008 141.512 98.104 141.853 98.104C141.981 98.104 142.115 98.0667 142.253 97.992C142.392 97.9173 142.52 97.8107 142.637 97.672C142.765 97.5333 142.867 97.3787 142.941 97.208C143.027 97.0267 143.069 96.8293 143.069 96.616L143.069 95.224ZM149.298 95.96L151.154 91.064L152.306 91.064L152.306 99L151.17 99L151.17 93.752L149.554 97.864L149.01 97.864L147.394 93.752L147.394 99L146.258 99L146.258 91.064L147.394 91.064L149.298 95.96ZM157.553 96.776L158.753 96.776L158.753 96.888C158.753 97.08 158.721 97.3093 158.657 97.576C158.604 97.832 158.497 98.0773 158.337 98.312C158.177 98.536 157.953 98.728 157.665 98.888C157.377 99.048 157.004 99.128 156.545 99.128C156.044 99.128 155.644 99.0427 155.345 98.872C155.046 98.6907 154.812 98.4773 154.641 98.232C154.47 97.9867 154.358 97.736 154.305 97.48C154.252 97.2133 154.225 96.9947 154.225 96.824L154.225 93.144C154.225 92.984 154.252 92.7813 154.305 92.536C154.358 92.2907 154.465 92.0507 154.625 91.816C154.785 91.5707 155.009 91.3627 155.297 91.192C155.596 91.0213 155.985 90.936 156.465 90.936C156.934 90.936 157.318 91.0213 157.617 91.192C157.926 91.3627 158.166 91.5707 158.337 91.816C158.508 92.0507 158.625 92.3013 158.689 92.568C158.753 92.824 158.785 93.0373 158.785 93.208L158.785 95.48L155.425 95.48L155.425 96.744C155.425 97.1707 155.516 97.48 155.697 97.672C155.889 97.864 156.172 97.96 156.545 97.96C156.897 97.96 157.153 97.864 157.313 97.672C157.473 97.4693 157.553 97.2027 157.553 96.872L157.553 96.776ZM157.585 94.584L157.585 93.224C157.585 93.096 157.569 92.968 157.537 92.84C157.505 92.7013 157.446 92.5787 157.361 92.472C157.276 92.3653 157.164 92.28 157.025 92.216C156.886 92.1413 156.716 92.104 156.513 92.104C156.3 92.104 156.124 92.1413 155.985 92.216C155.846 92.2907 155.734 92.3867 155.649 92.504C155.564 92.6213 155.505 92.7493 155.473 92.888C155.441 93.0267 155.425 93.16 155.425 93.288L155.425 94.584L157.585 94.584ZM160.648 91.064L161.848 91.064L161.848 91.848C162.104 91.5067 162.382 91.272 162.68 91.144C162.99 91.0053 163.283 90.936 163.56 90.936C163.912 90.936 164.195 90.9947 164.408 91.112C164.632 91.2293 164.803 91.384 164.92 91.576C165.038 91.7573 165.118 91.9547 165.16 92.168C165.203 92.3813 165.224 92.584 165.224 92.776L165.224 97.288C165.224 97.48 165.203 97.6827 165.16 97.896C165.118 98.1093 165.038 98.312 164.92 98.504C164.803 98.6853 164.632 98.8347 164.408 98.952C164.195 99.0693 163.912 99.128 163.56 99.128C163.283 99.128 162.99 99.064 162.68 98.936C162.382 98.7973 162.104 98.5573 161.848 98.216L161.848 102.264L160.648 102.264L160.648 91.064ZM163.016 97.96C163.208 97.96 163.368 97.928 163.496 97.864C163.624 97.7893 163.726 97.6933 163.8 97.576C163.886 97.4587 163.944 97.3253 163.976 97.176C164.008 97.0267 164.024 96.8773 164.024 96.728L164.024 93.336C164.024 93.1867 164.008 93.0373 163.976 92.888C163.944 92.7387 163.886 92.6053 163.8 92.488C163.726 92.3707 163.624 92.28 163.496 92.216C163.368 92.1413 163.208 92.104 163.016 92.104C162.771 92.104 162.574 92.1573 162.424 92.264C162.275 92.3707 162.158 92.4987 162.072 92.648C161.987 92.7973 161.928 92.9573 161.896 93.128C161.864 93.288 161.848 93.432 161.848 93.56L161.848 96.504C161.848 96.632 161.864 96.7813 161.896 96.952C161.928 97.112 161.987 97.2667 162.072 97.416C162.158 97.5653 162.275 97.6933 162.424 97.8C162.574 97.9067 162.771 97.96 163.016 97.96ZM169.531 100.408C169.445 100.749 169.344 101.037 169.227 101.272C169.109 101.517 168.965 101.709 168.795 101.848C168.635 101.997 168.437 102.104 168.203 102.168C167.979 102.232 167.712 102.264 167.403 102.264L167.131 102.264L167.131 101.176L167.355 101.176C167.728 101.176 167.995 101.069 168.155 100.856C168.315 100.643 168.453 100.301 168.571 99.832L168.795 98.888L166.459 91.064L167.723 91.064L169.323 96.84L169.355 96.84L170.571 91.064L171.787 91.064L169.531 100.408Z" fill="white"/>
<defs>
<linearGradient id="paint0_linear_482_205" x1="0.25798" y1="70.5992" x2="255.656" y2="70.6454" gradientUnits="userSpaceOnUse">
<stop stop-color="#8451DA"/>
<stop offset="0.815" stop-color="#462B74"/>
</linearGradient>
</defs>
</svg>
