<svg width="259" height="188" viewBox="0 0 259 188" fill="none" xmlns="http://www.w3.org/2000/svg">
<path d="M255.665 20.4334C255.665 17.8698 253.727 15.7169 251.177 15.4488L128.979 2.59982C128.64 2.56424 128.299 2.56329 127.961 2.59698L4.76063 14.8625C2.20893 15.1165 0.267624 17.2609 0.26716 19.826L0.248746 121.669C0.248281 124.239 2.19558 126.395 4.75239 126.656L127.989 139.215C128.32 139.249 128.653 139.249 128.984 139.217L251.145 127.248C253.7 126.998 255.646 124.852 255.646 122.284L255.665 20.4334Z" fill="url(#paint0_linear_821_2662)"/>
<path d="M244.527 155.715L211.174 121.637L236.059 69.1681L244.527 155.715Z" fill="#462B74"/>
<path d="M25.233 34.8182H26.7045L30.1648 43.2699H30.2841L33.7443 34.8182H35.2159V45H34.0625V37.2642H33.9631L30.7812 45H29.6676L26.4858 37.2642H26.3864V45H25.233V34.8182ZM38.5431 40.1278H40.7306C41.6255 40.1278 42.31 40.3549 42.7839 40.8089C43.2579 41.263 43.4949 41.8381 43.4949 42.5341C43.4949 42.9915 43.3888 43.4074 43.1767 43.782C42.9645 44.1532 42.653 44.4498 42.242 44.6719C41.831 44.8906 41.3272 45 40.7306 45H37.5289V37.3636H38.7022V43.9062H40.7306C41.1947 43.9062 41.5758 43.7836 41.8741 43.5384C42.1724 43.2931 42.3216 42.9782 42.3216 42.5938C42.3216 42.1894 42.1724 41.8596 41.8741 41.6044C41.5758 41.3492 41.1947 41.2216 40.7306 41.2216H38.5431V40.1278ZM44.7079 45V37.3636H45.8812V45H44.7079ZM51.4892 43.0511H52.742C52.7685 43.3958 52.9243 43.6577 53.2093 43.8366C53.4977 44.0156 53.8722 44.1051 54.3329 44.1051C54.8036 44.1051 55.2063 44.009 55.541 43.8168C55.8758 43.6212 56.0431 43.3063 56.0431 42.8722C56.0431 42.617 55.9802 42.3949 55.8542 42.206C55.7283 42.0137 55.551 41.8646 55.3223 41.7585C55.0936 41.6525 54.8234 41.5994 54.5119 41.5994H53.1994V40.5455H54.5119C54.9792 40.5455 55.3239 40.4394 55.546 40.2273C55.7714 40.0152 55.8841 39.75 55.8841 39.4318C55.8841 39.0904 55.7631 38.817 55.5211 38.6115C55.2792 38.4027 54.9361 38.2983 54.492 38.2983C54.0446 38.2983 53.6717 38.3994 53.3734 38.6016C53.0751 38.8004 52.9177 39.0573 52.9011 39.3722H51.6681C51.6814 38.9612 51.8074 38.5982 52.046 38.2834C52.2846 37.9652 52.6094 37.7166 53.0204 37.5376C53.4314 37.3554 53.902 37.2642 54.4324 37.2642C54.9693 37.2642 55.435 37.3587 55.8294 37.5476C56.2271 37.7332 56.5337 37.9867 56.7491 38.3082C56.9679 38.6264 57.0772 38.9877 57.0772 39.392C57.0772 39.8229 56.9563 40.1709 56.7143 40.4361C56.4724 40.7012 56.1691 40.8902 55.8045 41.0028V41.0824C56.0929 41.1023 56.3431 41.1951 56.5552 41.3608C56.7707 41.5232 56.938 41.737 57.0574 42.0021C57.1767 42.264 57.2363 42.554 57.2363 42.8722C57.2363 43.3362 57.112 43.7405 56.8635 44.0852C56.6149 44.4266 56.2735 44.6918 55.8393 44.8807C55.4051 45.0663 54.9096 45.1591 54.3528 45.1591C53.8126 45.1591 53.3287 45.0713 52.9011 44.8956C52.4735 44.7166 52.1338 44.4697 51.8819 44.1548C51.6333 43.8366 51.5024 43.4688 51.4892 43.0511ZM61.1316 45.179C60.6477 45.179 60.2085 45.0878 59.8141 44.9055C59.4197 44.7199 59.1065 44.4531 58.8745 44.1051C58.6425 43.7538 58.5265 43.3295 58.5265 42.8324C58.5265 42.3949 58.6126 42.0402 58.785 41.7685C58.9573 41.4934 59.1877 41.2779 59.476 41.1222C59.7644 40.9664 60.0826 40.8504 60.4306 40.7741C60.7819 40.6946 61.1349 40.6316 61.4895 40.5852C61.9535 40.5256 62.3297 40.4808 62.6181 40.451C62.9097 40.4179 63.1219 40.3632 63.2544 40.2869C63.3903 40.2107 63.4583 40.0781 63.4583 39.8892V39.8494C63.4583 39.3589 63.324 38.9777 63.0556 38.706C62.7904 38.4342 62.3877 38.2983 61.8475 38.2983C61.2873 38.2983 60.8482 38.4209 60.53 38.6662C60.2118 38.9115 59.9881 39.1733 59.8588 39.4517L58.7452 39.054C58.9441 38.59 59.2092 38.2287 59.5407 37.9702C59.8754 37.7083 60.24 37.526 60.6344 37.4233C61.0321 37.3172 61.4232 37.2642 61.8077 37.2642C62.053 37.2642 62.3347 37.294 62.6529 37.3537C62.9744 37.41 63.2843 37.5277 63.5826 37.7067C63.8842 37.8857 64.1344 38.1558 64.3333 38.517C64.5321 38.8783 64.6316 39.3622 64.6316 39.9688V45H63.4583V43.9659H63.3986C63.3191 44.1316 63.1865 44.3089 63.0009 44.4979C62.8153 44.6868 62.5684 44.8475 62.2601 44.9801C61.9519 45.1127 61.5757 45.179 61.1316 45.179ZM61.3105 44.125C61.7746 44.125 62.1657 44.0339 62.4838 43.8516C62.8053 43.6693 63.0473 43.4339 63.2097 43.1456C63.3754 42.8572 63.4583 42.554 63.4583 42.2358V41.1619C63.4086 41.2216 63.2992 41.2763 63.1301 41.326C62.9644 41.3724 62.7722 41.4138 62.5534 41.4503C62.338 41.4834 62.1275 41.5133 61.9221 41.5398C61.7199 41.563 61.5558 41.5829 61.4299 41.5994C61.1249 41.6392 60.8399 41.7038 60.5748 41.7933C60.3129 41.8795 60.1008 42.0104 59.9384 42.1861C59.7793 42.3584 59.6998 42.5937 59.6998 42.892C59.6998 43.2997 59.8506 43.608 60.1522 43.8168C60.4571 44.0223 60.8432 44.125 61.3105 44.125ZM70.9492 43.4091L73.614 37.3636H74.7276L71.4265 45H70.4719L67.2305 37.3636H68.3242L70.9492 43.4091ZM67.9464 37.3636V45H66.7731V37.3636H67.9464ZM73.9521 45V37.3636H75.1254V45H73.9521ZM80.3754 45.1591C79.686 45.1591 79.0811 44.995 78.5607 44.6669C78.0437 44.3388 77.6393 43.8797 77.3477 43.2898C77.0593 42.6998 76.9151 42.0104 76.9151 41.2216C76.9151 40.4261 77.0593 39.7318 77.3477 39.1385C77.6393 38.5452 78.0437 38.0845 78.5607 37.7564C79.0811 37.4283 79.686 37.2642 80.3754 37.2642C81.0647 37.2642 81.668 37.4283 82.185 37.7564C82.7054 38.0845 83.1097 38.5452 83.3981 39.1385C83.6897 39.7318 83.8356 40.4261 83.8356 41.2216C83.8356 42.0104 83.6897 42.6998 83.3981 43.2898C83.1097 43.8797 82.7054 44.3388 82.185 44.6669C81.668 44.995 81.0647 45.1591 80.3754 45.1591ZM80.3754 44.1051C80.899 44.1051 81.3299 43.9709 81.668 43.7024C82.006 43.4339 82.2563 43.081 82.4187 42.6435C82.5811 42.206 82.6623 41.732 82.6623 41.2216C82.6623 40.7112 82.5811 40.2356 82.4187 39.7947C82.2563 39.3539 82.006 38.9976 81.668 38.7259C81.3299 38.4541 80.899 38.3182 80.3754 38.3182C79.8517 38.3182 79.4208 38.4541 79.0827 38.7259C78.7447 38.9976 78.4944 39.3539 78.332 39.7947C78.1696 40.2356 78.0884 40.7112 78.0884 41.2216C78.0884 41.732 78.1696 42.206 78.332 42.6435C78.4944 43.081 78.7447 43.4339 79.0827 43.7024C79.4208 43.9709 79.8517 44.1051 80.3754 44.1051ZM85.6266 47.8636V37.3636H86.7601V38.5767H86.8993C86.9855 38.4441 87.1048 38.2751 87.2573 38.0696C87.4131 37.8608 87.6351 37.6752 87.9235 37.5128C88.2151 37.3471 88.6096 37.2642 89.1067 37.2642C89.7497 37.2642 90.3165 37.425 90.807 37.7464C91.2975 38.0679 91.6803 38.5237 91.9554 39.1136C92.2305 39.7036 92.3681 40.3996 92.3681 41.2017C92.3681 42.0104 92.2305 42.7114 91.9554 43.3047C91.6803 43.8946 91.2992 44.352 90.812 44.6768C90.3248 44.9983 89.763 45.1591 89.1266 45.1591C88.6361 45.1591 88.2433 45.0779 87.9483 44.9155C87.6533 44.7498 87.4263 44.5625 87.2672 44.3537C87.1081 44.1416 86.9855 43.9659 86.8993 43.8267H86.7999V47.8636H85.6266ZM86.78 41.1818C86.78 41.7585 86.8645 42.2673 87.0336 42.7081C87.2026 43.1456 87.4495 43.4886 87.7743 43.7372C88.0991 43.9825 88.4969 44.1051 88.9675 44.1051C89.458 44.1051 89.8674 43.9759 90.1955 43.7173C90.5269 43.4555 90.7755 43.1042 90.9412 42.6634C91.1103 42.2192 91.1948 41.7254 91.1948 41.1818C91.1948 40.6449 91.1119 40.161 90.9462 39.7301C90.7838 39.2959 90.5369 38.9529 90.2054 38.701C89.8773 38.4458 89.4647 38.3182 88.9675 38.3182C88.4902 38.3182 88.0892 38.4392 87.7644 38.6811C87.4396 38.9197 87.1943 39.2545 87.0286 39.6854C86.8629 40.1129 86.78 40.6117 86.78 41.1818ZM96.405 45.179C95.9211 45.179 95.4819 45.0878 95.0875 44.9055C94.6931 44.7199 94.3799 44.4531 94.1479 44.1051C93.9159 43.7538 93.7999 43.3295 93.7999 42.8324C93.7999 42.3949 93.8861 42.0402 94.0584 41.7685C94.2308 41.4934 94.4611 41.2779 94.7495 41.1222C95.0378 40.9664 95.356 40.8504 95.704 40.7741C96.0553 40.6946 96.4083 40.6316 96.763 40.5852C97.227 40.5256 97.6032 40.4808 97.8915 40.451C98.1832 40.4179 98.3953 40.3632 98.5279 40.2869C98.6638 40.2107 98.7317 40.0781 98.7317 39.8892V39.8494C98.7317 39.3589 98.5975 38.9777 98.329 38.706C98.0639 38.4342 97.6612 38.2983 97.1209 38.2983C96.5608 38.2983 96.1216 38.4209 95.8034 38.6662C95.4853 38.9115 95.2615 39.1733 95.1323 39.4517L94.0186 39.054C94.2175 38.59 94.4827 38.2287 94.8141 37.9702C95.1489 37.7083 95.5134 37.526 95.9078 37.4233C96.3056 37.3172 96.6967 37.2642 97.0811 37.2642C97.3264 37.2642 97.6081 37.294 97.9263 37.3537C98.2478 37.41 98.5577 37.5277 98.856 37.7067C99.1576 37.8857 99.4078 38.1558 99.6067 38.517C99.8056 38.8783 99.905 39.3622 99.905 39.9688V45H98.7317V43.9659H98.6721C98.5925 44.1316 98.4599 44.3089 98.2743 44.4979C98.0887 44.6868 97.8418 44.8475 97.5336 44.9801C97.2253 45.1127 96.8491 45.179 96.405 45.179ZM96.584 44.125C97.048 44.125 97.4391 44.0339 97.7573 43.8516C98.0788 43.6693 98.3207 43.4339 98.4831 43.1456C98.6489 42.8572 98.7317 42.554 98.7317 42.2358V41.1619C98.682 41.2216 98.5726 41.2763 98.4036 41.326C98.2379 41.3724 98.0456 41.4138 97.8269 41.4503C97.6114 41.4834 97.401 41.5133 97.1955 41.5398C96.9933 41.563 96.8292 41.5829 96.7033 41.5994C96.3984 41.6392 96.1133 41.7038 95.8482 41.7933C95.5864 41.8795 95.3742 42.0104 95.2118 42.1861C95.0527 42.3584 94.9732 42.5937 94.9732 42.892C94.9732 43.2997 95.124 43.608 95.4256 43.8168C95.7305 44.0223 96.1167 44.125 96.584 44.125ZM101.569 45L104.672 41.1222L101.609 37.3636H103.001L105.547 40.625H106.183V37.3636H107.356V40.625H107.973L110.518 37.3636H111.91L108.868 41.1222L111.95 45H110.538L107.953 41.7188H107.356V45H106.183V41.7188H105.586L102.981 45H101.569ZM114.8 43.2699L118.479 37.3636H119.831V45H118.658V39.0938L114.999 45H113.627V37.3636H114.8V43.2699ZM121.98 45V37.3636H125.102C125.924 37.3636 126.577 37.5492 127.061 37.9205C127.545 38.2917 127.787 38.7822 127.787 39.392C127.787 39.8561 127.649 40.2157 127.374 40.4709C127.099 40.7228 126.746 40.8935 126.315 40.983C126.597 41.0227 126.871 41.1222 127.136 41.2812C127.404 41.4403 127.626 41.6591 127.802 41.9375C127.978 42.2126 128.065 42.5507 128.065 42.9517C128.065 43.3428 127.966 43.6925 127.767 44.0007C127.568 44.3089 127.283 44.5526 126.912 44.7315C126.541 44.9105 126.097 45 125.58 45H121.98ZM123.094 43.9261H125.58C125.984 43.9261 126.3 43.83 126.529 43.6378C126.758 43.4455 126.872 43.1837 126.872 42.8523C126.872 42.4579 126.758 42.148 126.529 41.9226C126.3 41.6939 125.984 41.5795 125.58 41.5795H123.094V43.9261ZM123.094 40.5653H125.102C125.417 40.5653 125.687 40.5223 125.913 40.4361C126.138 40.3466 126.31 40.2206 126.43 40.0582C126.552 39.8925 126.614 39.697 126.614 39.4716C126.614 39.1501 126.479 38.8982 126.211 38.7159C125.942 38.5303 125.573 38.4375 125.102 38.4375H123.094V40.5653ZM132.089 45.179C131.605 45.179 131.166 45.0878 130.771 44.9055C130.377 44.7199 130.064 44.4531 129.831 44.1051C129.599 43.7538 129.483 43.3295 129.483 42.8324C129.483 42.3949 129.57 42.0402 129.742 41.7685C129.914 41.4934 130.145 41.2779 130.433 41.1222C130.721 40.9664 131.04 40.8504 131.388 40.7741C131.739 40.6946 132.092 40.6316 132.447 40.5852C132.911 40.5256 133.287 40.4808 133.575 40.451C133.867 40.4179 134.079 40.3632 134.211 40.2869C134.347 40.2107 134.415 40.0781 134.415 39.8892V39.8494C134.415 39.3589 134.281 38.9777 134.013 38.706C133.747 38.4342 133.345 38.2983 132.805 38.2983C132.244 38.2983 131.805 38.4209 131.487 38.6662C131.169 38.9115 130.945 39.1733 130.816 39.4517L129.702 39.054C129.901 38.59 130.166 38.2287 130.498 37.9702C130.832 37.7083 131.197 37.526 131.591 37.4233C131.989 37.3172 132.38 37.2642 132.765 37.2642C133.01 37.2642 133.292 37.294 133.61 37.3537C133.931 37.41 134.241 37.5277 134.54 37.7067C134.841 37.8857 135.091 38.1558 135.29 38.517C135.489 38.8783 135.589 39.3622 135.589 39.9688V45H134.415V43.9659H134.356C134.276 44.1316 134.144 44.3089 133.958 44.4979C133.772 44.6868 133.525 44.8475 133.217 44.9801C132.909 45.1127 132.533 45.179 132.089 45.179ZM132.268 44.125C132.732 44.125 133.123 44.0339 133.441 43.8516C133.762 43.6693 134.004 43.4339 134.167 43.1456C134.332 42.8572 134.415 42.554 134.415 42.2358V41.1619C134.366 41.2216 134.256 41.2763 134.087 41.326C133.921 41.3724 133.729 41.4138 133.51 41.4503C133.295 41.4834 133.085 41.5133 132.879 41.5398C132.677 41.563 132.513 41.5829 132.387 41.5994C132.082 41.6392 131.797 41.7038 131.532 41.7933C131.27 41.8795 131.058 42.0104 130.895 42.1861C130.736 42.3584 130.657 42.5937 130.657 42.892C130.657 43.2997 130.808 43.608 131.109 43.8168C131.414 44.0223 131.8 44.125 132.268 44.125ZM140.932 45.1591C140.196 45.1591 139.561 44.9967 139.028 44.6719C138.497 44.3438 138.088 43.8864 137.8 43.2997C137.515 42.7098 137.372 42.0237 137.372 41.2415C137.372 40.4593 137.515 39.7699 137.8 39.1733C138.088 38.5734 138.489 38.1061 139.003 37.7713C139.52 37.4332 140.123 37.2642 140.812 37.2642C141.21 37.2642 141.603 37.3305 141.991 37.4631C142.379 37.5956 142.732 37.8111 143.05 38.1094C143.368 38.4044 143.621 38.7955 143.81 39.2827C143.999 39.7699 144.094 40.3698 144.094 41.0824V41.5795H138.207V40.5653H142.901C142.901 40.1345 142.814 39.75 142.642 39.4119C142.473 39.0739 142.231 38.8071 141.916 38.6115C141.605 38.416 141.237 38.3182 140.812 38.3182C140.345 38.3182 139.941 38.4342 139.599 38.6662C139.261 38.8949 139.001 39.1932 138.819 39.5611C138.637 39.929 138.545 40.3234 138.545 40.7443V41.4205C138.545 41.9972 138.645 42.486 138.844 42.8871C139.046 43.2848 139.326 43.5881 139.684 43.7969C140.042 44.0024 140.458 44.1051 140.932 44.1051C141.24 44.1051 141.518 44.062 141.767 43.9759C142.019 43.8864 142.236 43.7538 142.418 43.5781C142.601 43.3991 142.741 43.1771 142.841 42.9119L143.974 43.2301C143.855 43.6146 143.655 43.9527 143.373 44.2443C143.091 44.5327 142.743 44.758 142.329 44.9205C141.915 45.0795 141.449 45.1591 140.932 45.1591ZM150.055 43.4091L152.719 37.3636H153.833L150.532 45H149.577L146.336 37.3636H147.43L150.055 43.4091ZM147.052 37.3636V45H145.879V37.3636H147.052ZM153.058 45V37.3636H154.231V45H153.058ZM163.418 45.1591C162.702 45.1591 162.086 44.9901 161.569 44.652C161.052 44.3139 160.654 43.8482 160.376 43.255C160.097 42.6617 159.958 41.9839 159.958 41.2216C159.958 40.446 160.101 39.7616 160.386 39.1683C160.674 38.5717 161.075 38.1061 161.589 37.7713C162.106 37.4332 162.709 37.2642 163.398 37.2642C163.935 37.2642 164.419 37.3636 164.85 37.5625C165.281 37.7614 165.634 38.0398 165.909 38.3977C166.184 38.7557 166.355 39.1733 166.421 39.6506H165.248C165.158 39.3026 164.96 38.9943 164.651 38.7259C164.346 38.4541 163.935 38.3182 163.418 38.3182C162.961 38.3182 162.56 38.4375 162.215 38.6761C161.874 38.9115 161.607 39.2446 161.415 39.6754C161.226 40.103 161.131 40.6051 161.131 41.1818C161.131 41.7718 161.224 42.2855 161.41 42.723C161.599 43.1605 161.864 43.5002 162.205 43.7422C162.55 43.9841 162.954 44.1051 163.418 44.1051C163.723 44.1051 164 44.0521 164.249 43.946C164.497 43.84 164.708 43.6875 164.88 43.4886C165.052 43.2898 165.175 43.0511 165.248 42.7727H166.421C166.355 43.2235 166.191 43.6295 165.929 43.9908C165.67 44.3487 165.327 44.6338 164.9 44.8459C164.476 45.0547 163.982 45.1591 163.418 45.1591ZM168.136 45V37.3636H171.259C172.08 37.3636 172.733 37.5492 173.217 37.9205C173.701 38.2917 173.943 38.7822 173.943 39.392C173.943 39.8561 173.806 40.2157 173.531 40.4709C173.255 40.7228 172.902 40.8935 172.472 40.983C172.753 41.0227 173.027 41.1222 173.292 41.2812C173.56 41.4403 173.782 41.6591 173.958 41.9375C174.134 42.2126 174.222 42.5507 174.222 42.9517C174.222 43.3428 174.122 43.6925 173.923 44.0007C173.724 44.3089 173.439 44.5526 173.068 44.7315C172.697 44.9105 172.253 45 171.736 45H168.136ZM169.25 43.9261H171.736C172.14 43.9261 172.457 43.83 172.685 43.6378C172.914 43.4455 173.028 43.1837 173.028 42.8523C173.028 42.4579 172.914 42.148 172.685 41.9226C172.457 41.6939 172.14 41.5795 171.736 41.5795H169.25V43.9261ZM169.25 40.5653H171.259C171.573 40.5653 171.844 40.5223 172.069 40.4361C172.294 40.3466 172.467 40.2206 172.586 40.0582C172.709 39.8925 172.77 39.697 172.77 39.4716C172.77 39.1501 172.636 38.8982 172.367 38.7159C172.099 38.5303 171.729 38.4375 171.259 38.4375H169.25V40.5653ZM177.171 43.2699L180.85 37.3636H182.202V45H181.029V39.0938L177.37 45H175.998V37.3636H177.171V43.2699ZM189.462 40.6449V41.7386H185.246V40.6449H189.462ZM185.525 37.3636V45H184.351V37.3636H185.525ZM190.357 37.3636V45H189.184V37.3636H190.357ZM193.673 43.2699L197.352 37.3636H198.704V45H197.531V39.0938L193.872 45H192.5V37.3636H193.673V43.2699ZM205.964 40.6449V41.7386H201.748V40.6449H205.964ZM202.026 37.3636V45H200.853V37.3636H202.026ZM206.859 37.3636V45H205.686V37.3636H206.859ZM209.484 47.8636C209.285 47.8636 209.108 47.8471 208.952 47.8139C208.796 47.7841 208.688 47.7543 208.629 47.7244L208.927 46.6903C209.212 46.7633 209.464 46.7898 209.683 46.7699C209.901 46.75 210.095 46.6522 210.264 46.4766C210.437 46.3042 210.594 46.0241 210.737 45.6364L210.955 45.0398L208.132 37.3636H209.404L211.512 43.4489H211.592L213.7 37.3636H214.972L211.731 46.1136C211.585 46.508 211.405 46.8345 211.189 47.093C210.974 47.3549 210.723 47.5488 210.438 47.6747C210.157 47.8007 209.838 47.8636 209.484 47.8636ZM24.6364 59.4574V58.3636H30.8409V59.4574H28.3352V66H27.1619V59.4574H24.6364ZM35.2582 66.1591C34.5688 66.1591 33.9639 65.995 33.4435 65.6669C32.9265 65.3388 32.5221 64.8797 32.2305 64.2898C31.9421 63.6998 31.7979 63.0104 31.7979 62.2216C31.7979 61.4261 31.9421 60.7318 32.2305 60.1385C32.5221 59.5452 32.9265 59.0845 33.4435 58.7564C33.9639 58.4283 34.5688 58.2642 35.2582 58.2642C35.9476 58.2642 36.5508 58.4283 37.0678 58.7564C37.5882 59.0845 37.9925 59.5452 38.2809 60.1385C38.5726 60.7318 38.7184 61.4261 38.7184 62.2216C38.7184 63.0104 38.5726 63.6998 38.2809 64.2898C37.9925 64.8797 37.5882 65.3388 37.0678 65.6669C36.5508 65.995 35.9476 66.1591 35.2582 66.1591ZM35.2582 65.1051C35.7818 65.1051 36.2127 64.9709 36.5508 64.7024C36.8888 64.4339 37.1391 64.081 37.3015 63.6435C37.4639 63.206 37.5451 62.732 37.5451 62.2216C37.5451 61.7112 37.4639 61.2356 37.3015 60.7947C37.1391 60.3539 36.8888 59.9976 36.5508 59.7259C36.2127 59.4541 35.7818 59.3182 35.2582 59.3182C34.7345 59.3182 34.3036 59.4541 33.9656 59.7259C33.6275 59.9976 33.3772 60.3539 33.2148 60.7947C33.0524 61.2356 32.9712 61.7112 32.9712 62.2216C32.9712 62.732 33.0524 63.206 33.2148 63.6435C33.3772 64.081 33.6275 64.4339 33.9656 64.7024C34.3036 64.9709 34.7345 65.1051 35.2582 65.1051ZM39.8333 66V64.9062H40.1117C40.3404 64.9062 40.531 64.8615 40.6834 64.772C40.8359 64.6792 40.9585 64.5185 41.0513 64.2898C41.1474 64.0578 41.2203 63.7363 41.2701 63.3253C41.3231 62.911 41.3612 62.384 41.3844 61.7443L41.5236 58.3636H46.6145V66H45.4412V59.4574H42.6373L42.5179 62.1818C42.4914 62.8082 42.4351 63.3601 42.3489 63.8374C42.266 64.3113 42.1384 64.709 41.9661 65.0305C41.7971 65.352 41.5717 65.594 41.29 65.7564C41.0082 65.9188 40.6552 66 40.231 66H39.8333ZM49.7814 61.1278H51.9689C52.8638 61.1278 53.5482 61.3549 54.0222 61.8089C54.4962 62.263 54.7331 62.8381 54.7331 63.5341C54.7331 63.9915 54.6271 64.4074 54.415 64.782C54.2028 65.1532 53.8913 65.4498 53.4803 65.6719C53.0693 65.8906 52.5655 66 51.9689 66H48.7672V58.3636H49.9405V64.9062H51.9689C52.4329 64.9062 52.8141 64.7836 53.1124 64.5384C53.4107 64.2931 53.5598 63.9782 53.5598 63.5938C53.5598 63.1894 53.4107 62.8596 53.1124 62.6044C52.8141 62.3492 52.4329 62.2216 51.9689 62.2216H49.7814V61.1278ZM56.5192 66V58.3636H57.6925V61.6847H58.468L61.2124 58.3636H62.7237L59.6413 62.0426L62.7635 66H61.2521L58.7464 62.7784H57.6925V66H56.5192ZM66.8265 66.1591C66.1371 66.1591 65.5323 65.995 65.0119 65.6669C64.4949 65.3388 64.0905 64.8797 63.7988 64.2898C63.5105 63.6998 63.3663 63.0104 63.3663 62.2216C63.3663 61.4261 63.5105 60.7318 63.7988 60.1385C64.0905 59.5452 64.4949 59.0845 65.0119 58.7564C65.5323 58.4283 66.1371 58.2642 66.8265 58.2642C67.5159 58.2642 68.1191 58.4283 68.6362 58.7564C69.1565 59.0845 69.5609 59.5452 69.8493 60.1385C70.1409 60.7318 70.2868 61.4261 70.2868 62.2216C70.2868 63.0104 70.1409 63.6998 69.8493 64.2898C69.5609 64.8797 69.1565 65.3388 68.6362 65.6669C68.1191 65.995 67.5159 66.1591 66.8265 66.1591ZM66.8265 65.1051C67.3502 65.1051 67.7811 64.9709 68.1191 64.7024C68.4572 64.4339 68.7074 64.081 68.8699 63.6435C69.0323 63.206 69.1135 62.732 69.1135 62.2216C69.1135 61.7112 69.0323 61.2356 68.8699 60.7947C68.7074 60.3539 68.4572 59.9976 68.1191 59.7259C67.7811 59.4541 67.3502 59.3182 66.8265 59.3182C66.3029 59.3182 65.872 59.4541 65.5339 59.7259C65.1958 59.9976 64.9456 60.3539 64.7832 60.7947C64.6208 61.2356 64.5396 61.7112 64.5396 62.2216C64.5396 62.732 64.6208 63.206 64.7832 63.6435C64.9456 64.081 65.1958 64.4339 65.5339 64.7024C65.872 64.9709 66.3029 65.1051 66.8265 65.1051ZM79.1175 66.1591C78.4281 66.1591 77.8233 65.995 77.3029 65.6669C76.7859 65.3388 76.3815 64.8797 76.0898 64.2898C75.8015 63.6998 75.6573 63.0104 75.6573 62.2216C75.6573 61.4261 75.8015 60.7318 76.0898 60.1385C76.3815 59.5452 76.7859 59.0845 77.3029 58.7564C77.8233 58.4283 78.4281 58.2642 79.1175 58.2642C79.8069 58.2642 80.4102 58.4283 80.9272 58.7564C81.4476 59.0845 81.8519 59.5452 82.1403 60.1385C82.4319 60.7318 82.5778 61.4261 82.5778 62.2216C82.5778 63.0104 82.4319 63.6998 82.1403 64.2898C81.8519 64.8797 81.4476 65.3388 80.9272 65.6669C80.4102 65.995 79.8069 66.1591 79.1175 66.1591ZM79.1175 65.1051C79.6412 65.1051 80.0721 64.9709 80.4102 64.7024C80.7482 64.4339 80.9985 64.081 81.1609 63.6435C81.3233 63.206 81.4045 62.732 81.4045 62.2216C81.4045 61.7112 81.3233 61.2356 81.1609 60.7947C80.9985 60.3539 80.7482 59.9976 80.4102 59.7259C80.0721 59.4541 79.6412 59.3182 79.1175 59.3182C78.5939 59.3182 78.163 59.4541 77.8249 59.7259C77.4869 59.9976 77.2366 60.3539 77.0742 60.7947C76.9118 61.2356 76.8306 61.7112 76.8306 62.2216C76.8306 62.732 76.9118 63.206 77.0742 63.6435C77.2366 64.081 77.4869 64.4339 77.8249 64.7024C78.163 64.9709 78.5939 65.1051 79.1175 65.1051ZM83.5534 68.1875V64.9062H84.1898C84.3456 64.7438 84.4798 64.5682 84.5925 64.3793C84.7052 64.1903 84.803 63.9666 84.8858 63.7081C84.972 63.4463 85.0449 63.1281 85.1046 62.7536C85.1642 62.3757 85.2173 61.92 85.2637 61.3864L85.5222 58.3636H90.3745V64.9062H91.5478V68.1875H90.3745V66H84.7267V68.1875H83.5534ZM85.5222 64.9062H89.2012V59.4574H86.6159L86.4171 61.3864C86.3342 62.1851 86.2315 62.8828 86.1088 63.4794C85.9862 64.076 85.7907 64.5516 85.5222 64.9062ZM94.2784 64.2699L97.9574 58.3636H99.3097V66H98.1364V60.0938L94.4773 66H93.1051V58.3636H94.2784V64.2699ZM106.569 61.6449V62.7386H102.354V61.6449H106.569ZM102.632 58.3636V66H101.459V58.3636H102.632ZM107.464 58.3636V66H106.291V58.3636H107.464ZM113.545 68.8636V58.3636H114.678V59.5767H114.817C114.903 59.4441 115.023 59.2751 115.175 59.0696C115.331 58.8608 115.553 58.6752 115.841 58.5128C116.133 58.3471 116.528 58.2642 117.025 58.2642C117.668 58.2642 118.234 58.425 118.725 58.7464C119.215 59.0679 119.598 59.5237 119.873 60.1136C120.148 60.7036 120.286 61.3996 120.286 62.2017C120.286 63.0104 120.148 63.7114 119.873 64.3047C119.598 64.8946 119.217 65.352 118.73 65.6768C118.243 65.9983 117.681 66.1591 117.045 66.1591C116.554 66.1591 116.161 66.0779 115.866 65.9155C115.571 65.7498 115.344 65.5625 115.185 65.3537C115.026 65.1416 114.903 64.9659 114.817 64.8267H114.718V68.8636H113.545ZM114.698 62.1818C114.698 62.7585 114.782 63.2673 114.952 63.7081C115.121 64.1456 115.367 64.4886 115.692 64.7372C116.017 64.9825 116.415 65.1051 116.885 65.1051C117.376 65.1051 117.785 64.9759 118.113 64.7173C118.445 64.4555 118.693 64.1042 118.859 63.6634C119.028 63.2192 119.113 62.7254 119.113 62.1818C119.113 61.6449 119.03 61.161 118.864 60.7301C118.702 60.2959 118.455 59.9529 118.123 59.701C117.795 59.4458 117.383 59.3182 116.885 59.3182C116.408 59.3182 116.007 59.4392 115.682 59.6811C115.358 59.9197 115.112 60.2545 114.947 60.6854C114.781 61.1129 114.698 61.6117 114.698 62.1818ZM124.323 66.179C123.839 66.179 123.4 66.0878 123.006 65.9055C122.611 65.7199 122.298 65.4531 122.066 65.1051C121.834 64.7538 121.718 64.3295 121.718 63.8324C121.718 63.3949 121.804 63.0402 121.976 62.7685C122.149 62.4934 122.379 62.2779 122.667 62.1222C122.956 61.9664 123.274 61.8504 123.622 61.7741C123.973 61.6946 124.326 61.6316 124.681 61.5852C125.145 61.5256 125.521 61.4808 125.809 61.451C126.101 61.4179 126.313 61.3632 126.446 61.2869C126.582 61.2107 126.65 61.0781 126.65 60.8892V60.8494C126.65 60.3589 126.515 59.9777 126.247 59.706C125.982 59.4342 125.579 59.2983 125.039 59.2983C124.479 59.2983 124.04 59.4209 123.721 59.6662C123.403 59.9115 123.18 60.1733 123.05 60.4517L121.937 60.054C122.135 59.59 122.401 59.2287 122.732 58.9702C123.067 58.7083 123.431 58.526 123.826 58.4233C124.224 58.3172 124.615 58.2642 124.999 58.2642C125.244 58.2642 125.526 58.294 125.844 58.3537C126.166 58.41 126.476 58.5277 126.774 58.7067C127.076 58.8857 127.326 59.1558 127.525 59.517C127.724 59.8783 127.823 60.3622 127.823 60.9688V66H126.65V64.9659H126.59C126.51 65.1316 126.378 65.3089 126.192 65.4979C126.007 65.6868 125.76 65.8475 125.452 65.9801C125.143 66.1127 124.767 66.179 124.323 66.179ZM124.502 65.125C124.966 65.125 125.357 65.0339 125.675 64.8516C125.997 64.6693 126.239 64.4339 126.401 64.1456C126.567 63.8572 126.65 63.554 126.65 63.2358V62.1619C126.6 62.2216 126.491 62.2763 126.322 62.326C126.156 62.3724 125.964 62.4138 125.745 62.4503C125.529 62.4834 125.319 62.5133 125.113 62.5398C124.911 62.563 124.747 62.5829 124.621 62.5994C124.316 62.6392 124.031 62.7038 123.766 62.7933C123.504 62.8795 123.292 63.0104 123.13 63.1861C122.971 63.3584 122.891 63.5937 122.891 63.892C122.891 64.2997 123.042 64.608 123.344 64.8168C123.648 65.0223 124.035 65.125 124.502 65.125ZM129.487 64.0511H130.74C130.767 64.3958 130.922 64.6577 131.207 64.8366C131.496 65.0156 131.87 65.1051 132.331 65.1051C132.802 65.1051 133.204 65.009 133.539 64.8168C133.874 64.6212 134.041 64.3063 134.041 63.8722C134.041 63.617 133.978 63.3949 133.852 63.206C133.726 63.0137 133.549 62.8646 133.32 62.7585C133.092 62.6525 132.821 62.5994 132.51 62.5994H131.197V61.5455H132.51C132.977 61.5455 133.322 61.4394 133.544 61.2273C133.769 61.0152 133.882 60.75 133.882 60.4318C133.882 60.0904 133.761 59.817 133.519 59.6115C133.277 59.4027 132.934 59.2983 132.49 59.2983C132.043 59.2983 131.67 59.3994 131.371 59.6016C131.073 59.8004 130.916 60.0573 130.899 60.3722H129.666C129.679 59.9612 129.805 59.5982 130.044 59.2834C130.283 58.9652 130.607 58.7166 131.018 58.5376C131.429 58.3554 131.9 58.2642 132.43 58.2642C132.967 58.2642 133.433 58.3587 133.827 58.5476C134.225 58.7332 134.532 58.9867 134.747 59.3082C134.966 59.6264 135.075 59.9877 135.075 60.392C135.075 60.8229 134.954 61.1709 134.712 61.4361C134.47 61.7012 134.167 61.8902 133.803 62.0028V62.0824C134.091 62.1023 134.341 62.1951 134.553 62.3608C134.769 62.5232 134.936 62.737 135.055 63.0021C135.175 63.264 135.234 63.554 135.234 63.8722C135.234 64.3362 135.11 64.7405 134.862 65.0852C134.613 65.4266 134.272 65.6918 133.837 65.8807C133.403 66.0663 132.908 66.1591 132.351 66.1591C131.811 66.1591 131.327 66.0713 130.899 65.8956C130.472 65.7166 130.132 65.4697 129.88 65.1548C129.631 64.8366 129.5 64.4688 129.487 64.0511ZM138.632 64.608L138.553 65.1449C138.497 65.5227 138.41 65.9271 138.294 66.358C138.182 66.7888 138.064 67.1948 137.941 67.576C137.819 67.9571 137.718 68.2604 137.638 68.4858H136.743C136.786 68.2737 136.843 67.9936 136.912 67.6456C136.982 67.2976 137.051 66.9081 137.121 66.4773C137.194 66.0497 137.254 65.6122 137.3 65.1648L137.36 64.608H138.632ZM144.744 66V58.3636H150.749V66H149.576V59.4574H145.917V66H144.744ZM155.994 66.1591C155.305 66.1591 154.7 65.995 154.18 65.6669C153.663 65.3388 153.258 64.8797 152.967 64.2898C152.678 63.6998 152.534 63.0104 152.534 62.2216C152.534 61.4261 152.678 60.7318 152.967 60.1385C153.258 59.5452 153.663 59.0845 154.18 58.7564C154.7 58.4283 155.305 58.2642 155.994 58.2642C156.684 58.2642 157.287 58.4283 157.804 58.7564C158.325 59.0845 158.729 59.5452 159.017 60.1385C159.309 60.7318 159.455 61.4261 159.455 62.2216C159.455 63.0104 159.309 63.6998 159.017 64.2898C158.729 64.8797 158.325 65.3388 157.804 65.6669C157.287 65.995 156.684 66.1591 155.994 66.1591ZM155.994 65.1051C156.518 65.1051 156.949 64.9709 157.287 64.7024C157.625 64.4339 157.875 64.081 158.038 63.6435C158.2 63.206 158.281 62.732 158.281 62.2216C158.281 61.7112 158.2 61.2356 158.038 60.7947C157.875 60.3539 157.625 59.9976 157.287 59.7259C156.949 59.4541 156.518 59.3182 155.994 59.3182C155.471 59.3182 155.04 59.4541 154.702 59.7259C154.364 59.9976 154.114 60.3539 153.951 60.7947C153.789 61.2356 153.708 61.7112 153.708 62.2216C153.708 62.732 153.789 63.206 153.951 63.6435C154.114 64.081 154.364 64.4339 154.702 64.7024C155.04 64.9709 155.471 65.1051 155.994 65.1051ZM163.771 59.358C163.506 59.3613 163.239 59.4292 162.971 59.5618C162.706 59.6944 162.484 59.87 162.305 60.0888C162.129 60.3042 162.041 60.5445 162.041 60.8097H160.888C160.888 60.4782 160.967 60.16 161.126 59.8551C161.286 59.5502 161.499 59.2784 161.768 59.0398C162.04 58.8011 162.348 58.6122 162.692 58.473C163.04 58.3338 163.4 58.2642 163.771 58.2642C164.467 58.2642 165.057 58.4399 165.541 58.7912C166.028 59.1425 166.398 59.6065 166.65 60.1832C166.905 60.7599 167.033 61.3864 167.033 62.0625V62.3409C167.033 63.0137 166.905 63.6402 166.65 64.2202C166.398 64.7969 166.028 65.2609 165.541 65.6122C165.057 65.9635 164.467 66.1392 163.771 66.1392C163.214 66.1392 162.719 66.0166 162.285 65.7713C161.851 65.5227 161.509 65.1913 161.261 64.777C161.012 64.3627 160.888 63.902 160.888 63.3949H162.041C162.041 63.6832 162.122 63.9534 162.285 64.2053C162.451 64.4538 162.664 64.656 162.926 64.8118C163.191 64.9643 163.473 65.0421 163.771 65.0455C164.215 65.0421 164.593 64.9029 164.905 64.6278C165.216 64.3527 165.453 64.008 165.616 63.5938C165.778 63.1795 165.859 62.7618 165.859 62.3409V62.0625C165.859 61.6316 165.778 61.2107 165.616 60.7997C165.457 60.3854 165.221 60.0424 164.91 59.7706C164.602 59.4988 164.222 59.3613 163.771 59.358ZM166.337 61.6051V62.6989H162.996V61.6051H166.337ZM167.822 59.4574V58.3636H174.026V59.4574H171.521V66H170.347V59.4574H167.822ZM178.444 66.1591C177.754 66.1591 177.149 65.995 176.629 65.6669C176.112 65.3388 175.708 64.8797 175.416 64.2898C175.128 63.6998 174.983 63.0104 174.983 62.2216C174.983 61.4261 175.128 60.7318 175.416 60.1385C175.708 59.5452 176.112 59.0845 176.629 58.7564C177.149 58.4283 177.754 58.2642 178.444 58.2642C179.133 58.2642 179.736 58.4283 180.253 58.7564C180.774 59.0845 181.178 59.5452 181.466 60.1385C181.758 60.7318 181.904 61.4261 181.904 62.2216C181.904 63.0104 181.758 63.6998 181.466 64.2898C181.178 64.8797 180.774 65.3388 180.253 65.6669C179.736 65.995 179.133 66.1591 178.444 66.1591ZM178.444 65.1051C178.967 65.1051 179.398 64.9709 179.736 64.7024C180.074 64.4339 180.325 64.081 180.487 63.6435C180.649 63.206 180.731 62.732 180.731 62.2216C180.731 61.7112 180.649 61.2356 180.487 60.7947C180.325 60.3539 180.074 59.9976 179.736 59.7259C179.398 59.4541 178.967 59.3182 178.444 59.3182C177.92 59.3182 177.489 59.4541 177.151 59.7259C176.813 59.9976 176.563 60.3539 176.4 60.7947C176.238 61.2356 176.157 61.7112 176.157 62.2216C176.157 62.732 176.238 63.206 176.4 63.6435C176.563 64.081 176.813 64.4339 177.151 64.7024C177.489 64.9709 177.92 65.1051 178.444 65.1051ZM187.871 64.4091L190.536 58.3636H191.65L188.348 66H187.394L184.152 58.3636H185.246L187.871 64.4091ZM184.868 58.3636V66H183.695V58.3636H184.868ZM190.874 66V58.3636H192.047V66H190.874ZM194.677 68.8636C194.478 68.8636 194.301 68.8471 194.145 68.8139C193.989 68.7841 193.882 68.7543 193.822 68.7244L194.12 67.6903C194.405 67.7633 194.657 67.7898 194.876 67.7699C195.095 67.75 195.289 67.6522 195.458 67.4766C195.63 67.3042 195.788 67.0241 195.93 66.6364L196.149 66.0398L193.325 58.3636H194.598L196.706 64.4489H196.785L198.893 58.3636H200.166L196.924 67.1136C196.779 67.508 196.598 67.8345 196.382 68.093C196.167 68.3549 195.917 68.5488 195.632 68.6747C195.35 68.8007 195.032 68.8636 194.677 68.8636ZM30.1847 82.6449V83.7386H25.9688V82.6449H30.1847ZM26.2472 79.3636V87H25.0739V79.3636H26.2472ZM31.0795 79.3636V87H29.9062V79.3636H31.0795ZM35.4695 87.179C34.9856 87.179 34.5464 87.0878 34.152 86.9055C33.7576 86.7199 33.4444 86.4531 33.2124 86.1051C32.9804 85.7538 32.8643 85.3295 32.8643 84.8324C32.8643 84.3949 32.9505 84.0402 33.1229 83.7685C33.2952 83.4934 33.5256 83.2779 33.8139 83.1222C34.1023 82.9664 34.4205 82.8504 34.7685 82.7741C35.1198 82.6946 35.4728 82.6316 35.8274 82.5852C36.2914 82.5256 36.6676 82.4808 36.956 82.451C37.2476 82.4179 37.4598 82.3632 37.5923 82.2869C37.7282 82.2107 37.7962 82.0781 37.7962 81.8892V81.8494C37.7962 81.3589 37.6619 80.9777 37.3935 80.706C37.1283 80.4342 36.7256 80.2983 36.1854 80.2983C35.6252 80.2983 35.1861 80.4209 34.8679 80.6662C34.5497 80.9115 34.326 81.1733 34.1967 81.4517L33.0831 81.054C33.282 80.59 33.5471 80.2287 33.8786 79.9702C34.2133 79.7083 34.5779 79.526 34.9723 79.4233C35.37 79.3172 35.7611 79.2642 36.1456 79.2642C36.3909 79.2642 36.6726 79.294 36.9908 79.3537C37.3123 79.41 37.6222 79.5277 37.9205 79.7067C38.2221 79.8857 38.4723 80.1558 38.6712 80.517C38.87 80.8783 38.9695 81.3622 38.9695 81.9688V87H37.7962V85.9659H37.7365C37.657 86.1316 37.5244 86.3089 37.3388 86.4979C37.1532 86.6868 36.9063 86.8475 36.598 86.9801C36.2898 87.1127 35.9136 87.179 35.4695 87.179ZM35.6484 86.125C36.1125 86.125 36.5036 86.0339 36.8217 85.8516C37.1432 85.6693 37.3852 85.4339 37.5476 85.1456C37.7133 84.8572 37.7962 84.554 37.7962 84.2358V83.1619C37.7464 83.2216 37.6371 83.2763 37.468 83.326C37.3023 83.3724 37.1101 83.4138 36.8913 83.4503C36.6759 83.4834 36.4654 83.5133 36.2599 83.5398C36.0578 83.563 35.8937 83.5829 35.7678 83.5994C35.4628 83.6392 35.1778 83.7038 34.9126 83.7933C34.6508 83.8795 34.4387 84.0104 34.2763 84.1861C34.1172 84.3584 34.0376 84.5937 34.0376 84.892C34.0376 85.2997 34.1884 85.608 34.4901 85.8168C34.795 86.0223 35.1811 86.125 35.6484 86.125ZM50.1593 82.6449V83.7386H45.9434V82.6449H50.1593ZM46.2218 79.3636V87H45.0485V79.3636H46.2218ZM51.0542 79.3636V87H49.8809V79.3636H51.0542ZM56.3986 87.1591C55.6628 87.1591 55.0281 86.9967 54.4945 86.6719C53.9642 86.3438 53.5549 85.8864 53.2665 85.2997C52.9815 84.7098 52.839 84.0237 52.839 83.2415C52.839 82.4593 52.9815 81.7699 53.2665 81.1733C53.5549 80.5734 53.9559 80.1061 54.4696 79.7713C54.9867 79.4332 55.5899 79.2642 56.2793 79.2642C56.677 79.2642 57.0698 79.3305 57.4576 79.4631C57.8453 79.5956 58.1983 79.8111 58.5165 80.1094C58.8347 80.4044 59.0882 80.7955 59.2772 81.2827C59.4661 81.7699 59.5605 82.3698 59.5605 83.0824V83.5795H53.6742V82.5653H58.3674C58.3674 82.1345 58.2812 81.75 58.1088 81.4119C57.9398 81.0739 57.6979 80.8071 57.383 80.6115C57.0714 80.416 56.7035 80.3182 56.2793 80.3182C55.812 80.3182 55.4076 80.4342 55.0662 80.6662C54.7282 80.8949 54.468 81.1932 54.2857 81.5611C54.1034 81.929 54.0123 82.3234 54.0123 82.7443V83.4205C54.0123 83.9972 54.1117 84.486 54.3105 84.8871C54.5127 85.2848 54.7928 85.5881 55.1507 85.7969C55.5087 86.0024 55.9247 86.1051 56.3986 86.1051C56.7069 86.1051 56.9853 86.062 57.2338 85.9759C57.4857 85.8864 57.7028 85.7538 57.8851 85.5781C58.0674 85.3991 58.2083 85.1771 58.3077 84.9119L59.4412 85.2301C59.3219 85.6146 59.1214 85.9527 58.8397 86.2443C58.5579 86.5327 58.2099 86.758 57.7956 86.9205C57.3813 87.0795 56.9157 87.1591 56.3986 87.1591ZM62.5186 85.2699L66.1976 79.3636H67.5499V87H66.3766V81.0938L62.7175 87H61.3453V79.3636H62.5186V85.2699ZM65.4221 76.8182H66.5158C66.5158 77.3551 66.3302 77.7943 65.959 78.1357C65.5878 78.477 65.084 78.6477 64.4476 78.6477C63.8212 78.6477 63.3224 78.477 62.9512 78.1357C62.5833 77.7943 62.3993 77.3551 62.3993 76.8182H63.4931C63.4931 77.0767 63.5643 77.3037 63.7069 77.4993C63.8527 77.6948 64.0996 77.7926 64.4476 77.7926C64.7956 77.7926 65.0442 77.6948 65.1934 77.4993C65.3458 77.3037 65.4221 77.0767 65.4221 76.8182ZM78.7472 82.6449V83.7386H74.5312V82.6449H78.7472ZM74.8097 79.3636V87H73.6364V79.3636H74.8097ZM79.642 79.3636V87H78.4688V79.3636H79.642ZM84.9865 87.1591C84.2507 87.1591 83.616 86.9967 83.0824 86.6719C82.5521 86.3438 82.1428 85.8864 81.8544 85.2997C81.5694 84.7098 81.4268 84.0237 81.4268 83.2415C81.4268 82.4593 81.5694 81.7699 81.8544 81.1733C82.1428 80.5734 82.5438 80.1061 83.0575 79.7713C83.5746 79.4332 84.1778 79.2642 84.8672 79.2642C85.2649 79.2642 85.6577 79.3305 86.0455 79.4631C86.4332 79.5956 86.7862 79.8111 87.1044 80.1094C87.4226 80.4044 87.6761 80.7955 87.8651 81.2827C88.054 81.7699 88.1484 82.3698 88.1484 83.0824V83.5795H82.2621V82.5653H86.9553C86.9553 82.1345 86.8691 81.75 86.6967 81.4119C86.5277 81.0739 86.2857 80.8071 85.9709 80.6115C85.6593 80.416 85.2914 80.3182 84.8672 80.3182C84.3999 80.3182 83.9955 80.4342 83.6541 80.6662C83.3161 80.8949 83.0559 81.1932 82.8736 81.5611C82.6913 81.929 82.6001 82.3234 82.6001 82.7443V83.4205C82.6001 83.9972 82.6996 84.486 82.8984 84.8871C83.1006 85.2848 83.3807 85.5881 83.7386 85.7969C84.0966 86.0024 84.5125 86.1051 84.9865 86.1051C85.2947 86.1051 85.5732 86.062 85.8217 85.9759C86.0736 85.8864 86.2907 85.7538 86.473 85.5781C86.6553 85.3991 86.7962 85.1771 86.8956 84.9119L88.0291 85.2301C87.9098 85.6146 87.7093 85.9527 87.4276 86.2443C87.1458 86.5327 86.7978 86.758 86.3835 86.9205C85.9692 87.0795 85.5036 87.1591 84.9865 87.1591ZM89.2223 80.4574V79.3636H95.4268V80.4574H92.9212V87H91.7479V80.4574H89.2223ZM100.4 87V85.9062H100.678C100.907 85.9062 101.097 85.8615 101.25 85.772C101.402 85.6792 101.525 85.5185 101.618 85.2898C101.714 85.0578 101.787 84.7363 101.836 84.3253C101.89 83.911 101.928 83.384 101.951 82.7443L102.09 79.3636H107.181V87H106.008V80.4574H103.204L103.084 83.1818C103.058 83.8082 103.001 84.3601 102.915 84.8374C102.832 85.3113 102.705 85.709 102.532 86.0305C102.363 86.352 102.138 86.594 101.856 86.7564C101.575 86.9188 101.222 87 100.797 87H100.4ZM112.535 87.1591C111.8 87.1591 111.165 86.9967 110.631 86.6719C110.101 86.3438 109.692 85.8864 109.403 85.2997C109.118 84.7098 108.976 84.0237 108.976 83.2415C108.976 82.4593 109.118 81.7699 109.403 81.1733C109.692 80.5734 110.093 80.1061 110.606 79.7713C111.123 79.4332 111.727 79.2642 112.416 79.2642C112.814 79.2642 113.206 79.3305 113.594 79.4631C113.982 79.5956 114.335 79.8111 114.653 80.1094C114.971 80.4044 115.225 80.7955 115.414 81.2827C115.603 81.7699 115.697 82.3698 115.697 83.0824V83.5795H109.811V82.5653H114.504C114.504 82.1345 114.418 81.75 114.246 81.4119C114.077 81.0739 113.835 80.8071 113.52 80.6115C113.208 80.416 112.84 80.3182 112.416 80.3182C111.949 80.3182 111.544 80.4342 111.203 80.6662C110.865 80.8949 110.605 81.1932 110.422 81.5611C110.24 81.929 110.149 82.3234 110.149 82.7443V83.4205C110.149 83.9972 110.248 84.486 110.447 84.8871C110.649 85.2848 110.93 85.5881 111.287 85.7969C111.645 86.0024 112.061 86.1051 112.535 86.1051C112.844 86.1051 113.122 86.062 113.371 85.9759C113.622 85.8864 113.84 85.7538 114.022 85.5781C114.204 85.3991 114.345 85.1771 114.444 84.9119L115.578 85.2301C115.459 85.6146 115.258 85.9527 114.976 86.2443C114.695 86.5327 114.347 86.758 113.932 86.9205C113.518 87.0795 113.052 87.1591 112.535 87.1591ZM116.667 89.1875V85.9062H117.303C117.459 85.7438 117.593 85.5682 117.706 85.3793C117.818 85.1903 117.916 84.9666 117.999 84.7081C118.085 84.4463 118.158 84.1281 118.218 83.7536C118.278 83.3757 118.331 82.92 118.377 82.3864L118.635 79.3636H123.488V85.9062H124.661V89.1875H123.488V87H117.84V89.1875H116.667ZM118.635 85.9062H122.314V80.4574H119.729L119.53 82.3864C119.448 83.1851 119.345 83.8828 119.222 84.4794C119.099 85.076 118.904 85.5516 118.635 85.9062ZM130.812 87V80.4375H128.784C128.326 80.4375 127.967 80.5436 127.705 80.7557C127.443 80.9678 127.312 81.2595 127.312 81.6307C127.312 81.9953 127.43 82.282 127.665 82.4908C127.904 82.6996 128.23 82.804 128.645 82.804H131.11V83.8977H128.645C128.127 83.8977 127.682 83.8066 127.307 83.6243C126.933 83.442 126.644 83.1818 126.442 82.8438C126.24 82.5024 126.139 82.098 126.139 81.6307C126.139 81.16 126.245 80.7557 126.457 80.4176C126.669 80.0795 126.972 79.8194 127.367 79.6371C127.765 79.4548 128.237 79.3636 128.784 79.3636H131.926V87H130.812ZM125.721 87L127.889 83.2017H129.162L126.994 87H125.721ZM139.191 82.6449V83.7386H134.975V82.6449H139.191ZM135.253 79.3636V87H134.08V79.3636H135.253ZM140.085 79.3636V87H138.912V79.3636H140.085ZM145.33 87.1591C144.641 87.1591 144.036 86.995 143.516 86.6669C142.999 86.3388 142.594 85.8797 142.303 85.2898C142.014 84.6998 141.87 84.0104 141.87 83.2216C141.87 82.4261 142.014 81.7318 142.303 81.1385C142.594 80.5452 142.999 80.0845 143.516 79.7564C144.036 79.4283 144.641 79.2642 145.33 79.2642C146.02 79.2642 146.623 79.4283 147.14 79.7564C147.66 80.0845 148.065 80.5452 148.353 81.1385C148.645 81.7318 148.791 82.4261 148.791 83.2216C148.791 84.0104 148.645 84.6998 148.353 85.2898C148.065 85.8797 147.66 86.3388 147.14 86.6669C146.623 86.995 146.02 87.1591 145.33 87.1591ZM145.33 86.1051C145.854 86.1051 146.285 85.9709 146.623 85.7024C146.961 85.4339 147.211 85.081 147.374 84.6435C147.536 84.206 147.617 83.732 147.617 83.2216C147.617 82.7112 147.536 82.2356 147.374 81.7947C147.211 81.3539 146.961 80.9976 146.623 80.7259C146.285 80.4541 145.854 80.3182 145.33 80.3182C144.807 80.3182 144.376 80.4541 144.038 80.7259C143.7 80.9976 143.45 81.3539 143.287 81.7947C143.125 82.2356 143.044 82.7112 143.044 83.2216C143.044 83.732 143.125 84.206 143.287 84.6435C143.45 85.081 143.7 85.4339 144.038 85.7024C144.376 85.9709 144.807 86.1051 145.33 86.1051ZM151.755 85.2699L155.434 79.3636H156.786V87H155.613V81.0938L151.954 87H150.582V79.3636H151.755V85.2699ZM154.658 76.8182H155.752C155.752 77.3551 155.567 77.7943 155.195 78.1357C154.824 78.477 154.32 78.6477 153.684 78.6477C153.058 78.6477 152.559 78.477 152.188 78.1357C151.82 77.7943 151.636 77.3551 151.636 76.8182H152.729C152.729 77.0767 152.801 77.3037 152.943 77.4993C153.089 77.6948 153.336 77.7926 153.684 77.7926C154.032 77.7926 154.281 77.6948 154.43 77.4993C154.582 77.3037 154.658 77.0767 154.658 76.8182ZM162.873 87V79.3636H164.046V82.6847H164.822L167.566 79.3636H169.077L165.995 83.0426L169.117 87H167.606L165.1 83.7784H164.046V87H162.873ZM173.18 87.1591C172.491 87.1591 171.886 86.995 171.365 86.6669C170.848 86.3388 170.444 85.8797 170.152 85.2898C169.864 84.6998 169.72 84.0104 169.72 83.2216C169.72 82.4261 169.864 81.7318 170.152 81.1385C170.444 80.5452 170.848 80.0845 171.365 79.7564C171.886 79.4283 172.491 79.2642 173.18 79.2642C173.869 79.2642 174.473 79.4283 174.99 79.7564C175.51 80.0845 175.914 80.5452 176.203 81.1385C176.494 81.7318 176.64 82.4261 176.64 83.2216C176.64 84.0104 176.494 84.6998 176.203 85.2898C175.914 85.8797 175.51 86.3388 174.99 86.6669C174.473 86.995 173.869 87.1591 173.18 87.1591ZM173.18 86.1051C173.704 86.1051 174.135 85.9709 174.473 85.7024C174.811 85.4339 175.061 85.081 175.223 84.6435C175.386 84.206 175.467 83.732 175.467 83.2216C175.467 82.7112 175.386 82.2356 175.223 81.7947C175.061 81.3539 174.811 80.9976 174.473 80.7259C174.135 80.4541 173.704 80.3182 173.18 80.3182C172.656 80.3182 172.225 80.4541 171.887 80.7259C171.549 80.9976 171.299 81.3539 171.137 81.7947C170.974 82.2356 170.893 82.7112 170.893 83.2216C170.893 83.732 170.974 84.206 171.137 84.6435C171.299 85.081 171.549 85.4339 171.887 85.7024C172.225 85.9709 172.656 86.1051 173.18 86.1051ZM178.431 89.8636V79.3636H179.565V80.5767H179.704C179.79 80.4441 179.91 80.2751 180.062 80.0696C180.218 79.8608 180.44 79.6752 180.728 79.5128C181.02 79.3471 181.414 79.2642 181.911 79.2642C182.554 79.2642 183.121 79.425 183.612 79.7464C184.102 80.0679 184.485 80.5237 184.76 81.1136C185.035 81.7036 185.173 82.3996 185.173 83.2017C185.173 84.0104 185.035 84.7114 184.76 85.3047C184.485 85.8946 184.104 86.352 183.617 86.6768C183.129 86.9983 182.568 87.1591 181.931 87.1591C181.441 87.1591 181.048 87.0779 180.753 86.9155C180.458 86.7498 180.231 86.5625 180.072 86.3537C179.913 86.1416 179.79 85.9659 179.704 85.8267H179.605V89.8636H178.431ZM179.585 83.1818C179.585 83.7585 179.669 84.2673 179.838 84.7081C180.007 85.1456 180.254 85.4886 180.579 85.7372C180.904 85.9825 181.302 86.1051 181.772 86.1051C182.263 86.1051 182.672 85.9759 183 85.7173C183.332 85.4555 183.58 85.1042 183.746 84.6634C183.915 84.2192 183.999 83.7254 183.999 83.1818C183.999 82.6449 183.917 82.161 183.751 81.7301C183.588 81.2959 183.342 80.9529 183.01 80.701C182.682 80.4458 182.269 80.3182 181.772 80.3182C181.295 80.3182 180.894 80.4392 180.569 80.6811C180.244 80.9197 179.999 81.2545 179.833 81.6854C179.668 82.1129 179.585 82.6117 179.585 83.1818ZM190.065 87.1591C189.375 87.1591 188.771 86.995 188.25 86.6669C187.733 86.3388 187.329 85.8797 187.037 85.2898C186.749 84.6998 186.605 84.0104 186.605 83.2216C186.605 82.4261 186.749 81.7318 187.037 81.1385C187.329 80.5452 187.733 80.0845 188.25 79.7564C188.771 79.4283 189.375 79.2642 190.065 79.2642C190.754 79.2642 191.357 79.4283 191.874 79.7564C192.395 80.0845 192.799 80.5452 193.088 81.1385C193.379 81.7318 193.525 82.4261 193.525 83.2216C193.525 84.0104 193.379 84.6998 193.088 85.2898C192.799 85.8797 192.395 86.3388 191.874 86.6669C191.357 86.995 190.754 87.1591 190.065 87.1591ZM190.065 86.1051C190.588 86.1051 191.019 85.9709 191.357 85.7024C191.695 85.4339 191.946 85.081 192.108 84.6435C192.271 84.206 192.352 83.732 192.352 83.2216C192.352 82.7112 192.271 82.2356 192.108 81.7947C191.946 81.3539 191.695 80.9976 191.357 80.7259C191.019 80.4541 190.588 80.3182 190.065 80.3182C189.541 80.3182 189.11 80.4541 188.772 80.7259C188.434 80.9976 188.184 81.3539 188.021 81.7947C187.859 82.2356 187.778 82.7112 187.778 83.2216C187.778 83.732 187.859 84.206 188.021 84.6435C188.184 85.081 188.434 85.4339 188.772 85.7024C189.11 85.9709 189.541 86.1051 190.065 86.1051ZM201.202 79.3636V87H200.029V79.3636H201.202ZM200.745 83.0028V84.0966C200.48 84.196 200.216 84.2839 199.955 84.3601C199.693 84.433 199.418 84.491 199.129 84.5341C198.841 84.5739 198.524 84.5938 198.18 84.5938C197.315 84.5938 196.62 84.3601 196.097 83.8928C195.576 83.4254 195.316 82.7244 195.316 81.7898V79.3438H196.489V81.7898C196.489 82.1809 196.564 82.5024 196.713 82.7543C196.862 83.0062 197.064 83.1934 197.32 83.3161C197.575 83.4387 197.862 83.5 198.18 83.5C198.677 83.5 199.126 83.4553 199.527 83.3658C199.931 83.273 200.337 83.152 200.745 83.0028ZM203.355 87V79.3636H204.528V82.6847H205.304L208.048 79.3636H209.56L206.477 83.0426L209.599 87H208.088L205.582 83.7784H204.528V87H203.355ZM212.048 85.2699L215.727 79.3636H217.079V87H215.906V81.0938L212.247 87H210.875V79.3636H212.048V85.2699ZM26.2472 106.27L29.9261 100.364H31.2784V108H30.1051V102.094L26.446 108H25.0739V100.364H26.2472V106.27ZM40.4672 108.159C39.7778 108.159 39.1729 107.995 38.6525 107.667C38.1355 107.339 37.7311 106.88 37.4395 106.29C37.1511 105.7 37.0069 105.01 37.0069 104.222C37.0069 103.426 37.1511 102.732 37.4395 102.138C37.7311 101.545 38.1355 101.085 38.6525 100.756C39.1729 100.428 39.7778 100.264 40.4672 100.264C41.1565 100.264 41.7598 100.428 42.2768 100.756C42.7972 101.085 43.2015 101.545 43.4899 102.138C43.7815 102.732 43.9274 103.426 43.9274 104.222C43.9274 105.01 43.7815 105.7 43.4899 106.29C43.2015 106.88 42.7972 107.339 42.2768 107.667C41.7598 107.995 41.1565 108.159 40.4672 108.159ZM40.4672 107.105C40.9908 107.105 41.4217 106.971 41.7598 106.702C42.0978 106.434 42.3481 106.081 42.5105 105.643C42.6729 105.206 42.7541 104.732 42.7541 104.222C42.7541 103.711 42.6729 103.236 42.5105 102.795C42.3481 102.354 42.0978 101.998 41.7598 101.726C41.4217 101.454 40.9908 101.318 40.4672 101.318C39.9435 101.318 39.5126 101.454 39.1745 101.726C38.8365 101.998 38.5862 102.354 38.4238 102.795C38.2614 103.236 38.1802 103.711 38.1802 104.222C38.1802 104.732 38.2614 105.206 38.4238 105.643C38.5862 106.081 38.8365 106.434 39.1745 106.702C39.5126 106.971 39.9435 107.105 40.4672 107.105ZM50.8292 103.645V104.739H46.6133V103.645H50.8292ZM46.8917 100.364V108H45.7184V100.364H46.8917ZM51.7241 100.364V108H50.5508V100.364H51.7241ZM56.114 108.179C55.6301 108.179 55.1909 108.088 54.7965 107.906C54.4021 107.72 54.0889 107.453 53.8569 107.105C53.6249 106.754 53.5089 106.33 53.5089 105.832C53.5089 105.395 53.5951 105.04 53.7674 104.768C53.9397 104.493 54.1701 104.278 54.4585 104.122C54.7468 103.966 55.065 103.85 55.413 103.774C55.7643 103.695 56.1173 103.632 56.4719 103.585C56.936 103.526 57.3121 103.481 57.6005 103.451C57.8922 103.418 58.1043 103.363 58.2369 103.287C58.3728 103.211 58.4407 103.078 58.4407 102.889V102.849C58.4407 102.359 58.3065 101.978 58.038 101.706C57.7728 101.434 57.3701 101.298 56.8299 101.298C56.2698 101.298 55.8306 101.421 55.5124 101.666C55.1942 101.911 54.9705 102.173 54.8413 102.452L53.7276 102.054C53.9265 101.59 54.1916 101.229 54.5231 100.97C54.8578 100.708 55.2224 100.526 55.6168 100.423C56.0146 100.317 56.4057 100.264 56.7901 100.264C57.0354 100.264 57.3171 100.294 57.6353 100.354C57.9568 100.41 58.2667 100.528 58.565 100.707C58.8666 100.886 59.1168 101.156 59.3157 101.517C59.5146 101.878 59.614 102.362 59.614 102.969V108H58.4407V106.966H58.381C58.3015 107.132 58.1689 107.309 57.9833 107.498C57.7977 107.687 57.5508 107.848 57.2425 107.98C56.9343 108.113 56.5581 108.179 56.114 108.179ZM56.293 107.125C56.757 107.125 57.1481 107.034 57.4663 106.852C57.7878 106.669 58.0297 106.434 58.1921 106.146C58.3578 105.857 58.4407 105.554 58.4407 105.236V104.162C58.391 104.222 58.2816 104.276 58.1126 104.326C57.9469 104.372 57.7546 104.414 57.5359 104.45C57.3204 104.483 57.11 104.513 56.9045 104.54C56.7023 104.563 56.5382 104.583 56.4123 104.599C56.1074 104.639 55.8223 104.704 55.5572 104.793C55.2953 104.879 55.0832 105.01 54.9208 105.186C54.7617 105.358 54.6822 105.594 54.6822 105.892C54.6822 106.3 54.833 106.608 55.1346 106.817C55.4395 107.022 55.8256 107.125 56.293 107.125ZM65.693 108V100.364H68.8152C69.6371 100.364 70.2901 100.549 70.774 100.92C71.2579 101.292 71.4998 101.782 71.4998 102.392C71.4998 102.856 71.3623 103.216 71.0872 103.471C70.8121 103.723 70.4591 103.893 70.0282 103.983C70.31 104.023 70.5834 104.122 70.8485 104.281C71.117 104.44 71.3391 104.659 71.5147 104.938C71.6904 105.213 71.7782 105.551 71.7782 105.952C71.7782 106.343 71.6788 106.692 71.4799 107.001C71.2811 107.309 70.996 107.553 70.6248 107.732C70.2536 107.911 69.8095 108 69.2924 108H65.693ZM66.8066 106.926H69.2924C69.6968 106.926 70.0133 106.83 70.242 106.638C70.4707 106.446 70.585 106.184 70.585 105.852C70.585 105.458 70.4707 105.148 70.242 104.923C70.0133 104.694 69.6968 104.58 69.2924 104.58H66.8066V106.926ZM66.8066 103.565H68.8152C69.13 103.565 69.4002 103.522 69.6255 103.436C69.8509 103.347 70.0233 103.221 70.1426 103.058C70.2652 102.893 70.3265 102.697 70.3265 102.472C70.3265 102.15 70.1923 101.898 69.9238 101.716C69.6554 101.53 69.2858 101.438 68.8152 101.438H66.8066V103.565ZM76.6566 108.159C75.9407 108.159 75.3242 107.99 74.8072 107.652C74.2901 107.314 73.8924 106.848 73.614 106.255C73.3356 105.662 73.1964 104.984 73.1964 104.222C73.1964 103.446 73.3389 102.762 73.6239 102.168C73.9123 101.572 74.3133 101.106 74.8271 100.771C75.3441 100.433 75.9473 100.264 76.6367 100.264C77.1737 100.264 77.6576 100.364 78.0884 100.562C78.5193 100.761 78.8723 101.04 79.1474 101.398C79.4225 101.756 79.5932 102.173 79.6594 102.651H78.4862C78.3967 102.303 78.1978 101.994 77.8896 101.726C77.5846 101.454 77.1737 101.318 76.6566 101.318C76.1992 101.318 75.7982 101.437 75.4535 101.676C75.1121 101.911 74.8453 102.245 74.6531 102.675C74.4641 103.103 74.3697 103.605 74.3697 104.182C74.3697 104.772 74.4625 105.286 74.6481 105.723C74.837 106.161 75.1022 106.5 75.4435 106.742C75.7882 106.984 76.1926 107.105 76.6566 107.105C76.9615 107.105 77.2383 107.052 77.4869 106.946C77.7354 106.84 77.9459 106.688 78.1183 106.489C78.2906 106.29 78.4132 106.051 78.4862 105.773H79.6594C79.5932 106.223 79.4291 106.629 79.1673 106.991C78.9087 107.349 78.5657 107.634 78.1381 107.846C77.7139 108.055 77.2201 108.159 76.6566 108.159ZM84.5763 108.159C83.8406 108.159 83.2058 107.997 82.6722 107.672C82.1419 107.344 81.7326 106.886 81.4442 106.3C81.1592 105.71 81.0167 105.024 81.0167 104.241C81.0167 103.459 81.1592 102.77 81.4442 102.173C81.7326 101.573 82.1336 101.106 82.6474 100.771C83.1644 100.433 83.7676 100.264 84.457 100.264C84.8548 100.264 85.2475 100.33 85.6353 100.463C86.0231 100.596 86.3761 100.811 86.6942 101.109C87.0124 101.404 87.266 101.795 87.4549 102.283C87.6438 102.77 87.7383 103.37 87.7383 104.082V104.58H81.8519V103.565H86.5451C86.5451 103.134 86.4589 102.75 86.2866 102.412C86.1175 102.074 85.8756 101.807 85.5607 101.612C85.2492 101.416 84.8813 101.318 84.457 101.318C83.9897 101.318 83.5853 101.434 83.244 101.666C82.9059 101.895 82.6457 102.193 82.4634 102.561C82.2811 102.929 82.19 103.323 82.19 103.744V104.42C82.19 104.997 82.2894 105.486 82.4883 105.887C82.6905 106.285 82.9705 106.588 83.3285 106.797C83.6864 107.002 84.1024 107.105 84.5763 107.105C84.8846 107.105 85.163 107.062 85.4116 106.976C85.6635 106.886 85.8806 106.754 86.0629 106.578C86.2451 106.399 86.386 106.177 86.4854 105.912L87.619 106.23C87.4996 106.615 87.2991 106.953 87.0174 107.244C86.7357 107.533 86.3877 107.758 85.9734 107.92C85.5591 108.08 85.0934 108.159 84.5763 108.159ZM94.2362 100.364V101.457H90.6964V108H89.5231V100.364H94.2362ZM94.4909 110.188V106.906H95.1273C95.2831 106.744 95.4173 106.568 95.53 106.379C95.6427 106.19 95.7405 105.967 95.8233 105.708C95.9095 105.446 95.9824 105.128 96.0421 104.754C96.1017 104.376 96.1548 103.92 96.2012 103.386L96.4597 100.364H101.312V106.906H102.485V110.188H101.312V108H95.6642V110.188H94.4909ZM96.4597 106.906H100.139V101.457H97.5534L97.3546 103.386C97.2717 104.185 97.169 104.883 97.0463 105.479C96.9237 106.076 96.7282 106.552 96.4597 106.906ZM106.29 108.179C105.806 108.179 105.367 108.088 104.972 107.906C104.578 107.72 104.265 107.453 104.033 107.105C103.801 106.754 103.685 106.33 103.685 105.832C103.685 105.395 103.771 105.04 103.943 104.768C104.116 104.493 104.346 104.278 104.634 104.122C104.923 103.966 105.241 103.85 105.589 103.774C105.94 103.695 106.293 103.632 106.648 103.585C107.112 103.526 107.488 103.481 107.776 103.451C108.068 103.418 108.28 103.363 108.413 103.287C108.549 103.211 108.616 103.078 108.616 102.889V102.849C108.616 102.359 108.482 101.978 108.214 101.706C107.949 101.434 107.546 101.298 107.006 101.298C106.446 101.298 106.006 101.421 105.688 101.666C105.37 101.911 105.146 102.173 105.017 102.452L103.903 102.054C104.102 101.59 104.367 101.229 104.699 100.97C105.034 100.708 105.398 100.526 105.793 100.423C106.19 100.317 106.581 100.264 106.966 100.264C107.211 100.264 107.493 100.294 107.811 100.354C108.133 100.41 108.442 100.528 108.741 100.707C109.042 100.886 109.293 101.156 109.491 101.517C109.69 101.878 109.79 102.362 109.79 102.969V108H108.616V106.966H108.557C108.477 107.132 108.345 107.309 108.159 107.498C107.973 107.687 107.727 107.848 107.418 107.98C107.11 108.113 106.734 108.179 106.29 108.179ZM106.469 107.125C106.933 107.125 107.324 107.034 107.642 106.852C107.964 106.669 108.205 106.434 108.368 106.146C108.534 105.857 108.616 105.554 108.616 105.236V104.162C108.567 104.222 108.457 104.276 108.288 104.326C108.123 104.372 107.93 104.414 107.712 104.45C107.496 104.483 107.286 104.513 107.08 104.54C106.878 104.563 106.714 104.583 106.588 104.599C106.283 104.639 105.998 104.704 105.733 104.793C105.471 104.879 105.259 105.01 105.097 105.186C104.938 105.358 104.858 105.594 104.858 105.892C104.858 106.3 105.009 106.608 105.31 106.817C105.615 107.022 106.001 107.125 106.469 107.125ZM118.971 108.159C118.255 108.159 117.639 107.99 117.122 107.652C116.605 107.314 116.207 106.848 115.928 106.255C115.65 105.662 115.511 104.984 115.511 104.222C115.511 103.446 115.653 102.762 115.938 102.168C116.227 101.572 116.628 101.106 117.142 100.771C117.659 100.433 118.262 100.264 118.951 100.264C119.488 100.264 119.972 100.364 120.403 100.562C120.834 100.761 121.187 101.04 121.462 101.398C121.737 101.756 121.908 102.173 121.974 102.651H120.801C120.711 102.303 120.512 101.994 120.204 101.726C119.899 101.454 119.488 101.318 118.971 101.318C118.514 101.318 118.113 101.437 117.768 101.676C117.427 101.911 117.16 102.245 116.968 102.675C116.779 103.103 116.684 103.605 116.684 104.182C116.684 104.772 116.777 105.286 116.963 105.723C117.151 106.161 117.417 106.5 117.758 106.742C118.103 106.984 118.507 107.105 118.971 107.105C119.276 107.105 119.553 107.052 119.801 106.946C120.05 106.84 120.26 106.688 120.433 106.489C120.605 106.29 120.728 106.051 120.801 105.773H121.974C121.908 106.223 121.744 106.629 121.482 106.991C121.223 107.349 120.88 107.634 120.453 107.846C120.028 108.055 119.535 108.159 118.971 108.159ZM123.689 108V100.364H126.811C127.633 100.364 128.286 100.549 128.77 100.92C129.254 101.292 129.496 101.782 129.496 102.392C129.496 102.856 129.358 103.216 129.083 103.471C128.808 103.723 128.455 103.893 128.024 103.983C128.306 104.023 128.579 104.122 128.845 104.281C129.113 104.44 129.335 104.659 129.511 104.938C129.686 105.213 129.774 105.551 129.774 105.952C129.774 106.343 129.675 106.692 129.476 107.001C129.277 107.309 128.992 107.553 128.621 107.732C128.25 107.911 127.806 108 127.289 108H123.689ZM124.803 106.926H127.289C127.693 106.926 128.009 106.83 128.238 106.638C128.467 106.446 128.581 106.184 128.581 105.852C128.581 105.458 128.467 105.148 128.238 104.923C128.009 104.694 127.693 104.58 127.289 104.58H124.803V106.926ZM124.803 103.565H126.811C127.126 103.565 127.396 103.522 127.622 103.436C127.847 103.347 128.019 103.221 128.139 103.058C128.261 102.893 128.323 102.697 128.323 102.472C128.323 102.15 128.188 101.898 127.92 101.716C127.651 101.53 127.282 101.438 126.811 101.438H124.803V103.565ZM134.752 108.159C134.016 108.159 133.382 107.997 132.848 107.672C132.318 107.344 131.908 106.886 131.62 106.3C131.335 105.71 131.192 105.024 131.192 104.241C131.192 103.459 131.335 102.77 131.62 102.173C131.908 101.573 132.309 101.106 132.823 100.771C133.34 100.433 133.943 100.264 134.633 100.264C135.031 100.264 135.423 100.33 135.811 100.463C136.199 100.596 136.552 100.811 136.87 101.109C137.188 101.404 137.442 101.795 137.631 102.283C137.82 102.77 137.914 103.37 137.914 104.082V104.58H132.028V103.565H136.721C136.721 103.134 136.635 102.75 136.462 102.412C136.293 102.074 136.051 101.807 135.737 101.612C135.425 101.416 135.057 101.318 134.633 101.318C134.165 101.318 133.761 101.434 133.42 101.666C133.082 101.895 132.821 102.193 132.639 102.561C132.457 102.929 132.366 103.323 132.366 103.744V104.42C132.366 104.997 132.465 105.486 132.664 105.887C132.866 106.285 133.146 106.588 133.504 106.797C133.862 107.002 134.278 107.105 134.752 107.105C135.06 107.105 135.339 107.062 135.587 106.976C135.839 106.886 136.056 106.754 136.239 106.578C136.421 106.399 136.562 106.177 136.661 105.912L137.795 106.23C137.675 106.615 137.475 106.953 137.193 107.244C136.911 107.533 136.563 107.758 136.149 107.92C135.735 108.08 135.269 108.159 134.752 108.159ZM139.017 108L142.119 104.122L139.056 100.364H140.448L142.994 103.625H143.63V100.364H144.803V103.625H145.42L147.965 100.364H149.357L146.315 104.122L149.397 108H147.985L145.4 104.719H144.803V108H143.63V104.719H143.034L140.428 108H139.017ZM153.321 108.179C152.837 108.179 152.398 108.088 152.004 107.906C151.609 107.72 151.296 107.453 151.064 107.105C150.832 106.754 150.716 106.33 150.716 105.832C150.716 105.395 150.802 105.04 150.974 104.768C151.147 104.493 151.377 104.278 151.665 104.122C151.954 103.966 152.272 103.85 152.62 103.774C152.971 103.695 153.324 103.632 153.679 103.585C154.143 103.526 154.519 103.481 154.808 103.451C155.099 103.418 155.311 103.363 155.444 103.287C155.58 103.211 155.648 103.078 155.648 102.889V102.849C155.648 102.359 155.513 101.978 155.245 101.706C154.98 101.434 154.577 101.298 154.037 101.298C153.477 101.298 153.038 101.421 152.719 101.666C152.401 101.911 152.178 102.173 152.048 102.452L150.935 102.054C151.134 101.59 151.399 101.229 151.73 100.97C152.065 100.708 152.429 100.526 152.824 100.423C153.222 100.317 153.613 100.264 153.997 100.264C154.242 100.264 154.524 100.294 154.842 100.354C155.164 100.41 155.474 100.528 155.772 100.707C156.074 100.886 156.324 101.156 156.523 101.517C156.722 101.878 156.821 102.362 156.821 102.969V108H155.648V106.966H155.588C155.509 107.132 155.376 107.309 155.19 107.498C155.005 107.687 154.758 107.848 154.45 107.98C154.141 108.113 153.765 108.179 153.321 108.179ZM153.5 107.125C153.964 107.125 154.355 107.034 154.673 106.852C154.995 106.669 155.237 106.434 155.399 106.146C155.565 105.857 155.648 105.554 155.648 105.236V104.162C155.598 104.222 155.489 104.276 155.32 104.326C155.154 104.372 154.962 104.414 154.743 104.45C154.527 104.483 154.317 104.513 154.112 104.54C153.909 104.563 153.745 104.583 153.619 104.599C153.314 104.639 153.029 104.704 152.764 104.793C152.502 104.879 152.29 105.01 152.128 105.186C151.969 105.358 151.889 105.594 151.889 105.892C151.889 106.3 152.04 106.608 152.342 106.817C152.647 107.022 153.033 107.125 153.5 107.125ZM163.556 108V101.438H161.528C161.07 101.438 160.711 101.544 160.449 101.756C160.187 101.968 160.056 102.259 160.056 102.631C160.056 102.995 160.174 103.282 160.409 103.491C160.648 103.7 160.974 103.804 161.389 103.804H163.855V104.898H161.389C160.872 104.898 160.426 104.807 160.051 104.624C159.677 104.442 159.388 104.182 159.186 103.844C158.984 103.502 158.883 103.098 158.883 102.631C158.883 102.16 158.989 101.756 159.201 101.418C159.413 101.08 159.717 100.819 160.111 100.637C160.509 100.455 160.981 100.364 161.528 100.364H164.67V108H163.556ZM158.465 108L160.633 104.202H161.906L159.738 108H158.465Z" fill="white"/>
<defs>
<linearGradient id="paint0_linear_821_2662" x1="0.25798" y1="70.5992" x2="255.656" y2="70.6454" gradientUnits="userSpaceOnUse">
<stop stop-color="#8451DA"/>
<stop offset="0.815" stop-color="#462B74"/>
</linearGradient>
</defs>
</svg>
