<svg width="259" height="188" viewBox="0 0 259 188" fill="none" xmlns="http://www.w3.org/2000/svg">
<path d="M255.665 20.4334C255.665 17.8698 253.727 15.7169 251.177 15.4488L128.979 2.59982C128.64 2.56424 128.299 2.56329 127.961 2.59698L4.76063 14.8625C2.20893 15.1165 0.267624 17.2609 0.26716 19.826L0.248746 121.669C0.248281 124.239 2.19558 126.395 4.75239 126.656L127.989 139.215C128.32 139.249 128.653 139.249 128.984 139.217L251.145 127.248C253.7 126.998 255.646 124.852 255.646 122.284L255.665 20.4334Z" fill="url(#paint0_linear_482_203)"/>
<path d="M244.527 155.715L211.174 121.637L236.059 69.1677L244.527 155.715Z" fill="#462B74"/>
<path d="M26.088 43.8H27.304L29.656 50.808H29.704L31.96 43.8H33.176V55H31.976V47.416H31.928L29.928 53.112H29.336L27.336 47.416H27.288V55H26.088V43.8ZM40.9856 47.064H42.1856V55H40.9856V47.064ZM36.4576 47.064V50.232H37.5296C37.7536 50.232 37.9936 50.2533 38.2496 50.296C38.5163 50.328 38.7616 50.408 38.9856 50.536C39.2096 50.664 39.3963 50.8507 39.5456 51.096C39.695 51.3413 39.7696 51.672 39.7696 52.088V53.048C39.7696 53.752 39.5616 54.2533 39.1456 54.552C38.7403 54.8507 38.2016 55 37.5296 55H35.2576V47.064H36.4576ZM36.4576 53.992H37.4336C37.5616 53.992 37.6896 53.976 37.8176 53.944C37.9563 53.912 38.079 53.8587 38.1856 53.784C38.303 53.6987 38.3936 53.592 38.4576 53.464C38.5323 53.3253 38.5696 53.1547 38.5696 52.952V52.296C38.5696 51.9013 38.447 51.6293 38.2016 51.48C37.967 51.32 37.711 51.24 37.4336 51.24H36.4576V53.992ZM47.5303 49.16C47.5303 48.968 47.5569 48.7493 47.6103 48.504C47.6743 48.248 47.7863 48.0027 47.9463 47.768C48.1169 47.5333 48.3516 47.336 48.6503 47.176C48.9596 47.016 49.3543 46.936 49.8343 46.936C50.5169 46.936 51.0503 47.1173 51.4343 47.48C51.8289 47.8427 52.0263 48.36 52.0263 49.032V49.336C52.0263 49.784 51.9143 50.1307 51.6903 50.376C51.4769 50.6213 51.2316 50.792 50.9543 50.888C51.2316 50.952 51.4449 51.0533 51.5943 51.192C51.7543 51.3307 51.8663 51.48 51.9303 51.64C52.0049 51.8 52.0476 51.96 52.0583 52.12C52.0796 52.28 52.0903 52.408 52.0903 52.504V52.984C52.0903 53.6347 51.8769 54.1573 51.4503 54.552C51.0343 54.936 50.4796 55.128 49.7863 55.128C49.3276 55.128 48.9489 55.0533 48.6503 54.904C48.3623 54.7547 48.1329 54.568 47.9622 54.344C47.7916 54.12 47.6743 53.88 47.6103 53.624C47.5463 53.3573 47.5143 53.112 47.5143 52.888V52.584H48.7143V52.76C48.7143 53.1973 48.8049 53.5067 48.9863 53.688C49.1676 53.8693 49.4343 53.96 49.7863 53.96C50.2023 53.96 50.4903 53.848 50.6503 53.624C50.8103 53.4 50.8903 53.1227 50.8903 52.792V52.584C50.8903 52.1467 50.7889 51.8533 50.5863 51.704C50.3943 51.5547 50.1436 51.48 49.8343 51.48H49.2263V50.488H49.7863C50.0956 50.488 50.3463 50.376 50.5383 50.152C50.7303 49.9173 50.8263 49.6453 50.8263 49.336V49.048C50.8263 48.76 50.7196 48.5307 50.5063 48.36C50.3036 48.1893 50.0796 48.104 49.8343 48.104C49.5036 48.104 49.2369 48.2053 49.0343 48.408C48.8316 48.6107 48.7303 48.936 48.7303 49.384V49.496H47.5303V49.16ZM57.2255 54.216H57.2095C57.1135 54.3333 57.0122 54.4453 56.9055 54.552C56.7988 54.6587 56.6762 54.7547 56.5375 54.84C56.3988 54.9253 56.2388 54.9947 56.0575 55.048C55.8868 55.1013 55.6735 55.128 55.4175 55.128C55.0975 55.128 54.8308 55.0747 54.6175 54.968C54.4148 54.8507 54.2495 54.6907 54.1215 54.488C54.0042 54.2853 53.9188 54.0507 53.8655 53.784C53.8122 53.5173 53.7855 53.224 53.7855 52.904C53.7855 52.488 53.8228 52.12 53.8975 51.8C53.9722 51.4693 54.1002 51.192 54.2815 50.968C54.4628 50.744 54.6975 50.5733 54.9855 50.456C55.2842 50.3387 55.6575 50.28 56.1055 50.28C56.1908 50.28 56.3135 50.2853 56.4735 50.296C56.6335 50.296 56.8842 50.312 57.2255 50.344V49.176C57.2255 49.0693 57.2042 48.952 57.1615 48.824C57.1188 48.696 57.0495 48.5787 56.9535 48.472C56.8682 48.3653 56.7562 48.28 56.6175 48.216C56.4788 48.1413 56.3082 48.104 56.1055 48.104C55.9988 48.104 55.8868 48.12 55.7695 48.152C55.6628 48.1733 55.5562 48.2213 55.4495 48.296C55.3535 48.3707 55.2628 48.472 55.1775 48.6C55.1028 48.728 55.0495 48.888 55.0175 49.08H53.8655C53.8655 48.7493 53.9242 48.4507 54.0415 48.184C54.1695 47.9173 54.3348 47.6933 54.5375 47.512C54.7508 47.32 54.9962 47.176 55.2735 47.08C55.5615 46.984 55.8655 46.936 56.1855 46.936C56.6442 46.936 57.0175 47.016 57.3055 47.176C57.6042 47.3253 57.8335 47.5173 57.9935 47.752C58.1642 47.976 58.2762 48.232 58.3295 48.52C58.3935 48.7973 58.4255 49.064 58.4255 49.32V55H57.2255V54.216ZM57.2255 51.224C57.0548 51.2027 56.9002 51.1867 56.7615 51.176C56.6228 51.1547 56.5055 51.144 56.4095 51.144C56.2388 51.144 56.0682 51.1707 55.8975 51.224C55.7268 51.2667 55.5722 51.352 55.4335 51.48C55.3055 51.5973 55.1988 51.7573 55.1135 51.96C55.0282 52.152 54.9855 52.392 54.9855 52.68C54.9855 53.2453 55.0708 53.624 55.2415 53.816C55.4122 54.008 55.6682 54.104 56.0095 54.104C56.1375 54.104 56.2708 54.0667 56.4095 53.992C56.5482 53.9173 56.6762 53.8107 56.7935 53.672C56.9215 53.5333 57.0228 53.3787 57.0975 53.208C57.1828 53.0267 57.2255 52.8293 57.2255 52.616V51.224ZM63.4539 51.96L65.3099 47.064H66.4619V55H65.3259V49.752L63.7099 53.864H63.1659L61.5499 49.752V55H60.4139V47.064H61.5499L63.4539 51.96ZM68.3811 49.176C68.3811 49.0267 68.4078 48.8293 68.4611 48.584C68.5145 48.328 68.6211 48.0773 68.7811 47.832C68.9518 47.5867 69.1865 47.3787 69.4851 47.208C69.7838 47.0267 70.1785 46.936 70.6691 46.936C71.1598 46.936 71.5545 47.0267 71.8531 47.208C72.1518 47.3787 72.3811 47.5867 72.5411 47.832C72.7118 48.0773 72.8238 48.328 72.8771 48.584C72.9305 48.8293 72.9571 49.0213 72.9571 49.16V52.856C72.9571 53.016 72.9305 53.224 72.8771 53.48C72.8238 53.736 72.7118 53.9867 72.5411 54.232C72.3811 54.4773 72.1518 54.6907 71.8531 54.872C71.5545 55.0427 71.1598 55.128 70.6691 55.128C70.1785 55.128 69.7838 55.0427 69.4851 54.872C69.1865 54.6907 68.9518 54.4773 68.7811 54.232C68.6211 53.9867 68.5145 53.736 68.4611 53.48C68.4078 53.224 68.3811 53.016 68.3811 52.856V49.176ZM71.7571 49.4C71.7571 48.952 71.6505 48.6267 71.4371 48.424C71.2238 48.2107 70.9678 48.104 70.6691 48.104C70.3705 48.104 70.1145 48.2107 69.9011 48.424C69.6878 48.6267 69.5811 48.952 69.5811 49.4V52.664C69.5811 53.08 69.6718 53.4 69.8531 53.624C70.0451 53.848 70.3171 53.96 70.6691 53.96C71.0105 53.96 71.2771 53.8533 71.4691 53.64C71.6611 53.4267 71.7571 53.1013 71.7571 52.664V49.4ZM74.8826 47.064H76.0826V47.848C76.3386 47.5067 76.616 47.272 76.9146 47.144C77.224 47.0053 77.5173 46.936 77.7946 46.936C78.1466 46.936 78.4293 46.9947 78.6426 47.112C78.8666 47.2293 79.0373 47.384 79.1546 47.576C79.272 47.7573 79.352 47.9547 79.3946 48.168C79.4373 48.3813 79.4586 48.584 79.4586 48.776V53.288C79.4586 53.48 79.4373 53.6827 79.3946 53.896C79.352 54.1093 79.272 54.312 79.1546 54.504C79.0373 54.6853 78.8666 54.8347 78.6426 54.952C78.4293 55.0693 78.1466 55.128 77.7946 55.128C77.5173 55.128 77.224 55.064 76.9146 54.936C76.616 54.7973 76.3386 54.5573 76.0826 54.216V58.264H74.8826V47.064ZM77.2506 53.96C77.4426 53.96 77.6026 53.928 77.7306 53.864C77.8586 53.7893 77.96 53.6933 78.0346 53.576C78.12 53.4587 78.1786 53.3253 78.2106 53.176C78.2426 53.0267 78.2586 52.8773 78.2586 52.728V49.336C78.2586 49.1867 78.2426 49.0373 78.2106 48.888C78.1786 48.7387 78.12 48.6053 78.0346 48.488C77.96 48.3707 77.8586 48.28 77.7306 48.216C77.6026 48.1413 77.4426 48.104 77.2506 48.104C77.0053 48.104 76.808 48.1573 76.6586 48.264C76.5093 48.3707 76.392 48.4987 76.3066 48.648C76.2213 48.7973 76.1626 48.9573 76.1306 49.128C76.0986 49.288 76.0826 49.432 76.0826 49.56V52.504C76.0826 52.632 76.0986 52.7813 76.1306 52.952C76.1626 53.112 76.2213 53.2667 76.3066 53.416C76.392 53.5653 76.5093 53.6933 76.6586 53.8C76.808 53.9067 77.0053 53.96 77.2506 53.96ZM84.7411 54.216H84.7251C84.6291 54.3333 84.5278 54.4453 84.4211 54.552C84.3145 54.6587 84.1918 54.7547 84.0531 54.84C83.9145 54.9253 83.7545 54.9947 83.5731 55.048C83.4025 55.1013 83.1891 55.128 82.9331 55.128C82.6131 55.128 82.3465 55.0747 82.1331 54.968C81.9305 54.8507 81.7651 54.6907 81.6371 54.488C81.5198 54.2853 81.4345 54.0507 81.3811 53.784C81.3278 53.5173 81.3011 53.224 81.3011 52.904C81.3011 52.488 81.3385 52.12 81.4131 51.8C81.4878 51.4693 81.6158 51.192 81.7971 50.968C81.9785 50.744 82.2131 50.5733 82.5011 50.456C82.7998 50.3387 83.1731 50.28 83.6211 50.28C83.7065 50.28 83.8291 50.2853 83.9891 50.296C84.1491 50.296 84.3998 50.312 84.7411 50.344V49.176C84.7411 49.0693 84.7198 48.952 84.6771 48.824C84.6345 48.696 84.5651 48.5787 84.4691 48.472C84.3838 48.3653 84.2718 48.28 84.1331 48.216C83.9945 48.1413 83.8238 48.104 83.6211 48.104C83.5145 48.104 83.4025 48.12 83.2851 48.152C83.1785 48.1733 83.0718 48.2213 82.9651 48.296C82.8691 48.3707 82.7785 48.472 82.6931 48.6C82.6185 48.728 82.5651 48.888 82.5331 49.08H81.3811C81.3811 48.7493 81.4398 48.4507 81.5571 48.184C81.6851 47.9173 81.8505 47.6933 82.0531 47.512C82.2665 47.32 82.5118 47.176 82.7891 47.08C83.0771 46.984 83.3811 46.936 83.7011 46.936C84.1598 46.936 84.5331 47.016 84.8211 47.176C85.1198 47.3253 85.3491 47.5173 85.5091 47.752C85.6798 47.976 85.7918 48.232 85.8451 48.52C85.9091 48.7973 85.9411 49.064 85.9411 49.32V55H84.7411V54.216ZM84.7411 51.224C84.5705 51.2027 84.4158 51.1867 84.2771 51.176C84.1385 51.1547 84.0211 51.144 83.9251 51.144C83.7545 51.144 83.5838 51.1707 83.4131 51.224C83.2425 51.2667 83.0878 51.352 82.9491 51.48C82.8211 51.5973 82.7145 51.7573 82.6291 51.96C82.5438 52.152 82.5011 52.392 82.5011 52.68C82.5011 53.2453 82.5865 53.624 82.7571 53.816C82.9278 54.008 83.1838 54.104 83.5251 54.104C83.6531 54.104 83.7865 54.0667 83.9251 53.992C84.0638 53.9173 84.1918 53.8107 84.3091 53.672C84.4371 53.5333 84.5385 53.3787 84.6131 53.208C84.6985 53.0267 84.7411 52.8293 84.7411 52.616V51.224ZM90.9695 50.472V47.064H92.1695V50.472H92.8735C93.0655 50.472 93.2202 50.4293 93.3375 50.344C93.4548 50.248 93.5455 50.1307 93.6095 49.992C93.6842 49.8533 93.7322 49.704 93.7535 49.544C93.7855 49.3733 93.8122 49.2133 93.8335 49.064L93.9295 48.36C93.9615 48.1573 94.0042 47.9707 94.0575 47.8C94.1108 47.6293 94.1908 47.4853 94.2975 47.368C94.4148 47.24 94.5695 47.144 94.7615 47.08C94.9642 47.016 95.2255 46.984 95.5455 46.984H95.6895V47.96H95.5455C95.3322 47.96 95.1828 48.04 95.0975 48.2C95.0122 48.36 94.9482 48.5893 94.9055 48.888L94.8095 49.544C94.7562 49.8853 94.7028 50.1573 94.6495 50.36C94.5962 50.5627 94.4682 50.7493 94.2655 50.92L95.6895 55H94.5055L93.2575 51.4H92.1695V55H90.9695V51.4H89.8815L88.6335 55H87.4495L88.8735 50.92C88.6708 50.7493 88.5428 50.5627 88.4895 50.36C88.4362 50.1573 88.3828 49.8853 88.3295 49.544L88.2335 48.888C88.1908 48.5893 88.1268 48.36 88.0415 48.2C87.9562 48.04 87.8068 47.96 87.5935 47.96H87.4495V46.984H87.5935C87.9135 46.984 88.1695 47.016 88.3615 47.08C88.5642 47.144 88.7188 47.24 88.8255 47.368C88.9428 47.4853 89.0282 47.6293 89.0815 47.8C89.1348 47.9707 89.1775 48.1573 89.2095 48.36L89.3055 49.064C89.3268 49.2133 89.3482 49.3733 89.3695 49.544C89.4015 49.704 89.4495 49.8533 89.5135 49.992C89.5882 50.1307 89.6842 50.248 89.8015 50.344C89.9188 50.4293 90.0735 50.472 90.2655 50.472H90.9695ZM98.3951 47.064V52.328L100.907 48.04V47.064H102.107V55H100.907V49.88L98.3951 54.168V55H97.1951V47.064H98.3951ZM106.422 47.064C106.816 47.064 107.147 47.1173 107.414 47.224C107.691 47.32 107.91 47.4533 108.07 47.624C108.24 47.784 108.363 47.976 108.438 48.2C108.512 48.4133 108.55 48.632 108.55 48.856V49.336C108.55 49.7413 108.475 50.0773 108.326 50.344C108.176 50.6 107.899 50.8027 107.494 50.952C107.963 51.0693 108.267 51.272 108.406 51.56C108.555 51.8373 108.63 52.1627 108.63 52.536V53.144C108.63 53.5173 108.555 53.8267 108.406 54.072C108.256 54.3067 108.064 54.4933 107.83 54.632C107.595 54.7707 107.339 54.8667 107.062 54.92C106.795 54.9733 106.544 55 106.31 55H104.086V47.064H106.422ZM105.286 53.992H106.294C106.603 53.992 106.87 53.9173 107.094 53.768C107.318 53.6187 107.43 53.3573 107.43 52.984V52.584C107.43 52.1573 107.312 51.8587 107.078 51.688C106.843 51.5067 106.582 51.416 106.294 51.416H105.286V53.992ZM105.286 50.536H106.262C106.592 50.536 106.854 50.4347 107.046 50.232C107.248 50.0293 107.35 49.768 107.35 49.448V49.032C107.35 48.8187 107.307 48.648 107.222 48.52C107.136 48.392 107.035 48.296 106.918 48.232C106.8 48.168 106.678 48.1253 106.55 48.104C106.432 48.0827 106.336 48.072 106.262 48.072H105.286V50.536ZM113.757 54.216H113.741C113.645 54.3333 113.543 54.4453 113.437 54.552C113.33 54.6587 113.207 54.7547 113.069 54.84C112.93 54.9253 112.77 54.9947 112.589 55.048C112.418 55.1013 112.205 55.128 111.949 55.128C111.629 55.128 111.362 55.0747 111.149 54.968C110.946 54.8507 110.781 54.6907 110.653 54.488C110.535 54.2853 110.45 54.0507 110.397 53.784C110.343 53.5173 110.317 53.224 110.317 52.904C110.317 52.488 110.354 52.12 110.429 51.8C110.503 51.4693 110.631 51.192 110.813 50.968C110.994 50.744 111.229 50.5733 111.517 50.456C111.815 50.3387 112.189 50.28 112.637 50.28C112.722 50.28 112.845 50.2853 113.005 50.296C113.165 50.296 113.415 50.312 113.757 50.344V49.176C113.757 49.0693 113.735 48.952 113.693 48.824C113.65 48.696 113.581 48.5787 113.485 48.472C113.399 48.3653 113.287 48.28 113.149 48.216C113.01 48.1413 112.839 48.104 112.637 48.104C112.53 48.104 112.418 48.12 112.301 48.152C112.194 48.1733 112.087 48.2213 111.981 48.296C111.885 48.3707 111.794 48.472 111.709 48.6C111.634 48.728 111.581 48.888 111.549 49.08H110.397C110.397 48.7493 110.455 48.4507 110.573 48.184C110.701 47.9173 110.866 47.6933 111.069 47.512C111.282 47.32 111.527 47.176 111.805 47.08C112.093 46.984 112.397 46.936 112.717 46.936C113.175 46.936 113.549 47.016 113.837 47.176C114.135 47.3253 114.365 47.5173 114.525 47.752C114.695 47.976 114.807 48.232 114.861 48.52C114.925 48.7973 114.957 49.064 114.957 49.32V55H113.757V54.216ZM113.757 51.224C113.586 51.2027 113.431 51.1867 113.293 51.176C113.154 51.1547 113.037 51.144 112.941 51.144C112.77 51.144 112.599 51.1707 112.429 51.224C112.258 51.2667 112.103 51.352 111.965 51.48C111.837 51.5973 111.73 51.7573 111.645 51.96C111.559 52.152 111.517 52.392 111.517 52.68C111.517 53.2453 111.602 53.624 111.773 53.816C111.943 54.008 112.199 54.104 112.541 54.104C112.669 54.104 112.802 54.0667 112.941 53.992C113.079 53.9173 113.207 53.8107 113.325 53.672C113.453 53.5333 113.554 53.3787 113.629 53.208C113.714 53.0267 113.757 52.8293 113.757 52.616V51.224ZM120.209 52.776H121.409V52.888C121.409 53.08 121.377 53.3093 121.313 53.576C121.26 53.832 121.153 54.0773 120.993 54.312C120.833 54.536 120.609 54.728 120.321 54.888C120.033 55.048 119.66 55.128 119.201 55.128C118.7 55.128 118.3 55.0427 118.001 54.872C117.702 54.6907 117.468 54.4773 117.297 54.232C117.126 53.9867 117.014 53.736 116.961 53.48C116.908 53.2133 116.881 52.9947 116.881 52.824V49.144C116.881 48.984 116.908 48.7813 116.961 48.536C117.014 48.2907 117.121 48.0507 117.281 47.816C117.441 47.5707 117.665 47.3627 117.953 47.192C118.252 47.0213 118.641 46.936 119.121 46.936C119.59 46.936 119.974 47.0213 120.273 47.192C120.582 47.3627 120.822 47.5707 120.993 47.816C121.164 48.0507 121.281 48.3013 121.345 48.568C121.409 48.824 121.441 49.0373 121.441 49.208V51.48H118.081V52.744C118.081 53.1707 118.172 53.48 118.353 53.672C118.545 53.864 118.828 53.96 119.201 53.96C119.553 53.96 119.809 53.864 119.969 53.672C120.129 53.4693 120.209 53.2027 120.209 52.872V52.776ZM120.241 50.584V49.224C120.241 49.096 120.225 48.968 120.193 48.84C120.161 48.7013 120.102 48.5787 120.017 48.472C119.932 48.3653 119.82 48.28 119.681 48.216C119.542 48.1413 119.372 48.104 119.169 48.104C118.956 48.104 118.78 48.1413 118.641 48.216C118.502 48.2907 118.39 48.3867 118.305 48.504C118.22 48.6213 118.161 48.7493 118.129 48.888C118.097 49.0267 118.081 49.16 118.081 49.288V50.584H120.241ZM126.345 51.96L128.201 47.064H129.353V55H128.217V49.752L126.601 53.864H126.057L124.441 49.752V55H123.305V47.064H124.441L126.345 51.96ZM138.446 52.568H139.646V52.888C139.646 53.08 139.609 53.3093 139.534 53.576C139.47 53.832 139.347 54.0773 139.166 54.312C138.995 54.536 138.761 54.728 138.462 54.888C138.163 55.048 137.785 55.128 137.326 55.128C136.825 55.128 136.425 55.0427 136.126 54.872C135.827 54.6907 135.593 54.4773 135.422 54.232C135.251 53.9867 135.139 53.736 135.086 53.48C135.033 53.2133 135.006 52.9947 135.006 52.824V49.224C135.006 49.064 135.033 48.856 135.086 48.6C135.139 48.3333 135.251 48.0773 135.422 47.832C135.593 47.5867 135.827 47.3787 136.126 47.208C136.425 47.0267 136.825 46.936 137.326 46.936C137.795 46.936 138.179 47.016 138.478 47.176C138.787 47.336 139.027 47.5333 139.198 47.768C139.369 48.0027 139.486 48.248 139.55 48.504C139.614 48.7493 139.646 48.968 139.646 49.16V49.512H138.446V49.4C138.446 48.952 138.334 48.6267 138.11 48.424C137.897 48.2107 137.635 48.104 137.326 48.104C137.017 48.104 136.75 48.2107 136.526 48.424C136.313 48.6267 136.206 48.952 136.206 49.4V52.664C136.206 53.528 136.579 53.96 137.326 53.96C137.678 53.96 137.95 53.8533 138.142 53.64C138.345 53.4267 138.446 53.1013 138.446 52.664V52.568ZM143.547 47.064C143.941 47.064 144.272 47.1173 144.539 47.224C144.816 47.32 145.035 47.4533 145.195 47.624C145.365 47.784 145.488 47.976 145.563 48.2C145.637 48.4133 145.675 48.632 145.675 48.856V49.336C145.675 49.7413 145.6 50.0773 145.451 50.344C145.301 50.6 145.024 50.8027 144.619 50.952C145.088 51.0693 145.392 51.272 145.531 51.56C145.68 51.8373 145.755 52.1627 145.755 52.536V53.144C145.755 53.5173 145.68 53.8267 145.531 54.072C145.381 54.3067 145.189 54.4933 144.955 54.632C144.72 54.7707 144.464 54.8667 144.187 54.92C143.92 54.9733 143.669 55 143.435 55H141.211V47.064H143.547ZM142.411 53.992H143.419C143.728 53.992 143.995 53.9173 144.219 53.768C144.443 53.6187 144.555 53.3573 144.555 52.984V52.584C144.555 52.1573 144.437 51.8587 144.203 51.688C143.968 51.5067 143.707 51.416 143.419 51.416H142.411V53.992ZM142.411 50.536H143.387C143.717 50.536 143.979 50.4347 144.171 50.232C144.373 50.0293 144.475 49.768 144.475 49.448V49.032C144.475 48.8187 144.432 48.648 144.347 48.52C144.261 48.392 144.16 48.296 144.043 48.232C143.925 48.168 143.803 48.1253 143.675 48.104C143.557 48.0827 143.461 48.072 143.387 48.072H142.411V50.536ZM148.786 47.064V52.328L151.298 48.04V47.064H152.498V55H151.298V49.88L148.786 54.168V55H147.586V47.064H148.786ZM154.476 47.064H155.676V50.456H157.852V47.064H159.052V55H157.852V51.48H155.676V55H154.476V47.064ZM162.239 47.064V52.328L164.751 48.04V47.064H165.951V55H164.751V49.88L162.239 54.168V55H161.039V47.064H162.239ZM167.93 47.064H169.13V50.456H171.306V47.064H172.506V55H171.306V51.48H169.13V55H167.93V47.064ZM176.812 56.408C176.727 56.7493 176.625 57.0373 176.508 57.272C176.391 57.5173 176.247 57.7093 176.076 57.848C175.916 57.9973 175.719 58.104 175.484 58.168C175.26 58.232 174.993 58.264 174.684 58.264H174.412V57.176H174.636C175.009 57.176 175.276 57.0693 175.436 56.856C175.596 56.6427 175.735 56.3013 175.852 55.832L176.076 54.888L173.74 47.064H175.004L176.604 52.84H176.636L177.852 47.064H179.068L176.812 56.408ZM186.293 48.072V55H185.093V48.072H183.413V47.064H187.973V48.072H186.293ZM189.194 49.176C189.194 49.0267 189.22 48.8293 189.274 48.584C189.327 48.328 189.434 48.0773 189.594 47.832C189.764 47.5867 189.999 47.3787 190.298 47.208C190.596 47.0267 190.991 46.936 191.482 46.936C191.972 46.936 192.367 47.0267 192.666 47.208C192.964 47.3787 193.194 47.5867 193.354 47.832C193.524 48.0773 193.636 48.328 193.69 48.584C193.743 48.8293 193.77 49.0213 193.77 49.16V52.856C193.77 53.016 193.743 53.224 193.69 53.48C193.636 53.736 193.524 53.9867 193.354 54.232C193.194 54.4773 192.964 54.6907 192.666 54.872C192.367 55.0427 191.972 55.128 191.482 55.128C190.991 55.128 190.596 55.0427 190.298 54.872C189.999 54.6907 189.764 54.4773 189.594 54.232C189.434 53.9867 189.327 53.736 189.274 53.48C189.22 53.224 189.194 53.016 189.194 52.856V49.176ZM192.57 49.4C192.57 48.952 192.463 48.6267 192.25 48.424C192.036 48.2107 191.78 48.104 191.482 48.104C191.183 48.104 190.927 48.2107 190.714 48.424C190.5 48.6267 190.394 48.952 190.394 49.4V52.664C190.394 53.08 190.484 53.4 190.666 53.624C190.858 53.848 191.13 53.96 191.482 53.96C191.823 53.96 192.09 53.8533 192.282 53.64C192.474 53.4267 192.57 53.1013 192.57 52.664V49.4ZM200.223 55H199.023V48.072H197.503L197.471 49C197.471 49.1387 197.466 49.352 197.455 49.64C197.444 49.928 197.428 50.248 197.407 50.6C197.386 50.9413 197.359 51.2933 197.327 51.656C197.306 52.008 197.274 52.328 197.231 52.616C197.178 52.9573 197.103 53.272 197.007 53.56C196.922 53.848 196.794 54.0987 196.623 54.312C196.452 54.5253 196.239 54.696 195.983 54.824C195.727 54.9413 195.407 55 195.023 55H194.831V54.008H194.975C195.231 54.008 195.439 53.9333 195.599 53.784C195.759 53.6347 195.882 53.4373 195.967 53.192C196.063 52.936 196.127 52.6533 196.159 52.344C196.202 52.024 196.239 51.704 196.271 51.384C196.282 51.224 196.292 51.032 196.303 50.808C196.314 50.5733 196.319 50.3387 196.319 50.104C196.33 49.8693 196.34 49.6507 196.351 49.448C196.362 49.2347 196.367 49.0693 196.367 48.952L196.415 47.064H200.223V55ZM203.411 47.064V50.232H204.483C204.707 50.232 204.947 50.2533 205.203 50.296C205.469 50.328 205.715 50.408 205.939 50.536C206.163 50.664 206.349 50.8507 206.499 51.096C206.648 51.3413 206.723 51.672 206.723 52.088V53.048C206.723 53.752 206.515 54.2533 206.099 54.552C205.693 54.8507 205.155 55 204.483 55H202.211V47.064H203.411ZM203.411 53.992H204.387C204.515 53.992 204.643 53.976 204.771 53.944C204.909 53.912 205.032 53.8587 205.139 53.784C205.256 53.6987 205.347 53.592 205.411 53.464C205.485 53.3253 205.523 53.1547 205.523 52.952V52.296C205.523 51.9013 205.4 51.6293 205.155 51.48C204.92 51.32 204.664 51.24 204.387 51.24H203.411V53.992ZM210.416 50.44C210.608 50.44 210.763 50.3973 210.88 50.312C210.997 50.2267 211.088 50.1147 211.152 49.976C211.227 49.8373 211.275 49.688 211.296 49.528C211.328 49.368 211.355 49.2133 211.376 49.064L211.472 48.36C211.504 48.1573 211.547 47.9707 211.6 47.8C211.653 47.6293 211.733 47.4853 211.84 47.368C211.957 47.24 212.112 47.144 212.304 47.08C212.507 47.016 212.768 46.984 213.088 46.984H213.264V47.992H213.088C212.875 47.992 212.725 48.0667 212.64 48.216C212.555 48.3653 212.491 48.5893 212.448 48.888L212.352 49.544C212.299 49.8853 212.245 50.1573 212.192 50.36C212.139 50.5627 212.011 50.7493 211.808 50.92L213.232 55H212.048L210.8 51.4H209.52V55H208.32V47.064H209.52V50.44H210.416ZM214.725 49.176C214.725 49.0267 214.752 48.8293 214.805 48.584C214.858 48.328 214.965 48.0773 215.125 47.832C215.296 47.5867 215.53 47.3787 215.829 47.208C216.128 47.0267 216.522 46.936 217.013 46.936C217.504 46.936 217.898 47.0267 218.197 47.208C218.496 47.3787 218.725 47.5867 218.885 47.832C219.056 48.0773 219.168 48.328 219.221 48.584C219.274 48.8293 219.301 49.0213 219.301 49.16V52.856C219.301 53.016 219.274 53.224 219.221 53.48C219.168 53.736 219.056 53.9867 218.885 54.232C218.725 54.4773 218.496 54.6907 218.197 54.872C217.898 55.0427 217.504 55.128 217.013 55.128C216.522 55.128 216.128 55.0427 215.829 54.872C215.53 54.6907 215.296 54.4773 215.125 54.232C214.965 53.9867 214.858 53.736 214.805 53.48C214.752 53.224 214.725 53.016 214.725 52.856V49.176ZM218.101 49.4C218.101 48.952 217.994 48.6267 217.781 48.424C217.568 48.2107 217.312 48.104 217.013 48.104C216.714 48.104 216.458 48.2107 216.245 48.424C216.032 48.6267 215.925 48.952 215.925 49.4V52.664C215.925 53.08 216.016 53.4 216.197 53.624C216.389 53.848 216.661 53.96 217.013 53.96C217.354 53.96 217.621 53.8533 217.813 53.64C218.005 53.4267 218.101 53.1013 218.101 52.664V49.4ZM25.928 73.176C25.928 73.0267 25.9547 72.8293 26.008 72.584C26.0613 72.328 26.168 72.0773 26.328 71.832C26.4987 71.5867 26.7333 71.3787 27.032 71.208C27.3307 71.0267 27.7253 70.936 28.216 70.936C28.7067 70.936 29.1013 71.0267 29.4 71.208C29.6987 71.3787 29.928 71.5867 30.088 71.832C30.2587 72.0773 30.3707 72.328 30.424 72.584C30.4773 72.8293 30.504 73.0213 30.504 73.16V76.856C30.504 77.016 30.4773 77.224 30.424 77.48C30.3707 77.736 30.2587 77.9867 30.088 78.232C29.928 78.4773 29.6987 78.6907 29.4 78.872C29.1013 79.0427 28.7067 79.128 28.216 79.128C27.7253 79.128 27.3307 79.0427 27.032 78.872C26.7333 78.6907 26.4987 78.4773 26.328 78.232C26.168 77.9867 26.0613 77.736 26.008 77.48C25.9547 77.224 25.928 77.016 25.928 76.856V73.176ZM29.304 73.4C29.304 72.952 29.1973 72.6267 28.984 72.424C28.7707 72.2107 28.5147 72.104 28.216 72.104C27.9173 72.104 27.6613 72.2107 27.448 72.424C27.2347 72.6267 27.128 72.952 27.128 73.4V76.664C27.128 77.08 27.2187 77.4 27.4 77.624C27.592 77.848 27.864 77.96 28.216 77.96C28.5573 77.96 28.824 77.8533 29.016 77.64C29.208 77.4267 29.304 77.1013 29.304 76.664V73.4ZM38.0615 77.992V80.664H36.9415V79H32.7175V80.664H31.5975V77.992H32.3815C32.5948 77.512 32.7548 77.0693 32.8615 76.664C32.9788 76.2587 33.0695 75.848 33.1335 75.432C33.1655 75.1973 33.1922 74.936 33.2135 74.648C33.2348 74.3493 33.2508 74.0507 33.2615 73.752C33.2828 73.4427 33.2988 73.1387 33.3095 72.84C33.3202 72.5307 33.3255 72.248 33.3255 71.992V71.064H37.1175V77.992H38.0615ZM34.3815 72.056V73.064C34.3815 73.512 34.3655 73.9547 34.3335 74.392C34.3122 74.8187 34.2588 75.2827 34.1735 75.784C34.1202 76.0933 34.0455 76.4347 33.9495 76.808C33.8642 77.1707 33.7202 77.576 33.5175 78.024H35.9175V72.056H34.3815ZM40.5045 71.064V76.328L43.0165 72.04V71.064H44.2165V79H43.0165V73.88L40.5045 78.168V79H39.3045V71.064H40.5045ZM46.1951 71.064H47.3951V74.456H49.5711V71.064H50.7711V79H49.5711V75.48H47.3951V79H46.1951V71.064ZM56.492 71.064H57.692V71.848C57.948 71.5067 58.2253 71.272 58.524 71.144C58.8333 71.0053 59.1267 70.936 59.404 70.936C59.756 70.936 60.0387 70.9947 60.252 71.112C60.476 71.2293 60.6467 71.384 60.764 71.576C60.8813 71.7573 60.9613 71.9547 61.004 72.168C61.0467 72.3813 61.068 72.584 61.068 72.776V77.288C61.068 77.48 61.0467 77.6827 61.004 77.896C60.9613 78.1093 60.8813 78.312 60.764 78.504C60.6467 78.6853 60.476 78.8347 60.252 78.952C60.0387 79.0693 59.756 79.128 59.404 79.128C59.1267 79.128 58.8333 79.064 58.524 78.936C58.2253 78.7973 57.948 78.5573 57.692 78.216V82.264H56.492V71.064ZM58.86 77.96C59.052 77.96 59.212 77.928 59.34 77.864C59.468 77.7893 59.5693 77.6933 59.644 77.576C59.7293 77.4587 59.788 77.3253 59.82 77.176C59.852 77.0267 59.868 76.8773 59.868 76.728V73.336C59.868 73.1867 59.852 73.0373 59.82 72.888C59.788 72.7387 59.7293 72.6053 59.644 72.488C59.5693 72.3707 59.468 72.28 59.34 72.216C59.212 72.1413 59.052 72.104 58.86 72.104C58.6147 72.104 58.4173 72.1573 58.268 72.264C58.1187 72.3707 58.0013 72.4987 57.916 72.648C57.8307 72.7973 57.772 72.9573 57.74 73.128C57.708 73.288 57.692 73.432 57.692 73.56V76.504C57.692 76.632 57.708 76.7813 57.74 76.952C57.772 77.112 57.8307 77.2667 57.916 77.416C58.0013 77.5653 58.1187 77.6933 58.268 77.8C58.4173 77.9067 58.6147 77.96 58.86 77.96ZM66.3505 78.216H66.3345C66.2385 78.3333 66.1372 78.4453 66.0305 78.552C65.9238 78.6587 65.8012 78.7547 65.6625 78.84C65.5238 78.9253 65.3638 78.9947 65.1825 79.048C65.0118 79.1013 64.7985 79.128 64.5425 79.128C64.2225 79.128 63.9558 79.0747 63.7425 78.968C63.5398 78.8507 63.3745 78.6907 63.2465 78.488C63.1292 78.2853 63.0438 78.0507 62.9905 77.784C62.9372 77.5173 62.9105 77.224 62.9105 76.904C62.9105 76.488 62.9478 76.12 63.0225 75.8C63.0972 75.4693 63.2252 75.192 63.4065 74.968C63.5878 74.744 63.8225 74.5733 64.1105 74.456C64.4092 74.3387 64.7825 74.28 65.2305 74.28C65.3158 74.28 65.4385 74.2853 65.5985 74.296C65.7585 74.296 66.0092 74.312 66.3505 74.344V73.176C66.3505 73.0693 66.3292 72.952 66.2865 72.824C66.2438 72.696 66.1745 72.5787 66.0785 72.472C65.9932 72.3653 65.8812 72.28 65.7425 72.216C65.6038 72.1413 65.4332 72.104 65.2305 72.104C65.1238 72.104 65.0118 72.12 64.8945 72.152C64.7878 72.1733 64.6812 72.2213 64.5745 72.296C64.4785 72.3707 64.3878 72.472 64.3025 72.6C64.2278 72.728 64.1745 72.888 64.1425 73.08H62.9905C62.9905 72.7493 63.0492 72.4507 63.1665 72.184C63.2945 71.9173 63.4598 71.6933 63.6625 71.512C63.8758 71.32 64.1212 71.176 64.3985 71.08C64.6865 70.984 64.9905 70.936 65.3105 70.936C65.7692 70.936 66.1425 71.016 66.4305 71.176C66.7292 71.3253 66.9585 71.5173 67.1185 71.752C67.2892 71.976 67.4012 72.232 67.4545 72.52C67.5185 72.7973 67.5505 73.064 67.5505 73.32V79H66.3505V78.216ZM66.3505 75.224C66.1798 75.2027 66.0252 75.1867 65.8865 75.176C65.7478 75.1547 65.6305 75.144 65.5345 75.144C65.3638 75.144 65.1932 75.1707 65.0225 75.224C64.8518 75.2667 64.6972 75.352 64.5585 75.48C64.4305 75.5973 64.3238 75.7573 64.2385 75.96C64.1532 76.152 64.1105 76.392 64.1105 76.68C64.1105 77.2453 64.1958 77.624 64.3665 77.816C64.5372 78.008 64.7932 78.104 65.1345 78.104C65.2625 78.104 65.3958 78.0667 65.5345 77.992C65.6732 77.9173 65.8012 77.8107 65.9185 77.672C66.0465 77.5333 66.1478 77.3787 66.2225 77.208C66.3078 77.0267 66.3505 76.8293 66.3505 76.616V75.224ZM69.1709 73.16C69.1709 72.968 69.1975 72.7493 69.2509 72.504C69.3149 72.248 69.4269 72.0027 69.5869 71.768C69.7575 71.5333 69.9922 71.336 70.2909 71.176C70.6002 71.016 70.9949 70.936 71.4749 70.936C72.1575 70.936 72.6909 71.1173 73.0749 71.48C73.4695 71.8427 73.6669 72.36 73.6669 73.032V73.336C73.6669 73.784 73.5549 74.1307 73.3309 74.376C73.1175 74.6213 72.8722 74.792 72.5949 74.888C72.8722 74.952 73.0855 75.0533 73.2349 75.192C73.3949 75.3307 73.5069 75.48 73.5709 75.64C73.6455 75.8 73.6882 75.96 73.6989 76.12C73.7202 76.28 73.7309 76.408 73.7309 76.504V76.984C73.7309 77.6347 73.5175 78.1573 73.0909 78.552C72.6749 78.936 72.1202 79.128 71.4269 79.128C70.9682 79.128 70.5895 79.0533 70.2909 78.904C70.0029 78.7547 69.7735 78.568 69.6029 78.344C69.4322 78.12 69.3149 77.88 69.2509 77.624C69.1869 77.3573 69.1549 77.112 69.1549 76.888V76.584H70.3549V76.76C70.3549 77.1973 70.4455 77.5067 70.6269 77.688C70.8082 77.8693 71.0749 77.96 71.4269 77.96C71.8429 77.96 72.1309 77.848 72.2909 77.624C72.4509 77.4 72.5309 77.1227 72.5309 76.792V76.584C72.5309 76.1467 72.4295 75.8533 72.2269 75.704C72.0349 75.5547 71.7842 75.48 71.4749 75.48H70.8669V74.488H71.4269C71.7362 74.488 71.9869 74.376 72.1789 74.152C72.3709 73.9173 72.4669 73.6453 72.4669 73.336V73.048C72.4669 72.76 72.3602 72.5307 72.1469 72.36C71.9442 72.1893 71.7202 72.104 71.4749 72.104C71.1442 72.104 70.8775 72.2053 70.6749 72.408C70.4722 72.6107 70.3709 72.936 70.3709 73.384V73.496H69.1709V73.16ZM76.9141 77.64V79.144L75.5381 80.376V77.64H76.9141ZM82.7576 71.064H87.2376V79H86.0376V72.072H83.9576V79H82.7576V71.064ZM89.1624 73.176C89.1624 73.0267 89.189 72.8293 89.2424 72.584C89.2957 72.328 89.4024 72.0773 89.5624 71.832C89.733 71.5867 89.9677 71.3787 90.2664 71.208C90.565 71.0267 90.9597 70.936 91.4504 70.936C91.941 70.936 92.3357 71.0267 92.6344 71.208C92.933 71.3787 93.1624 71.5867 93.3224 71.832C93.493 72.0773 93.605 72.328 93.6584 72.584C93.7117 72.8293 93.7384 73.0213 93.7384 73.16V76.856C93.7384 77.016 93.7117 77.224 93.6584 77.48C93.605 77.736 93.493 77.9867 93.3224 78.232C93.1624 78.4773 92.933 78.6907 92.6344 78.872C92.3357 79.0427 91.941 79.128 91.4504 79.128C90.9597 79.128 90.565 79.0427 90.2664 78.872C89.9677 78.6907 89.733 78.4773 89.5624 78.232C89.4024 77.9867 89.2957 77.736 89.2424 77.48C89.189 77.224 89.1624 77.016 89.1624 76.856V73.176ZM92.5384 73.4C92.5384 72.952 92.4317 72.6267 92.2184 72.424C92.005 72.2107 91.749 72.104 91.4504 72.104C91.1517 72.104 90.8957 72.2107 90.6824 72.424C90.469 72.6267 90.3624 72.952 90.3624 73.4V76.664C90.3624 77.08 90.453 77.4 90.6344 77.624C90.8264 77.848 91.0984 77.96 91.4504 77.96C91.7917 77.96 92.0584 77.8533 92.2504 77.64C92.4424 77.4267 92.5384 77.1013 92.5384 76.664V73.4ZM96.4799 76.76C96.4799 77.1973 96.5705 77.5067 96.7519 77.688C96.9332 77.8693 97.1999 77.96 97.5519 77.96C97.9252 77.96 98.2079 77.8533 98.3999 77.64C98.6025 77.416 98.7039 77.0907 98.7039 76.664V75.496H96.9439V74.472H98.7039V73.4C98.7039 72.952 98.5919 72.6267 98.3679 72.424C98.1439 72.2107 97.8772 72.104 97.5679 72.104C97.2585 72.104 97.0025 72.2053 96.7999 72.408C96.5972 72.6107 96.4959 72.936 96.4959 73.384V73.496H95.2959V73.16C95.2959 72.968 95.3225 72.7493 95.3759 72.504C95.4399 72.248 95.5519 72.0027 95.7119 71.768C95.8825 71.5333 96.1172 71.336 96.4159 71.176C96.7145 71.016 97.0985 70.936 97.5679 70.936C98.0585 70.936 98.4585 71.0267 98.7679 71.208C99.0772 71.3787 99.3119 71.5867 99.4719 71.832C99.6425 72.0773 99.7545 72.3333 99.8079 72.6C99.8719 72.856 99.9039 73.064 99.9039 73.224V76.824C99.9039 76.9947 99.8719 77.2133 99.8079 77.48C99.7545 77.736 99.6425 77.9867 99.4719 78.232C99.3012 78.4773 99.0612 78.6907 98.7519 78.872C98.4425 79.0427 98.0425 79.128 97.5519 79.128C97.0932 79.128 96.7145 79.0533 96.4159 78.904C96.1279 78.744 95.8985 78.552 95.7279 78.328C95.5572 78.104 95.4399 77.864 95.3759 77.608C95.3119 77.3413 95.2799 77.1013 95.2799 76.888V76.584H96.4799V76.76ZM103.996 72.072V79H102.796V72.072H101.116V71.064H105.676V72.072H103.996ZM106.897 73.176C106.897 73.0267 106.923 72.8293 106.977 72.584C107.03 72.328 107.137 72.0773 107.297 71.832C107.467 71.5867 107.702 71.3787 108.001 71.208C108.299 71.0267 108.694 70.936 109.185 70.936C109.675 70.936 110.07 71.0267 110.369 71.208C110.667 71.3787 110.897 71.5867 111.057 71.832C111.227 72.0773 111.339 72.328 111.393 72.584C111.446 72.8293 111.473 73.0213 111.473 73.16V76.856C111.473 77.016 111.446 77.224 111.393 77.48C111.339 77.736 111.227 77.9867 111.057 78.232C110.897 78.4773 110.667 78.6907 110.369 78.872C110.07 79.0427 109.675 79.128 109.185 79.128C108.694 79.128 108.299 79.0427 108.001 78.872C107.702 78.6907 107.467 78.4773 107.297 78.232C107.137 77.9867 107.03 77.736 106.977 77.48C106.923 77.224 106.897 77.016 106.897 76.856V73.176ZM110.273 73.4C110.273 72.952 110.166 72.6267 109.953 72.424C109.739 72.2107 109.483 72.104 109.185 72.104C108.886 72.104 108.63 72.2107 108.417 72.424C108.203 72.6267 108.097 72.952 108.097 73.4V76.664C108.097 77.08 108.187 77.4 108.369 77.624C108.561 77.848 108.833 77.96 109.185 77.96C109.526 77.96 109.793 77.8533 109.985 77.64C110.177 77.4267 110.273 77.1013 110.273 76.664V73.4ZM116.438 75.96L118.294 71.064H119.446V79H118.31V73.752L116.694 77.864H116.15L114.534 73.752V79H113.398V71.064H114.534L116.438 75.96ZM123.75 80.408C123.664 80.7493 123.563 81.0373 123.446 81.272C123.328 81.5173 123.184 81.7093 123.014 81.848C122.854 81.9973 122.656 82.104 122.422 82.168C122.198 82.232 121.931 82.264 121.622 82.264H121.35V81.176H121.574C121.947 81.176 122.214 81.0693 122.374 80.856C122.534 80.6427 122.672 80.3013 122.789 79.832L123.014 78.888L120.678 71.064H121.942L123.542 76.84H123.574L124.79 71.064H126.006L123.75 80.408ZM131.055 71.064H132.255V74.456H134.431V71.064H135.631V79H134.431V75.48H132.255V79H131.055V71.064ZM140.913 78.216H140.897C140.801 78.3333 140.7 78.4453 140.593 78.552C140.486 78.6587 140.364 78.7547 140.225 78.84C140.086 78.9253 139.926 78.9947 139.745 79.048C139.574 79.1013 139.361 79.128 139.105 79.128C138.785 79.128 138.518 79.0747 138.305 78.968C138.102 78.8507 137.937 78.6907 137.809 78.488C137.692 78.2853 137.606 78.0507 137.553 77.784C137.5 77.5173 137.473 77.224 137.473 76.904C137.473 76.488 137.51 76.12 137.585 75.8C137.66 75.4693 137.788 75.192 137.969 74.968C138.15 74.744 138.385 74.5733 138.673 74.456C138.972 74.3387 139.345 74.28 139.793 74.28C139.878 74.28 140.001 74.2853 140.161 74.296C140.321 74.296 140.572 74.312 140.913 74.344V73.176C140.913 73.0693 140.892 72.952 140.849 72.824C140.806 72.696 140.737 72.5787 140.641 72.472C140.556 72.3653 140.444 72.28 140.305 72.216C140.166 72.1413 139.996 72.104 139.793 72.104C139.686 72.104 139.574 72.12 139.457 72.152C139.35 72.1733 139.244 72.2213 139.137 72.296C139.041 72.3707 138.95 72.472 138.865 72.6C138.79 72.728 138.737 72.888 138.705 73.08H137.553C137.553 72.7493 137.612 72.4507 137.729 72.184C137.857 71.9173 138.022 71.6933 138.225 71.512C138.438 71.32 138.684 71.176 138.961 71.08C139.249 70.984 139.553 70.936 139.873 70.936C140.332 70.936 140.705 71.016 140.993 71.176C141.292 71.3253 141.521 71.5173 141.681 71.752C141.852 71.976 141.964 72.232 142.017 72.52C142.081 72.7973 142.113 73.064 142.113 73.32V79H140.913V78.216ZM140.913 75.224C140.742 75.2027 140.588 75.1867 140.449 75.176C140.31 75.1547 140.193 75.144 140.097 75.144C139.926 75.144 139.756 75.1707 139.585 75.224C139.414 75.2667 139.26 75.352 139.121 75.48C138.993 75.5973 138.886 75.7573 138.801 75.96C138.716 76.152 138.673 76.392 138.673 76.68C138.673 77.2453 138.758 77.624 138.929 77.816C139.1 78.008 139.356 78.104 139.697 78.104C139.825 78.104 139.958 78.0667 140.097 77.992C140.236 77.9173 140.364 77.8107 140.481 77.672C140.609 77.5333 140.71 77.3787 140.785 77.208C140.87 77.0267 140.913 76.8293 140.913 76.616V75.224ZM147.836 71.064H149.036V74.456H151.212V71.064H152.412V79H151.212V75.48H149.036V79H147.836V71.064ZM157.662 76.776H158.862V76.888C158.862 77.08 158.83 77.3093 158.766 77.576C158.713 77.832 158.606 78.0773 158.446 78.312C158.286 78.536 158.062 78.728 157.774 78.888C157.486 79.048 157.113 79.128 156.654 79.128C156.153 79.128 155.753 79.0427 155.454 78.872C155.156 78.6907 154.921 78.4773 154.75 78.232C154.58 77.9867 154.468 77.736 154.414 77.48C154.361 77.2133 154.334 76.9947 154.334 76.824V73.144C154.334 72.984 154.361 72.7813 154.414 72.536C154.468 72.2907 154.574 72.0507 154.734 71.816C154.894 71.5707 155.118 71.3627 155.406 71.192C155.705 71.0213 156.094 70.936 156.574 70.936C157.044 70.936 157.428 71.0213 157.726 71.192C158.036 71.3627 158.276 71.5707 158.446 71.816C158.617 72.0507 158.734 72.3013 158.798 72.568C158.862 72.824 158.894 73.0373 158.894 73.208V75.48H155.534V76.744C155.534 77.1707 155.625 77.48 155.806 77.672C155.998 77.864 156.281 77.96 156.654 77.96C157.006 77.96 157.262 77.864 157.422 77.672C157.582 77.4693 157.662 77.2027 157.662 76.872V76.776ZM157.694 74.584V73.224C157.694 73.096 157.678 72.968 157.646 72.84C157.614 72.7013 157.556 72.5787 157.47 72.472C157.385 72.3653 157.273 72.28 157.134 72.216C156.996 72.1413 156.825 72.104 156.622 72.104C156.409 72.104 156.233 72.1413 156.094 72.216C155.956 72.2907 155.844 72.3867 155.758 72.504C155.673 72.6213 155.614 72.7493 155.582 72.888C155.55 73.0267 155.534 73.16 155.534 73.288V74.584H157.694ZM161.958 71.064V76.328L164.47 72.04V71.064H165.67V79H164.47V73.88L161.958 78.168V79H160.758V71.064H161.958ZM163.926 68.056H164.902V68.216C164.902 68.4187 164.875 68.6373 164.822 68.872C164.768 69.096 164.651 69.2933 164.47 69.464C164.288 69.6453 164.075 69.7573 163.83 69.8C163.595 69.8427 163.387 69.864 163.206 69.864C163.024 69.864 162.811 69.8427 162.566 69.8C162.331 69.7573 162.123 69.6453 161.942 69.464C161.76 69.2933 161.643 69.096 161.59 68.872C161.536 68.6373 161.51 68.4187 161.51 68.216V68.056H162.486V68.216C162.486 68.3013 162.491 68.392 162.502 68.488C162.523 68.584 162.555 68.6747 162.598 68.76C162.651 68.8453 162.726 68.92 162.822 68.984C162.918 69.0373 163.046 69.064 163.206 69.064C163.366 69.064 163.494 69.0373 163.59 68.984C163.686 68.92 163.755 68.8453 163.798 68.76C163.851 68.6747 163.883 68.584 163.894 68.488C163.915 68.392 163.926 68.3013 163.926 68.216V68.056ZM171.383 71.064H172.583V74.456H174.759V71.064H175.959V79H174.759V75.48H172.583V79H171.383V71.064ZM181.209 76.776H182.409V76.888C182.409 77.08 182.377 77.3093 182.313 77.576C182.26 77.832 182.153 78.0773 181.993 78.312C181.833 78.536 181.609 78.728 181.321 78.888C181.033 79.048 180.66 79.128 180.201 79.128C179.7 79.128 179.3 79.0427 179.001 78.872C178.702 78.6907 178.468 78.4773 178.297 78.232C178.126 77.9867 178.014 77.736 177.961 77.48C177.908 77.2133 177.881 76.9947 177.881 76.824V73.144C177.881 72.984 177.908 72.7813 177.961 72.536C178.014 72.2907 178.121 72.0507 178.281 71.816C178.441 71.5707 178.665 71.3627 178.953 71.192C179.252 71.0213 179.641 70.936 180.121 70.936C180.59 70.936 180.974 71.0213 181.273 71.192C181.582 71.3627 181.822 71.5707 181.993 71.816C182.164 72.0507 182.281 72.3013 182.345 72.568C182.409 72.824 182.441 73.0373 182.441 73.208V75.48H179.081V76.744C179.081 77.1707 179.172 77.48 179.353 77.672C179.545 77.864 179.828 77.96 180.201 77.96C180.553 77.96 180.809 77.864 180.969 77.672C181.129 77.4693 181.209 77.2027 181.209 76.872V76.776ZM181.241 74.584V73.224C181.241 73.096 181.225 72.968 181.193 72.84C181.161 72.7013 181.102 72.5787 181.017 72.472C180.932 72.3653 180.82 72.28 180.681 72.216C180.542 72.1413 180.372 72.104 180.169 72.104C179.956 72.104 179.78 72.1413 179.641 72.216C179.502 72.2907 179.39 72.3867 179.305 72.504C179.22 72.6213 179.161 72.7493 179.129 72.888C179.097 73.0267 179.081 73.16 179.081 73.288V74.584H181.241ZM186.481 72.072V79H185.281V72.072H183.601V71.064H188.161V72.072H186.481ZM197.708 79H196.508V72.072H194.988L194.956 73C194.956 73.1387 194.95 73.352 194.94 73.64C194.929 73.928 194.913 74.248 194.892 74.6C194.87 74.9413 194.844 75.2933 194.812 75.656C194.79 76.008 194.758 76.328 194.716 76.616C194.662 76.9573 194.588 77.272 194.492 77.56C194.406 77.848 194.278 78.0987 194.108 78.312C193.937 78.5253 193.724 78.696 193.468 78.824C193.212 78.9413 192.892 79 192.508 79H192.316V78.008H192.46C192.716 78.008 192.924 77.9333 193.084 77.784C193.244 77.6347 193.366 77.4373 193.452 77.192C193.548 76.936 193.612 76.6533 193.644 76.344C193.686 76.024 193.724 75.704 193.756 75.384C193.766 75.224 193.777 75.032 193.788 74.808C193.798 74.5733 193.804 74.3387 193.804 74.104C193.814 73.8693 193.825 73.6507 193.836 73.448C193.846 73.2347 193.852 73.0693 193.852 72.952L193.9 71.064H197.708V79ZM202.959 76.776H204.159V76.888C204.159 77.08 204.127 77.3093 204.063 77.576C204.01 77.832 203.903 78.0773 203.743 78.312C203.583 78.536 203.359 78.728 203.071 78.888C202.783 79.048 202.41 79.128 201.951 79.128C201.45 79.128 201.05 79.0427 200.751 78.872C200.452 78.6907 200.218 78.4773 200.047 78.232C199.876 77.9867 199.764 77.736 199.711 77.48C199.658 77.2133 199.631 76.9947 199.631 76.824V73.144C199.631 72.984 199.658 72.7813 199.711 72.536C199.764 72.2907 199.871 72.0507 200.031 71.816C200.191 71.5707 200.415 71.3627 200.703 71.192C201.002 71.0213 201.391 70.936 201.871 70.936C202.34 70.936 202.724 71.0213 203.023 71.192C203.332 71.3627 203.572 71.5707 203.743 71.816C203.914 72.0507 204.031 72.3013 204.095 72.568C204.159 72.824 204.191 73.0373 204.191 73.208V75.48H200.831V76.744C200.831 77.1707 200.922 77.48 201.103 77.672C201.295 77.864 201.578 77.96 201.951 77.96C202.303 77.96 202.559 77.864 202.719 77.672C202.879 77.4693 202.959 77.2027 202.959 76.872V76.776ZM202.991 74.584V73.224C202.991 73.096 202.975 72.968 202.943 72.84C202.911 72.7013 202.852 72.5787 202.767 72.472C202.682 72.3653 202.57 72.28 202.431 72.216C202.292 72.1413 202.122 72.104 201.919 72.104C201.706 72.104 201.53 72.1413 201.391 72.216C201.252 72.2907 201.14 72.3867 201.055 72.504C200.97 72.6213 200.911 72.7493 200.879 72.888C200.847 73.0267 200.831 73.16 200.831 73.288V74.584H202.991ZM211.53 77.992V80.664H210.41V79H206.186V80.664H205.066V77.992H205.85C206.064 77.512 206.224 77.0693 206.33 76.664C206.448 76.2587 206.538 75.848 206.602 75.432C206.634 75.1973 206.661 74.936 206.682 74.648C206.704 74.3493 206.72 74.0507 206.73 73.752C206.752 73.4427 206.768 73.1387 206.778 72.84C206.789 72.5307 206.794 72.248 206.794 71.992V71.064H210.586V77.992H211.53ZM207.85 72.056V73.064C207.85 73.512 207.834 73.9547 207.802 74.392C207.781 74.8187 207.728 75.2827 207.642 75.784C207.589 76.0933 207.514 76.4347 207.418 76.808C207.333 77.1707 207.189 77.576 206.986 78.024H209.386V72.056H207.85ZM216.13 79V75.544H215.026L213.842 79H212.562L213.842 75.416C213.436 75.2347 213.159 75.0053 213.01 74.728C212.871 74.44 212.802 74.0933 212.802 73.688V72.92C212.802 72.504 212.876 72.1733 213.026 71.928C213.175 71.6827 213.362 71.496 213.586 71.368C213.81 71.24 214.05 71.16 214.306 71.128C214.572 71.0853 214.812 71.064 215.026 71.064H217.33V79H216.13ZM216.13 71.944H215.122C214.834 71.944 214.572 72.0347 214.338 72.216C214.114 72.3973 214.002 72.7067 214.002 73.144V73.576C214.002 73.9707 214.108 74.2533 214.322 74.424C214.546 74.5947 214.812 74.68 215.122 74.68H216.13V71.944ZM219.32 71.064H220.52V74.456H222.696V71.064H223.896V79H222.696V75.48H220.52V79H219.32V71.064ZM225.819 73.176C225.819 73.0267 225.845 72.8293 225.899 72.584C225.952 72.328 226.059 72.0773 226.219 71.832C226.389 71.5867 226.624 71.3787 226.923 71.208C227.221 71.0267 227.616 70.936 228.107 70.936C228.597 70.936 228.992 71.0267 229.291 71.208C229.589 71.3787 229.819 71.5867 229.979 71.832C230.149 72.0773 230.261 72.328 230.315 72.584C230.368 72.8293 230.395 73.0213 230.395 73.16V76.856C230.395 77.016 230.368 77.224 230.315 77.48C230.261 77.736 230.149 77.9867 229.979 78.232C229.819 78.4773 229.589 78.6907 229.291 78.872C228.992 79.0427 228.597 79.128 228.107 79.128C227.616 79.128 227.221 79.0427 226.923 78.872C226.624 78.6907 226.389 78.4773 226.219 78.232C226.059 77.9867 225.952 77.736 225.899 77.48C225.845 77.224 225.819 77.016 225.819 76.856V73.176ZM229.195 73.4C229.195 72.952 229.088 72.6267 228.875 72.424C228.661 72.2107 228.405 72.104 228.107 72.104C227.808 72.104 227.552 72.2107 227.339 72.424C227.125 72.6267 227.019 72.952 227.019 73.4V76.664C227.019 77.08 227.109 77.4 227.291 77.624C227.483 77.848 227.755 77.96 228.107 77.96C228.448 77.96 228.715 77.8533 228.907 77.64C229.099 77.4267 229.195 77.1013 229.195 76.664V73.4ZM233.52 71.064V76.328L236.032 72.04V71.064H237.232V79H236.032V73.88L233.52 78.168V79H232.32V71.064H233.52ZM235.488 68.056H236.464V68.216C236.464 68.4187 236.437 68.6373 236.384 68.872C236.331 69.096 236.213 69.2933 236.032 69.464C235.851 69.6453 235.637 69.7573 235.392 69.8C235.157 69.8427 234.949 69.864 234.768 69.864C234.587 69.864 234.373 69.8427 234.128 69.8C233.893 69.7573 233.685 69.6453 233.504 69.464C233.323 69.2933 233.205 69.096 233.152 68.872C233.099 68.6373 233.072 68.4187 233.072 68.216V68.056H234.048V68.216C234.048 68.3013 234.053 68.392 234.064 68.488C234.085 68.584 234.117 68.6747 234.16 68.76C234.213 68.8453 234.288 68.92 234.384 68.984C234.48 69.0373 234.608 69.064 234.768 69.064C234.928 69.064 235.056 69.0373 235.152 68.984C235.248 68.92 235.317 68.8453 235.36 68.76C235.413 68.6747 235.445 68.584 235.456 68.488C235.477 68.392 235.488 68.3013 235.488 68.216V68.056ZM28.088 98.44C28.28 98.44 28.4347 98.3973 28.552 98.312C28.6693 98.2267 28.76 98.1147 28.824 97.976C28.8987 97.8373 28.9467 97.688 28.968 97.528C29 97.368 29.0267 97.2133 29.048 97.064L29.144 96.36C29.176 96.1573 29.2187 95.9707 29.272 95.8C29.3253 95.6293 29.4053 95.4853 29.512 95.368C29.6293 95.24 29.784 95.144 29.976 95.08C30.1787 95.016 30.44 94.984 30.76 94.984H30.936V95.992H30.76C30.5467 95.992 30.3973 96.0667 30.312 96.216C30.2267 96.3653 30.1627 96.5893 30.12 96.888L30.024 97.544C29.9707 97.8853 29.9173 98.1573 29.864 98.36C29.8107 98.5627 29.6827 98.7493 29.48 98.92L30.904 103H29.72L28.472 99.4H27.192V103H25.992V95.064H27.192V98.44H28.088ZM32.3968 97.176C32.3968 97.0267 32.4234 96.8293 32.4768 96.584C32.5301 96.328 32.6368 96.0773 32.7968 95.832C32.9674 95.5867 33.2021 95.3787 33.5008 95.208C33.7994 95.0267 34.1941 94.936 34.6848 94.936C35.1754 94.936 35.5701 95.0267 35.8688 95.208C36.1674 95.3787 36.3968 95.5867 36.5568 95.832C36.7274 96.0773 36.8394 96.328 36.8928 96.584C36.9461 96.8293 36.9728 97.0213 36.9728 97.16V100.856C36.9728 101.016 36.9461 101.224 36.8928 101.48C36.8394 101.736 36.7274 101.987 36.5568 102.232C36.3968 102.477 36.1674 102.691 35.8688 102.872C35.5701 103.043 35.1754 103.128 34.6848 103.128C34.1941 103.128 33.7994 103.043 33.5008 102.872C33.2021 102.691 32.9674 102.477 32.7968 102.232C32.6368 101.987 32.5301 101.736 32.4768 101.48C32.4234 101.224 32.3968 101.016 32.3968 100.856V97.176ZM35.7728 97.4C35.7728 96.952 35.6661 96.6267 35.4528 96.424C35.2394 96.2107 34.9834 96.104 34.6848 96.104C34.3861 96.104 34.1301 96.2107 33.9168 96.424C33.7034 96.6267 33.5968 96.952 33.5968 97.4V100.664C33.5968 101.08 33.6874 101.4 33.8688 101.624C34.0608 101.848 34.3328 101.96 34.6848 101.96C35.0261 101.96 35.2928 101.853 35.4848 101.64C35.6768 101.427 35.7728 101.101 35.7728 100.664V97.4ZM38.8983 95.064H40.0983V95.848C40.3543 95.5067 40.6316 95.272 40.9303 95.144C41.2396 95.0053 41.5329 94.936 41.8103 94.936C42.1623 94.936 42.4449 94.9947 42.6583 95.112C42.8823 95.2293 43.0529 95.384 43.1703 95.576C43.2876 95.7573 43.3676 95.9547 43.4103 96.168C43.4529 96.3813 43.4743 96.584 43.4743 96.776V101.288C43.4743 101.48 43.4529 101.683 43.4103 101.896C43.3676 102.109 43.2876 102.312 43.1703 102.504C43.0529 102.685 42.8823 102.835 42.6583 102.952C42.4449 103.069 42.1623 103.128 41.8103 103.128C41.5329 103.128 41.2396 103.064 40.9303 102.936C40.6316 102.797 40.3543 102.557 40.0983 102.216V106.264H38.8983V95.064ZM41.2663 101.96C41.4583 101.96 41.6183 101.928 41.7463 101.864C41.8743 101.789 41.9756 101.693 42.0503 101.576C42.1356 101.459 42.1943 101.325 42.2263 101.176C42.2583 101.027 42.2743 100.877 42.2743 100.728V97.336C42.2743 97.1867 42.2583 97.0373 42.2263 96.888C42.1943 96.7387 42.1356 96.6053 42.0503 96.488C41.9756 96.3707 41.8743 96.28 41.7463 96.216C41.6183 96.1413 41.4583 96.104 41.2663 96.104C41.0209 96.104 40.8236 96.1573 40.6743 96.264C40.5249 96.3707 40.4076 96.4987 40.3223 96.648C40.2369 96.7973 40.1783 96.9573 40.1463 97.128C40.1143 97.288 40.0983 97.432 40.0983 97.56V100.504C40.0983 100.632 40.1143 100.781 40.1463 100.952C40.1783 101.112 40.2369 101.267 40.3223 101.416C40.4076 101.565 40.5249 101.693 40.6743 101.8C40.8236 101.907 41.0209 101.96 41.2663 101.96ZM45.3968 97.176C45.3968 97.0267 45.4234 96.8293 45.4768 96.584C45.5301 96.328 45.6368 96.0773 45.7968 95.832C45.9674 95.5867 46.2021 95.3787 46.5008 95.208C46.7994 95.0267 47.1941 94.936 47.6848 94.936C48.1754 94.936 48.5701 95.0267 48.8688 95.208C49.1674 95.3787 49.3968 95.5867 49.5568 95.832C49.7274 96.0773 49.8394 96.328 49.8928 96.584C49.9461 96.8293 49.9728 97.0213 49.9728 97.16V100.856C49.9728 101.016 49.9461 101.224 49.8928 101.48C49.8394 101.736 49.7274 101.987 49.5568 102.232C49.3968 102.477 49.1674 102.691 48.8688 102.872C48.5701 103.043 48.1754 103.128 47.6848 103.128C47.1941 103.128 46.7994 103.043 46.5008 102.872C46.2021 102.691 45.9674 102.477 45.7968 102.232C45.6368 101.987 45.5301 101.736 45.4768 101.48C45.4234 101.224 45.3968 101.016 45.3968 100.856V97.176ZM48.7728 97.4C48.7728 96.952 48.6661 96.6267 48.4528 96.424C48.2394 96.2107 47.9834 96.104 47.6848 96.104C47.3861 96.104 47.1301 96.2107 46.9168 96.424C46.7034 96.6267 46.5968 96.952 46.5968 97.4V100.664C46.5968 101.08 46.6874 101.4 46.8688 101.624C47.0608 101.848 47.3328 101.96 47.6848 101.96C48.0261 101.96 48.2928 101.853 48.4848 101.64C48.6768 101.427 48.7728 101.101 48.7728 100.664V97.4ZM54.8103 99.656C54.5329 99.7947 54.2556 99.8853 53.9783 99.928C53.7009 99.96 53.4449 99.976 53.2103 99.976C52.6769 99.976 52.2609 99.8427 51.9622 99.576C51.6636 99.3093 51.5143 98.84 51.5143 98.168V95.064H52.7143V97.912C52.7143 98.6053 53.0609 98.952 53.7543 98.952C53.9676 98.952 54.1596 98.9253 54.3303 98.872C54.5009 98.808 54.6609 98.7333 54.8103 98.648V95.064H56.0103V103H54.8103V99.656ZM60.088 98.44C60.28 98.44 60.4347 98.3973 60.552 98.312C60.6693 98.2267 60.76 98.1147 60.824 97.976C60.8987 97.8373 60.9467 97.688 60.968 97.528C61 97.368 61.0267 97.2133 61.048 97.064L61.144 96.36C61.176 96.1573 61.2187 95.9707 61.272 95.8C61.3253 95.6293 61.4053 95.4853 61.512 95.368C61.6293 95.24 61.784 95.144 61.976 95.08C62.1787 95.016 62.44 94.984 62.76 94.984H62.936V95.992H62.76C62.5467 95.992 62.3973 96.0667 62.312 96.216C62.2267 96.3653 62.1627 96.5893 62.12 96.888L62.024 97.544C61.9707 97.8853 61.9173 98.1573 61.864 98.36C61.8107 98.5627 61.6827 98.7493 61.48 98.92L62.904 103H61.72L60.472 99.4H59.192V103H57.992V95.064H59.192V98.44H60.088ZM65.6608 95.064V100.328L68.1727 96.04V95.064H69.3728V103H68.1727V97.88L65.6608 102.168V103H64.4608V95.064H65.6608ZM76.2858 95.064V100.328L78.7977 96.04V95.064H79.9978V103H78.7977V97.88L76.2858 102.168V103H75.0858V95.064H76.2858ZM85.6468 97.176C85.6468 97.0267 85.6734 96.8293 85.7268 96.584C85.7801 96.328 85.8868 96.0773 86.0468 95.832C86.2174 95.5867 86.4521 95.3787 86.7508 95.208C87.0494 95.0267 87.4441 94.936 87.9348 94.936C88.4254 94.936 88.8201 95.0267 89.1188 95.208C89.4174 95.3787 89.6468 95.5867 89.8068 95.832C89.9774 96.0773 90.0894 96.328 90.1428 96.584C90.1961 96.8293 90.2228 97.0213 90.2228 97.16V100.856C90.2228 101.016 90.1961 101.224 90.1428 101.48C90.0894 101.736 89.9774 101.987 89.8068 102.232C89.6468 102.477 89.4174 102.691 89.1188 102.872C88.8201 103.043 88.4254 103.128 87.9348 103.128C87.4441 103.128 87.0494 103.043 86.7508 102.872C86.4521 102.691 86.2174 102.477 86.0468 102.232C85.8868 101.987 85.7801 101.736 85.7268 101.48C85.6734 101.224 85.6468 101.016 85.6468 100.856V97.176ZM89.0228 97.4C89.0228 96.952 88.9161 96.6267 88.7028 96.424C88.4894 96.2107 88.2334 96.104 87.9348 96.104C87.6361 96.104 87.3801 96.2107 87.1668 96.424C86.9534 96.6267 86.8468 96.952 86.8468 97.4V100.664C86.8468 101.08 86.9374 101.4 87.1188 101.624C87.3108 101.848 87.5828 101.96 87.9348 101.96C88.2761 101.96 88.5428 101.853 88.7348 101.64C88.9268 101.427 89.0228 101.101 89.0228 100.664V97.4ZM92.1483 95.064H93.3483V98.456H95.5243V95.064H96.7243V103H95.5243V99.48H93.3483V103H92.1483V95.064ZM102.007 102.216H101.991C101.895 102.333 101.793 102.445 101.687 102.552C101.58 102.659 101.457 102.755 101.319 102.84C101.18 102.925 101.02 102.995 100.839 103.048C100.668 103.101 100.455 103.128 100.199 103.128C99.8788 103.128 99.6121 103.075 99.3988 102.968C99.1961 102.851 99.0308 102.691 98.9028 102.488C98.7854 102.285 98.7001 102.051 98.6468 101.784C98.5934 101.517 98.5668 101.224 98.5668 100.904C98.5668 100.488 98.6041 100.12 98.6788 99.8C98.7534 99.4693 98.8814 99.192 99.0628 98.968C99.2441 98.744 99.4788 98.5733 99.7668 98.456C100.065 98.3387 100.439 98.28 100.887 98.28C100.972 98.28 101.095 98.2853 101.255 98.296C101.415 98.296 101.665 98.312 102.007 98.344V97.176C102.007 97.0693 101.985 96.952 101.943 96.824C101.9 96.696 101.831 96.5787 101.735 96.472C101.649 96.3653 101.537 96.28 101.399 96.216C101.26 96.1413 101.089 96.104 100.887 96.104C100.78 96.104 100.668 96.12 100.551 96.152C100.444 96.1733 100.337 96.2213 100.231 96.296C100.135 96.3707 100.044 96.472 99.9588 96.6C99.8841 96.728 99.8308 96.888 99.7988 97.08H98.6468C98.6468 96.7493 98.7054 96.4507 98.8228 96.184C98.9508 95.9173 99.1161 95.6933 99.3188 95.512C99.5321 95.32 99.7774 95.176 100.055 95.08C100.343 94.984 100.647 94.936 100.967 94.936C101.425 94.936 101.799 95.016 102.087 95.176C102.385 95.3253 102.615 95.5173 102.775 95.752C102.945 95.976 103.057 96.232 103.111 96.52C103.175 96.7973 103.207 97.064 103.207 97.32V103H102.007V102.216ZM102.007 99.224C101.836 99.2027 101.681 99.1867 101.543 99.176C101.404 99.1547 101.287 99.144 101.191 99.144C101.02 99.144 100.849 99.1707 100.679 99.224C100.508 99.2667 100.353 99.352 100.215 99.48C100.087 99.5973 99.9801 99.7573 99.8948 99.96C99.8094 100.152 99.7668 100.392 99.7668 100.68C99.7668 101.245 99.8521 101.624 100.023 101.816C100.193 102.008 100.449 102.104 100.791 102.104C100.919 102.104 101.052 102.067 101.191 101.992C101.329 101.917 101.457 101.811 101.575 101.672C101.703 101.533 101.804 101.379 101.879 101.208C101.964 101.027 102.007 100.829 102.007 100.616V99.224ZM111.266 95.064C111.66 95.064 111.991 95.1173 112.258 95.224C112.535 95.32 112.754 95.4533 112.914 95.624C113.084 95.784 113.207 95.976 113.282 96.2C113.356 96.4133 113.394 96.632 113.394 96.856V97.336C113.394 97.7413 113.319 98.0773 113.17 98.344C113.02 98.6 112.743 98.8027 112.338 98.952C112.807 99.0693 113.111 99.272 113.25 99.56C113.399 99.8373 113.474 100.163 113.474 100.536V101.144C113.474 101.517 113.399 101.827 113.25 102.072C113.1 102.307 112.908 102.493 112.674 102.632C112.439 102.771 112.183 102.867 111.906 102.92C111.639 102.973 111.388 103 111.154 103H108.93V95.064H111.266ZM110.13 101.992H111.138C111.447 101.992 111.714 101.917 111.938 101.768C112.162 101.619 112.274 101.357 112.274 100.984V100.584C112.274 100.157 112.156 99.8587 111.922 99.688C111.687 99.5067 111.426 99.416 111.138 99.416H110.13V101.992ZM110.13 98.536H111.106C111.436 98.536 111.698 98.4347 111.89 98.232C112.092 98.0293 112.194 97.768 112.194 97.448V97.032C112.194 96.8187 112.151 96.648 112.066 96.52C111.98 96.392 111.879 96.296 111.762 96.232C111.644 96.168 111.522 96.1253 111.394 96.104C111.276 96.0827 111.18 96.072 111.106 96.072H110.13V98.536ZM118.681 100.568H119.881V100.888C119.881 101.08 119.843 101.309 119.769 101.576C119.705 101.832 119.582 102.077 119.401 102.312C119.23 102.536 118.995 102.728 118.697 102.888C118.398 103.048 118.019 103.128 117.561 103.128C117.059 103.128 116.659 103.043 116.361 102.872C116.062 102.691 115.827 102.477 115.657 102.232C115.486 101.987 115.374 101.736 115.321 101.48C115.267 101.213 115.241 100.995 115.241 100.824V97.224C115.241 97.064 115.267 96.856 115.321 96.6C115.374 96.3333 115.486 96.0773 115.657 95.832C115.827 95.5867 116.062 95.3787 116.361 95.208C116.659 95.0267 117.059 94.936 117.561 94.936C118.03 94.936 118.414 95.016 118.713 95.176C119.022 95.336 119.262 95.5333 119.433 95.768C119.603 96.0027 119.721 96.248 119.785 96.504C119.849 96.7493 119.881 96.968 119.881 97.16V97.512H118.681V97.4C118.681 96.952 118.569 96.6267 118.345 96.424C118.131 96.2107 117.87 96.104 117.561 96.104C117.251 96.104 116.985 96.2107 116.761 96.424C116.547 96.6267 116.441 96.952 116.441 97.4V100.664C116.441 101.528 116.814 101.96 117.561 101.96C117.913 101.96 118.185 101.853 118.377 101.64C118.579 101.427 118.681 101.101 118.681 100.664V100.568ZM124.709 100.776H125.909V100.888C125.909 101.08 125.877 101.309 125.813 101.576C125.76 101.832 125.653 102.077 125.493 102.312C125.333 102.536 125.109 102.728 124.821 102.888C124.533 103.048 124.16 103.128 123.701 103.128C123.2 103.128 122.8 103.043 122.501 102.872C122.202 102.691 121.968 102.477 121.797 102.232C121.626 101.987 121.514 101.736 121.461 101.48C121.408 101.213 121.381 100.995 121.381 100.824V97.144C121.381 96.984 121.408 96.7813 121.461 96.536C121.514 96.2907 121.621 96.0507 121.781 95.816C121.941 95.5707 122.165 95.3627 122.453 95.192C122.752 95.0213 123.141 94.936 123.621 94.936C124.09 94.936 124.474 95.0213 124.773 95.192C125.082 95.3627 125.322 95.5707 125.493 95.816C125.664 96.0507 125.781 96.3013 125.845 96.568C125.909 96.824 125.941 97.0373 125.941 97.208V99.48H122.581V100.744C122.581 101.171 122.672 101.48 122.853 101.672C123.045 101.864 123.328 101.96 123.701 101.96C124.053 101.96 124.309 101.864 124.469 101.672C124.629 101.469 124.709 101.203 124.709 100.872V100.776ZM124.741 98.584V97.224C124.741 97.096 124.725 96.968 124.693 96.84C124.661 96.7013 124.602 96.5787 124.517 96.472C124.432 96.3653 124.32 96.28 124.181 96.216C124.042 96.1413 123.872 96.104 123.669 96.104C123.456 96.104 123.28 96.1413 123.141 96.216C123.002 96.2907 122.89 96.3867 122.805 96.504C122.72 96.6213 122.661 96.7493 122.629 96.888C122.597 97.0267 122.581 97.16 122.581 97.288V98.584H124.741ZM127.805 95.064H131.516V96.072H129.005V103H127.805V95.064ZM137.733 101.992V104.664H136.613V103H132.389V104.664H131.269V101.992H132.053C132.267 101.512 132.427 101.069 132.533 100.664C132.651 100.259 132.741 99.848 132.805 99.432C132.837 99.1973 132.864 98.936 132.885 98.648C132.907 98.3493 132.923 98.0507 132.933 97.752C132.955 97.4427 132.971 97.1387 132.981 96.84C132.992 96.5307 132.997 96.248 132.997 95.992V95.064H136.789V101.992H137.733ZM134.053 96.056V97.064C134.053 97.512 134.037 97.9547 134.005 98.392C133.984 98.8187 133.931 99.2827 133.845 99.784C133.792 100.093 133.717 100.435 133.621 100.808C133.536 101.171 133.392 101.576 133.189 102.024H135.589V96.056H134.053ZM142.272 102.216H142.256C142.16 102.333 142.059 102.445 141.952 102.552C141.846 102.659 141.723 102.755 141.584 102.84C141.446 102.925 141.286 102.995 141.104 103.048C140.934 103.101 140.72 103.128 140.464 103.128C140.144 103.128 139.878 103.075 139.664 102.968C139.462 102.851 139.296 102.691 139.168 102.488C139.051 102.285 138.966 102.051 138.912 101.784C138.859 101.517 138.832 101.224 138.832 100.904C138.832 100.488 138.87 100.12 138.944 99.8C139.019 99.4693 139.147 99.192 139.328 98.968C139.51 98.744 139.744 98.5733 140.032 98.456C140.331 98.3387 140.704 98.28 141.152 98.28C141.238 98.28 141.36 98.2853 141.52 98.296C141.68 98.296 141.931 98.312 142.272 98.344V97.176C142.272 97.0693 142.251 96.952 142.208 96.824C142.166 96.696 142.096 96.5787 142 96.472C141.915 96.3653 141.803 96.28 141.664 96.216C141.526 96.1413 141.355 96.104 141.152 96.104C141.046 96.104 140.934 96.12 140.816 96.152C140.71 96.1733 140.603 96.2213 140.496 96.296C140.4 96.3707 140.31 96.472 140.224 96.6C140.15 96.728 140.096 96.888 140.064 97.08H138.912C138.912 96.7493 138.971 96.4507 139.088 96.184C139.216 95.9173 139.382 95.6933 139.584 95.512C139.798 95.32 140.043 95.176 140.32 95.08C140.608 94.984 140.912 94.936 141.232 94.936C141.691 94.936 142.064 95.016 142.352 95.176C142.651 95.3253 142.88 95.5173 143.04 95.752C143.211 95.976 143.323 96.232 143.376 96.52C143.44 96.7973 143.472 97.064 143.472 97.32V103H142.272V102.216ZM142.272 99.224C142.102 99.2027 141.947 99.1867 141.808 99.176C141.67 99.1547 141.552 99.144 141.456 99.144C141.286 99.144 141.115 99.1707 140.944 99.224C140.774 99.2667 140.619 99.352 140.48 99.48C140.352 99.5973 140.246 99.7573 140.16 99.96C140.075 100.152 140.032 100.392 140.032 100.68C140.032 101.245 140.118 101.624 140.288 101.816C140.459 102.008 140.715 102.104 141.056 102.104C141.184 102.104 141.318 102.067 141.456 101.992C141.595 101.917 141.723 101.811 141.84 101.672C141.968 101.533 142.07 101.379 142.144 101.208C142.23 101.027 142.272 100.829 142.272 100.616V99.224ZM152.571 100.568H153.771V100.888C153.771 101.08 153.734 101.309 153.659 101.576C153.595 101.832 153.472 102.077 153.291 102.312C153.12 102.536 152.886 102.728 152.587 102.888C152.288 103.048 151.91 103.128 151.451 103.128C150.95 103.128 150.55 103.043 150.251 102.872C149.952 102.691 149.718 102.477 149.547 102.232C149.376 101.987 149.264 101.736 149.211 101.48C149.158 101.213 149.131 100.995 149.131 100.824V97.224C149.131 97.064 149.158 96.856 149.211 96.6C149.264 96.3333 149.376 96.0773 149.547 95.832C149.718 95.5867 149.952 95.3787 150.251 95.208C150.55 95.0267 150.95 94.936 151.451 94.936C151.92 94.936 152.304 95.016 152.603 95.176C152.912 95.336 153.152 95.5333 153.323 95.768C153.494 96.0027 153.611 96.248 153.675 96.504C153.739 96.7493 153.771 96.968 153.771 97.16V97.512H152.571V97.4C152.571 96.952 152.459 96.6267 152.235 96.424C152.022 96.2107 151.76 96.104 151.451 96.104C151.142 96.104 150.875 96.2107 150.651 96.424C150.438 96.6267 150.331 96.952 150.331 97.4V100.664C150.331 101.528 150.704 101.96 151.451 101.96C151.803 101.96 152.075 101.853 152.267 101.64C152.47 101.427 152.571 101.101 152.571 100.664V100.568ZM157.672 95.064C158.066 95.064 158.397 95.1173 158.664 95.224C158.941 95.32 159.16 95.4533 159.32 95.624C159.49 95.784 159.613 95.976 159.688 96.2C159.762 96.4133 159.8 96.632 159.8 96.856V97.336C159.8 97.7413 159.725 98.0773 159.576 98.344C159.426 98.6 159.149 98.8027 158.744 98.952C159.213 99.0693 159.517 99.272 159.656 99.56C159.805 99.8373 159.88 100.163 159.88 100.536V101.144C159.88 101.517 159.805 101.827 159.656 102.072C159.506 102.307 159.314 102.493 159.08 102.632C158.845 102.771 158.589 102.867 158.312 102.92C158.045 102.973 157.794 103 157.56 103H155.336V95.064H157.672ZM156.536 101.992H157.544C157.853 101.992 158.12 101.917 158.344 101.768C158.568 101.619 158.68 101.357 158.68 100.984V100.584C158.68 100.157 158.562 99.8587 158.328 99.688C158.093 99.5067 157.832 99.416 157.544 99.416H156.536V101.992ZM156.536 98.536H157.512C157.842 98.536 158.104 98.4347 158.296 98.232C158.498 98.0293 158.6 97.768 158.6 97.448V97.032C158.6 96.8187 158.557 96.648 158.472 96.52C158.386 96.392 158.285 96.296 158.168 96.232C158.05 96.168 157.928 96.1253 157.8 96.104C157.682 96.0827 157.586 96.072 157.512 96.072H156.536V98.536ZM164.975 100.776H166.175V100.888C166.175 101.08 166.143 101.309 166.079 101.576C166.025 101.832 165.919 102.077 165.759 102.312C165.599 102.536 165.375 102.728 165.087 102.888C164.799 103.048 164.425 103.128 163.967 103.128C163.465 103.128 163.065 103.043 162.767 102.872C162.468 102.691 162.233 102.477 162.063 102.232C161.892 101.987 161.78 101.736 161.727 101.48C161.673 101.213 161.647 100.995 161.647 100.824V97.144C161.647 96.984 161.673 96.7813 161.727 96.536C161.78 96.2907 161.887 96.0507 162.047 95.816C162.207 95.5707 162.431 95.3627 162.719 95.192C163.017 95.0213 163.407 94.936 163.887 94.936C164.356 94.936 164.74 95.0213 165.039 95.192C165.348 95.3627 165.588 95.5707 165.759 95.816C165.929 96.0507 166.047 96.3013 166.111 96.568C166.175 96.824 166.207 97.0373 166.207 97.208V99.48H162.847V100.744C162.847 101.171 162.937 101.48 163.119 101.672C163.311 101.864 163.593 101.96 163.967 101.96C164.319 101.96 164.575 101.864 164.735 101.672C164.895 101.469 164.975 101.203 164.975 100.872V100.776ZM165.007 98.584V97.224C165.007 97.096 164.991 96.968 164.959 96.84C164.927 96.7013 164.868 96.5787 164.783 96.472C164.697 96.3653 164.585 96.28 164.447 96.216C164.308 96.1413 164.137 96.104 163.935 96.104C163.721 96.104 163.545 96.1413 163.407 96.216C163.268 96.2907 163.156 96.3867 163.071 96.504C162.985 96.6213 162.927 96.7493 162.895 96.888C162.863 97.0267 162.847 97.16 162.847 97.288V98.584H165.007ZM171.11 98.472V95.064H172.31V98.472H173.014C173.206 98.472 173.361 98.4293 173.478 98.344C173.595 98.248 173.686 98.1307 173.75 97.992C173.825 97.8533 173.873 97.704 173.894 97.544C173.926 97.3733 173.953 97.2133 173.974 97.064L174.07 96.36C174.102 96.1573 174.145 95.9707 174.198 95.8C174.251 95.6293 174.331 95.4853 174.438 95.368C174.555 95.24 174.71 95.144 174.902 95.08C175.105 95.016 175.366 94.984 175.686 94.984H175.83V95.96H175.686C175.473 95.96 175.323 96.04 175.238 96.2C175.153 96.36 175.089 96.5893 175.046 96.888L174.95 97.544C174.897 97.8853 174.843 98.1573 174.79 98.36C174.737 98.5627 174.609 98.7493 174.406 98.92L175.83 103H174.646L173.398 99.4H172.31V103H171.11V99.4H170.022L168.774 103H167.59L169.014 98.92C168.811 98.7493 168.683 98.5627 168.63 98.36C168.577 98.1573 168.523 97.8853 168.47 97.544L168.374 96.888C168.331 96.5893 168.267 96.36 168.182 96.2C168.097 96.04 167.947 95.96 167.734 95.96H167.59V94.984H167.734C168.054 94.984 168.31 95.016 168.502 95.08C168.705 95.144 168.859 95.24 168.966 95.368C169.083 95.4853 169.169 95.6293 169.222 95.8C169.275 95.9707 169.318 96.1573 169.35 96.36L169.446 97.064C169.467 97.2133 169.489 97.3733 169.51 97.544C169.542 97.704 169.59 97.8533 169.654 97.992C169.729 98.1307 169.825 98.248 169.942 98.344C170.059 98.4293 170.214 98.472 170.406 98.472H171.11ZM180.632 102.216H180.616C180.52 102.333 180.418 102.445 180.312 102.552C180.205 102.659 180.082 102.755 179.944 102.84C179.805 102.925 179.645 102.995 179.464 103.048C179.293 103.101 179.08 103.128 178.824 103.128C178.504 103.128 178.237 103.075 178.024 102.968C177.821 102.851 177.656 102.691 177.528 102.488C177.41 102.285 177.325 102.051 177.272 101.784C177.218 101.517 177.192 101.224 177.192 100.904C177.192 100.488 177.229 100.12 177.304 99.8C177.378 99.4693 177.506 99.192 177.688 98.968C177.869 98.744 178.104 98.5733 178.392 98.456C178.69 98.3387 179.064 98.28 179.512 98.28C179.597 98.28 179.72 98.2853 179.88 98.296C180.04 98.296 180.29 98.312 180.632 98.344V97.176C180.632 97.0693 180.61 96.952 180.568 96.824C180.525 96.696 180.456 96.5787 180.36 96.472C180.274 96.3653 180.162 96.28 180.024 96.216C179.885 96.1413 179.714 96.104 179.512 96.104C179.405 96.104 179.293 96.12 179.176 96.152C179.069 96.1733 178.962 96.2213 178.856 96.296C178.76 96.3707 178.669 96.472 178.584 96.6C178.509 96.728 178.456 96.888 178.424 97.08H177.272C177.272 96.7493 177.33 96.4507 177.448 96.184C177.576 95.9173 177.741 95.6933 177.944 95.512C178.157 95.32 178.402 95.176 178.68 95.08C178.968 94.984 179.272 94.936 179.592 94.936C180.05 94.936 180.424 95.016 180.712 95.176C181.01 95.3253 181.24 95.5173 181.4 95.752C181.57 95.976 181.682 96.232 181.736 96.52C181.8 96.7973 181.832 97.064 181.832 97.32V103H180.632V102.216ZM180.632 99.224C180.461 99.2027 180.306 99.1867 180.168 99.176C180.029 99.1547 179.912 99.144 179.816 99.144C179.645 99.144 179.474 99.1707 179.304 99.224C179.133 99.2667 178.978 99.352 178.84 99.48C178.712 99.5973 178.605 99.7573 178.52 99.96C178.434 100.152 178.392 100.392 178.392 100.68C178.392 101.245 178.477 101.624 178.648 101.816C178.818 102.008 179.074 102.104 179.416 102.104C179.544 102.104 179.677 102.067 179.816 101.992C179.954 101.917 180.082 101.811 180.2 101.672C180.328 101.533 180.429 101.379 180.504 101.208C180.589 101.027 180.632 100.829 180.632 100.616V99.224ZM187.02 103V99.544H185.916L184.732 103H183.452L184.732 99.416C184.327 99.2347 184.049 99.0053 183.9 98.728C183.761 98.44 183.692 98.0933 183.692 97.688V96.92C183.692 96.504 183.767 96.1733 183.916 95.928C184.065 95.6827 184.252 95.496 184.476 95.368C184.7 95.24 184.94 95.16 185.196 95.128C185.463 95.0853 185.703 95.064 185.916 95.064H188.22V103H187.02ZM187.02 95.944H186.012C185.724 95.944 185.463 96.0347 185.228 96.216C185.004 96.3973 184.892 96.7067 184.892 97.144V97.576C184.892 97.9707 184.999 98.2533 185.212 98.424C185.436 98.5947 185.703 98.68 186.012 98.68H187.02V95.944Z" fill="white"/>
<defs>
<linearGradient id="paint0_linear_482_203" x1="0.25798" y1="70.5992" x2="255.656" y2="70.6454" gradientUnits="userSpaceOnUse">
<stop stop-color="#8451DA"/>
<stop offset="0.815" stop-color="#462B74"/>
</linearGradient>
</defs>
</svg>
