<svg width="259" height="188" viewBox="0 0 259 188" fill="none" xmlns="http://www.w3.org/2000/svg">
<path d="M244.527 155.715L211.174 121.637L236.059 69.1682L244.527 155.715Z" fill="#462B74"/>
<path d="M255.665 20.4335C255.665 17.8699 253.727 15.717 251.177 15.4489L128.979 2.59992C128.64 2.56433 128.299 2.56338 127.961 2.59708L4.76063 14.8626C2.20893 15.1166 0.267624 17.261 0.26716 19.8261L0.248746 121.669C0.248281 124.239 2.19558 126.395 4.75239 126.656L127.989 139.215C128.32 139.249 128.653 139.249 128.984 139.217L251.145 127.249C253.7 126.998 255.646 124.852 255.646 122.284L255.665 20.4335Z" fill="url(#paint0_linear_821_2669)"/>
<path d="M39.8494 32.8185L39.8494 43.0004L38.6165 43.0004L38.6165 33.9123L33.4858 33.9123L33.4858 43.0004L32.2528 43.0004L32.2528 32.8185L39.8494 32.8185ZM42.1774 45.864L42.1774 35.364L43.3109 35.364L43.3109 36.5771L43.4501 36.5771C43.5363 36.4445 43.6556 36.2755 43.8081 36.07C43.9638 35.8612 44.1859 35.6756 44.4743 35.5132C44.7659 35.3474 45.1603 35.2646 45.6575 35.2646C46.3005 35.2646 46.8672 35.4253 47.3578 35.7468C47.8483 36.0683 48.2311 36.524 48.5062 37.114C48.7813 37.704 48.9189 38.4 48.9189 39.2021C48.9189 40.0108 48.7813 40.7118 48.5062 41.3051C48.2311 41.895 47.85 42.3524 47.3627 42.6772C46.8755 42.9987 46.3137 43.1595 45.6774 43.1595C45.1868 43.1595 44.7941 43.0783 44.4991 42.9158C44.2041 42.7501 43.9771 42.5629 43.818 42.3541C43.6589 42.1419 43.5363 41.9663 43.4501 41.8271L43.3507 41.8271L43.3507 45.864L42.1774 45.864ZM43.3308 39.1822C43.3308 39.7589 43.4153 40.2676 43.5843 40.7085C43.7534 41.146 44.0003 41.489 44.3251 41.7376C44.6499 41.9828 45.0476 42.1055 45.5183 42.1055C46.0088 42.1055 46.4181 41.9762 46.7463 41.7177C47.0777 41.4559 47.3263 41.1045 47.492 40.6637C47.661 40.2196 47.7456 39.7257 47.7456 39.1822C47.7456 38.6453 47.6627 38.1614 47.497 37.7305C47.3346 37.2963 47.0877 36.9533 46.7562 36.7014C46.4281 36.4462 46.0154 36.3185 45.5183 36.3185C45.041 36.3185 44.64 36.4395 44.3152 36.6815C43.9904 36.9201 43.7451 37.2549 43.5794 37.6857C43.4136 38.1133 43.3308 38.6121 43.3308 39.1822ZM51.8819 41.2703L55.5609 35.364L56.9132 35.364L56.9132 43.0004L55.7399 43.0004L55.7399 37.0941L52.0808 43.0004L50.7086 43.0004L50.7086 35.364L51.8819 35.364L51.8819 41.2703ZM58.2468 45.1879L58.2468 41.9066L58.8832 41.9066C59.0389 41.7442 59.1732 41.5685 59.2859 41.3796C59.3986 41.1907 59.4963 40.967 59.5792 40.7085C59.6654 40.4466 59.7383 40.1284 59.7979 39.7539C59.8576 39.3761 59.9106 38.9203 59.957 38.3867L60.2156 35.364L65.0678 35.364L65.0678 41.9066L66.2411 41.9066L66.2411 45.1879L65.0678 45.1879L65.0678 43.0004L59.4201 43.0004L59.4201 45.1879L58.2468 45.1879ZM60.2156 41.9066L63.8945 41.9066L63.8945 36.4578L61.3093 36.4578L61.1104 38.3867C61.0276 39.1855 60.9248 39.8832 60.8022 40.4798C60.6796 41.0764 60.484 41.552 60.2156 41.9066ZM72.3922 43.0004L72.3922 36.4379L70.3638 36.4379C69.9064 36.4379 69.5468 36.5439 69.285 36.756C69.0231 36.9682 68.8922 37.2598 68.8922 37.631C68.8922 37.9956 69.0099 38.2823 69.2452 38.4911C69.4838 38.6999 69.8103 38.8043 70.2246 38.8043L72.6905 38.8043L72.6905 39.8981L70.2246 39.8981C69.7076 39.8981 69.2618 39.8069 68.8873 39.6247C68.5127 39.4424 68.2244 39.1822 68.0222 38.8441C67.82 38.5027 67.7189 38.0984 67.7189 37.631C67.7189 37.1604 67.825 36.756 68.0371 36.418C68.2492 36.0799 68.5525 35.8197 68.9469 35.6374C69.3446 35.4551 69.8169 35.364 70.3638 35.364L73.5059 35.364L73.5059 43.0004L72.3922 43.0004ZM67.3013 43.0004L69.4689 39.2021L70.7417 39.2021L68.574 43.0004L67.3013 43.0004ZM78.782 45.1879L78.782 41.9066L79.4183 41.9066C79.5741 41.7442 79.7083 41.5685 79.821 41.3796C79.9337 41.1907 80.0315 40.967 80.1143 40.7085C80.2005 40.4466 80.2734 40.1284 80.3331 39.7539C80.3928 39.3761 80.4458 38.9203 80.4922 38.3867L80.7507 35.364L85.603 35.364L85.603 41.9066L86.7763 41.9066L86.7763 45.1879L85.603 45.1879L85.603 43.0004L79.9553 43.0004L79.9553 45.1879L78.782 45.1879ZM80.7507 41.9066L84.4297 41.9066L84.4297 36.4578L81.8445 36.4578L81.6456 38.3867C81.5627 39.1855 81.46 39.8832 81.3374 40.4798C81.2147 41.0764 81.0192 41.552 80.7507 41.9066ZM91.4359 43.1595C90.7465 43.1595 90.1416 42.9954 89.6213 42.6673C89.1042 42.3391 88.6999 41.8801 88.4082 41.2901C88.1199 40.7002 87.9757 40.0108 87.9757 39.222C87.9757 38.4265 88.1199 37.7321 88.4082 37.1389C88.6999 36.5456 89.1042 36.0849 89.6213 35.7568C90.1416 35.4286 90.7465 35.2646 91.4359 35.2646C92.1253 35.2646 92.7285 35.4286 93.2456 35.7568C93.7659 36.0849 94.1703 36.5456 94.4586 37.1389C94.7503 37.7321 94.8961 38.4265 94.8961 39.222C94.8961 40.0108 94.7503 40.7002 94.4586 41.2901C94.1703 41.8801 93.7659 42.3391 93.2456 42.6673C92.7285 42.9954 92.1253 43.1595 91.4359 43.1595ZM91.4359 42.1055C91.9596 42.1055 92.3904 41.9712 92.7285 41.7028C93.0666 41.4343 93.3168 41.0813 93.4792 40.6438C93.6416 40.2063 93.7228 39.7324 93.7228 39.222C93.7228 38.7115 93.6416 38.2359 93.4792 37.7951C93.3168 37.3543 93.0666 36.998 92.7285 36.7262C92.3904 36.4544 91.9596 36.3185 91.4359 36.3185C90.9122 36.3185 90.4814 36.4544 90.1433 36.7262C89.8052 36.998 89.555 37.3543 89.3926 37.7951C89.2302 38.2359 89.149 38.7115 89.149 39.222C89.149 39.7324 89.2302 40.2063 89.3926 40.6438C89.555 41.0813 89.8052 41.4343 90.1433 41.7028C90.4814 41.9712 90.9122 42.1055 91.4359 42.1055ZM100.863 41.4095L103.528 35.364L104.642 35.364L101.341 43.0004L100.386 43.0004L97.1445 35.364L98.2383 35.364L100.863 41.4095ZM97.8604 35.364L97.8604 43.0004L96.6871 43.0004L96.6871 35.364L97.8604 35.364ZM103.866 43.0004L103.866 35.364L105.039 35.364L105.039 43.0004L103.866 43.0004ZM110.289 43.1595C109.6 43.1595 108.995 42.9954 108.475 42.6673C107.958 42.3391 107.553 41.8801 107.262 41.2901C106.973 40.7002 106.829 40.0108 106.829 39.222C106.829 38.4265 106.973 37.7321 107.262 37.1389C107.553 36.5456 107.958 36.0849 108.475 35.7568C108.995 35.4286 109.6 35.2646 110.289 35.2646C110.979 35.2646 111.582 35.4286 112.099 35.7568C112.619 36.0849 113.024 36.5456 113.312 37.1389C113.604 37.7321 113.75 38.4265 113.75 39.222C113.75 40.0108 113.604 40.7002 113.312 41.2901C113.024 41.8801 112.619 42.3391 112.099 42.6673C111.582 42.9954 110.979 43.1595 110.289 43.1595ZM110.289 42.1055C110.813 42.1055 111.244 41.9712 111.582 41.7028C111.92 41.4343 112.17 41.0813 112.333 40.6438C112.495 40.2063 112.576 39.7324 112.576 39.222C112.576 38.7115 112.495 38.2359 112.333 37.7951C112.17 37.3543 111.92 36.998 111.582 36.7262C111.244 36.4544 110.813 36.3185 110.289 36.3185C109.766 36.3185 109.335 36.4544 108.997 36.7262C108.659 36.998 108.408 37.3543 108.246 37.7951C108.084 38.2359 108.002 38.7115 108.002 39.222C108.002 39.7324 108.084 40.2063 108.246 40.6438C108.408 41.0813 108.659 41.4343 108.997 41.7028C109.335 41.9712 109.766 42.1055 110.289 42.1055ZM116.714 41.2703L120.393 35.364L121.745 35.364L121.745 43.0004L120.572 43.0004L120.572 37.0941L116.913 43.0004L115.541 43.0004L115.541 35.364L116.714 35.364L116.714 41.2703ZM119.617 32.8185L120.711 32.8185C120.711 33.3555 120.526 33.7946 120.154 34.136C119.783 34.4774 119.279 34.6481 118.643 34.6481C118.017 34.6481 117.518 34.4774 117.146 34.136C116.779 33.7946 116.595 33.3555 116.595 32.8185L117.688 32.8185C117.688 33.0771 117.76 33.3041 117.902 33.4997C118.048 33.6952 118.295 33.793 118.643 33.793C118.991 33.793 119.24 33.6952 119.389 33.4997C119.541 33.3041 119.617 33.0771 119.617 32.8185ZM125.644 41.6083L125.565 42.1453C125.508 42.5231 125.422 42.9274 125.306 43.3583C125.193 43.7892 125.076 44.1952 124.953 44.5764C124.83 44.9575 124.729 45.2608 124.65 45.4862L123.755 45.4862C123.798 45.274 123.854 44.994 123.924 44.646C123.994 44.298 124.063 43.9085 124.133 43.4776C124.206 43.0501 124.265 42.6126 124.312 42.1651L124.371 41.6083L125.644 41.6083ZM134.858 43.1595C134.142 43.1595 133.525 42.9904 133.008 42.6524C132.491 42.3143 132.094 41.8486 131.815 41.2553C131.537 40.6621 131.398 39.9843 131.398 39.222C131.398 38.4464 131.54 37.762 131.825 37.1687C132.113 36.5721 132.515 36.1064 133.028 35.7717C133.545 35.4336 134.148 35.2646 134.838 35.2646C135.375 35.2646 135.859 35.364 136.29 35.5629C136.72 35.7617 137.073 36.0401 137.349 36.3981C137.624 36.756 137.794 37.1737 137.861 37.6509L136.687 37.6509C136.598 37.3029 136.399 36.9947 136.091 36.7262C135.786 36.4544 135.375 36.3185 134.858 36.3185C134.4 36.3185 133.999 36.4379 133.655 36.6765C133.313 36.9118 133.046 37.2449 132.854 37.6758C132.665 38.1033 132.571 38.6055 132.571 39.1822C132.571 39.7721 132.664 40.2859 132.849 40.7234C133.038 41.1609 133.303 41.5006 133.645 41.7426C133.989 41.9845 134.394 42.1055 134.858 42.1055C135.163 42.1055 135.439 42.0524 135.688 41.9464C135.937 41.8403 136.147 41.6879 136.319 41.489C136.492 41.2901 136.614 41.0515 136.687 40.7731L137.861 40.7731C137.794 41.2239 137.63 41.6299 137.368 41.9911C137.11 42.3491 136.767 42.6341 136.339 42.8462C135.915 43.0551 135.421 43.1595 134.858 43.1595ZM139.576 45.864L139.576 35.364L140.709 35.364L140.709 36.5771L140.849 36.5771C140.935 36.4445 141.054 36.2755 141.206 36.07C141.362 35.8612 141.584 35.6756 141.873 35.5132C142.164 35.3474 142.559 35.2646 143.056 35.2646C143.699 35.2646 144.266 35.4253 144.756 35.7468C145.247 36.0683 145.63 36.524 145.905 37.114C146.18 37.704 146.317 38.4 146.317 39.2021C146.317 40.0108 146.18 40.7118 145.905 41.3051C145.63 41.895 145.248 42.3524 144.761 42.6772C144.274 42.9987 143.712 43.1595 143.076 43.1595C142.585 43.1595 142.193 43.0783 141.898 42.9158C141.603 42.7501 141.376 42.5629 141.216 42.3541C141.057 42.1419 140.935 41.9663 140.849 41.8271L140.749 41.8271L140.749 45.864L139.576 45.864ZM140.729 39.1822C140.729 39.7589 140.814 40.2676 140.983 40.7085C141.152 41.146 141.399 41.489 141.724 41.7376C142.048 41.9828 142.446 42.1055 142.917 42.1055C143.407 42.1055 143.817 41.9762 144.145 41.7177C144.476 41.4559 144.725 41.1045 144.89 40.6637C145.059 40.2196 145.144 39.7257 145.144 39.1822C145.144 38.6453 145.061 38.1614 144.895 37.7305C144.733 37.2963 144.486 36.9533 144.155 36.7014C143.827 36.4462 143.414 36.3185 142.917 36.3185C142.439 36.3185 142.038 36.4395 141.714 36.6815C141.389 36.9201 141.144 37.2549 140.978 37.6857C140.812 38.1133 140.729 38.6121 140.729 39.1822ZM150.354 43.1793C149.87 43.1793 149.431 43.0882 149.037 42.9059C148.642 42.7203 148.329 42.4535 148.097 42.1055C147.865 41.7542 147.749 41.3299 147.749 40.8328C147.749 40.3953 147.835 40.0406 148.008 39.7688C148.18 39.4937 148.41 39.2783 148.699 39.1225C148.987 38.9667 149.305 38.8507 149.653 38.7745C150.005 38.695 150.358 38.632 150.712 38.5856C151.176 38.5259 151.552 38.4812 151.841 38.4514C152.132 38.4182 152.345 38.3635 152.477 38.2873C152.613 38.2111 152.681 38.0785 152.681 37.8896L152.681 37.8498C152.681 37.3593 152.547 36.9781 152.278 36.7063C152.013 36.4346 151.61 36.2987 151.07 36.2987C150.51 36.2987 150.071 36.4213 149.753 36.6666C149.434 36.9118 149.211 37.1737 149.081 37.4521L147.968 37.0543C148.167 36.5903 148.432 36.2291 148.763 35.9705C149.098 35.7087 149.463 35.5264 149.857 35.4237C150.255 35.3176 150.646 35.2646 151.03 35.2646C151.276 35.2646 151.557 35.2944 151.876 35.3541C152.197 35.4104 152.507 35.5281 152.805 35.707C153.107 35.886 153.357 36.1561 153.556 36.5174C153.755 36.8787 153.854 37.3626 153.854 37.9691L153.854 43.0004L152.681 43.0004L152.681 41.9663L152.621 41.9663C152.542 42.132 152.409 42.3093 152.224 42.4982C152.038 42.6872 151.791 42.8479 151.483 42.9805C151.175 43.1131 150.798 43.1793 150.354 43.1793ZM150.533 42.1254C150.997 42.1254 151.388 42.0342 151.706 41.8519C152.028 41.6696 152.27 41.4343 152.432 41.146C152.598 40.8576 152.681 40.5543 152.681 40.2362L152.681 39.1623C152.631 39.222 152.522 39.2766 152.353 39.3264C152.187 39.3728 151.995 39.4142 151.776 39.4506C151.561 39.4838 151.35 39.5136 151.145 39.5401C150.943 39.5633 150.778 39.5832 150.653 39.5998C150.348 39.6396 150.063 39.7042 149.797 39.7937C149.536 39.8799 149.323 40.0108 149.161 40.1864C149.002 40.3588 148.922 40.5941 148.922 40.8924C148.922 41.3001 149.073 41.6083 149.375 41.8171C149.68 42.0226 150.066 42.1254 150.533 42.1254ZM155.518 41.0515L156.771 41.0515C156.798 41.3962 156.954 41.658 157.239 41.837C157.527 42.016 157.902 42.1055 158.362 42.1055C158.833 42.1055 159.236 42.0094 159.57 41.8171C159.905 41.6216 160.072 41.3067 160.072 40.8725C160.072 40.6173 160.009 40.3953 159.884 40.2063C159.758 40.0141 159.58 39.8649 159.352 39.7589C159.123 39.6528 158.853 39.5998 158.541 39.5998L157.229 39.5998L157.229 38.5458L158.541 38.5458C159.009 38.5458 159.353 38.4398 159.575 38.2276C159.801 38.0155 159.913 37.7504 159.913 37.4322C159.913 37.0908 159.792 36.8174 159.55 36.6119C159.308 36.4031 158.965 36.2987 158.521 36.2987C158.074 36.2987 157.701 36.3998 157.403 36.6019C157.104 36.8008 156.947 37.0577 156.93 37.3725L155.697 37.3725C155.711 36.9615 155.837 36.5986 156.075 36.2837C156.314 35.9656 156.639 35.717 157.05 35.538C157.461 35.3557 157.931 35.2646 158.462 35.2646C158.999 35.2646 159.464 35.359 159.859 35.548C160.256 35.7336 160.563 35.9871 160.778 36.3086C160.997 36.6268 161.107 36.9881 161.107 37.3924C161.107 37.8233 160.986 38.1713 160.744 38.4364C160.502 38.7016 160.198 38.8905 159.834 39.0032L159.834 39.0828C160.122 39.1026 160.372 39.1954 160.585 39.3612C160.8 39.5236 160.967 39.7373 161.087 40.0025C161.206 40.2643 161.266 40.5543 161.266 40.8725C161.266 41.3365 161.141 41.7409 160.893 42.0856C160.644 42.427 160.303 42.6921 159.869 42.881C159.434 43.0667 158.939 43.1595 158.382 43.1595C157.842 43.1595 157.358 43.0716 156.93 42.896C156.503 42.717 156.163 42.4701 155.911 42.1552C155.663 41.837 155.532 41.4691 155.518 41.0515ZM163.669 45.864C163.471 45.864 163.293 45.8474 163.137 45.8143C162.982 45.7845 162.874 45.7546 162.814 45.7248L163.113 44.6907C163.398 44.7636 163.65 44.7901 163.868 44.7703C164.087 44.7504 164.281 44.6526 164.45 44.4769C164.622 44.3046 164.78 44.0245 164.922 43.6367L165.141 43.0401L162.317 35.364L163.59 35.364L165.698 41.4492L165.777 41.4492L167.885 35.364L169.158 35.364L165.917 44.114C165.771 44.5084 165.59 44.8349 165.375 45.0934C165.159 45.3552 164.909 45.5491 164.624 45.6751C164.342 45.801 164.024 45.864 163.669 45.864ZM174.167 43.0004L177.269 39.1225L174.207 35.364L175.599 35.364L178.144 38.6254L178.781 38.6254L178.781 35.364L179.954 35.364L179.954 38.6254L180.57 38.6254L183.116 35.364L184.508 35.364L181.465 39.1225L184.548 43.0004L183.136 43.0004L180.55 39.7191L179.954 39.7191L179.954 43.0004L178.781 43.0004L178.781 39.7191L178.184 39.7191L175.579 43.0004L174.167 43.0004ZM189.112 43.1595C188.376 43.1595 187.741 42.9971 187.207 42.6722C186.677 42.3441 186.268 41.8867 185.979 41.3001C185.694 40.7101 185.552 40.024 185.552 39.2418C185.552 38.4596 185.694 37.7703 185.979 37.1737C186.268 36.5738 186.669 36.1064 187.183 35.7717C187.7 35.4336 188.303 35.2646 188.992 35.2646C189.39 35.2646 189.783 35.3309 190.17 35.4634C190.558 35.596 190.911 35.8114 191.229 36.1097C191.548 36.4047 191.801 36.7958 191.99 37.283C192.179 37.7703 192.273 38.3702 192.273 39.0828L192.273 39.5799L186.387 39.5799L186.387 38.5657L191.08 38.5657C191.08 38.1348 190.994 37.7504 190.822 37.4123C190.653 37.0742 190.411 36.8074 190.096 36.6119C189.784 36.4163 189.416 36.3185 188.992 36.3185C188.525 36.3185 188.121 36.4346 187.779 36.6666C187.441 36.8953 187.181 37.1935 186.999 37.5614C186.816 37.9293 186.725 38.3238 186.725 38.7447L186.725 39.4208C186.725 39.9975 186.825 40.4864 187.023 40.8874C187.226 41.2852 187.506 41.5884 187.864 41.7972C188.222 42.0027 188.638 42.1055 189.112 42.1055C189.42 42.1055 189.698 42.0624 189.947 41.9762C190.199 41.8867 190.416 41.7542 190.598 41.5785C190.78 41.3995 190.921 41.1774 191.021 40.9123L192.154 41.2305C192.035 41.6149 191.834 41.953 191.553 42.2447C191.271 42.533 190.923 42.7584 190.509 42.9208C190.094 43.0799 189.629 43.1595 189.112 43.1595ZM32.0739 64.0004L32.0739 56.364L38.0795 56.364L38.0795 64.0004L36.9063 64.0004L36.9063 57.4578L33.2472 57.4578L33.2472 64.0004L32.0739 64.0004ZM43.424 64.1595C42.6882 64.1595 42.0535 63.9971 41.5199 63.6722C40.9896 63.3441 40.5803 62.8867 40.2919 62.3001C40.0069 61.7101 39.8643 61.024 39.8643 60.2418C39.8643 59.4596 40.0069 58.7703 40.2919 58.1737C40.5803 57.5738 40.9813 57.1064 41.495 56.7717C42.0121 56.4336 42.6153 56.2646 43.3047 56.2646C43.7024 56.2646 44.0952 56.3309 44.483 56.4634C44.8707 56.596 45.2237 56.8114 45.5419 57.1097C45.8601 57.4047 46.1136 57.7958 46.3026 58.283C46.4915 58.7703 46.5859 59.3702 46.5859 60.0828L46.5859 60.5799L40.6996 60.5799L40.6996 59.5657L45.3928 59.5657C45.3928 59.1348 45.3066 58.7504 45.1342 58.4123C44.9652 58.0742 44.7232 57.8074 44.4084 57.6119C44.0968 57.4163 43.7289 57.3185 43.3047 57.3185C42.8374 57.3185 42.433 57.4346 42.0916 57.6666C41.7536 57.8953 41.4934 58.1935 41.3111 58.5614C41.1288 58.9293 41.0376 59.3238 41.0376 59.7447L41.0376 60.4208C41.0376 60.9975 41.1371 61.4864 41.3359 61.8874C41.5381 62.2852 41.8182 62.5884 42.1761 62.7972C42.5341 63.0027 42.95 63.1055 43.424 63.1055C43.7322 63.1055 44.0107 63.0624 44.2592 62.9762C44.5111 62.8867 44.7282 62.7542 44.9105 62.5785C45.0928 62.3995 45.2337 62.1774 45.3331 61.9123L46.4666 62.2305C46.3473 62.6149 46.1468 62.953 45.8651 63.2447C45.5833 63.533 45.2353 63.7584 44.821 63.9208C44.4067 64.0799 43.9411 64.1595 43.424 64.1595ZM48.3707 66.864L48.3707 56.364L49.5043 56.364L49.5043 57.5771L49.6435 57.5771C49.7296 57.4445 49.849 57.2755 50.0014 57.07C50.1572 56.8612 50.3793 56.6756 50.6676 56.5132C50.9593 56.3474 51.3537 56.2646 51.8509 56.2646C52.4938 56.2646 53.0606 56.4253 53.5511 56.7468C54.0417 57.0683 54.4245 57.524 54.6996 58.114C54.9747 58.704 55.1122 59.4 55.1122 60.2021C55.1122 61.0108 54.9747 61.7118 54.6996 62.3051C54.4245 62.895 54.0433 63.3524 53.5561 63.6772C53.0689 63.9987 52.5071 64.1595 51.8707 64.1595C51.3802 64.1595 50.9875 64.0783 50.6925 63.9158C50.3975 63.7501 50.1705 63.5629 50.0114 63.3541C49.8523 63.1419 49.7296 62.9663 49.6435 62.8271L49.544 62.8271L49.544 66.864L48.3707 66.864ZM49.5241 60.1822C49.5241 60.7589 49.6087 61.2676 49.7777 61.7085C49.9467 62.146 50.1937 62.489 50.5185 62.7376C50.8433 62.9828 51.241 63.1055 51.7116 63.1055C52.2022 63.1055 52.6115 62.9762 52.9396 62.7177C53.2711 62.4559 53.5196 62.1045 53.6854 61.6637C53.8544 61.2196 53.9389 60.7257 53.9389 60.1822C53.9389 59.6453 53.8561 59.1614 53.6903 58.7305C53.5279 58.2963 53.281 57.9533 52.9496 57.7014C52.6214 57.4462 52.2088 57.3185 51.7116 57.3185C51.2344 57.3185 50.8333 57.4395 50.5085 57.6815C50.1837 57.9201 49.9384 58.2549 49.7727 58.6857C49.607 59.1133 49.5241 59.6121 49.5241 60.1822ZM60.1037 64.1595C59.3679 64.1595 58.7332 63.9971 58.1996 63.6722C57.6693 63.3441 57.2599 62.8867 56.9716 62.3001C56.6866 61.7101 56.544 61.024 56.544 60.2418C56.544 59.4596 56.6866 58.7703 56.9716 58.1737C57.2599 57.5738 57.661 57.1064 58.1747 56.7717C58.6918 56.4336 59.295 56.2646 59.9844 56.2646C60.3821 56.2646 60.7749 56.3309 61.1626 56.4634C61.5504 56.596 61.9034 56.8114 62.2216 57.1097C62.5398 57.4047 62.7933 57.7958 62.9822 58.283C63.1712 58.7703 63.2656 59.3702 63.2656 60.0828L63.2656 60.5799L57.3793 60.5799L57.3793 59.5657L62.0724 59.5657C62.0724 59.1348 61.9863 58.7504 61.8139 58.4123C61.6449 58.0742 61.4029 57.8074 61.0881 57.6119C60.7765 57.4163 60.4086 57.3185 59.9844 57.3185C59.517 57.3185 59.1127 57.4346 58.7713 57.6666C58.4332 57.8953 58.1731 58.1935 57.9908 58.5614C57.8085 58.9293 57.7173 59.3238 57.7173 59.7447L57.7173 60.4208C57.7173 60.9975 57.8168 61.4864 58.0156 61.8874C58.2178 62.2852 58.4979 62.5884 58.8558 62.7972C59.2138 63.0027 59.6297 63.1055 60.1037 63.1055C60.4119 63.1055 60.6903 63.0624 60.9389 62.9762C61.1908 62.8867 61.4079 62.7542 61.5902 62.5785C61.7725 62.3995 61.9134 62.1774 62.0128 61.9123L63.1463 62.2305C63.027 62.6149 62.8265 62.953 62.5447 63.2447C62.263 63.533 61.915 63.7584 61.5007 63.9208C61.0864 64.0799 60.6207 64.1595 60.1037 64.1595ZM64.3743 64.0004L64.3743 62.9066L64.6527 62.9066C64.8814 62.9066 65.072 62.8619 65.2244 62.7724C65.3769 62.6796 65.4995 62.5188 65.5923 62.2901C65.6884 62.0581 65.7614 61.7366 65.8111 61.3257C65.8641 60.9114 65.9022 60.3844 65.9254 59.7447L66.0646 56.364L71.1555 56.364L71.1555 64.0004L69.9822 64.0004L69.9822 57.4578L67.1783 57.4578L67.0589 60.1822C67.0324 60.8086 66.9761 61.3605 66.8899 61.8377C66.8071 62.3117 66.6795 62.7094 66.5071 63.0309C66.3381 63.3524 66.1127 63.5944 65.831 63.7568C65.5492 63.9192 65.1963 64.0004 64.772 64.0004L64.3743 64.0004ZM76.4105 64.1595C75.7211 64.1595 75.1162 63.9954 74.5959 63.6673C74.0788 63.3391 73.6745 62.8801 73.3828 62.2901C73.0945 61.7002 72.9503 61.0108 72.9503 60.222C72.9503 59.4265 73.0945 58.7321 73.3828 58.1389C73.6745 57.5456 74.0788 57.0849 74.5959 56.7568C75.1162 56.4286 75.7211 56.2646 76.4105 56.2646C77.0999 56.2646 77.7031 56.4286 78.2202 56.7568C78.7405 57.0849 79.1449 57.5456 79.4332 58.1389C79.7249 58.7321 79.8707 59.4265 79.8707 60.222C79.8707 61.0108 79.7249 61.7002 79.4332 62.2901C79.1449 62.8801 78.7405 63.3391 78.2202 63.6673C77.7031 63.9954 77.0999 64.1595 76.4105 64.1595ZM76.4105 63.1055C76.9342 63.1055 77.3651 62.9712 77.7031 62.7028C78.0412 62.4343 78.2914 62.0813 78.4538 61.6438C78.6162 61.2063 78.6974 60.7324 78.6974 60.222C78.6974 59.7115 78.6162 59.2359 78.4538 58.7951C78.2914 58.3543 78.0412 57.998 77.7031 57.7262C77.3651 57.4544 76.9342 57.3185 76.4105 57.3185C75.8868 57.3185 75.456 57.4544 75.1179 57.7262C74.7798 57.998 74.5296 58.3543 74.3672 58.7951C74.2048 59.2359 74.1236 59.7115 74.1236 60.222C74.1236 60.7324 74.2048 61.2063 74.3672 61.6438C74.5296 62.0813 74.7798 62.4343 75.1179 62.7028C75.456 62.9712 75.8868 63.1055 76.4105 63.1055ZM80.87 64.0004L83.9723 60.1225L80.9098 56.364L82.3018 56.364L84.8473 59.6254L85.4837 59.6254L85.4837 56.364L86.657 56.364L86.657 59.6254L87.2734 59.6254L89.8189 56.364L91.2109 56.364L88.1683 60.1225L91.2507 64.0004L89.8388 64.0004L87.2536 60.7191L86.657 60.7191L86.657 64.0004L85.4837 64.0004L85.4837 60.7191L84.8871 60.7191L82.282 64.0004L80.87 64.0004ZM94.1007 62.2703L97.7797 56.364L99.1319 56.364L99.1319 64.0004L97.9586 64.0004L97.9586 58.0941L94.2995 64.0004L92.9274 64.0004L92.9274 56.364L94.1007 56.364L94.1007 62.2703ZM100.242 57.4578L100.242 56.364L106.446 56.364L106.446 57.4578L103.941 57.4578L103.941 64.0004L102.767 64.0004L102.767 57.4578L100.242 57.4578ZM110.963 64.1595C110.227 64.1595 109.593 63.9971 109.059 63.6722C108.529 63.3441 108.119 62.8867 107.831 62.3001C107.546 61.7101 107.403 61.024 107.403 60.2418C107.403 59.4596 107.546 58.7703 107.831 58.1737C108.119 57.5738 108.52 57.1064 109.034 56.7717C109.551 56.4336 110.154 56.2646 110.844 56.2646C111.241 56.2646 111.634 56.3309 112.022 56.4634C112.41 56.596 112.763 56.8114 113.081 57.1097C113.399 57.4047 113.653 57.7958 113.842 58.283C114.031 58.7703 114.125 59.3702 114.125 60.0828L114.125 60.5799L108.239 60.5799L108.239 59.5657L112.932 59.5657C112.932 59.1348 112.846 58.7504 112.673 58.4123C112.504 58.0742 112.262 57.8074 111.947 57.6119C111.636 57.4163 111.268 57.3185 110.844 57.3185C110.376 57.3185 109.972 57.4346 109.631 57.6666C109.293 57.8953 109.032 58.1935 108.85 58.5614C108.668 58.9293 108.577 59.3238 108.577 59.7447L108.577 60.4208C108.577 60.9975 108.676 61.4864 108.875 61.8874C109.077 62.2852 109.357 62.5884 109.715 62.7972C110.073 63.0027 110.489 63.1055 110.963 63.1055C111.271 63.1055 111.55 63.0624 111.798 62.9762C112.05 62.8867 112.267 62.7542 112.45 62.5785C112.632 62.3995 112.773 62.1774 112.872 61.9123L114.006 62.2305C113.886 62.6149 113.686 62.953 113.404 63.2447C113.122 63.533 112.774 63.7584 112.36 63.9208C111.946 64.0799 111.48 64.1595 110.963 64.1595ZM119.847 64.0004L119.847 56.364L125.853 56.364L125.853 64.0004L124.68 64.0004L124.68 57.4578L121.021 57.4578L121.021 64.0004L119.847 64.0004ZM131.098 64.1595C130.409 64.1595 129.804 63.9954 129.283 63.6673C128.766 63.3391 128.362 62.8801 128.07 62.2901C127.782 61.7002 127.638 61.0108 127.638 60.222C127.638 59.4265 127.782 58.7321 128.07 58.1389C128.362 57.5456 128.766 57.0849 129.283 56.7568C129.804 56.4286 130.409 56.2646 131.098 56.2646C131.787 56.2646 132.391 56.4286 132.908 56.7568C133.428 57.0849 133.832 57.5456 134.121 58.1389C134.412 58.7321 134.558 59.4265 134.558 60.222C134.558 61.0108 134.412 61.7002 134.121 62.2901C133.832 62.8801 133.428 63.3391 132.908 63.6673C132.391 63.9954 131.787 64.1595 131.098 64.1595ZM131.098 63.1055C131.622 63.1055 132.053 62.9712 132.391 62.7028C132.729 62.4343 132.979 62.0813 133.141 61.6438C133.304 61.2063 133.385 60.7324 133.385 60.222C133.385 59.7115 133.304 59.2359 133.141 58.7951C132.979 58.3543 132.729 57.998 132.391 57.7262C132.053 57.4544 131.622 57.3185 131.098 57.3185C130.574 57.3185 130.143 57.4544 129.805 57.7262C129.467 57.998 129.217 58.3543 129.055 58.7951C128.892 59.2359 128.811 59.7115 128.811 60.222C128.811 60.7324 128.892 61.2063 129.055 61.6438C129.217 62.0813 129.467 62.4343 129.805 62.7028C130.143 62.9712 130.574 63.1055 131.098 63.1055ZM135.673 64.0004L135.673 62.9066L135.952 62.9066C136.18 62.9066 136.371 62.8619 136.523 62.7724C136.676 62.6796 136.798 62.5188 136.891 62.2901C136.987 62.0581 137.06 61.7366 137.11 61.3257C137.163 60.9114 137.201 60.3844 137.224 59.7447L137.363 56.364L142.454 56.364L142.454 64.0004L141.281 64.0004L141.281 57.4578L138.477 57.4578L138.358 60.1822C138.331 60.8086 138.275 61.3605 138.189 61.8377C138.106 62.3117 137.978 62.7094 137.806 63.0309C137.637 63.3524 137.412 63.5944 137.13 63.7568C136.848 63.9192 136.495 64.0004 136.071 64.0004L135.673 64.0004ZM145.089 66.864C144.89 66.864 144.713 66.8474 144.557 66.8143C144.402 66.7845 144.294 66.7546 144.234 66.7248L144.532 65.6907C144.818 65.7636 145.069 65.7901 145.288 65.7703C145.507 65.7504 145.701 65.6526 145.87 65.4769C146.042 65.3046 146.2 65.0245 146.342 64.6367L146.561 64.0401L143.737 56.364L145.01 56.364L147.118 62.4492L147.197 62.4492L149.305 56.364L150.578 56.364L147.336 65.114C147.191 65.5084 147.01 65.8349 146.795 66.0934C146.579 66.3552 146.329 66.5491 146.044 66.6751C145.762 66.801 145.444 66.864 145.089 66.864ZM154.955 66.6055L154.955 53.8185L156.129 53.8185L156.129 66.6055L154.955 66.6055ZM154.955 64.1595C154.438 64.1595 153.968 64.0667 153.544 63.881C153.119 63.6921 152.755 63.4253 152.45 63.0806C152.145 62.7326 151.91 62.3167 151.744 61.8328C151.578 61.3489 151.495 60.8119 151.495 60.222C151.495 59.6254 151.578 59.0851 151.744 58.6012C151.91 58.114 152.145 57.6964 152.45 57.3484C152.755 57.0004 153.119 56.7336 153.544 56.548C153.968 56.359 154.438 56.2646 154.955 56.2646L155.313 56.2646L155.313 64.1595L154.955 64.1595ZM154.955 63.1055L155.154 63.1055L155.154 57.3185L154.955 57.3185C154.564 57.3185 154.225 57.3981 153.936 57.5572C153.648 57.713 153.409 57.9267 153.22 58.1985C153.035 58.467 152.896 58.7752 152.803 59.1232C152.713 59.4712 152.669 59.8375 152.669 60.222C152.669 60.7324 152.75 61.2063 152.912 61.6438C153.075 62.0813 153.325 62.4343 153.663 62.7028C154.001 62.9712 154.432 63.1055 154.955 63.1055ZM156.129 64.1595L155.771 64.1595L155.771 56.2646L156.129 56.2646C156.646 56.2646 157.116 56.359 157.541 56.548C157.965 56.7336 158.329 57.0004 158.634 57.3484C158.939 57.6964 159.175 58.114 159.34 58.6012C159.506 59.0851 159.589 59.6254 159.589 60.222C159.589 60.8119 159.506 61.3489 159.34 61.8328C159.175 62.3167 158.939 62.7326 158.634 63.0806C158.329 63.4253 157.965 63.6921 157.541 63.881C157.116 64.0667 156.646 64.1595 156.129 64.1595ZM156.129 63.1055C156.523 63.1055 156.863 63.0292 157.148 62.8768C157.436 62.721 157.673 62.5089 157.859 62.2404C158.048 61.9686 158.187 61.6604 158.276 61.3157C158.369 60.9677 158.416 60.6031 158.416 60.222C158.416 59.7115 158.334 59.2359 158.172 58.7951C158.01 58.3543 157.759 57.998 157.421 57.7262C157.083 57.4544 156.652 57.3185 156.129 57.3185L155.93 57.3185L155.93 63.1055L156.129 63.1055ZM163.63 64.1793C163.146 64.1793 162.707 64.0882 162.312 63.9059C161.918 63.7203 161.605 63.4535 161.373 63.1055C161.141 62.7542 161.025 62.3299 161.025 61.8328C161.025 61.3953 161.111 61.0406 161.283 60.7688C161.455 60.4937 161.686 60.2783 161.974 60.1225C162.262 59.9667 162.581 59.8507 162.929 59.7745C163.28 59.695 163.633 59.632 163.988 59.5856C164.452 59.5259 164.828 59.4812 165.116 59.4514C165.408 59.4182 165.62 59.3635 165.752 59.2873C165.888 59.2111 165.956 59.0785 165.956 58.8896L165.956 58.8498C165.956 58.3593 165.822 57.9781 165.554 57.7063C165.288 57.4346 164.886 57.2987 164.346 57.2987C163.785 57.2987 163.346 57.4213 163.028 57.6666C162.71 57.9118 162.486 58.1737 162.357 58.4521L161.243 58.0543C161.442 57.5903 161.707 57.2291 162.039 56.9705C162.373 56.7087 162.738 56.5264 163.132 56.4237C163.53 56.3176 163.921 56.2646 164.306 56.2646C164.551 56.2646 164.833 56.2944 165.151 56.3541C165.472 56.4104 165.782 56.5281 166.081 56.707C166.382 56.886 166.632 57.1561 166.831 57.5174C167.03 57.8787 167.13 58.3626 167.13 58.9691L167.13 64.0004L165.956 64.0004L165.956 62.9663L165.897 62.9663C165.817 63.132 165.685 63.3093 165.499 63.4982C165.313 63.6872 165.066 63.8479 164.758 63.9805C164.45 64.1131 164.074 64.1793 163.63 64.1793ZM163.809 63.1254C164.273 63.1254 164.664 63.0342 164.982 62.8519C165.303 62.6696 165.545 62.4343 165.708 62.146C165.873 61.8576 165.956 61.5543 165.956 61.2362L165.956 60.1623C165.907 60.222 165.797 60.2766 165.628 60.3264C165.462 60.3728 165.27 60.4142 165.051 60.4506C164.836 60.4838 164.626 60.5136 164.42 60.5401C164.218 60.5633 164.054 60.5832 163.928 60.5998C163.623 60.6396 163.338 60.7042 163.073 60.7937C162.811 60.8799 162.599 61.0108 162.436 61.1864C162.277 61.3588 162.198 61.5941 162.198 61.8924C162.198 62.3001 162.349 62.6083 162.65 62.8171C162.955 63.0226 163.341 63.1254 163.809 63.1254ZM174.939 53.5004L175.535 54.2163C175.303 54.4417 175.035 54.5991 174.73 54.6886C174.425 54.7781 174.08 54.8328 173.696 54.8526C173.311 54.8725 172.884 54.8924 172.413 54.9123C171.883 54.9322 171.444 55.0614 171.096 55.3001C170.748 55.5387 170.479 55.8834 170.29 56.3342C170.101 56.7849 169.98 57.3384 169.927 57.9947L170.027 57.9947C170.285 57.5174 170.643 57.1661 171.101 56.9407C171.558 56.7153 172.049 56.6026 172.572 56.6026C173.169 56.6026 173.706 56.7418 174.183 57.0203C174.66 57.2987 175.038 57.7113 175.317 58.2582C175.595 58.8051 175.734 59.4795 175.734 60.2816C175.734 61.0804 175.592 61.7698 175.307 62.3498C175.025 62.9298 174.629 63.3773 174.118 63.6921C173.611 64.0037 173.016 64.1595 172.334 64.1595C171.651 64.1595 171.053 63.9987 170.539 63.6772C170.025 63.3524 169.626 62.8718 169.341 62.2355C169.056 61.5958 168.913 60.8053 168.913 59.864L168.913 59.0487C168.913 57.3484 169.202 56.0591 169.778 55.1808C170.358 54.3024 171.23 53.8484 172.393 53.8185C172.804 53.8053 173.171 53.802 173.492 53.8086C173.814 53.8152 174.094 53.8003 174.332 53.7639C174.571 53.7274 174.773 53.6396 174.939 53.5004ZM172.334 63.1055C172.794 63.1055 173.19 62.9895 173.522 62.7575C173.857 62.5255 174.113 62.199 174.292 61.7781C174.471 61.3538 174.561 60.855 174.561 60.2816C174.561 59.7248 174.47 59.2508 174.287 58.8597C174.108 58.4686 173.852 58.1703 173.517 57.9649C173.182 57.7594 172.781 57.6566 172.314 57.6566C171.972 57.6566 171.666 57.7146 171.394 57.8306C171.122 57.9466 170.89 58.1173 170.698 58.3427C170.506 58.5681 170.357 58.8432 170.251 59.168C170.148 59.4928 170.093 59.864 170.086 60.2816C170.086 61.1367 170.287 61.8212 170.688 62.3349C171.089 62.8486 171.638 63.1055 172.334 63.1055ZM177.529 66.864L177.529 56.364L178.662 56.364L178.662 57.5771L178.802 57.5771C178.888 57.4445 179.007 57.2755 179.16 57.07C179.315 56.8612 179.537 56.6756 179.826 56.5132C180.117 56.3474 180.512 56.2646 181.009 56.2646C181.652 56.2646 182.219 56.4253 182.709 56.7468C183.2 57.0683 183.583 57.524 183.858 58.114C184.133 58.704 184.27 59.4 184.27 60.2021C184.27 61.0108 184.133 61.7118 183.858 62.3051C183.583 62.895 183.202 63.3524 182.714 63.6772C182.227 63.9987 181.665 64.1595 181.029 64.1595C180.538 64.1595 180.146 64.0783 179.851 63.9158C179.556 63.7501 179.329 63.5629 179.17 63.3541C179.01 63.1419 178.888 62.9663 178.802 62.8271L178.702 62.8271L178.702 66.864L177.529 66.864ZM178.682 60.1822C178.682 60.7589 178.767 61.2676 178.936 61.7085C179.105 62.146 179.352 62.489 179.677 62.7376C180.001 62.9828 180.399 63.1055 180.87 63.1055C181.36 63.1055 181.77 62.9762 182.098 62.7177C182.429 62.4559 182.678 62.1045 182.844 61.6637C183.013 61.2196 183.097 60.7257 183.097 60.1822C183.097 59.6453 183.014 59.1614 182.849 58.7305C182.686 58.2963 182.439 57.9533 182.108 57.7014C181.78 57.4462 181.367 57.3185 180.87 57.3185C180.393 57.3185 179.992 57.4395 179.667 57.6815C179.342 57.9201 179.097 58.2549 178.931 58.6857C178.765 59.1133 178.682 59.6121 178.682 60.1822ZM187.233 62.2703L190.912 56.364L192.265 56.364L192.265 64.0004L191.091 64.0004L191.091 58.0941L187.432 64.0004L186.06 64.0004L186.06 56.364L187.233 56.364L187.233 62.2703ZM194.414 64.0004L194.414 56.364L195.587 56.364L195.587 59.685L196.363 59.685L199.107 56.364L200.618 56.364L197.536 60.043L200.658 64.0004L199.147 64.0004L196.641 60.7788L195.587 60.7788L195.587 64.0004L194.414 64.0004ZM204.18 64.1793C203.696 64.1793 203.257 64.0882 202.863 63.9059C202.469 63.7203 202.155 63.4535 201.923 63.1055C201.691 62.7542 201.575 62.3299 201.575 61.8328C201.575 61.3953 201.661 61.0406 201.834 60.7688C202.006 60.4937 202.237 60.2783 202.525 60.1225C202.813 59.9667 203.131 59.8507 203.479 59.7745C203.831 59.695 204.184 59.632 204.538 59.5856C205.002 59.5259 205.379 59.4812 205.667 59.4514C205.959 59.4182 206.171 59.3635 206.303 59.2873C206.439 59.2111 206.507 59.0785 206.507 58.8896L206.507 58.8498C206.507 58.3593 206.373 57.9781 206.104 57.7063C205.839 57.4346 205.437 57.2987 204.896 57.2987C204.336 57.2987 203.897 57.4213 203.579 57.6666C203.261 57.9118 203.037 58.1737 202.908 58.4521L201.794 58.0543C201.993 57.5903 202.258 57.2291 202.589 56.9705C202.924 56.7087 203.289 56.5264 203.683 56.4237C204.081 56.3176 204.472 56.2646 204.857 56.2646C205.102 56.2646 205.384 56.2944 205.702 56.3541C206.023 56.4104 206.333 56.5281 206.631 56.707C206.933 56.886 207.183 57.1561 207.382 57.5174C207.581 57.8787 207.68 58.3626 207.68 58.9691L207.68 64.0004L206.507 64.0004L206.507 62.9663L206.447 62.9663C206.368 63.132 206.235 63.3093 206.05 63.4982C205.864 63.6872 205.617 63.8479 205.309 63.9805C205.001 64.1131 204.625 64.1793 204.18 64.1793ZM204.359 63.1254C204.823 63.1254 205.214 63.0342 205.533 62.8519C205.854 62.6696 206.096 62.4343 206.259 62.146C206.424 61.8576 206.507 61.5543 206.507 61.2362L206.507 60.1623C206.457 60.222 206.348 60.2766 206.179 60.3264C206.013 60.3728 205.821 60.4142 205.602 60.4506C205.387 60.4838 205.176 60.5136 204.971 60.5401C204.769 60.5633 204.605 60.5832 204.479 60.5998C204.174 60.6396 203.889 60.7042 203.624 60.7937C203.362 60.8799 203.15 61.0108 202.987 61.1864C202.828 61.3588 202.749 61.5941 202.749 61.8924C202.749 62.3001 202.899 62.6083 203.201 62.8171C203.506 63.0226 203.892 63.1254 204.359 63.1254ZM208.783 57.4578L208.783 56.364L214.987 56.364L214.987 57.4578L212.482 57.4578L212.482 64.0004L211.308 64.0004L211.308 57.4578L208.783 57.4578ZM217.713 59.1282L219.901 59.1282C220.795 59.1282 221.48 59.3552 221.954 59.8093C222.428 60.2634 222.665 60.8384 222.665 61.5345C222.665 61.9918 222.559 62.4078 222.347 62.7823C222.134 63.1535 221.823 63.4502 221.412 63.6722C221.001 63.891 220.497 64.0004 219.901 64.0004L216.699 64.0004L216.699 56.364L217.872 56.364L217.872 62.9066L219.901 62.9066C220.365 62.9066 220.746 62.784 221.044 62.5387C221.342 62.2935 221.491 61.9786 221.491 61.5941C221.491 61.1898 221.342 60.86 221.044 60.6048C220.746 60.3496 220.365 60.222 219.901 60.222L217.713 60.222L217.713 59.1282ZM223.878 64.0004L223.878 56.364L225.051 56.364L225.051 64.0004L223.878 64.0004ZM32.0739 85.0004L32.0739 77.364L35.196 77.364C36.018 77.364 36.6709 77.5496 37.1548 77.9208C37.6387 78.292 37.8807 78.7826 37.8807 79.3924C37.8807 79.8564 37.7431 80.216 37.468 80.4712C37.1929 80.7231 36.84 80.8938 36.4091 80.9833C36.6908 81.0231 36.9643 81.1225 37.2294 81.2816C37.4979 81.4407 37.7199 81.6595 37.8956 81.9379C38.0713 82.213 38.1591 82.551 38.1591 82.9521C38.1591 83.3432 38.0597 83.6928 37.8608 84.0011C37.6619 84.3093 37.3769 84.5529 37.0057 84.7319C36.6345 84.9109 36.1903 85.0004 35.6733 85.0004L32.0739 85.0004ZM33.1875 83.9265L35.6733 83.9265C36.0777 83.9265 36.3942 83.8304 36.6229 83.6382C36.8516 83.4459 36.9659 83.1841 36.9659 82.8526C36.9659 82.4582 36.8516 82.1483 36.6229 81.923C36.3942 81.6943 36.0777 81.5799 35.6733 81.5799L33.1875 81.5799L33.1875 83.9265ZM33.1875 80.5657L35.196 80.5657C35.5109 80.5657 35.781 80.5226 36.0064 80.4364C36.2318 80.347 36.4041 80.221 36.5234 80.0586C36.6461 79.8929 36.7074 79.6973 36.7074 79.472C36.7074 79.1505 36.5732 78.8986 36.3047 78.7163C36.0362 78.5307 35.6667 78.4379 35.196 78.4379L33.1875 78.4379L33.1875 80.5657ZM44.7477 77.364L46.5772 80.4862L48.4068 77.364L49.7591 77.364L47.2931 81.1822L49.7591 85.0004L48.4068 85.0004L46.5772 82.0373L44.7477 85.0004L43.3954 85.0004L45.8216 81.1822L43.3954 77.364L44.7477 77.364ZM54.2211 85.1595C53.5317 85.1595 52.9268 84.9954 52.4064 84.6673C51.8894 84.3391 51.485 83.8801 51.1934 83.2901C50.905 82.7002 50.7608 82.0108 50.7608 81.222C50.7608 80.4265 50.905 79.7321 51.1934 79.1389C51.485 78.5456 51.8894 78.0849 52.4064 77.7568C52.9268 77.4286 53.5317 77.2646 54.2211 77.2646C54.9105 77.2646 55.5137 77.4286 56.0307 77.7568C56.5511 78.0849 56.9554 78.5456 57.2438 79.1389C57.5355 79.7321 57.6813 80.4265 57.6813 81.222C57.6813 82.0108 57.5355 82.7002 57.2438 83.2901C56.9554 83.8801 56.5511 84.3391 56.0307 84.6673C55.5137 84.9954 54.9105 85.1595 54.2211 85.1595ZM54.2211 84.1055C54.7447 84.1055 55.1756 83.9712 55.5137 83.7028C55.8517 83.4343 56.102 83.0813 56.2644 82.6438C56.4268 82.2063 56.508 81.7324 56.508 81.222C56.508 80.7115 56.4268 80.2359 56.2644 79.7951C56.102 79.3543 55.8517 78.998 55.5137 78.7262C55.1756 78.4544 54.7447 78.3185 54.2211 78.3185C53.6974 78.3185 53.2665 78.4544 52.9284 78.7262C52.5904 78.998 52.3401 79.3543 52.1777 79.7951C52.0153 80.2359 51.9341 80.7115 51.9341 81.222C51.9341 81.7324 52.0153 82.2063 52.1777 82.6438C52.3401 83.0813 52.5904 83.4343 52.9284 83.7028C53.2665 83.9712 53.6974 84.1055 54.2211 84.1055ZM58.7962 85.0004L58.7962 83.9066L59.0746 83.9066C59.3033 83.9066 59.4938 83.8619 59.6463 83.7724C59.7988 83.6796 59.9214 83.5188 60.0142 83.2901C60.1103 83.0581 60.1832 82.7366 60.233 82.3257C60.286 81.9114 60.3241 81.3844 60.3473 80.7447L60.4865 77.364L65.5774 77.364L65.5774 85.0004L64.4041 85.0004L64.4041 78.4578L61.6001 78.4578L61.4808 81.1822C61.4543 81.8086 61.398 82.3605 61.3118 82.8377C61.2289 83.3117 61.1013 83.7094 60.929 84.0309C60.7599 84.3524 60.5346 84.5944 60.2528 84.7568C59.9711 84.9192 59.6181 85.0004 59.1939 85.0004L58.7962 85.0004ZM70.8324 85.1595C70.143 85.1595 69.5381 84.9954 69.0178 84.6673C68.5007 84.3391 68.0964 83.8801 67.8047 83.2901C67.5163 82.7002 67.3722 82.0108 67.3722 81.222C67.3722 80.4265 67.5163 79.7321 67.8047 79.1389C68.0964 78.5456 68.5007 78.0849 69.0178 77.7568C69.5381 77.4286 70.143 77.2646 70.8324 77.2646C71.5218 77.2646 72.125 77.4286 72.642 77.7568C73.1624 78.0849 73.5668 78.5456 73.8551 79.1389C74.1468 79.7321 74.2926 80.4265 74.2926 81.222C74.2926 82.0108 74.1468 82.7002 73.8551 83.2901C73.5668 83.8801 73.1624 84.3391 72.642 84.6673C72.125 84.9954 71.5218 85.1595 70.8324 85.1595ZM70.8324 84.1055C71.3561 84.1055 71.7869 83.9712 72.125 83.7028C72.4631 83.4343 72.7133 83.0813 72.8757 82.6438C73.0381 82.2063 73.1193 81.7324 73.1193 81.222C73.1193 80.7115 73.0381 80.2359 72.8757 79.7951C72.7133 79.3543 72.4631 78.998 72.125 78.7262C71.7869 78.4544 71.3561 78.3185 70.8324 78.3185C70.3087 78.3185 69.8778 78.4544 69.5398 78.7262C69.2017 78.998 68.9515 79.3543 68.7891 79.7951C68.6267 80.2359 68.5455 80.7115 68.5455 81.222C68.5455 81.7324 68.6267 82.2063 68.7891 82.6438C68.9515 83.0813 69.2017 83.4343 69.5398 83.7028C69.8778 83.9712 70.3087 84.1055 70.8324 84.1055ZM75.2683 87.1879L75.2683 83.9066L75.9047 83.9066C76.0604 83.7442 76.1947 83.5685 76.3074 83.3796C76.42 83.1907 76.5178 82.967 76.6007 82.7085C76.6868 82.4466 76.7598 82.1284 76.8194 81.7539C76.8791 81.3761 76.9321 80.9203 76.9785 80.3867L77.237 77.364L82.0893 77.364L82.0893 83.9066L83.2626 83.9066L83.2626 87.1879L82.0893 87.1879L82.0893 85.0004L76.4416 85.0004L76.4416 87.1879L75.2683 87.1879ZM77.237 83.9066L80.916 83.9066L80.916 78.4578L78.3308 78.4578L78.1319 80.3867C78.0491 81.1855 77.9463 81.8832 77.8237 82.4798C77.7011 83.0764 77.5055 83.552 77.237 83.9066ZM85.9933 83.2703L89.6722 77.364L91.0245 77.364L91.0245 85.0004L89.8512 85.0004L89.8512 79.0941L86.1921 85.0004L84.82 85.0004L84.82 77.364L85.9933 77.364L85.9933 83.2703ZM92.4973 85.0004L92.4973 83.9066L92.7757 83.9066C93.0044 83.9066 93.195 83.8619 93.3475 83.7724C93.4999 83.6796 93.6226 83.5188 93.7154 83.2901C93.8115 83.0581 93.8844 82.7366 93.9341 82.3257C93.9872 81.9114 94.0253 81.3844 94.0485 80.7447L94.1877 77.364L99.2786 77.364L99.2786 85.0004L98.1053 85.0004L98.1053 78.4578L95.3013 78.4578L95.182 81.1822C95.1555 81.8086 95.0991 82.3605 95.013 82.8377C94.9301 83.3117 94.8025 83.7094 94.6301 84.0309C94.4611 84.3524 94.2357 84.5944 93.954 84.7568C93.6723 84.9192 93.3193 85.0004 92.8951 85.0004L92.4973 85.0004ZM102.445 80.1282L104.633 80.1282C105.528 80.1282 106.212 80.3552 106.686 80.8093C107.16 81.2634 107.397 81.8384 107.397 82.5345C107.397 82.9918 107.291 83.4078 107.079 83.7823C106.867 84.1535 106.555 84.4502 106.144 84.6722C105.733 84.891 105.23 85.0004 104.633 85.0004L101.431 85.0004L101.431 77.364L102.605 77.364L102.605 83.9066L104.633 83.9066C105.097 83.9066 105.478 83.784 105.776 83.5387C106.075 83.2935 106.224 82.9786 106.224 82.5941C106.224 82.1898 106.075 81.86 105.776 81.6048C105.478 81.3496 105.097 81.222 104.633 81.222L102.445 81.222L102.445 80.1282ZM114.294 80.6453L114.294 81.739L110.078 81.739L110.078 80.6453L114.294 80.6453ZM110.357 77.364L110.357 85.0004L109.183 85.0004L109.183 77.364L110.357 77.364ZM115.189 77.364L115.189 85.0004L114.016 85.0004L114.016 77.364L115.189 77.364ZM118.505 83.2703L122.184 77.364L123.536 77.364L123.536 85.0004L122.363 85.0004L122.363 79.0941L118.704 85.0004L117.332 85.0004L117.332 77.364L118.505 77.364L118.505 83.2703ZM125.685 85.0004L125.685 77.364L126.858 77.364L126.858 80.685L127.634 80.685L130.378 77.364L131.89 77.364L128.807 81.043L131.93 85.0004L130.418 85.0004L127.912 81.7788L126.858 81.7788L126.858 85.0004L125.685 85.0004ZM138.316 83.2703L141.994 77.364L143.347 77.364L143.347 85.0004L142.173 85.0004L142.173 79.0941L138.514 85.0004L137.142 85.0004L137.142 77.364L138.316 77.364L138.316 83.2703ZM144.82 85.0004L144.82 83.9066L145.098 83.9066C145.327 83.9066 145.517 83.8619 145.67 83.7724C145.822 83.6796 145.945 83.5188 146.038 83.2901C146.134 83.0581 146.207 82.7366 146.256 82.3257C146.309 81.9114 146.348 81.3844 146.371 80.7447L146.51 77.364L151.601 77.364L151.601 85.0004L150.428 85.0004L150.428 78.4578L147.624 78.4578L147.504 81.1822C147.478 81.8086 147.421 82.3605 147.335 82.8377C147.252 83.3117 147.125 83.7094 146.952 84.0309C146.783 84.3524 146.558 84.5944 146.276 84.7568C145.995 84.9192 145.642 85.0004 145.217 85.0004L144.82 85.0004ZM154.927 83.2703L158.606 77.364L159.958 77.364L159.958 85.0004L158.785 85.0004L158.785 79.0941L155.126 85.0004L153.754 85.0004L153.754 77.364L154.927 77.364L154.927 83.2703ZM36.25 104.409L38.9148 98.364L40.0284 98.364L36.7273 106L35.7727 106L32.5313 98.364L33.625 98.364L36.25 104.409ZM33.2472 98.364L33.2472 106L32.0739 106L32.0739 98.364L33.2472 98.364ZM39.2528 106L39.2528 98.364L40.4261 98.364L40.4261 106L39.2528 106ZM45.6761 106.159C44.9867 106.159 44.3819 105.995 43.8615 105.667C43.3445 105.339 42.9401 104.88 42.6484 104.29C42.3601 103.7 42.2159 103.011 42.2159 102.222C42.2159 101.427 42.3601 100.732 42.6484 100.139C42.9401 99.5456 43.3445 99.0849 43.8615 98.7568C44.3819 98.4286 44.9867 98.2646 45.6761 98.2646C46.3655 98.2646 46.9688 98.4286 47.4858 98.7568C48.0062 99.0849 48.4105 99.5456 48.6989 100.139C48.9905 100.732 49.1364 101.427 49.1364 102.222C49.1364 103.011 48.9905 103.7 48.6989 104.29C48.4105 104.88 48.0062 105.339 47.4858 105.667C46.9688 105.995 46.3655 106.159 45.6761 106.159ZM45.6761 105.105C46.1998 105.105 46.6307 104.971 46.9688 104.703C47.3068 104.434 47.5571 104.081 47.7195 103.644C47.8819 103.206 47.9631 102.732 47.9631 102.222C47.9631 101.712 47.8819 101.236 47.7195 100.795C47.5571 100.354 47.3068 99.998 46.9688 99.7262C46.6307 99.4544 46.1998 99.3185 45.6761 99.3185C45.1525 99.3185 44.7216 99.4544 44.3835 99.7262C44.0455 99.998 43.7952 100.354 43.6328 100.795C43.4704 101.236 43.3892 101.712 43.3892 102.222C43.3892 102.732 43.4704 103.206 43.6328 103.644C43.7952 104.081 44.0455 104.434 44.3835 104.703C44.7216 104.971 45.1525 105.105 45.6761 105.105ZM50.9274 108.864L50.9274 98.364L52.0609 98.364L52.0609 99.5771L52.2001 99.5771C52.2863 99.4445 52.4056 99.2755 52.5581 99.07C52.7138 98.8612 52.9359 98.6756 53.2243 98.5132C53.5159 98.3474 53.9103 98.2646 54.4075 98.2646C55.0505 98.2646 55.6172 98.4253 56.1078 98.7468C56.5983 99.0683 56.9811 99.524 57.2562 100.114C57.5313 100.704 57.6689 101.4 57.6689 102.202C57.6689 103.011 57.5313 103.712 57.2562 104.305C56.9811 104.895 56.6 105.352 56.1127 105.677C55.6255 105.999 55.0637 106.159 54.4274 106.159C53.9368 106.159 53.5441 106.078 53.2491 105.916C52.9541 105.75 52.7271 105.563 52.568 105.354C52.4089 105.142 52.2863 104.966 52.2001 104.827L52.1007 104.827L52.1007 108.864L50.9274 108.864ZM52.0808 102.182C52.0808 102.759 52.1653 103.268 52.3343 103.708C52.5034 104.146 52.7503 104.489 53.0751 104.738C53.3999 104.983 53.7976 105.105 54.2683 105.105C54.7588 105.105 55.1681 104.976 55.4963 104.718C55.8277 104.456 56.0763 104.105 56.242 103.664C56.411 103.22 56.4956 102.726 56.4956 102.182C56.4956 101.645 56.4127 101.161 56.247 100.73C56.0846 100.296 55.8377 99.9533 55.5062 99.7014C55.1781 99.4462 54.7654 99.3185 54.2683 99.3185C53.791 99.3185 53.39 99.4395 53.0652 99.6815C52.7404 99.9201 52.4951 100.255 52.3294 100.686C52.1636 101.113 52.0808 101.612 52.0808 102.182ZM62.5609 106.159C61.8715 106.159 61.2666 105.995 60.7463 105.667C60.2292 105.339 59.8249 104.88 59.5332 104.29C59.2449 103.7 59.1007 103.011 59.1007 102.222C59.1007 101.427 59.2449 100.732 59.5332 100.139C59.8249 99.5456 60.2292 99.0849 60.7463 98.7568C61.2666 98.4286 61.8715 98.2646 62.5609 98.2646C63.2503 98.2646 63.8535 98.4286 64.3706 98.7568C64.8909 99.0849 65.2953 99.5456 65.5836 100.139C65.8753 100.732 66.0211 101.427 66.0211 102.222C66.0211 103.011 65.8753 103.7 65.5836 104.29C65.2953 104.88 64.8909 105.339 64.3706 105.667C63.8535 105.995 63.2503 106.159 62.5609 106.159ZM62.5609 105.105C63.0846 105.105 63.5154 104.971 63.8535 104.703C64.1916 104.434 64.4418 104.081 64.6042 103.644C64.7666 103.206 64.8478 102.732 64.8478 102.222C64.8478 101.712 64.7666 101.236 64.6042 100.795C64.4418 100.354 64.1916 99.998 63.8535 99.7262C63.5154 99.4544 63.0846 99.3185 62.5609 99.3185C62.0372 99.3185 61.6064 99.4544 61.2683 99.7262C60.9302 99.998 60.68 100.354 60.5176 100.795C60.3552 101.236 60.274 101.712 60.274 102.222C60.274 102.732 60.3552 103.206 60.5176 103.644C60.68 104.081 60.9302 104.434 61.2683 104.703C61.6064 104.971 62.0372 105.105 62.5609 105.105ZM67.3349 104.052L68.5877 104.052C68.6142 104.396 68.77 104.658 69.055 104.837C69.3434 105.016 69.7179 105.105 70.1786 105.105C70.6493 105.105 71.052 105.009 71.3867 104.817C71.7215 104.622 71.8888 104.307 71.8888 103.873C71.8888 103.617 71.8259 103.395 71.6999 103.206C71.574 103.014 71.3967 102.865 71.168 102.759C70.9393 102.653 70.6692 102.6 70.3576 102.6L69.0451 102.6L69.0451 101.546L70.3576 101.546C70.8249 101.546 71.1696 101.44 71.3917 101.228C71.6171 101.016 71.7298 100.75 71.7298 100.432C71.7298 100.091 71.6088 99.8174 71.3668 99.6119C71.1249 99.4031 70.7818 99.2987 70.3377 99.2987C69.8903 99.2987 69.5174 99.3998 69.2191 99.6019C68.9208 99.8008 68.7634 100.058 68.7468 100.373L67.5138 100.373C67.5271 99.9615 67.6531 99.5986 67.8917 99.2837C68.1303 98.9656 68.4551 98.717 68.8661 98.538C69.2771 98.3557 69.7478 98.2646 70.2781 98.2646C70.815 98.2646 71.2807 98.359 71.6751 98.548C72.0728 98.7336 72.3794 98.9871 72.5948 99.3086C72.8136 99.6268 72.9229 99.9881 72.9229 100.392C72.9229 100.823 72.802 101.171 72.56 101.436C72.3181 101.702 72.0148 101.891 71.6502 102.003L71.6502 102.083C71.9386 102.103 72.1888 102.195 72.4009 102.361C72.6164 102.524 72.7837 102.737 72.9031 103.002C73.0224 103.264 73.082 103.554 73.082 103.873C73.082 104.337 72.9577 104.741 72.7092 105.086C72.4606 105.427 72.1192 105.692 71.685 105.881C71.2508 106.067 70.7553 106.159 70.1985 106.159C69.6583 106.159 69.1744 106.072 68.7468 105.896C68.3192 105.717 67.9795 105.47 67.7276 105.155C67.479 104.837 67.3481 104.469 67.3349 104.052ZM75.9034 104.27L79.5824 98.364L80.9347 98.364L80.9347 106L79.7614 106L79.7614 100.094L76.1023 106L74.7301 106L74.7301 98.364L75.9034 98.364L75.9034 104.27ZM82.4075 106L82.4075 104.907L82.6859 104.907C82.9146 104.907 83.1052 104.862 83.2576 104.772C83.4101 104.68 83.5327 104.519 83.6255 104.29C83.7217 104.058 83.7946 103.737 83.8443 103.326C83.8973 102.911 83.9354 102.384 83.9586 101.745L84.0978 98.364L89.1887 98.364L89.1887 106L88.0154 106L88.0154 99.4578L85.2115 99.4578L85.0922 102.182C85.0656 102.809 85.0093 103.36 84.9231 103.838C84.8403 104.312 84.7127 104.709 84.5403 105.031C84.3713 105.352 84.1459 105.594 83.8642 105.757C83.5824 105.919 83.2295 106 82.8052 106L82.4075 106ZM92.3556 101.128L94.5431 101.128C95.438 101.128 96.1225 101.355 96.5964 101.809C97.0704 102.263 97.3074 102.838 97.3074 103.534C97.3074 103.992 97.2013 104.408 96.9892 104.782C96.777 105.154 96.4655 105.45 96.0545 105.672C95.6435 105.891 95.1397 106 94.5431 106L91.3414 106L91.3414 98.364L92.5147 98.364L92.5147 104.907L94.5431 104.907C95.0072 104.907 95.3883 104.784 95.6866 104.539C95.9849 104.293 96.1341 103.979 96.1341 103.594C96.1341 103.19 95.9849 102.86 95.6866 102.605C95.3883 102.35 95.0072 102.222 94.5431 102.222L92.3556 102.222L92.3556 101.128ZM104.204 101.645L104.204 102.739L99.9883 102.739L99.9883 101.645L104.204 101.645ZM100.267 98.364L100.267 106L99.0934 106L99.0934 98.364L100.267 98.364ZM105.099 98.364L105.099 106L103.926 106L103.926 98.364L105.099 98.364ZM107.724 108.864C107.525 108.864 107.348 108.847 107.192 108.814C107.036 108.784 106.929 108.755 106.869 108.725L107.167 107.691C107.452 107.764 107.704 107.79 107.923 107.77C108.142 107.75 108.336 107.653 108.505 107.477C108.677 107.305 108.834 107.025 108.977 106.637L109.196 106.04L106.372 98.364L107.645 98.364L109.752 104.449L109.832 104.449L111.94 98.364L113.213 98.364L109.971 107.114C109.825 107.508 109.645 107.835 109.429 108.093C109.214 108.355 108.964 108.549 108.679 108.675C108.397 108.801 108.079 108.864 107.724 108.864ZM118.42 101.705L118.42 102.799L114.384 102.799L114.384 101.705L118.42 101.705ZM115.378 98.364L115.378 106L114.205 106L114.205 98.364L115.378 98.364ZM120.767 106.159C120.078 106.159 119.473 105.995 118.952 105.667C118.435 105.339 118.031 104.88 117.739 104.29C117.451 103.7 117.307 103.011 117.307 102.222C117.307 101.427 117.451 100.732 117.739 100.139C118.031 99.5456 118.435 99.0849 118.952 98.7568C119.473 98.4286 120.078 98.2646 120.767 98.2646C121.456 98.2646 122.06 98.4286 122.577 98.7568C123.097 99.0849 123.501 99.5456 123.79 100.139C124.081 100.732 124.227 101.427 124.227 102.222C124.227 103.011 124.081 103.7 123.79 104.29C123.501 104.88 123.097 105.339 122.577 105.667C122.06 105.995 121.456 106.159 120.767 106.159ZM120.767 105.105C121.291 105.105 121.722 104.971 122.06 104.703C122.398 104.434 122.648 104.081 122.81 103.644C122.973 103.206 123.054 102.732 123.054 102.222C123.054 101.712 122.973 101.236 122.81 100.795C122.648 100.354 122.398 99.998 122.06 99.7262C121.722 99.4544 121.291 99.3185 120.767 99.3185C120.243 99.3185 119.813 99.4544 119.474 99.7262C119.136 99.998 118.886 100.354 118.724 100.795C118.561 101.236 118.48 101.712 118.48 102.222C118.48 102.732 118.561 103.206 118.724 103.644C118.886 104.081 119.136 104.434 119.474 104.703C119.813 104.971 120.243 105.105 120.767 105.105ZM130.074 106L130.074 98.364L131.247 98.364L131.247 101.685L132.023 101.685L134.767 98.364L136.278 98.364L133.196 102.043L136.318 106L134.807 106L132.301 102.779L131.247 102.779L131.247 106L130.074 106ZM139.841 106.179C139.357 106.179 138.917 106.088 138.523 105.906C138.129 105.72 137.815 105.453 137.583 105.105C137.351 104.754 137.235 104.33 137.235 103.833C137.235 103.395 137.322 103.041 137.494 102.769C137.666 102.494 137.897 102.278 138.185 102.123C138.473 101.967 138.792 101.851 139.14 101.775C139.491 101.695 139.844 101.632 140.199 101.586C140.663 101.526 141.039 101.481 141.327 101.451C141.619 101.418 141.831 101.364 141.963 101.287C142.099 101.211 142.167 101.078 142.167 100.89L142.167 100.85C142.167 100.359 142.033 99.9781 141.765 99.7063C141.499 99.4346 141.097 99.2987 140.556 99.2987C139.996 99.2987 139.557 99.4213 139.239 99.6666C138.921 99.9118 138.697 100.174 138.568 100.452L137.454 100.054C137.653 99.5903 137.918 99.2291 138.25 98.9705C138.584 98.7087 138.949 98.5264 139.343 98.4237C139.741 98.3176 140.132 98.2646 140.517 98.2646C140.762 98.2646 141.044 98.2944 141.362 98.3541C141.683 98.4104 141.993 98.5281 142.292 98.707C142.593 98.886 142.843 99.1561 143.042 99.5174C143.241 99.8787 143.341 100.363 143.341 100.969L143.341 106L142.167 106L142.167 104.966L142.108 104.966C142.028 105.132 141.895 105.309 141.71 105.498C141.524 105.687 141.277 105.848 140.969 105.98C140.661 106.113 140.285 106.179 139.841 106.179ZM140.02 105.125C140.484 105.125 140.875 105.034 141.193 104.852C141.514 104.67 141.756 104.434 141.919 104.146C142.084 103.858 142.167 103.554 142.167 103.236L142.167 102.162C142.118 102.222 142.008 102.277 141.839 102.326C141.673 102.373 141.481 102.414 141.262 102.451C141.047 102.484 140.837 102.514 140.631 102.54C140.429 102.563 140.265 102.583 140.139 102.6C139.834 102.64 139.549 102.704 139.284 102.794C139.022 102.88 138.81 103.011 138.647 103.186C138.488 103.359 138.409 103.594 138.409 103.892C138.409 104.3 138.56 104.608 138.861 104.817C139.166 105.023 139.552 105.125 140.02 105.125ZM149.658 104.409L152.323 98.364L153.437 98.364L150.135 106L149.181 106L145.939 98.364L147.033 98.364L149.658 104.409ZM146.655 98.364L146.655 106L145.482 106L145.482 98.364L146.655 98.364ZM152.661 106L152.661 98.364L153.834 98.364L153.834 106L152.661 106ZM159.184 106.159C158.448 106.159 157.813 105.997 157.28 105.672C156.749 105.344 156.34 104.887 156.052 104.3C155.767 103.71 155.624 103.024 155.624 102.242C155.624 101.46 155.767 100.77 156.052 100.174C156.34 99.5738 156.741 99.1064 157.255 98.7717C157.772 98.4336 158.375 98.2646 159.064 98.2646C159.462 98.2646 159.855 98.3309 160.243 98.4634C160.631 98.596 160.983 98.8114 161.302 99.1097C161.62 99.4047 161.873 99.7958 162.062 100.283C162.251 100.77 162.346 101.37 162.346 102.083L162.346 102.58L156.459 102.58L156.459 101.566L161.153 101.566C161.153 101.135 161.066 100.75 160.894 100.412C160.725 100.074 160.483 99.8074 160.168 99.6119C159.857 99.4163 159.489 99.3185 159.064 99.3185C158.597 99.3185 158.193 99.4346 157.851 99.6666C157.513 99.8953 157.253 100.194 157.071 100.561C156.889 100.929 156.797 101.324 156.797 101.745L156.797 102.421C156.797 102.998 156.897 103.486 157.096 103.887C157.298 104.285 157.578 104.588 157.936 104.797C158.294 105.003 158.71 105.105 159.184 105.105C159.492 105.105 159.77 105.062 160.019 104.976C160.271 104.887 160.488 104.754 160.67 104.578C160.853 104.4 160.993 104.177 161.093 103.912L162.226 104.23C162.107 104.615 161.907 104.953 161.625 105.245C161.343 105.533 160.995 105.758 160.581 105.921C160.166 106.08 159.701 106.159 159.184 106.159ZM164.131 108.864L164.131 98.364L165.264 98.364L165.264 99.5771L165.403 99.5771C165.489 99.4445 165.609 99.2755 165.761 99.07C165.917 98.8612 166.139 98.6756 166.427 98.5132C166.719 98.3474 167.113 98.2646 167.611 98.2646C168.254 98.2646 168.82 98.4253 169.311 98.7468C169.801 99.0683 170.184 99.524 170.459 100.114C170.734 100.704 170.872 101.4 170.872 102.202C170.872 103.011 170.734 103.712 170.459 104.305C170.184 104.895 169.803 105.352 169.316 105.677C168.829 105.999 168.267 106.159 167.631 106.159C167.14 106.159 166.747 106.078 166.452 105.916C166.157 105.75 165.93 105.563 165.771 105.354C165.612 105.142 165.489 104.966 165.403 104.827L165.304 104.827L165.304 108.864L164.131 108.864ZM165.284 102.182C165.284 102.759 165.368 103.268 165.537 103.708C165.706 104.146 165.953 104.489 166.278 104.738C166.603 104.983 167.001 105.105 167.471 105.105C167.962 105.105 168.371 104.976 168.699 104.718C169.031 104.456 169.279 104.105 169.445 103.664C169.614 103.22 169.699 102.726 169.699 102.182C169.699 101.645 169.616 101.161 169.45 100.73C169.288 100.296 169.041 99.9533 168.709 99.7014C168.381 99.4462 167.969 99.3185 167.471 99.3185C166.994 99.3185 166.593 99.4395 166.268 99.6815C165.943 99.9201 165.698 100.255 165.532 100.686C165.367 101.113 165.284 101.612 165.284 102.182ZM173.144 108.864C172.945 108.864 172.768 108.847 172.612 108.814C172.456 108.784 172.349 108.755 172.289 108.725L172.587 107.691C172.872 107.764 173.124 107.79 173.343 107.77C173.562 107.75 173.756 107.653 173.925 107.477C174.097 107.305 174.254 107.025 174.397 106.637L174.616 106.04L171.792 98.364L173.064 98.364L175.172 104.449L175.252 104.449L177.36 98.364L178.633 98.364L175.391 107.114C175.245 107.508 175.065 107.835 174.849 108.093C174.634 108.355 174.384 108.549 174.099 108.675C173.817 108.801 173.499 108.864 173.144 108.864Z" fill="white"/>
<defs>
<linearGradient id="paint0_linear_821_2669" x1="0.25798" y1="70.5993" x2="255.656" y2="70.6455" gradientUnits="userSpaceOnUse">
<stop stop-color="#8451DA"/>
<stop offset="0.815" stop-color="#462B74"/>
</linearGradient>
</defs>
</svg>
