<svg width="23" height="22" viewBox="0 0 23 22" fill="none" xmlns="http://www.w3.org/2000/svg">
<path d="M12.7763 2.55274C12.7763 1.44817 13.6717 0.552734 14.7763 0.552734H19.7237C20.8282 0.552734 21.7237 1.44816 21.7237 2.55273V7.5001C21.7237 8.60467 20.8282 9.5001 19.7237 9.5001H14.7763C13.6717 9.5001 12.7763 8.60467 12.7763 7.5001V2.55274Z" fill="white"/>
<path d="M9.77631 2.55274C9.77631 1.44817 8.88088 0.552734 7.77631 0.552734H2.82894C1.72437 0.552734 0.828938 1.44816 0.828938 2.55273V7.5001C0.828938 8.60467 1.72437 9.5001 2.82894 9.5001H7.77631C8.88087 9.5001 9.77631 8.60467 9.77631 7.5001V2.55274Z" fill="white"/>
<path d="M13.2237 19.4475C13.2237 20.5521 14.1191 21.4475 15.2237 21.4475H20.171C21.2756 21.4475 22.171 20.5521 22.171 19.4475V14.5001C22.171 13.3956 21.2756 12.5001 20.171 12.5001H15.2237C14.1191 12.5001 13.2237 13.3956 13.2237 14.5001V19.4475Z" fill="white"/>
<path d="M10.2237 19.4475C10.2237 20.5521 9.32823 21.4475 8.22366 21.4475H3.2763C2.17173 21.4475 1.27629 20.5521 1.27629 19.4475V14.5001C1.27629 13.3956 2.17173 12.5001 3.27629 12.5001H8.22366C9.32823 12.5001 10.2237 13.3956 10.2237 14.5001V19.4475Z" fill="white"/>
</svg>
