<svg width="355" height="114" viewBox="0 0 355 114" fill="none" xmlns="http://www.w3.org/2000/svg">
<path d="M1.52969 74.4875C1.69613 70.1885 -0.0393437 68.3991 1.86257 65.8895C2.76074 63.3415 9.97178 66.2035 12.808 62.8685C15.6443 59.5335 8.47299 37.6232 6.00293 31.5C3.53287 25.3768 -6.24321 6.5847 34.5026 2.9957C75.2485 -0.593294 331.029 1.13596 334.567 2.99508C338.104 4.8542 337.976 22.5563 337.876 25.1357C337.776 27.715 345.359 25.7574 348.897 27.6165C352.435 29.4757 352.833 43.2669 353.564 52.5713C354.316 62.1386 355.207 105.565 351.503 108.005C347.799 110.445 254.421 106.254 204.938 108.005C152.756 109.851 92.091 110.759 57.0029 112C45.73 112.399 15.7384 114.789 14.0029 113C12.2675 111.211 1.36326 78.7864 1.52969 74.4875Z" fill="#E94C28"/>
</svg>
