<svg width="189" height="47" viewBox="0 0 189 47" fill="none" xmlns="http://www.w3.org/2000/svg">
<path fill-rule="evenodd" clip-rule="evenodd" d="M46.73 23.3402C46.7327 27.4465 45.6343 31.4784 43.549 35.0158C43.549 35.0158 35.525 37.8453 23.6946 37.8453C11.8642 37.8453 3.8373 35.0158 3.8373 35.0158C2.04153 31.9633 0.973764 28.5379 0.716957 25.0058C0.46015 21.4736 1.02122 17.9298 2.35658 14.6497C3.69193 11.3696 5.76561 8.44157 8.41646 6.09313C11.0673 3.7447 14.224 2.0391 17.6411 1.10888C21.0582 0.17866 24.6439 0.0488603 28.1193 0.729577C31.5948 1.41029 34.8665 2.88319 37.6802 5.03382C40.4939 7.18444 42.7739 9.95487 44.3429 13.1298C45.9119 16.3048 46.7277 19.7988 46.727 23.3402H46.73Z" fill="#FF6A00"/>
<path fill-rule="evenodd" clip-rule="evenodd" d="M34.011 25.931C34.0114 25.8472 33.9952 25.7641 33.9633 25.6866C33.9314 25.6091 33.8845 25.5387 33.8252 25.4794C33.7659 25.4202 33.6955 25.3732 33.618 25.3413C33.5405 25.3094 33.4574 25.2932 33.3736 25.2936H32.1227V9.65077C32.1226 9.56714 32.106 9.48435 32.0738 9.40717C32.0416 9.32998 31.9944 9.25993 31.935 9.20103C31.8763 9.14139 31.8063 9.09406 31.7291 9.06184C31.6519 9.02962 31.569 9.01315 31.4853 9.01339H18.8924C18.6083 9.00478 18.3245 9.03687 18.0495 9.10869C17.8172 9.16487 17.6087 9.29311 17.4538 9.47505C17.2932 9.70015 17.2144 9.97339 17.2304 10.2494V11.9353C17.2304 12.4972 17.2225 13.1107 17.2066 13.7759C17.1857 14.4342 17.147 17.7313 17.0815 18.4223C17.016 19.1133 16.9266 19.7924 16.8045 20.4685C16.6879 21.1206 16.5216 21.7629 16.3071 22.3896C16.1095 22.9723 15.8467 23.5309 15.5238 24.0546C15.2921 24.4303 15.0083 24.7713 14.6809 25.0672C14.5273 25.2028 14.3382 25.2917 14.1358 25.3234C13.9619 25.3503 13.7955 25.4132 13.6473 25.5081C13.4537 25.6332 13.3495 25.9072 13.3495 26.3242V31.9475C13.3503 32.1163 13.4177 32.2779 13.537 32.3973C13.6564 32.5167 13.8181 32.5841 13.9869 32.5849H17.7248C17.8945 32.5838 18.057 32.5165 18.1776 32.3972C18.2364 32.3381 18.283 32.2679 18.3147 32.1907C18.3464 32.1136 18.3625 32.0309 18.3622 31.9475V29.3562H28.9447V31.9475C28.9454 32.1163 29.0129 32.2779 29.1322 32.3973C29.2516 32.5167 29.4132 32.5841 29.582 32.5849H33.3557C33.5246 32.5841 33.6862 32.5167 33.8056 32.3973C33.9249 32.2779 33.9924 32.1163 33.9931 31.9475V25.931H34.011ZM27.107 25.2936H19.9944C20.3926 24.7055 20.7026 24.0623 20.9148 23.3844C21.1591 22.6384 21.3502 21.876 21.4866 21.1029C21.6236 20.3226 21.7249 19.5601 21.7845 18.8125C21.844 18.0649 21.8708 14.7916 21.8708 14.2376V13.1177H27.1099L27.107 25.2936Z" fill="white"/>
<path fill-rule="evenodd" clip-rule="evenodd" d="M4.88672 36.6339C7.01162 39.6436 9.82811 42.0991 13.0994 43.7939C16.3706 45.4887 20.001 46.3734 23.6852 46.3734C27.3694 46.3734 30.9998 45.4887 34.2711 43.7939C37.5423 42.0991 40.3588 39.6436 42.4837 36.6339C42.4837 36.6339 33.1701 39.8387 23.6837 39.8387C14.1974 39.8387 4.88672 36.6339 4.88672 36.6339Z" fill="#74AF0D"/>
<path fill-rule="evenodd" clip-rule="evenodd" d="M23.6892 39.8375C33.1786 39.8375 42.4892 36.6476 42.4892 36.6476C42.4892 36.6476 34.5904 43.0304 23.5522 43.0304C12.5141 43.0304 4.88629 36.6476 4.88629 36.6476C4.88629 36.6476 14.1999 39.8375 23.6892 39.8375Z" fill="#94CC00"/>
<path fill-rule="evenodd" clip-rule="evenodd" d="M79.9649 29.4841H70.7044C71.2214 28.717 71.6246 27.879 71.9012 26.9963C72.2179 26.0248 72.4674 25.0327 72.6479 24.0269C72.8258 23.008 72.9514 22.0136 73.0317 21.0436C73.112 20.0736 73.1434 15.8097 73.1434 15.0839V13.6149H79.9719V29.4841H79.9649ZM88.1263 29.4841H86.4898V9.08931C86.4906 8.98031 86.4692 8.87229 86.427 8.77178C86.3436 8.56857 86.183 8.40673 85.9804 8.32167C85.8797 8.28011 85.7718 8.25876 85.6629 8.25886H70.5648C70.0995 8.25886 69.6669 8.25886 69.2668 8.25886C68.895 8.24461 68.5232 8.28697 68.1642 8.38448C67.865 8.45894 67.5959 8.62335 67.393 8.85553C67.1828 9.16217 67.0843 9.53171 67.1139 9.90231V12.0936C67.1139 12.8333 67.1139 13.6323 67.079 14.4872C67.0441 15.3421 67.0022 19.6409 66.9185 20.5341C66.8347 21.4274 66.7161 22.3276 66.5696 23.2069C66.4162 24.0582 66.1993 24.8968 65.9206 25.7157C65.6634 26.4746 65.3204 27.2016 64.8982 27.8826C64.5889 28.3872 64.2081 28.8444 63.7677 29.2399C63.587 29.3935 63.3671 29.4938 63.1326 29.5295C62.8923 29.5599 62.6613 29.6421 62.4557 29.7702C62.208 29.9377 62.0858 30.2901 62.0858 30.8345V38.1619C62.0858 38.2708 62.1073 38.3787 62.1491 38.4792C62.1909 38.5798 62.2521 38.6711 62.3293 38.748C62.4064 38.8248 62.498 38.8856 62.5988 38.927C62.6995 38.9683 62.8074 38.9894 62.9163 38.9889H67.8013C68.0207 38.9886 68.2312 38.9021 68.3875 38.7482C68.4648 38.6714 68.5262 38.58 68.5681 38.4794C68.61 38.3788 68.6316 38.2709 68.6317 38.1619V34.7878H82.4109V38.1619C82.4104 38.2707 82.4315 38.3784 82.4729 38.479C82.5143 38.5795 82.5752 38.6709 82.6521 38.7477C82.7289 38.8246 82.8203 38.8855 82.9208 38.9269C83.0214 38.9683 83.1291 38.9894 83.2378 38.9889H88.1542C88.2629 38.9894 88.3707 38.9683 88.4712 38.9269C88.5718 38.8855 88.6631 38.8246 88.74 38.7477C88.8169 38.6709 88.8778 38.5795 88.9192 38.479C88.9606 38.3784 88.9816 38.2707 88.9812 38.1619V30.3111C88.9816 30.2023 88.9606 30.0946 88.9192 29.9941C88.8778 29.8935 88.8169 29.8022 88.74 29.7253C88.6631 29.6484 88.5718 29.5875 88.4712 29.5461C88.3707 29.5047 88.2629 29.4837 88.1542 29.4841H88.1263Z" fill="#FF6A00"/>
<path fill-rule="evenodd" clip-rule="evenodd" d="M132.105 19.7144L140.643 10.0247C140.775 9.87577 140.86 9.6913 140.888 9.49435C140.919 9.29806 140.893 9.09673 140.811 8.91553C140.729 8.73432 140.595 8.58126 140.427 8.47548C140.26 8.36733 140.064 8.31145 139.865 8.31498H134.607C134.459 8.31301 134.312 8.344 134.178 8.4057C134.044 8.46849 133.925 8.55886 133.829 8.67089L124.837 19.1631V9.34432C124.838 9.20964 124.812 9.0761 124.761 8.95145C124.71 8.8268 124.635 8.7135 124.54 8.61811C124.445 8.52271 124.332 8.44711 124.207 8.39568C124.083 8.34425 123.949 8.318 123.815 8.31847H119.418C119.147 8.31939 118.887 8.42788 118.695 8.62016C118.503 8.81244 118.396 9.07285 118.396 9.34432V34.3938C118.396 34.6653 118.503 34.9257 118.695 35.118C118.887 35.3103 119.147 35.4187 119.418 35.4197H123.79C124.062 35.4187 124.322 35.3103 124.513 35.118C124.705 34.9257 124.813 34.6653 124.813 34.3938V27.4153L127.688 24.247L134.139 34.9277C134.23 35.081 134.359 35.2076 134.514 35.2947C134.669 35.3817 134.844 35.4261 135.022 35.4232H139.994C140.178 35.4241 140.359 35.3758 140.518 35.2831C140.677 35.1904 140.808 35.0568 140.898 34.8963C140.988 34.7354 141.032 34.5534 141.027 34.3694C141.023 34.1856 140.968 34.0066 140.867 33.853L132.105 19.7144Z" fill="#FF6A00"/>
<path fill-rule="evenodd" clip-rule="evenodd" d="M161.634 28.1598C161.484 28.0657 161.312 28.0127 161.135 28.0063C160.958 28.001 160.783 28.0406 160.626 28.1214C158.465 29.2247 156.072 29.7942 153.647 29.7823C149.083 29.7823 145.772 26.457 145.772 21.8686C145.772 17.2139 149.052 13.9584 153.752 13.9584C156.088 13.9743 158.385 14.5562 160.448 15.6542C160.604 15.7372 160.78 15.7779 160.958 15.7724C161.135 15.7669 161.308 15.7153 161.459 15.6227C161.611 15.5301 161.735 15.3997 161.821 15.2444C161.907 15.089 161.95 14.914 161.948 14.7365V10.6646C161.949 10.4829 161.901 10.3044 161.808 10.1481C161.718 9.98897 161.585 9.85838 161.425 9.77131C159.011 8.4909 156.316 7.83476 153.584 7.86267C145.44 7.86267 139.303 13.8852 139.303 21.8686C139.303 29.8521 145.395 35.8711 153.473 35.8711C158.159 35.8711 161.261 34.1893 161.599 33.9939C161.757 33.9028 161.889 33.7731 161.983 33.617C162.074 33.4588 162.122 33.2796 162.122 33.0971V29.0356C162.122 28.8595 162.077 28.6863 161.99 28.5331C161.909 28.3788 161.789 28.2487 161.641 28.1563L161.634 28.1598Z" fill="#FF6A00"/>
<path fill-rule="evenodd" clip-rule="evenodd" d="M93.396 8.31491H97.7088C97.9803 8.31491 98.2407 8.42252 98.4329 8.61415C98.6252 8.80577 98.7337 9.0658 98.7346 9.33727V22.6419L112.8 8.23815C112.995 8.04264 113.26 7.93226 113.536 7.93109H113.676C113.947 7.93201 114.207 8.04051 114.399 8.23279C114.59 8.42508 114.698 8.68547 114.698 8.95694V34.3938C114.698 34.6658 114.59 34.9268 114.398 35.1191C114.205 35.3115 113.944 35.4196 113.672 35.4196H109.37C109.098 35.4187 108.838 35.3102 108.647 35.1179C108.455 34.9256 108.348 34.6652 108.348 34.3938V21.0647L94.2509 35.4964C94.1529 35.5979 94.0338 35.6765 93.902 35.7267C93.7752 35.7807 93.6386 35.808 93.5007 35.8069H93.396C93.1246 35.806 92.8645 35.6975 92.6729 35.5052C92.4813 35.3129 92.3737 35.0525 92.3737 34.7811V9.34425C92.3737 9.07279 92.4813 8.81238 92.6729 8.6201C92.8645 8.42781 93.1246 8.31933 93.396 8.31841V8.31491Z" fill="#FF6A00"/>
<path fill-rule="evenodd" clip-rule="evenodd" d="M166.708 8.31491H171.021C171.292 8.31491 171.553 8.42252 171.745 8.61415C171.937 8.80577 172.046 9.0658 172.047 9.33727V22.6419L186.112 8.23815C186.212 8.14039 186.331 8.06333 186.461 8.01135C186.587 7.95891 186.722 7.93164 186.859 7.93109H186.998C187.27 7.93201 187.53 8.04051 187.721 8.23279C187.913 8.42508 188.021 8.68547 188.021 8.95694V34.3938C188.021 34.6652 187.913 34.9256 187.721 35.1179C187.53 35.3102 187.27 35.4187 186.998 35.4196H182.668C182.396 35.4196 182.135 35.3115 181.943 35.1192C181.75 34.9268 181.642 34.6658 181.642 34.3938V21.0647L167.549 35.4964C167.45 35.5968 167.331 35.6752 167.2 35.7267C167.073 35.7813 166.937 35.8087 166.799 35.8069H166.708C166.437 35.806 166.177 35.6975 165.985 35.5052C165.793 35.3129 165.686 35.0525 165.686 34.7811V9.34425C165.686 9.07279 165.793 8.81238 165.985 8.6201C166.177 8.42781 166.437 8.31933 166.708 8.31841V8.31491Z" fill="#FF6A00"/>
</svg>
