<svg width="205" height="51" viewBox="0 0 205 51" fill="none" xmlns="http://www.w3.org/2000/svg">
<path fill-rule="evenodd" clip-rule="evenodd" d="M93.4133 21.7306H106.266C106.266 22.9436 106.266 24.1565 106.266 25.3746H101.706C101.706 29.0446 101.706 32.7095 101.706 36.3743H97.9579C97.9579 32.7303 97.9579 29.0446 97.9579 25.3746H93.4133C93.4133 24.1634 93.4133 22.9488 93.4133 21.7306ZM87.7131 21.7983H83.5485C82.2667 21.8038 81.039 22.3158 80.1331 23.2227C79.2272 24.1296 78.7165 25.3578 78.7124 26.6396C78.7149 27.5842 78.993 28.5076 79.5127 29.2964C80.0324 30.0851 80.7711 30.7051 81.6381 31.0801L77.9941 36.4055H82.0024L85.3497 31.4809H87.6767V36.4419H91.4352V21.7983H87.6767H87.7131ZM200.713 21.7254H204.477V36.3691H200.713V35.3279C199.841 35.9617 198.841 36.397 197.782 36.6033C196.374 36.892 194.913 36.7812 193.565 36.2836C192.216 35.786 191.034 34.9212 190.151 33.787C187.808 30.6948 188.162 25.8379 191.077 23.2299C192.393 22.076 194.058 21.3974 195.805 21.303C197.553 21.2086 199.281 21.7039 200.713 22.7093V21.7463V21.7254ZM200.713 30.3825C200.896 29.3948 200.896 28.3821 200.713 27.3944V27.3632H200.687C199.558 24.5053 195.695 24.3387 193.998 25.6818C192.145 26.9468 191.848 29.8099 193.207 31.5382C195.809 34.4846 199.792 33.4643 200.713 30.3721V30.3825ZM159.161 21.6421H162.92V26.4626C162.92 28.4304 165.523 30.1066 168.453 28.0712V21.8764H172.212V36.5252H168.453V31.4341C162.982 34.0005 159.161 30.8406 159.161 27.2695V21.6421ZM175.013 21.7202C175.013 26.6032 175.013 31.4809 175.013 36.3639H178.75C178.75 34.443 178.75 32.5221 178.75 30.6011C179.271 30.6011 179.791 30.6011 180.312 30.6011C181.686 32.5273 183.092 34.4326 184.477 36.3535C185.934 36.3535 187.392 36.3535 188.855 36.3535C187.008 33.8755 185.159 31.4046 183.305 28.9405C185.093 26.5112 186.883 24.0992 188.678 21.7046H184.216L180.052 27.6391H178.792C178.792 25.6661 178.792 23.688 178.792 21.7098L175.013 21.7202ZM60.7424 16.3375H75.9066C75.9066 23.0529 75.9066 29.7665 75.9066 36.4784H71.8826C71.8826 31.0263 71.8826 25.5759 71.8826 20.1273C69.5036 20.1273 67.1246 20.1273 64.7508 20.1273C64.7508 25.5794 64.7508 31.0315 64.7508 36.4836H60.7476C60.7476 29.7682 60.7476 23.0529 60.7476 16.3375H60.7424ZM131.378 25.0727C130.778 25.2223 130.222 25.5152 129.76 25.9264C129.337 26.3417 129.002 26.8384 128.777 27.3866C128.551 27.9347 128.439 28.5229 128.447 29.1156C128.455 29.7083 128.584 30.2932 128.825 30.8349C129.065 31.3765 129.414 31.8637 129.848 32.267C130.609 32.8698 131.555 33.19 132.525 33.1729C133.495 33.1558 134.429 32.8025 135.168 32.1733C136.949 30.5543 136.897 27.332 135.017 25.8119C134.507 25.4184 133.913 25.1471 133.281 25.019C132.649 24.8908 131.997 24.9092 131.373 25.0727H131.378ZM128.442 23.4381C130.572 20.6843 134.991 20.7259 137.495 22.9175C140.978 25.8171 141.139 31.7256 137.844 34.8334C135.392 37.3425 130.686 37.5403 128.442 34.6564C128.442 37.1707 128.442 39.6851 128.442 42.1994H124.694C124.694 35.3696 124.694 28.5414 124.694 21.715H128.442C128.442 22.2824 128.442 22.8499 128.442 23.4173V23.4381ZM113.471 25.1456C113.003 25.4033 112.597 25.7591 112.28 26.1886C111.962 26.6181 111.742 27.1111 111.633 27.6339H119.015C118.845 26.8312 118.426 26.1027 117.818 25.5516C117.206 25.0781 116.472 24.7892 115.702 24.7191C114.932 24.649 114.158 24.8006 113.471 25.156V25.1456ZM113.226 21.5745C115.871 20.8301 118.952 21.5224 120.79 23.6307C121.598 24.5758 122.183 25.6909 122.502 26.8932C122.82 28.0954 122.863 29.3539 122.628 30.5751C118.984 30.5751 115.34 30.5751 111.696 30.5751C111.83 31.0802 112.074 31.5494 112.41 31.949C112.747 32.3486 113.168 32.6688 113.643 32.8865C115.413 33.6465 117.771 33.407 119.025 31.8453C120.04 32.4231 121.056 33.0114 122.055 33.61C121.025 35.1042 119.462 36.1473 117.688 36.5252C115.21 37.0458 112.435 36.6241 110.441 35C107.838 32.9177 107.151 29.1227 108.26 26.0878C108.655 24.9867 109.312 23.9984 110.174 23.2084C111.037 22.4184 112.079 21.8504 113.211 21.5536L113.226 21.5745ZM117.297 16.3323C117.686 16.1829 118.111 16.1596 118.514 16.2657C118.917 16.3718 119.276 16.6019 119.54 16.9234C119.805 17.2448 119.961 17.6414 119.988 18.0569C120.015 18.4724 119.91 18.8857 119.688 19.2383C119.467 19.5909 119.14 19.8649 118.755 20.0214C118.369 20.178 117.943 20.2092 117.539 20.1106C117.134 20.012 116.771 19.7885 116.501 19.472C116.23 19.1555 116.066 18.7619 116.032 18.3469C116.002 17.9203 116.108 17.4952 116.335 17.133C116.563 16.7708 116.9 16.4904 117.297 16.3323ZM111.815 16.3323C112.065 16.2415 112.33 16.2022 112.594 16.2168C112.859 16.2315 113.118 16.2998 113.356 16.4176C113.593 16.5354 113.804 16.7003 113.976 16.9022C114.148 17.1041 114.277 17.3388 114.356 17.5921C114.445 17.8447 114.481 18.1127 114.463 18.3798C114.444 18.6469 114.372 18.9075 114.249 19.1456C114.127 19.3836 113.957 19.5942 113.75 19.7643C113.544 19.9345 113.304 20.0607 113.047 20.1352C112.79 20.2097 112.52 20.2309 112.255 20.1975C111.989 20.1642 111.733 20.077 111.502 19.9413C111.271 19.8056 111.071 19.6242 110.912 19.4082C110.754 19.1922 110.642 18.9463 110.582 18.6853C110.466 18.2101 110.527 17.709 110.754 17.2758C110.981 16.8427 111.359 16.5072 111.815 16.3323ZM148.516 25.2185C145.97 25.9993 145.148 29.4663 146.688 31.5121C147.332 32.3411 148.276 32.8837 149.316 33.023C150.356 33.1623 151.409 32.887 152.248 32.2566C152.682 31.8895 153.038 31.4388 153.295 30.9313C153.551 30.4238 153.703 29.8699 153.741 29.3026C153.779 28.7352 153.702 28.166 153.515 27.629C153.329 27.0919 153.036 26.5978 152.654 26.1763C152.123 25.6455 151.454 25.2743 150.722 25.105C149.99 24.9357 149.226 24.975 148.516 25.2185ZM148.297 21.4287C149.495 21.1937 150.731 21.2427 151.906 21.5718C153.081 21.9009 154.163 22.5009 155.064 23.3236C156.41 24.6112 157.257 26.3326 157.457 28.1841C157.657 30.0356 157.197 31.8982 156.158 33.4435C155.355 34.5985 154.252 35.5115 152.967 36.0833C151.682 36.6551 150.265 36.8637 148.87 36.6866C147.717 36.5522 146.611 36.1535 145.637 35.5214C144.664 34.8893 143.85 34.041 143.258 33.0426C142.431 31.618 142.066 29.9724 142.213 28.3319C142.359 26.6914 143.01 25.1364 144.075 23.8806C145.173 22.6188 146.657 21.7565 148.297 21.4287ZM87.7131 24.7552V28.5397H84.3815C83.8807 28.5383 83.4009 28.3388 83.0468 27.9847C82.6927 27.6306 82.4932 27.1508 82.4918 26.65C82.4918 26.1484 82.6907 25.6672 83.0449 25.312C83.3992 24.9568 83.8798 24.7565 84.3815 24.7552H87.7131Z" fill="#EB2316"/>
<path fill-rule="evenodd" clip-rule="evenodd" d="M24.6621 0.0853756C27.8772 -0.0634262 31.0907 0.410292 34.1261 1.4805C39.4197 3.34704 43.9404 6.92439 46.9738 11.6472C48.3747 13.8258 49.4285 16.209 50.0972 18.7114C51.6572 24.5261 51.0814 30.7074 48.4742 36.1339C45.8669 41.5604 41.4009 45.8726 35.8864 48.2882C30.372 50.7038 24.1743 51.0628 18.4178 49.3001C12.6613 47.5373 7.72726 43.7696 4.51088 38.6804C2.90892 36.1634 1.77166 33.3794 1.15321 30.4606C0.0702525 25.3589 0.598511 20.0468 2.66499 15.2583C4.73147 10.4697 8.23415 6.44123 12.689 3.72937C16.3063 1.5187 20.4266 0.264699 24.6621 0.0853756Z" fill="#FEFFFE"/>
<path fill-rule="evenodd" clip-rule="evenodd" d="M24.929 3.21129C25.5111 3.16443 26.096 3.16443 26.6781 3.21129C28.2389 3.26533 29.7891 3.49053 31.3008 3.88283C32.288 4.12919 33.2527 4.4583 34.1847 4.86669C33.2113 4.90834 32.243 4.8667 31.2747 4.93437C28.5469 5.03328 25.7463 5.37685 23.2788 6.62101C22.1757 7.17458 21.1826 7.92427 20.348 8.83343C19.2156 10.0999 18.372 11.5972 17.8753 13.2218C17.4744 14.5077 17.1829 15.8247 16.8341 17.1365C16.1782 19.8331 15.4702 22.5244 14.8351 25.2262C16.2719 25.8196 17.6931 26.4391 19.1246 27.0482C19.1985 27.0823 19.2778 27.1034 19.3589 27.1106C19.5992 26.6868 19.8707 26.2814 20.171 25.8977C20.936 24.8658 21.9879 24.0818 23.1955 23.6437C23.9153 23.396 24.678 23.2979 25.4371 23.3552C26.1961 23.4124 26.9355 23.624 27.6099 23.9768C28.6694 24.5254 29.5009 25.4307 29.9577 26.5328C30.2925 27.3769 30.4037 28.2932 30.2804 29.1929C30.1102 30.5659 29.5399 31.8584 28.6407 32.9098C27.6766 34.0697 26.3174 34.8319 24.8249 35.0493C23.7493 35.1989 22.654 34.9981 21.7015 34.4767C20.6557 33.8857 19.797 33.0126 19.2235 31.9572C19.1149 31.7517 19.0193 31.5395 18.9372 31.3221C17.2714 31.7333 15.6056 32.1706 13.9346 32.5975C14.3094 33.7608 14.8344 34.8703 15.4963 35.8979C16.9476 38.0817 19.1851 39.6218 21.7431 40.1978C24.249 40.7597 26.8698 40.4892 29.2081 39.4273C31.4541 38.413 33.3412 36.7436 34.622 34.6381C35.3355 33.4539 35.8408 32.1563 36.116 30.8015C36.5105 29.2015 36.5283 27.5318 36.1681 25.9237C35.6401 23.5487 34.2177 21.4681 32.1961 20.1142C31.069 19.3551 29.7831 18.8639 28.437 18.678C27.0908 18.4921 25.7199 18.6166 24.4292 19.0418C23.5044 19.3526 22.6281 19.7925 21.8264 20.3485C21.5921 20.5202 21.3631 20.6972 21.1132 20.869C21.5505 19.0991 22.0138 17.3343 22.4615 15.5696C22.8932 15.5436 23.326 15.5436 23.7577 15.5696C26.2126 15.6653 28.6711 15.5574 31.1082 15.2469C32.844 15.0036 34.5224 14.4518 36.064 13.6175C37.994 12.5237 39.5242 10.8421 40.4316 8.81782C40.4932 8.84385 40.5524 8.87521 40.6086 8.91153C43.7774 11.7853 46.0426 15.5181 47.1286 19.6558C48.2146 23.7935 48.0745 28.1577 46.7254 32.2172C45.3762 36.2767 42.8763 39.8566 39.5296 42.5212C36.183 45.1857 32.134 46.8201 27.8754 47.2255C27.3548 47.2775 26.8343 47.2775 26.3137 47.3244C23.4268 47.3804 20.5562 46.8784 17.8596 45.846C14.0201 44.3667 10.67 41.8447 8.18665 38.5639C5.70333 35.2832 4.18553 31.3742 3.80426 27.2772C3.71496 26.3152 3.69061 25.3482 3.73138 24.3829C3.95017 18.8333 6.25449 13.5706 10.1841 9.64586C14.1136 5.72111 19.3792 3.42326 24.929 3.21129Z" fill="#EB2316"/>
<path fill-rule="evenodd" clip-rule="evenodd" d="M32.4972 7.32216C34.491 7.25969 36.49 7.32216 38.4837 7.19202C37.9806 8.54967 37.1404 9.75707 36.0423 10.7007C34.4806 11.9761 32.5284 12.5695 30.5815 12.8558C27.2446 13.34 23.8609 13.038 20.498 13.1213C20.9136 12.0273 21.5537 11.0324 22.3773 10.2009C23.4284 9.20361 24.7083 8.47965 26.1046 8.09261C28.1903 7.5453 30.3411 7.28608 32.4972 7.32216Z" fill="#008F33"/>
</svg>
