<svg width="221" height="191" viewBox="0 0 221 191" fill="none" xmlns="http://www.w3.org/2000/svg">
<path d="M214.54 42.4544L117.644 1.29751C115.615 0.44119 113.436 0 111.234 0C109.032 0 106.852 0.44119 104.824 1.29751L6.47462 42.4688C4.55352 43.2811 2.91461 44.6418 1.76297 46.3808C0.611329 48.1198 -0.00190363 50.1597 1.33244e-05 52.2455V121.2C-0.00331148 123.296 0.615659 125.347 1.77852 127.091C2.94137 128.835 4.59579 130.195 6.53218 130.998L102.738 170.68H102.824L111.241 174.162L151.024 190.565L134.816 164.307L214.489 130.998C216.418 130.19 218.065 128.831 219.223 127.09C220.381 125.349 220.999 123.305 221 121.214V52.152C220.988 50.0813 220.369 48.0596 219.221 46.3363C218.073 44.613 216.446 43.2636 214.54 42.4544Z" fill="#462B74"/>
<path d="M44.0005 130.437V126.459H42.3818V125.66H46.4968V126.459H44.8782V130.437H44.0005Z" fill="white"/>
<path d="M49.373 130.437L51.1859 125.66H52.114L53.9269 130.437H52.9269L52.5096 129.228H50.7327L50.3155 130.437H49.373ZM50.9845 128.48H52.2507L51.6248 126.631L50.9845 128.48Z" fill="white"/>
<path d="M57.7969 130.437L58.0271 125.66H58.8616L60.1853 127.919L61.4946 125.66H62.3219L62.5521 130.437H61.6744L61.5162 127.128L60.3651 129.077H59.9479L58.7896 127.178L58.6314 130.437H57.7969Z" fill="white"/>
<path d="M66.8672 130.437V125.66H69.7448V126.437H67.7089V127.473H68.4642C68.7649 127.469 69.0634 127.525 69.3419 127.638C69.5879 127.744 69.7997 127.916 69.9534 128.135C70.1038 128.371 70.1791 128.647 70.1692 128.926C70.1687 129.175 70.1122 129.421 70.0038 129.646C69.8776 129.889 69.6823 130.089 69.4426 130.221C69.1234 130.387 68.7657 130.464 68.4067 130.444L66.8672 130.437ZM68.4283 128.236H67.7089V129.674H68.4283C68.6487 129.684 68.8662 129.621 69.047 129.495C69.1278 129.431 69.1918 129.349 69.2332 129.254C69.2746 129.16 69.2922 129.058 69.2844 128.955C69.2903 128.852 69.2719 128.748 69.2307 128.653C69.1895 128.558 69.1265 128.474 69.047 128.408C68.8658 128.283 68.648 128.222 68.4283 128.236Z" fill="white"/>
<path d="M76.6229 130.567C76.2869 130.57 75.9538 130.504 75.6445 130.372C75.3481 130.243 75.0794 130.057 74.8532 129.826C74.3911 129.35 74.133 128.712 74.1338 128.049C74.1306 127.713 74.1968 127.38 74.328 127.07C74.4477 126.77 74.6257 126.497 74.8517 126.266C75.0776 126.035 75.3471 125.851 75.6445 125.725C75.9536 125.597 76.2848 125.531 76.6193 125.531C76.9538 125.531 77.2851 125.597 77.5941 125.725C77.8912 125.85 78.1603 126.034 78.3854 126.265C78.6128 126.497 78.7935 126.77 78.9178 127.07C79.0432 127.381 79.1068 127.713 79.1048 128.049C79.106 128.384 79.0425 128.716 78.9178 129.027C78.7935 129.325 78.6127 129.596 78.3854 129.826C78.1556 130.059 77.8809 130.242 77.578 130.366C77.275 130.49 76.9501 130.551 76.6229 130.545V130.567ZM76.6229 129.718C76.9116 129.722 77.1948 129.639 77.4358 129.48C77.6643 129.324 77.8479 129.111 77.9682 128.862C78.0982 128.603 78.1647 128.317 78.1624 128.027C78.1654 127.736 78.1014 127.448 77.9754 127.185C77.8565 126.939 77.6724 126.73 77.443 126.581C77.1992 126.423 76.9132 126.343 76.6229 126.351C76.3326 126.343 76.0467 126.423 75.8028 126.581C75.5713 126.73 75.3847 126.939 75.2632 127.185C75.1447 127.449 75.0834 127.734 75.0834 128.023C75.0834 128.312 75.1447 128.598 75.2632 128.862C75.3861 129.111 75.5721 129.325 75.8028 129.48C76.0458 129.641 76.3318 129.723 76.6229 129.718Z" fill="white"/>
<path d="M83.292 130.438V125.661H84.9322C85.2239 125.653 85.5137 125.709 85.7811 125.826C85.994 125.921 86.1742 126.076 86.2991 126.272C86.4201 126.461 86.4827 126.681 86.4789 126.905C86.4835 127.057 86.4515 127.208 86.3854 127.344C86.3339 127.458 86.2606 127.561 86.1696 127.646C86.0952 127.721 86.0104 127.784 85.9178 127.833C85.8562 127.869 85.7874 127.892 85.7164 127.898C85.8195 127.915 85.9207 127.941 86.0185 127.977C86.1387 128.027 86.2504 128.095 86.3494 128.179C86.4604 128.279 86.5487 128.402 86.6084 128.538C86.6851 128.705 86.722 128.887 86.7163 129.071C86.7296 129.341 86.6508 129.608 86.4926 129.827C86.3345 130.047 86.1064 130.206 85.8459 130.279C85.5498 130.369 85.2416 130.413 84.9322 130.409L83.292 130.438ZM84.1553 127.56H84.8747C85.0487 127.562 85.2199 127.517 85.3711 127.431C85.4471 127.384 85.5084 127.316 85.5478 127.236C85.5873 127.156 85.6033 127.066 85.5941 126.977C85.6017 126.855 85.5632 126.734 85.4862 126.639C85.413 126.559 85.318 126.501 85.2128 126.474C85.1034 126.44 84.9893 126.423 84.8747 126.423H84.1553V127.56ZM84.1553 129.668H84.925H85.2056C85.3079 129.659 85.4078 129.633 85.5006 129.589C85.5945 129.544 85.6742 129.475 85.7308 129.387C85.7916 129.275 85.8214 129.148 85.8171 129.02C85.8264 128.863 85.7749 128.709 85.6732 128.589C85.5755 128.488 85.4505 128.418 85.3135 128.387C85.1867 128.354 85.0562 128.337 84.925 128.337H84.1553V129.668Z" fill="white"/>
<path d="M94.5 129.019L95.1331 129.566C95.0086 129.732 94.8636 129.882 94.7014 130.012C94.4942 130.173 94.2638 130.301 94.018 130.393C93.7483 130.501 93.4598 130.555 93.1691 130.551C92.7279 130.56 92.2927 130.448 91.9102 130.228C91.5445 130.02 91.2452 129.713 91.0469 129.343C90.8681 128.998 90.7642 128.619 90.7419 128.231C90.7195 127.843 90.7794 127.454 90.9174 127.091C91.034 126.794 91.2047 126.52 91.421 126.285C91.6395 126.053 91.9042 125.869 92.1979 125.746C92.5128 125.607 92.854 125.539 93.1979 125.544C93.6092 125.53 94.0167 125.627 94.3777 125.825C94.6742 125.998 94.9314 126.231 95.1331 126.508L94.4928 127.069C94.351 126.862 94.1703 126.683 93.9605 126.544C93.7323 126.402 93.4666 126.332 93.1979 126.343C92.9111 126.335 92.6292 126.418 92.3921 126.58C92.1622 126.736 91.9803 126.953 91.867 127.206C91.744 127.472 91.6826 127.762 91.6872 128.055C91.6818 128.341 91.7434 128.624 91.867 128.882C91.9825 129.122 92.1585 129.328 92.3778 129.479C92.6101 129.626 92.8797 129.704 93.1547 129.702C93.3839 129.71 93.612 129.668 93.8238 129.58C93.9743 129.506 94.1125 129.409 94.2338 129.292L94.5 129.019Z" fill="white"/>
<path d="M100.07 128.372V130.437H99.1631V125.66H100.07V127.574H100.451C100.611 127.58 100.769 127.538 100.904 127.452C101.028 127.347 101.13 127.22 101.206 127.077L102.019 125.639H103.012L102.062 127.25C101.977 127.411 101.862 127.555 101.724 127.675C101.604 127.782 101.465 127.868 101.314 127.926C101.435 127.963 101.551 128.013 101.659 128.077C101.753 128.138 101.835 128.213 101.904 128.3C101.99 128.407 102.067 128.52 102.134 128.639L103.213 130.415H102.141L101.249 128.89C101.17 128.736 101.062 128.597 100.933 128.48C100.806 128.387 100.651 128.342 100.494 128.351L100.07 128.372Z" fill="white"/>
<path d="M107.01 130.437L108.823 125.66H109.758L111.571 130.437H110.564L110.154 129.228H108.362L107.945 130.437H107.01ZM108.621 128.48H109.895L109.261 126.631L108.621 128.48Z" fill="white"/>
<path d="M118.839 125.66V130.436H117.976V128.552H117.666C117.564 128.548 117.462 128.57 117.371 128.616C117.284 128.668 117.21 128.74 117.156 128.825C117.071 128.946 116.996 129.073 116.932 129.206L116.299 130.436H115.307L116.026 129.098C116.117 128.922 116.226 128.756 116.35 128.602C116.433 128.503 116.539 128.427 116.659 128.379C116.463 128.345 116.277 128.263 116.12 128.142C115.954 128.015 115.819 127.852 115.727 127.664C115.634 127.477 115.587 127.271 115.587 127.062C115.589 126.823 115.651 126.588 115.767 126.379C115.9 126.161 116.089 125.982 116.314 125.861C116.599 125.717 116.916 125.647 117.235 125.66H118.839ZM117.249 127.818H117.968V126.437H117.249C117.154 126.433 117.06 126.449 116.971 126.482C116.882 126.515 116.8 126.566 116.731 126.631C116.664 126.694 116.611 126.772 116.577 126.857C116.542 126.943 116.526 127.035 116.53 127.127C116.528 127.308 116.595 127.483 116.717 127.616C116.788 127.683 116.871 127.735 116.963 127.768C117.054 127.801 117.152 127.816 117.249 127.811V127.818Z" fill="white"/>
<path d="M130.175 130.567C129.839 130.57 129.506 130.504 129.197 130.372C128.9 130.243 128.631 130.057 128.405 129.826C128.18 129.594 128 129.324 127.873 129.027C127.748 128.716 127.685 128.384 127.686 128.049C127.684 127.713 127.747 127.381 127.873 127.07C128 126.771 128.18 126.498 128.405 126.265C128.632 126.035 128.9 125.852 129.197 125.725C129.506 125.597 129.837 125.531 130.171 125.531C130.506 125.531 130.837 125.597 131.146 125.725C131.442 125.852 131.711 126.035 131.937 126.265C132.165 126.497 132.346 126.77 132.47 127.07C132.595 127.381 132.659 127.713 132.657 128.049C132.658 128.384 132.595 128.716 132.47 129.027C132.217 129.628 131.743 130.109 131.146 130.372C130.839 130.503 130.509 130.569 130.175 130.567ZM130.175 129.718C130.464 129.722 130.747 129.639 130.988 129.48C131.216 129.324 131.4 129.111 131.52 128.862C131.65 128.603 131.717 128.317 131.714 128.027C131.717 127.736 131.653 127.448 131.527 127.185C131.408 126.939 131.224 126.73 130.995 126.581C130.751 126.423 130.465 126.343 130.175 126.351C129.885 126.343 129.599 126.423 129.355 126.581C129.123 126.73 128.937 126.939 128.815 127.185C128.692 127.448 128.628 127.734 128.628 128.023C128.628 128.313 128.692 128.599 128.815 128.862C128.938 129.111 129.124 129.325 129.355 129.48C129.598 129.641 129.884 129.723 130.175 129.718Z" fill="white"/>
<path d="M136.846 130.437V125.66H139.723V126.437H137.687V127.473H138.45C138.748 127.47 139.044 127.526 139.32 127.638C139.566 127.744 139.778 127.916 139.932 128.135C140.084 128.37 140.162 128.646 140.155 128.926C140.155 129.176 140.096 129.423 139.982 129.646C139.856 129.886 139.664 130.085 139.428 130.221C139.109 130.385 138.751 130.462 138.392 130.444L136.846 130.437ZM138.4 128.236H137.68V129.674H138.4C138.62 129.685 138.838 129.622 139.018 129.495C139.099 129.431 139.163 129.349 139.205 129.254C139.246 129.16 139.263 129.058 139.256 128.955C139.262 128.852 139.243 128.748 139.202 128.653C139.161 128.558 139.098 128.474 139.018 128.408C138.838 128.282 138.619 128.221 138.4 128.236Z" fill="white"/>
<path d="M145.174 125.66H148.333V130.437H147.426V126.466H145.987C145.963 127.206 145.874 127.943 145.721 128.667C145.639 129.164 145.423 129.63 145.095 130.013C144.942 130.165 144.758 130.283 144.556 130.36C144.354 130.437 144.138 130.47 143.923 130.459H143.808V129.653C144.023 129.657 144.233 129.583 144.398 129.444C144.584 129.262 144.721 129.033 144.793 128.782C144.916 128.384 144.998 127.974 145.038 127.559C145.11 127.041 145.146 126.408 145.174 125.66Z" fill="white"/>
<path d="M152.246 130.437L154.059 125.66H154.994L156.807 130.437H155.843L155.426 129.228H153.656L153.239 130.437H152.246ZM153.858 128.48H155.124L154.491 126.631L153.858 128.48Z" fill="white"/>
<path d="M164.181 129.019L164.815 129.566C164.694 129.736 164.549 129.886 164.383 130.012C164.178 130.173 163.95 130.301 163.707 130.393C163.434 130.502 163.144 130.555 162.851 130.552C162.409 130.56 161.974 130.448 161.592 130.228C161.23 130.018 160.933 129.712 160.736 129.343C160.525 128.955 160.418 128.518 160.426 128.077C160.424 127.741 160.482 127.407 160.599 127.091C160.715 126.792 160.889 126.518 161.11 126.285C161.328 126.053 161.593 125.87 161.887 125.746C162.199 125.607 162.538 125.539 162.879 125.544C163.291 125.529 163.699 125.626 164.059 125.825C164.356 125.998 164.613 126.231 164.815 126.508L164.174 127.07C164.032 126.862 163.852 126.683 163.642 126.544C163.414 126.401 163.148 126.331 162.879 126.343C162.593 126.337 162.311 126.42 162.074 126.58C161.844 126.736 161.662 126.953 161.548 127.206C161.425 127.472 161.364 127.762 161.369 128.055C161.363 128.341 161.425 128.625 161.548 128.883C161.664 129.125 161.843 129.331 162.066 129.48C162.295 129.629 162.563 129.707 162.836 129.703C163.065 129.711 163.294 129.67 163.505 129.58C163.658 129.509 163.796 129.412 163.915 129.293L164.181 129.019Z" fill="white"/>
<path d="M170.13 130.437V126.459H168.512V125.66H172.648V126.459H171.03V130.437H170.13Z" fill="white"/>
<path d="M176.707 130.437V125.66H177.57V127.329H178.333C178.633 127.323 178.93 127.385 179.203 127.509C179.451 127.618 179.663 127.795 179.815 128.02C179.971 128.269 180.048 128.56 180.038 128.854C180.035 129.047 180.004 129.239 179.944 129.423C179.879 129.614 179.776 129.79 179.642 129.941C179.492 130.103 179.304 130.226 179.095 130.3C178.834 130.399 178.555 130.445 178.275 130.437H176.707ZM178.261 128.092H177.542V129.682H178.261C178.484 129.691 178.703 129.623 178.88 129.487C179.031 129.327 179.116 129.115 179.116 128.894C179.116 128.673 179.031 128.461 178.88 128.3C178.79 128.23 178.687 128.177 178.577 128.146C178.468 128.115 178.353 128.107 178.239 128.121L178.261 128.092Z" fill="white"/>
<path d="M60.0925 66.5556C60.0093 67.5957 59.6382 68.5921 59.0206 69.4332C58.7622 69.7171 58.4447 69.9409 58.0904 70.0888C57.7362 70.2367 57.3538 70.3051 56.9703 70.2893C56.546 70.3051 56.1239 70.2224 55.7369 70.0476C55.35 69.8729 55.0088 69.6109 54.7401 69.2821C54.0399 68.2011 53.6105 66.9673 53.4884 65.6851C53.305 64.5928 53.1921 63.4899 53.1503 62.3831C53.0927 61.0809 53.0639 59.8364 53.0639 58.6566C53.028 56.4086 53.1506 54.1609 53.4308 51.9302C53.5406 50.6654 53.9607 49.4472 54.6538 48.3835C54.9229 48.0278 55.2742 47.7425 55.6776 47.552C56.081 47.3616 56.5246 47.2717 56.9703 47.29C57.3702 47.2618 57.7711 47.3301 58.1391 47.4891C58.5072 47.6481 58.8317 47.8932 59.0853 48.2037C59.6742 49.1871 60.0195 50.297 60.0925 51.441C60.1716 52.0956 60.2436 52.9373 60.3011 53.9805C60.3587 55.0236 60.3946 55.966 60.3946 56.8221H68.344C68.3843 54.6163 68.281 52.4103 68.0347 50.218C67.8655 48.0534 67.2637 45.9446 66.2649 44.0168C65.4528 42.5348 64.1941 41.3467 62.6679 40.6212C60.899 39.8759 58.9896 39.5224 57.071 39.5852C52.9225 39.5852 49.7859 41.0936 47.6612 44.1103C45.5366 47.127 44.4767 51.9757 44.4815 58.6566C44.4579 61.2547 44.6432 63.8505 45.0354 66.4189C45.6829 70.3708 46.9562 73.2844 48.8554 75.1596C50.7547 77.0349 53.4332 77.9701 56.8911 77.9653C59.6608 77.9653 61.8838 77.4113 63.5528 76.2891C65.3643 74.9709 66.6694 73.0717 67.2505 70.908C68.0419 68.438 68.4399 65.0808 68.4447 60.8364H60.3946C60.4278 62.7475 60.3268 64.6586 60.0925 66.5556Z" fill="white"/>
<path d="M73.1705 66.0653C73.203 67.0523 72.9534 68.028 72.4511 68.8782C72.2081 69.1319 71.9115 69.3282 71.5829 69.4527C71.2543 69.5771 70.9021 69.6266 70.5519 69.5976H70.3145V77.1153H72.7533C74.1951 77.1645 75.6319 76.9197 76.9762 76.3959C78.0469 75.9147 78.9115 75.068 79.4149 74.0075C80.0825 72.515 80.4562 70.9078 80.5156 69.2739L82.2781 47.9436H86.1413V77.0937H94.2706V40.4043H75.1849L73.1705 66.0653Z" fill="white"/>
<path d="M117.881 41.8574C115.822 40.2848 113.275 39.4853 110.687 39.5985C108.227 39.5015 105.796 40.162 103.723 41.4905C101.891 42.7566 100.495 44.7949 99.5361 47.6054C98.5769 50.4158 98.0973 54.104 98.0973 58.6698C98.0548 61.371 98.2594 64.0704 98.7088 66.7343C99.3994 70.6046 100.682 73.4463 102.558 75.2592C104.433 77.0721 107.071 77.9785 110.471 77.9785C112.966 78.089 115.427 77.3706 117.471 75.9354C119.284 74.5685 120.629 72.4583 121.507 69.6047C122.469 66.0421 122.91 62.3589 122.816 58.6698C122.863 55.4661 122.557 52.2669 121.902 49.1305C121.077 45.7925 119.737 43.3681 117.881 41.8574ZM113.938 65.8206C113.852 67.0713 113.427 68.2749 112.708 69.3025C112.428 69.6225 112.079 69.8763 111.689 70.0455C111.298 70.2146 110.875 70.2951 110.449 70.2809C109.978 70.296 109.511 70.1886 109.094 69.9692C108.676 69.7498 108.323 69.4259 108.068 69.0291C107.502 68.1946 107.116 66.6959 106.91 64.5329C106.722 62.5844 106.64 60.6271 106.665 58.6698C106.617 56.3384 106.759 54.0071 107.09 51.6988C107.222 50.4768 107.641 49.3034 108.313 48.2744C108.588 47.9478 108.935 47.6899 109.327 47.5213C109.719 47.3527 110.146 47.278 110.572 47.3032C111.008 47.2812 111.443 47.3668 111.838 47.5525C112.233 47.7382 112.576 48.0182 112.838 48.368C113.509 49.5162 113.905 50.8038 113.996 52.1304C114.22 54.3027 114.321 56.486 114.298 58.6698C114.34 61.0588 114.219 63.4478 113.938 65.8206Z" fill="white"/>
<path d="M145.563 58.8227C144.948 58.4763 144.3 58.1919 143.628 57.9738C143.866 57.8731 144.103 57.7796 144.348 57.6645C145.644 57.0227 146.75 56.053 147.556 54.8516C148.45 53.4811 148.9 51.8684 148.844 50.2331C148.869 48.8996 148.592 47.5778 148.036 46.3659C147.479 45.154 146.656 44.0832 145.628 43.2333C143.484 41.3772 140.173 40.4492 135.693 40.4492H126.708V77.1387H138.995C142.902 77.1387 145.729 76.1962 147.456 74.2611C149.241 72.2628 150.184 69.6515 150.089 66.9735C150.12 65.3012 149.721 63.649 148.93 62.1751C148.141 60.7666 146.975 59.6057 145.563 58.8227ZM136.118 47.485C137.381 47.3987 138.635 47.7548 139.664 48.4921C140.086 48.8703 140.415 49.3398 140.627 49.8647C140.839 50.3897 140.928 50.9561 140.887 51.5208C140.91 52.0713 140.815 52.6202 140.609 53.1312C140.403 53.6422 140.091 54.1036 139.693 54.4847C138.714 55.3034 137.455 55.7086 136.183 55.6142H134.78V47.485H136.118ZM140.434 69.067C139.7 69.7576 138.537 70.1029 136.945 70.1029H134.787V61.614H136.003C137.837 61.614 139.226 61.9953 140.161 62.7722C141.006 63.5837 141.509 64.6877 141.567 65.8581C141.624 67.0285 141.232 68.1766 140.47 69.067H140.434Z" fill="white"/>
<path d="M176.518 49.1305C175.708 45.7733 174.375 43.3489 172.519 41.8574C170.459 40.2848 167.913 39.4853 165.324 39.5985C162.864 39.5025 160.434 40.1628 158.361 41.4905C156.524 42.7566 155.128 44.7949 154.174 47.6054C153.219 50.4158 152.74 54.104 152.735 58.6698C152.692 61.371 152.897 64.0704 153.346 66.7343C154.037 70.6046 155.32 73.4463 157.195 75.2592C159.071 77.0721 161.708 77.9785 165.109 77.9785C167.604 78.089 170.065 77.3706 172.108 75.9354C173.921 74.5685 175.267 72.4583 176.144 69.6047C177.113 66.0432 177.557 62.3594 177.461 58.6698C177.499 55.465 177.183 52.2658 176.518 49.1305ZM168.605 65.8206C168.516 67.0698 168.094 68.2723 167.382 69.3025C167.101 69.6235 166.751 69.8778 166.359 70.047C165.967 70.2162 165.543 70.2961 165.116 70.2809C164.645 70.296 164.177 70.1886 163.76 69.9692C163.343 69.7498 162.989 69.4259 162.735 69.0291C162.164 68.1946 161.778 66.6959 161.576 64.5329C161.388 62.5844 161.307 60.6271 161.332 58.6698C161.284 56.3384 161.426 54.0071 161.756 51.6988C161.888 50.4768 162.307 49.3034 162.979 48.2744C163.255 47.9487 163.602 47.6914 163.994 47.5229C164.386 47.3543 164.812 47.2792 165.238 47.3032C165.674 47.2812 166.109 47.3668 166.504 47.5525C166.899 47.7382 167.243 48.0182 167.504 48.368C168.175 49.5162 168.571 50.8038 168.663 52.1304C168.89 54.3026 168.993 56.4859 168.972 58.6698C169.002 61.0596 168.87 63.4487 168.576 65.8206H168.605Z" fill="white"/>
<path d="M41.2274 104.352L37.4145 85.4531H27.3789V117.157H34.0334V95.0068L38.4721 117.157H43.3856L47.8315 95.7981V117.157H54.8025V85.4531H45.0762L41.2274 104.352Z" fill="white"/>
<path d="M63.1064 86.6399C61.5355 87.3606 60.219 88.5391 59.3296 90.0211C58.431 91.6249 57.9835 93.4422 58.0346 95.2799C57.9535 97.0221 58.3836 98.7501 59.272 100.251C60.0664 101.495 61.1927 102.491 62.5237 103.129C61.9501 103.27 61.413 103.532 60.948 103.897C60.483 104.261 60.1006 104.72 59.8259 105.244C59.1442 106.732 58.8355 108.364 58.9267 109.999V114.013C58.9401 114.56 58.8598 115.105 58.6893 115.625C58.5652 116.014 58.3271 116.357 58.0059 116.61V117.193H64.9769C65.2979 116.923 65.5454 116.577 65.6963 116.186C65.848 115.707 65.9185 115.206 65.9049 114.704V108.999C65.8764 108.226 65.9936 107.455 66.2502 106.726C66.4489 106.2 66.8361 105.766 67.3365 105.51C67.9861 105.235 68.6893 105.109 69.394 105.143H70.5018V117.193H77.48V85.4529H69.1278C67.0572 85.394 64.9997 85.7995 63.1064 86.6399ZM70.5018 91.5318V99.51H69.4443C68.865 99.5469 68.2841 99.4679 67.7357 99.2777C67.1873 99.0875 66.6822 98.7898 66.2502 98.4021C65.8639 98.0046 65.5636 97.5319 65.3681 97.0133C65.1725 96.4947 65.0859 95.9414 65.1135 95.3878C65.0783 94.8565 65.1592 94.3239 65.3505 93.827C65.5418 93.33 65.839 92.8807 66.2214 92.5102C67.1325 91.7848 68.2827 91.428 69.4443 91.5102L70.5018 91.5318Z" fill="white"/>
<path d="M94.3367 108.022C94.267 108.919 93.9481 109.778 93.4158 110.504C93.1919 110.746 92.9172 110.937 92.6113 111.061C92.3054 111.185 91.9758 111.241 91.6461 111.223C91.2791 111.239 90.9135 111.168 90.5787 111.017C90.2439 110.866 89.9492 110.638 89.7181 110.353C89.1106 109.425 88.7378 108.363 88.6318 107.259C88.4706 106.308 88.3745 105.346 88.3441 104.382C88.2865 103.259 88.2649 102.18 88.2649 101.159C88.2315 99.2159 88.3373 97.2734 88.5814 95.3458C88.6747 94.2525 89.0381 93.1994 89.639 92.2812C89.8721 91.9727 90.1763 91.7252 90.5259 91.5598C90.8754 91.3944 91.2597 91.3161 91.6461 91.3316C91.9907 91.3082 92.3358 91.3679 92.6525 91.5056C92.9692 91.6433 93.2483 91.855 93.4662 92.1229C93.9797 92.971 94.2785 93.9316 94.3367 94.9214C94.4086 95.4897 94.4734 96.2163 94.5237 97.1156C94.5741 98.0148 94.6028 98.8349 94.6028 99.5759H101.473C101.511 97.6681 101.422 95.7599 101.207 93.8639C101.065 91.992 100.543 90.1685 99.6746 88.5043C98.984 87.2228 97.9029 86.1947 96.5884 85.5692C95.0583 84.9237 93.4066 84.6169 91.7468 84.6699C88.1594 84.6699 85.4473 85.9744 83.6104 88.5835C81.7735 91.1925 80.8575 95.3842 80.8623 101.159C80.8408 103.405 80.9996 105.65 81.3371 107.871C81.9078 111.29 83.0085 113.81 84.6391 115.432C86.2698 117.053 88.5862 117.863 91.5885 117.863C93.6069 117.962 95.6094 117.461 97.3437 116.424C98.9105 115.283 100.04 113.641 100.545 111.77C101.319 108.94 101.666 106.011 101.574 103.079H94.5956C94.6285 104.731 94.542 106.383 94.3367 108.022Z" fill="white"/>
<path d="M117.643 98.1362H111.83V85.4531H104.852V117.157H111.83V104.215H117.643V117.157H124.671V85.4531H117.643V98.1362Z" fill="white"/>
<path d="M135.557 102.525V85.4531H128.579V117.157H135.291L141.212 100.179V117.157H148.19V85.4531H141.636L135.557 102.525Z" fill="white"/>
<path d="M164.837 86.4806C164.688 86.9453 164.617 87.4316 164.628 87.9194V93.5236C164.703 94.562 164.382 95.5903 163.729 96.4012C163.343 96.7543 162.888 97.0236 162.393 97.192C161.897 97.3604 161.373 97.4242 160.851 97.3796H159.103V85.4375H152.104V117.149H159.075V103.408H160.823C161.31 103.363 161.801 103.424 162.262 103.588C162.723 103.752 163.143 104.015 163.492 104.358C164.116 105.251 164.406 106.336 164.312 107.422V114.66C164.273 115.119 164.338 115.582 164.503 116.012C164.667 116.443 164.926 116.832 165.261 117.149H172.24V116.609C171.635 116.185 171.34 115.321 171.34 114.019V107.415C171.398 105.724 171.099 104.04 170.463 102.473C170.168 101.829 169.732 101.26 169.188 100.806C168.644 100.353 168.005 100.028 167.319 99.8543C168.015 99.6919 168.671 99.3909 169.248 98.9695C169.825 98.548 170.312 98.0146 170.678 97.4011C171.378 95.8185 171.693 94.093 171.599 92.3653V88.6245C171.586 88.0777 171.666 87.5327 171.837 87.013C171.959 86.6303 172.189 86.2907 172.499 86.0346V85.4519H165.528C165.213 85.7303 164.976 86.0844 164.837 86.4806Z" fill="white"/>
<path d="M188.938 117.164H196.017L189.543 85.4531H180.694L174.032 117.164H180.744L181.643 112.129H188.032L188.938 117.164ZM182.579 106.913L184.802 94.2658L187.082 106.913H182.579Z" fill="white"/>
<path d="M37.9921 58.3965H23.043V62.3964H37.9921V58.3965Z" fill="white"/>
<path d="M198.893 58.3965H183.943V62.3964H198.893V58.3965Z" fill="white"/>
</svg>
