<svg width="191" height="44" viewBox="0 0 191 44" fill="none" xmlns="http://www.w3.org/2000/svg">
<path d="M0.0289307 30.511C1.6919 34.4199 4.46812 37.7533 8.01181 40.0959C11.5555 42.4384 15.7101 43.6867 19.9581 43.6852C18.2951 39.7762 15.5189 36.4429 11.9752 34.1003C8.43148 31.7578 4.27692 30.5095 0.0289307 30.511ZM19.9581 43.6852C23.0776 43.6862 26.1315 42.7885 28.7543 41.0995C31.3771 39.4105 33.4578 37.0017 34.7476 34.1612C31.6464 34.1828 28.6161 35.0909 26.0142 36.7785C23.4123 38.466 21.3474 40.8625 20.0629 43.6852H19.9581Z" fill="#12B36A"/>
<path fill-rule="evenodd" clip-rule="evenodd" d="M19.9581 32.9449C24.2644 33.0284 28.4275 31.3977 31.5315 28.4117C34.6356 25.4257 36.4263 21.3289 36.5098 17.0226C36.5932 12.7163 34.9626 8.55319 31.9766 5.44916C28.9905 2.34512 24.8937 0.554403 20.5874 0.470947H19.9581C15.6518 0.470947 11.5218 2.18163 8.4768 5.22665C5.43178 8.27168 3.7211 12.4016 3.7211 16.7079C3.7211 21.0143 5.43178 25.1442 8.4768 28.1892C11.5218 31.2342 15.6518 32.9449 19.9581 32.9449ZM19.9581 24.8264C22.1112 24.8264 24.1762 23.9711 25.6987 22.4486C27.2212 20.9261 28.0766 18.8611 28.0766 16.7079C28.0766 14.5548 27.2212 12.4898 25.6987 10.9673C24.1762 9.44478 22.1112 8.58944 19.9581 8.58944C17.8049 8.58944 15.74 9.44478 14.2174 10.9673C12.6949 12.4898 11.8396 14.5548 11.8396 16.7079C11.8396 18.8611 12.6949 20.9261 14.2174 22.4486C15.74 23.9711 17.8049 24.8264 19.9581 24.8264Z" fill="#FEBE10"/>
<path d="M19.9572 24.8255C22.1104 24.8255 24.1753 23.9701 25.6979 22.4476C27.2204 20.9251 28.0757 18.8602 28.0757 16.707C28.0757 14.5538 27.2204 12.4889 25.6979 10.9664C24.1753 9.44384 22.1104 8.5885 19.9572 8.5885C17.804 8.5885 15.7391 9.44384 14.2166 10.9664C12.6941 12.4889 11.8387 14.5538 11.8387 16.707C11.8387 18.8602 12.6941 20.9251 14.2166 22.4476C15.7391 23.9701 17.804 24.8255 19.9572 24.8255ZM124.407 16.707H131.204V43.0973H124.407V32.7762H112.554V43.0973H105.757V16.707H112.554V26.4198H124.407V16.707ZM134.413 23.2312H142.804V43.0973H149.58V23.2312H157.972V16.707H134.413V23.2312ZM190.928 37.3074V42.9085C189.611 43.5039 188.178 43.7977 186.732 43.7686C185.413 43.9514 184.072 43.6447 182.963 42.9066C181.853 42.1684 181.053 41.0498 180.712 39.7618V39.9297C179.679 41.215 178.354 42.2343 176.846 42.9023C175.339 43.5702 173.694 43.8673 172.048 43.7686C170.338 43.7887 168.645 43.4413 167.081 42.75C165.518 42.0588 164.121 41.0397 162.985 39.7618C160.502 37.0714 159.163 33.5204 159.251 29.8602C159.14 26.2342 160.441 22.7066 162.88 20.0215C164.011 18.7398 165.403 17.7152 166.962 17.0168C168.522 16.3183 170.213 15.9623 171.922 15.9728C173.497 15.8798 175.072 16.1491 176.527 16.7601C177.982 17.371 179.277 18.3073 180.313 19.4971V16.707H187.11V35.3355C187.11 36.9298 187.844 37.7479 189.208 37.7479C189.811 37.7647 190.407 37.6121 190.928 37.3074ZM180.439 29.8602C180.48 28.878 180.315 27.8982 179.953 26.984C179.592 26.0697 179.043 25.2415 178.341 24.5528C176.936 23.1892 175.055 22.4265 173.097 22.4265C171.139 22.4265 169.258 23.1892 167.852 24.5528C167.161 25.2491 166.619 26.0786 166.258 26.991C165.898 27.9034 165.726 28.8796 165.754 29.8602C165.726 30.8503 165.897 31.836 166.258 32.7586C166.618 33.6812 167.16 34.5219 167.852 35.2306C169.27 36.5702 171.146 37.3165 173.097 37.3165C175.047 37.3165 176.924 36.5702 178.341 35.2306C179.041 34.5277 179.589 33.688 179.95 32.764C180.311 31.84 180.477 30.8515 180.439 29.8602ZM49.746 16.707L49.5572 26.6086C49.6594 29.3788 49.3984 32.1505 48.781 34.853C48.2566 36.9508 47.2286 37.6221 45.6553 37.6221C45.1793 37.6432 44.7033 37.5793 44.2498 37.4333V43.0973C45.0587 43.434 45.935 43.5776 46.8091 43.5169C48.7338 43.6407 50.637 43.0531 52.1569 41.8658C53.6769 40.6785 54.7077 38.9741 55.0534 37.0766C55.7767 34.3377 56.1503 31.5182 56.1653 28.6854L56.3121 23.336H64.7033V43.0973H71.5002V16.707H49.746ZM82.4717 31.6433C83.185 36.1326 86.6673 37.6221 90.3804 37.6221C92.7365 37.6198 95.0166 36.788 96.8207 35.2725L101.016 39.4681C99.6386 40.9062 97.9639 42.0265 96.1089 42.7511C94.2539 43.4758 92.2632 43.7872 90.2755 43.6638C83.6045 43.6638 75.5909 39.7409 75.5909 29.7553C75.5909 19.7698 83.3318 15.8679 89.8979 15.8679C98.2891 15.8679 101.646 19.7698 101.646 24.1542C101.688 31.4126 92.6041 34.7061 82.5347 31.6433H82.4717ZM94.4292 25.0353C94.4292 22.9375 92.3314 22.0774 90.2336 22.0774C88.5812 21.9051 86.9226 22.3402 85.5676 23.3015C84.2125 24.2628 83.2537 25.6844 82.8703 27.3009C89.7301 29.3358 94.4292 27.8044 94.4292 25.0353Z" fill="#003C96"/>
</svg>
