<svg width="22" height="21" viewBox="0 0 22 21" fill="none" xmlns="http://www.w3.org/2000/svg">
<path d="M11.9473 1.63168C11.9473 0.759655 12.6542 0.0527344 13.5262 0.0527344H16.8946C19.1038 0.0527344 20.8946 1.84359 20.8946 4.05273V7.42115C20.8946 8.29318 20.1877 9.0001 19.3157 9.0001H12.9473C12.395 9.0001 11.9473 8.55239 11.9473 8.0001V1.63168Z" fill="#472D78"/>
<path d="M8.94727 1.63168C8.94727 0.759655 8.24035 0.0527344 7.36832 0.0527344H3.9999C1.79076 0.0527344 -0.000102997 1.84359 -0.000102997 4.05273V7.42115C-0.000102997 8.29318 0.706816 9.0001 1.57884 9.0001H7.94726C8.49955 9.0001 8.94727 8.55239 8.94727 8.0001V1.63168Z" fill="#472D78"/>
<path d="M12.3948 19.3686C12.3948 20.2406 13.1017 20.9475 13.9737 20.9475H17.3421C19.5513 20.9475 21.3421 19.1566 21.3421 16.9475V13.5791C21.3421 12.7071 20.6352 12.0001 19.7632 12.0001H13.3948C12.8425 12.0001 12.3948 12.4479 12.3948 13.0001V19.3686Z" fill="#472D78"/>
<path d="M9.39478 19.3686C9.39478 20.2406 8.68786 20.9475 7.81583 20.9475H4.44741C2.23827 20.9475 0.447407 19.1566 0.447407 16.9475V13.5791C0.447407 12.7071 1.15433 12.0001 2.02635 12.0001H8.39477C8.94706 12.0001 9.39478 12.4479 9.39478 13.0001V19.3686Z" fill="#472D78"/>
</svg>
