<svg width="126" height="109" viewBox="0 0 126 109" fill="none" xmlns="http://www.w3.org/2000/svg">
<path d="M122.202 24.1821L67.01 0.739067C65.8546 0.251302 64.6131 0 63.359 0C62.1048 0 60.8633 0.251302 59.7079 0.739067L3.68796 24.1903C2.59369 24.653 1.66017 25.428 1.00419 26.4186C0.348214 27.4091 -0.00108431 28.5711 7.58958e-06 29.7591V69.0358C-0.00188623 70.2299 0.35068 71.3977 1.01305 72.3912C1.67541 73.3848 2.61777 74.1594 3.72074 74.6169L58.5196 97.2199H58.5687L63.3631 99.2032L86.0235 108.546L76.7913 93.5893L122.174 74.6169C123.272 74.1567 124.21 73.3822 124.87 72.3907C125.53 71.3992 125.882 70.2349 125.882 69.044V29.7059C125.875 28.5264 125.523 27.3749 124.869 26.3933C124.215 25.4117 123.288 24.643 122.202 24.1821Z" fill="#462B74"/>
<path d="M25.0625 74.2971V72.031H24.1405V71.5762H26.4844V72.031H25.5624V74.2971H25.0625Z" fill="white"/>
<path d="M28.1229 74.2971L29.1556 71.5762H29.6842L30.7168 74.2971H30.1472L29.9095 73.6086H28.8974L28.6597 74.2971H28.1229ZM29.0408 73.1825H29.762L29.4055 72.1294L29.0408 73.1825Z" fill="white"/>
<path d="M32.9209 74.2971L33.052 71.5762H33.5274L34.2813 72.8629L35.0271 71.5762H35.4984L35.6295 74.2971H35.1296L35.0394 72.4121L34.3838 73.5226H34.1461L33.4864 72.4408L33.3962 74.2971H32.9209Z" fill="white"/>
<path d="M38.0877 74.2971V71.5762H39.7268V72.0187H38.5671V72.6088H38.9974C39.1687 72.6064 39.3387 72.6385 39.4973 72.703C39.6375 72.7631 39.7581 72.861 39.8456 72.9858C39.9313 73.1201 39.9742 73.2773 39.9686 73.4365C39.9683 73.5785 39.936 73.7185 39.8743 73.8463C39.8024 73.9847 39.6912 74.0988 39.5547 74.1741C39.3729 74.2684 39.1691 74.3122 38.9646 74.3012L38.0877 74.2971ZM38.9769 73.0432H38.5671V73.8627H38.9769C39.1025 73.8684 39.2264 73.8324 39.3293 73.7603C39.3754 73.7241 39.4118 73.6771 39.4354 73.6235C39.459 73.5699 39.469 73.5113 39.4645 73.4529C39.4679 73.3941 39.4575 73.3352 39.434 73.2811C39.4105 73.227 39.3746 73.1792 39.3293 73.1415C39.2261 73.0703 39.1021 73.0357 38.9769 73.0432Z" fill="white"/>
<path d="M43.6444 74.3721C43.453 74.3739 43.2633 74.3363 43.0871 74.2615C42.9183 74.1876 42.7652 74.0819 42.6364 73.9501C42.3732 73.6789 42.2262 73.3158 42.2266 72.9379C42.2248 72.7465 42.2625 72.5568 42.3373 72.3807C42.4055 72.2097 42.5068 72.054 42.6355 71.9225C42.7643 71.791 42.9177 71.6863 43.0871 71.6144C43.2632 71.5414 43.4518 71.5039 43.6424 71.5039C43.8329 71.5039 44.0216 71.5414 44.1976 71.6144C44.3669 71.6857 44.5201 71.7902 44.6484 71.9217C44.7779 72.0539 44.8808 72.2097 44.9516 72.3807C45.0231 72.5577 45.0592 72.747 45.0582 72.9379C45.0588 73.1288 45.0227 73.3181 44.9516 73.4952C44.8808 73.665 44.7778 73.8194 44.6484 73.9501C44.5175 74.0828 44.361 74.1875 44.1884 74.258C44.0159 74.3284 43.8308 74.3631 43.6444 74.3598V74.3721ZM43.6444 73.8886C43.8089 73.891 43.9702 73.8439 44.1075 73.7534C44.2376 73.6645 44.3422 73.5429 44.4107 73.401C44.4847 73.2535 44.5227 73.0906 44.5214 72.9256C44.5231 72.7598 44.4866 72.5958 44.4148 72.4462C44.3471 72.3059 44.2422 72.1869 44.1116 72.102C43.9727 72.0122 43.8098 71.9664 43.6444 71.9709C43.4791 71.9664 43.3162 72.0122 43.1773 72.102C43.0454 72.1866 42.9392 72.3056 42.87 72.4462C42.8025 72.5963 42.7675 72.759 42.7675 72.9236C42.7675 73.0882 42.8025 73.2509 42.87 73.401C42.94 73.5432 43.0459 73.6647 43.1773 73.7534C43.3157 73.8447 43.4786 73.8918 43.6444 73.8886Z" fill="white"/>
<path d="M47.4434 74.2972V71.5763H48.3776C48.5438 71.5718 48.7089 71.604 48.8612 71.6706C48.9824 71.7243 49.0851 71.8127 49.1562 71.9246C49.2252 72.0321 49.2608 72.1576 49.2586 72.2852C49.2613 72.3716 49.243 72.4574 49.2054 72.5352C49.176 72.6001 49.1343 72.6585 49.0824 72.7073C49.0401 72.7496 48.9918 72.7855 48.939 72.8139C48.9039 72.8344 48.8648 72.847 48.8243 72.8507C48.883 72.86 48.9407 72.8751 48.9964 72.8958C49.0649 72.9239 49.1285 72.9626 49.1849 73.0105C49.2481 73.0676 49.2984 73.1374 49.3324 73.2154C49.3761 73.3104 49.3971 73.4142 49.3939 73.5187C49.4015 73.6726 49.3565 73.8246 49.2664 73.9496C49.1764 74.0747 49.0465 74.1655 48.8981 74.2071C48.7294 74.2582 48.5539 74.2831 48.3776 74.2808L47.4434 74.2972ZM47.9351 72.6581H48.3449C48.444 72.6589 48.5415 72.6335 48.6276 72.5844C48.6709 72.5577 48.7058 72.5193 48.7283 72.4736C48.7508 72.4279 48.7599 72.3768 48.7546 72.3262C48.759 72.2566 48.737 72.1879 48.6932 72.1336C48.6515 72.0878 48.5974 72.055 48.5375 72.0394C48.4751 72.0199 48.4102 72.0102 48.3449 72.0107H47.9351V72.6581ZM47.9351 73.8588H48.3736H48.5334C48.5916 73.8539 48.6485 73.8387 48.7014 73.8137C48.7549 73.7883 48.8003 73.7486 48.8325 73.699C48.8672 73.6349 48.8841 73.5628 48.8817 73.49C48.887 73.4005 48.8576 73.3125 48.7997 73.2441C48.7441 73.1867 48.6728 73.1468 48.5948 73.1294C48.5226 73.1103 48.4482 73.1007 48.3736 73.1007H47.9351V73.8588Z" fill="white"/>
<path d="M53.8278 73.49L54.1883 73.8014C54.1174 73.8961 54.0348 73.9815 53.9425 74.0554C53.8244 74.1471 53.6932 74.2203 53.5532 74.2726C53.3996 74.3343 53.2352 74.3649 53.0697 74.3628C52.8183 74.3675 52.5704 74.3038 52.3526 74.1784C52.1443 74.0602 51.9738 73.8855 51.8608 73.6744C51.759 73.4778 51.6998 73.2619 51.6871 73.0409C51.6744 72.8199 51.7085 72.5987 51.7871 72.3918C51.8535 72.2224 51.9508 72.0668 52.0739 71.9328C52.1984 71.8007 52.3492 71.696 52.5165 71.6255C52.6959 71.5467 52.8902 71.5075 53.0861 71.5108C53.3204 71.5028 53.5525 71.558 53.7581 71.6706C53.927 71.7691 54.0735 71.9017 54.1883 72.0599L53.8237 72.3795C53.7429 72.2611 53.6399 72.1595 53.5204 72.0803C53.3905 71.9993 53.2391 71.9593 53.0861 71.9656C52.9227 71.9614 52.7621 72.0087 52.6271 72.1008C52.4961 72.1895 52.3925 72.3129 52.328 72.4573C52.2579 72.6088 52.2229 72.774 52.2255 72.9409C52.2225 73.1038 52.2576 73.2652 52.328 73.4121C52.3938 73.5488 52.494 73.6661 52.6189 73.7522C52.7513 73.836 52.9048 73.8801 53.0615 73.8793C53.192 73.8834 53.3219 73.8597 53.4426 73.8096C53.5283 73.7671 53.607 73.7119 53.6761 73.6457L53.8278 73.49Z" fill="white"/>
<path d="M56.9997 73.1216V74.2976H56.4834V71.5767H56.9997V72.6667H57.2169C57.308 72.6704 57.3981 72.6461 57.4751 72.5971C57.5455 72.5377 57.6039 72.4654 57.6471 72.384L58.1102 71.5645H58.6757L58.1348 72.4823C58.0859 72.574 58.0206 72.656 57.9422 72.7241C57.8736 72.7856 57.7945 72.8342 57.7086 72.8675C57.7774 72.8881 57.8435 72.917 57.9053 72.9536C57.9584 72.988 58.0055 73.0309 58.0446 73.0806C58.0936 73.1411 58.1374 73.2055 58.1758 73.2732L58.7904 74.2853H58.1799L57.6717 73.4166C57.6263 73.3285 57.5652 73.2494 57.4914 73.1831C57.4192 73.1302 57.3308 73.1041 57.2415 73.1093L56.9997 73.1216Z" fill="white"/>
<path d="M60.953 74.2971L61.9856 71.5762H62.5183L63.551 74.2971H62.9773L62.7437 73.6086H61.7234L61.4857 74.2971H60.953ZM61.8709 73.1825H62.5962L62.2356 72.1294L61.8709 73.1825Z" fill="white"/>
<path d="M67.6907 71.575V74.2959H67.199V73.2223H67.0228C66.9645 73.22 66.9067 73.2327 66.8548 73.2592C66.8051 73.2887 66.763 73.3294 66.7318 73.378C66.6836 73.4468 66.6411 73.5194 66.6048 73.5952L66.2442 74.2959H65.6787L66.0885 73.5337C66.1403 73.4335 66.2021 73.3388 66.2729 73.251C66.3204 73.1949 66.3809 73.1513 66.4491 73.1239C66.3371 73.1046 66.2316 73.0582 66.1418 72.9887C66.0472 72.9166 65.9706 72.8236 65.918 72.717C65.8654 72.6103 65.8382 72.493 65.8385 72.3741C65.8398 72.2378 65.875 72.104 65.941 71.9848C66.0167 71.8605 66.1242 71.7587 66.2524 71.6897C66.4146 71.6075 66.5951 71.568 66.7769 71.575H67.6907ZM66.7851 72.8043H67.1949V72.0176H66.7851C66.7311 72.0156 66.6772 72.0244 66.6265 72.0434C66.5759 72.0624 66.5295 72.0912 66.4901 72.1282C66.4519 72.1644 66.4219 72.2084 66.4021 72.2571C66.3823 72.3059 66.3732 72.3584 66.3753 72.4109C66.3746 72.5139 66.4126 72.6134 66.4819 72.6896C66.5223 72.7276 66.57 72.757 66.6221 72.776C66.6743 72.795 66.7297 72.8033 66.7851 72.8002V72.8043Z" fill="white"/>
<path d="M74.1483 74.3702C73.9569 74.372 73.7672 74.3343 73.591 74.2596C73.4222 74.1857 73.2691 74.0799 73.1403 73.9481C73.0122 73.8164 72.9094 73.6622 72.837 73.4933C72.766 73.3161 72.7298 73.1269 72.7305 72.936C72.7294 72.7451 72.7656 72.5558 72.837 72.3787C72.9093 72.2085 73.012 72.053 73.1403 71.9198C73.2693 71.7892 73.4223 71.6848 73.591 71.6124C73.767 71.5395 73.9557 71.502 74.1463 71.502C74.3368 71.502 74.5255 71.5395 74.7015 71.6124C74.8702 71.6848 75.0232 71.7892 75.1522 71.9198C75.2817 72.0519 75.3847 72.2077 75.4555 72.3787C75.5269 72.5558 75.5631 72.7451 75.562 72.936C75.5627 73.1269 75.5265 73.3161 75.4555 73.4933C75.3112 73.8356 75.0415 74.1098 74.7015 74.2596C74.5266 74.3339 74.3383 74.3715 74.1483 74.3702ZM74.1483 73.8867C74.3127 73.8891 74.4741 73.8419 74.6114 73.7514C74.7415 73.6625 74.8461 73.541 74.9146 73.399C74.9886 73.2516 75.0265 73.0887 75.0252 72.9237C75.0269 72.7578 74.9905 72.5938 74.9187 72.4443C74.851 72.304 74.7461 72.1849 74.6154 72.1001C74.4765 72.0102 74.3137 71.9645 74.1483 71.9689C73.9829 71.9645 73.8201 72.0102 73.6812 72.1001C73.5493 72.1847 73.443 72.3037 73.3738 72.4443C73.3037 72.5936 73.2673 72.7566 73.2673 72.9216C73.2673 73.0867 73.3037 73.2497 73.3738 73.399C73.4438 73.5413 73.5498 73.6628 73.6812 73.7514C73.8196 73.8427 73.9825 73.8899 74.1483 73.8867Z" fill="white"/>
<path d="M77.9473 74.2971V71.5762H79.5864V72.0187H78.4267V72.6088H78.8611C79.031 72.6068 79.1995 72.6389 79.3569 72.703C79.497 72.7631 79.6176 72.861 79.7052 72.9858C79.7921 73.1198 79.8364 73.2769 79.8322 73.4365C79.8324 73.579 79.7987 73.7195 79.7339 73.8463C79.6618 73.9832 79.5524 74.0968 79.4183 74.1741C79.2362 74.2675 79.0327 74.3113 78.8283 74.3012L77.9473 74.2971ZM78.8324 73.0432H78.4226V73.8627H78.8324C78.958 73.869 79.0821 73.8329 79.1848 73.7603C79.2308 73.7241 79.2673 73.6771 79.2908 73.6235C79.3144 73.5699 79.3244 73.5113 79.32 73.4529C79.3234 73.3941 79.3129 73.3352 79.2894 73.2811C79.2659 73.227 79.2301 73.1792 79.1848 73.1415C79.0819 73.0697 78.9576 73.035 78.8324 73.0432Z" fill="white"/>
<path d="M82.6914 71.5762H84.4903V74.2971H83.974V72.0351H83.1545C83.1403 72.4567 83.0896 72.8762 83.0028 73.289C82.9561 73.5722 82.8328 73.8372 82.6463 74.0553C82.5589 74.1419 82.4543 74.2093 82.3393 74.2531C82.2243 74.2968 82.1013 74.316 81.9784 74.3094H81.9128V73.8504C82.0355 73.8527 82.1549 73.8105 82.2489 73.7316C82.3553 73.6275 82.433 73.4976 82.4742 73.3546C82.5441 73.1277 82.5908 72.8943 82.6136 72.658C82.6545 72.3629 82.675 72.0023 82.6914 71.5762Z" fill="white"/>
<path d="M86.7197 74.2971L87.7523 71.5762H88.2851L89.3177 74.2971H88.7686L88.5309 73.6086H87.5229L87.2852 74.2971H86.7197ZM87.6376 73.1825H88.3588L87.9982 72.1294L87.6376 73.1825Z" fill="white"/>
<path d="M93.5181 73.4898L93.8787 73.8013C93.8102 73.8979 93.7273 73.9836 93.6329 74.0553C93.5163 74.147 93.3864 74.2202 93.2477 74.2725C93.0926 74.3342 92.9269 74.3648 92.7601 74.3626C92.5087 74.3674 92.2608 74.3036 92.043 74.1782C91.8368 74.0588 91.6679 73.8843 91.5553 73.6742C91.4354 73.4531 91.3747 73.2046 91.3791 72.953C91.3777 72.7615 91.4111 72.5713 91.4775 72.3916C91.5438 72.2212 91.6426 72.0654 91.7684 71.9327C91.8929 71.8005 92.0437 71.6959 92.211 71.6254C92.3889 71.5465 92.5819 71.5074 92.7765 71.5106C93.0108 71.5021 93.2431 71.5573 93.4485 71.6704C93.6174 71.769 93.7639 71.9015 93.8787 72.0597L93.514 72.3794C93.4333 72.2609 93.3303 72.1593 93.2108 72.0802C93.0811 71.9987 92.9295 71.9587 92.7765 71.9655C92.6131 71.9618 92.4527 72.0091 92.3175 72.1007C92.1865 72.1893 92.0829 72.3128 92.0184 72.4572C91.9483 72.6086 91.9133 72.7739 91.9159 72.9407C91.9129 73.1037 91.948 73.265 92.0184 73.412C92.0843 73.5499 92.1862 73.6674 92.3134 73.7521C92.4436 73.8373 92.5963 73.8815 92.7519 73.8791C92.8825 73.8841 93.0126 73.8603 93.133 73.8095C93.2198 73.7689 93.2989 73.7134 93.3665 73.6455L93.5181 73.4898Z" fill="white"/>
<path d="M96.9064 74.2971V72.031H95.9844V71.5762H98.3406V72.031H97.4186V74.2971H96.9064Z" fill="white"/>
<path d="M100.652 74.2971V71.5762H101.144V72.5268H101.578C101.749 72.5235 101.919 72.5585 102.074 72.6293C102.215 72.6915 102.336 72.7924 102.423 72.9202C102.511 73.0624 102.556 73.228 102.55 73.3956C102.548 73.5055 102.53 73.6147 102.496 73.7193C102.459 73.8281 102.401 73.9285 102.324 74.0143C102.239 74.1068 102.132 74.1771 102.013 74.2192C101.864 74.2752 101.705 74.3016 101.546 74.2971H100.652ZM101.537 72.9612H101.128V73.8668H101.537C101.664 73.8724 101.789 73.8332 101.89 73.7562C101.976 73.6648 102.024 73.5439 102.024 73.4181C102.024 73.2923 101.976 73.1714 101.89 73.08C101.839 73.0397 101.78 73.0099 101.718 72.9923C101.655 72.9747 101.59 72.9697 101.525 72.9776L101.537 72.9612Z" fill="white"/>
<path d="M34.2281 37.9094C34.1808 38.5018 33.9694 39.0694 33.6176 39.5485C33.4704 39.7102 33.2896 39.8376 33.0878 39.9219C32.886 40.0061 32.6682 40.0451 32.4497 40.0361C32.2081 40.0451 31.9676 39.998 31.7472 39.8984C31.5268 39.7989 31.3325 39.6497 31.1794 39.4624C30.7806 38.8467 30.536 38.1439 30.4664 37.4136C30.362 36.7914 30.2977 36.1631 30.2738 35.5327C30.2411 34.791 30.2247 34.0821 30.2247 33.4101C30.2042 32.1296 30.2741 30.8493 30.4337 29.5787C30.4962 28.8583 30.7355 28.1644 31.1303 27.5585C31.2836 27.3559 31.4837 27.1934 31.7134 27.0849C31.9432 26.9765 32.1959 26.9253 32.4497 26.9357C32.6775 26.9196 32.9059 26.9585 33.1155 27.0491C33.3252 27.1396 33.51 27.2792 33.6545 27.4561C33.9899 28.0163 34.1866 28.6485 34.2281 29.3001C34.2732 29.673 34.3142 30.1524 34.347 30.7466C34.3798 31.3407 34.4003 31.8775 34.4003 32.3652H38.9282C38.9512 31.1088 38.8923 29.8522 38.752 28.6035C38.6557 27.3705 38.3129 26.1694 37.744 25.0712C37.2814 24.2271 36.5645 23.5503 35.6951 23.1371C34.6875 22.7126 33.5999 22.5112 32.5071 22.547C30.1441 22.547 28.3575 23.4062 27.1473 25.1245C25.9371 26.8428 25.3334 29.6047 25.3361 33.4101C25.3227 34.89 25.4282 36.3685 25.6516 37.8315C26.0204 40.0825 26.7457 41.7421 27.8275 42.8103C28.9093 43.8784 30.435 44.4111 32.4047 44.4084C33.9823 44.4084 35.2485 44.0928 36.1992 43.4536C37.231 42.7027 37.9744 41.621 38.3054 40.3885C38.7561 38.9816 38.9829 37.0694 38.9856 34.6517H34.4003C34.4192 35.7403 34.3616 36.8288 34.2281 37.9094Z" fill="white"/>
<path d="M41.6776 37.6322C41.6961 38.1944 41.5539 38.7501 41.2678 39.2344C41.1294 39.3789 40.9604 39.4907 40.7732 39.5616C40.5861 39.6325 40.3855 39.6607 40.186 39.6442H40.0508V43.9263H41.4399C42.2612 43.9543 43.0796 43.8149 43.8453 43.5165C44.4552 43.2424 44.9476 42.7602 45.2344 42.1561C45.6146 41.3059 45.8275 40.3905 45.8614 39.4598L46.8653 27.31H49.0658V43.914H53.6962V23.0156H42.8249L41.6776 37.6322Z" fill="white"/>
<path d="M67.1449 23.8415C65.9719 22.9458 64.5217 22.4904 63.0472 22.5548C61.6459 22.4996 60.2613 22.8758 59.0806 23.6325C58.037 24.3537 57.2421 25.5148 56.6957 27.1156C56.1494 28.7165 55.8762 30.8172 55.8762 33.4179C55.8519 34.9565 55.9685 36.4941 56.2245 38.0114C56.6179 40.216 57.3486 41.8346 58.4168 42.8673C59.4849 43.8999 60.9874 44.4162 62.9242 44.4162C64.3453 44.4791 65.7473 44.0699 66.9113 43.2524C67.944 42.4739 68.7102 41.2719 69.2101 39.6464C69.7583 37.6172 70.0096 35.5192 69.9559 33.4179C69.983 31.5931 69.8085 29.7708 69.4355 27.9843C68.9657 26.083 68.2021 24.702 67.1449 23.8415ZM64.8994 37.491C64.8499 38.2034 64.6077 38.889 64.1986 39.4743C64.0387 39.6566 63.8404 39.8011 63.6179 39.8975C63.3954 39.9939 63.1543 40.0397 62.912 40.0316C62.6435 40.0402 62.3775 39.979 62.1397 39.8541C61.902 39.7291 61.7007 39.5446 61.5556 39.3186C61.2333 38.8433 61.0134 37.9896 60.8959 36.7575C60.7888 35.6477 60.7423 34.5328 60.7566 33.4179C60.7292 32.09 60.8101 30.762 60.9983 29.4472C61.0734 28.7512 61.3121 28.0828 61.6949 27.4967C61.8515 27.3107 62.0494 27.1638 62.2728 27.0677C62.4961 26.9717 62.7389 26.9291 62.9816 26.9435C63.23 26.931 63.4777 26.9797 63.7028 27.0855C63.9279 27.1913 64.1235 27.3508 64.2724 27.55C64.6544 28.204 64.8802 28.9374 64.9321 29.6931C65.0598 30.9304 65.1172 32.174 65.1042 33.4179C65.1279 34.7787 65.0594 36.1395 64.8994 37.491Z" fill="white"/>
<path d="M82.9129 33.5044C82.5624 33.3071 82.1932 33.1451 81.8106 33.0209C81.9459 32.9635 82.0811 32.9102 82.2204 32.8447C82.9589 32.4791 83.5889 31.9268 84.048 31.2425C84.5572 30.4618 84.8133 29.5432 84.7815 28.6117C84.7955 27.8522 84.6382 27.0993 84.321 26.409C84.0039 25.7187 83.5352 25.1088 82.9498 24.6246C81.7287 23.5674 79.8424 23.0388 77.2908 23.0388H72.1728V43.9372H79.1717C81.3968 43.9372 83.0072 43.4004 83.9906 42.2981C85.0076 41.1599 85.545 39.6725 85.4904 38.1471C85.5082 37.1946 85.2811 36.2534 84.8307 35.4139C84.3812 34.6116 83.7171 33.9504 82.9129 33.5044ZM77.5326 27.0464C78.2522 26.9973 78.9664 27.2001 79.5528 27.6201C79.7928 27.8355 79.9803 28.1029 80.101 28.4019C80.2218 28.7009 80.2725 29.0236 80.2494 29.3452C80.2622 29.6588 80.2082 29.9714 80.0909 30.2625C79.9736 30.5536 79.7958 30.8164 79.5692 31.0335C79.0116 31.4998 78.2944 31.7306 77.5695 31.6768H76.7704V27.0464H77.5326ZM79.9912 39.3396C79.5733 39.7329 78.9108 39.9296 78.0039 39.9296H76.7745V35.0943H77.4671C78.512 35.0943 79.3028 35.3115 79.8355 35.754C80.3171 36.2163 80.6035 36.8451 80.6363 37.5118C80.6691 38.1784 80.4456 38.8324 80.0117 39.3396H79.9912Z" fill="white"/>
<path d="M100.545 27.9843C100.084 26.0721 99.3242 24.6911 98.267 23.8415C97.094 22.9458 95.6437 22.4904 94.1693 22.5548C92.768 22.5002 91.3836 22.8763 90.2027 23.6325C89.1564 24.3537 88.3614 25.5148 87.8178 27.1156C87.2742 28.7165 87.001 30.8172 86.9982 33.4179C86.974 34.9565 87.0906 36.4941 87.3466 38.0114C87.7399 40.216 88.4707 41.8346 89.5388 42.8673C90.607 43.8999 92.1095 44.4162 94.0463 44.4162C95.4674 44.4791 96.8693 44.0699 98.0334 43.2524C99.066 42.4739 99.8323 41.2719 100.332 39.6464C100.884 37.6178 101.137 35.5195 101.082 33.4179C101.104 31.5925 100.924 29.7702 100.545 27.9843ZM96.0378 37.491C95.9874 38.2026 95.7468 38.8875 95.3412 39.4743C95.1809 39.6572 94.9819 39.802 94.7586 39.8984C94.5353 39.9948 94.2935 40.0403 94.0504 40.0316C93.782 40.0402 93.5159 39.979 93.2782 39.8541C93.0405 39.7291 92.8392 39.5446 92.6941 39.3186C92.369 38.8433 92.1491 37.9896 92.0343 36.7575C91.9273 35.6477 91.8808 34.5328 91.895 33.4179C91.8677 32.09 91.9485 30.762 92.1368 29.4472C92.2119 28.7512 92.4506 28.0828 92.8334 27.4967C92.9904 27.3112 93.1883 27.1646 93.4116 27.0686C93.6349 26.9726 93.8774 26.9298 94.1201 26.9435C94.3685 26.931 94.6161 26.9797 94.8412 27.0855C95.0663 27.1913 95.262 27.3508 95.4109 27.55C95.7929 28.204 96.0187 28.9374 96.0706 29.6931C96.1999 30.9303 96.2587 32.174 96.2468 33.4179C96.264 34.7792 96.1887 36.14 96.0214 37.491H96.0378Z" fill="white"/>
<path d="M23.4838 59.4385L21.312 48.6738H15.5957V66.7325H19.3861V54.1156L21.9144 66.7325H24.7131L27.2455 54.5664V66.7325H31.2162V48.6738H25.6761L23.4838 59.4385Z" fill="white"/>
<path d="M35.9453 49.3512C35.0505 49.7617 34.3006 50.433 33.794 51.2771C33.2822 52.1907 33.0273 53.2258 33.0564 54.2726C33.0102 55.2649 33.2552 56.2492 33.7612 57.1041C34.2137 57.8125 34.8553 58.3802 35.6134 58.7432C35.2867 58.8239 34.9808 58.9731 34.7159 59.1808C34.451 59.3884 34.2332 59.6499 34.0768 59.9479C33.6884 60.7957 33.5126 61.7254 33.5645 62.6565V64.943C33.5722 65.2545 33.5265 65.5649 33.4293 65.8609C33.3586 66.0828 33.223 66.2783 33.04 66.4223V66.7542H37.0107C37.1936 66.6007 37.3346 66.4033 37.4205 66.1805C37.5069 65.9078 37.5471 65.6224 37.5393 65.3364V62.0869C37.5231 61.6468 37.5898 61.2075 37.736 60.792C37.8492 60.4924 38.0698 60.2456 38.3548 60.0995C38.7248 59.9429 39.1254 59.8715 39.5267 59.8905H40.1578V66.7542H44.1326V48.6751H39.3751C38.1957 48.6415 37.0238 48.8725 35.9453 49.3512ZM40.1578 52.1376V56.682H39.5554C39.2254 56.703 38.8946 56.6581 38.5822 56.5497C38.2698 56.4414 37.9821 56.2718 37.736 56.051C37.516 55.8246 37.345 55.5553 37.2336 55.2599C37.1222 54.9645 37.0728 54.6493 37.0886 54.334C37.0685 54.0314 37.1146 53.728 37.2236 53.445C37.3325 53.1619 37.5018 52.906 37.7196 52.6949C38.2386 52.2818 38.8937 52.0785 39.5554 52.1254L40.1578 52.1376Z" fill="white"/>
<path d="M53.7337 61.5292C53.6941 62.0401 53.5124 62.5297 53.2092 62.9429C53.0817 63.0811 52.9252 63.1895 52.751 63.2603C52.5767 63.3312 52.389 63.3627 52.2012 63.3526C51.9922 63.3615 51.7839 63.3212 51.5932 63.2351C51.4025 63.149 51.2346 63.0195 51.103 62.8568C50.757 62.3283 50.5446 61.7236 50.4843 61.0948C50.3925 60.5528 50.3377 60.0052 50.3204 59.4557C50.2876 58.8165 50.2753 58.2018 50.2753 57.6199C50.2562 56.5134 50.3165 55.4069 50.4556 54.309C50.5087 53.6862 50.7157 53.0864 51.0579 52.5633C51.1907 52.3876 51.364 52.2466 51.5631 52.1524C51.7622 52.0582 51.9811 52.0136 52.2012 52.0224C52.3975 52.0091 52.594 52.0431 52.7744 52.1216C52.9548 52.2 53.1138 52.3206 53.2379 52.4732C53.5304 52.9563 53.7006 53.5034 53.7337 54.0672C53.7747 54.3909 53.8116 54.8048 53.8403 55.317C53.869 55.8292 53.8854 56.2964 53.8854 56.7184H57.7987C57.8203 55.6317 57.7696 54.5448 57.6471 53.4648C57.5661 52.3986 57.2691 51.36 56.7743 50.412C56.3809 49.6821 55.7651 49.0965 55.0163 48.7402C54.1448 48.3725 53.204 48.1978 52.2586 48.228C50.2152 48.228 48.6703 48.971 47.624 50.4571C46.5778 51.9432 46.056 54.3308 46.0587 57.6199C46.0465 58.8995 46.1369 60.178 46.3292 61.4431C46.6542 63.3909 47.2812 64.8265 48.21 65.7498C49.1388 66.6732 50.4583 67.1348 52.1684 67.1348C53.3181 67.1912 54.4587 66.906 55.4466 66.3153C56.339 65.6654 56.9825 64.7299 57.2701 63.6641C57.7109 62.0525 57.9084 60.384 57.8561 58.714H53.8813C53.9 59.6547 53.8507 60.5956 53.7337 61.5292Z" fill="white"/>
<path d="M67.0094 55.8981H63.6984V48.6738H59.7236V66.7325H63.6984V59.3607H67.0094V66.7325H71.0129V48.6738H67.0094V55.8981Z" fill="white"/>
<path d="M77.214 58.3977V48.6738H73.2393V66.7325H77.0624L80.4349 57.0619V66.7325H84.4096V48.6738H80.6766L77.214 58.3977Z" fill="white"/>
<path d="M93.8916 49.2602C93.8068 49.5249 93.7667 49.8018 93.7728 50.0797V53.2719C93.8156 53.8633 93.6325 54.4491 93.2606 54.9109C93.0407 55.1121 92.7816 55.2655 92.4995 55.3614C92.2173 55.4573 91.9184 55.4937 91.6215 55.4682H90.6258V48.666H86.6387V66.7288H90.6094V58.9021H91.6051C91.8826 58.8761 92.1624 58.9111 92.425 59.0045C92.6876 59.0979 92.9266 59.2476 93.1254 59.443C93.481 59.9521 93.6464 60.57 93.5925 61.1887V65.311C93.5704 65.5727 93.6076 65.8361 93.7013 66.0816C93.7949 66.327 93.9426 66.5482 94.1334 66.7288H98.1082V66.4214C97.764 66.1797 97.596 65.688 97.596 64.9463V61.1846C97.6289 60.2215 97.4586 59.2623 97.0961 58.3694C96.9282 58.0027 96.6801 57.6783 96.3702 57.4202C96.0603 57.162 95.6964 56.9767 95.3054 56.8779C95.7018 56.7853 96.0755 56.6139 96.4043 56.3738C96.7331 56.1338 97.0101 55.83 97.219 55.4805C97.6173 54.579 97.797 53.5962 97.7435 52.6121V50.4813C97.7359 50.1699 97.7816 49.8594 97.8787 49.5634C97.9485 49.3454 98.0793 49.152 98.2557 49.0061V48.6742H94.285C94.1061 48.8328 93.9706 49.0345 93.8916 49.2602Z" fill="white"/>
<path d="M107.619 66.7366H111.652L107.964 48.6738H102.923L99.1289 66.7366H102.952L103.464 63.8682H107.103L107.619 66.7366ZM103.997 60.8973L105.263 53.6935L106.562 60.8973H103.997Z" fill="white"/>
<path d="M21.6401 33.2617H13.125V35.5401H21.6401V33.2617Z" fill="white"/>
<path d="M113.289 33.2617H104.774V35.5401H113.289V33.2617Z" fill="white"/>
</svg>
