<svg width="222" height="33" viewBox="0 0 222 33" fill="none" xmlns="http://www.w3.org/2000/svg">
<path d="M12.3643 28.3244H16.5555V4.26404H10.4628C4.34417 4.26404 1.12319 7.40741 1.12319 12.0254C1.12319 15.7251 2.88244 17.9112 6.03875 20.162L0.566956 28.3244H5.09444L11.1872 19.2694L9.07863 17.8465C6.51737 16.0355 5.27554 14.7419 5.27554 11.8055C5.27554 9.2184 7.0736 7.5109 10.4498 7.5109H12.3126V28.3244H12.3643ZM67.3668 27.1473V23.7969C65.7407 24.8306 63.8604 25.3947 61.9338 25.4268C58.9327 25.4268 57.7815 24.0039 57.6133 21.0934H67.5479V18.9072C67.5479 12.8533 64.8832 10.5637 60.7567 10.5637C55.7376 10.5637 53.3575 14.4444 53.3575 19.6187C53.3575 25.6726 56.3327 28.6737 61.5975 28.6737C63.6296 28.7502 65.6384 28.2188 67.3668 27.1473ZM93.1217 28.6607C94.6171 28.7696 96.1082 28.3979 97.3776 27.6V24.2367C96.2022 25.0499 94.796 25.4627 93.3675 25.4139C90.4311 25.4139 89.2152 23.1243 89.2152 19.5281C89.2152 15.932 90.7028 13.8106 93.4063 13.8106C94.8004 13.8212 96.1681 14.191 97.3776 14.8842V11.3916C95.9892 10.7694 94.473 10.4856 92.9536 10.5637C87.6888 10.5637 84.9593 14.3409 84.9593 19.6187C84.9593 25.4398 87.6241 28.6737 93.1217 28.6737V28.6607ZM29.6464 10.8612V17.743H24.1358V10.8612H20.0222V28.3244H24.1358V21.0546H29.6464V28.3244H33.8246V10.8612H29.6464ZM52.3485 25.0905H50.5116V10.8612H38.5073V12.3488C38.5073 16.6047 38.2227 22.1023 36.7739 25.0129H35.4804V32.2439H39.2835V28.3244H48.5325V32.2957H52.3356V25.0905H52.3485ZM80.5224 28.3244H85.1922L78.582 18.946L84.4031 10.8612H80.2507L74.4297 18.8943V10.8612H70.3161V28.3244H74.4297V19.7739L80.5224 28.3244ZM60.692 13.8106C62.7358 13.8106 63.3568 15.5181 63.3568 17.6913V18.0405H57.6133C57.7168 15.2723 58.7128 13.8106 60.692 13.8106ZM46.3981 25.0905H40.577C41.7283 22.5034 42.0387 17.7171 42.0387 14.7419V14.2245H46.3981V25.0905Z" fill="black"/>
<path d="M134.968 16.3072C134.968 13.1373 134.028 10.0386 132.267 7.40293C130.505 4.76725 128.002 2.71299 125.074 1.49992C122.145 0.286852 118.923 -0.0305429 115.814 0.587875C112.705 1.20629 109.849 2.73275 107.607 4.97421C105.366 7.21567 103.839 10.0715 103.221 13.1805C102.603 16.2894 102.92 19.512 104.133 22.4406C105.346 25.3692 107.4 27.8723 110.036 29.6334C112.672 31.3946 115.77 32.3345 118.94 32.3345C121.045 32.3345 123.129 31.92 125.074 31.1145C127.018 30.3091 128.785 29.1285 130.273 27.6402C131.762 26.152 132.942 24.3851 133.748 22.4406C134.553 20.4961 134.968 18.412 134.968 16.3072Z" fill="#00ADFF"/>
<path d="M119.588 16.5777C120.882 9.45017 121.904 8.20834 124.853 8.44118C127.169 8.62228 129.859 11.9468 127.44 19.1649C125.099 26.0984 119.951 27.3402 116.199 25.1153C113.693 23.3527 111.731 20.9241 110.533 18.1041C109.24 15.0901 108.593 11.7915 110.275 9.99346C111.646 8.5188 113.224 7.80733 116.199 11.1965C119.175 14.5856 119.588 16.5777 119.588 16.5777Z" fill="white"/>
<path d="M138.954 24.3546V28.3259C139.496 28.5758 140.091 28.6911 140.687 28.6622C145.486 28.6622 146.042 24.4452 146.249 16.5415L146.482 7.4865H152.239V28.3259H156.404V4.30432H142.576L142.278 16.6062C142.136 22.065 142.071 24.6521 140.118 24.6521C139.708 24.6843 139.298 24.5797 138.954 24.3546ZM172.871 16.4768C172.871 12.2468 170.724 10.6687 166.403 10.6687C164.262 10.6584 162.154 11.202 160.285 12.2468V15.6748C161.964 14.5765 163.919 13.9756 165.925 13.9414C167.878 13.9414 168.796 14.627 168.796 16.5285V17.4858H168.137C161.837 17.4858 159.082 19.5684 159.082 23.0869C159.082 26.6054 161.229 28.5975 164.411 28.5975C165.196 28.6667 165.986 28.5559 166.721 28.2734C167.456 27.9909 168.118 27.5443 168.654 26.9676H168.835C168.872 27.4415 168.976 27.9077 169.146 28.3518H173.156C173.015 26.9375 172.946 25.5171 172.949 24.0959L172.871 16.4768ZM168.758 24.1735C168.417 24.6374 167.964 25.0076 167.441 25.2496C166.919 25.4916 166.344 25.5975 165.769 25.5576C165.431 25.603 165.087 25.5722 164.762 25.4675C164.438 25.3628 164.141 25.1868 163.893 24.9525C163.645 24.7181 163.452 24.4313 163.329 24.113C163.206 23.7947 163.156 23.453 163.182 23.1128C163.182 21.1336 164.592 20.4092 168.124 20.4092H168.719L168.758 24.1735ZM183.375 28.3259C187.45 28.3259 189.843 26.5925 189.843 23.268C189.843 20.9914 188.459 19.6848 186.143 19.258C187.03 19.0801 187.825 18.5917 188.385 17.8804C188.944 17.1691 189.232 16.2816 189.196 15.3773C189.196 12.4021 187.217 10.9533 183.414 10.9533H176.157V28.3259H183.375ZM182.961 13.9802C184.436 13.9802 185.276 14.627 185.276 15.9852C185.276 17.3435 184.384 17.9256 182.819 17.9256H180.231V13.9802H182.961ZM183.026 20.9267C184.785 20.9267 185.729 21.5476 185.729 22.9964C185.729 24.4452 184.694 25.2731 183.026 25.2731H180.193V20.9267H183.026ZM202.843 28.3259H207.5L200.903 19.1027L206.711 10.9403H202.571L196.815 19.1027V10.9403H192.689V28.3259H196.815V19.9177L202.843 28.3259ZM221.535 16.4768C221.535 12.2468 219.401 10.6687 215.067 10.6687C212.926 10.6566 210.817 11.2004 208.949 12.2468V15.6748C210.629 14.5804 212.583 13.9798 214.589 13.9414C216.555 13.9414 217.46 14.627 217.46 16.5285V17.4858H216.801C210.501 17.4858 207.746 19.5684 207.746 23.0869C207.746 26.6054 209.893 28.5975 213.075 28.5975C213.86 28.6667 214.65 28.5559 215.385 28.2734C216.12 27.9909 216.782 27.5443 217.318 26.9676H217.499C217.538 27.44 217.638 27.9053 217.797 28.3518H221.807C221.677 26.9418 221.6 25.5188 221.6 24.0959L221.535 16.4768ZM217.435 24.1735C217.096 24.6299 216.649 24.9952 216.134 25.2368C215.619 25.4783 215.053 25.5886 214.485 25.5576C214.147 25.603 213.803 25.5722 213.478 25.4675C213.154 25.3628 212.856 25.1868 212.608 24.9525C212.36 24.7181 212.168 24.4313 212.045 24.113C211.922 23.7947 211.872 23.453 211.898 23.1128C211.898 21.1336 213.308 20.4092 216.839 20.4092H217.435V24.1735Z" fill="black"/>
</svg>
