<svg width="185" height="36" viewBox="0 0 185 36" fill="none" xmlns="http://www.w3.org/2000/svg">
<path fill-rule="evenodd" clip-rule="evenodd" d="M98.8776 29.5187V6.48206H113.186V11.832H104.845V29.5187H98.8776Z" fill="#E30613"/>
<path fill-rule="evenodd" clip-rule="evenodd" d="M131.195 29.5178V20.4921H122.326V29.5178H116.358V6.48114H122.326V15.0753H131.195V6.48114H137.155V29.5178H131.195Z" fill="#E30613"/>
<path fill-rule="evenodd" clip-rule="evenodd" d="M171.782 29.5186V11.8318H164.81V6.48187H184.751V11.8318H177.75V29.5186H171.782Z" fill="#E30613"/>
<path fill-rule="evenodd" clip-rule="evenodd" d="M156.031 29.5114V16.3933L146.536 29.5114H141.544V6.48962H147.511V19.4738L156.849 6.48962H161.998V29.5114H156.031Z" fill="#E30613"/>
<path fill-rule="evenodd" clip-rule="evenodd" d="M64.5912 29.517V15.826L58.6311 23.0584L52.6785 15.826V29.517H46.711V6.48035H52.5966L58.6311 14.4048L64.6656 6.48035H70.5587V29.517H64.5912Z" fill="#E30613"/>
<path fill-rule="evenodd" clip-rule="evenodd" d="M81.8839 21.4075H87.4273L84.6518 14.19L81.8839 21.4075ZM90.5375 29.5106L89.2875 26.2813H80.0162L78.7662 29.5106H72.7689L81.9434 6.48132H87.457L96.6241 29.5106H90.5375Z" fill="#E30613"/>
<path fill-rule="evenodd" clip-rule="evenodd" d="M0.511106 11.1622C0.504741 8.38059 1.59247 5.70802 3.5395 3.72143C4.49167 2.75081 5.62738 1.97925 6.88053 1.45168C8.13368 0.924101 9.47925 0.65104 10.8389 0.648376H34.6494V5.97598H10.8389C10.1726 5.97606 9.5129 6.10754 8.89749 6.3629C8.28208 6.61825 7.72307 6.99248 7.25246 7.46414C6.29838 8.43789 5.7641 9.74688 5.7643 11.1101V20.0391C5.65882 21.184 5.17743 22.2619 4.3952 23.1047C3.62632 23.9427 2.59991 24.5005 1.47841 24.6896L0.540864 24.8309L0.511106 11.1622Z" fill="#E30613"/>
<path fill-rule="evenodd" clip-rule="evenodd" d="M0.511505 35.3227V29.9951H24.322C24.9909 29.9897 25.652 29.8522 26.2675 29.5904C26.883 29.3286 27.4407 28.9477 27.9085 28.4697C28.8608 27.4978 29.3949 26.1918 29.3966 24.8312V16.3338C29.4034 15.1029 29.8404 13.9132 30.6318 12.9705C31.4186 12.0419 32.5109 11.4245 33.7123 11.2294L34.6498 11.088V24.8312C34.6566 27.6143 33.5658 30.2879 31.614 32.2719C30.6649 33.245 29.5309 34.0187 28.2787 34.5477C27.0266 35.0767 25.6814 35.3503 24.322 35.3524L0.511505 35.3227Z" fill="#E30613"/>
<path fill-rule="evenodd" clip-rule="evenodd" d="M20.7123 24.9267V18.0366L17.602 21.809L14.4918 18.0366V24.9267H10.377V11.3622H14.276L17.602 15.7225L20.9281 11.3622H24.827V24.9267H20.7123Z" fill="#E30613"/>
</svg>
