<svg width="314" height="137" viewBox="0 0 314 137" fill="none" xmlns="http://www.w3.org/2000/svg">
<path d="M300.801 6.22844C297.381 2.2732 292.412 0 287.183 0H26.8167C21.5885 0 16.6186 2.2732 13.1994 6.22844L4.38272 16.4276C1.55569 19.6979 0 23.8763 0 28.1991V86.9164C0 91.2393 1.55569 95.4177 4.38272 98.688L13.1994 108.887C16.6186 112.842 21.5885 115.116 26.8167 115.116H87.7918L77.5778 135.38C77.1483 136.232 78.0426 137.144 78.903 136.732L123.998 115.116H287.183C292.412 115.116 297.381 112.842 300.801 108.887L309.617 98.688C312.444 95.4177 314 91.2393 314 86.9164V28.1992C314 23.8763 312.444 19.6979 309.617 16.4276L300.801 6.22844Z" fill="white"/>
</svg>
