<svg width="482" height="220" viewBox="0 0 482 220" fill="none" xmlns="http://www.w3.org/2000/svg">
<path d="M23.6784 6.0969C27.0763 2.52316 31.7917 0.5 36.723 0.5L445.277 0.5C450.208 0.5 454.924 2.52316 458.322 6.09689L477.045 25.7883C480.226 29.1342 482 33.5746 482 38.1914V149.893C482 154.46 480.264 158.855 477.145 162.19L458.335 182.297C454.932 185.935 450.172 188 445.19 188H353.5L370.089 218.414C370.547 219.252 369.68 220.194 368.806 219.807L297 188H36.8097C31.8276 188 27.0683 185.935 23.6648 182.297L4.85511 162.19C1.73555 158.855 0 154.46 0 149.893L0 38.1914C0 33.5746 1.77404 29.1342 4.95535 25.7883L23.6784 6.0969Z" fill="white"/>
</svg>
