<svg width="335" height="135" viewBox="0 0 335 135" fill="none" xmlns="http://www.w3.org/2000/svg">
<path d="M14.4723 5.78239C17.8759 2.14412 22.6351 0.0792236 27.6172 0.0792236H307.062C312.044 0.0792236 316.803 2.14413 320.207 5.7824L329.824 16.0629C332.944 19.3976 334.679 23.7933 334.679 28.3597V85.1799C334.679 89.7463 332.944 94.142 329.824 97.4767L320.207 107.757C316.803 111.395 312.044 113.46 307.062 113.46H241.106L251.989 133.414C252.447 134.252 251.58 135.194 250.706 134.807L202.515 113.46H27.6172C22.6351 113.46 17.8759 111.395 14.4723 107.757L4.85511 97.4767C1.73554 94.142 0 89.7463 0 85.1799V28.3597C0 23.7933 1.73555 19.3976 4.85512 16.0629L14.4723 5.78239Z" fill="white"/>
</svg>
