<svg width="456" height="221" viewBox="0 0 456 221" fill="none" xmlns="http://www.w3.org/2000/svg">
<path d="M23.6648 5.70317C27.0683 2.0649 31.8276 0 36.8097 0L419.19 0C424.172 0 428.932 2.0649 432.335 5.70317L451.145 25.81C454.264 29.1448 456 33.5405 456 38.1069V149.809C456 154.425 454.226 158.866 451.045 162.212L432.322 181.903C428.924 185.477 424.208 187.5 419.277 187.5H334.5L351.089 217.914C351.547 218.752 350.68 219.694 349.806 219.307L278 187.5H36.8097C31.8276 187.5 27.0683 185.435 23.6648 181.797L4.85511 161.69C1.73555 158.355 0 153.96 0 149.393V38.1069C0 33.5405 1.73555 29.1448 4.85511 25.81L23.6648 5.70317Z" fill="white"/>
<path d="M31.152 55V37.912H33.504L36.648 46.96H36.696L39.816 37.912H42.192V55H39.744V44.608H39.696L37.272 51.952H36.048L33.648 44.608H33.6V55H31.152ZM44.4879 37.912H46.9359V44.92H47.8479C48.6959 44.92 49.3999 45.04 49.9599 45.28C50.5359 45.504 50.9999 45.824 51.3519 46.24C51.7199 46.688 51.9519 47.168 52.0479 47.68C52.1439 48.192 52.1999 48.76 52.2159 49.384V50.344C52.2159 51.848 51.8479 53 51.1119 53.8C50.3919 54.6 49.2319 55 47.6319 55H44.4879V37.912ZM46.9359 47.08V52.552H47.7999C48.2959 52.552 48.6799 52.48 48.9519 52.336C49.2399 52.192 49.4559 51.992 49.5999 51.736C49.7439 51.48 49.8319 51.176 49.8639 50.824C49.8959 50.472 49.9119 50.088 49.9119 49.672C49.9119 49.24 49.8879 48.872 49.8399 48.568C49.7919 48.264 49.6959 48 49.5519 47.776C49.3919 47.552 49.1759 47.384 48.9039 47.272C48.6319 47.144 48.2719 47.08 47.8239 47.08H46.9359ZM53.4639 55V37.912H55.9119V55H53.4639ZM70.4514 50.128V51.184C70.4514 51.712 70.3474 52.216 70.1394 52.696C69.9474 53.16 69.6754 53.576 69.3234 53.944C68.9714 54.312 68.5554 54.608 68.0754 54.832C67.6114 55.04 67.1074 55.144 66.5634 55.144C66.0994 55.144 65.6274 55.08 65.1474 54.952C64.6674 54.824 64.2354 54.6 63.8514 54.28C63.4674 53.96 63.1474 53.552 62.8914 53.056C62.6514 52.544 62.5314 51.896 62.5314 51.112V41.704C62.5314 41.144 62.6274 40.624 62.8194 40.144C63.0114 39.664 63.2834 39.248 63.6354 38.896C63.9874 38.544 64.4034 38.272 64.8834 38.08C65.3794 37.872 65.9234 37.768 66.5154 37.768C67.6674 37.768 68.6034 38.144 69.3234 38.896C69.6754 39.264 69.9474 39.704 70.1394 40.216C70.3474 40.712 70.4514 41.256 70.4514 41.848V42.808H68.0034V41.992C68.0034 41.512 67.8674 41.096 67.5954 40.744C67.3234 40.392 66.9554 40.216 66.4914 40.216C65.8834 40.216 65.4754 40.408 65.2674 40.792C65.0754 41.16 64.9794 41.632 64.9794 42.208V50.944C64.9794 51.44 65.0834 51.856 65.2914 52.192C65.5154 52.528 65.9074 52.696 66.4674 52.696C66.6274 52.696 66.7954 52.672 66.9714 52.624C67.1634 52.56 67.3394 52.464 67.4994 52.336C67.6434 52.208 67.7634 52.032 67.8594 51.808C67.9554 51.584 68.0034 51.304 68.0034 50.968V50.128H70.4514ZM75.8385 40.072V45.04C75.8385 45.296 75.8305 45.736 75.8145 46.36C75.7985 46.968 75.7585 47.64 75.6945 48.376C75.6305 49.112 75.5345 49.84 75.4065 50.56C75.2785 51.28 75.1025 51.88 74.8785 52.36C74.4945 53.176 74.0065 53.824 73.4145 54.304C72.8225 54.768 72.1025 55 71.2545 55H71.1105V52.552C71.5905 52.52 71.9665 52.376 72.2385 52.12C72.5105 51.864 72.7345 51.544 72.9105 51.16C73.0545 50.824 73.1665 50.416 73.2465 49.936C73.3425 49.456 73.4145 48.944 73.4625 48.4C73.5105 47.856 73.5425 47.296 73.5585 46.72C73.5745 46.144 73.5825 45.592 73.5825 45.064V37.912H80.6865V55H78.2385V40.072H75.8385ZM82.9958 55V37.912H90.2918V40.216H85.4438V45.232H89.6678V47.536H85.4438V52.552H90.2918V55H82.9958ZM93.1209 55V57.64H91.0089V52.84H92.2569C92.4009 52.536 92.5369 52.192 92.6649 51.808C92.7929 51.408 92.9049 50.992 93.0009 50.56C93.0969 50.128 93.1849 49.688 93.2649 49.24C93.3449 48.776 93.4089 48.328 93.4569 47.896C93.4889 47.56 93.5129 47.184 93.5289 46.768C93.5609 46.352 93.5849 45.928 93.6009 45.496C93.6169 45.048 93.6249 44.608 93.6249 44.176C93.6409 43.728 93.6489 43.304 93.6489 42.904V37.912H100.681V52.84H102.073V57.64H99.9609V55H93.1209ZM95.9529 40.072V42.88C95.9529 43.104 95.9449 43.432 95.9289 43.864C95.9129 44.28 95.8889 44.736 95.8569 45.232C95.8249 45.728 95.7929 46.232 95.7609 46.744C95.7289 47.24 95.6889 47.68 95.6409 48.064C95.6089 48.384 95.5529 48.752 95.4729 49.168C95.4089 49.568 95.3289 49.984 95.2329 50.416C95.1369 50.848 95.0329 51.28 94.9209 51.712C94.8089 52.128 94.6809 52.504 94.5369 52.84H98.2329V40.072H95.9529ZM103.487 52.696C103.711 52.696 103.967 52.672 104.255 52.624C104.543 52.576 104.767 52.472 104.927 52.312C105.055 52.184 105.191 51.984 105.335 51.712C105.495 51.424 105.639 51.024 105.767 50.512L105.983 49.576L102.287 37.912H104.879L107.183 45.952H107.231L109.031 37.912H111.623L108.071 50.896C107.847 51.68 107.607 52.376 107.351 52.984C107.095 53.592 106.735 54.08 106.271 54.448C105.887 54.768 105.479 54.96 105.047 55.024C104.631 55.104 104.167 55.144 103.655 55.144H103.319V52.696H103.487ZM112.925 55V37.912H120.221V40.216H115.373V45.232H119.597V47.536H115.373V52.552H120.221V55H112.925ZM121.808 55V37.912H124.16L127.304 46.96H127.352L130.472 37.912H132.848V55H130.4V44.608H130.352L127.928 51.952H126.704L124.304 44.608H124.256V55H121.808ZM338.858 50.128V51.184C338.858 51.712 338.754 52.216 338.546 52.696C338.354 53.16 338.082 53.576 337.73 53.944C337.378 54.312 336.962 54.608 336.482 54.832C336.018 55.04 335.514 55.144 334.97 55.144C334.506 55.144 334.034 55.08 333.554 54.952C333.074 54.824 332.642 54.6 332.258 54.28C331.874 53.96 331.554 53.552 331.298 53.056C331.058 52.544 330.938 51.896 330.938 51.112V41.704C330.938 41.144 331.034 40.624 331.226 40.144C331.418 39.664 331.69 39.248 332.042 38.896C332.394 38.544 332.81 38.272 333.29 38.08C333.786 37.872 334.33 37.768 334.922 37.768C336.074 37.768 337.01 38.144 337.73 38.896C338.082 39.264 338.354 39.704 338.546 40.216C338.754 40.712 338.858 41.256 338.858 41.848V42.808H336.41V41.992C336.41 41.512 336.274 41.096 336.002 40.744C335.73 40.392 335.362 40.216 334.898 40.216C334.29 40.216 333.882 40.408 333.674 40.792C333.482 41.16 333.386 41.632 333.386 42.208V50.944C333.386 51.44 333.49 51.856 333.698 52.192C333.922 52.528 334.314 52.696 334.874 52.696C335.034 52.696 335.202 52.672 335.378 52.624C335.57 52.56 335.746 52.464 335.906 52.336C336.05 52.208 336.17 52.032 336.266 51.808C336.362 51.584 336.41 51.304 336.41 50.968V50.128H338.858ZM342.229 55V40.216H339.397V37.912H347.509V40.216H344.677V55H342.229ZM352.455 49.024L351.255 42.832H351.207L350.007 49.024H352.455ZM346.407 55L350.223 37.912H352.263L356.079 55H353.631L352.911 51.328H349.575L348.855 55H346.407ZM357.285 55V37.912H359.733V45.232H362.757V37.912H365.205V55H362.757V47.392H359.733V55H357.285ZM368.512 55V57.64H366.4V52.84H367.648C367.792 52.536 367.928 52.192 368.056 51.808C368.184 51.408 368.296 50.992 368.392 50.56C368.488 50.128 368.576 49.688 368.656 49.24C368.736 48.776 368.8 48.328 368.848 47.896C368.88 47.56 368.904 47.184 368.92 46.768C368.952 46.352 368.976 45.928 368.992 45.496C369.008 45.048 369.016 44.608 369.016 44.176C369.032 43.728 369.04 43.304 369.04 42.904V37.912H376.072V52.84H377.464V57.64H375.352V55H368.512ZM371.344 40.072V42.88C371.344 43.104 371.336 43.432 371.32 43.864C371.304 44.28 371.28 44.736 371.248 45.232C371.216 45.728 371.184 46.232 371.152 46.744C371.12 47.24 371.08 47.68 371.032 48.064C371 48.384 370.944 48.752 370.864 49.168C370.8 49.568 370.72 49.984 370.624 50.416C370.528 50.848 370.424 51.28 370.312 51.712C370.2 52.128 370.072 52.504 369.928 52.84H373.624V40.072H371.344ZM383.885 49.024L382.685 42.832H382.637L381.437 49.024H383.885ZM377.837 55L381.653 37.912H383.693L387.509 55H385.061L384.341 51.328H381.005L380.285 55H377.837ZM388.715 55V37.912H392.387C393.059 37.912 393.651 38 394.163 38.176C394.675 38.352 395.139 38.664 395.555 39.112C395.971 39.56 396.259 40.088 396.419 40.696C396.579 41.288 396.659 42.096 396.659 43.12C396.659 43.888 396.611 44.536 396.515 45.064C396.435 45.592 396.251 46.088 395.963 46.552C395.627 47.112 395.179 47.552 394.618 47.872C394.059 48.176 393.323 48.328 392.411 48.328H391.163V55H388.715ZM391.163 40.216V46.024H392.339C392.835 46.024 393.219 45.952 393.491 45.808C393.763 45.664 393.963 45.464 394.091 45.208C394.219 44.968 394.291 44.672 394.307 44.32C394.339 43.968 394.355 43.576 394.355 43.144C394.355 42.744 394.347 42.368 394.331 42.016C394.315 41.648 394.243 41.328 394.115 41.056C393.987 40.784 393.795 40.576 393.539 40.432C393.283 40.288 392.915 40.216 392.435 40.216H391.163ZM400.096 55V40.216H397.264V37.912H405.376V40.216H402.544V55H400.096ZM410.323 49.024L409.123 42.832H409.075L407.875 49.024H410.323ZM404.275 55L408.091 37.912H410.131L413.947 55H411.499L410.779 51.328H407.443L406.723 55H404.275ZM415.152 55V37.912H417.504L420.648 46.96H420.696L423.816 37.912H426.192V55H423.744V44.608H423.696L421.272 51.952H420.048L417.648 44.608H417.6V55H415.152ZM38.928 82.128V83.184C38.928 83.712 38.824 84.216 38.616 84.696C38.424 85.16 38.152 85.576 37.8 85.944C37.448 86.312 37.032 86.608 36.552 86.832C36.088 87.04 35.584 87.144 35.04 87.144C34.576 87.144 34.104 87.08 33.624 86.952C33.144 86.824 32.712 86.6 32.328 86.28C31.944 85.96 31.624 85.552 31.368 85.056C31.128 84.544 31.008 83.896 31.008 83.112V73.704C31.008 73.144 31.104 72.624 31.296 72.144C31.488 71.664 31.76 71.248 32.112 70.896C32.464 70.544 32.88 70.272 33.36 70.08C33.856 69.872 34.4 69.768 34.992 69.768C36.144 69.768 37.08 70.144 37.8 70.896C38.152 71.264 38.424 71.704 38.616 72.216C38.824 72.712 38.928 73.256 38.928 73.848V74.808H36.48V73.992C36.48 73.512 36.344 73.096 36.072 72.744C35.8 72.392 35.432 72.216 34.968 72.216C34.36 72.216 33.952 72.408 33.744 72.792C33.552 73.16 33.456 73.632 33.456 74.208V82.944C33.456 83.44 33.56 83.856 33.768 84.192C33.992 84.528 34.384 84.696 34.944 84.696C35.104 84.696 35.272 84.672 35.448 84.624C35.64 84.56 35.816 84.464 35.976 84.336C36.12 84.208 36.24 84.032 36.336 83.808C36.432 83.584 36.48 83.304 36.48 82.968V82.128H38.928ZM45.6351 81.024L44.4351 74.832H44.3871L43.1871 81.024H45.6351ZM39.5871 87L43.4031 69.912H45.4431L49.2591 87H46.8111L46.0911 83.328H42.7551L42.0351 87H39.5871ZM50.4645 87V69.912H52.9125V77.232H55.9365V69.912H58.3845V87H55.9365V79.392H52.9125V87H50.4645ZM66.3953 87V75.912H66.3473L63.1313 87H60.6833V69.912H63.1313V81.024H63.1793L66.3953 69.912H68.8433V87H66.3953ZM72.7444 87V72.216H69.9124V69.912H78.0244V72.216H75.1924V87H72.7444ZM82.971 81.024L81.771 74.832H81.723L80.523 81.024H82.971ZM76.923 87L80.739 69.912H82.779L86.595 87H84.147L83.427 83.328H80.091L79.371 87H76.923ZM87.8004 87V69.912H91.4724C92.1444 69.912 92.7364 70 93.2484 70.176C93.7604 70.352 94.2244 70.664 94.6404 71.112C95.0564 71.56 95.3444 72.088 95.5044 72.696C95.6644 73.288 95.7444 74.096 95.7444 75.12C95.7444 75.888 95.6964 76.536 95.6004 77.064C95.5204 77.592 95.3364 78.088 95.0484 78.552C94.7124 79.112 94.2644 79.552 93.7044 79.872C93.1444 80.176 92.4084 80.328 91.4964 80.328H90.2484V87H87.8004ZM90.2484 72.216V78.024H91.4244C91.9204 78.024 92.3044 77.952 92.5764 77.808C92.8484 77.664 93.0484 77.464 93.1764 77.208C93.3044 76.968 93.3764 76.672 93.3924 76.32C93.4244 75.968 93.4404 75.576 93.4404 75.144C93.4404 74.744 93.4324 74.368 93.4164 74.016C93.4004 73.648 93.3284 73.328 93.2004 73.056C93.0724 72.784 92.8804 72.576 92.6244 72.432C92.3684 72.288 92.0004 72.216 91.5204 72.216H90.2484ZM97.5739 87V69.912H100.022V77.232H103.046V69.912H105.494V87H103.046V79.392H100.022V87H97.5739ZM107.793 69.912H110.241V76.92H111.153C112.001 76.92 112.705 77.04 113.265 77.28C113.841 77.504 114.305 77.824 114.657 78.24C115.025 78.688 115.257 79.168 115.353 79.68C115.449 80.192 115.505 80.76 115.521 81.384V82.344C115.521 83.848 115.153 85 114.417 85.8C113.697 86.6 112.537 87 110.937 87H107.793V69.912ZM110.241 79.08V84.552H111.105C111.601 84.552 111.985 84.48 112.257 84.336C112.545 84.192 112.761 83.992 112.905 83.736C113.049 83.48 113.137 83.176 113.169 82.824C113.201 82.472 113.217 82.088 113.217 81.672C113.217 81.24 113.193 80.872 113.145 80.568C113.097 80.264 113.001 80 112.857 79.776C112.697 79.552 112.481 79.384 112.209 79.272C111.937 79.144 111.577 79.08 111.129 79.08H110.241ZM116.769 87V69.912H119.217V87H116.769ZM120.327 87L123.783 78.048L120.591 69.912H123.183L125.031 74.976L126.903 69.912H129.495L126.231 78.048L129.759 87H127.167L125.031 81.24L122.919 87H120.327ZM135.308 87V69.912H137.756V77.232H140.78V69.912H143.228V87H140.78V79.392H137.756V87H135.308ZM145.383 73.944C145.383 73.256 145.503 72.648 145.743 72.12C145.983 71.592 146.303 71.152 146.703 70.8C147.087 70.464 147.519 70.208 147.999 70.032C148.495 69.856 148.991 69.768 149.487 69.768C149.983 69.768 150.471 69.856 150.951 70.032C151.447 70.208 151.895 70.464 152.295 70.8C152.679 71.152 152.991 71.592 153.231 72.12C153.471 72.648 153.591 73.256 153.591 73.944V82.968C153.591 83.688 153.471 84.304 153.231 84.816C152.991 85.328 152.679 85.752 152.295 86.088C151.895 86.44 151.447 86.704 150.951 86.88C150.471 87.056 149.983 87.144 149.487 87.144C148.991 87.144 148.495 87.056 147.999 86.88C147.519 86.704 147.087 86.44 146.703 86.088C146.303 85.752 145.983 85.328 145.743 84.816C145.503 84.304 145.383 83.688 145.383 82.968V73.944ZM147.831 82.968C147.831 83.56 147.991 84 148.311 84.288C148.647 84.56 149.039 84.696 149.487 84.696C149.935 84.696 150.319 84.56 150.639 84.288C150.975 84 151.143 83.56 151.143 82.968V73.944C151.143 73.352 150.975 72.92 150.639 72.648C150.319 72.36 149.935 72.216 149.487 72.216C149.039 72.216 148.647 72.36 148.311 72.648C147.991 72.92 147.831 73.352 147.831 73.944V82.968ZM155.746 87V69.912H159.418C160.09 69.912 160.682 70 161.194 70.176C161.706 70.352 162.17 70.664 162.586 71.112C163.002 71.56 163.29 72.088 163.45 72.696C163.61 73.288 163.69 74.096 163.69 75.12C163.69 75.888 163.642 76.536 163.546 77.064C163.466 77.592 163.282 78.088 162.994 78.552C162.658 79.112 162.21 79.552 161.65 79.872C161.09 80.176 160.354 80.328 159.442 80.328H158.194V87H155.746ZM158.194 72.216V78.024H159.37C159.866 78.024 160.25 77.952 160.522 77.808C160.794 77.664 160.994 77.464 161.122 77.208C161.25 76.968 161.322 76.672 161.338 76.32C161.37 75.968 161.386 75.576 161.386 75.144C161.386 74.744 161.378 74.368 161.362 74.016C161.346 73.648 161.274 73.328 161.146 73.056C161.018 72.784 160.826 72.576 160.57 72.432C160.314 72.288 159.946 72.216 159.466 72.216H158.194ZM165.519 87V69.912H167.871L171.015 78.96H171.063L174.183 69.912H176.559V87H174.111V76.608H174.063L171.639 83.952H170.415L168.015 76.608H167.967V87H165.519ZM178.711 88.776V84.552H181.159V87L178.711 88.776ZM195.249 87H192.801V79.416C192.673 79.432 192.513 79.456 192.321 79.488C192.129 79.504 191.873 79.512 191.553 79.512C190.993 79.512 190.449 79.432 189.921 79.272C189.393 79.112 188.953 78.864 188.601 78.528C188.249 78.192 187.985 77.76 187.809 77.232C187.649 76.704 187.569 76.144 187.569 75.552V69.912H190.017V75.264C190.017 75.536 190.049 75.808 190.113 76.08C190.177 76.352 190.297 76.576 190.473 76.752C190.777 77.056 191.233 77.208 191.841 77.208C191.969 77.208 192.097 77.208 192.225 77.208C192.353 77.192 192.457 77.176 192.537 77.16C192.633 77.144 192.721 77.128 192.801 77.112V69.912H195.249V87ZM199.166 87V72.216H196.334V69.912H204.446V72.216H201.614V87H199.166ZM205.102 73.944C205.102 73.256 205.222 72.648 205.462 72.12C205.702 71.592 206.022 71.152 206.422 70.8C206.806 70.464 207.238 70.208 207.718 70.032C208.214 69.856 208.71 69.768 209.206 69.768C209.702 69.768 210.19 69.856 210.67 70.032C211.166 70.208 211.614 70.464 212.014 70.8C212.398 71.152 212.71 71.592 212.95 72.12C213.19 72.648 213.31 73.256 213.31 73.944V82.968C213.31 83.688 213.19 84.304 212.95 84.816C212.71 85.328 212.398 85.752 212.014 86.088C211.614 86.44 211.166 86.704 210.67 86.88C210.19 87.056 209.702 87.144 209.206 87.144C208.71 87.144 208.214 87.056 207.718 86.88C207.238 86.704 206.806 86.44 206.422 86.088C206.022 85.752 205.702 85.328 205.462 84.816C205.222 84.304 205.102 83.688 205.102 82.968V73.944ZM207.55 82.968C207.55 83.56 207.71 84 208.03 84.288C208.366 84.56 208.758 84.696 209.206 84.696C209.654 84.696 210.038 84.56 210.358 84.288C210.694 84 210.862 83.56 210.862 82.968V73.944C210.862 73.352 210.694 72.92 210.358 72.648C210.038 72.36 209.654 72.216 209.206 72.216C208.758 72.216 208.366 72.36 208.03 72.648C207.71 72.92 207.55 73.352 207.55 73.944V82.968ZM215.465 69.912H222.473V72.216H217.913V76.92H218.873C219.721 76.92 220.425 77.032 220.985 77.256C221.561 77.48 222.025 77.8 222.377 78.216C222.745 78.664 222.977 79.152 223.073 79.68C223.169 80.192 223.225 80.76 223.241 81.384V82.344C223.241 83.848 222.873 85 222.137 85.8C221.417 86.6 220.257 87 218.657 87H215.465V69.912ZM217.913 79.08V84.552H218.825C219.321 84.552 219.705 84.48 219.977 84.336C220.265 84.192 220.481 83.992 220.625 83.736C220.769 83.48 220.857 83.176 220.889 82.824C220.921 82.472 220.937 82.088 220.937 81.672C220.937 81.24 220.905 80.864 220.841 80.544C220.793 80.208 220.689 79.936 220.529 79.728C220.369 79.52 220.161 79.36 219.905 79.248C219.649 79.136 219.297 79.08 218.849 79.08H217.913ZM225.168 69.912H227.616V76.92H228.528C229.376 76.92 230.08 77.04 230.64 77.28C231.216 77.504 231.68 77.824 232.032 78.24C232.4 78.688 232.632 79.168 232.728 79.68C232.824 80.192 232.88 80.76 232.896 81.384V82.344C232.896 83.848 232.528 85 231.792 85.8C231.072 86.6 229.912 87 228.312 87H225.168V69.912ZM227.616 79.08V84.552H228.48C228.976 84.552 229.36 84.48 229.632 84.336C229.92 84.192 230.136 83.992 230.28 83.736C230.424 83.48 230.512 83.176 230.544 82.824C230.576 82.472 230.592 82.088 230.592 81.672C230.592 81.24 230.568 80.872 230.52 80.568C230.472 80.264 230.376 80 230.232 79.776C230.072 79.552 229.856 79.384 229.584 79.272C229.312 79.144 228.952 79.08 228.504 79.08H227.616ZM234.144 87V69.912H236.592V87H234.144ZM243.355 69.912H250.363V72.216H245.803V76.92H246.763C247.611 76.92 248.315 77.032 248.875 77.256C249.451 77.48 249.915 77.8 250.267 78.216C250.635 78.664 250.867 79.152 250.963 79.68C251.059 80.192 251.115 80.76 251.131 81.384V82.344C251.131 83.848 250.763 85 250.027 85.8C249.307 86.6 248.147 87 246.547 87H243.355V69.912ZM245.803 79.08V84.552H246.715C247.211 84.552 247.595 84.48 247.867 84.336C248.155 84.192 248.371 83.992 248.515 83.736C248.659 83.48 248.747 83.176 248.779 82.824C248.811 82.472 248.827 82.088 248.827 81.672C248.827 81.24 248.795 80.864 248.731 80.544C248.683 80.208 248.579 79.936 248.419 79.728C248.259 79.52 248.051 79.36 247.795 79.248C247.539 79.136 247.187 79.08 246.739 79.08H245.803ZM253.058 69.912H255.506V76.92H256.418C257.266 76.92 257.97 77.04 258.53 77.28C259.106 77.504 259.57 77.824 259.922 78.24C260.29 78.688 260.522 79.168 260.618 79.68C260.714 80.192 260.77 80.76 260.786 81.384V82.344C260.786 83.848 260.418 85 259.682 85.8C258.962 86.6 257.802 87 256.202 87H253.058V69.912ZM255.506 79.08V84.552H256.37C256.866 84.552 257.25 84.48 257.522 84.336C257.81 84.192 258.026 83.992 258.17 83.736C258.314 83.48 258.402 83.176 258.434 82.824C258.466 82.472 258.482 82.088 258.482 81.672C258.482 81.24 258.458 80.872 258.41 80.568C258.362 80.264 258.266 80 258.122 79.776C257.962 79.552 257.746 79.384 257.474 79.272C257.202 79.144 256.842 79.08 256.394 79.08H255.506ZM262.034 87V69.912H264.482V87H262.034ZM268.401 87V72.216H265.569V69.912H273.681V72.216H270.849V87H268.401ZM274.761 69.912H277.209V76.92H278.121C278.969 76.92 279.673 77.04 280.233 77.28C280.809 77.504 281.273 77.824 281.625 78.24C281.993 78.688 282.225 79.168 282.321 79.68C282.433 80.192 282.489 80.76 282.489 81.384V82.344C282.489 83.848 282.121 85 281.385 85.8C280.665 86.6 279.505 87 277.905 87H274.761V69.912ZM277.209 79.08V84.552H278.073C278.569 84.552 278.953 84.48 279.225 84.336C279.513 84.192 279.729 83.992 279.873 83.736C280.017 83.48 280.105 83.176 280.137 82.824C280.169 82.472 280.185 82.088 280.185 81.672C280.185 80.792 280.049 80.144 279.777 79.728C279.617 79.504 279.409 79.344 279.153 79.248C278.897 79.136 278.545 79.08 278.097 79.08H277.209ZM289.159 84.696C289.383 84.696 289.639 84.672 289.927 84.624C290.215 84.576 290.439 84.472 290.599 84.312C290.727 84.184 290.863 83.984 291.007 83.712C291.167 83.424 291.311 83.024 291.439 82.512L291.655 81.576L287.959 69.912H290.551L292.855 77.952H292.903L294.703 69.912H297.295L293.743 82.896C293.519 83.68 293.279 84.376 293.023 84.984C292.767 85.592 292.407 86.08 291.943 86.448C291.559 86.768 291.151 86.96 290.719 87.024C290.303 87.104 289.839 87.144 289.327 87.144H288.991V84.696H289.159ZM298.597 87V69.912H302.173C302.957 69.912 303.621 70.032 304.165 70.272C304.725 70.512 305.181 70.832 305.533 71.232C305.885 71.632 306.133 72.096 306.277 72.624C306.437 73.136 306.517 73.672 306.517 74.232V74.856C306.517 75.32 306.477 75.712 306.397 76.032C306.333 76.352 306.229 76.632 306.085 76.872C305.813 77.32 305.397 77.704 304.837 78.024C305.413 78.296 305.837 78.696 306.109 79.224C306.381 79.752 306.517 80.472 306.517 81.384V82.344C306.517 83.848 306.149 85 305.413 85.8C304.693 86.6 303.533 87 301.933 87H298.597ZM301.045 79.08V84.552H302.101C302.597 84.552 302.981 84.48 303.253 84.336C303.541 84.192 303.757 83.992 303.901 83.736C304.045 83.48 304.133 83.176 304.165 82.824C304.197 82.472 304.213 82.088 304.213 81.672C304.213 81.24 304.189 80.864 304.141 80.544C304.093 80.224 303.997 79.952 303.853 79.728C303.693 79.504 303.477 79.344 303.205 79.248C302.933 79.136 302.573 79.08 302.125 79.08H301.045ZM301.045 72.216V76.92H302.149C302.965 76.92 303.509 76.72 303.781 76.32C304.069 75.904 304.213 75.304 304.213 74.52C304.213 73.752 304.053 73.176 303.733 72.792C303.429 72.408 302.869 72.216 302.053 72.216H301.045ZM308.816 87V69.912H316.112V72.216H311.264V77.232H315.488V79.536H311.264V84.552H316.112V87H308.816ZM317.699 87V69.912H321.371C322.043 69.912 322.635 70 323.147 70.176C323.659 70.352 324.123 70.664 324.539 71.112C324.955 71.56 325.243 72.088 325.403 72.696C325.563 73.288 325.643 74.096 325.643 75.12C325.643 75.888 325.595 76.536 325.499 77.064C325.419 77.592 325.235 78.088 324.947 78.552C324.611 79.112 324.163 79.552 323.603 79.872C323.043 80.176 322.307 80.328 321.395 80.328H320.147V87H317.699ZM320.147 72.216V78.024H321.323C321.819 78.024 322.203 77.952 322.475 77.808C322.747 77.664 322.947 77.464 323.075 77.208C323.203 76.968 323.275 76.672 323.291 76.32C323.323 75.968 323.339 75.576 323.339 75.144C323.339 74.744 323.331 74.368 323.315 74.016C323.299 73.648 323.227 73.328 323.099 73.056C322.971 72.784 322.779 72.576 322.523 72.432C322.267 72.288 321.899 72.216 321.419 72.216H320.147ZM327.472 87V69.912H334.768V72.216H329.92V77.232H334.144V79.536H329.92V84.552H334.768V87H327.472ZM336.355 87V69.912H338.803V77.232H341.827V69.912H344.275V87H341.827V79.392H338.803V87H336.355ZM346.574 87V69.912H349.022V77.232H352.046V69.912H354.494V87H352.046V79.392H349.022V87H346.574ZM356.793 69.912H359.241V76.92H360.153C361.001 76.92 361.705 77.04 362.265 77.28C362.841 77.504 363.305 77.824 363.657 78.24C364.025 78.688 364.257 79.168 364.353 79.68C364.449 80.192 364.505 80.76 364.521 81.384V82.344C364.521 83.848 364.153 85 363.417 85.8C362.697 86.6 361.537 87 359.937 87H356.793V69.912ZM359.241 79.08V84.552H360.105C360.601 84.552 360.985 84.48 361.257 84.336C361.545 84.192 361.761 83.992 361.905 83.736C362.049 83.48 362.137 83.176 362.169 82.824C362.201 82.472 362.217 82.088 362.217 81.672C362.217 81.24 362.193 80.872 362.145 80.568C362.097 80.264 362.001 80 361.857 79.776C361.697 79.552 361.481 79.384 361.209 79.272C360.937 79.144 360.577 79.08 360.129 79.08H359.241ZM365.769 87V69.912H368.217V87H365.769ZM370.527 87V69.912H372.879L376.023 78.96H376.071L379.191 69.912H381.567V87H379.119V76.608H379.071L376.647 83.952H375.423L373.023 76.608H372.975V87H370.527ZM389.575 87V75.912H389.527L386.311 87H383.863V69.912H386.311V81.024H386.359L389.575 69.912H392.023V87H389.575ZM398.769 87V69.912H402.345C403.129 69.912 403.793 70.032 404.337 70.272C404.897 70.512 405.353 70.832 405.705 71.232C406.057 71.632 406.305 72.096 406.449 72.624C406.609 73.136 406.689 73.672 406.689 74.232V74.856C406.689 75.32 406.649 75.712 406.569 76.032C406.505 76.352 406.401 76.632 406.257 76.872C405.985 77.32 405.569 77.704 405.009 78.024C405.585 78.296 406.009 78.696 406.281 79.224C406.553 79.752 406.689 80.472 406.689 81.384V82.344C406.689 83.848 406.321 85 405.585 85.8C404.865 86.6 403.705 87 402.105 87H398.769ZM401.217 79.08V84.552H402.273C402.769 84.552 403.153 84.48 403.425 84.336C403.713 84.192 403.929 83.992 404.073 83.736C404.217 83.48 404.305 83.176 404.337 82.824C404.369 82.472 404.385 82.088 404.385 81.672C404.385 81.24 404.361 80.864 404.313 80.544C404.265 80.224 404.169 79.952 404.025 79.728C403.865 79.504 403.649 79.344 403.377 79.248C403.105 79.136 402.745 79.08 402.297 79.08H401.217ZM401.217 72.216V76.92H402.321C403.137 76.92 403.681 76.72 403.953 76.32C404.241 75.904 404.385 75.304 404.385 74.52C404.385 73.752 404.225 73.176 403.905 72.792C403.601 72.408 403.041 72.216 402.225 72.216H401.217ZM39.696 104.216C39.472 104.216 39.288 104.248 39.144 104.312C39 104.36 38.864 104.456 38.736 104.6C38.608 104.744 38.52 104.92 38.472 105.128C38.424 105.336 38.384 105.568 38.352 105.824L38.136 107.816C38.12 108.024 38.096 108.216 38.064 108.392C38.032 108.552 38 108.72 37.968 108.896C37.936 109.056 37.888 109.2 37.824 109.328C37.728 109.552 37.608 109.752 37.464 109.928C37.336 110.088 37.208 110.216 37.08 110.312L39.624 119H37.128L34.968 111.392H33.6V119H31.152V101.912H33.6V109.232H34.416C34.704 109.232 34.936 109.192 35.112 109.112C35.288 109.032 35.432 108.92 35.544 108.776C35.656 108.632 35.736 108.472 35.784 108.296C35.832 108.104 35.872 107.896 35.904 107.672L36.144 105.632C36.16 105.568 36.176 105.44 36.192 105.248C36.224 105.04 36.272 104.808 36.336 104.552C36.4 104.296 36.488 104.032 36.6 103.76C36.712 103.488 36.856 103.232 37.032 102.992C37.336 102.608 37.704 102.336 38.136 102.176C38.584 102 39.104 101.912 39.696 101.912V104.216ZM46.0335 113.024L44.8335 106.832H44.7855L43.5855 113.024H46.0335ZM39.9855 119L43.8015 101.912H45.8415L49.6575 119H47.2095L46.4895 115.328H43.1535L42.4335 119H39.9855ZM57.6244 119H55.1764V111.416C55.0484 111.432 54.8884 111.456 54.6964 111.488C54.5044 111.504 54.2484 111.512 53.9284 111.512C53.3684 111.512 52.8244 111.432 52.2964 111.272C51.7684 111.112 51.3284 110.864 50.9764 110.528C50.6244 110.192 50.3604 109.76 50.1844 109.232C50.0244 108.704 49.9444 108.144 49.9444 107.552V101.912H52.3924V107.264C52.3924 107.536 52.4244 107.808 52.4884 108.08C52.5524 108.352 52.6724 108.576 52.8484 108.752C53.1524 109.056 53.6084 109.208 54.2164 109.208C54.3444 109.208 54.4724 109.208 54.6004 109.208C54.7284 109.192 54.8324 109.176 54.9124 109.16C55.0084 109.144 55.0964 109.128 55.1764 109.112V101.912H57.6244V119ZM59.9333 119V101.912H67.2293V104.216H62.3813V109.232H66.6053V111.536H62.3813V116.552H67.2293V119H59.9333ZM76.5921 114.128V115.184C76.5921 115.712 76.4881 116.216 76.2801 116.696C76.0881 117.16 75.8161 117.576 75.4641 117.944C75.1121 118.312 74.6961 118.608 74.2161 118.832C73.7521 119.04 73.2481 119.144 72.7041 119.144C72.2401 119.144 71.7681 119.08 71.2881 118.952C70.8081 118.824 70.3761 118.6 69.9921 118.28C69.6081 117.96 69.2881 117.552 69.0321 117.056C68.7921 116.544 68.6721 115.896 68.6721 115.112V105.704C68.6721 105.144 68.7681 104.624 68.9601 104.144C69.1521 103.664 69.4241 103.248 69.7761 102.896C70.1281 102.544 70.5441 102.272 71.0241 102.08C71.5201 101.872 72.0641 101.768 72.6561 101.768C73.8081 101.768 74.7441 102.144 75.4641 102.896C75.8161 103.264 76.0881 103.704 76.2801 104.216C76.4881 104.712 76.5921 105.256 76.5921 105.848V106.808H74.1441V105.992C74.1441 105.512 74.0081 105.096 73.7361 104.744C73.4641 104.392 73.0961 104.216 72.6321 104.216C72.0241 104.216 71.6161 104.408 71.4081 104.792C71.2161 105.16 71.1201 105.632 71.1201 106.208V114.944C71.1201 115.44 71.2241 115.856 71.4321 116.192C71.6561 116.528 72.0481 116.696 72.6081 116.696C72.7681 116.696 72.9361 116.672 73.1121 116.624C73.3041 116.56 73.4801 116.464 73.6401 116.336C73.7841 116.208 73.9041 116.032 74.0001 115.808C74.0961 115.584 74.1441 115.304 74.1441 114.968V114.128H76.5921ZM79.9631 119V104.216H77.1311V101.912H85.2431V104.216H82.4111V119H79.9631ZM86.3239 119V101.912H89.8999C90.6839 101.912 91.3479 102.032 91.8919 102.272C92.4519 102.512 92.9079 102.832 93.2599 103.232C93.6119 103.632 93.8599 104.096 94.0039 104.624C94.1639 105.136 94.2439 105.672 94.2439 106.232V106.856C94.2439 107.32 94.2039 107.712 94.1239 108.032C94.0599 108.352 93.9559 108.632 93.8119 108.872C93.5399 109.32 93.1239 109.704 92.5639 110.024C93.1399 110.296 93.5639 110.696 93.8359 111.224C94.1079 111.752 94.2439 112.472 94.2439 113.384V114.344C94.2439 115.848 93.8759 117 93.1399 117.8C92.4199 118.6 91.2599 119 89.6599 119H86.3239ZM88.7719 111.08V116.552H89.8279C90.3239 116.552 90.7079 116.48 90.9799 116.336C91.2679 116.192 91.4839 115.992 91.6279 115.736C91.7719 115.48 91.8599 115.176 91.8919 114.824C91.9239 114.472 91.9399 114.088 91.9399 113.672C91.9399 113.24 91.9159 112.864 91.8679 112.544C91.8199 112.224 91.7239 111.952 91.5799 111.728C91.4199 111.504 91.2039 111.344 90.9319 111.248C90.6599 111.136 90.2999 111.08 89.8519 111.08H88.7719ZM88.7719 104.216V108.92H89.8759C90.6919 108.92 91.2359 108.72 91.5079 108.32C91.7959 107.904 91.9399 107.304 91.9399 106.52C91.9399 105.752 91.7799 105.176 91.4599 104.792C91.1559 104.408 90.5959 104.216 89.7799 104.216H88.7719ZM96.5426 119V101.912H103.839V104.216H98.9906V109.232H103.215V111.536H98.9906V116.552H103.839V119H96.5426ZM115.591 119V107.912H115.543L112.327 119H109.879V101.912H112.327V113.024H112.375L115.591 101.912H118.039V119H115.591ZM124.785 119V101.912H132.585V119H130.137V104.072H127.233V119H124.785ZM134.742 105.944C134.742 105.256 134.862 104.648 135.102 104.12C135.342 103.592 135.662 103.152 136.062 102.8C136.446 102.464 136.878 102.208 137.358 102.032C137.854 101.856 138.35 101.768 138.846 101.768C139.342 101.768 139.83 101.856 140.31 102.032C140.806 102.208 141.254 102.464 141.654 102.8C142.038 103.152 142.35 103.592 142.59 104.12C142.83 104.648 142.95 105.256 142.95 105.944V114.968C142.95 115.688 142.83 116.304 142.59 116.816C142.35 117.328 142.038 117.752 141.654 118.088C141.254 118.44 140.806 118.704 140.31 118.88C139.83 119.056 139.342 119.144 138.846 119.144C138.35 119.144 137.854 119.056 137.358 118.88C136.878 118.704 136.446 118.44 136.062 118.088C135.662 117.752 135.342 117.328 135.102 116.816C134.862 116.304 134.742 115.688 134.742 114.968V105.944ZM137.19 114.968C137.19 115.56 137.35 116 137.67 116.288C138.006 116.56 138.398 116.696 138.846 116.696C139.294 116.696 139.678 116.56 139.998 116.288C140.334 116 140.502 115.56 140.502 114.968V105.944C140.502 105.352 140.334 104.92 139.998 104.648C139.678 104.36 139.294 104.216 138.846 104.216C138.398 104.216 138.006 104.36 137.67 104.648C137.35 104.92 137.19 105.352 137.19 105.944V114.968ZM148.729 104.072V109.04C148.729 109.296 148.721 109.736 148.705 110.36C148.689 110.968 148.649 111.64 148.585 112.376C148.521 113.112 148.425 113.84 148.297 114.56C148.169 115.28 147.993 115.88 147.769 116.36C147.385 117.176 146.897 117.824 146.305 118.304C145.713 118.768 144.993 119 144.145 119H144.001V116.552C144.481 116.52 144.857 116.376 145.129 116.12C145.401 115.864 145.625 115.544 145.801 115.16C145.945 114.824 146.057 114.416 146.137 113.936C146.233 113.456 146.305 112.944 146.353 112.4C146.401 111.856 146.433 111.296 146.449 110.72C146.465 110.144 146.473 109.592 146.473 109.064V101.912H153.577V119H151.129V104.072H148.729ZM155.886 101.912H158.334V108.92H159.246C160.094 108.92 160.798 109.04 161.358 109.28C161.934 109.504 162.398 109.824 162.75 110.24C163.118 110.688 163.35 111.168 163.446 111.68C163.558 112.192 163.614 112.76 163.614 113.384V114.344C163.614 115.848 163.246 117 162.51 117.8C161.79 118.6 160.63 119 159.03 119H155.886V101.912ZM158.334 111.08V116.552H159.198C159.694 116.552 160.078 116.48 160.35 116.336C160.638 116.192 160.854 115.992 160.998 115.736C161.142 115.48 161.23 115.176 161.262 114.824C161.294 114.472 161.31 114.088 161.31 113.672C161.31 112.792 161.174 112.144 160.902 111.728C160.742 111.504 160.534 111.344 160.278 111.248C160.022 111.136 159.67 111.08 159.222 111.08H158.334ZM164.996 106.232C164.996 105.752 165.092 105.208 165.284 104.6C165.492 103.992 165.804 103.472 166.22 103.04C166.588 102.672 167.004 102.368 167.468 102.128C167.932 101.888 168.468 101.768 169.076 101.768C169.796 101.768 170.412 101.896 170.924 102.152C171.452 102.392 171.884 102.72 172.22 103.136C172.572 103.552 172.828 104.048 172.988 104.624C173.148 105.2 173.228 105.808 173.228 106.448C173.228 106.768 173.22 107.096 173.204 107.432C173.188 107.752 173.124 108.08 173.012 108.416C172.916 108.736 172.748 109.04 172.508 109.328C172.284 109.616 171.956 109.88 171.524 110.12C171.956 110.296 172.284 110.528 172.508 110.816C172.748 111.088 172.916 111.4 173.012 111.752C173.124 112.088 173.188 112.464 173.204 112.88C173.22 113.28 173.228 113.696 173.228 114.128C173.228 114.848 173.148 115.52 172.988 116.144C172.844 116.768 172.596 117.288 172.244 117.704C171.892 118.12 171.444 118.464 170.9 118.736C170.372 119.008 169.716 119.144 168.932 119.144C168.34 119.144 167.788 119.04 167.276 118.832C166.764 118.624 166.324 118.336 165.956 117.968C165.588 117.6 165.308 117.128 165.116 116.552C164.924 115.976 164.828 115.4 164.828 114.824V114.176H167.276L167.3 114.848C167.3 115.072 167.324 115.296 167.372 115.52C167.436 115.728 167.532 115.92 167.66 116.096C167.788 116.272 167.956 116.416 168.164 116.528C168.372 116.64 168.636 116.696 168.956 116.696C169.676 116.696 170.156 116.472 170.396 116.024C170.652 115.56 170.78 114.936 170.78 114.152C170.78 113.704 170.764 113.288 170.732 112.904C170.7 112.504 170.62 112.192 170.492 111.968C170.204 111.472 169.724 111.224 169.052 111.224H168.116V109.064H169.124C169.428 109.064 169.7 109.008 169.94 108.896C170.18 108.784 170.372 108.592 170.516 108.32C170.644 108.064 170.716 107.76 170.732 107.408C170.764 107.056 170.78 106.744 170.78 106.472C170.78 106.184 170.756 105.904 170.708 105.632C170.66 105.344 170.572 105.096 170.444 104.888C170.316 104.696 170.14 104.536 169.916 104.408C169.708 104.28 169.436 104.216 169.1 104.216C168.796 104.216 168.54 104.272 168.332 104.384C168.14 104.496 167.98 104.64 167.852 104.816C167.708 105.008 167.604 105.256 167.54 105.56C167.476 105.864 167.444 106.16 167.444 106.448V106.832H164.996V106.232ZM175.55 119V101.912H182.846V104.216H177.998V109.232H182.222V111.536H177.998V116.552H182.846V119H175.55ZM188.886 119V101.912H191.238L194.382 110.96H194.43L197.55 101.912H199.926V119H197.478V108.608H197.43L195.006 115.952H193.782L191.382 108.608H191.334V119H188.886ZM206.446 104.216C205.582 104.216 205.014 104.448 204.742 104.912C204.486 105.36 204.358 106.016 204.358 106.88C204.358 107.312 204.382 107.696 204.43 108.032C204.478 108.352 204.566 108.624 204.694 108.848C204.838 109.072 205.038 109.248 205.294 109.376C205.55 109.488 205.894 109.544 206.326 109.544H207.502V104.216H206.446ZM207.502 119V111.704H206.374L204.238 119H201.742L204.07 111.392C203.686 111.248 203.35 111.032 203.062 110.744C202.774 110.456 202.542 110.128 202.366 109.76C202.19 109.392 202.07 108.96 202.006 108.464C201.942 107.968 201.91 107.456 201.91 106.928C201.91 103.584 203.35 101.912 206.23 101.912H209.95V119H207.502ZM220.03 114.128V115.184C220.03 115.712 219.926 116.216 219.718 116.696C219.526 117.16 219.254 117.576 218.902 117.944C218.55 118.312 218.134 118.608 217.654 118.832C217.19 119.04 216.686 119.144 216.142 119.144C215.678 119.144 215.206 119.08 214.726 118.952C214.246 118.824 213.814 118.6 213.43 118.28C213.046 117.96 212.726 117.552 212.47 117.056C212.23 116.544 212.11 115.896 212.11 115.112V105.704C212.11 105.144 212.206 104.624 212.398 104.144C212.59 103.664 212.862 103.248 213.214 102.896C213.566 102.544 213.982 102.272 214.462 102.08C214.958 101.872 215.502 101.768 216.094 101.768C217.246 101.768 218.182 102.144 218.902 102.896C219.254 103.264 219.526 103.704 219.718 104.216C219.926 104.712 220.03 105.256 220.03 105.848V106.808H217.582V105.992C217.582 105.512 217.446 105.096 217.174 104.744C216.902 104.392 216.534 104.216 216.07 104.216C215.462 104.216 215.054 104.408 214.846 104.792C214.654 105.16 214.558 105.632 214.558 106.208V114.944C214.558 115.44 214.662 115.856 214.87 116.192C215.094 116.528 215.486 116.696 216.046 116.696C216.206 116.696 216.374 116.672 216.55 116.624C216.742 116.56 216.918 116.464 217.078 116.336C217.222 116.208 217.342 116.032 217.438 115.808C217.534 115.584 217.582 115.304 217.582 114.968V114.128H220.03ZM226.737 113.024L225.537 106.832H225.489L224.289 113.024H226.737ZM220.689 119L224.505 101.912H226.545L230.361 119H227.913L227.193 115.328H223.857L223.137 119H220.689ZM231.422 120.776V116.552H233.87V119L231.422 120.776ZM249.016 104.216C248.792 104.216 248.608 104.248 248.464 104.312C248.32 104.36 248.184 104.456 248.056 104.6C247.928 104.744 247.84 104.92 247.792 105.128C247.744 105.336 247.704 105.568 247.672 105.824L247.456 107.816C247.44 108.024 247.416 108.216 247.384 108.392C247.352 108.552 247.32 108.72 247.288 108.896C247.256 109.056 247.208 109.2 247.144 109.328C247.048 109.552 246.928 109.752 246.784 109.928C246.656 110.088 246.528 110.216 246.4 110.312L248.944 119H246.448L244.288 111.392H242.92V119H240.472V101.912H242.92V109.232H243.736C244.024 109.232 244.256 109.192 244.432 109.112C244.608 109.032 244.752 108.92 244.864 108.776C244.976 108.632 245.056 108.472 245.104 108.296C245.152 108.104 245.192 107.896 245.224 107.672L245.464 105.632C245.48 105.568 245.496 105.44 245.512 105.248C245.544 105.04 245.592 104.808 245.656 104.552C245.72 104.296 245.808 104.032 245.92 103.76C246.032 103.488 246.176 103.232 246.352 102.992C246.656 102.608 247.024 102.336 247.456 102.176C247.904 102 248.424 101.912 249.016 101.912V104.216ZM250.266 105.944C250.266 105.256 250.386 104.648 250.626 104.12C250.866 103.592 251.186 103.152 251.586 102.8C251.97 102.464 252.402 102.208 252.882 102.032C253.378 101.856 253.874 101.768 254.37 101.768C254.866 101.768 255.354 101.856 255.834 102.032C256.33 102.208 256.778 102.464 257.178 102.8C257.562 103.152 257.874 103.592 258.114 104.12C258.354 104.648 258.474 105.256 258.474 105.944V114.968C258.474 115.688 258.354 116.304 258.114 116.816C257.874 117.328 257.562 117.752 257.178 118.088C256.778 118.44 256.33 118.704 255.834 118.88C255.354 119.056 254.866 119.144 254.37 119.144C253.874 119.144 253.378 119.056 252.882 118.88C252.402 118.704 251.97 118.44 251.586 118.088C251.186 117.752 250.866 117.328 250.626 116.816C250.386 116.304 250.266 115.688 250.266 114.968V105.944ZM252.714 114.968C252.714 115.56 252.874 116 253.194 116.288C253.53 116.56 253.922 116.696 254.37 116.696C254.818 116.696 255.202 116.56 255.522 116.288C255.858 116 256.026 115.56 256.026 114.968V105.944C256.026 105.352 255.858 104.92 255.522 104.648C255.202 104.36 254.818 104.216 254.37 104.216C253.922 104.216 253.53 104.36 253.194 104.648C252.874 104.92 252.714 105.352 252.714 105.944V114.968ZM262.002 119V104.216H259.17V101.912H267.282V104.216H264.45V119H262.002ZM267.938 105.944C267.938 105.256 268.058 104.648 268.298 104.12C268.538 103.592 268.858 103.152 269.258 102.8C269.642 102.464 270.074 102.208 270.554 102.032C271.05 101.856 271.546 101.768 272.042 101.768C272.538 101.768 273.026 101.856 273.506 102.032C274.002 102.208 274.45 102.464 274.85 102.8C275.234 103.152 275.546 103.592 275.786 104.12C276.026 104.648 276.146 105.256 276.146 105.944V114.968C276.146 115.688 276.026 116.304 275.786 116.816C275.546 117.328 275.234 117.752 274.85 118.088C274.45 118.44 274.002 118.704 273.506 118.88C273.026 119.056 272.538 119.144 272.042 119.144C271.546 119.144 271.05 119.056 270.554 118.88C270.074 118.704 269.642 118.44 269.258 118.088C268.858 117.752 268.538 117.328 268.298 116.816C268.058 116.304 267.938 115.688 267.938 114.968V105.944ZM270.386 114.968C270.386 115.56 270.546 116 270.866 116.288C271.202 116.56 271.594 116.696 272.042 116.696C272.49 116.696 272.874 116.56 273.194 116.288C273.53 116 273.698 115.56 273.698 114.968V105.944C273.698 105.352 273.53 104.92 273.194 104.648C272.874 104.36 272.49 104.216 272.042 104.216C271.594 104.216 271.202 104.36 270.866 104.648C270.546 104.92 270.386 105.352 270.386 105.944V114.968ZM278.3 119V101.912H281.972C282.644 101.912 283.236 102 283.748 102.176C284.26 102.352 284.724 102.664 285.14 103.112C285.556 103.56 285.844 104.088 286.004 104.696C286.164 105.288 286.244 106.096 286.244 107.12C286.244 107.888 286.196 108.536 286.1 109.064C286.02 109.592 285.836 110.088 285.548 110.552C285.212 111.112 284.764 111.552 284.204 111.872C283.644 112.176 282.908 112.328 281.996 112.328H280.748V119H278.3ZM280.748 104.216V110.024H281.924C282.42 110.024 282.804 109.952 283.076 109.808C283.348 109.664 283.548 109.464 283.676 109.208C283.804 108.968 283.876 108.672 283.892 108.32C283.924 107.968 283.94 107.576 283.94 107.144C283.94 106.744 283.932 106.368 283.916 106.016C283.9 105.648 283.828 105.328 283.7 105.056C283.572 104.784 283.38 104.576 283.124 104.432C282.868 104.288 282.5 104.216 282.02 104.216H280.748ZM287.93 105.944C287.93 105.256 288.05 104.648 288.29 104.12C288.53 103.592 288.85 103.152 289.25 102.8C289.634 102.464 290.066 102.208 290.546 102.032C291.042 101.856 291.538 101.768 292.034 101.768C292.53 101.768 293.018 101.856 293.498 102.032C293.994 102.208 294.442 102.464 294.842 102.8C295.226 103.152 295.538 103.592 295.778 104.12C296.018 104.648 296.138 105.256 296.138 105.944V114.968C296.138 115.688 296.018 116.304 295.778 116.816C295.538 117.328 295.226 117.752 294.842 118.088C294.442 118.44 293.994 118.704 293.498 118.88C293.018 119.056 292.53 119.144 292.034 119.144C291.538 119.144 291.042 119.056 290.546 118.88C290.066 118.704 289.634 118.44 289.25 118.088C288.85 117.752 288.53 117.328 288.29 116.816C288.05 116.304 287.93 115.688 287.93 114.968V105.944ZM290.378 114.968C290.378 115.56 290.538 116 290.858 116.288C291.194 116.56 291.586 116.696 292.034 116.696C292.482 116.696 292.866 116.56 293.186 116.288C293.522 116 293.69 115.56 293.69 114.968V105.944C293.69 105.352 293.522 104.92 293.186 104.648C292.866 104.36 292.482 104.216 292.034 104.216C291.586 104.216 291.194 104.36 290.858 104.648C290.538 104.92 290.378 105.352 290.378 105.944V114.968ZM298.293 119V101.912H305.589V104.216H300.741V109.232H304.965V111.536H300.741V116.552H305.589V119H298.293ZM311.629 119V101.912H319.429V119H316.981V104.072H314.077V119H311.629ZM321.73 119V101.912H325.402C326.074 101.912 326.666 102 327.178 102.176C327.69 102.352 328.154 102.664 328.57 103.112C328.986 103.56 329.274 104.088 329.434 104.696C329.594 105.288 329.674 106.096 329.674 107.12C329.674 107.888 329.626 108.536 329.53 109.064C329.45 109.592 329.266 110.088 328.978 110.552C328.642 111.112 328.194 111.552 327.634 111.872C327.074 112.176 326.338 112.328 325.426 112.328H324.178V119H321.73ZM324.178 104.216V110.024H325.354C325.85 110.024 326.234 109.952 326.506 109.808C326.778 109.664 326.978 109.464 327.106 109.208C327.234 108.968 327.306 108.672 327.322 108.32C327.354 107.968 327.37 107.576 327.37 107.144C327.37 106.744 327.362 106.368 327.346 106.016C327.33 105.648 327.258 105.328 327.13 105.056C327.002 104.784 326.81 104.576 326.554 104.432C326.298 104.288 325.93 104.216 325.45 104.216H324.178ZM331.36 105.944C331.36 105.256 331.48 104.648 331.72 104.12C331.96 103.592 332.28 103.152 332.68 102.8C333.064 102.464 333.496 102.208 333.976 102.032C334.472 101.856 334.968 101.768 335.464 101.768C335.96 101.768 336.448 101.856 336.928 102.032C337.424 102.208 337.872 102.464 338.272 102.8C338.656 103.152 338.968 103.592 339.208 104.12C339.448 104.648 339.568 105.256 339.568 105.944V114.968C339.568 115.688 339.448 116.304 339.208 116.816C338.968 117.328 338.656 117.752 338.272 118.088C337.872 118.44 337.424 118.704 336.928 118.88C336.448 119.056 335.96 119.144 335.464 119.144C334.968 119.144 334.472 119.056 333.976 118.88C333.496 118.704 333.064 118.44 332.68 118.088C332.28 117.752 331.96 117.328 331.72 116.816C331.48 116.304 331.36 115.688 331.36 114.968V105.944ZM333.808 114.968C333.808 115.56 333.968 116 334.288 116.288C334.624 116.56 335.016 116.696 335.464 116.696C335.912 116.696 336.296 116.56 336.616 116.288C336.952 116 337.12 115.56 337.12 114.968V105.944C337.12 105.352 336.952 104.92 336.616 104.648C336.296 104.36 335.912 104.216 335.464 104.216C335.016 104.216 334.624 104.36 334.288 104.648C333.968 104.92 333.808 105.352 333.808 105.944V114.968ZM347.434 119V107.912H347.386L344.17 119H341.722V101.912H344.17V113.024H344.218L347.434 101.912H349.882V119H347.434ZM351.863 106.232C351.863 105.752 351.959 105.208 352.151 104.6C352.359 103.992 352.671 103.472 353.087 103.04C353.455 102.672 353.871 102.368 354.335 102.128C354.799 101.888 355.335 101.768 355.943 101.768C356.663 101.768 357.279 101.896 357.791 102.152C358.319 102.392 358.751 102.72 359.087 103.136C359.439 103.552 359.695 104.048 359.855 104.624C360.015 105.2 360.095 105.808 360.095 106.448C360.095 106.768 360.087 107.096 360.071 107.432C360.055 107.752 359.991 108.08 359.879 108.416C359.783 108.736 359.615 109.04 359.375 109.328C359.151 109.616 358.823 109.88 358.391 110.12C358.823 110.296 359.151 110.528 359.375 110.816C359.615 111.088 359.783 111.4 359.879 111.752C359.991 112.088 360.055 112.464 360.071 112.88C360.087 113.28 360.095 113.696 360.095 114.128C360.095 114.848 360.015 115.52 359.855 116.144C359.711 116.768 359.463 117.288 359.111 117.704C358.759 118.12 358.311 118.464 357.767 118.736C357.239 119.008 356.583 119.144 355.799 119.144C355.207 119.144 354.655 119.04 354.143 118.832C353.631 118.624 353.191 118.336 352.823 117.968C352.455 117.6 352.175 117.128 351.983 116.552C351.791 115.976 351.695 115.4 351.695 114.824V114.176H354.143L354.167 114.848C354.167 115.072 354.191 115.296 354.239 115.52C354.303 115.728 354.399 115.92 354.527 116.096C354.655 116.272 354.823 116.416 355.031 116.528C355.239 116.64 355.503 116.696 355.823 116.696C356.543 116.696 357.023 116.472 357.263 116.024C357.519 115.56 357.647 114.936 357.647 114.152C357.647 113.704 357.631 113.288 357.599 112.904C357.567 112.504 357.487 112.192 357.359 111.968C357.071 111.472 356.591 111.224 355.919 111.224H354.983V109.064H355.991C356.295 109.064 356.567 109.008 356.807 108.896C357.047 108.784 357.239 108.592 357.383 108.32C357.511 108.064 357.583 107.76 357.599 107.408C357.631 107.056 357.647 106.744 357.647 106.472C357.647 106.184 357.623 105.904 357.575 105.632C357.527 105.344 357.439 105.096 357.311 104.888C357.183 104.696 357.007 104.536 356.783 104.408C356.575 104.28 356.303 104.216 355.967 104.216C355.663 104.216 355.407 104.272 355.199 104.384C355.007 104.496 354.847 104.64 354.719 104.816C354.575 105.008 354.471 105.256 354.407 105.56C354.343 105.864 354.311 106.16 354.311 106.448V106.832H351.863V106.232ZM362.418 119V101.912H365.994C366.778 101.912 367.442 102.032 367.986 102.272C368.546 102.512 369.002 102.832 369.354 103.232C369.706 103.632 369.954 104.096 370.098 104.624C370.258 105.136 370.338 105.672 370.338 106.232V106.856C370.338 107.32 370.298 107.712 370.218 108.032C370.154 108.352 370.05 108.632 369.906 108.872C369.634 109.32 369.218 109.704 368.658 110.024C369.234 110.296 369.658 110.696 369.93 111.224C370.202 111.752 370.338 112.472 370.338 113.384V114.344C370.338 115.848 369.97 117 369.234 117.8C368.514 118.6 367.354 119 365.754 119H362.418ZM364.866 111.08V116.552H365.922C366.418 116.552 366.802 116.48 367.074 116.336C367.362 116.192 367.578 115.992 367.722 115.736C367.866 115.48 367.954 115.176 367.986 114.824C368.018 114.472 368.034 114.088 368.034 113.672C368.034 113.24 368.01 112.864 367.962 112.544C367.914 112.224 367.818 111.952 367.674 111.728C367.514 111.504 367.298 111.344 367.026 111.248C366.754 111.136 366.394 111.08 365.946 111.08H364.866ZM364.866 104.216V108.92H365.97C366.786 108.92 367.33 108.72 367.602 108.32C367.89 107.904 368.034 107.304 368.034 106.52C368.034 105.752 367.874 105.176 367.554 104.792C367.25 104.408 366.69 104.216 365.874 104.216H364.866ZM372.492 105.944C372.492 105.256 372.612 104.648 372.852 104.12C373.092 103.592 373.412 103.152 373.812 102.8C374.196 102.464 374.628 102.208 375.108 102.032C375.604 101.856 376.1 101.768 376.596 101.768C377.092 101.768 377.58 101.856 378.06 102.032C378.556 102.208 379.004 102.464 379.404 102.8C379.788 103.152 380.1 103.592 380.34 104.12C380.58 104.648 380.7 105.256 380.7 105.944V114.968C380.7 115.688 380.58 116.304 380.34 116.816C380.1 117.328 379.788 117.752 379.404 118.088C379.004 118.44 378.556 118.704 378.06 118.88C377.58 119.056 377.092 119.144 376.596 119.144C376.1 119.144 375.604 119.056 375.108 118.88C374.628 118.704 374.196 118.44 373.812 118.088C373.412 117.752 373.092 117.328 372.852 116.816C372.612 116.304 372.492 115.688 372.492 114.968V105.944ZM374.94 114.968C374.94 115.56 375.1 116 375.42 116.288C375.756 116.56 376.148 116.696 376.596 116.696C377.044 116.696 377.428 116.56 377.748 116.288C378.084 116 378.252 115.56 378.252 114.968V105.944C378.252 105.352 378.084 104.92 377.748 104.648C377.428 104.36 377.044 104.216 376.596 104.216C376.148 104.216 375.756 104.36 375.42 104.648C375.1 104.92 374.94 105.352 374.94 105.944V114.968ZM383.629 119V121.64H381.517V116.84H382.765C382.909 116.536 383.045 116.192 383.173 115.808C383.301 115.408 383.413 114.992 383.509 114.56C383.605 114.128 383.693 113.688 383.773 113.24C383.853 112.776 383.917 112.328 383.965 111.896C383.997 111.56 384.021 111.184 384.037 110.768C384.069 110.352 384.093 109.928 384.109 109.496C384.125 109.048 384.133 108.608 384.133 108.176C384.149 107.728 384.157 107.304 384.157 106.904V101.912H391.189V116.84H392.581V121.64H390.469V119H383.629ZM386.461 104.072V106.88C386.461 107.104 386.453 107.432 386.437 107.864C386.421 108.28 386.397 108.736 386.365 109.232C386.333 109.728 386.301 110.232 386.269 110.744C386.237 111.24 386.197 111.68 386.149 112.064C386.117 112.384 386.061 112.752 385.981 113.168C385.917 113.568 385.837 113.984 385.741 114.416C385.645 114.848 385.541 115.28 385.429 115.712C385.317 116.128 385.189 116.504 385.045 116.84H388.741V104.072H386.461ZM399.536 119V107.912H399.488L396.272 119H393.824V101.912H396.272V113.024H396.32L399.536 101.912H401.984V119H399.536ZM404.277 119V101.912H406.629L409.773 110.96H409.821L412.941 101.912H415.317V119H412.869V108.608H412.821L410.397 115.952H409.173L406.773 108.608H406.725V119H404.277ZM32.16 151V153.64H30.048V148.84H31.296C31.44 148.536 31.576 148.192 31.704 147.808C31.832 147.408 31.944 146.992 32.04 146.56C32.136 146.128 32.224 145.688 32.304 145.24C32.384 144.776 32.448 144.328 32.496 143.896C32.528 143.56 32.552 143.184 32.568 142.768C32.6 142.352 32.624 141.928 32.64 141.496C32.656 141.048 32.664 140.608 32.664 140.176C32.68 139.728 32.688 139.304 32.688 138.904V133.912H39.72V148.84H41.112V153.64H39V151H32.16ZM34.992 136.072V138.88C34.992 139.104 34.984 139.432 34.968 139.864C34.952 140.28 34.928 140.736 34.896 141.232C34.864 141.728 34.832 142.232 34.8 142.744C34.768 143.24 34.728 143.68 34.68 144.064C34.648 144.384 34.592 144.752 34.512 145.168C34.448 145.568 34.368 145.984 34.272 146.416C34.176 146.848 34.072 147.28 33.96 147.712C33.848 148.128 33.72 148.504 33.576 148.84H37.272V136.072H34.992ZM46.3307 136.072V141.04C46.3307 141.296 46.3227 141.736 46.3067 142.36C46.2907 142.968 46.2507 143.64 46.1867 144.376C46.1227 145.112 46.0267 145.84 45.8987 146.56C45.7707 147.28 45.5947 147.88 45.3707 148.36C44.9867 149.176 44.4987 149.824 43.9067 150.304C43.3147 150.768 42.5947 151 41.7467 151H41.6027V148.552C42.0827 148.52 42.4587 148.376 42.7307 148.12C43.0027 147.864 43.2267 147.544 43.4027 147.16C43.5467 146.824 43.6587 146.416 43.7387 145.936C43.8347 145.456 43.9067 144.944 43.9547 144.4C44.0027 143.856 44.0347 143.296 44.0507 142.72C44.0667 142.144 44.0747 141.592 44.0747 141.064V133.912H51.1787V151H48.7307V136.072H46.3307ZM57.7119 136.216C56.8479 136.216 56.2799 136.448 56.0079 136.912C55.7519 137.36 55.6239 138.016 55.6239 138.88C55.6239 139.312 55.6479 139.696 55.6959 140.032C55.7439 140.352 55.8319 140.624 55.9599 140.848C56.1039 141.072 56.3039 141.248 56.5599 141.376C56.8159 141.488 57.1599 141.544 57.5919 141.544H58.7679V136.216H57.7119ZM58.7679 151V143.704H57.6399L55.5039 151H53.0079L55.3359 143.392C54.9519 143.248 54.6159 143.032 54.3279 142.744C54.0399 142.456 53.8079 142.128 53.6319 141.76C53.4559 141.392 53.3359 140.96 53.2719 140.464C53.2079 139.968 53.1759 139.456 53.1759 138.928C53.1759 135.584 54.6159 133.912 57.4959 133.912H61.2159V151H58.7679ZM67.9723 151V133.912H71.5483C72.3323 133.912 72.9963 134.032 73.5403 134.272C74.1003 134.512 74.5563 134.832 74.9083 135.232C75.2603 135.632 75.5083 136.096 75.6523 136.624C75.8123 137.136 75.8923 137.672 75.8923 138.232V138.856C75.8923 139.32 75.8523 139.712 75.7723 140.032C75.7083 140.352 75.6043 140.632 75.4603 140.872C75.1883 141.32 74.7723 141.704 74.2123 142.024C74.7883 142.296 75.2123 142.696 75.4843 143.224C75.7563 143.752 75.8923 144.472 75.8923 145.384V146.344C75.8923 147.848 75.5243 149 74.7883 149.8C74.0683 150.6 72.9083 151 71.3083 151H67.9723ZM70.4203 143.08V148.552H71.4763C71.9723 148.552 72.3563 148.48 72.6283 148.336C72.9163 148.192 73.1323 147.992 73.2763 147.736C73.4203 147.48 73.5083 147.176 73.5403 146.824C73.5723 146.472 73.5883 146.088 73.5883 145.672C73.5883 145.24 73.5643 144.864 73.5163 144.544C73.4683 144.224 73.3723 143.952 73.2283 143.728C73.0683 143.504 72.8523 143.344 72.5803 143.248C72.3083 143.136 71.9483 143.08 71.5003 143.08H70.4203ZM70.4203 136.216V140.92H71.5243C72.3403 140.92 72.8843 140.72 73.1563 140.32C73.4443 139.904 73.5883 139.304 73.5883 138.52C73.5883 137.752 73.4283 137.176 73.1083 136.792C72.8043 136.408 72.2443 136.216 71.4283 136.216H70.4203ZM82.6663 145.024L81.4663 138.832H81.4183L80.2183 145.024H82.6663ZM76.6183 151L80.4343 133.912H82.4743L86.2903 151H83.8423L83.1223 147.328H79.7863L79.0663 151H76.6183ZM95.2718 146.128V147.184C95.2718 147.712 95.1678 148.216 94.9598 148.696C94.7678 149.16 94.4958 149.576 94.1438 149.944C93.7918 150.312 93.3758 150.608 92.8958 150.832C92.4318 151.04 91.9278 151.144 91.3838 151.144C90.9198 151.144 90.4478 151.08 89.9678 150.952C89.4878 150.824 89.0558 150.6 88.6718 150.28C88.2878 149.96 87.9678 149.552 87.7118 149.056C87.4718 148.544 87.3518 147.896 87.3518 147.112V137.704C87.3518 137.144 87.4478 136.624 87.6398 136.144C87.8318 135.664 88.1038 135.248 88.4558 134.896C88.8078 134.544 89.2238 134.272 89.7038 134.08C90.1998 133.872 90.7438 133.768 91.3358 133.768C92.4878 133.768 93.4238 134.144 94.1438 134.896C94.4958 135.264 94.7678 135.704 94.9598 136.216C95.1678 136.712 95.2718 137.256 95.2718 137.848V138.808H92.8238V137.992C92.8238 137.512 92.6878 137.096 92.4158 136.744C92.1438 136.392 91.7758 136.216 91.3118 136.216C90.7038 136.216 90.2958 136.408 90.0878 136.792C89.8958 137.16 89.7998 137.632 89.7998 138.208V146.944C89.7998 147.44 89.9038 147.856 90.1118 148.192C90.3358 148.528 90.7278 148.696 91.2878 148.696C91.4478 148.696 91.6158 148.672 91.7918 148.624C91.9838 148.56 92.1598 148.464 92.3198 148.336C92.4638 148.208 92.5838 148.032 92.6797 147.808C92.7758 147.584 92.8238 147.304 92.8238 146.968V146.128H95.2718Z" fill="#462B74"/>
<path d="M155.358 48.0004L155.968 30.9233L158.319 31.0073L161.138 40.1619L161.186 40.1636L164.627 31.2328L167.001 31.3177L166.391 48.3948L163.945 48.3073L164.316 37.922L164.268 37.9203L161.583 45.173L160.36 45.1293L158.224 37.7042L158.176 37.7025L157.804 48.0879L155.358 48.0004ZM168.685 48.4768L169.296 31.3997L176.587 31.6603L176.505 33.9629L171.66 33.7897L171.481 38.8025L175.702 38.9534L175.62 41.2559L171.399 41.105L171.219 46.1178L176.064 46.291L175.977 48.7374L168.685 48.4768ZM183.186 31.8962L185.632 31.9837L185.371 39.299L186.09 39.3247C186.378 39.335 186.603 39.303 186.766 39.2288C186.945 39.1551 187.085 39.0481 187.186 38.9076C187.303 38.7677 187.389 38.6106 187.443 38.4365C187.498 38.2463 187.545 38.0399 187.585 37.8172L187.898 35.787C187.916 35.7236 187.937 35.5963 187.96 35.405C187.999 35.1983 188.055 34.9761 188.127 34.7386C188.217 34.4856 188.322 34.2252 188.444 33.9574C188.566 33.6735 188.727 33.4231 188.927 33.2061C189.277 32.8024 189.655 32.5277 190.061 32.3821C190.482 32.2371 190.973 32.1746 191.532 32.1946L191.556 32.1954L191.474 34.498L191.426 34.4963C191.25 34.49 191.081 34.5159 190.919 34.5742C190.773 34.617 190.634 34.7081 190.501 34.8474C190.368 34.9868 190.274 35.1595 190.218 35.3657C190.179 35.5724 190.139 35.8031 190.098 36.0578L189.811 38.0408C189.787 38.2481 189.756 38.4471 189.717 38.6378C189.679 38.8126 189.641 38.9873 189.602 39.1621C189.565 39.3208 189.52 39.4473 189.469 39.5415C189.261 39.9824 189.009 40.3016 188.714 40.4992L190.658 49.2622L188.164 49.1731L186.565 41.5031L185.294 41.4576L185.022 49.0608L182.575 48.9733L182.847 41.3702L181.576 41.3247L179.433 48.861L176.939 48.7718L179.504 40.17C179.224 39.9518 178.995 39.6155 178.82 39.1609C178.775 39.0632 178.74 38.9339 178.713 38.7728C178.688 38.5958 178.662 38.4188 178.636 38.2417C178.611 38.0487 178.594 37.848 178.586 37.6396L178.441 35.6411C178.418 35.3841 178.386 35.1509 178.346 34.9413C178.321 34.7323 178.248 34.5535 178.125 34.405C178.002 34.2566 177.862 34.1555 177.704 34.1018C177.562 34.0327 177.403 33.995 177.227 33.9887L177.179 33.987L177.262 31.6845L177.286 31.6853C177.845 31.7053 178.322 31.8024 178.716 31.9766C179.126 32.1514 179.492 32.4526 179.813 32.8803C179.996 33.1111 180.139 33.3723 180.241 33.6641C180.343 33.94 180.422 34.2069 180.476 34.4651C180.548 34.7078 180.588 34.9333 180.596 35.1418C180.621 35.3348 180.641 35.4636 180.654 35.5281L180.821 37.5754C180.845 37.8004 180.878 38.0097 180.919 38.2033C180.961 38.3809 181.027 38.5433 181.118 38.6907C181.225 38.8386 181.356 38.9554 181.514 39.041C181.687 39.1273 181.917 39.1755 182.205 39.1858L182.924 39.2115L183.186 31.8962ZM193.35 49.3584L193.255 51.9968L191.145 51.9213L191.316 47.1244L192.563 47.169C192.718 46.8703 192.866 46.5314 193.008 46.1522C193.15 45.757 193.277 45.3453 193.388 44.917C193.5 44.4887 193.603 44.0521 193.699 43.6073C193.796 43.1464 193.876 42.701 193.939 42.271C193.983 41.9363 194.021 41.5614 194.051 41.1463C194.098 40.7317 194.137 40.3088 194.169 39.8777C194.201 39.4305 194.224 38.9911 194.24 38.5594C194.272 38.1122 194.295 37.6888 194.309 37.289L194.488 32.3002L201.515 32.5514L200.982 47.4699L202.373 47.5196L202.202 52.3166L200.091 52.2411L200.185 49.6028L193.35 49.3584ZM196.713 34.5411L196.613 37.3474C196.605 37.5712 196.585 37.8987 196.554 38.3299C196.523 38.745 196.482 39.1999 196.433 39.6944C196.383 40.189 196.333 40.6915 196.283 41.202C196.233 41.6966 196.177 42.1349 196.116 42.5169C196.072 42.8355 196.003 43.2013 195.908 43.6142C195.83 44.0116 195.735 44.4245 195.624 44.8528C195.513 45.2811 195.393 45.7091 195.266 46.1368C195.139 46.5486 194.998 46.9198 194.842 47.2504L198.535 47.3824L198.992 34.6226L196.713 34.5411ZM203.791 47.4262C204.015 47.4342 204.272 47.4194 204.561 47.3817C204.851 47.344 205.078 47.2481 205.244 47.0939C205.376 46.9706 205.52 46.7755 205.673 46.5089C205.843 46.2268 206.002 45.8322 206.148 45.3251L206.397 44.3974L203.12 32.6088L205.71 32.7014L207.726 40.8186L207.774 40.8203L209.86 32.8497L212.45 32.9423L208.437 45.7911C208.185 46.5666 207.92 47.2536 207.642 47.8521C207.365 48.4505 206.988 48.9254 206.511 49.2766C206.116 49.5826 205.701 49.7599 205.267 49.8085C204.848 49.8736 204.383 49.897 203.872 49.8787L203.536 49.8667L203.623 47.4202L203.791 47.4262ZM213.141 50.0659L213.752 32.9888L216.198 33.0763L215.937 40.3916L218.959 40.4996L219.22 33.1843L221.667 33.2718L221.056 50.3489L218.61 50.2614L218.882 42.6583L215.86 42.5502L215.588 50.1534L213.141 50.0659ZM228.508 44.6354L227.53 38.4045L227.482 38.4028L226.062 44.5479L228.508 44.6354ZM222.25 50.3915L226.674 33.4508L228.713 33.5236L231.916 50.737L229.47 50.6496L228.881 46.9542L225.548 46.835L224.697 50.479L222.25 50.3915ZM233.121 50.7801L233.731 33.703L237.401 33.8342C238.073 33.8582 238.661 33.9673 239.166 34.1615C239.672 34.3556 240.124 34.684 240.524 35.1466C240.924 35.6092 241.193 36.1471 241.331 36.7604C241.47 37.3578 241.521 38.1681 241.484 39.1915C241.457 39.959 241.386 40.6049 241.271 41.1291C241.172 41.6539 240.97 42.143 240.666 42.5964C240.31 43.1441 239.847 43.5678 239.276 43.8676C238.705 44.1514 237.964 44.277 237.053 44.2444L235.806 44.1998L235.567 50.8676L233.121 50.7801ZM236.095 36.093L235.888 41.8973L237.063 41.9393C237.559 41.957 237.945 41.8988 238.222 41.7646C238.499 41.6304 238.706 41.4377 238.843 41.1864C238.98 40.9511 239.062 40.6579 239.091 40.3067C239.135 39.9561 239.165 39.5649 239.181 39.1332C239.195 38.7334 239.201 38.3574 239.197 38.005C239.194 37.6367 239.134 37.3143 239.016 37.0379C238.897 36.7615 238.713 36.5468 238.462 36.3937C238.211 36.2407 237.846 36.1556 237.367 36.1384L236.095 36.093ZM243.211 38.0764C243.235 37.3889 243.377 36.7855 243.635 36.2665C243.894 35.7474 244.23 35.3191 244.642 34.9816C245.038 34.6595 245.479 34.4191 245.965 34.2604C246.467 34.1022 246.965 34.032 247.461 34.0497C247.957 34.0674 248.441 34.1728 248.915 34.3658C249.404 34.5594 249.843 34.8313 250.23 35.1814C250.602 35.5469 250.898 35.9977 251.119 36.534C251.34 37.0702 251.438 37.6821 251.413 38.3696L251.091 47.3879C251.065 48.1074 250.923 48.7188 250.665 49.2218C250.407 49.7249 250.08 50.1375 249.684 50.4596C249.272 50.7971 248.815 51.0449 248.313 51.2031C247.827 51.3618 247.336 51.4323 246.84 51.4146C246.345 51.3969 245.852 51.2912 245.363 51.0976C244.889 50.9046 244.467 50.6253 244.096 50.2598C243.708 49.9098 243.403 49.4746 243.182 48.9544C242.96 48.4341 242.862 47.8142 242.888 47.0947L243.211 38.0764ZM245.335 47.1821C245.313 47.7737 245.458 48.2192 245.767 48.5184C246.093 48.8023 246.48 48.9522 246.928 48.9682C247.376 48.9842 247.764 48.862 248.094 48.6016C248.44 48.3258 248.623 47.8921 248.644 47.3004L248.967 38.2822C248.988 37.6906 248.836 37.2529 248.509 36.969C248.2 36.6698 247.821 36.5121 247.374 36.4961C246.926 36.4801 246.529 36.61 246.183 36.8859C245.853 37.1463 245.678 37.5723 245.657 38.1639L245.335 47.1821ZM253.873 51.5219L253.779 54.1602L251.668 54.0848L251.84 49.2879L253.087 49.3324C253.242 49.0338 253.39 48.6949 253.532 48.3157C253.674 47.9205 253.801 47.5088 253.912 47.0805C254.023 46.6522 254.127 46.2156 254.223 45.7707C254.32 45.3099 254.4 44.8645 254.463 44.4345C254.507 44.0998 254.544 43.7249 254.575 43.3098C254.622 42.8952 254.661 42.4723 254.693 42.0411C254.725 41.594 254.748 41.1546 254.764 40.7228C254.796 40.2757 254.819 39.8523 254.833 39.4525L255.012 34.4637L262.039 34.7149L261.506 49.6334L262.897 49.6831L262.725 54.48L260.615 54.4046L260.709 51.7663L253.873 51.5219ZM257.237 36.7046L257.137 39.5108C257.129 39.7347 257.109 40.0622 257.077 40.4933C257.047 40.9085 257.006 41.3634 256.957 41.8579C256.907 42.3524 256.857 42.855 256.807 43.3655C256.757 43.86 256.701 44.2983 256.64 44.6804C256.596 44.999 256.527 45.3648 256.432 45.7777C256.354 46.1751 256.259 46.588 256.148 47.0163C256.036 47.4446 255.917 47.8726 255.79 48.3003C255.663 48.7121 255.522 49.0832 255.366 49.4139L259.059 49.5459L259.515 36.7861L257.237 36.7046ZM264.062 51.8861L264.672 34.809L267.119 34.8965L266.857 42.2118L269.879 42.3198L270.141 35.0045L272.587 35.092L271.977 52.1691L269.531 52.0816L269.802 44.4785L266.78 44.3704L266.508 51.9736L264.062 51.8861ZM274.885 35.1741L277.331 35.2615L277.081 42.2651L277.992 42.2976C278.84 42.3279 279.539 42.473 280.09 42.7329C280.658 42.9773 281.11 43.3137 281.447 43.742C281.799 44.2028 282.013 44.6908 282.091 45.2059C282.169 45.721 282.204 46.2907 282.198 46.9148L282.164 47.8742C282.11 49.3773 281.701 50.5154 280.937 51.2886C280.189 52.0623 279.015 52.4206 277.416 52.3635L274.274 52.2512L274.885 35.1741ZM277.004 44.4237L276.808 49.8922L277.672 49.9231C278.167 49.9408 278.554 49.8825 278.831 49.7483C279.124 49.6147 279.347 49.4226 279.5 49.1719C279.653 48.9212 279.751 48.6205 279.796 48.2699C279.841 47.9193 279.87 47.5361 279.885 47.1203C279.901 46.6886 279.89 46.32 279.853 46.0145C279.815 45.7089 279.729 45.4417 279.593 45.2127C279.441 44.9831 279.231 44.8075 278.963 44.6859C278.696 44.5482 278.339 44.4714 277.891 44.4554L277.004 44.4237ZM283.245 52.5718L283.855 35.4947L286.301 35.5822L285.691 52.6593L283.245 52.5718ZM288 52.7418L288.61 35.6647L290.961 35.7487L293.78 44.9033L293.828 44.905L297.269 35.9742L299.643 36.0591L299.033 53.1362L296.586 53.0487L296.958 42.6634L296.91 42.6617L294.225 49.9144L293.002 49.8707L290.865 42.4456L290.818 42.4439L290.446 52.8293L288 52.7418Z" fill="#462B74"/>
<rect x="144.869" y="22.5537" width="175.192" height="34.7905" rx="17.3953" transform="rotate(2.04722 144.869 22.5537)" stroke="#462B74" stroke-width="1.20946"/>
</svg>
