<svg width="388" height="334" viewBox="0 0 388 334" fill="none" xmlns="http://www.w3.org/2000/svg">
<path d="M375.704 74.3465L206.018 2.27222C202.466 0.772614 198.649 0 194.793 0C190.938 0 187.121 0.772614 183.568 2.27222L11.3384 74.3717C7.97416 75.7941 5.10409 78.177 3.08733 81.2224C1.07056 84.2677 -0.00333366 87.8401 2.33337e-05 91.4927V212.246C-0.00579909 215.918 1.07815 219.508 3.11455 222.563C5.15095 225.617 8.04818 227.999 11.4392 229.405L179.915 298.897H180.066L194.806 304.994L264.474 333.718L236.09 287.735L375.615 229.405C378.992 227.99 381.876 225.609 383.905 222.561C385.933 219.513 387.016 215.933 387.017 212.272V91.3289C386.995 87.7028 385.912 84.1624 383.902 81.1446C381.892 78.1267 379.042 75.7635 375.704 74.3465Z" fill="#462B74"/>
<path d="M77.0543 228.422V221.455H74.2197V220.057H81.4259V221.455H78.5913V228.422H77.0543Z" fill="white"/>
<path d="M86.4629 228.422L89.6376 220.057H91.2628L94.4376 228.422H92.6864L91.9557 226.305H88.844L88.1133 228.422H86.4629ZM89.2849 224.995H91.5022L90.4061 221.757L89.2849 224.995Z" fill="white"/>
<path d="M101.215 228.422L101.618 220.057H103.079L105.397 224.012L107.69 220.057H109.139L109.542 228.422H108.005L107.728 222.627L105.712 226.041H104.982L102.953 222.715L102.676 228.422H101.215Z" fill="white"/>
<path d="M117.099 228.422V220.057H122.138V221.417H118.573V223.231H119.895C120.422 223.224 120.945 223.323 121.432 223.521C121.863 223.706 122.234 224.007 122.503 224.39C122.767 224.803 122.898 225.287 122.881 225.776C122.88 226.213 122.781 226.643 122.591 227.036C122.37 227.462 122.029 227.812 121.609 228.044C121.05 228.334 120.423 228.469 119.795 228.434L117.099 228.422ZM119.832 224.567H118.573V227.086H119.832C120.218 227.104 120.599 226.993 120.916 226.771C121.057 226.66 121.169 226.516 121.242 226.351C121.314 226.186 121.345 226.006 121.332 225.827C121.342 225.646 121.31 225.465 121.238 225.298C121.165 225.132 121.055 224.985 120.916 224.869C120.599 224.65 120.217 224.544 119.832 224.567Z" fill="white"/>
<path d="M134.181 228.648C133.593 228.654 133.01 228.538 132.468 228.308C131.949 228.081 131.478 227.756 131.082 227.351C130.273 226.517 129.821 225.401 129.822 224.239C129.817 223.651 129.933 223.067 130.163 222.526C130.372 222 130.684 221.521 131.08 221.117C131.475 220.713 131.947 220.391 132.468 220.17C133.009 219.945 133.589 219.83 134.175 219.83C134.761 219.83 135.341 219.945 135.882 220.17C136.403 220.389 136.874 220.71 137.268 221.115C137.666 221.521 137.983 222 138.2 222.526C138.42 223.07 138.531 223.652 138.528 224.239C138.53 224.826 138.419 225.408 138.2 225.952C137.983 226.474 137.666 226.949 137.268 227.351C136.866 227.759 136.385 228.081 135.854 228.297C135.323 228.514 134.754 228.62 134.181 228.611V228.648ZM134.181 227.162C134.687 227.169 135.183 227.024 135.605 226.746C136.005 226.473 136.327 226.099 136.537 225.663C136.765 225.209 136.881 224.708 136.877 224.201C136.883 223.691 136.771 223.187 136.55 222.727C136.342 222.296 136.019 221.93 135.618 221.669C135.191 221.393 134.69 221.252 134.181 221.266C133.673 221.252 133.172 221.393 132.745 221.669C132.34 221.929 132.013 222.295 131.8 222.727C131.593 223.189 131.485 223.689 131.485 224.195C131.485 224.701 131.593 225.201 131.8 225.663C132.016 226.1 132.341 226.473 132.745 226.746C133.171 227.027 133.672 227.172 134.181 227.162Z" fill="white"/>
<path d="M145.861 228.423V220.058H148.734C149.245 220.044 149.752 220.143 150.22 220.348C150.593 220.513 150.909 220.785 151.127 221.129C151.339 221.459 151.449 221.845 151.442 222.237C151.45 222.503 151.394 222.767 151.279 223.006C151.188 223.205 151.06 223.385 150.901 223.535C150.77 223.665 150.622 223.775 150.46 223.863C150.352 223.926 150.231 223.964 150.107 223.976C150.287 224.005 150.465 224.051 150.636 224.115C150.847 224.201 151.042 224.32 151.216 224.467C151.41 224.643 151.564 224.857 151.669 225.097C151.803 225.389 151.868 225.708 151.858 226.029C151.881 226.503 151.743 226.97 151.466 227.354C151.189 227.739 150.79 228.018 150.334 228.146C149.815 228.303 149.276 228.38 148.734 228.373L145.861 228.423ZM147.373 223.384H148.633C148.938 223.386 149.238 223.308 149.502 223.157C149.635 223.075 149.743 222.957 149.812 222.816C149.881 222.676 149.909 222.519 149.893 222.363C149.906 222.149 149.839 221.938 149.704 221.771C149.576 221.63 149.409 221.53 149.225 221.482C149.033 221.421 148.834 221.392 148.633 221.393H147.373V223.384ZM147.373 227.075H148.721H149.212C149.392 227.06 149.567 227.013 149.729 226.937C149.893 226.859 150.033 226.736 150.132 226.584C150.239 226.387 150.291 226.165 150.283 225.941C150.3 225.666 150.209 225.396 150.031 225.185C149.86 225.009 149.641 224.886 149.401 224.833C149.179 224.774 148.951 224.744 148.721 224.744H147.373V227.075Z" fill="white"/>
<path d="M165.49 225.941L166.598 226.898C166.38 227.189 166.126 227.452 165.842 227.679C165.479 227.961 165.076 228.186 164.646 228.347C164.173 228.537 163.668 228.631 163.159 228.624C162.386 228.639 161.624 228.443 160.954 228.057C160.314 227.694 159.79 227.157 159.443 226.508C159.129 225.903 158.947 225.24 158.908 224.56C158.869 223.881 158.974 223.201 159.216 222.564C159.42 222.044 159.719 221.565 160.098 221.153C160.48 220.747 160.944 220.425 161.458 220.209C162.01 219.966 162.607 219.846 163.209 219.856C163.93 219.831 164.643 220.001 165.275 220.347C165.795 220.65 166.245 221.058 166.598 221.544L165.477 222.527C165.229 222.163 164.912 221.85 164.545 221.607C164.145 221.358 163.68 221.235 163.209 221.254C162.707 221.241 162.213 221.387 161.798 221.67C161.396 221.942 161.077 222.322 160.879 222.766C160.663 223.232 160.556 223.74 160.564 224.253C160.554 224.753 160.662 225.25 160.879 225.701C161.081 226.122 161.389 226.482 161.773 226.747C162.18 227.005 162.652 227.14 163.134 227.138C163.535 227.15 163.935 227.077 164.305 226.923C164.569 226.793 164.811 226.623 165.024 226.42L165.49 225.941Z" fill="white"/>
<path d="M175.243 224.805V228.421H173.655V220.055H175.243V223.406H175.91C176.191 223.418 176.468 223.343 176.704 223.192C176.921 223.01 177.1 222.787 177.233 222.537L178.657 220.018H180.395L178.732 222.84C178.582 223.122 178.381 223.373 178.14 223.583C177.929 223.772 177.686 223.921 177.422 224.024C177.634 224.087 177.837 224.176 178.027 224.288C178.19 224.394 178.335 224.526 178.455 224.679C178.606 224.865 178.741 225.063 178.858 225.271L180.748 228.383H178.871L177.309 225.712C177.169 225.441 176.981 225.198 176.754 224.994C176.532 224.831 176.261 224.751 175.986 224.767L175.243 224.805Z" fill="white"/>
<path d="M187.396 228.422L190.571 220.057H192.209L195.384 228.422H193.62L192.902 226.305H189.765L189.034 228.422H187.396ZM190.218 224.995H192.448L191.34 221.757L190.218 224.995Z" fill="white"/>
<path d="M208.113 220.057V228.422H206.602V225.122H206.06C205.881 225.115 205.703 225.154 205.543 225.235C205.391 225.326 205.261 225.451 205.165 225.6C205.017 225.812 204.887 226.035 204.775 226.268L203.666 228.422H201.928L203.188 226.079C203.347 225.771 203.537 225.48 203.754 225.21C203.901 225.037 204.086 224.903 204.296 224.819C203.952 224.76 203.628 224.617 203.351 224.403C203.061 224.182 202.825 223.896 202.663 223.568C202.502 223.24 202.418 222.879 202.419 222.514C202.423 222.095 202.531 221.683 202.734 221.317C202.967 220.935 203.297 220.622 203.691 220.41C204.19 220.157 204.745 220.036 205.304 220.057H208.113ZM205.329 223.837H206.589V221.418H205.329C205.163 221.412 204.997 221.439 204.842 221.497C204.686 221.555 204.543 221.644 204.422 221.758C204.305 221.869 204.213 222.004 204.152 222.154C204.091 222.304 204.063 222.465 204.069 222.627C204.067 222.944 204.184 223.25 204.397 223.484C204.521 223.601 204.668 223.691 204.828 223.75C204.988 223.808 205.159 223.833 205.329 223.824V223.837Z" fill="white"/>
<path d="M227.963 228.648C227.374 228.654 226.791 228.538 226.249 228.308C225.73 228.081 225.26 227.756 224.863 227.351C224.47 226.946 224.154 226.472 223.931 225.952C223.713 225.408 223.602 224.826 223.604 224.239C223.6 223.652 223.712 223.07 223.931 222.526C224.153 222.002 224.469 221.524 224.863 221.115C225.26 220.713 225.731 220.392 226.249 220.17C226.79 219.945 227.37 219.83 227.956 219.83C228.542 219.83 229.122 219.945 229.663 220.17C230.182 220.392 230.653 220.713 231.049 221.115C231.447 221.521 231.764 222 231.981 222.526C232.201 223.07 232.312 223.652 232.309 224.239C232.311 224.826 232.2 225.408 231.981 225.952C231.538 227.005 230.709 227.848 229.663 228.308C229.126 228.537 228.547 228.652 227.963 228.648ZM227.963 227.162C228.468 227.169 228.964 227.024 229.386 226.746C229.786 226.473 230.108 226.099 230.318 225.663C230.546 225.209 230.663 224.708 230.659 224.201C230.664 223.691 230.552 223.187 230.331 222.727C230.123 222.296 229.8 221.93 229.399 221.669C228.972 221.393 228.471 221.252 227.963 221.266C227.454 221.252 226.953 221.393 226.526 221.669C226.121 221.929 225.794 222.295 225.582 222.727C225.366 223.186 225.254 223.687 225.254 224.195C225.254 224.702 225.366 225.203 225.582 225.663C225.797 226.1 226.122 226.473 226.526 226.746C226.952 227.027 227.453 227.172 227.963 227.162Z" fill="white"/>
<path d="M239.645 228.422V220.057H244.684V221.417H241.119V223.231H242.454C242.976 223.225 243.495 223.324 243.978 223.521C244.409 223.706 244.78 224.007 245.049 224.39C245.316 224.802 245.452 225.285 245.44 225.776C245.44 226.214 245.337 226.646 245.137 227.036C244.916 227.457 244.579 227.806 244.167 228.044C243.607 228.331 242.982 228.465 242.353 228.434L239.645 228.422ZM242.366 224.567H241.106V227.086H242.366C242.752 227.106 243.134 226.995 243.449 226.771C243.591 226.66 243.703 226.516 243.775 226.351C243.848 226.186 243.879 226.006 243.865 225.827C243.875 225.646 243.843 225.465 243.771 225.298C243.699 225.132 243.589 224.985 243.449 224.869C243.133 224.648 242.751 224.542 242.366 224.567Z" fill="white"/>
<path d="M254.231 220.057H259.761V228.422H258.174V221.468H255.654C255.611 222.764 255.455 224.054 255.188 225.323C255.044 226.193 254.665 227.008 254.092 227.679C253.823 227.945 253.502 228.152 253.148 228.287C252.794 228.421 252.416 228.48 252.038 228.46H251.837V227.049C252.214 227.056 252.581 226.926 252.87 226.683C253.197 226.363 253.436 225.964 253.563 225.524C253.778 224.827 253.921 224.109 253.991 223.383C254.117 222.475 254.18 221.367 254.231 220.057Z" fill="white"/>
<path d="M266.614 228.422L269.789 220.057H271.427L274.602 228.422H272.913L272.183 226.305H269.083L268.353 228.422H266.614ZM269.436 224.995H271.654L270.545 221.757L269.436 224.995Z" fill="white"/>
<path d="M287.515 225.941L288.624 226.899C288.413 227.196 288.158 227.459 287.868 227.68C287.51 227.961 287.111 228.187 286.684 228.347C286.207 228.537 285.698 228.631 285.185 228.625C284.412 228.639 283.65 228.443 282.98 228.058C282.346 227.69 281.827 227.154 281.481 226.508C281.112 225.828 280.926 225.064 280.939 224.291C280.935 223.702 281.037 223.117 281.242 222.565C281.445 222.041 281.749 221.562 282.136 221.154C282.519 220.747 282.982 220.426 283.497 220.209C284.044 219.966 284.637 219.846 285.235 219.856C285.956 219.83 286.67 220 287.301 220.348C287.82 220.65 288.271 221.058 288.624 221.544L287.503 222.527C287.255 222.163 286.938 221.851 286.571 221.607C286.172 221.357 285.706 221.234 285.235 221.255C284.733 221.243 284.24 221.389 283.824 221.67C283.421 221.943 283.103 222.322 282.904 222.766C282.689 223.232 282.582 223.74 282.59 224.253C282.58 224.754 282.688 225.25 282.904 225.702C283.107 226.126 283.421 226.487 283.812 226.747C284.212 227.009 284.681 227.145 285.16 227.138C285.561 227.153 285.961 227.08 286.331 226.924C286.598 226.799 286.841 226.629 287.049 226.42L287.515 225.941Z" fill="white"/>
<path d="M297.935 228.422V221.455H295.101V220.057H302.345V221.455H299.51V228.422H297.935Z" fill="white"/>
<path d="M309.452 228.422V220.057H310.964V222.979H312.299C312.825 222.969 313.346 223.077 313.824 223.294C314.258 223.486 314.629 223.796 314.895 224.189C315.168 224.626 315.304 225.135 315.285 225.65C315.281 225.988 315.226 226.324 315.121 226.645C315.007 226.98 314.827 227.289 314.592 227.553C314.329 227.837 314 228.053 313.635 228.182C313.176 228.355 312.688 228.436 312.199 228.422H309.452ZM312.173 224.315H310.914V227.099H312.173C312.563 227.116 312.947 226.996 313.257 226.759C313.523 226.478 313.671 226.106 313.671 225.72C313.671 225.333 313.523 224.961 313.257 224.68C313.1 224.556 312.92 224.464 312.728 224.41C312.535 224.356 312.334 224.341 312.136 224.365L312.173 224.315Z" fill="white"/>
<path d="M105.234 116.552C105.089 118.373 104.439 120.118 103.357 121.591C102.905 122.088 102.349 122.48 101.728 122.739C101.108 122.998 100.438 123.118 99.7665 123.09C99.0236 123.118 98.2843 122.973 97.6067 122.667C96.9291 122.361 96.3316 121.902 95.8611 121.326C94.6349 119.433 93.8829 117.273 93.669 115.027C93.3479 113.115 93.1501 111.183 93.0769 109.245C92.9761 106.964 92.9257 104.785 92.9257 102.719C92.8628 98.7822 93.0775 94.846 93.5682 90.9396C93.7605 88.7247 94.4961 86.5914 95.7099 84.7287C96.1812 84.1057 96.7964 83.6061 97.5029 83.2726C98.2093 82.9391 98.986 82.7817 99.7665 82.8137C100.467 82.7644 101.169 82.8839 101.813 83.1623C102.458 83.4408 103.026 83.8699 103.47 84.4137C104.502 86.136 105.106 88.0797 105.234 90.0829C105.373 91.2293 105.499 92.7033 105.6 94.5301C105.7 96.3568 105.763 98.0072 105.763 99.5064H119.684C119.755 95.6436 119.574 91.7804 119.143 87.9412C118.846 84.1505 117.792 80.4577 116.043 77.0816C114.621 74.4864 112.417 72.4057 109.744 71.1352C106.646 69.83 103.303 69.2111 99.9429 69.3211C92.678 69.3211 87.1851 71.9625 83.4645 77.2453C79.7438 82.5282 77.8877 91.0194 77.8961 102.719C77.8549 107.269 78.1793 111.814 78.8661 116.312C80 123.233 82.2298 128.335 85.5558 131.619C88.8817 134.903 93.5724 136.541 99.628 136.532C104.478 136.532 108.371 135.562 111.294 133.597C114.466 131.289 116.752 127.963 117.769 124.174C119.155 119.848 119.852 113.969 119.861 106.536H105.763C105.821 109.883 105.645 113.23 105.234 116.552Z" fill="white"/>
<path d="M128.136 115.694C128.193 117.422 127.756 119.131 126.876 120.62C126.451 121.064 125.931 121.408 125.356 121.626C124.781 121.844 124.164 121.93 123.551 121.879H123.135V135.044H127.406C129.931 135.131 132.447 134.702 134.801 133.785C136.676 132.942 138.19 131.459 139.071 129.602C140.241 126.988 140.895 124.174 140.999 121.312L144.086 83.9588H150.851V135.007H165.087V70.7559H131.664L128.136 115.694Z" fill="white"/>
<path d="M206.434 73.3005C202.828 70.5465 198.369 69.1465 193.836 69.3447C189.527 69.175 185.271 70.3315 181.641 72.658C178.432 74.8753 175.988 78.4448 174.309 83.3665C172.629 88.2882 171.789 94.7469 171.789 102.743C171.714 107.473 172.073 112.2 172.86 116.865C174.069 123.643 176.316 128.619 179.6 131.794C182.884 134.969 187.503 136.556 193.458 136.556C197.827 136.75 202.137 135.492 205.716 132.978C208.891 130.585 211.246 126.889 212.783 121.892C214.469 115.653 215.241 109.203 215.076 102.743C215.16 97.1322 214.623 91.5298 213.476 86.0373C212.032 80.1917 209.684 75.9461 206.434 73.3005ZM199.53 115.265C199.378 117.455 198.634 119.563 197.376 121.363C196.884 121.923 196.274 122.367 195.59 122.664C194.906 122.96 194.165 123.101 193.42 123.076C192.595 123.102 191.777 122.914 191.046 122.53C190.315 122.146 189.696 121.579 189.25 120.884C188.259 119.423 187.583 116.798 187.222 113.01C186.892 109.598 186.749 106.17 186.793 102.743C186.709 98.6599 186.958 94.5771 187.537 90.5349C187.768 88.395 188.501 86.3401 189.678 84.5381C190.16 83.9661 190.768 83.5145 191.455 83.2192C192.142 82.924 192.888 82.7932 193.634 82.8374C194.398 82.7988 195.159 82.9487 195.851 83.2739C196.543 83.599 197.145 84.0894 197.603 84.7019C198.777 86.7126 199.471 88.9676 199.631 91.2907C200.023 95.0949 200.2 98.9183 200.16 102.743C200.233 106.926 200.022 111.11 199.53 115.265Z" fill="white"/>
<path d="M254.912 103.008C253.835 102.401 252.7 101.903 251.524 101.521C251.939 101.345 252.355 101.181 252.783 100.98C255.054 99.8556 256.991 98.1575 258.402 96.0536C259.968 93.6536 260.755 90.8293 260.657 87.9656C260.7 85.6305 260.217 83.3156 259.242 81.1933C258.267 79.0711 256.826 77.196 255.026 75.7075C251.272 72.4572 245.472 70.832 237.628 70.832H221.893V135.083H243.41C250.251 135.083 255.202 133.433 258.226 130.044C261.352 126.544 263.005 121.971 262.837 117.282C262.892 114.353 262.193 111.46 260.808 108.879C259.427 106.412 257.385 104.379 254.912 103.008ZM238.371 83.1531C240.583 83.0021 242.779 83.6256 244.582 84.9168C245.32 85.579 245.896 86.4012 246.267 87.3205C246.639 88.2398 246.795 89.2318 246.724 90.2207C246.763 91.1847 246.597 92.146 246.236 93.0409C245.876 93.9358 245.329 94.7437 244.632 95.4111C242.918 96.8448 240.713 97.5543 238.484 97.389H236.028V83.1531H238.371ZM245.93 120.948C244.645 122.157 242.608 122.762 239.82 122.762H236.04V107.896H238.169C241.382 107.896 243.813 108.564 245.451 109.924C246.932 111.345 247.812 113.279 247.913 115.328C248.014 117.378 247.327 119.388 245.993 120.948H245.93Z" fill="white"/>
<path d="M309.12 86.0373C307.701 80.1581 305.366 75.9125 302.116 73.3005C298.509 70.5465 294.051 69.1465 289.517 69.3447C285.209 69.1766 280.953 70.333 277.322 72.658C274.106 74.8753 271.662 78.4448 269.99 83.3665C268.319 88.2882 267.479 94.7469 267.471 102.743C267.396 107.473 267.755 112.2 268.541 116.865C269.751 123.643 271.998 128.619 275.281 131.794C278.565 134.969 283.185 136.556 289.139 136.556C293.508 136.75 297.819 135.492 301.398 132.978C304.572 130.585 306.928 126.889 308.465 121.892C310.162 115.655 310.938 109.204 310.771 102.743C310.838 97.1303 310.284 91.5279 309.12 86.0373ZM295.262 115.265C295.107 117.453 294.368 119.559 293.121 121.363C292.628 121.925 292.016 122.37 291.329 122.666C290.643 122.963 289.899 123.103 289.152 123.076C288.327 123.102 287.509 122.914 286.778 122.53C286.047 122.146 285.428 121.579 284.982 120.884C283.983 119.423 283.307 116.798 282.954 113.01C282.625 109.598 282.482 106.17 282.525 102.743C282.441 98.6599 282.69 94.5771 283.269 90.5349C283.5 88.395 284.234 86.3401 285.41 84.5381C285.893 83.9677 286.502 83.5171 287.188 83.222C287.875 82.9269 288.62 82.7952 289.366 82.8374C290.13 82.7988 290.891 82.9487 291.583 83.2739C292.275 83.599 292.877 84.0894 293.335 84.7019C294.509 86.7126 295.203 88.9676 295.363 91.2907C295.76 95.0946 295.941 98.9181 295.905 102.743C295.958 106.928 295.726 111.111 295.212 115.265H295.262Z" fill="white"/>
<path d="M72.1978 182.74L65.5208 149.645H47.9463V205.165H59.5996V166.375L67.3727 205.165H75.9773L83.763 167.761V205.165H95.9706V149.645H78.9379L72.1978 182.74Z" fill="white"/>
<path d="M110.514 151.723C107.763 152.985 105.458 155.049 103.9 157.644C102.326 160.453 101.543 163.636 101.632 166.854C101.49 169.905 102.243 172.931 103.799 175.559C105.19 177.737 107.163 179.482 109.494 180.598C108.489 180.847 107.549 181.305 106.734 181.944C105.92 182.582 105.25 183.386 104.769 184.302C103.575 186.909 103.035 189.767 103.195 192.63V199.659C103.218 200.617 103.077 201.571 102.779 202.481C102.562 203.164 102.145 203.765 101.582 204.207V205.228H113.79C114.352 204.756 114.785 204.149 115.05 203.464C115.315 202.625 115.439 201.748 115.415 200.869V190.879C115.365 189.525 115.57 188.175 116.02 186.897C116.368 185.976 117.046 185.217 117.922 184.768C119.06 184.287 120.291 184.067 121.525 184.126H123.465V205.228H135.685V149.645H121.059C117.433 149.541 113.83 150.252 110.514 151.723ZM123.465 160.29V174.261H121.613C120.599 174.326 119.581 174.188 118.621 173.855C117.661 173.522 116.776 173 116.02 172.321C115.343 171.625 114.817 170.797 114.475 169.889C114.132 168.981 113.981 168.012 114.029 167.043C113.967 166.112 114.109 165.18 114.444 164.309C114.779 163.439 115.299 162.652 115.969 162.003C117.565 160.733 119.579 160.108 121.613 160.252L123.465 160.29Z" fill="white"/>
<path d="M165.203 189.17C165.081 190.74 164.523 192.246 163.591 193.516C163.199 193.941 162.718 194.274 162.182 194.492C161.646 194.71 161.069 194.807 160.492 194.776C159.849 194.803 159.209 194.679 158.622 194.415C158.036 194.15 157.52 193.752 157.115 193.251C156.051 191.627 155.399 189.767 155.213 187.834C154.931 186.168 154.762 184.484 154.709 182.795C154.608 180.83 154.57 178.94 154.57 177.151C154.512 173.749 154.697 170.347 155.125 166.972C155.288 165.057 155.924 163.213 156.977 161.605C157.385 161.065 157.918 160.631 158.53 160.341C159.142 160.052 159.815 159.915 160.492 159.942C161.095 159.901 161.699 160.005 162.254 160.247C162.809 160.488 163.297 160.858 163.679 161.328C164.578 162.813 165.101 164.495 165.203 166.228C165.329 167.224 165.443 168.496 165.531 170.071C165.619 171.646 165.669 173.082 165.669 174.379H177.701C177.767 171.038 177.611 167.697 177.235 164.376C176.986 161.098 176.073 157.905 174.551 154.991C173.342 152.747 171.449 150.946 169.147 149.851C166.467 148.72 163.575 148.183 160.668 148.276C154.386 148.276 149.636 150.56 146.419 155.129C143.203 159.698 141.598 167.039 141.607 177.151C141.569 181.085 141.847 185.016 142.438 188.905C143.438 194.893 145.365 199.307 148.221 202.146C151.077 204.985 155.133 206.404 160.391 206.404C163.925 206.577 167.432 205.701 170.469 203.884C173.213 201.886 175.191 199.01 176.076 195.733C177.431 190.779 178.038 185.649 177.877 180.515H165.657C165.714 183.407 165.563 186.299 165.203 189.17Z" fill="white"/>
<path d="M206.017 171.855H195.837V149.645H183.617V205.165H195.837V182.501H206.017V205.165H218.325V149.645H206.017V171.855Z" fill="white"/>
<path d="M237.39 179.54V149.645H225.17V205.165H236.924L247.292 175.433V205.165H259.513V149.645H248.036L237.39 179.54Z" fill="white"/>
<path d="M288.665 151.446C288.404 152.26 288.281 153.111 288.3 153.966V163.78C288.431 165.598 287.868 167.399 286.725 168.819C286.049 169.437 285.252 169.909 284.385 170.204C283.517 170.499 282.598 170.61 281.686 170.532H278.624V149.619H266.366V205.152H278.574V181.089H281.635C282.488 181.01 283.349 181.117 284.156 181.404C284.963 181.691 285.698 182.152 286.309 182.752C287.403 184.318 287.911 186.217 287.745 188.119V200.793C287.678 201.598 287.792 202.408 288.08 203.162C288.368 203.917 288.822 204.597 289.408 205.152H301.629V204.207C300.57 203.464 300.054 201.952 300.054 199.672V188.107C300.155 185.146 299.631 182.197 298.517 179.452C298.001 178.324 297.238 177.327 296.285 176.533C295.332 175.74 294.214 175.17 293.011 174.866C294.23 174.581 295.379 174.054 296.39 173.316C297.401 172.578 298.253 171.644 298.895 170.57C300.119 167.798 300.672 164.777 300.507 161.751V155.2C300.484 154.243 300.624 153.288 300.923 152.378C301.138 151.708 301.54 151.113 302.082 150.665V149.644H289.874C289.324 150.132 288.908 150.752 288.665 151.446Z" fill="white"/>
<path d="M330.871 205.177H343.268L331.929 149.645H316.434L304.768 205.177H316.522L318.096 196.359H329.284L330.871 205.177ZM319.734 187.225L323.627 165.077L327.621 187.225H319.734Z" fill="white"/>
<path d="M66.5326 102.266H40.3535V109.27H66.5326V102.266Z" fill="white"/>
<path d="M348.302 102.266H322.123V109.27H348.302V102.266Z" fill="white"/>
</svg>
