<svg width="490" height="199" viewBox="0 0 490 199" fill="none" xmlns="http://www.w3.org/2000/svg">
<path d="M23.6648 5.70317C27.0683 2.0649 31.8276 0 36.8097 0H453.19C458.172 0 462.932 2.0649 466.335 5.70317L485.145 25.81C488.264 29.1448 490 33.5405 490 38.1069V127.893C490 132.46 488.264 136.855 485.145 140.19L466.335 160.297C462.932 163.935 458.172 166 453.19 166H353L369.589 196.414C370.047 197.252 369.18 198.194 368.306 197.807L296.5 166H36.8097C31.8276 166 27.0683 163.935 23.6648 160.297L4.85511 140.19C1.73555 136.855 0 132.46 0 127.893V38.1069C0 33.5405 1.73555 29.1448 4.85511 25.81L23.6648 5.70317Z" fill="white"/>
<path d="M38.96 50V35.76H40.92L43.54 43.3H43.58L46.18 35.76H48.16V50H46.12V41.34H46.08L44.06 47.46H43.04L41.04 41.34H41V50H38.96ZM50.0733 35.76H52.1133V41.6H52.8733C53.5799 41.6 54.1666 41.7 54.6333 41.9C55.1133 42.0867 55.4999 42.3533 55.7933 42.7C56.0999 43.0733 56.2933 43.4733 56.3733 43.9C56.4533 44.3267 56.4999 44.8 56.5133 45.32V46.12C56.5133 47.3733 56.2066 48.3333 55.5933 49C54.9933 49.6667 54.0266 50 52.6933 50H50.0733V35.76ZM52.1133 43.4V47.96H52.8333C53.2466 47.96 53.5666 47.9 53.7933 47.78C54.0333 47.66 54.2133 47.4933 54.3333 47.28C54.4533 47.0667 54.5266 46.8133 54.5533 46.52C54.5799 46.2267 54.5933 45.9067 54.5933 45.56C54.5933 45.2 54.5733 44.8933 54.5333 44.64C54.4933 44.3867 54.4133 44.1667 54.2933 43.98C54.1599 43.7933 53.9799 43.6533 53.7533 43.56C53.5266 43.4533 53.2266 43.4 52.8533 43.4H52.1133ZM57.5533 50V35.76H59.5933V50H57.5533ZM71.7095 45.94V46.82C71.7095 47.26 71.6229 47.68 71.4495 48.08C71.2895 48.4667 71.0629 48.8133 70.7695 49.12C70.4762 49.4267 70.1295 49.6733 69.7295 49.86C69.3429 50.0333 68.9229 50.12 68.4695 50.12C68.0829 50.12 67.6895 50.0667 67.2895 49.96C66.8895 49.8533 66.5295 49.6667 66.2095 49.4C65.8895 49.1333 65.6229 48.7933 65.4095 48.38C65.2095 47.9533 65.1095 47.4133 65.1095 46.76V38.92C65.1095 38.4533 65.1895 38.02 65.3495 37.62C65.5095 37.22 65.7362 36.8733 66.0295 36.58C66.3229 36.2867 66.6695 36.06 67.0695 35.9C67.4829 35.7267 67.9362 35.64 68.4295 35.64C69.3895 35.64 70.1695 35.9533 70.7695 36.58C71.0629 36.8867 71.2895 37.2533 71.4495 37.68C71.6229 38.0933 71.7095 38.5467 71.7095 39.04V39.84H69.6695V39.16C69.6695 38.76 69.5562 38.4133 69.3295 38.12C69.1029 37.8267 68.7962 37.68 68.4095 37.68C67.9029 37.68 67.5629 37.84 67.3895 38.16C67.2295 38.4667 67.1495 38.86 67.1495 39.34V46.62C67.1495 47.0333 67.2362 47.38 67.4095 47.66C67.5962 47.94 67.9229 48.08 68.3895 48.08C68.5229 48.08 68.6629 48.06 68.8095 48.02C68.9695 47.9667 69.1162 47.8867 69.2495 47.78C69.3695 47.6733 69.4695 47.5267 69.5495 47.34C69.6295 47.1533 69.6695 46.92 69.6695 46.64V45.94H71.7095ZM76.1988 37.56V41.7C76.1988 41.9133 76.1921 42.28 76.1788 42.8C76.1654 43.3067 76.1321 43.8667 76.0788 44.48C76.0254 45.0933 75.9454 45.7 75.8388 46.3C75.7321 46.9 75.5854 47.4 75.3988 47.8C75.0788 48.48 74.6721 49.02 74.1788 49.42C73.6854 49.8067 73.0854 50 72.3788 50H72.2588V47.96C72.6588 47.9333 72.9721 47.8133 73.1988 47.6C73.4254 47.3867 73.6121 47.12 73.7588 46.8C73.8788 46.52 73.9721 46.18 74.0388 45.78C74.1188 45.38 74.1788 44.9533 74.2188 44.5C74.2588 44.0467 74.2854 43.58 74.2988 43.1C74.3121 42.62 74.3188 42.16 74.3188 41.72V35.76H80.2388V50H78.1988V37.56H76.1988ZM82.1631 50V35.76H88.2431V37.68H84.2031V41.86H87.7231V43.78H84.2031V47.96H88.2431V50H82.1631ZM90.6008 50V52.2H88.8408V48.2H89.8808C90.0008 47.9467 90.1141 47.66 90.2208 47.34C90.3274 47.0067 90.4208 46.66 90.5008 46.3C90.5808 45.94 90.6541 45.5733 90.7208 45.2C90.7874 44.8133 90.8408 44.44 90.8808 44.08C90.9074 43.8 90.9274 43.4867 90.9408 43.14C90.9674 42.7933 90.9874 42.44 91.0008 42.08C91.0141 41.7067 91.0208 41.34 91.0208 40.98C91.0341 40.6067 91.0408 40.2533 91.0408 39.92V35.76H96.9008V48.2H98.0608V52.2H96.3008V50H90.6008ZM92.9608 37.56V39.9C92.9608 40.0867 92.9541 40.36 92.9408 40.72C92.9274 41.0667 92.9074 41.4467 92.8808 41.86C92.8541 42.2733 92.8274 42.6933 92.8008 43.12C92.7741 43.5333 92.7408 43.9 92.7008 44.22C92.6741 44.4867 92.6274 44.7933 92.5608 45.14C92.5074 45.4733 92.4408 45.82 92.3608 46.18C92.2808 46.54 92.1941 46.9 92.1008 47.26C92.0074 47.6067 91.9008 47.92 91.7808 48.2H94.8608V37.56H92.9608ZM99.2391 48.08C99.4257 48.08 99.6391 48.06 99.8791 48.02C100.119 47.98 100.306 47.8933 100.439 47.76C100.546 47.6533 100.659 47.4867 100.779 47.26C100.912 47.02 101.032 46.6867 101.139 46.26L101.319 45.48L98.2391 35.76H100.399L102.319 42.46H102.359L103.859 35.76H106.019L103.059 46.58C102.872 47.2333 102.672 47.8133 102.459 48.32C102.246 48.8267 101.946 49.2333 101.559 49.54C101.239 49.8067 100.899 49.9667 100.539 50.02C100.192 50.0867 99.8057 50.12 99.3791 50.12H99.0991V48.08H99.2391ZM107.105 50V35.76H113.185V37.68H109.145V41.86H112.665V43.78H109.145V47.96H113.185V50H107.105ZM114.507 50V35.76H116.467L119.087 43.3H119.127L121.727 35.76H123.707V50H121.667V41.34H121.627L119.607 47.46H118.587L116.587 41.34H116.547V50H114.507ZM129.331 50V35.76H131.291L133.911 43.3H133.951L136.551 35.76H138.531V50H136.491V41.34H136.451L134.431 47.46H133.411L131.411 41.34H131.371V50H129.331ZM140.444 50V35.76H146.524V37.68H142.484V41.86H146.004V43.78H142.484V47.96H146.524V50H140.444ZM152.027 35.76H154.067V41.86H154.667C154.907 41.86 155.093 41.8267 155.227 41.76C155.373 41.6933 155.487 41.6 155.567 41.48C155.66 41.36 155.727 41.2267 155.767 41.08C155.807 40.92 155.84 40.7467 155.867 40.56L156.067 38.86C156.08 38.8067 156.093 38.7 156.107 38.54C156.133 38.3667 156.173 38.18 156.227 37.98C156.293 37.7667 156.373 37.5467 156.467 37.32C156.56 37.08 156.687 36.8667 156.847 36.68C157.127 36.3333 157.433 36.0933 157.767 35.96C158.113 35.8267 158.52 35.76 158.987 35.76H159.007V37.68H158.967C158.82 37.68 158.68 37.7067 158.547 37.76C158.427 37.8 158.313 37.88 158.207 38C158.1 38.12 158.027 38.2667 157.987 38.44C157.96 38.6133 157.933 38.8067 157.907 39.02L157.727 40.68C157.713 40.8533 157.693 41.02 157.667 41.18C157.64 41.3267 157.613 41.4733 157.587 41.62C157.56 41.7533 157.527 41.86 157.487 41.94C157.327 42.3133 157.127 42.5867 156.887 42.76L158.767 50H156.687L155.127 43.66H154.067V50H152.027V43.66H150.967L149.407 50H147.327L149.207 42.76C148.967 42.5867 148.767 42.3133 148.607 41.94C148.567 41.86 148.533 41.7533 148.507 41.62C148.48 41.4733 148.453 41.3267 148.427 41.18C148.4 41.02 148.38 40.8533 148.367 40.68L148.187 39.02C148.16 38.8067 148.127 38.6133 148.087 38.44C148.06 38.2667 147.993 38.12 147.887 38C147.78 37.88 147.66 37.8 147.527 37.76C147.407 37.7067 147.273 37.68 147.127 37.68H147.087V35.76H147.107C147.573 35.76 147.973 35.8267 148.307 35.96C148.653 36.0933 148.967 36.3333 149.247 36.68C149.407 36.8667 149.533 37.08 149.627 37.32C149.72 37.5467 149.793 37.7667 149.847 37.98C149.913 38.18 149.953 38.3667 149.967 38.54C149.993 38.7 150.013 38.8067 150.027 38.86L150.227 40.56C150.253 40.7467 150.287 40.92 150.327 41.08C150.367 41.2267 150.427 41.36 150.507 41.48C150.6 41.6 150.713 41.6933 150.847 41.76C150.993 41.8267 151.187 41.86 151.427 41.86H152.027V35.76ZM161.011 50V52.2H159.251V48.2H160.291C160.411 47.9467 160.524 47.66 160.631 47.34C160.738 47.0067 160.831 46.66 160.911 46.3C160.991 45.94 161.064 45.5733 161.131 45.2C161.198 44.8133 161.251 44.44 161.291 44.08C161.318 43.8 161.338 43.4867 161.351 43.14C161.378 42.7933 161.398 42.44 161.411 42.08C161.424 41.7067 161.431 41.34 161.431 40.98C161.444 40.6067 161.451 40.2533 161.451 39.92V35.76H167.311V48.2H168.471V52.2H166.711V50H161.011ZM163.371 37.56V39.9C163.371 40.0867 163.364 40.36 163.351 40.72C163.338 41.0667 163.318 41.4467 163.291 41.86C163.264 42.2733 163.238 42.6933 163.211 43.12C163.184 43.5333 163.151 43.9 163.111 44.22C163.084 44.4867 163.038 44.7933 162.971 45.14C162.918 45.4733 162.851 45.82 162.771 46.18C162.691 46.54 162.604 46.9 162.511 47.26C162.418 47.6067 162.311 47.92 162.191 48.2H165.271V37.56H163.371ZM169.649 48.08C169.836 48.08 170.049 48.06 170.289 48.02C170.529 47.98 170.716 47.8933 170.849 47.76C170.956 47.6533 171.069 47.4867 171.189 47.26C171.323 47.02 171.443 46.6867 171.549 46.26L171.729 45.48L168.649 35.76H170.809L172.729 42.46H172.769L174.269 35.76H176.429L173.469 46.58C173.283 47.2333 173.083 47.8133 172.869 48.32C172.656 48.8267 172.356 49.2333 171.969 49.54C171.649 49.8067 171.309 49.9667 170.949 50.02C170.603 50.0867 170.216 50.12 169.789 50.12H169.509V48.08H169.649ZM177.515 50V35.76H179.555V41.86H182.075V35.76H184.115V50H182.075V43.66H179.555V50H177.515ZM190.15 45.02L189.15 39.86H189.11L188.11 45.02H190.15ZM185.11 50L188.29 35.76H189.99L193.17 50H191.13L190.53 46.94H187.75L187.15 50H185.11ZM194.175 50V35.76H197.235C197.795 35.76 198.288 35.8333 198.715 35.98C199.142 36.1267 199.528 36.3867 199.875 36.76C200.222 37.1333 200.462 37.5733 200.595 38.08C200.728 38.5733 200.795 39.2467 200.795 40.1C200.795 40.74 200.755 41.28 200.675 41.72C200.608 42.16 200.455 42.5733 200.215 42.96C199.935 43.4267 199.562 43.7933 199.095 44.06C198.628 44.3133 198.015 44.44 197.255 44.44H196.215V50H194.175ZM196.215 37.68V42.52H197.195C197.608 42.52 197.928 42.46 198.155 42.34C198.382 42.22 198.548 42.0533 198.655 41.84C198.762 41.64 198.822 41.3933 198.835 41.1C198.862 40.8067 198.875 40.48 198.875 40.12C198.875 39.7867 198.868 39.4733 198.855 39.18C198.842 38.8733 198.782 38.6067 198.675 38.38C198.568 38.1533 198.408 37.98 198.195 37.86C197.982 37.74 197.675 37.68 197.275 37.68H196.215ZM202.199 39.12C202.199 38.5467 202.299 38.04 202.499 37.6C202.699 37.16 202.966 36.7933 203.299 36.5C203.619 36.22 203.979 36.0067 204.379 35.86C204.793 35.7133 205.206 35.64 205.619 35.64C206.033 35.64 206.439 35.7133 206.839 35.86C207.253 36.0067 207.626 36.22 207.959 36.5C208.279 36.7933 208.539 37.16 208.739 37.6C208.939 38.04 209.039 38.5467 209.039 39.12V46.64C209.039 47.24 208.939 47.7533 208.739 48.18C208.539 48.6067 208.279 48.96 207.959 49.24C207.626 49.5333 207.253 49.7533 206.839 49.9C206.439 50.0467 206.033 50.12 205.619 50.12C205.206 50.12 204.793 50.0467 204.379 49.9C203.979 49.7533 203.619 49.5333 203.299 49.24C202.966 48.96 202.699 48.6067 202.499 48.18C202.299 47.7533 202.199 47.24 202.199 46.64V39.12ZM204.239 46.64C204.239 47.1333 204.373 47.5 204.639 47.74C204.919 47.9667 205.246 48.08 205.619 48.08C205.993 48.08 206.313 47.9667 206.579 47.74C206.859 47.5 206.999 47.1333 206.999 46.64V39.12C206.999 38.6267 206.859 38.2667 206.579 38.04C206.313 37.8 205.993 37.68 205.619 37.68C205.246 37.68 204.919 37.8 204.639 38.04C204.373 38.2667 204.239 38.6267 204.239 39.12V46.64ZM211.48 50V52.2H209.72V48.2H210.76C210.88 47.9467 210.993 47.66 211.1 47.34C211.206 47.0067 211.3 46.66 211.38 46.3C211.46 45.94 211.533 45.5733 211.6 45.2C211.666 44.8133 211.72 44.44 211.76 44.08C211.786 43.8 211.806 43.4867 211.82 43.14C211.846 42.7933 211.866 42.44 211.88 42.08C211.893 41.7067 211.9 41.34 211.9 40.98C211.913 40.6067 211.92 40.2533 211.92 39.92V35.76H217.78V48.2H218.94V52.2H217.18V50H211.48ZM213.84 37.56V39.9C213.84 40.0867 213.833 40.36 213.82 40.72C213.806 41.0667 213.786 41.4467 213.76 41.86C213.733 42.2733 213.706 42.6933 213.68 43.12C213.653 43.5333 213.62 43.9 213.58 44.22C213.553 44.4867 213.506 44.7933 213.44 45.14C213.386 45.4733 213.32 45.82 213.24 46.18C213.16 46.54 213.073 46.9 212.98 47.26C212.886 47.6067 212.78 47.92 212.66 48.2H215.74V37.56H213.84ZM219.976 50V35.76H222.016V41.86H224.536V35.76H226.576V50H224.536V43.66H222.016V50H219.976ZM228.491 35.76H230.531V41.6H231.291C231.998 41.6 232.585 41.7 233.051 41.9C233.531 42.0867 233.918 42.3533 234.211 42.7C234.518 43.0733 234.711 43.4733 234.791 43.9C234.871 44.3267 234.918 44.8 234.931 45.32V46.12C234.931 47.3733 234.625 48.3333 234.011 49C233.411 49.6667 232.445 50 231.111 50H228.491V35.76ZM230.531 43.4V47.96H231.251C231.665 47.96 231.985 47.9 232.211 47.78C232.451 47.66 232.631 47.4933 232.751 47.28C232.871 47.0667 232.945 46.8133 232.971 46.52C232.998 46.2267 233.011 45.9067 233.011 45.56C233.011 45.2 232.991 44.8933 232.951 44.64C232.911 44.3867 232.831 44.1667 232.711 43.98C232.578 43.7933 232.398 43.6533 232.171 43.56C231.945 43.4533 231.645 43.4 231.271 43.4H230.531ZM235.971 50V35.76H238.011V50H235.971ZM239.937 50V35.76H241.897L244.517 43.3H244.557L247.157 35.76H249.137V50H247.097V41.34H247.057L245.037 47.46H244.017L242.017 41.34H241.977V50H239.937ZM261.241 45.94V46.82C261.241 47.26 261.154 47.68 260.981 48.08C260.821 48.4667 260.594 48.8133 260.301 49.12C260.007 49.4267 259.661 49.6733 259.261 49.86C258.874 50.0333 258.454 50.12 258.001 50.12C257.614 50.12 257.221 50.0667 256.821 49.96C256.421 49.8533 256.061 49.6667 255.741 49.4C255.421 49.1333 255.154 48.7933 254.941 48.38C254.741 47.9533 254.641 47.4133 254.641 46.76V38.92C254.641 38.4533 254.721 38.02 254.881 37.62C255.041 37.22 255.267 36.8733 255.561 36.58C255.854 36.2867 256.201 36.06 256.601 35.9C257.014 35.7267 257.467 35.64 257.961 35.64C258.921 35.64 259.701 35.9533 260.301 36.58C260.594 36.8867 260.821 37.2533 260.981 37.68C261.154 38.0933 261.241 38.5467 261.241 39.04V39.84H259.201V39.16C259.201 38.76 259.087 38.4133 258.861 38.12C258.634 37.8267 258.327 37.68 257.941 37.68C257.434 37.68 257.094 37.84 256.921 38.16C256.761 38.4667 256.681 38.86 256.681 39.34V46.62C256.681 47.0333 256.767 47.38 256.941 47.66C257.127 47.94 257.454 48.08 257.921 48.08C258.054 48.08 258.194 48.06 258.341 48.02C258.501 47.9667 258.647 47.8867 258.781 47.78C258.901 47.6733 259.001 47.5267 259.081 47.34C259.161 47.1533 259.201 46.92 259.201 46.64V45.94H261.241ZM264.05 50V37.68H261.69V35.76H268.45V37.68H266.09V50H264.05ZM272.572 45.02L271.572 39.86H271.532L270.532 45.02H272.572ZM267.532 50L270.712 35.76H272.412L275.592 50H273.552L272.952 46.94H270.172L269.572 50H267.532ZM276.597 50V35.76H278.637V41.86H281.157V35.76H283.197V50H281.157V43.66H278.637V50H276.597ZM285.952 50V52.2H284.192V48.2H285.232C285.352 47.9467 285.466 47.66 285.572 47.34C285.679 47.0067 285.772 46.66 285.852 46.3C285.932 45.94 286.006 45.5733 286.072 45.2C286.139 44.8133 286.192 44.44 286.232 44.08C286.259 43.8 286.279 43.4867 286.292 43.14C286.319 42.7933 286.339 42.44 286.352 42.08C286.366 41.7067 286.372 41.34 286.372 40.98C286.386 40.6067 286.392 40.2533 286.392 39.92V35.76H292.252V48.2H293.412V52.2H291.652V50H285.952ZM288.312 37.56V39.9C288.312 40.0867 288.306 40.36 288.292 40.72C288.279 41.0667 288.259 41.4467 288.232 41.86C288.206 42.2733 288.179 42.6933 288.152 43.12C288.126 43.5333 288.092 43.9 288.052 44.22C288.026 44.4867 287.979 44.7933 287.912 45.14C287.859 45.4733 287.792 45.82 287.712 46.18C287.632 46.54 287.546 46.9 287.452 47.26C287.359 47.6067 287.252 47.92 287.132 48.2H290.212V37.56H288.312ZM298.764 45.02L297.764 39.86H297.724L296.724 45.02H298.764ZM293.724 50L296.904 35.76H298.604L301.784 50H299.744L299.144 46.94H296.364L295.764 50H293.724ZM302.788 50V35.76H305.848C306.408 35.76 306.901 35.8333 307.328 35.98C307.755 36.1267 308.141 36.3867 308.488 36.76C308.835 37.1333 309.075 37.5733 309.208 38.08C309.341 38.5733 309.408 39.2467 309.408 40.1C309.408 40.74 309.368 41.28 309.288 41.72C309.221 42.16 309.068 42.5733 308.828 42.96C308.548 43.4267 308.175 43.7933 307.708 44.06C307.241 44.3133 306.628 44.44 305.868 44.44H304.828V50H302.788ZM304.828 37.68V42.52H305.808C306.221 42.52 306.541 42.46 306.768 42.34C306.995 42.22 307.161 42.0533 307.268 41.84C307.375 41.64 307.435 41.3933 307.448 41.1C307.475 40.8067 307.488 40.48 307.488 40.12C307.488 39.7867 307.481 39.4733 307.468 39.18C307.455 38.8733 307.395 38.6067 307.288 38.38C307.181 38.1533 307.021 37.98 306.808 37.86C306.595 37.74 306.288 37.68 305.888 37.68H304.828ZM312.273 50V37.68H309.913V35.76H316.673V37.68H314.313V50H312.273ZM320.795 45.02L319.795 39.86H319.755L318.755 45.02H320.795ZM315.755 50L318.935 35.76H320.635L323.815 50H321.775L321.175 46.94H318.395L317.795 50H315.755ZM324.819 50V35.76H326.779L329.399 43.3H329.439L332.039 35.76H334.019V50H331.979V41.34H331.939L329.919 47.46H328.899L326.899 41.34H326.859V50H324.819ZM339.644 50V35.76H346.144V50H344.104V37.56H341.684V50H339.644ZM348.062 50V35.76H351.122C351.682 35.76 352.175 35.8333 352.602 35.98C353.028 36.1267 353.415 36.3867 353.762 36.76C354.108 37.1333 354.348 37.5733 354.482 38.08C354.615 38.5733 354.682 39.2467 354.682 40.1C354.682 40.74 354.642 41.28 354.562 41.72C354.495 42.16 354.342 42.5733 354.102 42.96C353.822 43.4267 353.448 43.7933 352.982 44.06C352.515 44.3133 351.902 44.44 351.142 44.44H350.102V50H348.062ZM350.102 37.68V42.52H351.082C351.495 42.52 351.815 42.46 352.042 42.34C352.268 42.22 352.435 42.0533 352.542 41.84C352.648 41.64 352.708 41.3933 352.722 41.1C352.748 40.8067 352.762 40.48 352.762 40.12C352.762 39.7867 352.755 39.4733 352.742 39.18C352.728 38.8733 352.668 38.6067 352.562 38.38C352.455 38.1533 352.295 37.98 352.082 37.86C351.868 37.74 351.562 37.68 351.162 37.68H350.102ZM356.086 39.12C356.086 38.5467 356.186 38.04 356.386 37.6C356.586 37.16 356.853 36.7933 357.186 36.5C357.506 36.22 357.866 36.0067 358.266 35.86C358.679 35.7133 359.093 35.64 359.506 35.64C359.919 35.64 360.326 35.7133 360.726 35.86C361.139 36.0067 361.513 36.22 361.846 36.5C362.166 36.7933 362.426 37.16 362.626 37.6C362.826 38.04 362.926 38.5467 362.926 39.12V46.64C362.926 47.24 362.826 47.7533 362.626 48.18C362.426 48.6067 362.166 48.96 361.846 49.24C361.513 49.5333 361.139 49.7533 360.726 49.9C360.326 50.0467 359.919 50.12 359.506 50.12C359.093 50.12 358.679 50.0467 358.266 49.9C357.866 49.7533 357.506 49.5333 357.186 49.24C356.853 48.96 356.586 48.6067 356.386 48.18C356.186 47.7533 356.086 47.24 356.086 46.64V39.12ZM358.126 46.64C358.126 47.1333 358.259 47.5 358.526 47.74C358.806 47.9667 359.133 48.08 359.506 48.08C359.879 48.08 360.199 47.9667 360.466 47.74C360.746 47.5 360.886 47.1333 360.886 46.64V39.12C360.886 38.6267 360.746 38.2667 360.466 38.04C360.199 37.8 359.879 37.68 359.506 37.68C359.133 37.68 358.806 37.8 358.526 38.04C358.259 38.2667 358.126 38.6267 358.126 39.12V46.64ZM369.482 50V40.76H369.442L366.762 50H364.722V35.76H366.762V45.02H366.802L369.482 35.76H371.522V50H369.482ZM373.173 39.36C373.173 38.96 373.253 38.5067 373.413 38C373.586 37.4933 373.846 37.06 374.193 36.7C374.499 36.3933 374.846 36.14 375.233 35.94C375.619 35.74 376.066 35.64 376.573 35.64C377.173 35.64 377.686 35.7467 378.113 35.96C378.553 36.16 378.913 36.4333 379.193 36.78C379.486 37.1267 379.699 37.54 379.833 38.02C379.966 38.5 380.033 39.0067 380.033 39.54C380.033 39.8067 380.026 40.08 380.013 40.36C379.999 40.6267 379.946 40.9 379.853 41.18C379.773 41.4467 379.633 41.7 379.433 41.94C379.246 42.18 378.973 42.4 378.613 42.6C378.973 42.7467 379.246 42.94 379.433 43.18C379.633 43.4067 379.773 43.6667 379.853 43.96C379.946 44.24 379.999 44.5533 380.013 44.9C380.026 45.2333 380.033 45.58 380.033 45.94C380.033 46.54 379.966 47.1 379.833 47.62C379.713 48.14 379.506 48.5733 379.213 48.92C378.919 49.2667 378.546 49.5533 378.093 49.78C377.653 50.0067 377.106 50.12 376.453 50.12C375.959 50.12 375.499 50.0333 375.073 49.86C374.646 49.6867 374.279 49.4467 373.973 49.14C373.666 48.8333 373.433 48.44 373.273 47.96C373.113 47.48 373.033 47 373.033 46.52V45.98H375.073L375.093 46.54C375.093 46.7267 375.113 46.9133 375.153 47.1C375.206 47.2733 375.286 47.4333 375.393 47.58C375.499 47.7267 375.639 47.8467 375.813 47.94C375.986 48.0333 376.206 48.08 376.473 48.08C377.073 48.08 377.473 47.8933 377.673 47.52C377.886 47.1333 377.993 46.6133 377.993 45.96C377.993 45.5867 377.979 45.24 377.953 44.92C377.926 44.5867 377.859 44.3267 377.753 44.14C377.513 43.7267 377.113 43.52 376.553 43.52H375.773V41.72H376.613C376.866 41.72 377.093 41.6733 377.293 41.58C377.493 41.4867 377.653 41.3267 377.773 41.1C377.879 40.8867 377.939 40.6333 377.953 40.34C377.979 40.0467 377.993 39.7867 377.993 39.56C377.993 39.32 377.973 39.0867 377.933 38.86C377.893 38.62 377.819 38.4133 377.713 38.24C377.606 38.08 377.459 37.9467 377.273 37.84C377.099 37.7333 376.873 37.68 376.593 37.68C376.339 37.68 376.126 37.7267 375.953 37.82C375.793 37.9133 375.659 38.0333 375.553 38.18C375.433 38.34 375.346 38.5467 375.293 38.8C375.239 39.0533 375.213 39.3 375.213 39.54V39.86H373.173V39.36ZM381.968 50V35.76H384.948C385.601 35.76 386.154 35.86 386.608 36.06C387.074 36.26 387.454 36.5267 387.748 36.86C388.041 37.1933 388.248 37.58 388.368 38.02C388.501 38.4467 388.568 38.8933 388.568 39.36V39.88C388.568 40.2667 388.534 40.5933 388.468 40.86C388.414 41.1267 388.328 41.36 388.208 41.56C387.981 41.9333 387.634 42.2533 387.168 42.52C387.648 42.7467 388.001 43.08 388.228 43.52C388.454 43.96 388.568 44.56 388.568 45.32V46.12C388.568 47.3733 388.261 48.3333 387.648 49C387.048 49.6667 386.081 50 384.748 50H381.968ZM384.008 43.4V47.96H384.888C385.301 47.96 385.621 47.9 385.848 47.78C386.088 47.66 386.268 47.4933 386.388 47.28C386.508 47.0667 386.581 46.8133 386.608 46.52C386.634 46.2267 386.648 45.9067 386.648 45.56C386.648 45.2 386.628 44.8867 386.588 44.62C386.548 44.3533 386.468 44.1267 386.348 43.94C386.214 43.7533 386.034 43.62 385.808 43.54C385.581 43.4467 385.281 43.4 384.908 43.4H384.008ZM384.008 37.68V41.6H384.928C385.608 41.6 386.061 41.4333 386.288 41.1C386.528 40.7533 386.648 40.2533 386.648 39.6C386.648 38.96 386.514 38.48 386.248 38.16C385.994 37.84 385.528 37.68 384.848 37.68H384.008ZM390.363 39.12C390.363 38.5467 390.463 38.04 390.663 37.6C390.863 37.16 391.13 36.7933 391.463 36.5C391.783 36.22 392.143 36.0067 392.543 35.86C392.957 35.7133 393.37 35.64 393.783 35.64C394.197 35.64 394.603 35.7133 395.003 35.86C395.417 36.0067 395.79 36.22 396.123 36.5C396.443 36.7933 396.703 37.16 396.903 37.6C397.103 38.04 397.203 38.5467 397.203 39.12V46.64C397.203 47.24 397.103 47.7533 396.903 48.18C396.703 48.6067 396.443 48.96 396.123 49.24C395.79 49.5333 395.417 49.7533 395.003 49.9C394.603 50.0467 394.197 50.12 393.783 50.12C393.37 50.12 392.957 50.0467 392.543 49.9C392.143 49.7533 391.783 49.5333 391.463 49.24C391.13 48.96 390.863 48.6067 390.663 48.18C390.463 47.7533 390.363 47.24 390.363 46.64V39.12ZM392.403 46.64C392.403 47.1333 392.537 47.5 392.803 47.74C393.083 47.9667 393.41 48.08 393.783 48.08C394.157 48.08 394.477 47.9667 394.743 47.74C395.023 47.5 395.163 47.1333 395.163 46.64V39.12C395.163 38.6267 395.023 38.2667 394.743 38.04C394.477 37.8 394.157 37.68 393.783 37.68C393.41 37.68 393.083 37.8 392.803 38.04C392.537 38.2667 392.403 38.6267 392.403 39.12V46.64ZM399.644 50V52.2H397.884V48.2H398.924C399.044 47.9467 399.157 47.66 399.264 47.34C399.37 47.0067 399.464 46.66 399.544 46.3C399.624 45.94 399.697 45.5733 399.764 45.2C399.83 44.8133 399.884 44.44 399.924 44.08C399.95 43.8 399.97 43.4867 399.984 43.14C400.01 42.7933 400.03 42.44 400.044 42.08C400.057 41.7067 400.064 41.34 400.064 40.98C400.077 40.6067 400.084 40.2533 400.084 39.92V35.76H405.944V48.2H407.104V52.2H405.344V50H399.644ZM402.004 37.56V39.9C402.004 40.0867 401.997 40.36 401.984 40.72C401.97 41.0667 401.95 41.4467 401.924 41.86C401.897 42.2733 401.87 42.6933 401.844 43.12C401.817 43.5333 401.784 43.9 401.744 44.22C401.717 44.4867 401.67 44.7933 401.604 45.14C401.55 45.4733 401.484 45.82 401.404 46.18C401.324 46.54 401.237 46.9 401.144 47.26C401.05 47.6067 400.944 47.92 400.824 48.2H403.904V37.56H402.004ZM414.62 45.94V46.82C414.62 47.26 414.533 47.68 414.36 48.08C414.2 48.4667 413.973 48.8133 413.68 49.12C413.386 49.4267 413.04 49.6733 412.64 49.86C412.253 50.0333 411.833 50.12 411.38 50.12C410.993 50.12 410.6 50.0667 410.2 49.96C409.8 49.8533 409.44 49.6667 409.12 49.4C408.8 49.1333 408.533 48.7933 408.32 48.38C408.12 47.9533 408.02 47.4133 408.02 46.76V38.92C408.02 38.4533 408.1 38.02 408.26 37.62C408.42 37.22 408.646 36.8733 408.94 36.58C409.233 36.2867 409.58 36.06 409.98 35.9C410.393 35.7267 410.846 35.64 411.34 35.64C412.3 35.64 413.08 35.9533 413.68 36.58C413.973 36.8867 414.2 37.2533 414.36 37.68C414.533 38.0933 414.62 38.5467 414.62 39.04V39.84H412.58V39.16C412.58 38.76 412.466 38.4133 412.24 38.12C412.013 37.8267 411.706 37.68 411.32 37.68C410.813 37.68 410.473 37.84 410.3 38.16C410.14 38.4667 410.06 38.86 410.06 39.34V46.62C410.06 47.0333 410.146 47.38 410.32 47.66C410.506 47.94 410.833 48.08 411.3 48.08C411.433 48.08 411.573 48.06 411.72 48.02C411.88 47.9667 412.026 47.8867 412.16 47.78C412.28 47.6733 412.38 47.5267 412.46 47.34C412.54 47.1533 412.58 46.92 412.58 46.64V45.94H414.62ZM417.429 50V37.68H415.069V35.76H421.829V37.68H419.469V50H417.429ZM422.73 50V35.76H425.71C426.363 35.76 426.916 35.86 427.37 36.06C427.836 36.26 428.216 36.5267 428.51 36.86C428.803 37.1933 429.01 37.58 429.13 38.02C429.263 38.4467 429.33 38.8933 429.33 39.36V39.88C429.33 40.2667 429.296 40.5933 429.23 40.86C429.176 41.1267 429.09 41.36 428.97 41.56C428.743 41.9333 428.396 42.2533 427.93 42.52C428.41 42.7467 428.763 43.08 428.99 43.52C429.216 43.96 429.33 44.56 429.33 45.32V46.12C429.33 47.3733 429.023 48.3333 428.41 49C427.81 49.6667 426.843 50 425.51 50H422.73ZM424.77 43.4V47.96H425.65C426.063 47.96 426.383 47.9 426.61 47.78C426.85 47.66 427.03 47.4933 427.15 47.28C427.27 47.0667 427.343 46.8133 427.37 46.52C427.396 46.2267 427.41 45.9067 427.41 45.56C427.41 45.2 427.39 44.8867 427.35 44.62C427.31 44.3533 427.23 44.1267 427.11 43.94C426.976 43.7533 426.796 43.62 426.57 43.54C426.343 43.4467 426.043 43.4 425.67 43.4H424.77ZM424.77 37.68V41.6H425.69C426.37 41.6 426.823 41.4333 427.05 41.1C427.29 40.7533 427.41 40.2533 427.41 39.6C427.41 38.96 427.276 38.48 427.01 38.16C426.756 37.84 426.29 37.68 425.61 37.68H424.77ZM434.975 45.02L433.975 39.86H433.935L432.935 45.02H434.975ZM429.935 50L433.115 35.76H434.815L437.995 50H435.955L435.355 46.94H432.575L431.975 50H429.935ZM438.879 50V47.96H440.919V50H438.879ZM46.08 64.68C45.8933 64.68 45.74 64.7067 45.62 64.76C45.5 64.8 45.3867 64.88 45.28 65C45.1733 65.12 45.1 65.2667 45.06 65.44C45.02 65.6133 44.9867 65.8067 44.96 66.02L44.78 67.68C44.7667 67.8533 44.7467 68.0133 44.72 68.16C44.6933 68.2933 44.6667 68.4333 44.64 68.58C44.6133 68.7133 44.5733 68.8333 44.52 68.94C44.44 69.1267 44.34 69.2933 44.22 69.44C44.1133 69.5733 44.0067 69.68 43.9 69.76L46.02 77H43.94L42.14 70.66H41V77H38.96V62.76H41V68.86H41.68C41.92 68.86 42.1133 68.8267 42.26 68.76C42.4067 68.6933 42.5267 68.6 42.62 68.48C42.7133 68.36 42.78 68.2267 42.82 68.08C42.86 67.92 42.8933 67.7467 42.92 67.56L43.12 65.86C43.1333 65.8067 43.1467 65.7 43.16 65.54C43.1867 65.3667 43.2267 65.1733 43.28 64.96C43.3333 64.7467 43.4067 64.5267 43.5 64.3C43.5933 64.0733 43.7133 63.86 43.86 63.66C44.1133 63.34 44.42 63.1133 44.78 62.98C45.1533 62.8333 45.5867 62.76 46.08 62.76V64.68ZM51.3613 72.02L50.3613 66.86H50.3213L49.3213 72.02H51.3613ZM46.3213 77L49.5013 62.76H51.2013L54.3813 77H52.3413L51.7413 73.94H48.9613L48.3613 77H46.3213ZM59.5658 62.76H61.6058V68.86H62.2058C62.4458 68.86 62.6324 68.8267 62.7658 68.76C62.9124 68.6933 63.0258 68.6 63.1058 68.48C63.1991 68.36 63.2658 68.2267 63.3058 68.08C63.3458 67.92 63.3791 67.7467 63.4058 67.56L63.6058 65.86C63.6191 65.8067 63.6324 65.7 63.6458 65.54C63.6724 65.3667 63.7124 65.18 63.7658 64.98C63.8324 64.7667 63.9124 64.5467 64.0058 64.32C64.0991 64.08 64.2258 63.8667 64.3858 63.68C64.6658 63.3333 64.9724 63.0933 65.3058 62.96C65.6524 62.8267 66.0591 62.76 66.5258 62.76H66.5458V64.68H66.5058C66.3591 64.68 66.2191 64.7067 66.0858 64.76C65.9658 64.8 65.8524 64.88 65.7458 65C65.6391 65.12 65.5658 65.2667 65.5258 65.44C65.4991 65.6133 65.4724 65.8067 65.4458 66.02L65.2658 67.68C65.2524 67.8533 65.2324 68.02 65.2058 68.18C65.1791 68.3267 65.1524 68.4733 65.1258 68.62C65.0991 68.7533 65.0658 68.86 65.0258 68.94C64.8658 69.3133 64.6658 69.5867 64.4258 69.76L66.3058 77H64.2258L62.6658 70.66H61.6058V77H59.5658V70.66H58.5058L56.9458 77H54.8658L56.7458 69.76C56.5058 69.5867 56.3058 69.3133 56.1458 68.94C56.1058 68.86 56.0724 68.7533 56.0458 68.62C56.0191 68.4733 55.9924 68.3267 55.9658 68.18C55.9391 68.02 55.9191 67.8533 55.9058 67.68L55.7258 66.02C55.6991 65.8067 55.6658 65.6133 55.6258 65.44C55.5991 65.2667 55.5324 65.12 55.4258 65C55.3191 64.88 55.1991 64.8 55.0658 64.76C54.9458 64.7067 54.8124 64.68 54.6658 64.68H54.6258V62.76H54.6458C55.1124 62.76 55.5124 62.8267 55.8458 62.96C56.1924 63.0933 56.5058 63.3333 56.7858 63.68C56.9458 63.8667 57.0724 64.08 57.1658 64.32C57.2591 64.5467 57.3324 64.7667 57.3858 64.98C57.4524 65.18 57.4924 65.3667 57.5058 65.54C57.5324 65.7 57.5524 65.8067 57.5658 65.86L57.7658 67.56C57.7924 67.7467 57.8258 67.92 57.8658 68.08C57.9058 68.2267 57.9658 68.36 58.0458 68.48C58.1391 68.6 58.2524 68.6933 58.3858 68.76C58.5324 68.8267 58.7258 68.86 58.9658 68.86H59.5658V62.76ZM68.55 77V79.2H66.79V75.2H67.83C67.95 74.9467 68.0633 74.66 68.17 74.34C68.2767 74.0067 68.37 73.66 68.45 73.3C68.53 72.94 68.6033 72.5733 68.67 72.2C68.7367 71.8133 68.79 71.44 68.83 71.08C68.8567 70.8 68.8767 70.4867 68.89 70.14C68.9167 69.7933 68.9367 69.44 68.95 69.08C68.9633 68.7067 68.97 68.34 68.97 67.98C68.9833 67.6067 68.99 67.2533 68.99 66.92V62.76H74.85V75.2H76.01V79.2H74.25V77H68.55ZM70.91 64.56V66.9C70.91 67.0867 70.9033 67.36 70.89 67.72C70.8767 68.0667 70.8567 68.4467 70.83 68.86C70.8033 69.2733 70.7767 69.6933 70.75 70.12C70.7233 70.5333 70.69 70.9 70.65 71.22C70.6233 71.4867 70.5767 71.7933 70.51 72.14C70.4567 72.4733 70.39 72.82 70.31 73.18C70.23 73.54 70.1433 73.9 70.05 74.26C69.9567 74.6067 69.85 74.92 69.73 75.2H72.81V64.56H70.91ZM77.0459 62.76H79.0859V68.6H79.8459C80.5526 68.6 81.1393 68.7 81.6059 68.9C82.0859 69.0867 82.4726 69.3533 82.7659 69.7C83.0726 70.0733 83.2659 70.4733 83.3459 70.9C83.4259 71.3267 83.4726 71.8 83.4859 72.32V73.12C83.4859 74.3733 83.1793 75.3333 82.5659 76C81.9659 76.6667 80.9993 77 79.6659 77H77.0459V62.76ZM79.0859 70.4V74.96H79.8059C80.2193 74.96 80.5393 74.9 80.7659 74.78C81.0059 74.66 81.1859 74.4933 81.3059 74.28C81.4259 74.0667 81.4993 73.8133 81.5259 73.52C81.5526 73.2267 81.5659 72.9067 81.5659 72.56C81.5659 72.2 81.5459 71.8933 81.5059 71.64C81.4659 71.3867 81.3859 71.1667 81.2659 70.98C81.1326 70.7933 80.9526 70.6533 80.7259 70.56C80.4993 70.4533 80.1993 70.4 79.8259 70.4H79.0859ZM84.5259 77V62.76H86.5659V77H84.5259ZM93.2513 77V67.76H93.2113L90.5313 77H88.4913V62.76H90.5313V72.02H90.5713L93.2513 62.76H95.2913V77H93.2513ZM90.8113 59.9C90.8246 59.98 90.8379 60.08 90.8513 60.2C90.8646 60.3067 90.9046 60.42 90.9713 60.54C91.0513 60.6467 91.1579 60.74 91.2913 60.82C91.4379 60.9 91.6379 60.94 91.8913 60.94C92.1446 60.94 92.3379 60.9 92.4713 60.82C92.6179 60.74 92.7246 60.6467 92.7913 60.54C92.8713 60.42 92.9179 60.3067 92.9313 60.2C92.9446 60.08 92.9579 59.98 92.9713 59.9H94.6713C94.5779 60.7 94.3113 61.2867 93.8713 61.66C93.4446 62.0333 92.7846 62.22 91.8913 62.22C90.9979 62.22 90.3313 62.0333 89.8913 61.66C89.4646 61.2867 89.2046 60.7 89.1113 59.9H90.8113ZM102.693 68.86H105.213V66.34C105.213 65.86 105.12 65.4667 104.933 65.16C104.76 64.84 104.426 64.68 103.933 64.68C103.52 64.68 103.206 64.8267 102.993 65.12C102.793 65.4133 102.693 65.76 102.693 66.16V66.84H100.653V66.24C100.653 65.7467 100.74 65.26 100.913 64.78C101.1 64.2867 101.34 63.8867 101.633 63.58C101.926 63.2733 102.273 63.04 102.673 62.88C103.086 62.72 103.506 62.64 103.933 62.64C104.4 62.64 104.84 62.7267 105.253 62.9C105.68 63.06 106.04 63.2867 106.333 63.58C106.626 63.8733 106.853 64.22 107.013 64.62C107.173 65.02 107.253 65.4533 107.253 65.92V73.56C107.253 74.2133 107.146 74.78 106.933 75.26C106.72 75.74 106.453 76.1133 106.133 76.38C105.813 76.6467 105.453 76.84 105.053 76.96C104.666 77.0667 104.28 77.12 103.893 77.12C103.44 77.12 103.013 77.0333 102.613 76.86C102.213 76.6733 101.866 76.4267 101.573 76.12C101.28 75.8133 101.053 75.4667 100.893 75.08C100.733 74.68 100.653 74.26 100.653 73.82V72.94H102.693V73.64C102.693 73.92 102.726 74.1533 102.793 74.34C102.873 74.5267 102.973 74.6733 103.093 74.78C103.226 74.8867 103.366 74.9667 103.513 75.02C103.673 75.06 103.82 75.08 103.953 75.08C104.42 75.08 104.746 74.9333 104.933 74.64C105.12 74.3467 105.213 73.9933 105.213 73.58V70.66H102.693V68.86ZM110.3 77V64.68H107.94V62.76H114.7V64.68H112.34V77H110.3ZM118.822 72.02L117.822 66.86H117.782L116.782 72.02H118.822ZM113.782 77L116.962 62.76H118.662L121.842 77H119.802L119.202 73.94H116.422L115.822 77H113.782ZM122.847 77V62.76H129.347V77H127.307V64.56H124.887V77H122.847ZM131.145 77V74.96H133.185V77H131.145ZM131.145 72.46V70.42H133.185V72.46H131.145ZM298.137 66.12C298.137 65.5467 298.237 65.04 298.437 64.6C298.637 64.16 298.904 63.7933 299.237 63.5C299.557 63.22 299.917 63.0067 300.317 62.86C300.73 62.7133 301.144 62.64 301.557 62.64C301.97 62.64 302.377 62.7133 302.777 62.86C303.19 63.0067 303.564 63.22 303.897 63.5C304.217 63.7933 304.477 64.16 304.677 64.6C304.877 65.04 304.977 65.5467 304.977 66.12V73.64C304.977 74.24 304.877 74.7533 304.677 75.18C304.477 75.6067 304.217 75.96 303.897 76.24C303.564 76.5333 303.19 76.7533 302.777 76.9C302.377 77.0467 301.97 77.12 301.557 77.12C301.144 77.12 300.73 77.0467 300.317 76.9C299.917 76.7533 299.557 76.5333 299.237 76.24C298.904 75.96 298.637 75.6067 298.437 75.18C298.237 74.7533 298.137 74.24 298.137 73.64V66.12ZM300.177 73.64C300.177 74.1333 300.31 74.5 300.577 74.74C300.857 74.9667 301.184 75.08 301.557 75.08C301.93 75.08 302.25 74.9667 302.517 74.74C302.797 74.5 302.937 74.1333 302.937 73.64V66.12C302.937 65.6267 302.797 65.2667 302.517 65.04C302.25 64.8 301.93 64.68 301.557 64.68C301.184 64.68 300.857 64.8 300.577 65.04C300.31 65.2667 300.177 65.6267 300.177 66.12V73.64ZM307.917 77V64.68H305.557V62.76H312.317V64.68H309.957V77H307.917ZM316.929 77V62.76H323.429V77H321.389V64.56H318.969V77H316.929ZM325.347 77V62.76H328.407C328.967 62.76 329.46 62.8333 329.887 62.98C330.313 63.1267 330.7 63.3867 331.047 63.76C331.393 64.1333 331.633 64.5733 331.767 65.08C331.9 65.5733 331.967 66.2467 331.967 67.1C331.967 67.74 331.927 68.28 331.847 68.72C331.78 69.16 331.627 69.5733 331.387 69.96C331.107 70.4267 330.733 70.7933 330.267 71.06C329.8 71.3133 329.187 71.44 328.427 71.44H327.387V77H325.347ZM327.387 64.68V69.52H328.367C328.78 69.52 329.1 69.46 329.327 69.34C329.553 69.22 329.72 69.0533 329.827 68.84C329.933 68.64 329.993 68.3933 330.007 68.1C330.033 67.8067 330.047 67.48 330.047 67.12C330.047 66.7867 330.04 66.4733 330.027 66.18C330.013 65.8733 329.953 65.6067 329.847 65.38C329.74 65.1533 329.58 64.98 329.367 64.86C329.153 64.74 328.847 64.68 328.447 64.68H327.387ZM333.371 66.12C333.371 65.5467 333.471 65.04 333.671 64.6C333.871 64.16 334.138 63.7933 334.471 63.5C334.791 63.22 335.151 63.0067 335.551 62.86C335.965 62.7133 336.378 62.64 336.791 62.64C337.205 62.64 337.611 62.7133 338.011 62.86C338.425 63.0067 338.798 63.22 339.131 63.5C339.451 63.7933 339.711 64.16 339.911 64.6C340.111 65.04 340.211 65.5467 340.211 66.12V73.64C340.211 74.24 340.111 74.7533 339.911 75.18C339.711 75.6067 339.451 75.96 339.131 76.24C338.798 76.5333 338.425 76.7533 338.011 76.9C337.611 77.0467 337.205 77.12 336.791 77.12C336.378 77.12 335.965 77.0467 335.551 76.9C335.151 76.7533 334.791 76.5333 334.471 76.24C334.138 75.96 333.871 75.6067 333.671 75.18C333.471 74.7533 333.371 74.24 333.371 73.64V66.12ZM335.411 73.64C335.411 74.1333 335.545 74.5 335.811 74.74C336.091 74.9667 336.418 75.08 336.791 75.08C337.165 75.08 337.485 74.9667 337.751 74.74C338.031 74.5 338.171 74.1333 338.171 73.64V66.12C338.171 65.6267 338.031 65.2667 337.751 65.04C337.485 64.8 337.165 64.68 336.791 64.68C336.418 64.68 336.091 64.8 335.811 65.04C335.545 65.2667 335.411 65.6267 335.411 66.12V73.64ZM346.767 77V67.76H346.727L344.047 77H342.007V62.76H344.047V72.02H344.087L346.767 62.76H348.807V77H346.767ZM350.458 66.36C350.458 65.96 350.538 65.5067 350.698 65C350.871 64.4933 351.131 64.06 351.478 63.7C351.784 63.3933 352.131 63.14 352.518 62.94C352.904 62.74 353.351 62.64 353.858 62.64C354.458 62.64 354.971 62.7467 355.398 62.96C355.838 63.16 356.198 63.4333 356.478 63.78C356.771 64.1267 356.984 64.54 357.118 65.02C357.251 65.5 357.318 66.0067 357.318 66.54C357.318 66.8067 357.311 67.08 357.298 67.36C357.284 67.6267 357.231 67.9 357.138 68.18C357.058 68.4467 356.918 68.7 356.718 68.94C356.531 69.18 356.258 69.4 355.898 69.6C356.258 69.7467 356.531 69.94 356.718 70.18C356.918 70.4067 357.058 70.6667 357.138 70.96C357.231 71.24 357.284 71.5533 357.298 71.9C357.311 72.2333 357.318 72.58 357.318 72.94C357.318 73.54 357.251 74.1 357.118 74.62C356.998 75.14 356.791 75.5733 356.498 75.92C356.204 76.2667 355.831 76.5533 355.378 76.78C354.938 77.0067 354.391 77.12 353.738 77.12C353.244 77.12 352.784 77.0333 352.358 76.86C351.931 76.6867 351.564 76.4467 351.258 76.14C350.951 75.8333 350.718 75.44 350.558 74.96C350.398 74.48 350.318 74 350.318 73.52V72.98H352.358L352.378 73.54C352.378 73.7267 352.398 73.9133 352.438 74.1C352.491 74.2733 352.571 74.4333 352.678 74.58C352.784 74.7267 352.924 74.8467 353.098 74.94C353.271 75.0333 353.491 75.08 353.758 75.08C354.358 75.08 354.758 74.8933 354.958 74.52C355.171 74.1333 355.278 73.6133 355.278 72.96C355.278 72.5867 355.264 72.24 355.238 71.92C355.211 71.5867 355.144 71.3267 355.038 71.14C354.798 70.7267 354.398 70.52 353.838 70.52H353.058V68.72H353.898C354.151 68.72 354.378 68.6733 354.578 68.58C354.778 68.4867 354.938 68.3267 355.058 68.1C355.164 67.8867 355.224 67.6333 355.238 67.34C355.264 67.0467 355.278 66.7867 355.278 66.56C355.278 66.32 355.258 66.0867 355.218 65.86C355.178 65.62 355.104 65.4133 354.998 65.24C354.891 65.08 354.744 64.9467 354.558 64.84C354.384 64.7333 354.158 64.68 353.878 64.68C353.624 64.68 353.411 64.7267 353.238 64.82C353.078 64.9133 352.944 65.0333 352.838 65.18C352.718 65.34 352.631 65.5467 352.578 65.8C352.524 66.0533 352.498 66.3 352.498 66.54V66.86H350.458V66.36ZM359.253 77V62.76H362.233C362.886 62.76 363.44 62.86 363.893 63.06C364.36 63.26 364.74 63.5267 365.033 63.86C365.326 64.1933 365.533 64.58 365.653 65.02C365.786 65.4467 365.853 65.8933 365.853 66.36V66.88C365.853 67.2667 365.82 67.5933 365.753 67.86C365.7 68.1267 365.613 68.36 365.493 68.56C365.266 68.9333 364.92 69.2533 364.453 69.52C364.933 69.7467 365.286 70.08 365.513 70.52C365.74 70.96 365.853 71.56 365.853 72.32V73.12C365.853 74.3733 365.546 75.3333 364.933 76C364.333 76.6667 363.366 77 362.033 77H359.253ZM361.293 70.4V74.96H362.173C362.586 74.96 362.906 74.9 363.133 74.78C363.373 74.66 363.553 74.4933 363.673 74.28C363.793 74.0667 363.866 73.8133 363.893 73.52C363.92 73.2267 363.933 72.9067 363.933 72.56C363.933 72.2 363.913 71.8867 363.873 71.62C363.833 71.3533 363.753 71.1267 363.633 70.94C363.5 70.7533 363.32 70.62 363.093 70.54C362.866 70.4467 362.566 70.4 362.193 70.4H361.293ZM361.293 64.68V68.6H362.213C362.893 68.6 363.346 68.4333 363.573 68.1C363.813 67.7533 363.933 67.2533 363.933 66.6C363.933 65.96 363.8 65.48 363.533 65.16C363.28 64.84 362.813 64.68 362.133 64.68H361.293ZM367.649 66.12C367.649 65.5467 367.749 65.04 367.949 64.6C368.149 64.16 368.415 63.7933 368.749 63.5C369.069 63.22 369.429 63.0067 369.829 62.86C370.242 62.7133 370.655 62.64 371.069 62.64C371.482 62.64 371.889 62.7133 372.289 62.86C372.702 63.0067 373.075 63.22 373.409 63.5C373.729 63.7933 373.989 64.16 374.189 64.6C374.389 65.04 374.489 65.5467 374.489 66.12V73.64C374.489 74.24 374.389 74.7533 374.189 75.18C373.989 75.6067 373.729 75.96 373.409 76.24C373.075 76.5333 372.702 76.7533 372.289 76.9C371.889 77.0467 371.482 77.12 371.069 77.12C370.655 77.12 370.242 77.0467 369.829 76.9C369.429 76.7533 369.069 76.5333 368.749 76.24C368.415 75.96 368.149 75.6067 367.949 75.18C367.749 74.7533 367.649 74.24 367.649 73.64V66.12ZM369.689 73.64C369.689 74.1333 369.822 74.5 370.089 74.74C370.369 74.9667 370.695 75.08 371.069 75.08C371.442 75.08 371.762 74.9667 372.029 74.74C372.309 74.5 372.449 74.1333 372.449 73.64V66.12C372.449 65.6267 372.309 65.2667 372.029 65.04C371.762 64.8 371.442 64.68 371.069 64.68C370.695 64.68 370.369 64.8 370.089 65.04C369.822 65.2667 369.689 65.6267 369.689 66.12V73.64ZM376.929 77V79.2H375.169V75.2H376.209C376.329 74.9467 376.442 74.66 376.549 74.34C376.656 74.0067 376.749 73.66 376.829 73.3C376.909 72.94 376.982 72.5733 377.049 72.2C377.116 71.8133 377.169 71.44 377.209 71.08C377.236 70.8 377.256 70.4867 377.269 70.14C377.296 69.7933 377.316 69.44 377.329 69.08C377.342 68.7067 377.349 68.34 377.349 67.98C377.362 67.6067 377.369 67.2533 377.369 66.92V62.76H383.229V75.2H384.389V79.2H382.629V77H376.929ZM379.289 64.56V66.9C379.289 67.0867 379.282 67.36 379.269 67.72C379.256 68.0667 379.236 68.4467 379.209 68.86C379.182 69.2733 379.156 69.6933 379.129 70.12C379.102 70.5333 379.069 70.9 379.029 71.22C379.002 71.4867 378.956 71.7933 378.889 72.14C378.836 72.4733 378.769 72.82 378.689 73.18C378.609 73.54 378.522 73.9 378.429 74.26C378.336 74.6067 378.229 74.92 378.109 75.2H381.189V64.56H379.289ZM391.905 72.94V73.82C391.905 74.26 391.818 74.68 391.645 75.08C391.485 75.4667 391.258 75.8133 390.965 76.12C390.672 76.4267 390.325 76.6733 389.925 76.86C389.538 77.0333 389.118 77.12 388.665 77.12C388.278 77.12 387.885 77.0667 387.485 76.96C387.085 76.8533 386.725 76.6667 386.405 76.4C386.085 76.1333 385.818 75.7933 385.605 75.38C385.405 74.9533 385.305 74.4133 385.305 73.76V65.92C385.305 65.4533 385.385 65.02 385.545 64.62C385.705 64.22 385.932 63.8733 386.225 63.58C386.518 63.2867 386.865 63.06 387.265 62.9C387.678 62.7267 388.132 62.64 388.625 62.64C389.585 62.64 390.365 62.9533 390.965 63.58C391.258 63.8867 391.485 64.2533 391.645 64.68C391.818 65.0933 391.905 65.5467 391.905 66.04V66.84H389.865V66.16C389.865 65.76 389.752 65.4133 389.525 65.12C389.298 64.8267 388.992 64.68 388.605 64.68C388.098 64.68 387.758 64.84 387.585 65.16C387.425 65.4667 387.345 65.86 387.345 66.34V73.62C387.345 74.0333 387.432 74.38 387.605 74.66C387.792 74.94 388.118 75.08 388.585 75.08C388.718 75.08 388.858 75.06 389.005 75.02C389.165 74.9667 389.312 74.8867 389.445 74.78C389.565 74.6733 389.665 74.5267 389.745 74.34C389.825 74.1533 389.865 73.92 389.865 73.64V72.94H391.905ZM394.714 77V64.68H392.354V62.76H399.114V64.68H396.754V77H394.714ZM400.015 77V62.76H402.995C403.648 62.76 404.201 62.86 404.655 63.06C405.121 63.26 405.501 63.5267 405.795 63.86C406.088 64.1933 406.295 64.58 406.415 65.02C406.548 65.4467 406.615 65.8933 406.615 66.36V66.88C406.615 67.2667 406.581 67.5933 406.515 67.86C406.461 68.1267 406.375 68.36 406.255 68.56C406.028 68.9333 405.681 69.2533 405.215 69.52C405.695 69.7467 406.048 70.08 406.275 70.52C406.501 70.96 406.615 71.56 406.615 72.32V73.12C406.615 74.3733 406.308 75.3333 405.695 76C405.095 76.6667 404.128 77 402.795 77H400.015ZM402.055 70.4V74.96H402.935C403.348 74.96 403.668 74.9 403.895 74.78C404.135 74.66 404.315 74.4933 404.435 74.28C404.555 74.0667 404.628 73.8133 404.655 73.52C404.681 73.2267 404.695 72.9067 404.695 72.56C404.695 72.2 404.675 71.8867 404.635 71.62C404.595 71.3533 404.515 71.1267 404.395 70.94C404.261 70.7533 404.081 70.62 403.855 70.54C403.628 70.4467 403.328 70.4 402.955 70.4H402.055ZM402.055 64.68V68.6H402.975C403.655 68.6 404.108 68.4333 404.335 68.1C404.575 67.7533 404.695 67.2533 404.695 66.6C404.695 65.96 404.561 65.48 404.295 65.16C404.041 64.84 403.575 64.68 402.895 64.68H402.055ZM412.26 72.02L411.26 66.86H411.22L410.22 72.02H412.26ZM407.22 77L410.4 62.76H412.1L415.28 77H413.24L412.64 73.94H409.86L409.26 77H407.22ZM46.08 91.68C45.8933 91.68 45.74 91.7067 45.62 91.76C45.5 91.8 45.3867 91.88 45.28 92C45.1733 92.12 45.1 92.2667 45.06 92.44C45.02 92.6133 44.9867 92.8067 44.96 93.02L44.78 94.68C44.7667 94.8533 44.7467 95.0133 44.72 95.16C44.6933 95.2933 44.6667 95.4333 44.64 95.58C44.6133 95.7133 44.5733 95.8333 44.52 95.94C44.44 96.1267 44.34 96.2933 44.22 96.44C44.1133 96.5733 44.0067 96.68 43.9 96.76L46.02 104H43.94L42.14 97.66H41V104H38.96V89.76H41V95.86H41.68C41.92 95.86 42.1133 95.8267 42.26 95.76C42.4067 95.6933 42.5267 95.6 42.62 95.48C42.7133 95.36 42.78 95.2267 42.82 95.08C42.86 94.92 42.8933 94.7467 42.92 94.56L43.12 92.86C43.1333 92.8067 43.1467 92.7 43.16 92.54C43.1867 92.3667 43.2267 92.1733 43.28 91.96C43.3333 91.7467 43.4067 91.5267 43.5 91.3C43.5933 91.0733 43.7133 90.86 43.86 90.66C44.1133 90.34 44.42 90.1133 44.78 89.98C45.1533 89.8333 45.5867 89.76 46.08 89.76V91.68ZM47.1213 93.12C47.1213 92.5467 47.2213 92.04 47.4213 91.6C47.6213 91.16 47.8879 90.7933 48.2213 90.5C48.5413 90.22 48.9013 90.0067 49.3013 89.86C49.7146 89.7133 50.1279 89.64 50.5413 89.64C50.9546 89.64 51.3613 89.7133 51.7613 89.86C52.1746 90.0067 52.5479 90.22 52.8813 90.5C53.2013 90.7933 53.4613 91.16 53.6613 91.6C53.8613 92.04 53.9613 92.5467 53.9613 93.12V100.64C53.9613 101.24 53.8613 101.753 53.6613 102.18C53.4613 102.607 53.2013 102.96 52.8813 103.24C52.5479 103.533 52.1746 103.753 51.7613 103.9C51.3613 104.047 50.9546 104.12 50.5413 104.12C50.1279 104.12 49.7146 104.047 49.3013 103.9C48.9013 103.753 48.5413 103.533 48.2213 103.24C47.8879 102.96 47.6213 102.607 47.4213 102.18C47.2213 101.753 47.1213 101.24 47.1213 100.64V93.12ZM49.1613 100.64C49.1613 101.133 49.2946 101.5 49.5613 101.74C49.8413 101.967 50.1679 102.08 50.5413 102.08C50.9146 102.08 51.2346 101.967 51.5013 101.74C51.7813 101.5 51.9213 101.133 51.9213 100.64V93.12C51.9213 92.6267 51.7813 92.2667 51.5013 92.04C51.2346 91.8 50.9146 91.68 50.5413 91.68C50.1679 91.68 49.8413 91.8 49.5613 92.04C49.2946 92.2667 49.1613 92.6267 49.1613 93.12V100.64ZM55.7569 104V89.76H58.8169C59.3769 89.76 59.8702 89.8333 60.2969 89.98C60.7235 90.1267 61.1102 90.3867 61.4569 90.76C61.8035 91.1333 62.0435 91.5733 62.1769 92.08C62.3102 92.5733 62.3769 93.2467 62.3769 94.1C62.3769 94.74 62.3369 95.28 62.2569 95.72C62.1902 96.16 62.0369 96.5733 61.7969 96.96C61.5169 97.4267 61.1435 97.7933 60.6769 98.06C60.2102 98.3133 59.5969 98.44 58.8369 98.44H57.7969V104H55.7569ZM57.7969 91.68V96.52H58.7769C59.1902 96.52 59.5102 96.46 59.7369 96.34C59.9635 96.22 60.1302 96.0533 60.2369 95.84C60.3435 95.64 60.4035 95.3933 60.4169 95.1C60.4435 94.8067 60.4569 94.48 60.4569 94.12C60.4569 93.7867 60.4502 93.4733 60.4369 93.18C60.4235 92.8733 60.3635 92.6067 60.2569 92.38C60.1502 92.1533 59.9902 91.98 59.7769 91.86C59.5635 91.74 59.2569 91.68 58.8569 91.68H57.7969ZM63.9014 104V89.76H65.8614L68.4814 97.3H68.5214L71.1214 89.76H73.1014V104H71.0614V95.34H71.0214L69.0014 101.46H67.9814L65.9814 95.34H65.9414V104H63.9014ZM74.8947 93.12C74.8947 92.5467 74.9947 92.04 75.1947 91.6C75.3947 91.16 75.6614 90.7933 75.9947 90.5C76.3147 90.22 76.6747 90.0067 77.0747 89.86C77.488 89.7133 77.9014 89.64 78.3147 89.64C78.728 89.64 79.1347 89.7133 79.5347 89.86C79.948 90.0067 80.3214 90.22 80.6547 90.5C80.9747 90.7933 81.2347 91.16 81.4347 91.6C81.6347 92.04 81.7347 92.5467 81.7347 93.12V100.64C81.7347 101.24 81.6347 101.753 81.4347 102.18C81.2347 102.607 80.9747 102.96 80.6547 103.24C80.3214 103.533 79.948 103.753 79.5347 103.9C79.1347 104.047 78.728 104.12 78.3147 104.12C77.9014 104.12 77.488 104.047 77.0747 103.9C76.6747 103.753 76.3147 103.533 75.9947 103.24C75.6614 102.96 75.3947 102.607 75.1947 102.18C74.9947 101.753 74.8947 101.24 74.8947 100.64V93.12ZM76.9347 100.64C76.9347 101.133 77.068 101.5 77.3347 101.74C77.6147 101.967 77.9414 102.08 78.3147 102.08C78.688 102.08 79.008 101.967 79.2747 101.74C79.5547 101.5 79.6947 101.133 79.6947 100.64V93.12C79.6947 92.6267 79.5547 92.2667 79.2747 92.04C79.008 91.8 78.688 91.68 78.3147 91.68C77.9414 91.68 77.6147 91.8 77.3347 92.04C77.068 92.2667 76.9347 92.6267 76.9347 93.12V100.64ZM83.5303 104V89.76H86.5103C87.1636 89.76 87.717 89.86 88.1703 90.06C88.637 90.26 89.017 90.5267 89.3103 90.86C89.6036 91.1933 89.8103 91.58 89.9303 92.02C90.0636 92.4467 90.1303 92.8933 90.1303 93.36V93.88C90.1303 94.2667 90.097 94.5933 90.0303 94.86C89.977 95.1267 89.8903 95.36 89.7703 95.56C89.5436 95.9333 89.197 96.2533 88.7303 96.52C89.2103 96.7467 89.5636 97.08 89.7903 97.52C90.017 97.96 90.1303 98.56 90.1303 99.32V100.12C90.1303 101.373 89.8236 102.333 89.2103 103C88.6103 103.667 87.6436 104 86.3103 104H83.5303ZM85.5703 97.4V101.96H86.4503C86.8636 101.96 87.1836 101.9 87.4103 101.78C87.6503 101.66 87.8303 101.493 87.9503 101.28C88.0703 101.067 88.1436 100.813 88.1703 100.52C88.197 100.227 88.2103 99.9067 88.2103 99.56C88.2103 99.2 88.1903 98.8867 88.1503 98.62C88.1103 98.3533 88.0303 98.1267 87.9103 97.94C87.777 97.7533 87.597 97.62 87.3703 97.54C87.1436 97.4467 86.8436 97.4 86.4703 97.4H85.5703ZM85.5703 91.68V95.6H86.4903C87.1703 95.6 87.6236 95.4333 87.8503 95.1C88.0903 94.7533 88.2103 94.2533 88.2103 93.6C88.2103 92.96 88.077 92.48 87.8103 92.16C87.557 91.84 87.0903 91.68 86.4103 91.68H85.5703ZM91.9259 105.48V101.96H93.9659V104L91.9259 105.48ZM99.4678 104V89.76H101.428L104.048 97.3H104.088L106.688 89.76H108.668V104H106.628V95.34H106.588L104.568 101.46H103.548L101.548 95.34H101.508V104H99.4678ZM110.581 104V89.76H116.661V91.68H112.621V95.86H116.141V97.78H112.621V101.96H116.661V104H110.581ZM124.463 99.94V100.82C124.463 101.26 124.377 101.68 124.203 102.08C124.043 102.467 123.817 102.813 123.523 103.12C123.23 103.427 122.883 103.673 122.483 103.86C122.097 104.033 121.677 104.12 121.223 104.12C120.837 104.12 120.443 104.067 120.043 103.96C119.643 103.853 119.283 103.667 118.963 103.4C118.643 103.133 118.377 102.793 118.163 102.38C117.963 101.953 117.863 101.413 117.863 100.76V92.92C117.863 92.4533 117.943 92.02 118.103 91.62C118.263 91.22 118.49 90.8733 118.783 90.58C119.077 90.2867 119.423 90.06 119.823 89.9C120.237 89.7267 120.69 89.64 121.183 89.64C122.143 89.64 122.923 89.9533 123.523 90.58C123.817 90.8867 124.043 91.2533 124.203 91.68C124.377 92.0933 124.463 92.5467 124.463 93.04V93.84H122.423V93.16C122.423 92.76 122.31 92.4133 122.083 92.12C121.857 91.8267 121.55 91.68 121.163 91.68C120.657 91.68 120.317 91.84 120.143 92.16C119.983 92.4667 119.903 92.86 119.903 93.34V100.62C119.903 101.033 119.99 101.38 120.163 101.66C120.35 101.94 120.677 102.08 121.143 102.08C121.277 102.08 121.417 102.06 121.563 102.02C121.723 101.967 121.87 101.887 122.003 101.78C122.123 101.673 122.223 101.527 122.303 101.34C122.383 101.153 122.423 100.92 122.423 100.64V99.94H124.463ZM127.273 104V91.68H124.913V89.76H131.673V91.68H129.313V104H127.273ZM135.795 99.02L134.795 93.86H134.755L133.755 99.02H135.795ZM130.755 104L133.935 89.76H135.635L138.815 104H136.775L136.175 100.94H133.395L132.795 104H130.755ZM143.53 104V89.76H146.51C147.164 89.76 147.717 89.86 148.17 90.06C148.637 90.26 149.017 90.5267 149.31 90.86C149.604 91.1933 149.81 91.58 149.93 92.02C150.064 92.4467 150.13 92.8933 150.13 93.36V93.88C150.13 94.2667 150.097 94.5933 150.03 94.86C149.977 95.1267 149.89 95.36 149.77 95.56C149.544 95.9333 149.197 96.2533 148.73 96.52C149.21 96.7467 149.564 97.08 149.79 97.52C150.017 97.96 150.13 98.56 150.13 99.32V100.12C150.13 101.373 149.824 102.333 149.21 103C148.61 103.667 147.644 104 146.31 104H143.53ZM145.57 97.4V101.96H146.45C146.864 101.96 147.184 101.9 147.41 101.78C147.65 101.66 147.83 101.493 147.95 101.28C148.07 101.067 148.144 100.813 148.17 100.52C148.197 100.227 148.21 99.9067 148.21 99.56C148.21 99.2 148.19 98.8867 148.15 98.62C148.11 98.3533 148.03 98.1267 147.91 97.94C147.777 97.7533 147.597 97.62 147.37 97.54C147.144 97.4467 146.844 97.4 146.47 97.4H145.57ZM145.57 91.68V95.6H146.49C147.17 95.6 147.624 95.4333 147.85 95.1C148.09 94.7533 148.21 94.2533 148.21 93.6C148.21 92.96 148.077 92.48 147.81 92.16C147.557 91.84 147.09 91.68 146.41 91.68H145.57ZM152.046 89.76H154.086V95.6H154.846C155.553 95.6 156.139 95.7 156.606 95.9C157.086 96.0867 157.473 96.3533 157.766 96.7C158.073 97.0733 158.266 97.4733 158.346 97.9C158.426 98.3267 158.473 98.8 158.486 99.32V100.12C158.486 101.373 158.179 102.333 157.566 103C156.966 103.667 155.999 104 154.666 104H152.046V89.76ZM154.086 97.4V101.96H154.806C155.219 101.96 155.539 101.9 155.766 101.78C156.006 101.66 156.186 101.493 156.306 101.28C156.426 101.067 156.499 100.813 156.526 100.52C156.553 100.227 156.566 99.9067 156.566 99.56C156.566 99.2 156.546 98.8933 156.506 98.64C156.466 98.3867 156.386 98.1667 156.266 97.98C156.133 97.7933 155.953 97.6533 155.726 97.56C155.499 97.4533 155.199 97.4 154.826 97.4H154.086ZM159.526 104V89.76H161.566V104H159.526ZM163.491 104V89.76H166.551C167.111 89.76 167.605 89.8333 168.031 89.98C168.458 90.1267 168.845 90.3867 169.191 90.76C169.538 91.1333 169.778 91.5733 169.911 92.08C170.045 92.5733 170.111 93.2467 170.111 94.1C170.111 94.74 170.071 95.28 169.991 95.72C169.925 96.16 169.771 96.5733 169.531 96.96C169.251 97.4267 168.878 97.7933 168.411 98.06C167.945 98.3133 167.331 98.44 166.571 98.44H165.531V104H163.491ZM165.531 91.68V96.52H166.511C166.925 96.52 167.245 96.46 167.471 96.34C167.698 96.22 167.865 96.0533 167.971 95.84C168.078 95.64 168.138 95.3933 168.151 95.1C168.178 94.8067 168.191 94.48 168.191 94.12C168.191 93.7867 168.185 93.4733 168.171 93.18C168.158 92.8733 168.098 92.6067 167.991 92.38C167.885 92.1533 167.725 91.98 167.511 91.86C167.298 91.74 166.991 91.68 166.591 91.68H165.531ZM175.014 99.02L174.014 93.86H173.974L172.974 99.02H175.014ZM169.974 104L173.154 89.76H174.854L178.034 104H175.994L175.394 100.94H172.614L172.014 104H169.974ZM179.038 104V89.76H181.078V102.2H183.138V89.76H185.178V102.2H187.238V89.76H189.278V102.2H190.438V106.2H188.678V104H179.038ZM196.279 104V94.76H196.239L193.559 104H191.519V89.76H193.559V99.02H193.599L196.279 89.76H198.319V104H196.279ZM200.23 104V89.76H203.21C203.863 89.76 204.416 89.86 204.87 90.06C205.336 90.26 205.716 90.5267 206.01 90.86C206.303 91.1933 206.51 91.58 206.63 92.02C206.763 92.4467 206.83 92.8933 206.83 93.36V93.88C206.83 94.2667 206.796 94.5933 206.73 94.86C206.676 95.1267 206.59 95.36 206.47 95.56C206.243 95.9333 205.896 96.2533 205.43 96.52C205.91 96.7467 206.263 97.08 206.49 97.52C206.716 97.96 206.83 98.56 206.83 99.32V100.12C206.83 101.373 206.523 102.333 205.91 103C205.31 103.667 204.343 104 203.01 104H200.23ZM202.27 97.4V101.96H203.15C203.563 101.96 203.883 101.9 204.11 101.78C204.35 101.66 204.53 101.493 204.65 101.28C204.77 101.067 204.843 100.813 204.87 100.52C204.896 100.227 204.91 99.9067 204.91 99.56C204.91 99.2 204.89 98.8867 204.85 98.62C204.81 98.3533 204.73 98.1267 204.61 97.94C204.476 97.7533 204.296 97.62 204.07 97.54C203.843 97.4467 203.543 97.4 203.17 97.4H202.27ZM202.27 91.68V95.6H203.19C203.87 95.6 204.323 95.4333 204.55 95.1C204.79 94.7533 204.91 94.2533 204.91 93.6C204.91 92.96 204.776 92.48 204.51 92.16C204.256 91.84 203.79 91.68 203.11 91.68H202.27ZM212.475 99.02L211.475 93.86H211.435L210.435 99.02H212.475ZM207.435 104L210.615 89.76H212.315L215.495 104H213.455L212.855 100.94H210.075L209.475 104H207.435ZM216.499 104V89.76H218.539V95.86H221.059V89.76H223.099V104H221.059V97.66H218.539V104H216.499ZM229.775 104V94.76H229.735L227.055 104H225.015V89.76H227.055V99.02H227.095L229.775 89.76H231.815V104H229.775ZM237.246 91.68C236.526 91.68 236.052 91.8733 235.826 92.26C235.612 92.6333 235.506 93.18 235.506 93.9C235.506 94.26 235.526 94.58 235.566 94.86C235.606 95.1267 235.679 95.3533 235.786 95.54C235.906 95.7267 236.072 95.8733 236.286 95.98C236.499 96.0733 236.786 96.12 237.146 96.12H238.126V91.68H237.246ZM238.126 104V97.92H237.186L235.406 104H233.326L235.266 97.66C234.946 97.54 234.666 97.36 234.426 97.12C234.186 96.88 233.992 96.6067 233.846 96.3C233.699 95.9933 233.599 95.6333 233.546 95.22C233.492 94.8067 233.466 94.38 233.466 93.94C233.466 91.1533 234.666 89.76 237.066 89.76H240.166V104H238.126ZM249.976 89.76H252.016V95.86H252.616C252.856 95.86 253.043 95.8267 253.176 95.76C253.323 95.6933 253.436 95.6 253.516 95.48C253.609 95.36 253.676 95.2267 253.716 95.08C253.756 94.92 253.789 94.7467 253.816 94.56L254.016 92.86C254.029 92.8067 254.043 92.7 254.056 92.54C254.083 92.3667 254.123 92.18 254.176 91.98C254.243 91.7667 254.323 91.5467 254.416 91.32C254.509 91.08 254.636 90.8667 254.796 90.68C255.076 90.3333 255.383 90.0933 255.716 89.96C256.063 89.8267 256.469 89.76 256.936 89.76H256.956V91.68H256.916C256.769 91.68 256.629 91.7067 256.496 91.76C256.376 91.8 256.263 91.88 256.156 92C256.049 92.12 255.976 92.2667 255.936 92.44C255.909 92.6133 255.883 92.8067 255.856 93.02L255.676 94.68C255.663 94.8533 255.643 95.02 255.616 95.18C255.589 95.3267 255.563 95.4733 255.536 95.62C255.509 95.7533 255.476 95.86 255.436 95.94C255.276 96.3133 255.076 96.5867 254.836 96.76L256.716 104H254.636L253.076 97.66H252.016V104H249.976V97.66H248.916L247.356 104H245.276L247.156 96.76C246.916 96.5867 246.716 96.3133 246.556 95.94C246.516 95.86 246.483 95.7533 246.456 95.62C246.429 95.4733 246.403 95.3267 246.376 95.18C246.349 95.02 246.329 94.8533 246.316 94.68L246.136 93.02C246.109 92.8067 246.076 92.6133 246.036 92.44C246.009 92.2667 245.943 92.12 245.836 92C245.729 91.88 245.609 91.8 245.476 91.76C245.356 91.7067 245.223 91.68 245.076 91.68H245.036V89.76H245.056C245.523 89.76 245.923 89.8267 246.256 89.96C246.603 90.0933 246.916 90.3333 247.196 90.68C247.356 90.8667 247.483 91.08 247.576 91.32C247.669 91.5467 247.743 91.7667 247.796 91.98C247.863 92.18 247.903 92.3667 247.916 92.54C247.943 92.7 247.963 92.8067 247.976 92.86L248.176 94.56C248.203 94.7467 248.236 94.92 248.276 95.08C248.316 95.2267 248.376 95.36 248.456 95.48C248.549 95.6 248.663 95.6933 248.796 95.76C248.943 95.8267 249.136 95.86 249.376 95.86H249.976V89.76ZM262.88 104V94.76H262.84L260.16 104H258.12V89.76H260.16V99.02H260.2L262.88 89.76H264.92V104H262.88ZM266.831 104V89.76H269.811C270.464 89.76 271.018 89.86 271.471 90.06C271.938 90.26 272.318 90.5267 272.611 90.86C272.904 91.1933 273.111 91.58 273.231 92.02C273.364 92.4467 273.431 92.8933 273.431 93.36V93.88C273.431 94.2667 273.398 94.5933 273.331 94.86C273.278 95.1267 273.191 95.36 273.071 95.56C272.844 95.9333 272.498 96.2533 272.031 96.52C272.511 96.7467 272.864 97.08 273.091 97.52C273.318 97.96 273.431 98.56 273.431 99.32V100.12C273.431 101.373 273.124 102.333 272.511 103C271.911 103.667 270.944 104 269.611 104H266.831ZM268.871 97.4V101.96H269.751C270.164 101.96 270.484 101.9 270.711 101.78C270.951 101.66 271.131 101.493 271.251 101.28C271.371 101.067 271.444 100.813 271.471 100.52C271.498 100.227 271.511 99.9067 271.511 99.56C271.511 99.2 271.491 98.8867 271.451 98.62C271.411 98.3533 271.331 98.1267 271.211 97.94C271.078 97.7533 270.898 97.62 270.671 97.54C270.444 97.4467 270.144 97.4 269.771 97.4H268.871ZM268.871 91.68V95.6H269.791C270.471 95.6 270.924 95.4333 271.151 95.1C271.391 94.7533 271.511 94.2533 271.511 93.6C271.511 92.96 271.378 92.48 271.111 92.16C270.858 91.84 270.391 91.68 269.711 91.68H268.871ZM275.227 93.12C275.227 92.5467 275.327 92.04 275.527 91.6C275.727 91.16 275.993 90.7933 276.327 90.5C276.647 90.22 277.007 90.0067 277.407 89.86C277.82 89.7133 278.233 89.64 278.647 89.64C279.06 89.64 279.467 89.7133 279.867 89.86C280.28 90.0067 280.653 90.22 280.987 90.5C281.307 90.7933 281.567 91.16 281.767 91.6C281.967 92.04 282.067 92.5467 282.067 93.12V100.64C282.067 101.24 281.967 101.753 281.767 102.18C281.567 102.607 281.307 102.96 280.987 103.24C280.653 103.533 280.28 103.753 279.867 103.9C279.467 104.047 279.06 104.12 278.647 104.12C278.233 104.12 277.82 104.047 277.407 103.9C277.007 103.753 276.647 103.533 276.327 103.24C275.993 102.96 275.727 102.607 275.527 102.18C275.327 101.753 275.227 101.24 275.227 100.64V93.12ZM277.267 100.64C277.267 101.133 277.4 101.5 277.667 101.74C277.947 101.967 278.273 102.08 278.647 102.08C279.02 102.08 279.34 101.967 279.607 101.74C279.887 101.5 280.027 101.133 280.027 100.64V93.12C280.027 92.6267 279.887 92.2667 279.607 92.04C279.34 91.8 279.02 91.68 278.647 91.68C278.273 91.68 277.947 91.8 277.667 92.04C277.4 92.2667 277.267 92.6267 277.267 93.12V100.64ZM285.007 104V91.68H282.647V89.76H289.407V91.68H287.047V104H285.007ZM290.308 104V89.76H292.348V95.86H294.868V89.76H296.908V104H294.868V97.66H292.348V104H290.308ZM298.823 89.76H300.863V95.6H301.623C302.33 95.6 302.917 95.7 303.383 95.9C303.863 96.0867 304.25 96.3533 304.543 96.7C304.85 97.0733 305.043 97.4733 305.123 97.9C305.203 98.3267 305.25 98.8 305.263 99.32V100.12C305.263 101.373 304.957 102.333 304.343 103C303.743 103.667 302.777 104 301.443 104H298.823V89.76ZM300.863 97.4V101.96H301.583C301.997 101.96 302.317 101.9 302.543 101.78C302.783 101.66 302.963 101.493 303.083 101.28C303.203 101.067 303.277 100.813 303.303 100.52C303.33 100.227 303.343 99.9067 303.343 99.56C303.343 99.2 303.323 98.8933 303.283 98.64C303.243 98.3867 303.163 98.1667 303.043 97.98C302.91 97.7933 302.73 97.6533 302.503 97.56C302.277 97.4533 301.977 97.4 301.603 97.4H300.863ZM306.303 104V89.76H308.343V104H306.303ZM309.269 104L312.149 96.54L309.489 89.76H311.649L313.189 93.98L314.749 89.76H316.909L314.189 96.54L317.129 104H314.969L313.189 99.2L311.429 104H309.269ZM322.593 104V106.2H320.833V102.2H321.873C321.993 101.947 322.106 101.66 322.213 101.34C322.32 101.007 322.413 100.66 322.493 100.3C322.573 99.94 322.646 99.5733 322.713 99.2C322.78 98.8133 322.833 98.44 322.873 98.08C322.9 97.8 322.92 97.4867 322.933 97.14C322.96 96.7933 322.98 96.44 322.993 96.08C323.006 95.7067 323.013 95.34 323.013 94.98C323.026 94.6067 323.033 94.2533 323.033 93.92V89.76H328.893V102.2H330.053V106.2H328.293V104H322.593ZM324.953 91.56V93.9C324.953 94.0867 324.946 94.36 324.933 94.72C324.92 95.0667 324.9 95.4467 324.873 95.86C324.846 96.2733 324.82 96.6933 324.793 97.12C324.766 97.5333 324.733 97.9 324.693 98.22C324.666 98.4867 324.62 98.7933 324.553 99.14C324.5 99.4733 324.433 99.82 324.353 100.18C324.273 100.54 324.186 100.9 324.093 101.26C324 101.607 323.893 101.92 323.773 102.2H326.853V91.56H324.953ZM330.969 93.12C330.969 92.5467 331.069 92.04 331.269 91.6C331.469 91.16 331.736 90.7933 332.069 90.5C332.389 90.22 332.749 90.0067 333.149 89.86C333.562 89.7133 333.976 89.64 334.389 89.64C334.802 89.64 335.209 89.7133 335.609 89.86C336.022 90.0067 336.396 90.22 336.729 90.5C337.049 90.7933 337.309 91.16 337.509 91.6C337.709 92.04 337.809 92.5467 337.809 93.12V100.64C337.809 101.24 337.709 101.753 337.509 102.18C337.309 102.607 337.049 102.96 336.729 103.24C336.396 103.533 336.022 103.753 335.609 103.9C335.209 104.047 334.802 104.12 334.389 104.12C333.976 104.12 333.562 104.047 333.149 103.9C332.749 103.753 332.389 103.533 332.069 103.24C331.736 102.96 331.469 102.607 331.269 102.18C331.069 101.753 330.969 101.24 330.969 100.64V93.12ZM333.009 100.64C333.009 101.133 333.142 101.5 333.409 101.74C333.689 101.967 334.016 102.08 334.389 102.08C334.762 102.08 335.082 101.967 335.349 101.74C335.629 101.5 335.769 101.133 335.769 100.64V93.12C335.769 92.6267 335.629 92.2667 335.349 92.04C335.082 91.8 334.762 91.68 334.389 91.68C334.016 91.68 333.689 91.8 333.409 92.04C333.142 92.2667 333.009 92.6267 333.009 93.12V100.64ZM343.315 104V89.76H345.275L347.895 97.3H347.935L350.535 89.76H352.515V104H350.475V95.34H350.435L348.415 101.46H347.395L345.395 95.34H345.355V104H343.315ZM358.549 99.02L357.549 93.86H357.509L356.509 99.02H358.549ZM353.509 104L356.689 89.76H358.389L361.569 104H359.529L358.929 100.94H356.149L355.549 104H353.509ZM363.015 104V91.68H360.655V89.76H367.415V91.68H365.055V104H363.015ZM368.315 104V89.76H374.395V91.68H370.355V95.86H373.875V97.78H370.355V101.96H374.395V104H368.315ZM375.718 104V89.76H378.778C379.338 89.76 379.831 89.8333 380.258 89.98C380.684 90.1267 381.071 90.3867 381.418 90.76C381.764 91.1333 382.004 91.5733 382.138 92.08C382.271 92.5733 382.338 93.2467 382.338 94.1C382.338 94.74 382.298 95.28 382.218 95.72C382.151 96.16 381.998 96.5733 381.758 96.96C381.478 97.4267 381.104 97.7933 380.638 98.06C380.171 98.3133 379.558 98.44 378.798 98.44H377.758V104H375.718ZM377.758 91.68V96.52H378.738C379.151 96.52 379.471 96.46 379.698 96.34C379.924 96.22 380.091 96.0533 380.198 95.84C380.304 95.64 380.364 95.3933 380.378 95.1C380.404 94.8067 380.418 94.48 380.418 94.12C380.418 93.7867 380.411 93.4733 380.398 93.18C380.384 92.8733 380.324 92.6067 380.218 92.38C380.111 92.1533 379.951 91.98 379.738 91.86C379.524 91.74 379.218 91.68 378.818 91.68H377.758ZM388.622 104V94.76H388.582L385.902 104H383.862V89.76H385.902V99.02H385.942L388.622 89.76H390.662V104H388.622ZM396.693 99.02L395.693 93.86H395.653L394.653 99.02H396.693ZM391.653 104L394.833 89.76H396.533L399.713 104H397.673L397.073 100.94H394.293L393.693 104H391.653ZM403.933 91.56V95.7C403.933 95.9133 403.926 96.28 403.913 96.8C403.9 97.3067 403.866 97.8667 403.813 98.48C403.76 99.0933 403.68 99.7 403.573 100.3C403.466 100.9 403.32 101.4 403.133 101.8C402.813 102.48 402.406 103.02 401.913 103.42C401.42 103.807 400.82 104 400.113 104H399.993V101.96C400.393 101.933 400.706 101.813 400.933 101.6C401.16 101.387 401.346 101.12 401.493 100.8C401.613 100.52 401.706 100.18 401.773 99.78C401.853 99.38 401.913 98.9533 401.953 98.5C401.993 98.0467 402.02 97.58 402.033 97.1C402.046 96.62 402.053 96.16 402.053 95.72V89.76H407.973V104H405.933V91.56H403.933ZM409.778 93.12C409.778 92.5467 409.878 92.04 410.078 91.6C410.278 91.16 410.544 90.7933 410.878 90.5C411.198 90.22 411.558 90.0067 411.958 89.86C412.371 89.7133 412.784 89.64 413.198 89.64C413.611 89.64 414.018 89.7133 414.418 89.86C414.831 90.0067 415.204 90.22 415.538 90.5C415.858 90.7933 416.118 91.16 416.318 91.6C416.518 92.04 416.618 92.5467 416.618 93.12V100.64C416.618 101.24 416.518 101.753 416.318 102.18C416.118 102.607 415.858 102.96 415.538 103.24C415.204 103.533 414.831 103.753 414.418 103.9C414.018 104.047 413.611 104.12 413.198 104.12C412.784 104.12 412.371 104.047 411.958 103.9C411.558 103.753 411.198 103.533 410.878 103.24C410.544 102.96 410.278 102.607 410.078 102.18C409.878 101.753 409.778 101.24 409.778 100.64V93.12ZM411.818 100.64C411.818 101.133 411.951 101.5 412.218 101.74C412.498 101.967 412.824 102.08 413.198 102.08C413.571 102.08 413.891 101.967 414.158 101.74C414.438 101.5 414.578 101.133 414.578 100.64V93.12C414.578 92.6267 414.438 92.2667 414.158 92.04C413.891 91.8 413.571 91.68 413.198 91.68C412.824 91.68 412.498 91.8 412.218 92.04C411.951 92.2667 411.818 92.6267 411.818 93.12V100.64ZM418.413 104V89.76H421.393C422.046 89.76 422.6 89.86 423.053 90.06C423.52 90.26 423.9 90.5267 424.193 90.86C424.486 91.1933 424.693 91.58 424.813 92.02C424.946 92.4467 425.013 92.8933 425.013 93.36V93.88C425.013 94.2667 424.98 94.5933 424.913 94.86C424.86 95.1267 424.773 95.36 424.653 95.56C424.426 95.9333 424.08 96.2533 423.613 96.52C424.093 96.7467 424.446 97.08 424.673 97.52C424.9 97.96 425.013 98.56 425.013 99.32V100.12C425.013 101.373 424.706 102.333 424.093 103C423.493 103.667 422.526 104 421.193 104H418.413ZM420.453 97.4V101.96H421.333C421.746 101.96 422.066 101.9 422.293 101.78C422.533 101.66 422.713 101.493 422.833 101.28C422.953 101.067 423.026 100.813 423.053 100.52C423.08 100.227 423.093 99.9067 423.093 99.56C423.093 99.2 423.073 98.8867 423.033 98.62C422.993 98.3533 422.913 98.1267 422.793 97.94C422.66 97.7533 422.48 97.62 422.253 97.54C422.026 97.4467 421.726 97.4 421.353 97.4H420.453ZM420.453 91.68V95.6H421.373C422.053 95.6 422.506 95.4333 422.733 95.1C422.973 94.7533 423.093 94.2533 423.093 93.6C423.093 92.96 422.96 92.48 422.693 92.16C422.44 91.84 421.973 91.68 421.293 91.68H420.453ZM426.809 105.48V101.96H428.849V104L426.809 105.48ZM43.72 131V121.76H43.68L41 131H38.96V116.76H41V126.02H41.04L43.72 116.76H45.76V131H43.72ZM54.1509 126.94V127.82C54.1509 128.26 54.0643 128.68 53.8909 129.08C53.7309 129.467 53.5043 129.813 53.2109 130.12C52.9176 130.427 52.5709 130.673 52.1709 130.86C51.7843 131.033 51.3643 131.12 50.9109 131.12C50.5243 131.12 50.1309 131.067 49.7309 130.96C49.3309 130.853 48.9709 130.667 48.6509 130.4C48.3309 130.133 48.0643 129.793 47.8509 129.38C47.6509 128.953 47.5509 128.413 47.5509 127.76V119.92C47.5509 119.453 47.6309 119.02 47.7909 118.62C47.9509 118.22 48.1776 117.873 48.4709 117.58C48.7643 117.287 49.1109 117.06 49.5109 116.9C49.9243 116.727 50.3776 116.64 50.8709 116.64C51.8309 116.64 52.6109 116.953 53.2109 117.58C53.5043 117.887 53.7309 118.253 53.8909 118.68C54.0643 119.093 54.1509 119.547 54.1509 120.04V120.84H52.1109V120.16C52.1109 119.76 51.9976 119.413 51.7709 119.12C51.5443 118.827 51.2376 118.68 50.8509 118.68C50.3443 118.68 50.0043 118.84 49.8309 119.16C49.6709 119.467 49.5909 119.86 49.5909 120.34V127.62C49.5909 128.033 49.6776 128.38 49.8509 128.66C50.0376 128.94 50.3643 129.08 50.8309 129.08C50.9643 129.08 51.1043 129.06 51.2509 129.02C51.4109 128.967 51.5576 128.887 51.6909 128.78C51.8109 128.673 51.9109 128.527 51.9909 128.34C52.0709 128.153 52.1109 127.92 52.1109 127.64V126.94H54.1509ZM55.8155 131V116.76H62.3155V131H60.2755V118.56H57.8555V131H55.8155ZM64.1134 120.12C64.1134 119.547 64.2134 119.04 64.4134 118.6C64.6134 118.16 64.8801 117.793 65.2134 117.5C65.5334 117.22 65.8934 117.007 66.2934 116.86C66.7068 116.713 67.1201 116.64 67.5334 116.64C67.9468 116.64 68.3534 116.713 68.7534 116.86C69.1668 117.007 69.5401 117.22 69.8734 117.5C70.1934 117.793 70.4534 118.16 70.6534 118.6C70.8534 119.04 70.9534 119.547 70.9534 120.12V127.64C70.9534 128.24 70.8534 128.753 70.6534 129.18C70.4534 129.607 70.1934 129.96 69.8734 130.24C69.5401 130.533 69.1668 130.753 68.7534 130.9C68.3534 131.047 67.9468 131.12 67.5334 131.12C67.1201 131.12 66.7068 131.047 66.2934 130.9C65.8934 130.753 65.5334 130.533 65.2134 130.24C64.8801 129.96 64.6134 129.607 64.4134 129.18C64.2134 128.753 64.1134 128.24 64.1134 127.64V120.12ZM66.1534 127.64C66.1534 128.133 66.2868 128.5 66.5534 128.74C66.8334 128.967 67.1601 129.08 67.5334 129.08C67.9068 129.08 68.2268 128.967 68.4934 128.74C68.7734 128.5 68.9134 128.133 68.9134 127.64V120.12C68.9134 119.627 68.7734 119.267 68.4934 119.04C68.2268 118.8 67.9068 118.68 67.5334 118.68C67.1601 118.68 66.8334 118.8 66.5534 119.04C66.2868 119.267 66.1534 119.627 66.1534 120.12V127.64ZM75.7691 118.56V122.7C75.7691 122.913 75.7624 123.28 75.7491 123.8C75.7357 124.307 75.7024 124.867 75.6491 125.48C75.5957 126.093 75.5157 126.7 75.4091 127.3C75.3024 127.9 75.1557 128.4 74.9691 128.8C74.6491 129.48 74.2424 130.02 73.7491 130.42C73.2557 130.807 72.6557 131 71.9491 131H71.8291V128.96C72.2291 128.933 72.5424 128.813 72.7691 128.6C72.9957 128.387 73.1824 128.12 73.3291 127.8C73.4491 127.52 73.5424 127.18 73.6091 126.78C73.6891 126.38 73.7491 125.953 73.7891 125.5C73.8291 125.047 73.8557 124.58 73.8691 124.1C73.8824 123.62 73.8891 123.16 73.8891 122.72V116.76H79.8091V131H77.7691V118.56H75.7691ZM81.7334 116.76H83.7734V122.6H84.5334C85.2401 122.6 85.8268 122.7 86.2934 122.9C86.7734 123.087 87.1601 123.353 87.4534 123.7C87.7601 124.073 87.9534 124.473 88.0334 124.9C88.1268 125.327 88.1734 125.8 88.1734 126.32V127.12C88.1734 128.373 87.8668 129.333 87.2534 130C86.6534 130.667 85.6868 131 84.3534 131H81.7334V116.76ZM83.7734 124.4V128.96H84.4934C84.9068 128.96 85.2268 128.9 85.4534 128.78C85.6934 128.66 85.8734 128.493 85.9934 128.28C86.1134 128.067 86.1868 127.813 86.2134 127.52C86.2401 127.227 86.2534 126.907 86.2534 126.56C86.2534 125.827 86.1401 125.287 85.9134 124.94C85.7801 124.753 85.6068 124.62 85.3934 124.54C85.1801 124.447 84.8868 124.4 84.5134 124.4H83.7734ZM89.325 120.36C89.325 119.96 89.405 119.507 89.565 119C89.7383 118.493 89.9983 118.06 90.345 117.7C90.6517 117.393 90.9983 117.14 91.385 116.94C91.7717 116.74 92.2183 116.64 92.725 116.64C93.325 116.64 93.8383 116.747 94.265 116.96C94.705 117.16 95.065 117.433 95.345 117.78C95.6383 118.127 95.8517 118.54 95.985 119.02C96.1183 119.5 96.185 120.007 96.185 120.54C96.185 120.807 96.1783 121.08 96.165 121.36C96.1517 121.627 96.0983 121.9 96.005 122.18C95.925 122.447 95.785 122.7 95.585 122.94C95.3983 123.18 95.125 123.4 94.765 123.6C95.125 123.747 95.3983 123.94 95.585 124.18C95.785 124.407 95.925 124.667 96.005 124.96C96.0983 125.24 96.1517 125.553 96.165 125.9C96.1783 126.233 96.185 126.58 96.185 126.94C96.185 127.54 96.1183 128.1 95.985 128.62C95.865 129.14 95.6583 129.573 95.365 129.92C95.0717 130.267 94.6983 130.553 94.245 130.78C93.805 131.007 93.2583 131.12 92.605 131.12C92.1117 131.12 91.6517 131.033 91.225 130.86C90.7983 130.687 90.4317 130.447 90.125 130.14C89.8183 129.833 89.585 129.44 89.425 128.96C89.265 128.48 89.185 128 89.185 127.52V126.98H91.225L91.245 127.54C91.245 127.727 91.265 127.913 91.305 128.1C91.3583 128.273 91.4383 128.433 91.545 128.58C91.6517 128.727 91.7917 128.847 91.965 128.94C92.1383 129.033 92.3583 129.08 92.625 129.08C93.225 129.08 93.625 128.893 93.825 128.52C94.0383 128.133 94.145 127.613 94.145 126.96C94.145 126.587 94.1317 126.24 94.105 125.92C94.0783 125.587 94.0117 125.327 93.905 125.14C93.665 124.727 93.265 124.52 92.705 124.52H91.925V122.72H92.765C93.0183 122.72 93.245 122.673 93.445 122.58C93.645 122.487 93.805 122.327 93.925 122.1C94.0317 121.887 94.0917 121.633 94.105 121.34C94.1317 121.047 94.145 120.787 94.145 120.56C94.145 120.32 94.125 120.087 94.085 119.86C94.045 119.62 93.9717 119.413 93.865 119.24C93.7583 119.08 93.6117 118.947 93.425 118.84C93.2517 118.733 93.025 118.68 92.745 118.68C92.4917 118.68 92.2783 118.727 92.105 118.82C91.945 118.913 91.8117 119.033 91.705 119.18C91.585 119.34 91.4983 119.547 91.445 119.8C91.3917 120.053 91.365 120.3 91.365 120.54V120.86H89.325V120.36ZM98.0002 120.12C98.0002 119.547 98.1002 119.04 98.3002 118.6C98.5002 118.16 98.7668 117.793 99.1002 117.5C99.4202 117.22 99.7802 117.007 100.18 116.86C100.593 116.713 101.007 116.64 101.42 116.64C101.833 116.64 102.24 116.713 102.64 116.86C103.053 117.007 103.427 117.22 103.76 117.5C104.08 117.793 104.34 118.16 104.54 118.6C104.74 119.04 104.84 119.547 104.84 120.12V127.64C104.84 128.24 104.74 128.753 104.54 129.18C104.34 129.607 104.08 129.96 103.76 130.24C103.427 130.533 103.053 130.753 102.64 130.9C102.24 131.047 101.833 131.12 101.42 131.12C101.007 131.12 100.593 131.047 100.18 130.9C99.7802 130.753 99.4202 130.533 99.1002 130.24C98.7668 129.96 98.5002 129.607 98.3002 129.18C98.1002 128.753 98.0002 128.24 98.0002 127.64V120.12ZM100.04 127.64C100.04 128.133 100.173 128.5 100.44 128.74C100.72 128.967 101.047 129.08 101.42 129.08C101.793 129.08 102.113 128.967 102.38 128.74C102.66 128.5 102.8 128.133 102.8 127.64V120.12C102.8 119.627 102.66 119.267 102.38 119.04C102.113 118.8 101.793 118.68 101.42 118.68C101.047 118.68 100.72 118.8 100.44 119.04C100.173 119.267 100.04 119.627 100.04 120.12V127.64ZM106.636 131V116.76H109.616C110.269 116.76 110.822 116.86 111.276 117.06C111.742 117.26 112.122 117.527 112.416 117.86C112.709 118.193 112.916 118.58 113.036 119.02C113.169 119.447 113.236 119.893 113.236 120.36V120.88C113.236 121.267 113.202 121.593 113.136 121.86C113.082 122.127 112.996 122.36 112.876 122.56C112.649 122.933 112.302 123.253 111.836 123.52C112.316 123.747 112.669 124.08 112.896 124.52C113.122 124.96 113.236 125.56 113.236 126.32V127.12C113.236 128.373 112.929 129.333 112.316 130C111.716 130.667 110.749 131 109.416 131H106.636ZM108.676 124.4V128.96H109.556C109.969 128.96 110.289 128.9 110.516 128.78C110.756 128.66 110.936 128.493 111.056 128.28C111.176 128.067 111.249 127.813 111.276 127.52C111.302 127.227 111.316 126.907 111.316 126.56C111.316 126.2 111.296 125.887 111.256 125.62C111.216 125.353 111.136 125.127 111.016 124.94C110.882 124.753 110.702 124.62 110.476 124.54C110.249 124.447 109.949 124.4 109.576 124.4H108.676ZM108.676 118.68V122.6H109.596C110.276 122.6 110.729 122.433 110.956 122.1C111.196 121.753 111.316 121.253 111.316 120.6C111.316 119.96 111.182 119.48 110.916 119.16C110.662 118.84 110.196 118.68 109.516 118.68H108.676ZM118.881 126.02L117.881 120.86H117.841L116.841 126.02H118.881ZM113.841 131L117.021 116.76H118.721L121.901 131H119.861L119.261 127.94H116.481L115.881 131H113.841ZM122.905 131V116.76H124.945V122.86H127.465V116.76H129.505V131H127.465V124.66H124.945V131H122.905ZM131.421 131V116.76H133.461V122.86H135.981V116.76H138.021V131H135.981V124.66H133.461V131H131.421ZM139.937 116.76H141.977V122.6H142.737C143.443 122.6 144.03 122.7 144.497 122.9C144.977 123.087 145.363 123.353 145.657 123.7C145.963 124.073 146.157 124.473 146.237 124.9C146.317 125.327 146.363 125.8 146.377 126.32V127.12C146.377 128.373 146.07 129.333 145.457 130C144.857 130.667 143.89 131 142.557 131H139.937V116.76ZM141.977 124.4V128.96H142.697C143.11 128.96 143.43 128.9 143.657 128.78C143.897 128.66 144.077 128.493 144.197 128.28C144.317 128.067 144.39 127.813 144.417 127.52C144.443 127.227 144.457 126.907 144.457 126.56C144.457 126.2 144.437 125.893 144.397 125.64C144.357 125.387 144.277 125.167 144.157 124.98C144.023 124.793 143.843 124.653 143.617 124.56C143.39 124.453 143.09 124.4 142.717 124.4H141.977ZM147.417 131V116.76H149.457V131H147.417ZM150.382 131L153.262 123.54L150.602 116.76H152.762L154.302 120.98L155.862 116.76H158.022L155.302 123.54L158.242 131H156.082L154.302 126.2L152.542 131H150.382ZM163.706 131V133.2H161.946V129.2H162.986C163.106 128.947 163.22 128.66 163.326 128.34C163.433 128.007 163.526 127.66 163.606 127.3C163.686 126.94 163.76 126.573 163.826 126.2C163.893 125.813 163.946 125.44 163.986 125.08C164.013 124.8 164.033 124.487 164.046 124.14C164.073 123.793 164.093 123.44 164.106 123.08C164.12 122.707 164.126 122.34 164.126 121.98C164.14 121.607 164.146 121.253 164.146 120.92V116.76H170.006V129.2H171.166V133.2H169.406V131H163.706ZM166.066 118.56V120.9C166.066 121.087 166.06 121.36 166.046 121.72C166.033 122.067 166.013 122.447 165.986 122.86C165.96 123.273 165.933 123.693 165.906 124.12C165.88 124.533 165.846 124.9 165.806 125.22C165.78 125.487 165.733 125.793 165.666 126.14C165.613 126.473 165.546 126.82 165.466 127.18C165.386 127.54 165.3 127.9 165.206 128.26C165.113 128.607 165.006 128.92 164.886 129.2H167.966V118.56H166.066ZM175.515 118.56V122.7C175.515 122.913 175.508 123.28 175.495 123.8C175.482 124.307 175.448 124.867 175.395 125.48C175.342 126.093 175.262 126.7 175.155 127.3C175.048 127.9 174.902 128.4 174.715 128.8C174.395 129.48 173.988 130.02 173.495 130.42C173.002 130.807 172.402 131 171.695 131H171.575V128.96C171.975 128.933 172.288 128.813 172.515 128.6C172.742 128.387 172.928 128.12 173.075 127.8C173.195 127.52 173.288 127.18 173.355 126.78C173.435 126.38 173.495 125.953 173.535 125.5C173.575 125.047 173.602 124.58 173.615 124.1C173.628 123.62 173.635 123.16 173.635 122.72V116.76H179.555V131H177.515V118.56H175.515ZM185 118.68C184.28 118.68 183.806 118.873 183.58 119.26C183.366 119.633 183.26 120.18 183.26 120.9C183.26 121.26 183.28 121.58 183.32 121.86C183.36 122.127 183.433 122.353 183.54 122.54C183.66 122.727 183.826 122.873 184.04 122.98C184.253 123.073 184.54 123.12 184.9 123.12H185.88V118.68H185ZM185.88 131V124.92H184.94L183.16 131H181.08L183.02 124.66C182.7 124.54 182.42 124.36 182.18 124.12C181.94 123.88 181.746 123.607 181.6 123.3C181.453 122.993 181.353 122.633 181.3 122.22C181.246 121.807 181.22 121.38 181.22 120.94C181.22 118.153 182.42 116.76 184.82 116.76H187.92V131H185.88ZM193.79 129.08C193.977 129.08 194.19 129.06 194.43 129.02C194.67 128.98 194.857 128.893 194.99 128.76C195.097 128.653 195.21 128.487 195.33 128.26C195.463 128.02 195.583 127.687 195.69 127.26L195.87 126.48L192.79 116.76H194.95L196.87 123.46H196.91L198.41 116.76H200.57L197.61 127.58C197.423 128.233 197.223 128.813 197.01 129.32C196.797 129.827 196.497 130.233 196.11 130.54C195.79 130.807 195.45 130.967 195.09 131.02C194.743 131.087 194.357 131.12 193.93 131.12H193.65V129.08H193.79ZM201.655 131V116.76H208.155V131H206.115V118.56H203.695V131H201.655ZM214.193 126.02L213.193 120.86H213.153L212.153 126.02H214.193ZM209.153 131L212.333 116.76H214.033L217.213 131H215.173L214.573 127.94H211.793L211.193 131H209.153ZM225.338 118.68C225.151 118.68 224.998 118.707 224.878 118.76C224.758 118.8 224.644 118.88 224.538 119C224.431 119.12 224.358 119.267 224.318 119.44C224.278 119.613 224.244 119.807 224.218 120.02L224.038 121.68C224.024 121.853 224.004 122.013 223.978 122.16C223.951 122.293 223.924 122.433 223.898 122.58C223.871 122.713 223.831 122.833 223.778 122.94C223.698 123.127 223.598 123.293 223.478 123.44C223.371 123.573 223.264 123.68 223.158 123.76L225.278 131H223.198L221.398 124.66H220.258V131H218.218V116.76H220.258V122.86H220.938C221.178 122.86 221.371 122.827 221.518 122.76C221.664 122.693 221.784 122.6 221.878 122.48C221.971 122.36 222.038 122.227 222.078 122.08C222.118 121.92 222.151 121.747 222.178 121.56L222.378 119.86C222.391 119.807 222.404 119.7 222.418 119.54C222.444 119.367 222.484 119.173 222.538 118.96C222.591 118.747 222.664 118.527 222.758 118.3C222.851 118.073 222.971 117.86 223.118 117.66C223.371 117.34 223.678 117.113 224.038 116.98C224.411 116.833 224.844 116.76 225.338 116.76V118.68ZM226.379 120.12C226.379 119.547 226.479 119.04 226.679 118.6C226.879 118.16 227.146 117.793 227.479 117.5C227.799 117.22 228.159 117.007 228.559 116.86C228.972 116.713 229.386 116.64 229.799 116.64C230.212 116.64 230.619 116.713 231.019 116.86C231.432 117.007 231.806 117.22 232.139 117.5C232.459 117.793 232.719 118.16 232.919 118.6C233.119 119.04 233.219 119.547 233.219 120.12V127.64C233.219 128.24 233.119 128.753 232.919 129.18C232.719 129.607 232.459 129.96 232.139 130.24C231.806 130.533 231.432 130.753 231.019 130.9C230.619 131.047 230.212 131.12 229.799 131.12C229.386 131.12 228.972 131.047 228.559 130.9C228.159 130.753 227.799 130.533 227.479 130.24C227.146 129.96 226.879 129.607 226.679 129.18C226.479 128.753 226.379 128.24 226.379 127.64V120.12ZM228.419 127.64C228.419 128.133 228.552 128.5 228.819 128.74C229.099 128.967 229.426 129.08 229.799 129.08C230.172 129.08 230.492 128.967 230.759 128.74C231.039 128.5 231.179 128.133 231.179 127.64V120.12C231.179 119.627 231.039 119.267 230.759 119.04C230.492 118.8 230.172 118.68 229.799 118.68C229.426 118.68 229.099 118.8 228.819 119.04C228.552 119.267 228.419 119.627 228.419 120.12V127.64ZM235.015 131V116.76H237.995C238.648 116.76 239.201 116.86 239.655 117.06C240.121 117.26 240.501 117.527 240.795 117.86C241.088 118.193 241.295 118.58 241.415 119.02C241.548 119.447 241.615 119.893 241.615 120.36V120.88C241.615 121.267 241.581 121.593 241.515 121.86C241.461 122.127 241.375 122.36 241.255 122.56C241.028 122.933 240.681 123.253 240.215 123.52C240.695 123.747 241.048 124.08 241.275 124.52C241.501 124.96 241.615 125.56 241.615 126.32V127.12C241.615 128.373 241.308 129.333 240.695 130C240.095 130.667 239.128 131 237.795 131H235.015ZM237.055 124.4V128.96H237.935C238.348 128.96 238.668 128.9 238.895 128.78C239.135 128.66 239.315 128.493 239.435 128.28C239.555 128.067 239.628 127.813 239.655 127.52C239.681 127.227 239.695 126.907 239.695 126.56C239.695 126.2 239.675 125.887 239.635 125.62C239.595 125.353 239.515 125.127 239.395 124.94C239.261 124.753 239.081 124.62 238.855 124.54C238.628 124.447 238.328 124.4 237.955 124.4H237.055ZM237.055 118.68V122.6H237.975C238.655 122.6 239.108 122.433 239.335 122.1C239.575 121.753 239.695 121.253 239.695 120.6C239.695 119.96 239.561 119.48 239.295 119.16C239.041 118.84 238.575 118.68 237.895 118.68H237.055ZM250.65 118.68C250.464 118.68 250.31 118.707 250.19 118.76C250.07 118.8 249.957 118.88 249.85 119C249.744 119.12 249.67 119.267 249.63 119.44C249.59 119.613 249.557 119.807 249.53 120.02L249.35 121.68C249.337 121.853 249.317 122.013 249.29 122.16C249.264 122.293 249.237 122.433 249.21 122.58C249.184 122.713 249.144 122.833 249.09 122.94C249.01 123.127 248.91 123.293 248.79 123.44C248.684 123.573 248.577 123.68 248.47 123.76L250.59 131H248.51L246.71 124.66H245.57V131H243.53V116.76H245.57V122.86H246.25C246.49 122.86 246.684 122.827 246.83 122.76C246.977 122.693 247.097 122.6 247.19 122.48C247.284 122.36 247.35 122.227 247.39 122.08C247.43 121.92 247.464 121.747 247.49 121.56L247.69 119.86C247.704 119.807 247.717 119.7 247.73 119.54C247.757 119.367 247.797 119.173 247.85 118.96C247.904 118.747 247.977 118.527 248.07 118.3C248.164 118.073 248.284 117.86 248.43 117.66C248.684 117.34 248.99 117.113 249.35 116.98C249.724 116.833 250.157 116.76 250.65 116.76V118.68ZM256.572 131V121.76H256.532L253.852 131H251.812V116.76H253.852V126.02H253.892L256.572 116.76H258.612V131H256.572Z" fill="#462B74"/>
<rect x="137.516" y="55.3194" width="148" height="31" rx="15.5" transform="rotate(-1.81112 137.516 55.3194)" stroke="#462B74"/>
<path d="M160.975 63.2979C160.752 63.305 160.569 63.3428 160.427 63.4113C160.284 63.4639 160.151 63.5641 160.028 63.7121C159.905 63.8601 159.822 64.0387 159.781 64.2482C159.739 64.4576 159.707 64.6907 159.683 64.9476L159.53 66.9454C159.521 67.1538 159.503 67.3465 159.476 67.5234C159.449 67.6844 159.423 67.8533 159.396 68.0302C159.369 68.1911 159.326 68.3366 159.266 68.4665C159.177 68.6935 159.063 68.8972 158.925 69.0776C158.802 69.2416 158.678 69.3736 158.553 69.4736L161.371 78.0768L158.876 78.1557L156.477 70.6198L155.109 70.663L155.35 78.2672L152.903 78.3446L152.363 61.2651L154.81 61.1877L155.041 68.5041L155.857 68.4783C156.144 68.4692 156.375 68.4219 156.548 68.3364C156.722 68.2508 156.862 68.1343 156.97 67.9869C157.077 67.8394 157.152 67.677 157.194 67.4995C157.236 67.3061 157.27 67.097 157.295 66.8721L157.47 64.8255C157.484 64.761 157.496 64.6326 157.506 64.4402C157.531 64.2313 157.572 63.9979 157.628 63.74C157.684 63.4821 157.763 63.2154 157.867 62.94C157.97 62.6646 158.106 62.4042 158.274 62.1587C158.566 61.7653 158.925 61.4818 159.352 61.3083C159.794 61.1182 160.311 61.0138 160.903 60.9951L160.975 63.2979ZM162.279 64.9856C162.257 64.2979 162.358 63.6864 162.581 63.1511C162.804 62.6158 163.11 62.1659 163.499 61.8014C163.872 61.4535 164.296 61.1839 164.77 60.9929C165.26 60.8013 165.753 60.6976 166.249 60.682C166.745 60.6663 167.235 60.7388 167.721 60.8996C168.222 61.0598 168.678 61.3015 169.088 61.6247C169.483 61.9644 169.809 62.3943 170.065 62.9145C170.322 63.4346 170.461 64.0385 170.483 64.7262L170.768 73.7457C170.791 74.4653 170.69 75.0848 170.467 75.6041C170.243 76.1234 169.944 76.5571 169.571 76.9051C169.183 77.2695 168.743 77.5476 168.253 77.7391C167.779 77.9302 167.294 78.0336 166.798 78.0493C166.302 78.065 165.804 77.9927 165.302 77.8324C164.817 77.6717 164.377 77.4215 163.982 77.0818C163.572 76.7586 163.238 76.3449 162.982 75.8408C162.726 75.3366 162.587 74.7247 162.564 74.0051L162.279 64.9856ZM165.011 73.9277C165.03 74.5194 165.203 74.9541 165.532 75.2319C165.877 75.4931 166.273 75.6167 166.721 75.6025C167.168 75.5883 167.548 75.4403 167.859 75.1583C168.186 74.8598 168.34 74.4147 168.321 73.823L168.036 64.8035C168.017 64.2118 167.836 63.7854 167.491 63.5241C167.162 63.2464 166.774 63.1146 166.326 63.1287C165.878 63.1429 165.491 63.2992 165.165 63.5977C164.853 63.8797 164.707 64.3165 164.726 64.9082L165.011 73.9277ZM173.049 77.7075L172.509 60.6281L174.956 60.5507L175.187 67.8671L178.21 67.7715L177.978 60.4551L180.425 60.3778L180.965 77.4572L178.518 77.5346L178.278 69.9304L175.255 70.026L175.496 77.6302L173.049 77.7075ZM184.87 77.3338L184.403 62.5571L181.572 62.6467L181.499 60.3438L189.607 60.0874L189.68 62.3903L186.85 62.4798L187.317 77.2564L184.87 77.3338ZM191.228 77.1327L190.687 60.0533L194.358 59.9372C195.029 59.916 195.624 59.9852 196.141 60.145C196.658 60.3047 197.132 60.6019 197.562 61.0365C197.992 61.4711 198.296 61.9898 198.476 62.5924C198.654 63.179 198.76 63.9841 198.792 65.0076C198.816 65.7752 198.789 66.4244 198.71 66.9552C198.646 67.4854 198.478 67.987 198.205 68.4599C197.887 69.0302 197.453 69.4842 196.903 69.8217C196.353 70.1432 195.622 70.3184 194.711 70.3473L193.463 70.3867L193.674 77.0554L191.228 77.1327ZM193.207 62.2787L193.391 68.0838L194.566 68.0467C195.062 68.031 195.443 67.9469 195.711 67.7944C195.978 67.6419 196.172 67.4356 196.291 67.1757C196.412 66.9318 196.474 66.6337 196.479 66.2813C196.5 65.9285 196.504 65.5362 196.49 65.1044C196.477 64.7046 196.457 64.329 196.43 63.9777C196.403 63.6104 196.321 63.2929 196.184 63.025C196.048 62.7572 195.849 62.5554 195.589 62.4195C195.328 62.2837 194.958 62.2234 194.478 62.2385L193.207 62.2787ZM200.44 63.7789C200.418 63.0913 200.519 62.4798 200.742 61.9445C200.965 61.4091 201.271 60.9592 201.66 60.5948C202.033 60.2468 202.456 59.9773 202.931 59.7862C203.421 59.5946 203.914 59.491 204.41 59.4753C204.905 59.4596 205.396 59.5322 205.881 59.6929C206.382 59.8531 206.838 60.0948 207.249 60.418C207.644 60.7577 207.969 61.1876 208.226 61.7078C208.483 62.2279 208.622 62.8319 208.643 63.5195L208.929 72.539C208.951 73.2586 208.851 73.8781 208.627 74.3975C208.404 74.9168 208.105 75.3504 207.732 75.6984C207.343 76.0629 206.904 76.3409 206.414 76.5325C205.939 76.7236 205.454 76.8269 204.959 76.8426C204.463 76.8583 203.964 76.786 203.463 76.6258C202.978 76.465 202.538 76.2148 202.143 75.8751C201.732 75.5519 201.399 75.1383 201.143 74.6341C200.887 74.13 200.747 73.5181 200.725 72.7984L200.44 63.7789ZM203.172 72.721C203.19 73.3127 203.364 73.7475 203.693 74.0252C204.037 74.2865 204.434 74.41 204.881 74.3958C205.329 74.3817 205.709 74.2336 206.02 73.9516C206.347 73.6532 206.501 73.2081 206.482 72.6164L206.197 63.5969C206.178 63.0052 205.996 62.5787 205.652 62.3175C205.323 62.0397 204.935 61.9079 204.487 61.9221C204.039 61.9362 203.652 62.0926 203.325 62.391C203.014 62.673 202.868 63.1098 202.886 63.7016L203.172 72.721ZM214.36 61.4658L214.517 66.4313C214.525 66.6872 214.531 67.1272 214.535 67.7514C214.538 68.3596 214.519 69.0326 214.479 69.7702C214.438 70.5079 214.365 71.2385 214.26 71.9622C214.155 72.6859 213.998 73.2912 213.789 73.778C213.431 74.6057 212.964 75.2688 212.387 75.7673C211.81 76.2498 211.098 76.5044 210.25 76.5312L210.106 76.5358L210.029 74.089C210.508 74.0418 210.879 73.886 211.143 73.6216C211.406 73.3571 211.62 73.0302 211.784 72.6408C211.917 72.3004 212.016 71.8891 212.081 71.4068C212.162 70.924 212.218 70.41 212.249 69.8647C212.279 69.3195 212.294 68.7588 212.291 68.1825C212.289 67.6063 212.28 67.0543 212.263 66.5266L212.037 59.3782L219.137 59.1537L219.678 76.2331L217.231 76.3105L216.759 61.39L214.36 61.4658ZM227.695 75.9796L227.344 64.8972L227.296 64.8987L224.432 76.0828L221.986 76.1601L221.446 59.0807L223.892 59.0033L224.244 70.1098L224.291 70.1082L227.155 58.9002L229.601 58.8228L230.142 75.9023L227.695 75.9796ZM232.434 75.8298L231.893 58.7503L235.564 58.6343C236.235 58.613 236.83 58.6823 237.347 58.842C237.864 59.0017 238.338 59.2989 238.768 59.7335C239.198 60.1682 239.502 60.6868 239.682 61.2894C239.86 61.8761 239.966 62.6812 239.998 63.7046C240.022 64.4723 239.995 65.1215 239.916 65.6522C239.852 66.1825 239.684 66.6841 239.411 67.1569C239.093 67.7273 238.659 68.1812 238.109 68.5187C237.559 68.8403 236.828 69.0155 235.917 69.0443L234.669 69.0837L234.88 75.7524L232.434 75.8298ZM234.413 60.9758L234.597 66.7809L235.772 66.7437C236.268 66.728 236.649 66.6439 236.917 66.4914C237.184 66.3389 237.378 66.1327 237.497 65.8728C237.618 65.6288 237.68 65.3307 237.685 64.9784C237.706 64.6255 237.71 64.2332 237.696 63.8014C237.683 63.4016 237.663 63.0261 237.636 62.6748C237.609 62.3075 237.527 61.9899 237.39 61.7221C237.254 61.4543 237.055 61.2524 236.795 61.1166C236.534 60.9808 236.164 60.9204 235.684 60.9356L234.413 60.9758ZM242.183 73.2163C242.407 73.2093 242.662 73.1772 242.948 73.1201C243.235 73.063 243.455 72.952 243.61 72.787C243.734 72.655 243.863 72.4508 243.999 72.1744C244.15 71.8815 244.281 71.4772 244.393 70.9614L244.579 70.019L240.516 58.4777L243.107 58.3957L245.664 66.3589L245.712 66.3574L247.257 58.2645L249.848 58.1826L246.708 71.2724C246.509 72.0631 246.291 72.7663 246.054 73.3821C245.817 73.9979 245.473 74.497 245.021 74.8795C244.647 75.2115 244.245 75.4163 243.816 75.4939C243.402 75.587 242.94 75.6416 242.428 75.6578L242.092 75.6684L242.015 73.2217L242.183 73.2163ZM251.69 75.2209L251.149 58.1414L258.442 57.9108L258.515 60.2137L253.669 60.3669L253.828 65.3804L258.049 65.2469L258.122 67.5498L253.9 67.6833L254.059 72.6967L258.904 72.5435L258.982 74.9903L251.69 75.2209ZM260.568 74.9402L260.028 57.8607L262.379 57.7864L265.807 66.7305L265.855 66.729L268.687 57.5869L271.062 57.5118L271.602 74.5912L269.156 74.6686L268.827 64.2818L268.779 64.2833L266.588 71.7003L265.365 71.7389L262.734 64.4745L262.686 64.476L263.015 74.8628L260.568 74.9402Z" fill="#462B74"/>
</svg>
