<svg width="490" height="198" viewBox="0 0 490 198" fill="none" xmlns="http://www.w3.org/2000/svg">
<path d="M23.6648 5.70317C27.0683 2.0649 31.8276 0 36.8097 0H453.19C458.172 0 462.932 2.0649 466.335 5.70317L485.145 25.81C488.264 29.1448 490 33.5405 490 38.1069V127.893C490 132.46 488.264 136.855 485.145 140.19L466.335 160.297C462.932 163.935 458.172 166 453.19 166H353L369.589 196.414C370.047 197.252 369.18 198.194 368.306 197.807L296.5 166H36.8097C31.8276 166 27.0683 163.935 23.6648 160.297L4.85511 140.19C1.73555 136.855 0 132.46 0 127.893V38.1069C0 33.5405 1.73555 29.1448 4.85511 25.81L23.6648 5.70317Z" fill="white"/>
</svg>
