<svg width="482" height="221" viewBox="0 0 482 221" fill="none" xmlns="http://www.w3.org/2000/svg">
<path d="M23.6784 6.0969C27.0763 2.52316 31.7917 0.5 36.723 0.5L445.277 0.5C450.208 0.5 454.924 2.52316 458.322 6.09689L477.045 25.7883C480.226 29.1342 482 33.5746 482 38.1914V149.893C482 154.46 480.264 158.855 477.145 162.19L458.335 182.297C454.932 185.935 450.172 188 445.19 188H353.5L370.089 218.414C370.547 219.252 369.68 220.194 368.806 219.807L297 188H36.8097C31.8276 188 27.0683 185.935 23.6648 182.297L4.85511 162.19C1.73555 158.855 0 154.46 0 149.893L0 38.1914C0 33.5746 1.77404 29.1342 4.95535 25.7883L23.6784 6.0969Z" fill="white"/>
<path d="M31.3883 53V35.912H33.7403L36.8843 44.96H36.9323L40.0523 35.912H42.4283V53H39.9803V42.608H39.9323L37.5083 49.952H36.2843L33.8843 42.608H33.8363V53H31.3883ZM44.7243 35.912H47.1723V42.92H48.0843C48.9323 42.92 49.6363 43.04 50.1963 43.28C50.7723 43.504 51.2363 43.824 51.5883 44.24C51.9563 44.688 52.1883 45.168 52.2843 45.68C52.3803 46.192 52.4363 46.76 52.4523 47.384V48.344C52.4523 49.848 52.0843 51 51.3483 51.8C50.6283 52.6 49.4683 53 47.8683 53H44.7243V35.912ZM47.1723 45.08V50.552H48.0363C48.5323 50.552 48.9163 50.48 49.1883 50.336C49.4763 50.192 49.6923 49.992 49.8363 49.736C49.9803 49.48 50.0683 49.176 50.1003 48.824C50.1323 48.472 50.1483 48.088 50.1483 47.672C50.1483 47.24 50.1243 46.872 50.0763 46.568C50.0283 46.264 49.9323 46 49.7883 45.776C49.6283 45.552 49.4123 45.384 49.1403 45.272C48.8683 45.144 48.5083 45.08 48.0603 45.08H47.1723ZM53.7003 53V35.912H56.1483V53H53.7003ZM62.9118 53V35.912H70.7118V53H68.2638V38.072H65.3598V53H62.9118ZM73.0133 53V35.912H76.6853C77.3573 35.912 77.9493 36 78.4613 36.176C78.9733 36.352 79.4373 36.664 79.8533 37.112C80.2693 37.56 80.5573 38.088 80.7173 38.696C80.8773 39.288 80.9573 40.096 80.9573 41.12C80.9573 41.888 80.9093 42.536 80.8133 43.064C80.7333 43.592 80.5493 44.088 80.2613 44.552C79.9253 45.112 79.4773 45.552 78.9173 45.872C78.3573 46.176 77.6213 46.328 76.7093 46.328H75.4613V53H73.0133ZM75.4613 38.216V44.024H76.6373C77.1333 44.024 77.5173 43.952 77.7893 43.808C78.0613 43.664 78.2613 43.464 78.3893 43.208C78.5173 42.968 78.5893 42.672 78.6053 42.32C78.6373 41.968 78.6533 41.576 78.6533 41.144C78.6533 40.744 78.6453 40.368 78.6293 40.016C78.6133 39.648 78.5413 39.328 78.4133 39.056C78.2853 38.784 78.0933 38.576 77.8373 38.432C77.5813 38.288 77.2133 38.216 76.7333 38.216H75.4613ZM82.6428 39.944C82.6428 39.256 82.7628 38.648 83.0028 38.12C83.2428 37.592 83.5628 37.152 83.9628 36.8C84.3468 36.464 84.7788 36.208 85.2588 36.032C85.7548 35.856 86.2508 35.768 86.7468 35.768C87.2428 35.768 87.7308 35.856 88.2108 36.032C88.7068 36.208 89.1548 36.464 89.5548 36.8C89.9388 37.152 90.2508 37.592 90.4908 38.12C90.7308 38.648 90.8508 39.256 90.8508 39.944V48.968C90.8508 49.688 90.7308 50.304 90.4908 50.816C90.2508 51.328 89.9388 51.752 89.5548 52.088C89.1548 52.44 88.7068 52.704 88.2108 52.88C87.7308 53.056 87.2428 53.144 86.7468 53.144C86.2508 53.144 85.7548 53.056 85.2588 52.88C84.7788 52.704 84.3468 52.44 83.9628 52.088C83.5628 51.752 83.2428 51.328 83.0028 50.816C82.7628 50.304 82.6428 49.688 82.6428 48.968V39.944ZM85.0908 48.968C85.0908 49.56 85.2508 50 85.5708 50.288C85.9068 50.56 86.2988 50.696 86.7468 50.696C87.1948 50.696 87.5788 50.56 87.8988 50.288C88.2348 50 88.4028 49.56 88.4028 48.968V39.944C88.4028 39.352 88.2348 38.92 87.8988 38.648C87.5788 38.36 87.1948 38.216 86.7468 38.216C86.2988 38.216 85.9068 38.36 85.5708 38.648C85.2508 38.92 85.0908 39.352 85.0908 39.944V48.968ZM98.7175 53V41.912H98.6695L95.4535 53H93.0055V35.912H95.4535V47.024H95.5015L98.7175 35.912H101.166V53H98.7175ZM103.147 40.232C103.147 39.752 103.243 39.208 103.435 38.6C103.643 37.992 103.955 37.472 104.371 37.04C104.739 36.672 105.155 36.368 105.619 36.128C106.083 35.888 106.619 35.768 107.227 35.768C107.947 35.768 108.563 35.896 109.075 36.152C109.603 36.392 110.035 36.72 110.371 37.136C110.723 37.552 110.979 38.048 111.139 38.624C111.299 39.2 111.379 39.808 111.379 40.448C111.379 40.768 111.371 41.096 111.355 41.432C111.339 41.752 111.275 42.08 111.163 42.416C111.067 42.736 110.899 43.04 110.659 43.328C110.435 43.616 110.107 43.88 109.675 44.12C110.107 44.296 110.435 44.528 110.659 44.816C110.899 45.088 111.067 45.4 111.163 45.752C111.275 46.088 111.339 46.464 111.355 46.88C111.371 47.28 111.379 47.696 111.379 48.128C111.379 48.848 111.299 49.52 111.139 50.144C110.995 50.768 110.747 51.288 110.395 51.704C110.043 52.12 109.595 52.464 109.051 52.736C108.523 53.008 107.867 53.144 107.083 53.144C106.491 53.144 105.939 53.04 105.427 52.832C104.915 52.624 104.475 52.336 104.107 51.968C103.739 51.6 103.459 51.128 103.267 50.552C103.075 49.976 102.979 49.4 102.979 48.824V48.176H105.427L105.451 48.848C105.451 49.072 105.475 49.296 105.523 49.52C105.587 49.728 105.683 49.92 105.811 50.096C105.939 50.272 106.107 50.416 106.315 50.528C106.523 50.64 106.787 50.696 107.107 50.696C107.827 50.696 108.307 50.472 108.547 50.024C108.803 49.56 108.931 48.936 108.931 48.152C108.931 47.704 108.915 47.288 108.883 46.904C108.851 46.504 108.771 46.192 108.643 45.968C108.355 45.472 107.875 45.224 107.203 45.224H106.267V43.064H107.275C107.579 43.064 107.851 43.008 108.091 42.896C108.331 42.784 108.523 42.592 108.667 42.32C108.795 42.064 108.867 41.76 108.883 41.408C108.915 41.056 108.931 40.744 108.931 40.472C108.931 40.184 108.907 39.904 108.859 39.632C108.811 39.344 108.723 39.096 108.595 38.888C108.467 38.696 108.291 38.536 108.067 38.408C107.859 38.28 107.587 38.216 107.251 38.216C106.947 38.216 106.691 38.272 106.483 38.384C106.291 38.496 106.131 38.64 106.003 38.816C105.859 39.008 105.755 39.256 105.691 39.56C105.627 39.864 105.595 40.16 105.595 40.448V40.832H103.147V40.232ZM113.701 53V35.912H117.277C118.061 35.912 118.725 36.032 119.269 36.272C119.829 36.512 120.285 36.832 120.637 37.232C120.989 37.632 121.237 38.096 121.381 38.624C121.541 39.136 121.621 39.672 121.621 40.232V40.856C121.621 41.32 121.581 41.712 121.501 42.032C121.437 42.352 121.333 42.632 121.189 42.872C120.917 43.32 120.501 43.704 119.941 44.024C120.517 44.296 120.941 44.696 121.213 45.224C121.485 45.752 121.621 46.472 121.621 47.384V48.344C121.621 49.848 121.253 51 120.517 51.8C119.797 52.6 118.637 53 117.037 53H113.701ZM116.149 45.08V50.552H117.205C117.701 50.552 118.085 50.48 118.357 50.336C118.645 50.192 118.861 49.992 119.005 49.736C119.149 49.48 119.237 49.176 119.269 48.824C119.301 48.472 119.317 48.088 119.317 47.672C119.317 47.24 119.293 46.864 119.245 46.544C119.197 46.224 119.101 45.952 118.957 45.728C118.797 45.504 118.581 45.344 118.309 45.248C118.037 45.136 117.677 45.08 117.229 45.08H116.149ZM116.149 38.216V42.92H117.253C118.069 42.92 118.613 42.72 118.885 42.32C119.173 41.904 119.317 41.304 119.317 40.52C119.317 39.752 119.157 39.176 118.837 38.792C118.533 38.408 117.973 38.216 117.157 38.216H116.149ZM123.776 39.944C123.776 39.256 123.896 38.648 124.136 38.12C124.376 37.592 124.696 37.152 125.096 36.8C125.48 36.464 125.912 36.208 126.392 36.032C126.888 35.856 127.384 35.768 127.88 35.768C128.376 35.768 128.864 35.856 129.344 36.032C129.84 36.208 130.288 36.464 130.688 36.8C131.072 37.152 131.384 37.592 131.624 38.12C131.864 38.648 131.984 39.256 131.984 39.944V48.968C131.984 49.688 131.864 50.304 131.624 50.816C131.384 51.328 131.072 51.752 130.688 52.088C130.288 52.44 129.84 52.704 129.344 52.88C128.864 53.056 128.376 53.144 127.88 53.144C127.384 53.144 126.888 53.056 126.392 52.88C125.912 52.704 125.48 52.44 125.096 52.088C124.696 51.752 124.376 51.328 124.136 50.816C123.896 50.304 123.776 49.688 123.776 48.968V39.944ZM126.224 48.968C126.224 49.56 126.384 50 126.704 50.288C127.04 50.56 127.432 50.696 127.88 50.696C128.328 50.696 128.712 50.56 129.032 50.288C129.368 50 129.536 49.56 129.536 48.968V39.944C129.536 39.352 129.368 38.92 129.032 38.648C128.712 38.36 128.328 38.216 127.88 38.216C127.432 38.216 127.04 38.36 126.704 38.648C126.384 38.92 126.224 39.352 126.224 39.944V48.968ZM134.912 53V55.64H132.8V50.84H134.048C134.192 50.536 134.328 50.192 134.456 49.808C134.584 49.408 134.696 48.992 134.792 48.56C134.888 48.128 134.976 47.688 135.056 47.24C135.136 46.776 135.2 46.328 135.248 45.896C135.28 45.56 135.304 45.184 135.32 44.768C135.352 44.352 135.376 43.928 135.392 43.496C135.408 43.048 135.416 42.608 135.416 42.176C135.432 41.728 135.44 41.304 135.44 40.904V35.912H142.472V50.84H143.864V55.64H141.752V53H134.912ZM137.744 38.072V40.88C137.744 41.104 137.736 41.432 137.72 41.864C137.704 42.28 137.68 42.736 137.648 43.232C137.616 43.728 137.584 44.232 137.552 44.744C137.52 45.24 137.48 45.68 137.432 46.064C137.4 46.384 137.344 46.752 137.264 47.168C137.2 47.568 137.12 47.984 137.024 48.416C136.928 48.848 136.824 49.28 136.712 49.712C136.6 50.128 136.472 50.504 136.328 50.84H140.024V38.072H137.744ZM150.819 53V41.912H150.771L147.555 53H145.107V35.912H147.555V47.024H147.603L150.819 35.912H153.267V53H150.819ZM155.56 53V35.912H157.912L161.056 44.96H161.104L164.224 35.912H166.6V53H164.152V42.608H164.104L161.68 49.952H160.456L158.056 42.608H158.008V53H155.56ZM173.349 53V35.912H181.149V53H178.701V38.072H175.797V53H173.349ZM183.307 39.944C183.307 39.256 183.427 38.648 183.667 38.12C183.907 37.592 184.227 37.152 184.627 36.8C185.011 36.464 185.443 36.208 185.923 36.032C186.419 35.856 186.915 35.768 187.411 35.768C187.907 35.768 188.395 35.856 188.875 36.032C189.371 36.208 189.819 36.464 190.219 36.8C190.603 37.152 190.915 37.592 191.155 38.12C191.395 38.648 191.515 39.256 191.515 39.944V48.968C191.515 49.688 191.395 50.304 191.155 50.816C190.915 51.328 190.603 51.752 190.219 52.088C189.819 52.44 189.371 52.704 188.875 52.88C188.395 53.056 187.907 53.144 187.411 53.144C186.915 53.144 186.419 53.056 185.923 52.88C185.443 52.704 185.011 52.44 184.627 52.088C184.227 51.752 183.907 51.328 183.667 50.816C183.427 50.304 183.307 49.688 183.307 48.968V39.944ZM185.755 48.968C185.755 49.56 185.915 50 186.235 50.288C186.571 50.56 186.963 50.696 187.411 50.696C187.859 50.696 188.243 50.56 188.563 50.288C188.899 50 189.067 49.56 189.067 48.968V39.944C189.067 39.352 188.899 38.92 188.563 38.648C188.243 38.36 187.859 38.216 187.411 38.216C186.963 38.216 186.571 38.36 186.235 38.648C185.915 38.92 185.755 39.352 185.755 39.944V48.968ZM197.294 38.072V43.04C197.294 43.296 197.286 43.736 197.27 44.36C197.254 44.968 197.214 45.64 197.15 46.376C197.086 47.112 196.99 47.84 196.862 48.56C196.734 49.28 196.558 49.88 196.334 50.36C195.95 51.176 195.462 51.824 194.87 52.304C194.278 52.768 193.558 53 192.71 53H192.566V50.552C193.046 50.52 193.422 50.376 193.694 50.12C193.966 49.864 194.19 49.544 194.366 49.16C194.51 48.824 194.622 48.416 194.702 47.936C194.798 47.456 194.87 46.944 194.918 46.4C194.966 45.856 194.998 45.296 195.014 44.72C195.03 44.144 195.038 43.592 195.038 43.064V35.912H202.142V53H199.694V38.072H197.294ZM204.739 50.696C204.963 50.696 205.219 50.672 205.507 50.624C205.795 50.576 206.019 50.472 206.179 50.312C206.307 50.184 206.443 49.984 206.587 49.712C206.747 49.424 206.891 49.024 207.019 48.512L207.235 47.576L203.539 35.912H206.131L208.435 43.952H208.483L210.283 35.912H212.875L209.323 48.896C209.099 49.68 208.859 50.376 208.603 50.984C208.347 51.592 207.987 52.08 207.523 52.448C207.139 52.768 206.731 52.96 206.299 53.024C205.883 53.104 205.419 53.144 204.907 53.144H204.571V50.696H204.739ZM218.266 50.648C217.482 50.648 216.786 50.52 216.178 50.264C215.57 50.008 215.09 49.656 214.738 49.208C214.482 48.888 214.266 48.52 214.09 48.104C213.93 47.688 213.802 47.256 213.706 46.808C213.61 46.36 213.538 45.904 213.49 45.44C213.458 44.976 213.442 44.536 213.442 44.12C213.442 43.096 213.538 42.12 213.73 41.192C213.938 40.248 214.274 39.52 214.738 39.008C215.154 38.544 215.674 38.216 216.298 38.024C216.938 37.816 217.594 37.712 218.266 37.712H218.554V35.912H221.002V37.712H221.29C221.962 37.712 222.61 37.816 223.234 38.024C223.874 38.216 224.402 38.544 224.818 39.008C225.282 39.52 225.61 40.248 225.802 41.192C226.01 42.12 226.114 43.096 226.114 44.12C226.114 44.536 226.09 44.976 226.042 45.44C226.01 45.904 225.946 46.36 225.85 46.808C225.754 47.256 225.618 47.688 225.442 48.104C225.282 48.52 225.074 48.888 224.818 49.208C224.466 49.656 223.986 50.008 223.378 50.264C222.77 50.52 222.074 50.648 221.29 50.648H221.002V53H218.554V50.648H218.266ZM220.954 39.92V48.488H221.482C221.882 48.488 222.218 48.416 222.49 48.272C222.762 48.128 222.986 47.936 223.162 47.696C223.274 47.552 223.37 47.352 223.45 47.096C223.53 46.824 223.594 46.528 223.642 46.208C223.706 45.888 223.746 45.552 223.762 45.2C223.794 44.832 223.81 44.48 223.81 44.144C223.81 43.824 223.794 43.48 223.762 43.112C223.73 42.744 223.682 42.392 223.618 42.056C223.554 41.72 223.474 41.416 223.378 41.144C223.282 40.856 223.17 40.64 223.042 40.496C222.818 40.272 222.57 40.128 222.298 40.064C222.042 39.984 221.746 39.936 221.41 39.92H220.954ZM218.146 39.92C217.81 39.936 217.506 39.984 217.234 40.064C216.978 40.128 216.738 40.272 216.514 40.496C216.386 40.64 216.274 40.856 216.178 41.144C216.082 41.416 216.002 41.72 215.938 42.056C215.874 42.392 215.826 42.744 215.794 43.112C215.762 43.48 215.746 43.824 215.746 44.144C215.746 44.48 215.754 44.832 215.77 45.2C215.802 45.552 215.842 45.888 215.89 46.208C215.954 46.528 216.026 46.824 216.106 47.096C216.186 47.352 216.282 47.552 216.394 47.696C216.57 47.936 216.794 48.128 217.066 48.272C217.338 48.416 217.674 48.488 218.074 48.488H218.602V39.92H218.146ZM232.739 47.024L231.539 40.832H231.491L230.291 47.024H232.739ZM226.691 53L230.507 35.912H232.547L236.363 53H233.915L233.195 49.328H229.859L229.139 53H226.691ZM237.568 35.912H244.576V38.216H240.016V42.92H240.976C241.824 42.92 242.528 43.032 243.088 43.256C243.664 43.48 244.128 43.8 244.48 44.216C244.848 44.664 245.08 45.152 245.176 45.68C245.272 46.192 245.328 46.76 245.344 47.384V48.344C245.344 49.848 244.976 51 244.24 51.8C243.52 52.6 242.36 53 240.76 53H237.568V35.912ZM240.016 45.08V50.552H240.928C241.424 50.552 241.808 50.48 242.08 50.336C242.368 50.192 242.584 49.992 242.728 49.736C242.872 49.48 242.96 49.176 242.992 48.824C243.024 48.472 243.04 48.088 243.04 47.672C243.04 47.24 243.008 46.864 242.944 46.544C242.896 46.208 242.792 45.936 242.632 45.728C242.472 45.52 242.264 45.36 242.008 45.248C241.752 45.136 241.4 45.08 240.952 45.08H240.016ZM247.271 53V35.912H250.943C251.615 35.912 252.207 36 252.719 36.176C253.231 36.352 253.695 36.664 254.111 37.112C254.527 37.56 254.815 38.088 254.975 38.696C255.135 39.288 255.215 40.096 255.215 41.12C255.215 41.888 255.167 42.536 255.071 43.064C254.991 43.592 254.807 44.088 254.519 44.552C254.183 45.112 253.735 45.552 253.175 45.872C252.615 46.176 251.879 46.328 250.967 46.328H249.719V53H247.271ZM249.719 38.216V44.024H250.895C251.391 44.024 251.775 43.952 252.047 43.808C252.319 43.664 252.519 43.464 252.647 43.208C252.775 42.968 252.847 42.672 252.863 42.32C252.895 41.968 252.911 41.576 252.911 41.144C252.911 40.744 252.903 40.368 252.887 40.016C252.871 39.648 252.799 39.328 252.671 39.056C252.543 38.784 252.351 38.576 252.095 38.432C251.839 38.288 251.471 38.216 250.991 38.216H249.719ZM262.757 53V41.912H262.709L259.493 53H257.045V35.912H259.493V47.024H259.541L262.757 35.912H265.205V53H262.757ZM276.042 38.216C275.818 38.216 275.634 38.248 275.49 38.312C275.346 38.36 275.21 38.456 275.082 38.6C274.954 38.744 274.866 38.92 274.818 39.128C274.77 39.336 274.73 39.568 274.698 39.824L274.482 41.816C274.466 42.024 274.442 42.216 274.41 42.392C274.378 42.552 274.346 42.72 274.314 42.896C274.282 43.056 274.234 43.2 274.17 43.328C274.074 43.552 273.954 43.752 273.81 43.928C273.682 44.088 273.554 44.216 273.426 44.312L275.97 53H273.474L271.314 45.392H269.946V53H267.498V35.912H269.946V43.232H270.762C271.05 43.232 271.282 43.192 271.458 43.112C271.634 43.032 271.778 42.92 271.89 42.776C272.002 42.632 272.082 42.472 272.13 42.296C272.178 42.104 272.218 41.896 272.25 41.672L272.49 39.632C272.506 39.568 272.522 39.44 272.538 39.248C272.57 39.04 272.618 38.808 272.682 38.552C272.746 38.296 272.834 38.032 272.946 37.76C273.058 37.488 273.202 37.232 273.378 36.992C273.682 36.608 274.05 36.336 274.482 36.176C274.93 36 275.45 35.912 276.042 35.912V38.216ZM282.379 47.024L281.179 40.832H281.131L279.931 47.024H282.379ZM276.331 53L280.147 35.912H282.187L286.003 53H283.555L282.835 49.328H279.499L278.779 53H276.331ZM287.739 53V38.216H284.907V35.912H293.019V38.216H290.187V53H287.739ZM294.099 35.912H296.547V42.92H297.459C298.307 42.92 299.011 43.04 299.571 43.28C300.147 43.504 300.611 43.824 300.963 44.24C301.331 44.688 301.563 45.168 301.659 45.68C301.755 46.192 301.811 46.76 301.827 47.384V48.344C301.827 49.848 301.459 51 300.723 51.8C300.003 52.6 298.843 53 297.243 53H294.099V35.912ZM296.547 45.08V50.552H297.411C297.907 50.552 298.291 50.48 298.563 50.336C298.851 50.192 299.067 49.992 299.211 49.736C299.355 49.48 299.443 49.176 299.475 48.824C299.507 48.472 299.523 48.088 299.523 47.672C299.523 47.24 299.499 46.872 299.451 46.568C299.403 46.264 299.307 46 299.163 45.776C299.003 45.552 298.787 45.384 298.515 45.272C298.243 45.144 297.883 45.08 297.435 45.08H296.547ZM303.075 53V35.912H305.523V53H303.075ZM31.3883 85V67.912H33.8363V75.232H36.8603V67.912H39.3083V85H36.8603V77.392H33.8363V85H31.3883ZM46.5511 79.024L45.3511 72.832H45.3031L44.1031 79.024H46.5511ZM40.5031 85L44.3191 67.912H46.3591L50.1751 85H47.7271L47.0071 81.328H43.6711L42.9511 85H40.5031ZM55.5216 72.232C55.5216 71.752 55.6176 71.208 55.8096 70.6C56.0176 69.992 56.3296 69.472 56.7456 69.04C57.1136 68.672 57.5296 68.368 57.9936 68.128C58.4576 67.888 58.9936 67.768 59.6016 67.768C60.3216 67.768 60.9376 67.896 61.4496 68.152C61.9776 68.392 62.4096 68.72 62.7456 69.136C63.0976 69.552 63.3536 70.048 63.5136 70.624C63.6736 71.2 63.7536 71.808 63.7536 72.448C63.7536 72.768 63.7456 73.096 63.7296 73.432C63.7136 73.752 63.6496 74.08 63.5376 74.416C63.4416 74.736 63.2736 75.04 63.0336 75.328C62.8096 75.616 62.4816 75.88 62.0496 76.12C62.4816 76.296 62.8096 76.528 63.0336 76.816C63.2736 77.088 63.4416 77.4 63.5376 77.752C63.6496 78.088 63.7136 78.464 63.7296 78.88C63.7456 79.28 63.7536 79.696 63.7536 80.128C63.7536 80.848 63.6736 81.52 63.5136 82.144C63.3696 82.768 63.1216 83.288 62.7696 83.704C62.4176 84.12 61.9696 84.464 61.4256 84.736C60.8976 85.008 60.2416 85.144 59.4576 85.144C58.8656 85.144 58.3136 85.04 57.8016 84.832C57.2896 84.624 56.8496 84.336 56.4816 83.968C56.1136 83.6 55.8336 83.128 55.6416 82.552C55.4496 81.976 55.3536 81.4 55.3536 80.824V80.176H57.8016L57.8256 80.848C57.8256 81.072 57.8496 81.296 57.8976 81.52C57.9616 81.728 58.0576 81.92 58.1856 82.096C58.3136 82.272 58.4816 82.416 58.6896 82.528C58.8976 82.64 59.1616 82.696 59.4816 82.696C60.2016 82.696 60.6816 82.472 60.9216 82.024C61.1776 81.56 61.3056 80.936 61.3056 80.152C61.3056 79.704 61.2896 79.288 61.2576 78.904C61.2256 78.504 61.1456 78.192 61.0176 77.968C60.7296 77.472 60.2496 77.224 59.5776 77.224H58.6416V75.064H59.6496C59.9536 75.064 60.2256 75.008 60.4656 74.896C60.7056 74.784 60.8976 74.592 61.0416 74.32C61.1696 74.064 61.2416 73.76 61.2576 73.408C61.2896 73.056 61.3056 72.744 61.3056 72.472C61.3056 72.184 61.2816 71.904 61.2336 71.632C61.1856 71.344 61.0976 71.096 60.9696 70.888C60.8416 70.696 60.6656 70.536 60.4416 70.408C60.2336 70.28 59.9616 70.216 59.6256 70.216C59.3216 70.216 59.0656 70.272 58.8576 70.384C58.6656 70.496 58.5056 70.64 58.3776 70.816C58.2336 71.008 58.1296 71.256 58.0656 71.56C58.0016 71.864 57.9696 72.16 57.9696 72.448V72.832H55.5216V72.232ZM70.5511 79.024L69.3511 72.832H69.3031L68.1031 79.024H70.5511ZM64.5031 85L68.3191 67.912H70.3591L74.1751 85H71.7271L71.0071 81.328H67.6711L66.9511 85H64.5031ZM75.3805 85V67.912H78.9565C79.7405 67.912 80.4045 68.032 80.9485 68.272C81.5085 68.512 81.9645 68.832 82.3165 69.232C82.6685 69.632 82.9165 70.096 83.0605 70.624C83.2205 71.136 83.3005 71.672 83.3005 72.232V72.856C83.3005 73.32 83.2605 73.712 83.1805 74.032C83.1165 74.352 83.0125 74.632 82.8685 74.872C82.5965 75.32 82.1805 75.704 81.6205 76.024C82.1965 76.296 82.6205 76.696 82.8925 77.224C83.1645 77.752 83.3005 78.472 83.3005 79.384V80.344C83.3005 81.848 82.9325 83 82.1965 83.8C81.4765 84.6 80.3165 85 78.7165 85H75.3805ZM77.8285 77.08V82.552H78.8845C79.3805 82.552 79.7645 82.48 80.0365 82.336C80.3245 82.192 80.5405 81.992 80.6845 81.736C80.8285 81.48 80.9165 81.176 80.9485 80.824C80.9805 80.472 80.9965 80.088 80.9965 79.672C80.9965 79.24 80.9725 78.864 80.9245 78.544C80.8765 78.224 80.7805 77.952 80.6365 77.728C80.4765 77.504 80.2605 77.344 79.9885 77.248C79.7165 77.136 79.3565 77.08 78.9085 77.08H77.8285ZM77.8285 70.216V74.92H78.9325C79.7485 74.92 80.2925 74.72 80.5645 74.32C80.8525 73.904 80.9965 73.304 80.9965 72.52C80.9965 71.752 80.8365 71.176 80.5165 70.792C80.2125 70.408 79.6525 70.216 78.8365 70.216H77.8285ZM85.4553 71.944C85.4553 71.256 85.5753 70.648 85.8153 70.12C86.0553 69.592 86.3753 69.152 86.7753 68.8C87.1593 68.464 87.5913 68.208 88.0713 68.032C88.5673 67.856 89.0633 67.768 89.5593 67.768C90.0553 67.768 90.5433 67.856 91.0233 68.032C91.5193 68.208 91.9673 68.464 92.3673 68.8C92.7513 69.152 93.0633 69.592 93.3033 70.12C93.5433 70.648 93.6633 71.256 93.6633 71.944V80.968C93.6633 81.688 93.5433 82.304 93.3033 82.816C93.0633 83.328 92.7513 83.752 92.3673 84.088C91.9673 84.44 91.5193 84.704 91.0233 84.88C90.5433 85.056 90.0553 85.144 89.5593 85.144C89.0633 85.144 88.5673 85.056 88.0713 84.88C87.5913 84.704 87.1593 84.44 86.7753 84.088C86.3753 83.752 86.0553 83.328 85.8153 82.816C85.5753 82.304 85.4553 81.688 85.4553 80.968V71.944ZM87.9033 80.968C87.9033 81.56 88.0633 82 88.3833 82.288C88.7193 82.56 89.1113 82.696 89.5593 82.696C90.0073 82.696 90.3913 82.56 90.7113 82.288C91.0473 82 91.2153 81.56 91.2153 80.968V71.944C91.2153 71.352 91.0473 70.92 90.7113 70.648C90.3913 70.36 90.0073 70.216 89.5593 70.216C89.1113 70.216 88.7193 70.36 88.3833 70.648C88.0633 70.92 87.9033 71.352 87.9033 71.944V80.968ZM96.5916 85V87.64H94.4796V82.84H95.7276C95.8716 82.536 96.0076 82.192 96.1356 81.808C96.2636 81.408 96.3756 80.992 96.4716 80.56C96.5676 80.128 96.6556 79.688 96.7356 79.24C96.8156 78.776 96.8796 78.328 96.9276 77.896C96.9596 77.56 96.9836 77.184 96.9996 76.768C97.0316 76.352 97.0556 75.928 97.0716 75.496C97.0876 75.048 97.0956 74.608 97.0956 74.176C97.1116 73.728 97.1196 73.304 97.1196 72.904V67.912H104.152V82.84H105.544V87.64H103.432V85H96.5916ZM99.4236 70.072V72.88C99.4236 73.104 99.4156 73.432 99.3996 73.864C99.3836 74.28 99.3596 74.736 99.3276 75.232C99.2956 75.728 99.2636 76.232 99.2316 76.744C99.1996 77.24 99.1596 77.68 99.1116 78.064C99.0796 78.384 99.0236 78.752 98.9436 79.168C98.8796 79.568 98.7996 79.984 98.7036 80.416C98.6076 80.848 98.5036 81.28 98.3916 81.712C98.2796 82.128 98.1516 82.504 98.0076 82.84H101.704V70.072H99.4236ZM111.965 79.024L110.765 72.832H110.717L109.517 79.024H111.965ZM105.917 85L109.733 67.912H111.773L115.589 85H113.141L112.421 81.328H109.085L108.365 85H105.917ZM115.595 85L119.051 76.048L115.859 67.912H118.451L120.299 72.976L122.171 67.912H124.763L121.499 76.048L125.027 85H122.435L120.299 79.24L118.187 85H115.595ZM317.463 85V82.552H319.911V85H317.463ZM379.951 85V67.912H383.623C384.295 67.912 384.887 68 385.399 68.176C385.911 68.352 386.375 68.664 386.791 69.112C387.207 69.56 387.495 70.088 387.655 70.696C387.815 71.288 387.895 72.096 387.895 73.12C387.895 73.888 387.847 74.536 387.751 75.064C387.671 75.592 387.487 76.088 387.199 76.552C386.863 77.112 386.415 77.552 385.855 77.872C385.295 78.176 384.559 78.328 383.647 78.328H382.399V85H379.951ZM382.399 70.216V76.024H383.575C384.071 76.024 384.455 75.952 384.727 75.808C384.999 75.664 385.199 75.464 385.327 75.208C385.455 74.968 385.527 74.672 385.543 74.32C385.575 73.968 385.591 73.576 385.591 73.144C385.591 72.744 385.583 72.368 385.567 72.016C385.551 71.648 385.479 71.328 385.351 71.056C385.223 70.784 385.031 70.576 384.775 70.432C384.519 70.288 384.151 70.216 383.671 70.216H382.399ZM389.724 85V67.912H397.02V70.216H392.172V75.232H396.396V77.536H392.172V82.552H397.02V85H389.724ZM398.607 85V67.912H405.423V70.216H401.055V85H398.607ZM412.522 85V73.912H412.474L409.258 85H406.81V67.912H409.258V79.024H409.306L412.522 67.912H414.97V85H412.522ZM417.119 71.944C417.119 71.256 417.239 70.648 417.479 70.12C417.719 69.592 418.039 69.152 418.439 68.8C418.823 68.464 419.255 68.208 419.735 68.032C420.231 67.856 420.727 67.768 421.223 67.768C421.719 67.768 422.207 67.856 422.687 68.032C423.183 68.208 423.631 68.464 424.031 68.8C424.415 69.152 424.727 69.592 424.967 70.12C425.207 70.648 425.327 71.256 425.327 71.944V80.968C425.327 81.688 425.207 82.304 424.967 82.816C424.727 83.328 424.415 83.752 424.031 84.088C423.631 84.44 423.183 84.704 422.687 84.88C422.207 85.056 421.719 85.144 421.223 85.144C420.727 85.144 420.231 85.056 419.735 84.88C419.255 84.704 418.823 84.44 418.439 84.088C418.039 83.752 417.719 83.328 417.479 82.816C417.239 82.304 417.119 81.688 417.119 80.968V71.944ZM419.567 80.968C419.567 81.56 419.727 82 420.047 82.288C420.383 82.56 420.775 82.696 421.223 82.696C421.671 82.696 422.055 82.56 422.375 82.288C422.711 82 422.879 81.56 422.879 80.968V71.944C422.879 71.352 422.711 70.92 422.375 70.648C422.055 70.36 421.671 70.216 421.223 70.216C420.775 70.216 420.383 70.36 420.047 70.648C419.727 70.92 419.567 71.352 419.567 71.944V80.968ZM427.482 85V67.912H429.93V75.232H432.954V67.912H435.402V85H432.954V77.392H429.93V85H427.482ZM442.645 79.024L441.445 72.832H441.397L440.197 79.024H442.645ZM436.597 85L440.413 67.912H442.453L446.269 85H443.821L443.101 81.328H439.765L439.045 85H436.597ZM446.274 85L449.73 76.048L446.538 67.912H449.13L450.978 72.976L452.85 67.912H455.442L452.178 76.048L455.706 85H453.114L450.978 79.24L448.866 85H446.274ZM456.658 85V82.552H459.106V85H456.658ZM456.658 79.552V77.104H459.106V79.552H456.658ZM32.9963 117V102.216H30.1643V99.912H38.2763V102.216H35.4443V117H32.9963ZM43.223 111.024L42.023 104.832H41.975L40.775 111.024H43.223ZM37.175 117L40.991 99.912H43.031L46.847 117H44.399L43.679 113.328H40.343L39.623 117H37.175ZM48.0524 117V99.912H50.4044L53.5484 108.96H53.5964L56.7164 99.912H59.0924V117H56.6444V106.608H56.5964L54.1724 113.952H52.9484L50.5484 106.608H50.5004V117H48.0524ZM61.3883 99.912H68.3963V102.216H63.8363V106.92H64.7963C65.6443 106.92 66.3483 107.032 66.9083 107.256C67.4843 107.48 67.9483 107.8 68.3003 108.216C68.6683 108.664 68.9003 109.152 68.9963 109.68C69.0923 110.192 69.1483 110.76 69.1643 111.384V112.344C69.1643 113.848 68.7963 115 68.0603 115.8C67.3403 116.6 66.1803 117 64.5803 117H61.3883V99.912ZM63.8363 109.08V114.552H64.7483C65.2443 114.552 65.6283 114.48 65.9003 114.336C66.1883 114.192 66.4043 113.992 66.5483 113.736C66.6923 113.48 66.7803 113.176 66.8123 112.824C66.8443 112.472 66.8603 112.088 66.8603 111.672C66.8603 111.24 66.8283 110.864 66.7643 110.544C66.7163 110.208 66.6123 109.936 66.4523 109.728C66.2923 109.52 66.0843 109.36 65.8283 109.248C65.5723 109.136 65.2203 109.08 64.7723 109.08H63.8363ZM70.9475 103.944C70.9475 103.256 71.0675 102.648 71.3075 102.12C71.5475 101.592 71.8675 101.152 72.2675 100.8C72.6515 100.464 73.0835 100.208 73.5635 100.032C74.0595 99.856 74.5555 99.768 75.0515 99.768C75.5475 99.768 76.0355 99.856 76.5155 100.032C77.0115 100.208 77.4595 100.464 77.8595 100.8C78.2435 101.152 78.5555 101.592 78.7955 102.12C79.0355 102.648 79.1555 103.256 79.1555 103.944V112.968C79.1555 113.688 79.0355 114.304 78.7955 114.816C78.5555 115.328 78.2435 115.752 77.8595 116.088C77.4595 116.44 77.0115 116.704 76.5155 116.88C76.0355 117.056 75.5475 117.144 75.0515 117.144C74.5555 117.144 74.0595 117.056 73.5635 116.88C73.0835 116.704 72.6515 116.44 72.2675 116.088C71.8675 115.752 71.5475 115.328 71.3075 114.816C71.0675 114.304 70.9475 113.688 70.9475 112.968V103.944ZM73.3955 112.968C73.3955 113.56 73.5555 114 73.8755 114.288C74.2115 114.56 74.6035 114.696 75.0515 114.696C75.4995 114.696 75.8835 114.56 76.2035 114.288C76.5395 114 76.7075 113.56 76.7075 112.968V103.944C76.7075 103.352 76.5395 102.92 76.2035 102.648C75.8835 102.36 75.4995 102.216 75.0515 102.216C74.6035 102.216 74.2115 102.36 73.8755 102.648C73.5555 102.92 73.3955 103.352 73.3955 103.944V112.968ZM81.3102 117V99.912H84.8862C85.6702 99.912 86.3342 100.032 86.8782 100.272C87.4382 100.512 87.8942 100.832 88.2462 101.232C88.5982 101.632 88.8462 102.096 88.9902 102.624C89.1502 103.136 89.2302 103.672 89.2302 104.232V104.856C89.2302 105.32 89.1902 105.712 89.1102 106.032C89.0462 106.352 88.9422 106.632 88.7982 106.872C88.5262 107.32 88.1102 107.704 87.5502 108.024C88.1262 108.296 88.5502 108.696 88.8222 109.224C89.0942 109.752 89.2302 110.472 89.2302 111.384V112.344C89.2302 113.848 88.8622 115 88.1262 115.8C87.4062 116.6 86.2462 117 84.6462 117H81.3102ZM83.7582 109.08V114.552H84.8142C85.3102 114.552 85.6942 114.48 85.9662 114.336C86.2542 114.192 86.4702 113.992 86.6142 113.736C86.7582 113.48 86.8462 113.176 86.8782 112.824C86.9102 112.472 86.9262 112.088 86.9262 111.672C86.9262 111.24 86.9022 110.864 86.8542 110.544C86.8062 110.224 86.7102 109.952 86.5662 109.728C86.4062 109.504 86.1902 109.344 85.9182 109.248C85.6462 109.136 85.2862 109.08 84.8382 109.08H83.7582ZM83.7582 102.216V106.92H84.8622C85.6782 106.92 86.2222 106.72 86.4942 106.32C86.7822 105.904 86.9262 105.304 86.9262 104.52C86.9262 103.752 86.7662 103.176 86.4462 102.792C86.1422 102.408 85.5822 102.216 84.7662 102.216H83.7582ZM99.305 112.128V113.184C99.305 113.712 99.201 114.216 98.993 114.696C98.801 115.16 98.529 115.576 98.177 115.944C97.825 116.312 97.409 116.608 96.929 116.832C96.465 117.04 95.961 117.144 95.417 117.144C94.953 117.144 94.481 117.08 94.001 116.952C93.521 116.824 93.089 116.6 92.705 116.28C92.321 115.96 92.001 115.552 91.745 115.056C91.505 114.544 91.385 113.896 91.385 113.112V103.704C91.385 103.144 91.481 102.624 91.673 102.144C91.865 101.664 92.137 101.248 92.489 100.896C92.841 100.544 93.257 100.272 93.737 100.08C94.233 99.872 94.777 99.768 95.369 99.768C96.521 99.768 97.457 100.144 98.177 100.896C98.529 101.264 98.801 101.704 98.993 102.216C99.201 102.712 99.305 103.256 99.305 103.848V104.808H96.857V103.992C96.857 103.512 96.721 103.096 96.449 102.744C96.177 102.392 95.809 102.216 95.345 102.216C94.737 102.216 94.329 102.408 94.121 102.792C93.929 103.16 93.833 103.632 93.833 104.208V112.944C93.833 113.44 93.937 113.856 94.145 114.192C94.369 114.528 94.761 114.696 95.321 114.696C95.481 114.696 95.649 114.672 95.825 114.624C96.017 114.56 96.193 114.464 96.353 114.336C96.497 114.208 96.617 114.032 96.713 113.808C96.809 113.584 96.857 113.304 96.857 112.968V112.128H99.305ZM109.846 102.216C109.622 102.216 109.438 102.248 109.294 102.312C109.15 102.36 109.014 102.456 108.886 102.6C108.758 102.744 108.67 102.92 108.622 103.128C108.574 103.336 108.534 103.568 108.502 103.824L108.286 105.816C108.27 106.024 108.246 106.216 108.214 106.392C108.182 106.552 108.15 106.72 108.118 106.896C108.086 107.056 108.038 107.2 107.974 107.328C107.878 107.552 107.758 107.752 107.614 107.928C107.486 108.088 107.358 108.216 107.23 108.312L109.774 117H107.278L105.118 109.392H103.75V117H101.302V99.912H103.75V107.232H104.566C104.854 107.232 105.086 107.192 105.262 107.112C105.438 107.032 105.582 106.92 105.694 106.776C105.806 106.632 105.886 106.472 105.934 106.296C105.982 106.104 106.022 105.896 106.054 105.672L106.294 103.632C106.31 103.568 106.326 103.44 106.342 103.248C106.374 103.04 106.422 102.808 106.486 102.552C106.55 102.296 106.638 102.032 106.75 101.76C106.862 101.488 107.006 101.232 107.182 100.992C107.486 100.608 107.854 100.336 108.286 100.176C108.734 100 109.254 99.912 109.846 99.912V102.216ZM116.184 111.024L114.984 104.832H114.936L113.736 111.024H116.184ZM110.136 117L113.952 99.912H115.992L119.808 117H117.36L116.64 113.328H113.304L112.584 117H110.136ZM125.003 102.216C124.139 102.216 123.571 102.448 123.299 102.912C123.043 103.36 122.915 104.016 122.915 104.88C122.915 105.312 122.939 105.696 122.987 106.032C123.035 106.352 123.123 106.624 123.251 106.848C123.395 107.072 123.595 107.248 123.851 107.376C124.107 107.488 124.451 107.544 124.883 107.544H126.059V102.216H125.003ZM126.059 117V109.704H124.931L122.795 117H120.299L122.627 109.392C122.243 109.248 121.907 109.032 121.619 108.744C121.331 108.456 121.099 108.128 120.923 107.76C120.747 107.392 120.627 106.96 120.563 106.464C120.499 105.968 120.467 105.456 120.467 104.928C120.467 101.584 121.907 99.912 124.787 99.912H128.507V117H126.059ZM135.119 103.944C135.119 103.256 135.239 102.648 135.479 102.12C135.719 101.592 136.039 101.152 136.439 100.8C136.823 100.464 137.255 100.208 137.735 100.032C138.231 99.856 138.727 99.768 139.223 99.768C139.719 99.768 140.207 99.856 140.687 100.032C141.183 100.208 141.631 100.464 142.031 100.8C142.415 101.152 142.727 101.592 142.967 102.12C143.207 102.648 143.327 103.256 143.327 103.944V112.968C143.327 113.688 143.207 114.304 142.967 114.816C142.727 115.328 142.415 115.752 142.031 116.088C141.631 116.44 141.183 116.704 140.687 116.88C140.207 117.056 139.719 117.144 139.223 117.144C138.727 117.144 138.231 117.056 137.735 116.88C137.255 116.704 136.823 116.44 136.439 116.088C136.039 115.752 135.719 115.328 135.479 114.816C135.239 114.304 135.119 113.688 135.119 112.968V103.944ZM137.567 112.968C137.567 113.56 137.727 114 138.047 114.288C138.383 114.56 138.775 114.696 139.223 114.696C139.671 114.696 140.055 114.56 140.375 114.288C140.711 114 140.879 113.56 140.879 112.968V103.944C140.879 103.352 140.711 102.92 140.375 102.648C140.055 102.36 139.671 102.216 139.223 102.216C138.775 102.216 138.383 102.36 138.047 102.648C137.727 102.92 137.567 103.352 137.567 103.944V112.968ZM145.482 99.912H152.49V102.216H147.93V106.92H148.89C149.738 106.92 150.442 107.032 151.002 107.256C151.578 107.48 152.042 107.8 152.394 108.216C152.762 108.664 152.994 109.152 153.09 109.68C153.186 110.192 153.242 110.76 153.258 111.384V112.344C153.258 113.848 152.89 115 152.154 115.8C151.434 116.6 150.274 117 148.674 117H145.482V99.912ZM147.93 109.08V114.552H148.842C149.338 114.552 149.722 114.48 149.994 114.336C150.282 114.192 150.498 113.992 150.642 113.736C150.786 113.48 150.874 113.176 150.906 112.824C150.938 112.472 150.954 112.088 150.954 111.672C150.954 111.24 150.922 110.864 150.858 110.544C150.81 110.208 150.706 109.936 150.546 109.728C150.386 109.52 150.178 109.36 149.922 109.248C149.666 109.136 149.314 109.08 148.866 109.08H147.93ZM158.692 102.072V107.04C158.692 107.296 158.684 107.736 158.668 108.36C158.652 108.968 158.612 109.64 158.548 110.376C158.484 111.112 158.388 111.84 158.26 112.56C158.132 113.28 157.956 113.88 157.732 114.36C157.348 115.176 156.86 115.824 156.268 116.304C155.676 116.768 154.956 117 154.108 117H153.964V114.552C154.444 114.52 154.82 114.376 155.092 114.12C155.364 113.864 155.588 113.544 155.764 113.16C155.908 112.824 156.02 112.416 156.1 111.936C156.196 111.456 156.268 110.944 156.316 110.4C156.364 109.856 156.396 109.296 156.412 108.72C156.428 108.144 156.436 107.592 156.436 107.064V99.912H163.54V117H161.092V102.072H158.692ZM170.793 111.024L169.593 104.832H169.545L168.345 111.024H170.793ZM164.745 117L168.561 99.912H170.601L174.417 117H171.969L171.249 113.328H167.913L167.193 117H164.745ZM183.399 112.128V113.184C183.399 113.712 183.295 114.216 183.087 114.696C182.895 115.16 182.623 115.576 182.271 115.944C181.919 116.312 181.503 116.608 181.023 116.832C180.559 117.04 180.055 117.144 179.511 117.144C179.047 117.144 178.575 117.08 178.095 116.952C177.615 116.824 177.183 116.6 176.799 116.28C176.415 115.96 176.095 115.552 175.839 115.056C175.599 114.544 175.479 113.896 175.479 113.112V103.704C175.479 103.144 175.575 102.624 175.767 102.144C175.959 101.664 176.231 101.248 176.583 100.896C176.935 100.544 177.351 100.272 177.831 100.08C178.327 99.872 178.871 99.768 179.463 99.768C180.615 99.768 181.551 100.144 182.271 100.896C182.623 101.264 182.895 101.704 183.087 102.216C183.295 102.712 183.399 103.256 183.399 103.848V104.808H180.951V103.992C180.951 103.512 180.815 103.096 180.543 102.744C180.271 102.392 179.903 102.216 179.439 102.216C178.831 102.216 178.423 102.408 178.215 102.792C178.023 103.16 177.927 103.632 177.927 104.208V112.944C177.927 113.44 178.031 113.856 178.239 114.192C178.463 114.528 178.855 114.696 179.415 114.696C179.575 114.696 179.743 114.672 179.919 114.624C180.111 114.56 180.287 114.464 180.447 114.336C180.591 114.208 180.711 114.032 180.807 113.808C180.903 113.584 180.951 113.304 180.951 112.968V112.128H183.399ZM186.77 117V102.216H183.938V99.912H192.05V102.216H189.218V117H186.77ZM193.131 99.912H195.579V106.92H196.491C197.339 106.92 198.043 107.04 198.603 107.28C199.179 107.504 199.643 107.824 199.995 108.24C200.363 108.688 200.595 109.168 200.691 109.68C200.803 110.192 200.859 110.76 200.859 111.384V112.344C200.859 113.848 200.491 115 199.755 115.8C199.035 116.6 197.875 117 196.275 117H193.131V99.912ZM195.579 109.08V114.552H196.443C196.939 114.552 197.323 114.48 197.595 114.336C197.883 114.192 198.099 113.992 198.243 113.736C198.387 113.48 198.475 113.176 198.507 112.824C198.539 112.472 198.555 112.088 198.555 111.672C198.555 110.792 198.419 110.144 198.147 109.728C197.987 109.504 197.779 109.344 197.523 109.248C197.267 109.136 196.915 109.08 196.467 109.08H195.579ZM202.643 118.776V114.552H205.091V117L202.643 118.776ZM211.693 99.912H218.701V102.216H214.141V106.92H215.101C215.949 106.92 216.653 107.032 217.213 107.256C217.789 107.48 218.253 107.8 218.605 108.216C218.973 108.664 219.205 109.152 219.301 109.68C219.397 110.192 219.453 110.76 219.469 111.384V112.344C219.469 113.848 219.101 115 218.365 115.8C217.645 116.6 216.485 117 214.885 117H211.693V99.912ZM214.141 109.08V114.552H215.053C215.549 114.552 215.933 114.48 216.205 114.336C216.493 114.192 216.709 113.992 216.853 113.736C216.997 113.48 217.085 113.176 217.117 112.824C217.149 112.472 217.165 112.088 217.165 111.672C217.165 111.24 217.133 110.864 217.069 110.544C217.021 110.208 216.917 109.936 216.757 109.728C216.597 109.52 216.389 109.36 216.133 109.248C215.877 109.136 215.525 109.08 215.077 109.08H214.141ZM221.396 117V99.912H228.692V102.216H223.844V107.232H228.068V109.536H223.844V114.552H228.692V117H221.396ZM234.02 102.072V107.04C234.02 107.296 234.012 107.736 233.996 108.36C233.98 108.968 233.94 109.64 233.876 110.376C233.812 111.112 233.716 111.84 233.588 112.56C233.46 113.28 233.284 113.88 233.06 114.36C232.676 115.176 232.188 115.824 231.596 116.304C231.004 116.768 230.284 117 229.436 117H229.292V114.552C229.772 114.52 230.148 114.376 230.42 114.12C230.692 113.864 230.916 113.544 231.092 113.16C231.236 112.824 231.348 112.416 231.428 111.936C231.524 111.456 231.596 110.944 231.644 110.4C231.692 109.856 231.724 109.296 231.74 108.72C231.756 108.144 231.764 107.592 231.764 107.064V99.912H238.868V117H236.42V102.072H234.02ZM241.177 117V99.912H247.993V102.216H243.625V117H241.177ZM248.768 103.944C248.768 103.256 248.888 102.648 249.128 102.12C249.368 101.592 249.688 101.152 250.088 100.8C250.472 100.464 250.904 100.208 251.384 100.032C251.88 99.856 252.376 99.768 252.872 99.768C253.368 99.768 253.856 99.856 254.336 100.032C254.832 100.208 255.28 100.464 255.68 100.8C256.064 101.152 256.376 101.592 256.616 102.12C256.856 102.648 256.976 103.256 256.976 103.944V112.968C256.976 113.688 256.856 114.304 256.616 114.816C256.376 115.328 256.064 115.752 255.68 116.088C255.28 116.44 254.832 116.704 254.336 116.88C253.856 117.056 253.368 117.144 252.872 117.144C252.376 117.144 251.88 117.056 251.384 116.88C250.904 116.704 250.472 116.44 250.088 116.088C249.688 115.752 249.368 115.328 249.128 114.816C248.888 114.304 248.768 113.688 248.768 112.968V103.944ZM251.216 112.968C251.216 113.56 251.376 114 251.696 114.288C252.032 114.56 252.424 114.696 252.872 114.696C253.32 114.696 253.704 114.56 254.024 114.288C254.36 114 254.528 113.56 254.528 112.968V103.944C254.528 103.352 254.36 102.92 254.024 102.648C253.704 102.36 253.32 102.216 252.872 102.216C252.424 102.216 252.032 102.36 251.696 102.648C251.376 102.92 251.216 103.352 251.216 103.944V112.968ZM259.131 117V99.912H262.803C263.475 99.912 264.067 100 264.579 100.176C265.091 100.352 265.555 100.664 265.971 101.112C266.387 101.56 266.675 102.088 266.835 102.696C266.995 103.288 267.075 104.096 267.075 105.12C267.075 105.888 267.027 106.536 266.931 107.064C266.851 107.592 266.667 108.088 266.379 108.552C266.043 109.112 265.595 109.552 265.035 109.872C264.475 110.176 263.739 110.328 262.827 110.328H261.579V117H259.131ZM261.579 102.216V108.024H262.755C263.251 108.024 263.635 107.952 263.907 107.808C264.179 107.664 264.379 107.464 264.507 107.208C264.635 106.968 264.707 106.672 264.723 106.32C264.755 105.968 264.771 105.576 264.771 105.144C264.771 104.744 264.763 104.368 264.747 104.016C264.731 103.648 264.659 103.328 264.531 103.056C264.403 102.784 264.211 102.576 263.955 102.432C263.699 102.288 263.331 102.216 262.851 102.216H261.579ZM268.76 103.944C268.76 103.256 268.88 102.648 269.12 102.12C269.36 101.592 269.68 101.152 270.08 100.8C270.464 100.464 270.896 100.208 271.376 100.032C271.872 99.856 272.368 99.768 272.864 99.768C273.36 99.768 273.848 99.856 274.328 100.032C274.824 100.208 275.272 100.464 275.672 100.8C276.056 101.152 276.368 101.592 276.608 102.12C276.848 102.648 276.968 103.256 276.968 103.944V112.968C276.968 113.688 276.848 114.304 276.608 114.816C276.368 115.328 276.056 115.752 275.672 116.088C275.272 116.44 274.824 116.704 274.328 116.88C273.848 117.056 273.36 117.144 272.864 117.144C272.368 117.144 271.872 117.056 271.376 116.88C270.896 116.704 270.464 116.44 270.08 116.088C269.68 115.752 269.36 115.328 269.12 114.816C268.88 114.304 268.76 113.688 268.76 112.968V103.944ZM271.208 112.968C271.208 113.56 271.368 114 271.688 114.288C272.024 114.56 272.416 114.696 272.864 114.696C273.312 114.696 273.696 114.56 274.016 114.288C274.352 114 274.52 113.56 274.52 112.968V103.944C274.52 103.352 274.352 102.92 274.016 102.648C273.696 102.36 273.312 102.216 272.864 102.216C272.416 102.216 272.024 102.36 271.688 102.648C271.368 102.92 271.208 103.352 271.208 103.944V112.968ZM279.896 117V119.64H277.784V114.84H279.032C279.176 114.536 279.312 114.192 279.44 113.808C279.568 113.408 279.68 112.992 279.776 112.56C279.872 112.128 279.96 111.688 280.04 111.24C280.12 110.776 280.184 110.328 280.232 109.896C280.264 109.56 280.288 109.184 280.304 108.768C280.336 108.352 280.36 107.928 280.376 107.496C280.392 107.048 280.4 106.608 280.4 106.176C280.416 105.728 280.424 105.304 280.424 104.904V99.912H287.456V114.84H288.848V119.64H286.736V117H279.896ZM282.728 102.072V104.88C282.728 105.104 282.72 105.432 282.704 105.864C282.688 106.28 282.664 106.736 282.632 107.232C282.6 107.728 282.568 108.232 282.536 108.744C282.504 109.24 282.464 109.68 282.416 110.064C282.384 110.384 282.328 110.752 282.248 111.168C282.184 111.568 282.104 111.984 282.008 112.416C281.912 112.848 281.808 113.28 281.696 113.712C281.584 114.128 281.456 114.504 281.312 114.84H285.008V102.072H282.728ZM297.867 112.128V113.184C297.867 113.712 297.763 114.216 297.555 114.696C297.363 115.16 297.091 115.576 296.739 115.944C296.387 116.312 295.971 116.608 295.491 116.832C295.027 117.04 294.523 117.144 293.979 117.144C293.515 117.144 293.043 117.08 292.563 116.952C292.083 116.824 291.651 116.6 291.267 116.28C290.883 115.96 290.563 115.552 290.307 115.056C290.067 114.544 289.947 113.896 289.947 113.112V103.704C289.947 103.144 290.043 102.624 290.235 102.144C290.427 101.664 290.699 101.248 291.051 100.896C291.403 100.544 291.819 100.272 292.299 100.08C292.795 99.872 293.339 99.768 293.931 99.768C295.083 99.768 296.019 100.144 296.739 100.896C297.091 101.264 297.363 101.704 297.555 102.216C297.763 102.712 297.867 103.256 297.867 103.848V104.808H295.419V103.992C295.419 103.512 295.283 103.096 295.011 102.744C294.739 102.392 294.371 102.216 293.907 102.216C293.299 102.216 292.891 102.408 292.683 102.792C292.491 103.16 292.395 103.632 292.395 104.208V112.944C292.395 113.44 292.499 113.856 292.707 114.192C292.931 114.528 293.323 114.696 293.883 114.696C294.043 114.696 294.211 114.672 294.387 114.624C294.579 114.56 294.755 114.464 294.915 114.336C295.059 114.208 295.179 114.032 295.275 113.808C295.371 113.584 295.419 113.304 295.419 112.968V112.128H297.867ZM308.409 102.216C308.185 102.216 308.001 102.248 307.857 102.312C307.713 102.36 307.577 102.456 307.449 102.6C307.321 102.744 307.233 102.92 307.185 103.128C307.137 103.336 307.097 103.568 307.065 103.824L306.849 105.816C306.833 106.024 306.809 106.216 306.777 106.392C306.745 106.552 306.713 106.72 306.681 106.896C306.649 107.056 306.601 107.2 306.537 107.328C306.441 107.552 306.321 107.752 306.177 107.928C306.049 108.088 305.921 108.216 305.793 108.312L308.337 117H305.841L303.681 109.392H302.313V117H299.865V99.912H302.313V107.232H303.129C303.417 107.232 303.649 107.192 303.825 107.112C304.001 107.032 304.145 106.92 304.257 106.776C304.369 106.632 304.449 106.472 304.497 106.296C304.545 106.104 304.585 105.896 304.617 105.672L304.857 103.632C304.873 103.568 304.889 103.44 304.905 103.248C304.937 103.04 304.985 102.808 305.049 102.552C305.113 102.296 305.201 102.032 305.313 101.76C305.425 101.488 305.569 101.232 305.745 100.992C306.049 100.608 306.417 100.336 306.849 100.176C307.297 100 307.817 99.912 308.409 99.912V102.216ZM314.746 111.024L313.546 104.832H313.498L312.298 111.024H314.746ZM308.698 117L312.514 99.912H314.554L318.37 117H315.922L315.202 113.328H311.866L311.146 117H308.698ZM323.565 102.216C322.701 102.216 322.133 102.448 321.861 102.912C321.605 103.36 321.477 104.016 321.477 104.88C321.477 105.312 321.501 105.696 321.549 106.032C321.597 106.352 321.685 106.624 321.813 106.848C321.957 107.072 322.157 107.248 322.413 107.376C322.669 107.488 323.013 107.544 323.445 107.544H324.621V102.216H323.565ZM324.621 117V109.704H323.493L321.357 117H318.861L321.189 109.392C320.805 109.248 320.469 109.032 320.181 108.744C319.893 108.456 319.661 108.128 319.485 107.76C319.309 107.392 319.189 106.96 319.125 106.464C319.061 105.968 319.029 105.456 319.029 104.928C319.029 101.584 320.469 99.912 323.349 99.912H327.069V117H324.621ZM333.682 103.944C333.682 103.256 333.802 102.648 334.042 102.12C334.282 101.592 334.602 101.152 335.002 100.8C335.386 100.464 335.818 100.208 336.298 100.032C336.794 99.856 337.29 99.768 337.786 99.768C338.282 99.768 338.77 99.856 339.25 100.032C339.746 100.208 340.194 100.464 340.594 100.8C340.978 101.152 341.29 101.592 341.53 102.12C341.77 102.648 341.89 103.256 341.89 103.944V112.968C341.89 113.688 341.77 114.304 341.53 114.816C341.29 115.328 340.978 115.752 340.594 116.088C340.194 116.44 339.746 116.704 339.25 116.88C338.77 117.056 338.282 117.144 337.786 117.144C337.29 117.144 336.794 117.056 336.298 116.88C335.818 116.704 335.386 116.44 335.002 116.088C334.602 115.752 334.282 115.328 334.042 114.816C333.802 114.304 333.682 113.688 333.682 112.968V103.944ZM336.13 112.968C336.13 113.56 336.29 114 336.61 114.288C336.946 114.56 337.338 114.696 337.786 114.696C338.234 114.696 338.618 114.56 338.938 114.288C339.274 114 339.442 113.56 339.442 112.968V103.944C339.442 103.352 339.274 102.92 338.938 102.648C338.618 102.36 338.234 102.216 337.786 102.216C337.338 102.216 336.946 102.36 336.61 102.648C336.29 102.92 336.13 103.352 336.13 103.944V112.968ZM344.045 99.912H351.053V102.216H346.493V106.92H347.453C348.301 106.92 349.005 107.032 349.565 107.256C350.141 107.48 350.605 107.8 350.957 108.216C351.325 108.664 351.557 109.152 351.653 109.68C351.749 110.192 351.805 110.76 351.821 111.384V112.344C351.821 113.848 351.453 115 350.717 115.8C349.997 116.6 348.837 117 347.237 117H344.045V99.912ZM346.493 109.08V114.552H347.405C347.901 114.552 348.285 114.48 348.557 114.336C348.845 114.192 349.061 113.992 349.205 113.736C349.349 113.48 349.437 113.176 349.469 112.824C349.501 112.472 349.517 112.088 349.517 111.672C349.517 111.24 349.485 110.864 349.421 110.544C349.373 110.208 349.269 109.936 349.109 109.728C348.949 109.52 348.741 109.36 348.485 109.248C348.229 109.136 347.877 109.08 347.429 109.08H346.493ZM357.255 102.072V107.04C357.255 107.296 357.247 107.736 357.231 108.36C357.215 108.968 357.175 109.64 357.111 110.376C357.047 111.112 356.951 111.84 356.823 112.56C356.695 113.28 356.519 113.88 356.295 114.36C355.911 115.176 355.423 115.824 354.831 116.304C354.239 116.768 353.519 117 352.671 117H352.527V114.552C353.007 114.52 353.383 114.376 353.655 114.12C353.927 113.864 354.151 113.544 354.327 113.16C354.471 112.824 354.583 112.416 354.663 111.936C354.759 111.456 354.831 110.944 354.879 110.4C354.927 109.856 354.959 109.296 354.975 108.72C354.991 108.144 354.999 107.592 354.999 107.064V99.912H362.103V117H359.655V102.072H357.255ZM369.356 111.024L368.156 104.832H368.108L366.908 111.024H369.356ZM363.308 117L367.124 99.912H369.164L372.98 117H370.532L369.812 113.328H366.476L365.756 117H363.308ZM381.961 112.128V113.184C381.961 113.712 381.857 114.216 381.649 114.696C381.457 115.16 381.185 115.576 380.833 115.944C380.481 116.312 380.065 116.608 379.585 116.832C379.121 117.04 378.617 117.144 378.073 117.144C377.609 117.144 377.137 117.08 376.657 116.952C376.177 116.824 375.745 116.6 375.361 116.28C374.977 115.96 374.657 115.552 374.401 115.056C374.161 114.544 374.041 113.896 374.041 113.112V103.704C374.041 103.144 374.137 102.624 374.329 102.144C374.521 101.664 374.793 101.248 375.145 100.896C375.497 100.544 375.913 100.272 376.393 100.08C376.889 99.872 377.433 99.768 378.025 99.768C379.177 99.768 380.113 100.144 380.833 100.896C381.185 101.264 381.457 101.704 381.649 102.216C381.857 102.712 381.961 103.256 381.961 103.848V104.808H379.513V103.992C379.513 103.512 379.377 103.096 379.105 102.744C378.833 102.392 378.465 102.216 378.001 102.216C377.393 102.216 376.985 102.408 376.777 102.792C376.585 103.16 376.489 103.632 376.489 104.208V112.944C376.489 113.44 376.593 113.856 376.801 114.192C377.025 114.528 377.417 114.696 377.977 114.696C378.137 114.696 378.305 114.672 378.481 114.624C378.673 114.56 378.849 114.464 379.009 114.336C379.153 114.208 379.273 114.032 379.369 113.808C379.465 113.584 379.513 113.304 379.513 112.968V112.128H381.961ZM385.332 117V102.216H382.5V99.912H390.612V102.216H387.78V117H385.332ZM391.693 99.912H394.141V106.92H395.053C395.901 106.92 396.605 107.04 397.165 107.28C397.741 107.504 398.205 107.824 398.557 108.24C398.925 108.688 399.157 109.168 399.253 109.68C399.365 110.192 399.421 110.76 399.421 111.384V112.344C399.421 113.848 399.053 115 398.317 115.8C397.597 116.6 396.437 117 394.837 117H391.693V99.912ZM394.141 109.08V114.552H395.005C395.501 114.552 395.885 114.48 396.157 114.336C396.445 114.192 396.661 113.992 396.805 113.736C396.949 113.48 397.037 113.176 397.069 112.824C397.101 112.472 397.117 112.088 397.117 111.672C397.117 110.792 396.981 110.144 396.709 109.728C396.549 109.504 396.341 109.344 396.085 109.248C395.829 109.136 395.477 109.08 395.029 109.08H394.141ZM37.1003 149V137.912H37.0523L33.8363 149H31.3883V131.912H33.8363V143.024H33.8843L37.1003 131.912H39.5483V149H37.1003ZM46.2946 149V131.912H54.0946V149H51.6466V134.072H48.7426V149H46.2946ZM56.3961 149V131.912H60.0681C60.7401 131.912 61.3321 132 61.8441 132.176C62.3561 132.352 62.8201 132.664 63.2361 133.112C63.6521 133.56 63.9401 134.088 64.1001 134.696C64.2601 135.288 64.3401 136.096 64.3401 137.12C64.3401 137.888 64.2921 138.536 64.1961 139.064C64.1161 139.592 63.9321 140.088 63.6441 140.552C63.3081 141.112 62.8601 141.552 62.3001 141.872C61.7401 142.176 61.0041 142.328 60.0921 142.328H58.8441V149H56.3961ZM58.8441 134.216V140.024H60.0201C60.5161 140.024 60.9001 139.952 61.1721 139.808C61.4441 139.664 61.6441 139.464 61.7721 139.208C61.9001 138.968 61.9721 138.672 61.9881 138.32C62.0201 137.968 62.0361 137.576 62.0361 137.144C62.0361 136.744 62.0281 136.368 62.0121 136.016C61.9961 135.648 61.9241 135.328 61.7961 135.056C61.6681 134.784 61.4761 134.576 61.2201 134.432C60.9641 134.288 60.5961 134.216 60.1161 134.216H58.8441ZM71.8816 149V137.912H71.8336L68.6176 149H66.1696V131.912H68.6176V143.024H68.6656L71.8816 131.912H74.3296V149H71.8816ZM76.6227 149V131.912H78.9747L82.1187 140.96H82.1667L85.2867 131.912H87.6627V149H85.2147V138.608H85.1667L82.7427 145.952H81.5187L79.1187 138.608H79.0707V149H76.6227ZM89.8146 135.944C89.8146 135.256 89.9346 134.648 90.1746 134.12C90.4146 133.592 90.7346 133.152 91.1346 132.8C91.5186 132.464 91.9506 132.208 92.4306 132.032C92.9266 131.856 93.4226 131.768 93.9186 131.768C94.4146 131.768 94.9026 131.856 95.3826 132.032C95.8786 132.208 96.3266 132.464 96.7266 132.8C97.1106 133.152 97.4226 133.592 97.6626 134.12C97.9026 134.648 98.0226 135.256 98.0226 135.944V144.968C98.0226 145.688 97.9026 146.304 97.6626 146.816C97.4226 147.328 97.1106 147.752 96.7266 148.088C96.3266 148.44 95.8786 148.704 95.3826 148.88C94.9026 149.056 94.4146 149.144 93.9186 149.144C93.4226 149.144 92.9266 149.056 92.4306 148.88C91.9506 148.704 91.5186 148.44 91.1346 148.088C90.7346 147.752 90.4146 147.328 90.1746 146.816C89.9346 146.304 89.8146 145.688 89.8146 144.968V135.944ZM92.2626 144.968C92.2626 145.56 92.4226 146 92.7426 146.288C93.0786 146.56 93.4706 146.696 93.9186 146.696C94.3666 146.696 94.7506 146.56 95.0706 146.288C95.4066 146 95.5746 145.56 95.5746 144.968V135.944C95.5746 135.352 95.4066 134.92 95.0706 134.648C94.7506 134.36 94.3666 134.216 93.9186 134.216C93.4706 134.216 93.0786 134.36 92.7426 134.648C92.4226 134.92 92.2626 135.352 92.2626 135.944V144.968ZM100.177 149V131.912H103.849C104.521 131.912 105.113 132 105.625 132.176C106.137 132.352 106.601 132.664 107.017 133.112C107.433 133.56 107.721 134.088 107.881 134.696C108.041 135.288 108.121 136.096 108.121 137.12C108.121 137.888 108.073 138.536 107.977 139.064C107.897 139.592 107.713 140.088 107.425 140.552C107.089 141.112 106.641 141.552 106.081 141.872C105.521 142.176 104.785 142.328 103.873 142.328H102.625V149H100.177ZM102.625 134.216V140.024H103.801C104.297 140.024 104.681 139.952 104.953 139.808C105.225 139.664 105.425 139.464 105.553 139.208C105.681 138.968 105.753 138.672 105.769 138.32C105.801 137.968 105.817 137.576 105.817 137.144C105.817 136.744 105.809 136.368 105.793 136.016C105.777 135.648 105.705 135.328 105.577 135.056C105.449 134.784 105.257 134.576 105.001 134.432C104.745 134.288 104.377 134.216 103.897 134.216H102.625ZM117.727 144.128V145.184C117.727 145.712 117.623 146.216 117.415 146.696C117.223 147.16 116.951 147.576 116.599 147.944C116.247 148.312 115.831 148.608 115.351 148.832C114.887 149.04 114.383 149.144 113.839 149.144C113.375 149.144 112.903 149.08 112.423 148.952C111.943 148.824 111.511 148.6 111.127 148.28C110.743 147.96 110.423 147.552 110.167 147.056C109.927 146.544 109.807 145.896 109.807 145.112V135.704C109.807 135.144 109.903 134.624 110.095 134.144C110.287 133.664 110.559 133.248 110.911 132.896C111.263 132.544 111.679 132.272 112.159 132.08C112.655 131.872 113.199 131.768 113.791 131.768C114.943 131.768 115.879 132.144 116.599 132.896C116.951 133.264 117.223 133.704 117.415 134.216C117.623 134.712 117.727 135.256 117.727 135.848V136.808H115.279V135.992C115.279 135.512 115.143 135.096 114.871 134.744C114.599 134.392 114.231 134.216 113.767 134.216C113.159 134.216 112.751 134.408 112.543 134.792C112.351 135.16 112.255 135.632 112.255 136.208V144.944C112.255 145.44 112.359 145.856 112.567 146.192C112.791 146.528 113.183 146.696 113.743 146.696C113.903 146.696 114.071 146.672 114.247 146.624C114.439 146.56 114.615 146.464 114.775 146.336C114.919 146.208 115.039 146.032 115.135 145.808C115.231 145.584 115.279 145.304 115.279 144.968V144.128H117.727ZM128.268 134.216C128.044 134.216 127.86 134.248 127.716 134.312C127.572 134.36 127.436 134.456 127.308 134.6C127.18 134.744 127.092 134.92 127.044 135.128C126.996 135.336 126.956 135.568 126.924 135.824L126.708 137.816C126.692 138.024 126.668 138.216 126.636 138.392C126.604 138.552 126.572 138.72 126.54 138.896C126.508 139.056 126.46 139.2 126.396 139.328C126.3 139.552 126.18 139.752 126.036 139.928C125.908 140.088 125.78 140.216 125.652 140.312L128.196 149H125.7L123.54 141.392H122.172V149H119.724V131.912H122.172V139.232H122.988C123.276 139.232 123.508 139.192 123.684 139.112C123.86 139.032 124.004 138.92 124.116 138.776C124.228 138.632 124.308 138.472 124.356 138.296C124.404 138.104 124.444 137.896 124.476 137.672L124.716 135.632C124.732 135.568 124.748 135.44 124.764 135.248C124.796 135.04 124.844 134.808 124.908 134.552C124.972 134.296 125.06 134.032 125.172 133.76C125.284 133.488 125.428 133.232 125.604 132.992C125.908 132.608 126.276 132.336 126.708 132.176C127.156 132 127.676 131.912 128.268 131.912V134.216ZM135.374 149V137.912H135.326L132.11 149H129.662V131.912H132.11V143.024H132.158L135.374 131.912H137.822V149H135.374ZM145.827 149V137.912H145.779L142.563 149H140.115V131.912H142.563V143.024H142.611L145.827 131.912H148.275V149H145.827ZM142.899 128.48C142.915 128.576 142.931 128.696 142.947 128.84C142.963 128.968 143.011 129.104 143.091 129.248C143.187 129.376 143.315 129.488 143.475 129.584C143.651 129.68 143.891 129.728 144.195 129.728C144.499 129.728 144.731 129.68 144.891 129.584C145.067 129.488 145.195 129.376 145.275 129.248C145.371 129.104 145.427 128.968 145.443 128.84C145.459 128.696 145.475 128.576 145.491 128.48H147.531C147.419 129.44 147.099 130.144 146.571 130.592C146.059 131.04 145.267 131.264 144.195 131.264C143.123 131.264 142.323 131.04 141.795 130.592C141.283 130.144 140.971 129.44 140.859 128.48H142.899ZM163.565 134.216C163.341 134.216 163.157 134.248 163.013 134.312C162.869 134.36 162.733 134.456 162.605 134.6C162.477 134.744 162.389 134.92 162.341 135.128C162.293 135.336 162.253 135.568 162.221 135.824L162.005 137.816C161.989 138.024 161.965 138.216 161.933 138.392C161.901 138.552 161.869 138.72 161.837 138.896C161.805 139.056 161.757 139.2 161.693 139.328C161.597 139.552 161.477 139.752 161.333 139.928C161.205 140.088 161.077 140.216 160.949 140.312L163.493 149H160.997L158.837 141.392H157.469V149H155.021V131.912H157.469V139.232H158.285C158.573 139.232 158.805 139.192 158.981 139.112C159.157 139.032 159.301 138.92 159.413 138.776C159.525 138.632 159.605 138.472 159.653 138.296C159.701 138.104 159.741 137.896 159.773 137.672L160.013 135.632C160.029 135.568 160.045 135.44 160.061 135.248C160.093 135.04 160.141 134.808 160.205 134.552C160.269 134.296 160.357 134.032 160.469 133.76C160.581 133.488 160.725 133.232 160.901 132.992C161.205 132.608 161.573 132.336 162.005 132.176C162.453 132 162.973 131.912 163.565 131.912V134.216ZM164.959 149V131.912H168.631C169.303 131.912 169.895 132 170.407 132.176C170.919 132.352 171.383 132.664 171.799 133.112C172.215 133.56 172.503 134.088 172.663 134.696C172.823 135.288 172.903 136.096 172.903 137.12C172.903 137.888 172.855 138.536 172.759 139.064C172.679 139.592 172.495 140.088 172.207 140.552C171.871 141.112 171.423 141.552 170.863 141.872C170.303 142.176 169.567 142.328 168.655 142.328H167.407V149H164.959ZM167.407 134.216V140.024H168.583C169.079 140.024 169.463 139.952 169.735 139.808C170.007 139.664 170.207 139.464 170.335 139.208C170.463 138.968 170.535 138.672 170.551 138.32C170.583 137.968 170.599 137.576 170.599 137.144C170.599 136.744 170.591 136.368 170.575 136.016C170.559 135.648 170.487 135.328 170.359 135.056C170.231 134.784 170.039 134.576 169.783 134.432C169.527 134.288 169.159 134.216 168.679 134.216H167.407ZM178.785 143.024L177.585 136.832H177.537L176.337 143.024H178.785ZM172.737 149L176.553 131.912H178.593L182.409 149H179.961L179.241 145.328H175.905L175.185 149H172.737ZM189.327 149V137.912H189.279L186.063 149H183.615V131.912H186.063V143.024H186.111L189.327 131.912H191.775V149H189.327ZM186.399 128.48C186.415 128.576 186.431 128.696 186.447 128.84C186.463 128.968 186.511 129.104 186.591 129.248C186.687 129.376 186.815 129.488 186.975 129.584C187.151 129.68 187.391 129.728 187.695 129.728C187.999 129.728 188.231 129.68 188.391 129.584C188.567 129.488 188.695 129.376 188.775 129.248C188.871 129.104 188.927 128.968 188.943 128.84C188.959 128.696 188.975 128.576 188.991 128.48H191.031C190.919 129.44 190.599 130.144 190.071 130.592C189.559 131.04 188.767 131.264 187.695 131.264C186.623 131.264 185.823 131.04 185.295 130.592C184.783 130.144 184.471 129.44 184.359 128.48H186.399Z" fill="#462B74"/>
<path d="M144.566 88.1091L143.969 71.0315L147.543 70.9067C148.327 70.8794 148.995 70.9761 149.547 71.197C150.115 71.4173 150.582 71.7212 150.947 72.1087C151.313 72.4961 151.577 72.9512 151.739 73.4738C151.917 73.9799 152.016 74.5128 152.035 75.0725L152.057 75.6961C152.073 76.1598 152.047 76.553 151.978 76.8756C151.926 77.1976 151.831 77.4811 151.696 77.726C151.44 78.1832 151.037 78.5815 150.489 78.9208C151.074 79.1725 151.512 79.5575 151.802 80.0757C152.092 80.5939 152.253 81.3087 152.285 82.2201L152.319 83.1795C152.371 84.6826 152.043 85.8468 151.336 86.672C150.644 87.4966 149.499 87.9368 147.9 87.9927L144.566 88.1091ZM146.736 80.1085L146.927 85.5772L147.982 85.5403C148.478 85.523 148.859 85.4376 149.126 85.2842C149.409 85.1303 149.618 84.9229 149.753 84.662C149.888 84.4011 149.965 84.0942 149.985 83.7413C150.004 83.3884 150.007 83.0041 149.992 82.5884C149.977 82.1566 149.94 81.7817 149.881 81.4636C149.822 81.1454 149.717 80.8769 149.565 80.6581C149.397 80.4398 149.176 80.2875 148.9 80.201C148.625 80.0986 148.263 80.0552 147.815 80.0708L146.736 80.1085ZM146.496 73.2487L146.661 77.9498L147.764 77.9113C148.579 77.8828 149.116 77.6639 149.374 77.2547C149.647 76.8289 149.77 76.2242 149.743 75.4407C149.716 74.6732 149.536 74.1031 149.203 73.7305C148.886 73.3574 148.319 73.185 147.504 73.2135L146.496 73.2487ZM161.023 77.7605L164.045 77.6549L163.939 74.6328C163.919 74.0571 163.791 73.5893 163.554 73.2294C163.333 72.8529 162.926 72.6749 162.335 72.6956C161.839 72.7129 161.469 72.9019 161.226 73.2626C160.998 73.6228 160.893 74.0427 160.909 74.5224L160.938 75.338L158.491 75.4234L158.466 74.7038C158.446 74.1122 158.529 73.5249 158.717 72.942C158.92 72.3425 159.191 71.8528 159.53 71.4727C159.869 71.0927 160.275 70.7983 160.748 70.5897C161.237 70.3805 161.737 70.267 162.249 70.2491C162.809 70.2295 163.34 70.3151 163.843 70.5056C164.361 70.6796 164.803 70.9364 165.167 71.2759C165.531 71.6154 165.817 72.0216 166.026 72.4947C166.234 72.9677 166.349 73.484 166.368 74.0437L166.688 83.2061C166.715 83.9896 166.611 84.6736 166.375 85.2582C166.14 85.8428 165.836 86.3017 165.463 86.6349C165.09 86.9681 164.667 87.2151 164.192 87.3757C163.733 87.5198 163.271 87.6 162.808 87.6162C162.264 87.6352 161.749 87.5491 161.262 87.358C160.774 87.1509 160.348 86.8696 159.983 86.5141C159.619 86.1586 159.332 85.7523 159.124 85.2953C158.916 84.8223 158.802 84.322 158.784 83.7943L158.747 82.7389L161.193 82.6535L161.223 83.493C161.234 83.8288 161.284 84.1072 161.372 84.3283C161.476 84.5488 161.602 84.7205 161.75 84.8434C161.915 84.9657 162.086 85.0558 162.264 85.1136C162.458 85.1549 162.634 85.1727 162.794 85.1672C163.354 85.1476 163.739 84.958 163.951 84.5984C164.163 84.2388 164.26 83.8112 164.242 83.3155L164.12 79.8136L161.098 79.9192L161.023 77.7605ZM177.019 72.1828C176.795 72.1906 176.612 72.229 176.471 72.298C176.329 72.351 176.196 72.4517 176.073 72.6001C175.95 72.7485 175.868 72.9274 175.828 73.137C175.787 73.3465 175.755 73.5798 175.732 73.8367L175.586 75.8351C175.577 76.0435 175.56 76.2362 175.534 76.4132C175.507 76.5742 175.481 76.7433 175.455 76.9203C175.429 77.0813 175.386 77.2269 175.327 77.357C175.239 77.5842 175.126 77.7883 174.988 77.9692C174.865 78.1336 174.742 78.266 174.617 78.3664L177.463 86.9603L174.969 87.0474L172.544 79.5194L171.177 79.5672L171.443 87.1705L168.996 87.256L168.4 70.1784L170.846 70.093L171.102 77.4085L171.917 77.38C172.205 77.37 172.436 77.3219 172.609 77.2358C172.782 77.1497 172.922 77.0328 173.029 76.8849C173.136 76.7371 173.21 76.5744 173.252 76.3968C173.293 76.2033 173.326 75.994 173.35 75.769L173.519 73.7219C173.532 73.6574 173.544 73.5289 173.553 73.3365C173.578 73.1275 173.618 72.8939 173.673 72.6359C173.728 72.3778 173.807 72.1109 173.909 71.8351C174.012 71.5594 174.146 71.2985 174.314 71.0525C174.604 70.6581 174.963 70.3735 175.389 70.1985C175.83 70.007 176.347 69.9009 176.939 69.8802L177.019 72.1828ZM178.328 73.8661C178.304 73.1786 178.403 72.5667 178.624 72.0307C178.846 71.4946 179.15 71.0437 179.538 70.678C179.91 70.3288 180.332 70.0579 180.806 69.8652C181.296 69.672 181.788 69.5668 182.284 69.5495C182.78 69.5322 183.27 69.6031 183.756 69.7622C184.258 69.9208 184.715 70.161 185.126 70.4828C185.522 70.8212 185.849 71.2501 186.108 71.7694C186.366 72.2887 186.507 72.8921 186.531 73.5797L186.846 82.5982C186.871 83.3178 186.773 83.9376 186.551 84.4576C186.329 84.9777 186.032 85.4123 185.66 85.7615C185.272 86.1273 184.834 86.4067 184.344 86.5999C183.871 86.7926 183.386 86.8976 182.89 86.9149C182.395 86.9322 181.896 86.8616 181.394 86.703C180.908 86.5438 180.467 86.2951 180.071 85.9567C179.66 85.6348 179.325 85.2223 179.067 84.719C178.81 84.2156 178.668 83.6042 178.643 82.8847L178.328 73.8661ZM181.09 82.7992C181.11 83.3909 181.285 83.825 181.615 84.1017C181.961 84.3618 182.357 84.484 182.805 84.4684C183.253 84.4527 183.632 84.3034 183.942 84.0204C184.268 83.7209 184.42 83.2753 184.4 82.6836L184.085 73.6651C184.064 73.0735 183.881 72.6476 183.536 72.3875C183.206 72.1108 182.817 71.9803 182.369 71.996C181.922 72.0116 181.535 72.1692 181.209 72.4688C180.899 72.7518 180.754 73.1891 180.775 73.7807L181.09 82.7992ZM192.241 71.5072L192.414 76.4721C192.423 76.728 192.431 77.168 192.436 77.7922C192.442 78.4004 192.425 79.0733 192.387 79.8111C192.349 80.5489 192.278 81.2798 192.175 82.0038C192.073 82.7279 191.918 83.3337 191.71 83.8212C191.355 84.6501 190.89 85.3147 190.315 85.8151C189.74 86.2995 189.028 86.5564 188.181 86.586L188.037 86.5911L187.951 84.1446C188.43 84.0958 188.801 83.9388 189.064 83.6735C189.327 83.4081 189.539 83.0805 189.702 82.6906C189.834 82.3498 189.932 81.9381 189.995 81.4556C190.074 80.9726 190.128 80.4583 190.157 79.913C190.186 79.3677 190.199 78.8069 190.194 78.2307C190.19 77.6545 190.179 77.1025 190.161 76.5748L189.911 69.4272L197.011 69.1793L197.607 86.2569L195.161 86.3423L194.64 71.4234L192.241 71.5072ZM199.315 73.1333C199.291 72.4457 199.39 71.8339 199.611 71.2978C199.833 70.7618 200.137 70.3109 200.525 69.9451C200.897 69.5959 201.32 69.325 201.793 69.1323C202.283 68.9391 202.775 68.8339 203.271 68.8166C203.767 68.7993 204.258 68.8702 204.743 69.0293C205.245 69.1879 205.702 69.4281 206.113 69.7499C206.509 70.0883 206.837 70.5172 207.095 71.0365C207.353 71.5558 207.494 72.1592 207.518 72.8468L207.833 81.8653C207.858 82.5849 207.76 83.2047 207.538 83.7247C207.316 84.2448 207.019 84.6794 206.647 85.0286C206.259 85.3944 205.821 85.6739 205.331 85.8671C204.858 86.0597 204.373 86.1647 203.878 86.182C203.382 86.1993 202.883 86.1287 202.381 85.9701C201.895 85.8109 201.454 85.5622 201.058 85.2238C200.647 84.902 200.312 84.4894 200.055 83.9861C199.797 83.4828 199.655 82.8713 199.63 82.1518L199.315 73.1333ZM202.077 82.0663C202.097 82.658 202.273 83.0921 202.603 83.3688C202.948 83.6289 203.344 83.7511 203.792 83.7355C204.24 83.7198 204.619 83.5705 204.929 83.2875C205.255 82.988 205.407 82.5424 205.387 81.9507L205.072 72.9322C205.051 72.3406 204.868 71.9147 204.523 71.6546C204.193 71.378 203.804 71.2474 203.357 71.2631C202.909 71.2787 202.522 71.4363 202.196 71.7359C201.886 72.0189 201.741 72.4562 201.762 73.0478L202.077 82.0663ZM210.127 85.8197L209.531 68.7421L216.343 68.5042L216.423 70.8068L212.058 70.9592L212.574 85.7342L210.127 85.8197ZM224.034 85.334L223.647 74.2528L223.599 74.2544L220.772 85.4479L218.326 85.5334L217.729 68.4558L220.176 68.3703L220.564 79.4756L220.611 79.4739L223.438 68.2564L225.884 68.171L226.481 85.2486L224.034 85.334ZM236.256 84.9072L233.809 84.9927L233.545 77.4133C233.417 77.4337 233.258 77.4633 233.067 77.502C232.876 77.5247 232.62 77.5416 232.301 77.5528C231.741 77.5723 231.195 77.5114 230.661 77.3699C230.128 77.2284 229.68 76.9959 229.316 76.6724C228.953 76.3489 228.674 75.9264 228.479 75.4048C228.301 74.8827 228.202 74.3259 228.181 73.7342L227.984 68.0977L230.431 68.0122L230.617 73.361C230.627 73.6328 230.668 73.9035 230.742 74.1731C230.815 74.4427 230.943 74.6624 231.125 74.8322C231.439 75.1254 231.9 75.2614 232.508 75.2401C232.636 75.2357 232.764 75.2312 232.892 75.2267C233.019 75.2063 233.123 75.1867 233.202 75.1679C233.297 75.1485 233.385 75.1295 233.464 75.1107L233.213 67.9151L235.659 67.8296L236.256 84.9072ZM238.563 84.8267L237.967 67.7491L245.258 67.4944L245.339 69.797L240.494 69.9662L240.669 74.9792L244.89 74.8318L244.971 77.1343L240.749 77.2818L240.924 82.2947L245.769 82.1255L245.855 84.572L238.563 84.8267ZM255.042 79.3762L255.079 80.4316C255.097 80.9593 255.011 81.4666 254.82 81.9536C254.644 82.424 254.387 82.8492 254.048 83.2293C253.709 83.6093 253.303 83.9197 252.831 84.1603C252.375 84.3844 251.875 84.5059 251.331 84.5249C250.868 84.5411 250.394 84.4936 249.909 84.3824C249.425 84.2712 248.986 84.0624 248.591 83.756C248.196 83.4496 247.862 83.0531 247.589 82.5663C247.331 82.063 247.188 81.4196 247.161 80.636L246.833 71.2338C246.813 70.6741 246.891 70.1511 247.066 69.6647C247.241 69.1783 247.499 68.753 247.838 68.389C248.178 68.0249 248.584 67.7385 249.057 67.5299C249.545 67.3047 250.085 67.1818 250.677 67.1611C251.828 67.1209 252.777 67.464 253.523 68.1904C253.887 68.5459 254.174 68.9762 254.384 69.4812C254.609 69.9696 254.732 70.5096 254.753 71.1013L254.786 72.0607L252.34 72.1461L252.311 71.3306C252.295 70.8509 252.144 70.4399 251.86 70.0976C251.576 69.7553 251.202 69.5923 250.738 69.6085C250.131 69.6297 249.73 69.8358 249.535 70.2268C249.356 70.6013 249.277 71.0764 249.297 71.652L249.602 80.3827C249.619 80.8784 249.737 81.2905 249.957 81.6191C250.193 81.947 250.59 82.1013 251.15 82.0817C251.31 82.0761 251.477 82.0463 251.651 81.9922C251.841 81.9215 252.013 81.8194 252.169 81.6859C252.308 81.553 252.422 81.3729 252.51 81.1457C252.598 80.9185 252.636 80.637 252.625 80.3012L252.595 79.4617L255.042 79.3762ZM265.231 69.1024C265.007 69.1102 264.824 69.1486 264.683 69.2176C264.54 69.2706 264.408 69.3713 264.285 69.5197C264.162 69.668 264.08 69.847 264.04 70.0565C263.999 70.2661 263.967 70.4993 263.944 70.7563L263.798 72.7546C263.789 72.9631 263.772 73.1558 263.746 73.3328C263.719 73.4938 263.693 73.6628 263.667 73.8398C263.641 74.0009 263.598 74.1464 263.538 74.2766C263.45 74.5038 263.337 74.7079 263.2 74.8888C263.077 75.0532 262.954 75.1856 262.829 75.286L265.675 83.8799L263.18 83.967L260.756 76.439L259.389 76.4868L259.655 84.0901L257.208 84.1756L256.612 67.098L259.058 67.0125L259.314 74.3281L260.129 74.2996C260.417 74.2895 260.648 74.2415 260.821 74.1554C260.994 74.0693 261.134 73.9523 261.241 73.8045C261.348 73.6567 261.422 73.494 261.464 73.3164C261.505 73.1229 261.538 72.9136 261.562 72.6886L261.731 70.6415C261.744 70.577 261.756 70.4485 261.765 70.256C261.79 70.0471 261.83 69.8135 261.885 69.5554C261.94 69.2974 262.018 69.0305 262.121 68.7547C262.223 68.479 262.358 68.2181 262.526 67.9721C262.816 67.5777 263.175 67.293 263.601 67.1181C264.042 66.9265 264.559 66.8204 265.151 66.7998L265.231 69.1024ZM272.848 83.6294L272.461 72.5482L272.413 72.5498L269.586 83.7433L267.14 83.8287L266.543 66.7512L268.99 66.6657L269.377 77.7709L269.425 77.7693L272.252 66.5518L274.698 66.4664L275.295 83.544L272.848 83.6294ZM289.52 83.0472L287.074 83.1326L286.809 75.5532C286.682 75.5737 286.523 75.6033 286.332 75.642C286.14 75.6646 285.885 75.6816 285.565 75.6927C285.005 75.7123 284.459 75.6513 283.926 75.5098C283.392 75.3684 282.944 75.1359 282.581 74.8124C282.217 74.4889 281.938 74.0663 281.744 73.5448C281.565 73.0227 281.466 72.4658 281.445 71.8742L281.248 66.2376L283.695 66.1522L283.882 71.5009C283.891 71.7728 283.933 72.0435 284.006 72.3131C284.08 72.5827 284.207 72.8024 284.389 72.9721C284.704 73.2653 285.165 73.4013 285.772 73.3801C285.9 73.3756 286.028 73.3712 286.156 73.3667C286.284 73.3462 286.387 73.3266 286.466 73.3078C286.562 73.2885 286.649 73.2694 286.729 73.2507L286.477 66.055L288.924 65.9696L289.52 83.0472ZM297.536 82.7673L297.149 71.686L297.101 71.6877L294.274 82.8812L291.828 82.9666L291.231 65.889L293.678 65.8036L294.066 76.9088L294.114 76.9071L296.94 65.6897L299.386 65.6042L299.983 82.6818L297.536 82.7673ZM309.876 77.4614L309.912 78.5168C309.931 79.0444 309.845 79.5518 309.653 80.0387C309.478 80.5091 309.22 80.9344 308.881 81.3144C308.543 81.6945 308.137 82.0048 307.665 82.2455C307.209 82.4695 306.709 82.591 306.165 82.61C305.701 82.6262 305.227 82.5787 304.743 82.4676C304.259 82.3564 303.819 82.1476 303.425 81.8412C303.03 81.5348 302.696 81.1382 302.422 80.6515C302.165 80.1481 302.022 79.5047 301.995 78.7212L301.666 69.3189C301.647 68.7593 301.725 68.2362 301.9 67.7498C302.075 67.2634 302.332 66.8382 302.672 66.4741C303.011 66.11 303.418 65.8237 303.891 65.6151C304.379 65.3899 304.919 65.267 305.511 65.2463C306.662 65.2061 307.611 65.5492 308.356 66.2756C308.721 66.6311 309.008 67.0613 309.218 67.5663C309.443 68.0548 309.566 68.5948 309.587 69.1864L309.62 70.1459L307.174 70.2313L307.145 69.4158C307.128 68.9361 306.978 68.5251 306.694 68.1828C306.41 67.8405 306.036 67.6774 305.572 67.6936C304.964 67.7149 304.563 67.921 304.369 68.312C304.19 68.6865 304.11 69.1615 304.131 69.7372L304.435 78.4679C304.453 78.9636 304.571 79.3757 304.791 79.7042C305.026 80.0322 305.424 80.1864 305.984 80.1669C306.144 80.1613 306.311 80.1314 306.485 80.0773C306.674 80.0067 306.847 79.9046 307.002 79.7711C307.142 79.6381 307.256 79.458 307.344 79.2308C307.432 79.0036 307.47 78.7221 307.458 78.3863L307.429 77.5468L309.876 77.4614ZM313.415 82.2128L312.899 67.4378L310.068 67.5366L309.988 65.234L318.095 64.9509L318.175 67.2535L315.345 67.3524L315.861 82.1273L313.415 82.2128ZM319.175 64.9132L321.622 64.8278L321.866 71.8315L322.778 71.7997C323.625 71.7701 324.333 71.8654 324.901 72.0857C325.484 72.2895 325.959 72.5931 326.326 72.9966C326.709 73.4315 326.958 73.9031 327.071 74.4114C327.185 74.9198 327.261 75.4855 327.299 76.1085L327.332 77.0679C327.385 78.571 327.057 79.7352 326.35 80.5604C325.658 81.385 324.513 81.8252 322.914 81.8811L319.772 81.9908L319.175 64.9132ZM321.942 73.9902L322.133 79.4589L322.996 79.4287C323.492 79.4114 323.873 79.326 324.14 79.1726C324.423 79.0187 324.632 78.8112 324.766 78.5504C324.901 78.2895 324.979 77.9826 324.999 77.6297C325.018 77.2768 325.021 76.8925 325.006 76.4767C324.991 76.045 324.954 75.6781 324.896 75.3759C324.837 75.0738 324.732 74.8133 324.58 74.5945C324.413 74.3762 324.191 74.2158 323.915 74.1134C323.639 73.995 323.277 73.9436 322.829 73.9592L321.942 73.9902ZM328.742 81.6775L328.146 64.5999L330.592 64.5145L331.189 81.5921L328.742 81.6775ZM332.298 81.5534L335.44 72.4862L331.966 64.4665L334.556 64.3761L336.58 69.3725L338.274 64.2463L340.864 64.1558L337.886 72.4008L341.725 81.2242L339.134 81.3146L336.798 75.6327L334.889 81.4629L332.298 81.5534Z" fill="#339C31"/>
<rect x="135.48" y="63.2551" width="230.791" height="34.7905" rx="17.3953" transform="rotate(-2 135.48 63.2551)" stroke="#339C31" stroke-width="1.20946"/>
</svg>
