<svg width="490" height="199" viewBox="0 0 490 199" fill="none" xmlns="http://www.w3.org/2000/svg">
<path d="M23.6648 5.70317C27.0683 2.0649 31.8276 0 36.8097 0H453.19C458.172 0 462.932 2.0649 466.335 5.70317L485.145 25.81C488.264 29.1448 490 33.5405 490 38.1069V127.893C490 132.46 488.264 136.855 485.145 140.19L466.335 160.297C462.932 163.935 458.172 166 453.19 166H353L369.589 196.414C370.047 197.252 369.18 198.194 368.306 197.807L296.5 166H36.8097C31.8276 166 27.0683 163.935 23.6648 160.297L4.85511 140.19C1.73555 136.855 0 132.46 0 127.893V38.1069C0 33.5405 1.73555 29.1448 4.85511 25.81L23.6648 5.70317Z" fill="white"/>
<path d="M35.0661 55V37.912H37.4181L40.5621 46.96H40.6101L43.7301 37.912H46.1061V55H43.6581V44.608H43.6101L41.1861 51.952H39.9621L37.5621 44.608H37.5141V55H35.0661ZM48.402 37.912H50.85V44.92H51.762C52.61 44.92 53.314 45.04 53.874 45.28C54.45 45.504 54.914 45.824 55.266 46.24C55.634 46.688 55.866 47.168 55.962 47.68C56.058 48.192 56.114 48.76 56.13 49.384V50.344C56.13 51.848 55.762 53 55.026 53.8C54.306 54.6 53.146 55 51.546 55H48.402V37.912ZM50.85 47.08V52.552H51.714C52.21 52.552 52.594 52.48 52.866 52.336C53.154 52.192 53.37 51.992 53.514 51.736C53.658 51.48 53.746 51.176 53.778 50.824C53.81 50.472 53.826 50.088 53.826 49.672C53.826 49.24 53.802 48.872 53.754 48.568C53.706 48.264 53.61 48 53.466 47.776C53.306 47.552 53.09 47.384 52.818 47.272C52.546 47.144 52.186 47.08 51.738 47.08H50.85ZM57.378 55V37.912H59.826V55H57.378ZM66.5895 55V37.912H70.2615C70.9335 37.912 71.5255 38 72.0375 38.176C72.5495 38.352 73.0135 38.664 73.4295 39.112C73.8455 39.56 74.1335 40.088 74.2935 40.696C74.4535 41.288 74.5335 42.096 74.5335 43.12C74.5335 43.888 74.4855 44.536 74.3895 45.064C74.3095 45.592 74.1255 46.088 73.8375 46.552C73.5015 47.112 73.0535 47.552 72.4935 47.872C71.9335 48.176 71.1975 48.328 70.2855 48.328H69.0375V55H66.5895ZM69.0375 40.216V46.024H70.2135C70.7095 46.024 71.0935 45.952 71.3655 45.808C71.6375 45.664 71.8375 45.464 71.9655 45.208C72.0935 44.968 72.1655 44.672 72.1815 44.32C72.2135 43.968 72.2295 43.576 72.2295 43.144C72.2295 42.744 72.2215 42.368 72.2055 42.016C72.1895 41.648 72.1175 41.328 71.9895 41.056C71.8615 40.784 71.6695 40.576 71.4135 40.432C71.1575 40.288 70.7895 40.216 70.3095 40.216H69.0375ZM80.4163 49.024L79.2163 42.832H79.1683L77.9683 49.024H80.4163ZM74.3683 55L78.1843 37.912H80.2243L84.0403 55H81.5923L80.8723 51.328H77.5363L76.8163 55H74.3683ZM84.6994 42.232C84.6994 41.752 84.7954 41.208 84.9874 40.6C85.1954 39.992 85.5074 39.472 85.9234 39.04C86.2914 38.672 86.7074 38.368 87.1714 38.128C87.6354 37.888 88.1714 37.768 88.7794 37.768C89.4994 37.768 90.1154 37.896 90.6274 38.152C91.1554 38.392 91.5874 38.72 91.9234 39.136C92.2754 39.552 92.5314 40.048 92.6914 40.624C92.8514 41.2 92.9314 41.808 92.9314 42.448C92.9314 42.768 92.9234 43.096 92.9074 43.432C92.8914 43.752 92.8274 44.08 92.7154 44.416C92.6194 44.736 92.4514 45.04 92.2114 45.328C91.9874 45.616 91.6594 45.88 91.2274 46.12C91.6594 46.296 91.9874 46.528 92.2114 46.816C92.4514 47.088 92.6194 47.4 92.7154 47.752C92.8274 48.088 92.8914 48.464 92.9074 48.88C92.9234 49.28 92.9314 49.696 92.9314 50.128C92.9314 50.848 92.8514 51.52 92.6914 52.144C92.5474 52.768 92.2994 53.288 91.9474 53.704C91.5954 54.12 91.1474 54.464 90.6034 54.736C90.0754 55.008 89.4194 55.144 88.6354 55.144C88.0434 55.144 87.4914 55.04 86.9794 54.832C86.4674 54.624 86.0274 54.336 85.6594 53.968C85.2914 53.6 85.0114 53.128 84.8194 52.552C84.6274 51.976 84.5314 51.4 84.5314 50.824V50.176H86.9794L87.0034 50.848C87.0034 51.072 87.0274 51.296 87.0754 51.52C87.1394 51.728 87.2354 51.92 87.3634 52.096C87.4914 52.272 87.6594 52.416 87.8674 52.528C88.0754 52.64 88.3394 52.696 88.6594 52.696C89.3794 52.696 89.8594 52.472 90.0994 52.024C90.3554 51.56 90.4834 50.936 90.4834 50.152C90.4834 49.704 90.4674 49.288 90.4354 48.904C90.4034 48.504 90.3234 48.192 90.1954 47.968C89.9074 47.472 89.4274 47.224 88.7554 47.224H87.8194V45.064H88.8274C89.1314 45.064 89.4034 45.008 89.6434 44.896C89.8834 44.784 90.0754 44.592 90.2194 44.32C90.3474 44.064 90.4194 43.76 90.4354 43.408C90.4674 43.056 90.4834 42.744 90.4834 42.472C90.4834 42.184 90.4594 41.904 90.4114 41.632C90.3634 41.344 90.2754 41.096 90.1474 40.888C90.0194 40.696 89.8434 40.536 89.6194 40.408C89.4114 40.28 89.1394 40.216 88.8034 40.216C88.4994 40.216 88.2434 40.272 88.0354 40.384C87.8434 40.496 87.6834 40.64 87.5554 40.816C87.4114 41.008 87.3074 41.256 87.2434 41.56C87.1794 41.864 87.1474 42.16 87.1474 42.448V42.832H84.6994V42.232ZM95.535 55V57.64H93.423V52.84H94.671C94.815 52.536 94.951 52.192 95.079 51.808C95.207 51.408 95.319 50.992 95.415 50.56C95.511 50.128 95.599 49.688 95.679 49.24C95.759 48.776 95.823 48.328 95.871 47.896C95.903 47.56 95.927 47.184 95.943 46.768C95.975 46.352 95.999 45.928 96.015 45.496C96.031 45.048 96.039 44.608 96.039 44.176C96.055 43.728 96.063 43.304 96.063 42.904V37.912H103.095V52.84H104.487V57.64H102.375V55H95.535ZM98.367 40.072V42.88C98.367 43.104 98.359 43.432 98.343 43.864C98.327 44.28 98.303 44.736 98.271 45.232C98.239 45.728 98.207 46.232 98.175 46.744C98.143 47.24 98.103 47.68 98.055 48.064C98.023 48.384 97.967 48.752 97.887 49.168C97.823 49.568 97.743 49.984 97.647 50.416C97.551 50.848 97.447 51.28 97.335 51.712C97.223 52.128 97.095 52.504 96.951 52.84H100.647V40.072H98.367ZM105.73 55V37.912H113.026V40.216H108.178V45.232H112.402V47.536H108.178V52.552H113.026V55H105.73ZM118.354 40.072V45.04C118.354 45.296 118.346 45.736 118.33 46.36C118.314 46.968 118.274 47.64 118.21 48.376C118.146 49.112 118.05 49.84 117.922 50.56C117.794 51.28 117.618 51.88 117.394 52.36C117.01 53.176 116.522 53.824 115.93 54.304C115.338 54.768 114.618 55 113.77 55H113.626V52.552C114.106 52.52 114.482 52.376 114.754 52.12C115.026 51.864 115.25 51.544 115.426 51.16C115.57 50.824 115.682 50.416 115.762 49.936C115.858 49.456 115.93 48.944 115.978 48.4C116.026 47.856 116.058 47.296 116.074 46.72C116.09 46.144 116.098 45.592 116.098 45.064V37.912H123.202V55H120.754V40.072H118.354ZM125.511 37.912H127.959V44.92H128.871C129.719 44.92 130.423 45.04 130.983 45.28C131.559 45.504 132.023 45.824 132.375 46.24C132.743 46.688 132.975 47.168 133.071 47.68C133.167 48.192 133.223 48.76 133.239 49.384V50.344C133.239 51.848 132.871 53 132.135 53.8C131.415 54.6 130.255 55 128.655 55H125.511V37.912ZM127.959 47.08V52.552H128.823C129.319 52.552 129.703 52.48 129.975 52.336C130.263 52.192 130.479 51.992 130.623 51.736C130.767 51.48 130.855 51.176 130.887 50.824C130.919 50.472 130.935 50.088 130.935 49.672C130.935 49.24 130.911 48.872 130.863 48.568C130.815 48.264 130.719 48 130.575 47.776C130.415 47.552 130.199 47.384 129.927 47.272C129.655 47.144 129.295 47.08 128.847 47.08H127.959ZM134.487 55V37.912H136.935V55H134.487ZM139.246 55V37.912H142.822C143.606 37.912 144.27 38.032 144.814 38.272C145.374 38.512 145.83 38.832 146.182 39.232C146.534 39.632 146.782 40.096 146.926 40.624C147.086 41.136 147.166 41.672 147.166 42.232V42.856C147.166 43.32 147.126 43.712 147.046 44.032C146.982 44.352 146.878 44.632 146.734 44.872C146.462 45.32 146.046 45.704 145.486 46.024C146.062 46.296 146.486 46.696 146.758 47.224C147.03 47.752 147.166 48.472 147.166 49.384V50.344C147.166 51.848 146.798 53 146.062 53.8C145.342 54.6 144.182 55 142.582 55H139.246ZM141.694 47.08V52.552H142.75C143.246 52.552 143.63 52.48 143.902 52.336C144.19 52.192 144.406 51.992 144.55 51.736C144.694 51.48 144.782 51.176 144.814 50.824C144.846 50.472 144.862 50.088 144.862 49.672C144.862 49.24 144.838 48.864 144.79 48.544C144.742 48.224 144.646 47.952 144.502 47.728C144.342 47.504 144.126 47.344 143.854 47.248C143.582 47.136 143.222 47.08 142.774 47.08H141.694ZM141.694 40.216V44.92H142.798C143.614 44.92 144.158 44.72 144.43 44.32C144.718 43.904 144.862 43.304 144.862 42.52C144.862 41.752 144.702 41.176 144.382 40.792C144.078 40.408 143.518 40.216 142.702 40.216H141.694ZM153.94 49.024L152.74 42.832H152.692L151.492 49.024H153.94ZM147.892 55L151.708 37.912H153.748L157.564 55H155.116L154.396 51.328H151.06L150.34 55H147.892ZM158.769 55V37.912H166.065V40.216H161.217V45.232H165.441V47.536H161.217V52.552H166.065V55H158.769ZM167.652 55V37.912H170.004L173.148 46.96H173.196L176.316 37.912H178.692V55H176.244V44.608H176.196L173.772 51.952H172.548L170.148 44.608H170.1V55H167.652ZM185.441 55V37.912H187.793L190.937 46.96H190.985L194.105 37.912H196.481V55H194.033V44.608H193.985L191.561 51.952H190.337L187.937 44.608H187.889V55H185.441ZM203.001 40.216C202.137 40.216 201.569 40.448 201.297 40.912C201.041 41.36 200.913 42.016 200.913 42.88C200.913 43.312 200.937 43.696 200.985 44.032C201.033 44.352 201.121 44.624 201.249 44.848C201.393 45.072 201.593 45.248 201.849 45.376C202.105 45.488 202.449 45.544 202.881 45.544H204.057V40.216H203.001ZM204.057 55V47.704H202.929L200.793 55H198.297L200.625 47.392C200.241 47.248 199.905 47.032 199.617 46.744C199.329 46.456 199.097 46.128 198.921 45.76C198.745 45.392 198.625 44.96 198.561 44.464C198.497 43.968 198.465 43.456 198.465 42.928C198.465 39.584 199.905 37.912 202.785 37.912H206.505V55H204.057ZM216.584 50.128V51.184C216.584 51.712 216.48 52.216 216.272 52.696C216.08 53.16 215.808 53.576 215.456 53.944C215.104 54.312 214.688 54.608 214.208 54.832C213.744 55.04 213.24 55.144 212.696 55.144C212.232 55.144 211.76 55.08 211.28 54.952C210.8 54.824 210.368 54.6 209.984 54.28C209.6 53.96 209.28 53.552 209.024 53.056C208.784 52.544 208.664 51.896 208.664 51.112V41.704C208.664 41.144 208.76 40.624 208.952 40.144C209.144 39.664 209.416 39.248 209.768 38.896C210.12 38.544 210.536 38.272 211.016 38.08C211.512 37.872 212.056 37.768 212.648 37.768C213.8 37.768 214.736 38.144 215.456 38.896C215.808 39.264 216.08 39.704 216.272 40.216C216.48 40.712 216.584 41.256 216.584 41.848V42.808H214.136V41.992C214.136 41.512 214 41.096 213.728 40.744C213.456 40.392 213.088 40.216 212.624 40.216C212.016 40.216 211.608 40.408 211.4 40.792C211.208 41.16 211.112 41.632 211.112 42.208V50.944C211.112 51.44 211.216 51.856 211.424 52.192C211.648 52.528 212.04 52.696 212.6 52.696C212.76 52.696 212.928 52.672 213.104 52.624C213.296 52.56 213.472 52.464 213.632 52.336C213.776 52.208 213.896 52.032 213.992 51.808C214.088 51.584 214.136 51.304 214.136 50.968V50.128H216.584ZM218.438 41.944C218.438 41.256 218.558 40.648 218.798 40.12C219.038 39.592 219.358 39.152 219.758 38.8C220.142 38.464 220.574 38.208 221.054 38.032C221.55 37.856 222.046 37.768 222.542 37.768C223.038 37.768 223.526 37.856 224.006 38.032C224.502 38.208 224.95 38.464 225.35 38.8C225.734 39.152 226.046 39.592 226.286 40.12C226.526 40.648 226.646 41.256 226.646 41.944V50.968C226.646 51.688 226.526 52.304 226.286 52.816C226.046 53.328 225.734 53.752 225.35 54.088C224.95 54.44 224.502 54.704 224.006 54.88C223.526 55.056 223.038 55.144 222.542 55.144C222.046 55.144 221.55 55.056 221.054 54.88C220.574 54.704 220.142 54.44 219.758 54.088C219.358 53.752 219.038 53.328 218.798 52.816C218.558 52.304 218.438 51.688 218.438 50.968V41.944ZM220.886 50.968C220.886 51.56 221.046 52 221.366 52.288C221.702 52.56 222.094 52.696 222.542 52.696C222.99 52.696 223.374 52.56 223.694 52.288C224.03 52 224.198 51.56 224.198 50.968V41.944C224.198 41.352 224.03 40.92 223.694 40.648C223.374 40.36 222.99 40.216 222.542 40.216C222.094 40.216 221.702 40.36 221.366 40.648C221.046 40.92 220.886 41.352 220.886 41.944V50.968ZM241.03 50.128V51.184C241.03 51.712 240.926 52.216 240.718 52.696C240.526 53.16 240.254 53.576 239.902 53.944C239.55 54.312 239.134 54.608 238.654 54.832C238.19 55.04 237.686 55.144 237.142 55.144C236.678 55.144 236.206 55.08 235.726 54.952C235.246 54.824 234.814 54.6 234.43 54.28C234.046 53.96 233.726 53.552 233.47 53.056C233.23 52.544 233.11 51.896 233.11 51.112V41.704C233.11 41.144 233.206 40.624 233.398 40.144C233.59 39.664 233.862 39.248 234.214 38.896C234.566 38.544 234.982 38.272 235.462 38.08C235.958 37.872 236.502 37.768 237.094 37.768C238.246 37.768 239.182 38.144 239.902 38.896C240.254 39.264 240.526 39.704 240.718 40.216C240.926 40.712 241.03 41.256 241.03 41.848V42.808H238.582V41.992C238.582 41.512 238.446 41.096 238.174 40.744C237.902 40.392 237.534 40.216 237.07 40.216C236.462 40.216 236.054 40.408 235.846 40.792C235.654 41.16 235.558 41.632 235.558 42.208V50.944C235.558 51.44 235.662 51.856 235.87 52.192C236.094 52.528 236.486 52.696 237.046 52.696C237.206 52.696 237.374 52.672 237.55 52.624C237.742 52.56 237.918 52.464 238.078 52.336C238.222 52.208 238.342 52.032 238.438 51.808C238.534 51.584 238.582 51.304 238.582 50.968V50.128H241.03ZM247.768 52.696C247.992 52.696 248.248 52.672 248.536 52.624C248.824 52.576 249.048 52.472 249.208 52.312C249.336 52.184 249.472 51.984 249.616 51.712C249.776 51.424 249.92 51.024 250.048 50.512L250.264 49.576L246.568 37.912H249.16L251.464 45.952H251.512L253.312 37.912H255.904L252.352 50.896C252.128 51.68 251.888 52.376 251.632 52.984C251.376 53.592 251.016 54.08 250.552 54.448C250.168 54.768 249.76 54.96 249.328 55.024C248.912 55.104 248.448 55.144 247.936 55.144H247.6V52.696H247.768ZM264.695 55H262.247V47.416C262.119 47.432 261.959 47.456 261.767 47.488C261.575 47.504 261.319 47.512 260.999 47.512C260.439 47.512 259.895 47.432 259.367 47.272C258.839 47.112 258.399 46.864 258.047 46.528C257.695 46.192 257.431 45.76 257.255 45.232C257.095 44.704 257.015 44.144 257.015 43.552V37.912H259.463V43.264C259.463 43.536 259.495 43.808 259.559 44.08C259.623 44.352 259.743 44.576 259.919 44.752C260.223 45.056 260.679 45.208 261.287 45.208C261.415 45.208 261.543 45.208 261.671 45.208C261.799 45.192 261.903 45.176 261.983 45.16C262.079 45.144 262.167 45.128 262.247 45.112V37.912H264.695V55ZM267.004 55V37.912H274.3V40.216H269.452V45.232H273.676V47.536H269.452V52.552H274.3V55H267.004ZM267.508 36.856V34.408H269.668V36.856H267.508ZM271.396 36.856V34.408H273.556V36.856H271.396ZM277.729 55V40.216H274.897V37.912H283.009V40.216H280.177V55H277.729ZM283.664 41.944C283.664 41.256 283.784 40.648 284.024 40.12C284.264 39.592 284.584 39.152 284.984 38.8C285.368 38.464 285.8 38.208 286.28 38.032C286.776 37.856 287.272 37.768 287.768 37.768C288.264 37.768 288.752 37.856 289.232 38.032C289.728 38.208 290.176 38.464 290.576 38.8C290.96 39.152 291.272 39.592 291.512 40.12C291.752 40.648 291.872 41.256 291.872 41.944V50.968C291.872 51.688 291.752 52.304 291.512 52.816C291.272 53.328 290.96 53.752 290.576 54.088C290.176 54.44 289.728 54.704 289.232 54.88C288.752 55.056 288.264 55.144 287.768 55.144C287.272 55.144 286.776 55.056 286.28 54.88C285.8 54.704 285.368 54.44 284.984 54.088C284.584 53.752 284.264 53.328 284.024 52.816C283.784 52.304 283.664 51.688 283.664 50.968V41.944ZM286.112 50.968C286.112 51.56 286.272 52 286.592 52.288C286.928 52.56 287.32 52.696 287.768 52.696C288.216 52.696 288.6 52.56 288.92 52.288C289.256 52 289.424 51.56 289.424 50.968V41.944C289.424 41.352 289.256 40.92 288.92 40.648C288.6 40.36 288.216 40.216 287.768 40.216C287.32 40.216 286.928 40.36 286.592 40.648C286.272 40.92 286.112 41.352 286.112 41.944V50.968ZM294.027 55V37.912H296.379L299.523 46.96H299.571L302.691 37.912H305.067V55H302.619V44.608H302.571L300.147 51.952H298.923L296.523 44.608H296.475V55H294.027ZM316.76 49.024L315.56 42.832H315.512L314.312 49.024H316.76ZM310.712 55L314.528 37.912H316.568L320.384 55H317.936L317.216 51.328H313.88L313.16 55H310.712ZM321.59 55V37.912H324.038V45.232H327.062V37.912H329.51V55H327.062V47.392H324.038V55H321.59ZM336.752 49.024L335.552 42.832H335.504L334.304 49.024H336.752ZM330.704 55L334.52 37.912H336.56L340.376 55H337.928L337.208 51.328H333.872L333.152 55H330.704ZM342.112 55V40.216H339.28V37.912H347.392V40.216H344.56V55H342.112ZM348.047 41.944C348.047 41.256 348.167 40.648 348.407 40.12C348.647 39.592 348.967 39.152 349.367 38.8C349.751 38.464 350.183 38.208 350.663 38.032C351.159 37.856 351.655 37.768 352.151 37.768C352.647 37.768 353.135 37.856 353.615 38.032C354.111 38.208 354.559 38.464 354.959 38.8C355.343 39.152 355.655 39.592 355.895 40.12C356.135 40.648 356.255 41.256 356.255 41.944V50.968C356.255 51.688 356.135 52.304 355.895 52.816C355.655 53.328 355.343 53.752 354.959 54.088C354.559 54.44 354.111 54.704 353.615 54.88C353.135 55.056 352.647 55.144 352.151 55.144C351.655 55.144 351.159 55.056 350.663 54.88C350.183 54.704 349.751 54.44 349.367 54.088C348.967 53.752 348.647 53.328 348.407 52.816C348.167 52.304 348.047 51.688 348.047 50.968V41.944ZM350.495 50.968C350.495 51.56 350.655 52 350.975 52.288C351.311 52.56 351.703 52.696 352.151 52.696C352.599 52.696 352.983 52.56 353.303 52.288C353.639 52 353.807 51.56 353.807 50.968V41.944C353.807 41.352 353.639 40.92 353.303 40.648C352.983 40.36 352.599 40.216 352.151 40.216C351.703 40.216 351.311 40.36 350.975 40.648C350.655 40.92 350.495 41.352 350.495 41.944V50.968ZM358.41 55V37.912H360.762L363.906 46.96H363.954L367.074 37.912H369.45V55H367.002V44.608H366.954L364.53 51.952H363.306L360.906 44.608H360.858V55H358.41ZM377.458 55V43.912H377.41L374.194 55H371.746V37.912H374.194V49.024H374.242L377.458 37.912H379.906V55H377.458ZM387.911 55V43.912H387.863L384.647 55H382.199V37.912H384.647V49.024H384.695L387.911 37.912H390.359V55H387.911ZM40.0821 69.912H42.5301V77.232H43.2501C43.5381 77.232 43.7621 77.192 43.9221 77.112C44.0981 77.032 44.2341 76.92 44.3301 76.776C44.4421 76.632 44.5221 76.472 44.5701 76.296C44.6181 76.104 44.6581 75.896 44.6901 75.672L44.9301 73.632C44.9461 73.568 44.9621 73.44 44.9781 73.248C45.0101 73.04 45.0581 72.816 45.1221 72.576C45.2021 72.32 45.2981 72.056 45.4101 71.784C45.5221 71.496 45.6741 71.24 45.8661 71.016C46.2021 70.6 46.5701 70.312 46.9701 70.152C47.3861 69.992 47.8741 69.912 48.4341 69.912H48.4581V72.216H48.4101C48.2341 72.216 48.0661 72.248 47.9061 72.312C47.7621 72.36 47.6261 72.456 47.4981 72.6C47.3701 72.744 47.2821 72.92 47.2341 73.128C47.2021 73.336 47.1701 73.568 47.1381 73.824L46.9221 75.816C46.9061 76.024 46.8821 76.224 46.8501 76.416C46.8181 76.592 46.7861 76.768 46.7541 76.944C46.7221 77.104 46.6821 77.232 46.6341 77.328C46.4421 77.776 46.2021 78.104 45.9141 78.312L48.1701 87H45.6741L43.8021 79.392H42.5301V87H40.0821V79.392H38.8101L36.9381 87H34.4421L36.6981 78.312C36.4101 78.104 36.1701 77.776 35.9781 77.328C35.9301 77.232 35.8901 77.104 35.8581 76.944C35.8261 76.768 35.7941 76.592 35.7621 76.416C35.7301 76.224 35.7061 76.024 35.6901 75.816L35.4741 73.824C35.4421 73.568 35.4021 73.336 35.3541 73.128C35.3221 72.92 35.2421 72.744 35.1141 72.6C34.9861 72.456 34.8421 72.36 34.6821 72.312C34.5381 72.248 34.3781 72.216 34.2021 72.216H34.1541V69.912H34.1781C34.7381 69.912 35.2181 69.992 35.6181 70.152C36.0341 70.312 36.4101 70.6 36.7461 71.016C36.9381 71.24 37.0901 71.496 37.2021 71.784C37.3141 72.056 37.4021 72.32 37.4661 72.576C37.5461 72.816 37.5941 73.04 37.6101 73.248C37.6421 73.44 37.6661 73.568 37.6821 73.632L37.9221 75.672C37.9541 75.896 37.9941 76.104 38.0421 76.296C38.0901 76.472 38.1621 76.632 38.2581 76.776C38.3701 76.92 38.5061 77.032 38.6661 77.112C38.8421 77.192 39.0741 77.232 39.3621 77.232H40.0821V69.912ZM55.5671 87V75.912H55.5191L52.3031 87H49.8551V69.912H52.3031V81.024H52.3511L55.5671 69.912H58.0151V87H55.5671ZM60.3083 87V69.912H63.8843C64.6683 69.912 65.3323 70.032 65.8763 70.272C66.4363 70.512 66.8923 70.832 67.2443 71.232C67.5963 71.632 67.8443 72.096 67.9883 72.624C68.1483 73.136 68.2283 73.672 68.2283 74.232V74.856C68.2283 75.32 68.1883 75.712 68.1083 76.032C68.0443 76.352 67.9403 76.632 67.7963 76.872C67.5243 77.32 67.1083 77.704 66.5483 78.024C67.1243 78.296 67.5483 78.696 67.8203 79.224C68.0923 79.752 68.2283 80.472 68.2283 81.384V82.344C68.2283 83.848 67.8603 85 67.1243 85.8C66.4043 86.6 65.2443 87 63.6443 87H60.3083ZM62.7563 79.08V84.552H63.8123C64.3083 84.552 64.6923 84.48 64.9643 84.336C65.2523 84.192 65.4683 83.992 65.6123 83.736C65.7563 83.48 65.8443 83.176 65.8763 82.824C65.9083 82.472 65.9243 82.088 65.9243 81.672C65.9243 81.24 65.9003 80.864 65.8523 80.544C65.8043 80.224 65.7083 79.952 65.5643 79.728C65.4043 79.504 65.1883 79.344 64.9163 79.248C64.6443 79.136 64.2843 79.08 63.8363 79.08H62.7563ZM62.7563 72.216V76.92H63.8603C64.6763 76.92 65.2203 76.72 65.4922 76.32C65.7803 75.904 65.9243 75.304 65.9243 74.52C65.9243 73.752 65.7643 73.176 65.4443 72.792C65.1403 72.408 64.5803 72.216 63.7643 72.216H62.7563ZM70.383 73.944C70.383 73.256 70.503 72.648 70.743 72.12C70.983 71.592 71.303 71.152 71.703 70.8C72.087 70.464 72.519 70.208 72.999 70.032C73.495 69.856 73.991 69.768 74.487 69.768C74.983 69.768 75.471 69.856 75.951 70.032C76.447 70.208 76.895 70.464 77.295 70.8C77.679 71.152 77.991 71.592 78.231 72.12C78.471 72.648 78.591 73.256 78.591 73.944V82.968C78.591 83.688 78.471 84.304 78.231 84.816C77.991 85.328 77.679 85.752 77.295 86.088C76.895 86.44 76.447 86.704 75.951 86.88C75.471 87.056 74.983 87.144 74.487 87.144C73.991 87.144 73.495 87.056 72.999 86.88C72.519 86.704 72.087 86.44 71.703 86.088C71.303 85.752 70.983 85.328 70.743 84.816C70.503 84.304 70.383 83.688 70.383 82.968V73.944ZM72.831 82.968C72.831 83.56 72.991 84 73.311 84.288C73.647 84.56 74.039 84.696 74.487 84.696C74.935 84.696 75.319 84.56 75.639 84.288C75.975 84 76.143 83.56 76.143 82.968V73.944C76.143 73.352 75.975 72.92 75.639 72.648C75.319 72.36 74.935 72.216 74.487 72.216C74.039 72.216 73.647 72.36 73.311 72.648C72.991 72.92 72.831 73.352 72.831 73.944V82.968ZM82.1194 87V72.216H79.2874V69.912H87.3994V72.216H84.5674V87H82.1194ZM88.4801 87V69.912H90.9281V77.232H93.9521V69.912H96.4001V87H93.9521V79.392H90.9281V87H88.4801ZM98.6989 69.912H101.147V76.92H102.059C102.907 76.92 103.611 77.04 104.171 77.28C104.747 77.504 105.211 77.824 105.563 78.24C105.931 78.688 106.163 79.168 106.259 79.68C106.355 80.192 106.411 80.76 106.427 81.384V82.344C106.427 83.848 106.059 85 105.323 85.8C104.603 86.6 103.443 87 101.843 87H98.6989V69.912ZM101.147 79.08V84.552H102.011C102.507 84.552 102.891 84.48 103.163 84.336C103.451 84.192 103.667 83.992 103.811 83.736C103.955 83.48 104.043 83.176 104.075 82.824C104.107 82.472 104.123 82.088 104.123 81.672C104.123 81.24 104.099 80.872 104.051 80.568C104.003 80.264 103.907 80 103.763 79.776C103.603 79.552 103.387 79.384 103.115 79.272C102.843 79.144 102.483 79.08 102.035 79.08H101.147ZM107.675 87V69.912H110.123V87H107.675ZM111.233 87L114.689 78.048L111.497 69.912H114.089L115.937 74.976L117.809 69.912H120.401L117.137 78.048L120.665 87H118.073L115.937 81.24L113.825 87H111.233ZM121.617 88.776V84.552H124.065V87L121.617 88.776ZM130.668 87V69.912H133.116V77.232H136.14V69.912H138.588V87H136.14V79.392H133.116V87H130.668ZM145.83 81.024L144.63 74.832H144.582L143.382 81.024H145.83ZM139.782 87L143.598 69.912H145.638L149.454 87H147.006L146.286 83.328H142.95L142.23 87H139.782ZM150.66 87V69.912H154.332C155.004 69.912 155.596 70 156.108 70.176C156.62 70.352 157.084 70.664 157.5 71.112C157.916 71.56 158.204 72.088 158.364 72.696C158.524 73.288 158.604 74.096 158.604 75.12C158.604 75.888 158.556 76.536 158.46 77.064C158.38 77.592 158.196 78.088 157.908 78.552C157.572 79.112 157.124 79.552 156.564 79.872C156.004 80.176 155.268 80.328 154.356 80.328H153.108V87H150.66ZM153.108 72.216V78.024H154.284C154.78 78.024 155.164 77.952 155.436 77.808C155.708 77.664 155.908 77.464 156.036 77.208C156.164 76.968 156.236 76.672 156.252 76.32C156.284 75.968 156.3 75.576 156.3 75.144C156.3 74.744 156.292 74.368 156.276 74.016C156.26 73.648 156.188 73.328 156.06 73.056C155.932 72.784 155.74 72.576 155.484 72.432C155.228 72.288 154.86 72.216 154.38 72.216H153.108ZM160.433 87V69.912H167.729V72.216H162.881V77.232H167.105V79.536H162.881V84.552H167.729V87H160.433ZM169.004 74.232C169.004 73.752 169.1 73.208 169.292 72.6C169.5 71.992 169.812 71.472 170.228 71.04C170.596 70.672 171.012 70.368 171.476 70.128C171.94 69.888 172.476 69.768 173.084 69.768C173.804 69.768 174.42 69.896 174.932 70.152C175.46 70.392 175.892 70.72 176.228 71.136C176.58 71.552 176.836 72.048 176.996 72.624C177.156 73.2 177.236 73.808 177.236 74.448C177.236 74.768 177.228 75.096 177.212 75.432C177.196 75.752 177.132 76.08 177.02 76.416C176.924 76.736 176.756 77.04 176.516 77.328C176.292 77.616 175.964 77.88 175.532 78.12C175.964 78.296 176.292 78.528 176.516 78.816C176.756 79.088 176.924 79.4 177.02 79.752C177.132 80.088 177.196 80.464 177.212 80.88C177.228 81.28 177.236 81.696 177.236 82.128C177.236 82.848 177.156 83.52 176.996 84.144C176.852 84.768 176.604 85.288 176.252 85.704C175.9 86.12 175.452 86.464 174.908 86.736C174.38 87.008 173.724 87.144 172.94 87.144C172.348 87.144 171.796 87.04 171.284 86.832C170.772 86.624 170.332 86.336 169.964 85.968C169.596 85.6 169.316 85.128 169.124 84.552C168.932 83.976 168.836 83.4 168.836 82.824V82.176H171.284L171.308 82.848C171.308 83.072 171.332 83.296 171.38 83.52C171.444 83.728 171.54 83.92 171.668 84.096C171.796 84.272 171.964 84.416 172.172 84.528C172.38 84.64 172.644 84.696 172.964 84.696C173.684 84.696 174.164 84.472 174.404 84.024C174.66 83.56 174.788 82.936 174.788 82.152C174.788 81.704 174.772 81.288 174.74 80.904C174.708 80.504 174.628 80.192 174.5 79.968C174.212 79.472 173.732 79.224 173.06 79.224H172.124V77.064H173.132C173.436 77.064 173.708 77.008 173.948 76.896C174.188 76.784 174.38 76.592 174.524 76.32C174.652 76.064 174.724 75.76 174.74 75.408C174.772 75.056 174.788 74.744 174.788 74.472C174.788 74.184 174.764 73.904 174.716 73.632C174.668 73.344 174.58 73.096 174.452 72.888C174.324 72.696 174.148 72.536 173.924 72.408C173.716 72.28 173.444 72.216 173.108 72.216C172.804 72.216 172.548 72.272 172.34 72.384C172.148 72.496 171.988 72.64 171.86 72.816C171.716 73.008 171.612 73.256 171.548 73.56C171.484 73.864 171.452 74.16 171.452 74.448V74.832H169.004V74.232ZM184.034 81.024L182.834 74.832H182.786L181.586 81.024H184.034ZM177.986 87L181.802 69.912H183.842L187.658 87H185.21L184.49 83.328H181.154L180.434 87H177.986ZM188.863 87V69.912H196.159V72.216H191.311V77.232H195.535V79.536H191.311V84.552H196.159V87H188.863ZM197.746 87V69.912H200.098L203.242 78.96H203.29L206.41 69.912H208.786V87H206.338V76.608H206.29L203.866 83.952H202.642L200.242 76.608H200.194V87H197.746ZM221.247 87V75.912H221.199L217.983 87H215.535V69.912H217.983V81.024H218.031L221.247 69.912H223.695V87H221.247ZM230.729 84.696C230.953 84.696 231.209 84.672 231.497 84.624C231.785 84.576 232.009 84.472 232.169 84.312C232.297 84.184 232.433 83.984 232.577 83.712C232.737 83.424 232.881 83.024 233.009 82.512L233.225 81.576L229.529 69.912H232.121L234.425 77.952H234.473L236.273 69.912H238.865L235.313 82.896C235.089 83.68 234.849 84.376 234.593 84.984C234.337 85.592 233.977 86.08 233.513 86.448C233.129 86.768 232.721 86.96 232.289 87.024C231.873 87.104 231.409 87.144 230.897 87.144H230.561V84.696H230.729ZM240.168 87V69.912H247.968V87H245.52V72.072H242.616V87H240.168ZM255.213 81.024L254.013 74.832H253.965L252.765 81.024H255.213ZM249.165 87L252.981 69.912H255.021L258.837 87H256.389L255.669 83.328H252.333L251.613 87H249.165ZM268.587 72.216C268.363 72.216 268.179 72.248 268.035 72.312C267.891 72.36 267.755 72.456 267.627 72.6C267.499 72.744 267.411 72.92 267.363 73.128C267.315 73.336 267.275 73.568 267.243 73.824L267.027 75.816C267.011 76.024 266.987 76.216 266.955 76.392C266.923 76.552 266.891 76.72 266.859 76.896C266.827 77.056 266.779 77.2 266.715 77.328C266.619 77.552 266.499 77.752 266.355 77.928C266.227 78.088 266.099 78.216 265.971 78.312L268.515 87H266.019L263.859 79.392H262.491V87H260.043V69.912H262.491V77.232H263.307C263.595 77.232 263.827 77.192 264.003 77.112C264.179 77.032 264.323 76.92 264.435 76.776C264.547 76.632 264.627 76.472 264.675 76.296C264.723 76.104 264.763 75.896 264.795 75.672L265.035 73.632C265.051 73.568 265.067 73.44 265.083 73.248C265.115 73.04 265.163 72.808 265.227 72.552C265.291 72.296 265.379 72.032 265.491 71.76C265.603 71.488 265.747 71.232 265.923 70.992C266.227 70.608 266.595 70.336 267.027 70.176C267.475 70 267.995 69.912 268.587 69.912V72.216ZM269.836 73.944C269.836 73.256 269.956 72.648 270.196 72.12C270.436 71.592 270.756 71.152 271.156 70.8C271.54 70.464 271.972 70.208 272.452 70.032C272.948 69.856 273.444 69.768 273.94 69.768C274.436 69.768 274.924 69.856 275.404 70.032C275.9 70.208 276.348 70.464 276.748 70.8C277.132 71.152 277.444 71.592 277.684 72.12C277.924 72.648 278.044 73.256 278.044 73.944V82.968C278.044 83.688 277.924 84.304 277.684 84.816C277.444 85.328 277.132 85.752 276.748 86.088C276.348 86.44 275.9 86.704 275.404 86.88C274.924 87.056 274.436 87.144 273.94 87.144C273.444 87.144 272.948 87.056 272.452 86.88C271.972 86.704 271.54 86.44 271.156 86.088C270.756 85.752 270.436 85.328 270.196 84.816C269.956 84.304 269.836 83.688 269.836 82.968V73.944ZM272.284 82.968C272.284 83.56 272.444 84 272.764 84.288C273.1 84.56 273.492 84.696 273.94 84.696C274.388 84.696 274.772 84.56 275.092 84.288C275.428 84 275.596 83.56 275.596 82.968V73.944C275.596 73.352 275.428 72.92 275.092 72.648C274.772 72.36 274.388 72.216 273.94 72.216C273.492 72.216 273.1 72.36 272.764 72.648C272.444 72.92 272.284 73.352 272.284 73.944V82.968ZM280.199 87V69.912H283.775C284.559 69.912 285.223 70.032 285.767 70.272C286.327 70.512 286.783 70.832 287.135 71.232C287.487 71.632 287.735 72.096 287.879 72.624C288.039 73.136 288.119 73.672 288.119 74.232V74.856C288.119 75.32 288.079 75.712 287.999 76.032C287.935 76.352 287.831 76.632 287.687 76.872C287.415 77.32 286.999 77.704 286.439 78.024C287.015 78.296 287.439 78.696 287.711 79.224C287.983 79.752 288.119 80.472 288.119 81.384V82.344C288.119 83.848 287.751 85 287.015 85.8C286.295 86.6 285.135 87 283.535 87H280.199ZM282.647 79.08V84.552H283.703C284.199 84.552 284.583 84.48 284.855 84.336C285.143 84.192 285.359 83.992 285.503 83.736C285.647 83.48 285.735 83.176 285.767 82.824C285.799 82.472 285.815 82.088 285.815 81.672C285.815 81.24 285.791 80.864 285.743 80.544C285.695 80.224 285.599 79.952 285.455 79.728C285.295 79.504 285.079 79.344 284.807 79.248C284.535 79.136 284.175 79.08 283.727 79.08H282.647ZM282.647 72.216V76.92H283.751C284.567 76.92 285.111 76.72 285.383 76.32C285.671 75.904 285.815 75.304 285.815 74.52C285.815 73.752 285.655 73.176 285.335 72.792C285.031 72.408 284.471 72.216 283.655 72.216H282.647ZM290.418 69.912H292.866V76.92H293.778C294.626 76.92 295.33 77.04 295.89 77.28C296.466 77.504 296.93 77.824 297.282 78.24C297.65 78.688 297.882 79.168 297.978 79.68C298.074 80.192 298.13 80.76 298.146 81.384V82.344C298.146 83.848 297.778 85 297.042 85.8C296.322 86.6 295.162 87 293.562 87H290.418V69.912ZM292.866 79.08V84.552H293.73C294.226 84.552 294.61 84.48 294.882 84.336C295.17 84.192 295.386 83.992 295.53 83.736C295.674 83.48 295.762 83.176 295.794 82.824C295.826 82.472 295.842 82.088 295.842 81.672C295.842 81.24 295.818 80.872 295.77 80.568C295.722 80.264 295.626 80 295.482 79.776C295.322 79.552 295.106 79.384 294.834 79.272C294.562 79.144 294.202 79.08 293.754 79.08H292.866ZM299.394 87V69.912H301.842V87H299.394ZM304.152 87V69.912H307.728C308.512 69.912 309.176 70.032 309.72 70.272C310.28 70.512 310.736 70.832 311.088 71.232C311.44 71.632 311.688 72.096 311.832 72.624C311.992 73.136 312.072 73.672 312.072 74.232V74.856C312.072 75.32 312.032 75.712 311.952 76.032C311.888 76.352 311.784 76.632 311.64 76.872C311.368 77.32 310.952 77.704 310.392 78.024C310.968 78.296 311.392 78.696 311.664 79.224C311.936 79.752 312.072 80.472 312.072 81.384V82.344C312.072 83.848 311.704 85 310.968 85.8C310.248 86.6 309.088 87 307.488 87H304.152ZM306.6 79.08V84.552H307.656C308.152 84.552 308.536 84.48 308.808 84.336C309.096 84.192 309.312 83.992 309.456 83.736C309.6 83.48 309.688 83.176 309.72 82.824C309.752 82.472 309.768 82.088 309.768 81.672C309.768 81.24 309.744 80.864 309.696 80.544C309.648 80.224 309.552 79.952 309.408 79.728C309.248 79.504 309.032 79.344 308.76 79.248C308.488 79.136 308.128 79.08 307.68 79.08H306.6ZM306.6 72.216V76.92H307.704C308.52 76.92 309.064 76.72 309.336 76.32C309.624 75.904 309.768 75.304 309.768 74.52C309.768 73.752 309.608 73.176 309.288 72.792C308.984 72.408 308.424 72.216 307.608 72.216H306.6ZM318.846 81.024L317.646 74.832H317.598L316.398 81.024H318.846ZM312.798 87L316.614 69.912H318.654L322.47 87H320.022L319.302 83.328H315.966L315.246 87H312.798ZM323.675 87V69.912H330.971V72.216H326.123V77.232H330.347V79.536H326.123V84.552H330.971V87H323.675ZM332.558 87V69.912H334.91L338.054 78.96H338.102L341.222 69.912H343.598V87H341.15V76.608H341.102L338.678 83.952H337.454L335.054 76.608H335.006V87H332.558ZM172.969 119V116.552H175.417V119H172.969ZM213.191 119V101.912H220.487V104.216H215.639V109.232H219.863V111.536H215.639V116.552H220.487V119H213.191ZM222.074 119V101.912H225.65C226.434 101.912 227.098 102.032 227.642 102.272C228.202 102.512 228.658 102.832 229.01 103.232C229.362 103.632 229.61 104.096 229.754 104.624C229.914 105.136 229.994 105.672 229.994 106.232V106.856C229.994 107.32 229.954 107.712 229.874 108.032C229.81 108.352 229.706 108.632 229.562 108.872C229.29 109.32 228.874 109.704 228.314 110.024C228.89 110.296 229.314 110.696 229.586 111.224C229.858 111.752 229.994 112.472 229.994 113.384V114.344C229.994 115.848 229.626 117 228.89 117.8C228.17 118.6 227.01 119 225.41 119H222.074ZM224.522 111.08V116.552H225.578C226.074 116.552 226.458 116.48 226.73 116.336C227.018 116.192 227.234 115.992 227.378 115.736C227.522 115.48 227.61 115.176 227.642 114.824C227.674 114.472 227.69 114.088 227.69 113.672C227.69 113.24 227.666 112.864 227.618 112.544C227.57 112.224 227.474 111.952 227.33 111.728C227.17 111.504 226.954 111.344 226.682 111.248C226.41 111.136 226.05 111.08 225.602 111.08H224.522ZM224.522 104.216V108.92H225.626C226.442 108.92 226.986 108.72 227.258 108.32C227.546 107.904 227.69 107.304 227.69 106.52C227.69 105.752 227.53 105.176 227.21 104.792C226.906 104.408 226.346 104.216 225.53 104.216H224.522ZM232.293 119V101.912H235.965C236.637 101.912 237.229 102 237.741 102.176C238.253 102.352 238.717 102.664 239.133 103.112C239.549 103.56 239.837 104.088 239.997 104.696C240.157 105.288 240.237 106.096 240.237 107.12C240.237 107.888 240.189 108.536 240.093 109.064C240.013 109.592 239.829 110.088 239.541 110.552C239.205 111.112 238.757 111.552 238.197 111.872C237.637 112.176 236.901 112.328 235.989 112.328H234.741V119H232.293ZM234.741 104.216V110.024H235.917C236.413 110.024 236.797 109.952 237.069 109.808C237.341 109.664 237.541 109.464 237.669 109.208C237.797 108.968 237.869 108.672 237.885 108.32C237.917 107.968 237.933 107.576 237.933 107.144C237.933 106.744 237.925 106.368 237.909 106.016C237.893 105.648 237.821 105.328 237.693 105.056C237.565 104.784 237.373 104.576 237.117 104.432C236.861 104.288 236.493 104.216 236.013 104.216H234.741ZM241.922 105.944C241.922 105.256 242.042 104.648 242.282 104.12C242.522 103.592 242.842 103.152 243.242 102.8C243.626 102.464 244.058 102.208 244.538 102.032C245.034 101.856 245.53 101.768 246.026 101.768C246.522 101.768 247.01 101.856 247.49 102.032C247.986 102.208 248.434 102.464 248.834 102.8C249.218 103.152 249.53 103.592 249.77 104.12C250.01 104.648 250.13 105.256 250.13 105.944V114.968C250.13 115.688 250.01 116.304 249.77 116.816C249.53 117.328 249.218 117.752 248.834 118.088C248.434 118.44 247.986 118.704 247.49 118.88C247.01 119.056 246.522 119.144 246.026 119.144C245.53 119.144 245.034 119.056 244.538 118.88C244.058 118.704 243.626 118.44 243.242 118.088C242.842 117.752 242.522 117.328 242.282 116.816C242.042 116.304 241.922 115.688 241.922 114.968V105.944ZM244.37 114.968C244.37 115.56 244.53 116 244.85 116.288C245.186 116.56 245.578 116.696 246.026 116.696C246.474 116.696 246.858 116.56 247.178 116.288C247.514 116 247.682 115.56 247.682 114.968V105.944C247.682 105.352 247.514 104.92 247.178 104.648C246.858 104.36 246.474 104.216 246.026 104.216C245.578 104.216 245.186 104.36 244.85 104.648C244.53 104.92 244.37 105.352 244.37 105.944V114.968ZM252.285 119V101.912H260.085V119H257.637V104.072H254.733V119H252.285ZM262.386 119V101.912H269.682V104.216H264.834V109.232H269.058V111.536H264.834V116.552H269.682V119H262.386ZM276.981 119V107.912H276.933L273.717 119H271.269V101.912H273.717V113.024H273.765L276.981 101.912H279.429V119H276.981ZM274.053 98.48C274.069 98.576 274.085 98.696 274.101 98.84C274.117 98.968 274.165 99.104 274.245 99.248C274.341 99.376 274.469 99.488 274.629 99.584C274.805 99.68 275.045 99.728 275.349 99.728C275.653 99.728 275.885 99.68 276.045 99.584C276.221 99.488 276.349 99.376 276.429 99.248C276.525 99.104 276.581 98.968 276.597 98.84C276.613 98.696 276.629 98.576 276.645 98.48H278.685C278.573 99.44 278.253 100.144 277.725 100.592C277.213 101.04 276.421 101.264 275.349 101.264C274.277 101.264 273.477 101.04 272.949 100.592C272.437 100.144 272.125 99.44 272.013 98.48H274.053ZM289.498 114.128V115.184C289.498 115.712 289.394 116.216 289.186 116.696C288.994 117.16 288.722 117.576 288.37 117.944C288.018 118.312 287.602 118.608 287.122 118.832C286.658 119.04 286.154 119.144 285.61 119.144C285.146 119.144 284.674 119.08 284.194 118.952C283.714 118.824 283.282 118.6 282.898 118.28C282.514 117.96 282.194 117.552 281.938 117.056C281.698 116.544 281.578 115.896 281.578 115.112V105.704C281.578 105.144 281.674 104.624 281.866 104.144C282.058 103.664 282.33 103.248 282.682 102.896C283.034 102.544 283.45 102.272 283.93 102.08C284.426 101.872 284.97 101.768 285.562 101.768C286.714 101.768 287.65 102.144 288.37 102.896C288.722 103.264 288.994 103.704 289.186 104.216C289.394 104.712 289.498 105.256 289.498 105.848V106.808H287.05V105.992C287.05 105.512 286.914 105.096 286.642 104.744C286.37 104.392 286.002 104.216 285.538 104.216C284.93 104.216 284.522 104.408 284.314 104.792C284.122 105.16 284.026 105.632 284.026 106.208V114.944C284.026 115.44 284.13 115.856 284.338 116.192C284.562 116.528 284.954 116.696 285.514 116.696C285.674 116.696 285.842 116.672 286.018 116.624C286.21 116.56 286.386 116.464 286.546 116.336C286.69 116.208 286.81 116.032 286.906 115.808C287.002 115.584 287.05 115.304 287.05 114.968V114.128H289.498ZM300.04 104.216C299.816 104.216 299.632 104.248 299.488 104.312C299.344 104.36 299.208 104.456 299.08 104.6C298.952 104.744 298.864 104.92 298.816 105.128C298.768 105.336 298.728 105.568 298.696 105.824L298.48 107.816C298.464 108.024 298.44 108.216 298.408 108.392C298.376 108.552 298.344 108.72 298.312 108.896C298.28 109.056 298.232 109.2 298.168 109.328C298.072 109.552 297.952 109.752 297.808 109.928C297.68 110.088 297.552 110.216 297.424 110.312L299.968 119H297.472L295.312 111.392H293.944V119H291.496V101.912H293.944V109.232H294.76C295.048 109.232 295.28 109.192 295.456 109.112C295.632 109.032 295.776 108.92 295.888 108.776C296 108.632 296.08 108.472 296.128 108.296C296.176 108.104 296.216 107.896 296.248 107.672L296.488 105.632C296.504 105.568 296.52 105.44 296.536 105.248C296.568 105.04 296.616 104.808 296.68 104.552C296.744 104.296 296.832 104.032 296.944 103.76C297.056 103.488 297.2 103.232 297.376 102.992C297.68 102.608 298.048 102.336 298.48 102.176C298.928 102 299.448 101.912 300.04 101.912V104.216ZM301.289 105.944C301.289 105.256 301.409 104.648 301.649 104.12C301.889 103.592 302.209 103.152 302.609 102.8C302.993 102.464 303.425 102.208 303.905 102.032C304.401 101.856 304.897 101.768 305.393 101.768C305.889 101.768 306.377 101.856 306.857 102.032C307.353 102.208 307.801 102.464 308.201 102.8C308.585 103.152 308.897 103.592 309.137 104.12C309.377 104.648 309.497 105.256 309.497 105.944V114.968C309.497 115.688 309.377 116.304 309.137 116.816C308.897 117.328 308.585 117.752 308.201 118.088C307.801 118.44 307.353 118.704 306.857 118.88C306.377 119.056 305.889 119.144 305.393 119.144C304.897 119.144 304.401 119.056 303.905 118.88C303.425 118.704 302.993 118.44 302.609 118.088C302.209 117.752 301.889 117.328 301.649 116.816C301.409 116.304 301.289 115.688 301.289 114.968V105.944ZM303.737 114.968C303.737 115.56 303.897 116 304.217 116.288C304.553 116.56 304.945 116.696 305.393 116.696C305.841 116.696 306.225 116.56 306.545 116.288C306.881 116 307.049 115.56 307.049 114.968V105.944C307.049 105.352 306.881 104.92 306.545 104.648C306.225 104.36 305.841 104.216 305.393 104.216C304.945 104.216 304.553 104.36 304.217 104.648C303.897 104.92 303.737 105.352 303.737 105.944V114.968ZM311.652 119V101.912H314.004L317.148 110.96H317.196L320.316 101.912H322.692V119H320.244V108.608H320.196L317.772 115.952H316.548L314.148 108.608H314.1V119H311.652ZM329.297 105.944C329.297 105.256 329.417 104.648 329.657 104.12C329.897 103.592 330.217 103.152 330.617 102.8C331.001 102.464 331.433 102.208 331.913 102.032C332.409 101.856 332.905 101.768 333.401 101.768C333.897 101.768 334.385 101.856 334.865 102.032C335.361 102.208 335.809 102.464 336.209 102.8C336.593 103.152 336.905 103.592 337.145 104.12C337.385 104.648 337.505 105.256 337.505 105.944V114.968C337.505 115.688 337.385 116.304 337.145 116.816C336.905 117.328 336.593 117.752 336.209 118.088C335.809 118.44 335.361 118.704 334.865 118.88C334.385 119.056 333.897 119.144 333.401 119.144C332.905 119.144 332.409 119.056 331.913 118.88C331.433 118.704 331.001 118.44 330.617 118.088C330.217 117.752 329.897 117.328 329.657 116.816C329.417 116.304 329.297 115.688 329.297 114.968V105.944ZM331.745 114.968C331.745 115.56 331.905 116 332.225 116.288C332.561 116.56 332.953 116.696 333.401 116.696C333.849 116.696 334.233 116.56 334.553 116.288C334.889 116 335.057 115.56 335.057 114.968V105.944C335.057 105.352 334.889 104.92 334.553 104.648C334.233 104.36 333.849 104.216 333.401 104.216C332.953 104.216 332.561 104.36 332.225 104.648C331.905 104.92 331.745 105.352 331.745 105.944V114.968ZM339.66 101.912H346.668V104.216H342.108V108.92H343.068C343.916 108.92 344.62 109.032 345.18 109.256C345.756 109.48 346.22 109.8 346.572 110.216C346.94 110.664 347.172 111.152 347.268 111.68C347.364 112.192 347.42 112.76 347.436 113.384V114.344C347.436 115.848 347.068 117 346.332 117.8C345.612 118.6 344.452 119 342.852 119H339.66V101.912ZM342.108 111.08V116.552H343.02C343.516 116.552 343.9 116.48 344.172 116.336C344.46 116.192 344.676 115.992 344.82 115.736C344.964 115.48 345.052 115.176 345.084 114.824C345.116 114.472 345.132 114.088 345.132 113.672C345.132 113.24 345.1 112.864 345.036 112.544C344.988 112.208 344.884 111.936 344.724 111.728C344.564 111.52 344.356 111.36 344.1 111.248C343.844 111.136 343.492 111.08 343.044 111.08H342.108ZM349.219 105.944C349.219 105.256 349.339 104.648 349.579 104.12C349.819 103.592 350.139 103.152 350.539 102.8C350.923 102.464 351.355 102.208 351.835 102.032C352.331 101.856 352.827 101.768 353.323 101.768C353.819 101.768 354.307 101.856 354.787 102.032C355.283 102.208 355.731 102.464 356.131 102.8C356.515 103.152 356.827 103.592 357.067 104.12C357.307 104.648 357.427 105.256 357.427 105.944V114.968C357.427 115.688 357.307 116.304 357.067 116.816C356.827 117.328 356.515 117.752 356.131 118.088C355.731 118.44 355.283 118.704 354.787 118.88C354.307 119.056 353.819 119.144 353.323 119.144C352.827 119.144 352.331 119.056 351.835 118.88C351.355 118.704 350.923 118.44 350.539 118.088C350.139 117.752 349.819 117.328 349.579 116.816C349.339 116.304 349.219 115.688 349.219 114.968V105.944ZM351.667 114.968C351.667 115.56 351.827 116 352.147 116.288C352.483 116.56 352.875 116.696 353.323 116.696C353.771 116.696 354.155 116.56 354.475 116.288C354.811 116 354.979 115.56 354.979 114.968V105.944C354.979 105.352 354.811 104.92 354.475 104.648C354.155 104.36 353.771 104.216 353.323 104.216C352.875 104.216 352.483 104.36 352.147 104.648C351.827 104.92 351.667 105.352 351.667 105.944V114.968ZM359.582 119V101.912H363.254C363.926 101.912 364.518 102 365.03 102.176C365.542 102.352 366.006 102.664 366.422 103.112C366.838 103.56 367.126 104.088 367.286 104.696C367.446 105.288 367.526 106.096 367.526 107.12C367.526 107.888 367.478 108.536 367.382 109.064C367.302 109.592 367.118 110.088 366.83 110.552C366.494 111.112 366.046 111.552 365.486 111.872C364.926 112.176 364.19 112.328 363.278 112.328H362.03V119H359.582ZM362.03 104.216V110.024H363.206C363.702 110.024 364.086 109.952 364.358 109.808C364.63 109.664 364.83 109.464 364.958 109.208C365.086 108.968 365.158 108.672 365.174 108.32C365.206 107.968 365.222 107.576 365.222 107.144C365.222 106.744 365.214 106.368 365.198 106.016C365.182 105.648 365.11 105.328 364.982 105.056C364.854 104.784 364.662 104.576 364.406 104.432C364.15 104.288 363.782 104.216 363.302 104.216H362.03ZM369.409 116.696C369.633 116.696 369.889 116.672 370.177 116.624C370.465 116.576 370.689 116.472 370.849 116.312C370.977 116.184 371.113 115.984 371.257 115.712C371.417 115.424 371.561 115.024 371.689 114.512L371.905 113.576L368.209 101.912H370.801L373.105 109.952H373.153L374.953 101.912H377.545L373.993 114.896C373.769 115.68 373.529 116.376 373.273 116.984C373.017 117.592 372.657 118.08 372.193 118.448C371.809 118.768 371.401 118.96 370.969 119.024C370.553 119.104 370.089 119.144 369.577 119.144H369.241V116.696H369.409ZM378.66 119V121.64H376.548V116.84H377.796C377.94 116.536 378.076 116.192 378.204 115.808C378.332 115.408 378.444 114.992 378.54 114.56C378.636 114.128 378.724 113.688 378.804 113.24C378.884 112.776 378.948 112.328 378.996 111.896C379.028 111.56 379.052 111.184 379.068 110.768C379.1 110.352 379.124 109.928 379.14 109.496C379.156 109.048 379.164 108.608 379.164 108.176C379.18 107.728 379.188 107.304 379.188 106.904V101.912H386.22V116.84H387.612V121.64H385.5V119H378.66ZM381.492 104.072V106.88C381.492 107.104 381.484 107.432 381.468 107.864C381.452 108.28 381.428 108.736 381.396 109.232C381.364 109.728 381.332 110.232 381.3 110.744C381.268 111.24 381.228 111.68 381.18 112.064C381.148 112.384 381.092 112.752 381.012 113.168C380.948 113.568 380.868 113.984 380.772 114.416C380.676 114.848 380.572 115.28 380.46 115.712C380.348 116.128 380.22 116.504 380.076 116.84H383.772V104.072H381.492ZM388.711 105.944C388.711 105.256 388.831 104.648 389.071 104.12C389.311 103.592 389.631 103.152 390.031 102.8C390.415 102.464 390.847 102.208 391.327 102.032C391.823 101.856 392.319 101.768 392.815 101.768C393.311 101.768 393.799 101.856 394.279 102.032C394.775 102.208 395.223 102.464 395.623 102.8C396.007 103.152 396.319 103.592 396.559 104.12C396.799 104.648 396.919 105.256 396.919 105.944V114.968C396.919 115.688 396.799 116.304 396.559 116.816C396.319 117.328 396.007 117.752 395.623 118.088C395.223 118.44 394.775 118.704 394.279 118.88C393.799 119.056 393.311 119.144 392.815 119.144C392.319 119.144 391.823 119.056 391.327 118.88C390.847 118.704 390.415 118.44 390.031 118.088C389.631 117.752 389.311 117.328 389.071 116.816C388.831 116.304 388.711 115.688 388.711 114.968V105.944ZM391.159 114.968C391.159 115.56 391.319 116 391.639 116.288C391.975 116.56 392.367 116.696 392.815 116.696C393.263 116.696 393.647 116.56 393.967 116.288C394.303 116 394.471 115.56 394.471 114.968V105.944C394.471 105.352 394.303 104.92 393.967 104.648C393.647 104.36 393.263 104.216 392.815 104.216C392.367 104.216 391.975 104.36 391.639 104.648C391.319 104.92 391.159 105.352 391.159 105.944V114.968ZM399.074 119V101.912H402.65C403.434 101.912 404.098 102.032 404.642 102.272C405.202 102.512 405.658 102.832 406.01 103.232C406.362 103.632 406.61 104.096 406.754 104.624C406.914 105.136 406.994 105.672 406.994 106.232V106.856C406.994 107.32 406.954 107.712 406.874 108.032C406.81 108.352 406.706 108.632 406.562 108.872C406.29 109.32 405.874 109.704 405.314 110.024C405.89 110.296 406.314 110.696 406.586 111.224C406.858 111.752 406.994 112.472 406.994 113.384V114.344C406.994 115.848 406.626 117 405.89 117.8C405.17 118.6 404.01 119 402.41 119H399.074ZM401.522 111.08V116.552H402.578C403.074 116.552 403.458 116.48 403.73 116.336C404.018 116.192 404.234 115.992 404.378 115.736C404.522 115.48 404.61 115.176 404.642 114.824C404.674 114.472 404.69 114.088 404.69 113.672C404.69 113.24 404.666 112.864 404.618 112.544C404.57 112.224 404.474 111.952 404.33 111.728C404.17 111.504 403.954 111.344 403.682 111.248C403.41 111.136 403.05 111.08 402.602 111.08H401.522ZM401.522 104.216V108.92H402.626C403.442 108.92 403.986 108.72 404.258 108.32C404.546 107.904 404.69 107.304 404.69 106.52C404.69 105.752 404.53 105.176 404.21 104.792C403.906 104.408 403.346 104.216 402.53 104.216H401.522ZM413.768 113.024L412.568 106.832H412.52L411.32 113.024H413.768ZM407.72 119L411.536 101.912H413.576L417.392 119H414.944L414.224 115.328H410.888L410.168 119H407.72ZM418.597 119V101.912H421.045V109.232H424.069V101.912H426.517V119H424.069V111.392H421.045V119H418.597ZM434.528 119V107.912H434.48L431.264 119H428.816V101.912H431.264V113.024H431.312L434.528 101.912H436.976V119H434.528ZM444.981 119V107.912H444.933L441.717 119H439.269V101.912H441.717V113.024H441.765L444.981 101.912H447.429V119H444.981Z" fill="#462B74"/>
<rect x="30.6223" y="101.206" width="171.165" height="34.7905" rx="17.3953" transform="rotate(-1.69121 30.6223 101.206)" stroke="#462B74" stroke-width="1.20946"/>
<path d="M42.7488 125.914L42.2445 108.833L44.6914 108.761L44.9075 116.078L47.9301 115.989L47.7141 108.672L50.161 108.6L50.6654 125.68L48.2184 125.752L47.9939 118.148L44.9712 118.237L45.1957 125.842L42.7488 125.914ZM57.7286 119.493L56.3464 113.339L56.2984 113.341L55.2816 119.565L57.7286 119.493ZM51.8596 125.645L55.1696 108.452L57.2087 108.391L61.5274 125.359L59.0804 125.432L58.2524 121.783L54.9178 121.881L54.3065 125.573L51.8596 125.645ZM74.8123 120.093L74.8435 121.149C74.859 121.676 74.77 122.183 74.5762 122.669C74.398 123.139 74.1384 123.562 73.7974 123.941C73.4564 124.319 73.0493 124.627 72.5762 124.865C72.1185 125.087 71.6178 125.206 71.074 125.222C70.6102 125.235 70.1365 125.185 69.653 125.071C69.1694 124.958 68.731 124.747 68.3377 124.438C67.9444 124.13 67.6125 123.731 67.342 123.243C67.087 122.738 66.9479 122.094 66.9248 121.31L66.6471 111.906C66.6306 111.347 66.7112 110.824 66.889 110.339C67.0667 109.853 67.3263 109.429 67.6678 109.067C68.0092 108.705 68.417 108.421 68.8912 108.215C69.3808 107.992 69.9215 107.872 70.5132 107.855C71.6647 107.821 72.6114 108.169 73.3533 108.899C73.716 109.257 74.0009 109.688 74.2079 110.195C74.4304 110.684 74.5505 111.225 74.5679 111.817L74.5963 112.776L72.1493 112.848L72.1252 112.033C72.1111 111.553 71.9629 111.141 71.6806 110.797C71.3983 110.454 71.0253 110.289 70.5615 110.302C69.9538 110.32 69.5516 110.524 69.355 110.914C69.174 111.288 69.0919 111.762 69.1089 112.338L69.3668 121.07C69.3814 121.566 69.4976 121.979 69.7155 122.308C69.9493 122.638 70.3461 122.794 70.9058 122.778C71.0658 122.773 71.233 122.744 71.4075 122.691C71.5975 122.621 71.7706 122.52 71.9267 122.387C72.0669 122.255 72.1817 122.076 72.271 121.849C72.3604 121.622 72.4001 121.341 72.3902 121.005L72.3654 120.165L74.8123 120.093ZM76.4234 111.858C76.4031 111.17 76.5051 110.559 76.7294 110.024C76.9537 109.489 77.2606 109.04 77.65 108.676C78.0239 108.329 78.4482 108.061 78.9228 107.87C79.4134 107.68 79.9066 107.577 80.4024 107.563C80.8981 107.548 81.3885 107.622 81.8735 107.783C82.3745 107.945 82.8299 108.187 83.2396 108.511C83.6338 108.852 83.9587 109.282 84.2141 109.803C84.4696 110.324 84.6075 110.928 84.6278 111.616L84.8941 120.636C84.9154 121.355 84.8136 121.975 84.5888 122.494C84.3641 123.012 84.0647 123.445 83.6908 123.793C83.3013 124.156 82.8613 124.433 82.3707 124.624C81.8961 124.814 81.411 124.916 80.9152 124.931C80.4194 124.946 79.921 124.872 79.42 124.711C78.935 124.549 78.4954 124.298 78.1012 123.958C77.6915 123.634 77.3591 123.219 77.1041 122.715C76.8491 122.21 76.711 121.598 76.6897 120.878L76.4234 111.858ZM79.1367 120.806C79.1541 121.397 79.327 121.833 79.6554 122.111C79.9993 122.373 80.3951 122.497 80.8429 122.484C81.2907 122.471 81.6706 122.324 81.9824 122.042C82.3097 121.745 82.4647 121.3 82.4472 120.708L82.1809 111.688C82.1634 111.096 81.9827 110.669 81.6389 110.407C81.3105 110.129 80.9224 109.996 80.4746 110.01C80.0268 110.023 79.6392 110.178 79.3119 110.476C79 110.757 78.8529 111.194 78.8703 111.786L79.1367 120.806ZM87.1669 124.602L86.6626 107.522L90.2371 107.416C91.0207 107.393 91.688 107.494 92.2388 107.717C92.8057 107.941 93.2709 108.247 93.6346 108.637C93.9982 109.026 94.2598 109.482 94.4193 110.006C94.5944 110.513 94.6902 111.046 94.7067 111.606L94.7251 112.23C94.7388 112.694 94.7104 113.087 94.6399 113.409C94.5853 113.731 94.4896 114.014 94.3528 114.258C94.0941 114.714 93.6896 115.11 93.1393 115.446C93.7231 115.701 94.1587 116.088 94.4462 116.608C94.7336 117.128 94.8908 117.844 94.9178 118.755L94.9461 119.715C94.9905 121.218 94.6566 122.38 93.9446 123.202C93.2485 124.023 92.1008 124.457 90.5015 124.504L87.1669 124.602ZM89.3801 116.614L89.5416 122.083L90.5972 122.052C91.093 122.037 91.4747 121.954 91.7423 121.802C92.0259 121.65 92.2359 121.443 92.3723 121.183C92.5087 120.923 92.5877 120.617 92.6093 120.264C92.6309 119.911 92.6355 119.527 92.6233 119.111C92.6105 118.679 92.5754 118.304 92.518 117.986C92.4606 117.667 92.3566 117.398 92.206 117.178C92.0395 116.959 91.8189 116.806 91.5442 116.718C91.269 116.614 90.9075 116.569 90.4597 116.582L89.3801 116.614ZM89.1776 109.753L89.3164 114.455L90.4199 114.422C91.2356 114.398 91.7734 114.182 92.0335 113.774C92.3091 113.35 92.4353 112.746 92.4122 111.962C92.3895 111.194 92.2126 110.623 91.8814 110.249C91.5662 109.874 91.0008 109.699 90.1851 109.723L89.1776 109.753ZM97.3812 124.301L96.8769 107.22L100.547 107.112C101.219 107.092 101.813 107.163 102.33 107.323C102.847 107.484 103.32 107.782 103.749 108.218C104.178 108.653 104.482 109.173 104.66 109.776C104.837 110.363 104.941 111.168 104.971 112.192C104.994 112.959 104.965 113.608 104.885 114.139C104.82 114.669 104.651 115.17 104.377 115.643C104.057 116.212 103.623 116.665 103.072 117.002C102.522 117.322 101.79 117.496 100.879 117.523L99.6313 117.559L99.8282 124.229L97.3812 124.301ZM99.3919 109.451L99.5633 115.256L100.739 115.222C101.235 115.207 101.616 115.124 101.884 114.972C102.152 114.82 102.346 114.614 102.466 114.354C102.587 114.111 102.65 113.813 102.656 113.46C102.677 113.108 102.682 112.715 102.669 112.284C102.657 111.884 102.638 111.508 102.612 111.157C102.585 110.789 102.503 110.472 102.367 110.204C102.231 109.935 102.033 109.733 101.773 109.597C101.513 109.46 101.143 109.399 100.663 109.413L99.3919 109.451ZM107.15 124.012L106.646 106.932L113.939 106.716L114.007 109.019L109.161 109.163L109.309 114.176L113.531 114.052L113.599 116.355L109.377 116.479L109.525 121.493L114.371 121.35L114.443 123.797L107.15 124.012ZM116.029 123.75L115.525 106.67L117.876 106.6L121.286 115.552L121.334 115.55L124.185 106.414L126.56 106.344L127.065 123.424L124.618 123.497L124.311 113.109L124.263 113.111L122.057 120.523L120.833 120.559L118.218 113.289L118.17 113.29L118.476 123.678L116.029 123.75ZM129.359 123.357L128.855 106.276L136.148 106.061L136.216 108.364L131.37 108.507L131.518 113.521L135.74 113.396L135.808 115.699L131.586 115.824L131.734 120.837L136.58 120.694L136.652 123.141L129.359 123.357ZM138.238 123.094L137.734 106.014L140.181 105.942L140.397 113.258L143.42 113.169L143.204 105.852L145.651 105.78L146.155 122.861L143.708 122.933L143.484 115.328L140.461 115.418L140.685 123.022L138.238 123.094ZM148.453 122.793L147.948 105.712L150.395 105.64L150.611 112.957L153.634 112.868L153.418 105.551L155.865 105.479L156.369 122.559L153.922 122.631L153.698 115.027L150.675 115.116L150.9 122.721L148.453 122.793ZM158.138 109.445C158.117 108.758 158.219 108.146 158.444 107.611C158.668 107.077 158.975 106.627 159.364 106.264C159.738 105.916 160.163 105.648 160.637 105.458C161.128 105.267 161.621 105.165 162.117 105.15C162.613 105.135 163.103 105.209 163.588 105.371C164.089 105.532 164.544 105.775 164.954 106.099C165.348 106.439 165.673 106.87 165.929 107.39C166.184 107.911 166.322 108.515 166.342 109.203L166.609 118.223C166.63 118.943 166.528 119.562 166.303 120.081C166.078 120.6 165.779 121.033 165.405 121.38C165.016 121.744 164.576 122.021 164.085 122.211C163.611 122.401 163.125 122.504 162.63 122.518C162.134 122.533 161.635 122.46 161.134 122.298C160.649 122.137 160.21 121.886 159.816 121.545C159.406 121.221 159.073 120.807 158.818 120.302C158.563 119.797 158.425 119.185 158.404 118.465L158.138 109.445ZM160.851 118.393C160.869 118.985 161.041 119.42 161.37 119.698C161.714 119.96 162.11 120.085 162.557 120.071C163.005 120.058 163.385 119.911 163.697 119.63C164.024 119.332 164.179 118.887 164.162 118.295L163.895 109.275C163.878 108.684 163.697 108.257 163.353 107.995C163.025 107.716 162.637 107.584 162.189 107.597C161.741 107.61 161.354 107.766 161.026 108.063C160.714 108.345 160.567 108.781 160.585 109.373L160.851 118.393ZM168.881 122.19L168.377 105.109L170.728 105.04L174.138 113.991L174.186 113.99L177.037 104.853L179.412 104.783L179.917 121.864L177.47 121.936L177.163 111.549L177.115 111.55L174.909 118.962L173.685 118.999L171.07 111.729L171.022 111.73L171.328 122.117L168.881 122.19Z" fill="#462B74"/>
</svg>
