<svg width="456" height="220" viewBox="0 0 456 220" fill="none" xmlns="http://www.w3.org/2000/svg">
<path d="M23.6648 5.70317C27.0683 2.0649 31.8276 0 36.8097 0L419.19 0C424.172 0 428.932 2.0649 432.335 5.70317L451.145 25.81C454.264 29.1448 456 33.5405 456 38.1069V149.809C456 154.425 454.226 158.866 451.045 162.212L432.322 181.903C428.924 185.477 424.208 187.5 419.277 187.5H334.5L351.089 217.914C351.547 218.752 350.68 219.694 349.806 219.307L278 187.5H36.8097C31.8276 187.5 27.0683 185.435 23.6648 181.797L4.85511 161.69C1.73555 158.355 0 153.96 0 149.393V38.1069C0 33.5405 1.73555 29.1448 4.85511 25.81L23.6648 5.70317Z" fill="white"/>
</svg>
