<svg width="318" height="218" viewBox="0 0 318 218" fill="none" xmlns="http://www.w3.org/2000/svg">
<path d="M318 33.797C318 23.1104 309.599 14.3118 298.924 13.8183L20.9235 0.967229C9.52744 0.440425 0 9.53765 0 20.9459V196.299C0 207.987 9.97955 217.185 21.6287 216.233L299.629 193.518C310.008 192.67 318 183.999 318 173.585V33.797Z" fill="#462B74"/>
<path d="M27.932 63.348H32.468V58.812C32.468 57.948 32.3 57.24 31.964 56.688C31.652 56.112 31.052 55.824 30.164 55.824C29.42 55.824 28.856 56.088 28.472 56.616C28.112 57.144 27.932 57.768 27.932 58.488V59.712H24.26V58.632C24.26 57.744 24.416 56.868 24.728 56.004C25.064 55.116 25.496 54.396 26.024 53.844C26.552 53.292 27.176 52.872 27.896 52.584C28.64 52.296 29.396 52.152 30.164 52.152C31.004 52.152 31.796 52.308 32.54 52.62C33.308 52.908 33.956 53.316 34.484 53.844C35.012 54.372 35.42 54.996 35.708 55.716C35.996 56.436 36.14 57.216 36.14 58.056V71.808C36.14 72.984 35.948 74.004 35.564 74.868C35.18 75.732 34.7 76.404 34.124 76.884C33.548 77.364 32.9 77.712 32.18 77.928C31.484 78.12 30.788 78.216 30.092 78.216C29.276 78.216 28.508 78.06 27.788 77.748C27.068 77.412 26.444 76.968 25.916 76.416C25.388 75.864 24.98 75.24 24.692 74.544C24.404 73.824 24.26 73.068 24.26 72.276V70.692H27.932V71.952C27.932 72.456 27.992 72.876 28.112 73.212C28.256 73.548 28.436 73.812 28.652 74.004C28.892 74.196 29.144 74.34 29.408 74.436C29.696 74.508 29.96 74.544 30.2 74.544C31.04 74.544 31.628 74.28 31.964 73.752C32.3 73.224 32.468 72.588 32.468 71.844V66.588H27.932V63.348ZM51.8442 55.824C51.5082 55.824 51.2322 55.872 51.0162 55.968C50.8002 56.04 50.5962 56.184 50.4042 56.4C50.2122 56.616 50.0802 56.88 50.0082 57.192C49.9362 57.504 49.8762 57.852 49.8282 58.236L49.5042 61.224C49.4802 61.536 49.4442 61.824 49.3962 62.088C49.3482 62.328 49.3002 62.58 49.2522 62.844C49.2042 63.084 49.1322 63.3 49.0362 63.492C48.8922 63.828 48.7122 64.128 48.4962 64.392C48.3042 64.632 48.1122 64.824 47.9202 64.968L51.7362 78H47.9922L44.7522 66.588H42.7002V78H39.0282V52.368H42.7002V63.348H43.9242C44.3562 63.348 44.7042 63.288 44.9682 63.168C45.2322 63.048 45.4482 62.88 45.6162 62.664C45.7842 62.448 45.9042 62.208 45.9762 61.944C46.0482 61.656 46.1082 61.344 46.1562 61.008L46.5162 57.948C46.5402 57.852 46.5642 57.66 46.5882 57.372C46.6362 57.06 46.7082 56.712 46.8042 56.328C46.9002 55.944 47.0322 55.548 47.2002 55.14C47.3682 54.732 47.5842 54.348 47.8482 53.988C48.3042 53.412 48.8562 53.004 49.5042 52.764C50.1762 52.5 50.9562 52.368 51.8442 52.368V55.824ZM65.2384 70.692V72.276C65.2384 73.068 65.0824 73.824 64.7704 74.544C64.4824 75.24 64.0744 75.864 63.5464 76.416C63.0184 76.968 62.3944 77.412 61.6744 77.748C60.9784 78.06 60.2224 78.216 59.4064 78.216C58.7104 78.216 58.0024 78.12 57.2824 77.928C56.5624 77.736 55.9144 77.4 55.3384 76.92C54.7624 76.44 54.2824 75.828 53.8984 75.084C53.5384 74.316 53.3584 73.344 53.3584 72.168V58.056C53.3584 57.216 53.5024 56.436 53.7904 55.716C54.0784 54.996 54.4864 54.372 55.0144 53.844C55.5424 53.316 56.1664 52.908 56.8864 52.62C57.6304 52.308 58.4464 52.152 59.3344 52.152C61.0624 52.152 62.4664 52.716 63.5464 53.844C64.0744 54.396 64.4824 55.056 64.7704 55.824C65.0824 56.568 65.2384 57.384 65.2384 58.272V59.712H61.5664V58.488C61.5664 57.768 61.3624 57.144 60.9544 56.616C60.5464 56.088 59.9944 55.824 59.2984 55.824C58.3864 55.824 57.7744 56.112 57.4624 56.688C57.1744 57.24 57.0304 57.948 57.0304 58.812V71.916C57.0304 72.66 57.1864 73.284 57.4984 73.788C57.8344 74.292 58.4224 74.544 59.2624 74.544C59.5024 74.544 59.7544 74.508 60.0184 74.436C60.3064 74.34 60.5704 74.196 60.8104 74.004C61.0264 73.812 61.2064 73.548 61.3504 73.212C61.4944 72.876 61.5664 72.456 61.5664 71.952V70.692H65.2384ZM67.8746 78V52.368H79.5746V78H75.9026V55.608H71.5466V78H67.8746ZM82.6669 78V52.368H93.6109V55.824H86.3389V63.348H92.6749V66.804H86.3389V74.328H93.6109V78H82.6669ZM95.6311 78V52.368H101.139C102.147 52.368 103.035 52.5 103.803 52.764C104.571 53.028 105.267 53.496 105.891 54.168C106.515 54.84 106.947 55.632 107.187 56.544C107.427 57.432 107.547 58.644 107.547 60.18C107.547 61.332 107.475 62.304 107.331 63.096C107.211 63.888 106.935 64.632 106.503 65.328C105.999 66.168 105.327 66.828 104.487 67.308C103.647 67.764 102.543 67.992 101.175 67.992H99.3031V78H95.6311ZM99.3031 55.824V64.536H101.067C101.811 64.536 102.387 64.428 102.795 64.212C103.203 63.996 103.503 63.696 103.695 63.312C103.887 62.952 103.995 62.508 104.019 61.98C104.067 61.452 104.091 60.864 104.091 60.216C104.091 59.616 104.079 59.052 104.055 58.524C104.031 57.972 103.923 57.492 103.731 57.084C103.539 56.676 103.251 56.364 102.867 56.148C102.483 55.932 101.931 55.824 101.211 55.824H99.3031ZM112.343 78V55.824H108.095V52.368H120.263V55.824H116.015V78H112.343ZM130.092 78V61.368H130.02L125.196 78H121.524V52.368H125.196V69.036H125.268L130.092 52.368H133.764V78H130.092ZM136.376 58.848C136.376 58.128 136.52 57.312 136.808 56.4C137.12 55.488 137.588 54.708 138.212 54.06C138.764 53.508 139.388 53.052 140.084 52.692C140.78 52.332 141.584 52.152 142.496 52.152C143.576 52.152 144.5 52.344 145.268 52.728C146.06 53.088 146.708 53.58 147.212 54.204C147.74 54.828 148.124 55.572 148.364 56.436C148.604 57.3 148.724 58.212 148.724 59.172C148.724 59.652 148.712 60.144 148.688 60.648C148.664 61.128 148.568 61.62 148.4 62.124C148.256 62.604 148.004 63.06 147.644 63.492C147.308 63.924 146.816 64.32 146.168 64.68C146.816 64.944 147.308 65.292 147.644 65.724C148.004 66.132 148.256 66.6 148.4 67.128C148.568 67.632 148.664 68.196 148.688 68.82C148.712 69.42 148.724 70.044 148.724 70.692C148.724 71.772 148.604 72.78 148.364 73.716C148.148 74.652 147.776 75.432 147.248 76.056C146.72 76.68 146.048 77.196 145.232 77.604C144.44 78.012 143.456 78.216 142.28 78.216C141.392 78.216 140.564 78.06 139.796 77.748C139.028 77.436 138.368 77.004 137.816 76.452C137.264 75.9 136.844 75.192 136.556 74.328C136.268 73.464 136.124 72.6 136.124 71.736V70.764H139.796L139.832 71.772C139.832 72.108 139.868 72.444 139.94 72.78C140.036 73.092 140.18 73.38 140.372 73.644C140.564 73.908 140.816 74.124 141.128 74.292C141.44 74.46 141.836 74.544 142.316 74.544C143.396 74.544 144.116 74.208 144.476 73.536C144.86 72.84 145.052 71.904 145.052 70.728C145.052 70.056 145.028 69.432 144.98 68.856C144.932 68.256 144.812 67.788 144.62 67.452C144.188 66.708 143.468 66.336 142.46 66.336H141.056V63.096H142.568C143.024 63.096 143.432 63.012 143.792 62.844C144.152 62.676 144.44 62.388 144.656 61.98C144.848 61.596 144.956 61.14 144.98 60.612C145.028 60.084 145.052 59.616 145.052 59.208C145.052 58.776 145.016 58.356 144.944 57.948C144.872 57.516 144.74 57.144 144.548 56.832C144.356 56.544 144.092 56.304 143.756 56.112C143.444 55.92 143.036 55.824 142.532 55.824C142.076 55.824 141.692 55.908 141.38 56.076C141.092 56.244 140.852 56.46 140.66 56.724C140.444 57.012 140.288 57.384 140.192 57.84C140.096 58.296 140.048 58.74 140.048 59.172V59.748H136.376V58.848ZM158.56 69.036L156.76 59.748H156.688L154.888 69.036H158.56ZM149.488 78L155.212 52.368H158.272L163.996 78H160.324L159.244 72.492H154.24L153.16 78H149.488Z" fill="white"/>
<path d="M22.0527 103.033H23.4746L26.332 109.527L29.1348 103.033H30.5635V113H29.0527V106.786H29.0254L26.9336 111.571H25.6758L23.5908 106.786H23.5635V113H22.0527V103.033ZM32.5459 105.904H33.9746V108.577H35.8477C36.5404 108.577 37.0964 108.78 37.5156 109.186C37.9349 109.591 38.1445 110.124 38.1445 110.785C38.1445 111.451 37.9349 111.986 37.5156 112.392C37.0964 112.797 36.5404 113 35.8477 113H32.5459V105.904ZM35.6973 111.742C36.0254 111.742 36.2806 111.656 36.4629 111.482C36.6452 111.309 36.7363 111.068 36.7363 110.758C36.7363 110.462 36.6452 110.227 36.4629 110.054C36.2806 109.881 36.0254 109.794 35.6973 109.794H33.9746V111.742H35.6973ZM39.1289 105.904H40.5576V113H39.1289V105.904ZM48.4395 113.082C47.5918 113.082 46.8558 112.797 46.2314 112.228C45.5661 111.658 45.2288 110.735 45.2197 109.459C45.238 108.16 45.5752 107.226 46.2314 106.656C46.8649 106.077 47.6009 105.797 48.4395 105.815C48.9909 105.834 49.4762 105.948 49.8955 106.157C50.3285 106.381 50.693 106.679 50.9893 107.053L49.9365 107.989C49.5765 107.502 49.098 107.253 48.501 107.244C47.2751 107.226 46.6576 107.964 46.6484 109.459C46.6576 110.94 47.2751 111.672 48.501 111.653C49.1071 111.635 49.5856 111.389 49.9365 110.915L50.9893 111.852C50.6702 112.207 50.3057 112.496 49.8955 112.72C49.4671 112.961 48.9818 113.082 48.4395 113.082ZM53.9355 113.082C53.1517 113.073 52.541 112.863 52.1035 112.453C51.6523 112.052 51.4268 111.539 51.4268 110.915C51.4268 110.318 51.6227 109.824 52.0146 109.432C52.3975 109.04 52.9717 108.835 53.7373 108.816H55.7129V108.071C55.722 107.447 55.2367 107.144 54.2568 107.162C53.9196 107.162 53.6393 107.199 53.416 107.271C53.2018 107.358 53.0332 107.504 52.9102 107.709L51.7891 106.854C52.3314 106.144 53.1312 105.797 54.1885 105.815C55.0817 105.806 55.7949 105.975 56.3281 106.321C56.8522 106.668 57.1234 107.278 57.1416 108.153V113H55.7129V112.371H55.6855C55.5534 112.613 55.3483 112.79 55.0703 112.904C54.8151 113.023 54.4368 113.082 53.9355 113.082ZM54.1133 111.742C54.7148 111.76 55.1364 111.69 55.3779 111.53C55.6012 111.38 55.7129 111.038 55.7129 110.505V109.992H54.0039C53.1654 110.01 52.7552 110.295 52.7734 110.847C52.7734 111.088 52.8805 111.293 53.0947 111.462C53.3089 111.649 53.6484 111.742 54.1133 111.742ZM58.9873 105.904H60.4023L62.5283 110.129L64.6475 105.904H66.042V113H64.6133V108.447L62.9795 111.701H62.084L60.416 108.447V113H58.9873V105.904ZM67.8877 105.904H69.3164V110.717L72.3994 105.904H73.8281V113H72.3994V108.112L69.3164 113H67.8877V105.904ZM79.0439 105.904H84.7178V113H83.2891V107.244H80.4727V113H79.0439V105.904ZM86.5635 105.904H87.9922V106.643C88.4707 106.109 89.0814 105.834 89.8242 105.815C90.6855 105.825 91.3213 106.134 91.7314 106.745C91.9365 106.978 92.071 107.271 92.1348 107.627C92.1712 107.814 92.1963 108.06 92.21 108.365C92.2282 108.666 92.2373 109.031 92.2373 109.459C92.2373 109.878 92.2282 110.238 92.21 110.539C92.1963 110.835 92.1712 111.077 92.1348 111.264C92.071 111.619 91.9365 111.918 91.7314 112.159C91.5264 112.442 91.2689 112.66 90.959 112.815C90.6536 112.975 90.2754 113.064 89.8242 113.082C89.4733 113.082 89.1475 113.002 88.8467 112.843C88.5368 112.688 88.252 112.487 87.9922 112.241V115.871H86.5635V105.904ZM89.3936 111.653C89.7217 111.653 89.9883 111.59 90.1934 111.462C90.3893 111.339 90.5283 111.17 90.6104 110.956C90.7061 110.76 90.7676 110.523 90.7949 110.245C90.804 110.113 90.8086 109.983 90.8086 109.855C90.8086 109.723 90.8086 109.591 90.8086 109.459C90.8086 109.318 90.8086 109.179 90.8086 109.042C90.8086 108.901 90.804 108.764 90.7949 108.632C90.7676 108.354 90.7061 108.117 90.6104 107.921C90.5283 107.716 90.3893 107.547 90.1934 107.415C89.9974 107.301 89.7308 107.244 89.3936 107.244C89.0745 107.244 88.8216 107.31 88.6348 107.442C88.4479 107.565 88.3044 107.739 88.2041 107.962C88.1175 108.167 88.0605 108.399 88.0332 108.659C88.0059 108.933 87.9922 109.199 87.9922 109.459C87.9922 109.71 88.0059 109.96 88.0332 110.211C88.0605 110.484 88.1175 110.724 88.2041 110.929C88.3044 111.152 88.4479 111.325 88.6348 111.448C88.8125 111.585 89.0654 111.653 89.3936 111.653ZM96.4141 113.082C95.89 113.082 95.4456 112.979 95.0811 112.774C94.721 112.588 94.4476 112.387 94.2607 112.173C93.9873 111.877 93.7913 111.537 93.6729 111.154C93.5498 110.781 93.4883 110.211 93.4883 109.445C93.4883 108.689 93.5498 108.115 93.6729 107.723C93.8005 107.322 93.9964 106.989 94.2607 106.725C94.4567 106.492 94.7301 106.283 95.0811 106.096C95.4365 105.909 95.8809 105.815 96.4141 105.815C96.9655 105.815 97.4189 105.909 97.7744 106.096C98.1162 106.283 98.3805 106.492 98.5674 106.725C98.8408 106.989 99.0413 107.322 99.1689 107.723C99.2829 108.133 99.3398 108.707 99.3398 109.445C99.3398 110.193 99.2829 110.762 99.1689 111.154C99.0413 111.546 98.8408 111.886 98.5674 112.173C98.5218 112.218 98.4717 112.271 98.417 112.33C98.3623 112.385 98.3008 112.435 98.2324 112.48C98.1048 112.594 97.9521 112.692 97.7744 112.774C97.4098 112.979 96.9564 113.082 96.4141 113.082ZM96.4141 111.653C96.6647 111.653 96.8926 111.603 97.0977 111.503C97.3027 111.407 97.4577 111.286 97.5625 111.141C97.7129 110.945 97.8063 110.74 97.8428 110.525C97.861 110.411 97.877 110.266 97.8906 110.088C97.9043 109.91 97.9111 109.701 97.9111 109.459C97.9111 109.208 97.9043 108.992 97.8906 108.81C97.877 108.627 97.861 108.475 97.8428 108.352C97.8063 108.137 97.7129 107.941 97.5625 107.764C97.4577 107.613 97.3027 107.488 97.0977 107.388C96.9108 107.292 96.6829 107.244 96.4141 107.244C96.1634 107.244 95.9401 107.292 95.7441 107.388C95.5573 107.479 95.3978 107.604 95.2656 107.764C95.1426 107.923 95.0537 108.119 94.999 108.352C94.9443 108.593 94.917 108.958 94.917 109.445C94.917 109.938 94.9443 110.298 94.999 110.525C95.0537 110.758 95.1426 110.963 95.2656 111.141C95.4069 111.286 95.5664 111.407 95.7441 111.503C95.9674 111.603 96.1908 111.653 96.4141 111.653ZM100.837 105.904H102.266V110.717L105.349 105.904H106.777V113H105.349V108.112L102.266 113H100.837V105.904ZM110.537 113.082C109.949 113.082 109.443 112.989 109.02 112.802C108.6 112.615 108.208 112.326 107.844 111.934L108.883 111.052C109.115 111.289 109.35 111.464 109.587 111.578C109.828 111.688 110.145 111.742 110.537 111.742C110.975 111.742 111.326 111.662 111.59 111.503C111.859 111.343 111.993 111.109 111.993 110.799C111.993 110.493 111.893 110.279 111.692 110.156C111.492 110.029 111.18 109.965 110.756 109.965H109.724V108.789H110.776C111.118 108.789 111.392 108.714 111.597 108.563C111.802 108.413 111.904 108.203 111.904 107.935C111.904 107.661 111.786 107.463 111.549 107.34C111.312 107.212 110.975 107.148 110.537 107.148C110.245 107.148 109.958 107.199 109.676 107.299C109.398 107.395 109.147 107.549 108.924 107.764L107.905 106.882C108.074 106.713 108.245 106.565 108.418 106.438C108.596 106.305 108.792 106.194 109.006 106.103C109.225 106.007 109.468 105.936 109.737 105.891C110.006 105.84 110.318 105.815 110.674 105.815C111.057 105.815 111.417 105.847 111.754 105.911C112.091 105.97 112.381 106.089 112.622 106.267C112.845 106.426 113.014 106.636 113.128 106.896C113.246 107.155 113.306 107.436 113.306 107.736C113.306 108.083 113.215 108.397 113.032 108.68C112.85 108.958 112.597 109.16 112.273 109.288C112.615 109.42 112.891 109.632 113.101 109.924C113.315 110.211 113.422 110.55 113.422 110.942C113.422 111.307 113.335 111.646 113.162 111.961C112.989 112.271 112.743 112.519 112.424 112.706C112.182 112.856 111.897 112.957 111.569 113.007C111.246 113.057 110.902 113.082 110.537 113.082ZM114.919 105.904H118.323C118.975 105.904 119.494 106.077 119.882 106.424C120.269 106.766 120.463 107.226 120.463 107.805C120.463 108.516 120.132 109.024 119.472 109.329C119.827 109.489 120.101 109.705 120.292 109.979C120.483 110.247 120.579 110.587 120.579 110.997C120.579 111.612 120.39 112.1 120.012 112.46C119.633 112.82 119.107 113 118.433 113H114.919V105.904ZM118.152 111.811C118.471 111.811 118.722 111.724 118.904 111.551C119.087 111.378 119.178 111.147 119.178 110.86C119.178 110.56 119.087 110.327 118.904 110.163C118.722 109.999 118.471 109.917 118.152 109.917H116.348V111.811H118.152ZM118.057 108.816C118.727 108.816 119.062 108.522 119.062 107.935C119.062 107.661 118.975 107.454 118.802 107.312C118.633 107.167 118.385 107.094 118.057 107.094H116.348V108.816H118.057ZM124.66 113.082C124.136 113.082 123.692 112.979 123.327 112.774C122.967 112.588 122.694 112.387 122.507 112.173C122.233 111.877 122.037 111.537 121.919 111.154C121.796 110.781 121.734 110.211 121.734 109.445C121.734 108.689 121.796 108.115 121.919 107.723C122.047 107.322 122.243 106.989 122.507 106.725C122.703 106.492 122.976 106.283 123.327 106.096C123.683 105.909 124.127 105.815 124.66 105.815C125.212 105.815 125.665 105.909 126.021 106.096C126.362 106.283 126.627 106.492 126.813 106.725C127.087 106.989 127.287 107.322 127.415 107.723C127.529 108.133 127.586 108.707 127.586 109.445C127.586 110.193 127.529 110.762 127.415 111.154C127.287 111.546 127.087 111.886 126.813 112.173C126.768 112.218 126.718 112.271 126.663 112.33C126.608 112.385 126.547 112.435 126.479 112.48C126.351 112.594 126.198 112.692 126.021 112.774C125.656 112.979 125.202 113.082 124.66 113.082ZM124.66 111.653C124.911 111.653 125.139 111.603 125.344 111.503C125.549 111.407 125.704 111.286 125.809 111.141C125.959 110.945 126.052 110.74 126.089 110.525C126.107 110.411 126.123 110.266 126.137 110.088C126.15 109.91 126.157 109.701 126.157 109.459C126.157 109.208 126.15 108.992 126.137 108.81C126.123 108.627 126.107 108.475 126.089 108.352C126.052 108.137 125.959 107.941 125.809 107.764C125.704 107.613 125.549 107.488 125.344 107.388C125.157 107.292 124.929 107.244 124.66 107.244C124.41 107.244 124.186 107.292 123.99 107.388C123.803 107.479 123.644 107.604 123.512 107.764C123.389 107.923 123.3 108.119 123.245 108.352C123.19 108.593 123.163 108.958 123.163 109.445C123.163 109.938 123.19 110.298 123.245 110.525C123.3 110.758 123.389 110.963 123.512 111.141C123.653 111.286 123.812 111.407 123.99 111.503C124.214 111.603 124.437 111.653 124.66 111.653ZM128.242 111.653H129.056C129.179 111.348 129.288 111.029 129.384 110.696C129.484 110.364 129.564 109.979 129.623 109.541C129.682 109.104 129.728 108.591 129.76 108.003C129.796 107.415 129.814 106.715 129.814 105.904H134.6V111.653H135.577V114.818H134.237V113H129.589V114.818H128.242V111.653ZM133.171 111.653V107.244H131.168C131.168 107.823 131.152 108.333 131.12 108.775C131.088 109.213 131.043 109.607 130.983 109.958C130.929 110.304 130.863 110.617 130.785 110.895C130.708 111.168 130.626 111.421 130.539 111.653H133.171ZM136.603 105.904H138.031V110.717L141.114 105.904H142.543V113H141.114V108.112L138.031 113H136.603V105.904ZM144.396 105.904H145.811L147.937 110.129L150.056 105.904H151.45V113H150.021V108.447L148.388 111.701H147.492L145.824 108.447V113H144.396V105.904ZM156.659 105.904H158.088V108.687H158.758C159.013 108.687 159.225 108.632 159.394 108.522C159.567 108.409 159.692 108.254 159.77 108.058L160.104 107.107C160.255 106.679 160.46 106.371 160.72 106.185C160.979 105.998 161.344 105.904 161.813 105.904H162.285V107.189H162.08C161.939 107.189 161.82 107.196 161.725 107.21C161.633 107.224 161.556 107.253 161.492 107.299C161.433 107.34 161.383 107.399 161.342 107.477C161.301 107.554 161.257 107.659 161.212 107.791L160.973 108.495C160.9 108.709 160.795 108.878 160.658 109.001C160.521 109.119 160.373 109.206 160.214 109.261C160.46 109.338 160.656 109.454 160.802 109.609C160.952 109.76 161.08 109.965 161.185 110.225L161.52 111.093C161.565 111.216 161.608 111.316 161.649 111.394C161.69 111.466 161.738 111.523 161.793 111.564C161.852 111.605 161.921 111.635 161.998 111.653C162.08 111.672 162.187 111.681 162.319 111.681H162.641V113H162.121C161.606 113 161.212 112.904 160.938 112.713C160.67 112.521 160.449 112.193 160.275 111.729L159.879 110.717C159.815 110.548 159.735 110.421 159.64 110.334C159.549 110.243 159.448 110.174 159.339 110.129C159.234 110.083 159.125 110.056 159.011 110.047C158.901 110.038 158.79 110.033 158.676 110.033H158.088V113H156.659V105.904ZM166.346 113.082C165.822 113.082 165.377 112.979 165.013 112.774C164.653 112.588 164.379 112.387 164.192 112.173C163.919 111.877 163.723 111.537 163.604 111.154C163.481 110.781 163.42 110.211 163.42 109.445C163.42 108.689 163.481 108.115 163.604 107.723C163.732 107.322 163.928 106.989 164.192 106.725C164.388 106.492 164.662 106.283 165.013 106.096C165.368 105.909 165.812 105.815 166.346 105.815C166.897 105.815 167.351 105.909 167.706 106.096C168.048 106.283 168.312 106.492 168.499 106.725C168.772 106.989 168.973 107.322 169.101 107.723C169.215 108.133 169.271 108.707 169.271 109.445C169.271 110.193 169.215 110.762 169.101 111.154C168.973 111.546 168.772 111.886 168.499 112.173C168.453 112.218 168.403 112.271 168.349 112.33C168.294 112.385 168.232 112.435 168.164 112.48C168.036 112.594 167.884 112.692 167.706 112.774C167.341 112.979 166.888 113.082 166.346 113.082ZM166.346 111.653C166.596 111.653 166.824 111.603 167.029 111.503C167.234 111.407 167.389 111.286 167.494 111.141C167.645 110.945 167.738 110.74 167.774 110.525C167.793 110.411 167.809 110.266 167.822 110.088C167.836 109.91 167.843 109.701 167.843 109.459C167.843 109.208 167.836 108.992 167.822 108.81C167.809 108.627 167.793 108.475 167.774 108.352C167.738 108.137 167.645 107.941 167.494 107.764C167.389 107.613 167.234 107.488 167.029 107.388C166.842 107.292 166.615 107.244 166.346 107.244C166.095 107.244 165.872 107.292 165.676 107.388C165.489 107.479 165.329 107.604 165.197 107.764C165.074 107.923 164.985 108.119 164.931 108.352C164.876 108.593 164.849 108.958 164.849 109.445C164.849 109.938 164.876 110.298 164.931 110.525C164.985 110.758 165.074 110.963 165.197 111.141C165.339 111.286 165.498 111.407 165.676 111.503C165.899 111.603 166.122 111.653 166.346 111.653ZM170.769 105.904H172.197V106.643C172.676 106.109 173.286 105.834 174.029 105.815C174.891 105.825 175.526 106.134 175.937 106.745C176.142 106.978 176.276 107.271 176.34 107.627C176.376 107.814 176.401 108.06 176.415 108.365C176.433 108.666 176.442 109.031 176.442 109.459C176.442 109.878 176.433 110.238 176.415 110.539C176.401 110.835 176.376 111.077 176.34 111.264C176.276 111.619 176.142 111.918 175.937 112.159C175.731 112.442 175.474 112.66 175.164 112.815C174.859 112.975 174.48 113.064 174.029 113.082C173.678 113.082 173.353 113.002 173.052 112.843C172.742 112.688 172.457 112.487 172.197 112.241V115.871H170.769V105.904ZM173.599 111.653C173.927 111.653 174.193 111.59 174.398 111.462C174.594 111.339 174.733 111.17 174.815 110.956C174.911 110.76 174.973 110.523 175 110.245C175.009 110.113 175.014 109.983 175.014 109.855C175.014 109.723 175.014 109.591 175.014 109.459C175.014 109.318 175.014 109.179 175.014 109.042C175.014 108.901 175.009 108.764 175 108.632C174.973 108.354 174.911 108.117 174.815 107.921C174.733 107.716 174.594 107.547 174.398 107.415C174.202 107.301 173.936 107.244 173.599 107.244C173.28 107.244 173.027 107.31 172.84 107.442C172.653 107.565 172.509 107.739 172.409 107.962C172.323 108.167 172.266 108.399 172.238 108.659C172.211 108.933 172.197 109.199 172.197 109.459C172.197 109.71 172.211 109.96 172.238 110.211C172.266 110.484 172.323 110.724 172.409 110.929C172.509 111.152 172.653 111.325 172.84 111.448C173.018 111.585 173.271 111.653 173.599 111.653ZM178.042 105.904H179.457L181.583 110.129L183.702 105.904H185.097V113H183.668V108.447L182.034 111.701H181.139L179.471 108.447V113H178.042V105.904ZM188.891 113.082C188.107 113.073 187.496 112.863 187.059 112.453C186.607 112.052 186.382 111.539 186.382 110.915C186.382 110.318 186.578 109.824 186.97 109.432C187.353 109.04 187.927 108.835 188.692 108.816H190.668V108.071C190.677 107.447 190.192 107.144 189.212 107.162C188.875 107.162 188.594 107.199 188.371 107.271C188.157 107.358 187.988 107.504 187.865 107.709L186.744 106.854C187.286 106.144 188.086 105.797 189.144 105.815C190.037 105.806 190.75 105.975 191.283 106.321C191.807 106.668 192.078 107.278 192.097 108.153V113H190.668V112.371H190.641C190.508 112.613 190.303 112.79 190.025 112.904C189.77 113.023 189.392 113.082 188.891 113.082ZM189.068 111.742C189.67 111.76 190.091 111.69 190.333 111.53C190.556 111.38 190.668 111.038 190.668 110.505V109.992H188.959C188.12 110.01 187.71 110.295 187.729 110.847C187.729 111.088 187.836 111.293 188.05 111.462C188.264 111.649 188.604 111.742 189.068 111.742ZM193.983 114.039V111.571H195.412V113L193.983 114.039ZM200.669 105.904H204.073C204.725 105.904 205.244 106.077 205.632 106.424C206.019 106.766 206.213 107.226 206.213 107.805C206.213 108.516 205.882 109.024 205.222 109.329C205.577 109.489 205.851 109.705 206.042 109.979C206.233 110.247 206.329 110.587 206.329 110.997C206.329 111.612 206.14 112.1 205.762 112.46C205.383 112.82 204.857 113 204.183 113H200.669V105.904ZM203.902 111.811C204.221 111.811 204.472 111.724 204.654 111.551C204.837 111.378 204.928 111.147 204.928 110.86C204.928 110.56 204.837 110.327 204.654 110.163C204.472 109.999 204.221 109.917 203.902 109.917H202.098V111.811H203.902ZM203.807 108.816C204.477 108.816 204.812 108.522 204.812 107.935C204.812 107.661 204.725 107.454 204.552 107.312C204.383 107.167 204.135 107.094 203.807 107.094H202.098V108.816H203.807ZM207.833 105.904H209.262V108.577H211.135C211.827 108.577 212.383 108.78 212.803 109.186C213.222 109.591 213.432 110.124 213.432 110.785C213.432 111.451 213.222 111.986 212.803 112.392C212.383 112.797 211.827 113 211.135 113H207.833V105.904ZM210.984 111.742C211.312 111.742 211.568 111.656 211.75 111.482C211.932 111.309 212.023 111.068 212.023 110.758C212.023 110.462 211.932 110.227 211.75 110.054C211.568 109.881 211.312 109.794 210.984 109.794H209.262V111.742H210.984ZM214.416 105.904H215.845V113H214.416V105.904ZM217.69 105.904H219.119V106.643C219.598 106.109 220.208 105.834 220.951 105.815C221.812 105.825 222.448 106.134 222.858 106.745C223.063 106.978 223.198 107.271 223.262 107.627C223.298 107.814 223.323 108.06 223.337 108.365C223.355 108.666 223.364 109.031 223.364 109.459C223.364 109.878 223.355 110.238 223.337 110.539C223.323 110.835 223.298 111.077 223.262 111.264C223.198 111.619 223.063 111.918 222.858 112.159C222.653 112.442 222.396 112.66 222.086 112.815C221.781 112.975 221.402 113.064 220.951 113.082C220.6 113.082 220.274 113.002 219.974 112.843C219.664 112.688 219.379 112.487 219.119 112.241V115.871H217.69V105.904ZM220.521 111.653C220.849 111.653 221.115 111.59 221.32 111.462C221.516 111.339 221.655 111.17 221.737 110.956C221.833 110.76 221.895 110.523 221.922 110.245C221.931 110.113 221.936 109.983 221.936 109.855C221.936 109.723 221.936 109.591 221.936 109.459C221.936 109.318 221.936 109.179 221.936 109.042C221.936 108.901 221.931 108.764 221.922 108.632C221.895 108.354 221.833 108.117 221.737 107.921C221.655 107.716 221.516 107.547 221.32 107.415C221.124 107.301 220.858 107.244 220.521 107.244C220.201 107.244 219.949 107.31 219.762 107.442C219.575 107.565 219.431 107.739 219.331 107.962C219.244 108.167 219.188 108.399 219.16 108.659C219.133 108.933 219.119 109.199 219.119 109.459C219.119 109.71 219.133 109.96 219.16 110.211C219.188 110.484 219.244 110.724 219.331 110.929C219.431 111.152 219.575 111.325 219.762 111.448C219.939 111.585 220.192 111.653 220.521 111.653ZM226.912 113.082C226.128 113.073 225.518 112.863 225.08 112.453C224.629 112.052 224.403 111.539 224.403 110.915C224.403 110.318 224.599 109.824 224.991 109.432C225.374 109.04 225.948 108.835 226.714 108.816H228.689V108.071C228.699 107.447 228.213 107.144 227.233 107.162C226.896 107.162 226.616 107.199 226.393 107.271C226.178 107.358 226.01 107.504 225.887 107.709L224.766 106.854C225.308 106.144 226.108 105.797 227.165 105.815C228.058 105.806 228.771 105.975 229.305 106.321C229.829 106.668 230.1 107.278 230.118 108.153V113H228.689V112.371H228.662C228.53 112.613 228.325 112.79 228.047 112.904C227.792 113.023 227.413 113.082 226.912 113.082ZM227.09 111.742C227.691 111.76 228.113 111.69 228.354 111.53C228.578 111.38 228.689 111.038 228.689 110.505V109.992H226.98C226.142 110.01 225.732 110.295 225.75 110.847C225.75 111.088 225.857 111.293 226.071 111.462C226.285 111.649 226.625 111.742 227.09 111.742ZM240.714 113H231.964V105.904H233.393V111.653H235.799V105.904H237.228V111.653H239.62V105.904H241.049V111.653H242.061V114.818H240.714V113ZM243.079 105.904H244.508V110.717L247.591 105.904H249.02V113H247.591V108.112L244.508 113H243.079V105.904ZM250.872 105.904H254.276C254.928 105.904 255.448 106.077 255.835 106.424C256.222 106.766 256.416 107.226 256.416 107.805C256.416 108.516 256.086 109.024 255.425 109.329C255.78 109.489 256.054 109.705 256.245 109.979C256.437 110.247 256.532 110.587 256.532 110.997C256.532 111.612 256.343 112.1 255.965 112.46C255.587 112.82 255.06 113 254.386 113H250.872V105.904ZM254.105 111.811C254.424 111.811 254.675 111.724 254.857 111.551C255.04 111.378 255.131 111.147 255.131 110.86C255.131 110.56 255.04 110.327 254.857 110.163C254.675 109.999 254.424 109.917 254.105 109.917H252.301V111.811H254.105ZM254.01 108.816C254.68 108.816 255.015 108.522 255.015 107.935C255.015 107.661 254.928 107.454 254.755 107.312C254.586 107.167 254.338 107.094 254.01 107.094H252.301V108.816H254.01ZM259.984 113.082C259.201 113.073 258.59 112.863 258.152 112.453C257.701 112.052 257.476 111.539 257.476 110.915C257.476 110.318 257.672 109.824 258.063 109.432C258.446 109.04 259.021 108.835 259.786 108.816H261.762V108.071C261.771 107.447 261.285 107.144 260.306 107.162C259.968 107.162 259.688 107.199 259.465 107.271C259.251 107.358 259.082 107.504 258.959 107.709L257.838 106.854C258.38 106.144 259.18 105.797 260.237 105.815C261.131 105.806 261.844 105.975 262.377 106.321C262.901 106.668 263.172 107.278 263.19 108.153V113H261.762V112.371H261.734C261.602 112.613 261.397 112.79 261.119 112.904C260.864 113.023 260.486 113.082 259.984 113.082ZM260.162 111.742C260.764 111.76 261.185 111.69 261.427 111.53C261.65 111.38 261.762 111.038 261.762 110.505V109.992H260.053C259.214 110.01 258.804 110.295 258.822 110.847C258.822 111.088 258.929 111.293 259.144 111.462C259.358 111.649 259.697 111.742 260.162 111.742ZM267.839 113.082C267.456 113.082 267.091 113.027 266.745 112.918C266.586 112.868 266.412 112.788 266.226 112.679C266.057 112.606 265.891 112.499 265.727 112.357C265.417 112.075 265.173 111.706 264.995 111.25C264.79 110.803 264.688 110.211 264.688 109.473C264.688 108.753 264.776 108.169 264.954 107.723C265.141 107.226 265.369 106.852 265.638 106.602C265.911 106.333 266.228 106.132 266.588 106C266.925 105.877 267.267 105.815 267.613 105.815C268.424 105.834 269.11 106.1 269.671 106.615C270.231 107.139 270.521 107.873 270.539 108.816V109.992H266.116C266.116 110.562 266.28 110.995 266.608 111.291C266.923 111.592 267.324 111.742 267.812 111.742C268.39 111.742 268.908 111.512 269.363 111.052L270.402 111.934C269.664 112.708 268.81 113.091 267.839 113.082ZM269.11 108.816C269.092 108.274 268.944 107.857 268.666 107.565C268.393 107.297 268.042 107.162 267.613 107.162C267.185 107.162 266.834 107.297 266.561 107.565C266.292 107.857 266.144 108.274 266.116 108.816H269.11ZM272.036 105.904H273.451L275.577 110.129L277.696 105.904H279.091V113H277.662V108.447L276.028 111.701H275.133L273.465 108.447V113H272.036V105.904ZM21.2119 129.681H21.5195C21.6471 129.681 21.752 129.672 21.834 129.653C21.9206 129.635 21.9912 129.605 22.0459 129.564C22.1051 129.523 22.1553 129.466 22.1963 129.394C22.2373 129.316 22.2829 129.216 22.333 129.093L22.6543 128.225C22.7546 127.965 22.8799 127.76 23.0303 127.609C23.1807 127.454 23.3766 127.338 23.6182 127.261C23.4587 127.206 23.3105 127.119 23.1738 127.001C23.0417 126.878 22.9368 126.709 22.8594 126.495L22.627 125.791C22.5768 125.659 22.5312 125.554 22.4902 125.477C22.4492 125.399 22.3968 125.34 22.333 125.299C22.2738 125.253 22.1986 125.224 22.1074 125.21C22.0208 125.196 21.9092 125.189 21.7725 125.189H21.5469V123.904H22.0391C22.4948 123.904 22.8525 123.998 23.1123 124.185C23.3766 124.371 23.5863 124.679 23.7412 125.107L24.083 126.058C24.1559 126.254 24.279 126.413 24.4521 126.536C24.6253 126.655 24.8327 126.714 25.0742 126.714H25.4639V123.904H26.8926V126.714H27.2754C27.526 126.714 27.738 126.655 27.9111 126.536C28.0843 126.413 28.2074 126.254 28.2803 126.058L28.6152 125.107C28.7747 124.679 28.9821 124.371 29.2373 124.185C29.4971 123.998 29.8594 123.904 30.3242 123.904H30.8027V125.189H30.5908C30.4495 125.189 30.3311 125.196 30.2354 125.21C30.1442 125.224 30.0713 125.253 30.0166 125.299C29.9619 125.34 29.9118 125.399 29.8662 125.477C29.8252 125.554 29.7819 125.659 29.7363 125.791L29.4834 126.495C29.4105 126.709 29.3057 126.878 29.1689 127.001C29.0322 127.119 28.8841 127.206 28.7246 127.261C28.9707 127.338 29.1667 127.454 29.3125 127.609C29.4629 127.76 29.5905 127.965 29.6953 128.225L30.0303 129.093C30.0758 129.216 30.1191 129.316 30.1602 129.394C30.2057 129.466 30.2559 129.523 30.3105 129.564C30.3652 129.605 30.4313 129.635 30.5088 129.653C30.5908 129.672 30.6979 129.681 30.8301 129.681H31.1514V131H30.6318C30.3812 131 30.1602 130.977 29.9688 130.932C29.7773 130.886 29.611 130.815 29.4697 130.72C29.3285 130.619 29.2031 130.487 29.0938 130.323C28.9889 130.159 28.891 129.961 28.7998 129.729L28.4033 128.717C28.3395 128.548 28.2598 128.421 28.1641 128.334C28.0729 128.243 27.9727 128.174 27.8633 128.129C27.7585 128.083 27.6491 128.056 27.5352 128.047C27.4258 128.038 27.3141 128.033 27.2002 128.033H26.8926V131H25.4639V128.033H25.1562C25.0469 128.033 24.9329 128.038 24.8145 128.047C24.696 128.056 24.582 128.083 24.4727 128.129C24.3678 128.174 24.2676 128.243 24.1719 128.334C24.0807 128.421 24.0033 128.548 23.9395 128.717L23.5635 129.729C23.4678 129.961 23.3652 130.159 23.2559 130.323C23.151 130.487 23.0257 130.619 22.8799 130.72C22.7386 130.815 22.5745 130.886 22.3877 130.932C22.2008 130.977 21.9798 131 21.7246 131H21.2119V129.681ZM32.2861 123.904H33.7148V128.717L36.7979 123.904H38.2266V131H36.7979V126.112L33.7148 131H32.2861V123.904ZM40.0791 123.904H43.4834C44.1351 123.904 44.6546 124.077 45.042 124.424C45.4294 124.766 45.623 125.226 45.623 125.805C45.623 126.516 45.2926 127.024 44.6318 127.329C44.9873 127.489 45.2607 127.705 45.4521 127.979C45.6436 128.247 45.7393 128.587 45.7393 128.997C45.7393 129.612 45.5501 130.1 45.1719 130.46C44.7936 130.82 44.2673 131 43.5928 131H40.0791V123.904ZM43.3125 129.811C43.6315 129.811 43.8822 129.724 44.0645 129.551C44.2467 129.378 44.3379 129.147 44.3379 128.86C44.3379 128.56 44.2467 128.327 44.0645 128.163C43.8822 127.999 43.6315 127.917 43.3125 127.917H41.5078V129.811H43.3125ZM43.2168 126.816C43.8867 126.816 44.2217 126.522 44.2217 125.935C44.2217 125.661 44.1351 125.454 43.9619 125.312C43.7933 125.167 43.5449 125.094 43.2168 125.094H41.5078V126.816H43.2168ZM49.8203 131.082C49.2962 131.082 48.8519 130.979 48.4873 130.774C48.1273 130.588 47.8538 130.387 47.667 130.173C47.3936 129.877 47.1976 129.537 47.0791 129.154C46.9561 128.781 46.8945 128.211 46.8945 127.445C46.8945 126.689 46.9561 126.115 47.0791 125.723C47.2067 125.322 47.4027 124.989 47.667 124.725C47.863 124.492 48.1364 124.283 48.4873 124.096C48.8428 123.909 49.2871 123.815 49.8203 123.815C50.3717 123.815 50.8252 123.909 51.1807 124.096C51.5225 124.283 51.7868 124.492 51.9736 124.725C52.2471 124.989 52.4476 125.322 52.5752 125.723C52.6891 126.133 52.7461 126.707 52.7461 127.445C52.7461 128.193 52.6891 128.762 52.5752 129.154C52.4476 129.546 52.2471 129.886 51.9736 130.173C51.9281 130.218 51.8779 130.271 51.8232 130.33C51.7686 130.385 51.707 130.435 51.6387 130.48C51.5111 130.594 51.3584 130.692 51.1807 130.774C50.8161 130.979 50.3626 131.082 49.8203 131.082ZM49.8203 129.653C50.071 129.653 50.2988 129.603 50.5039 129.503C50.709 129.407 50.8639 129.286 50.9688 129.141C51.1191 128.945 51.2126 128.74 51.249 128.525C51.2673 128.411 51.2832 128.266 51.2969 128.088C51.3105 127.91 51.3174 127.701 51.3174 127.459C51.3174 127.208 51.3105 126.992 51.2969 126.81C51.2832 126.627 51.2673 126.475 51.249 126.352C51.2126 126.137 51.1191 125.941 50.9688 125.764C50.8639 125.613 50.709 125.488 50.5039 125.388C50.3171 125.292 50.0892 125.244 49.8203 125.244C49.5697 125.244 49.3464 125.292 49.1504 125.388C48.9635 125.479 48.804 125.604 48.6719 125.764C48.5488 125.923 48.46 126.119 48.4053 126.352C48.3506 126.593 48.3232 126.958 48.3232 127.445C48.3232 127.938 48.3506 128.298 48.4053 128.525C48.46 128.758 48.5488 128.963 48.6719 129.141C48.8132 129.286 48.9727 129.407 49.1504 129.503C49.3737 129.603 49.597 129.653 49.8203 129.653ZM55.6582 125.244H53.4775V123.904H59.1855V125.244H57.0869V131H55.6582V125.244ZM60.2725 123.904H61.7012V126.673H64.5176V123.904H65.9463V131H64.5176V128.02H61.7012V131H60.2725V123.904ZM67.792 123.904H69.2207V126.577H71.0938C71.7865 126.577 72.3424 126.78 72.7617 127.186C73.181 127.591 73.3906 128.124 73.3906 128.785C73.3906 129.451 73.181 129.986 72.7617 130.392C72.3424 130.797 71.7865 131 71.0938 131H67.792V123.904ZM70.9434 129.742C71.2715 129.742 71.5267 129.656 71.709 129.482C71.8913 129.309 71.9824 129.068 71.9824 128.758C71.9824 128.462 71.8913 128.227 71.709 128.054C71.5267 127.881 71.2715 127.794 70.9434 127.794H69.2207V129.742H70.9434ZM74.375 123.904H75.8037V131H74.375V123.904ZM79.29 127.377L76.9658 123.904H78.6748L80.0898 126.201L81.498 123.904H83.207L80.8828 127.377L83.3096 131H81.6006L80.0898 128.635L78.5723 131H76.8633L79.29 127.377ZM87.7393 123.904H89.168V128.717L92.251 123.904H93.6797V131H92.251V126.112L89.168 131H87.7393V123.904ZM98.8955 123.904H100.324V124.643C100.803 124.109 101.413 123.834 102.156 123.815C103.018 123.825 103.653 124.134 104.063 124.745C104.269 124.978 104.403 125.271 104.467 125.627C104.503 125.814 104.528 126.06 104.542 126.365C104.56 126.666 104.569 127.031 104.569 127.459C104.569 127.878 104.56 128.238 104.542 128.539C104.528 128.835 104.503 129.077 104.467 129.264C104.403 129.619 104.269 129.918 104.063 130.159C103.858 130.442 103.601 130.66 103.291 130.815C102.986 130.975 102.607 131.064 102.156 131.082C101.805 131.082 101.479 131.002 101.179 130.843C100.869 130.688 100.584 130.487 100.324 130.241V133.871H98.8955V123.904ZM101.726 129.653C102.054 129.653 102.32 129.59 102.525 129.462C102.721 129.339 102.86 129.17 102.942 128.956C103.038 128.76 103.1 128.523 103.127 128.245C103.136 128.113 103.141 127.983 103.141 127.855C103.141 127.723 103.141 127.591 103.141 127.459C103.141 127.318 103.141 127.179 103.141 127.042C103.141 126.901 103.136 126.764 103.127 126.632C103.1 126.354 103.038 126.117 102.942 125.921C102.86 125.716 102.721 125.547 102.525 125.415C102.329 125.301 102.063 125.244 101.726 125.244C101.407 125.244 101.154 125.31 100.967 125.442C100.78 125.565 100.636 125.739 100.536 125.962C100.45 126.167 100.393 126.399 100.365 126.659C100.338 126.933 100.324 127.199 100.324 127.459C100.324 127.71 100.338 127.96 100.365 128.211C100.393 128.484 100.45 128.724 100.536 128.929C100.636 129.152 100.78 129.325 100.967 129.448C101.145 129.585 101.397 129.653 101.726 129.653ZM108.117 131.082C107.333 131.073 106.723 130.863 106.285 130.453C105.834 130.052 105.608 129.539 105.608 128.915C105.608 128.318 105.804 127.824 106.196 127.432C106.579 127.04 107.153 126.835 107.919 126.816H109.895V126.071C109.904 125.447 109.418 125.144 108.438 125.162C108.101 125.162 107.821 125.199 107.598 125.271C107.383 125.358 107.215 125.504 107.092 125.709L105.971 124.854C106.513 124.144 107.313 123.797 108.37 123.815C109.263 123.806 109.977 123.975 110.51 124.321C111.034 124.668 111.305 125.278 111.323 126.153V131H109.895V130.371H109.867C109.735 130.613 109.53 130.79 109.252 130.904C108.997 131.023 108.618 131.082 108.117 131.082ZM108.295 129.742C108.896 129.76 109.318 129.69 109.56 129.53C109.783 129.38 109.895 129.038 109.895 128.505V127.992H108.186C107.347 128.01 106.937 128.295 106.955 128.847C106.955 129.088 107.062 129.293 107.276 129.462C107.491 129.649 107.83 129.742 108.295 129.742ZM115.076 131.082C114.488 131.082 113.982 130.989 113.559 130.802C113.139 130.615 112.747 130.326 112.383 129.934L113.422 129.052C113.654 129.289 113.889 129.464 114.126 129.578C114.368 129.688 114.684 129.742 115.076 129.742C115.514 129.742 115.865 129.662 116.129 129.503C116.398 129.343 116.532 129.109 116.532 128.799C116.532 128.493 116.432 128.279 116.231 128.156C116.031 128.029 115.719 127.965 115.295 127.965H114.263V126.789H115.315C115.657 126.789 115.931 126.714 116.136 126.563C116.341 126.413 116.443 126.203 116.443 125.935C116.443 125.661 116.325 125.463 116.088 125.34C115.851 125.212 115.514 125.148 115.076 125.148C114.785 125.148 114.497 125.199 114.215 125.299C113.937 125.395 113.686 125.549 113.463 125.764L112.444 124.882C112.613 124.713 112.784 124.565 112.957 124.438C113.135 124.305 113.331 124.194 113.545 124.103C113.764 124.007 114.007 123.936 114.276 123.891C114.545 123.84 114.857 123.815 115.213 123.815C115.596 123.815 115.956 123.847 116.293 123.911C116.63 123.97 116.92 124.089 117.161 124.267C117.384 124.426 117.553 124.636 117.667 124.896C117.785 125.155 117.845 125.436 117.845 125.736C117.845 126.083 117.754 126.397 117.571 126.68C117.389 126.958 117.136 127.16 116.812 127.288C117.154 127.42 117.43 127.632 117.64 127.924C117.854 128.211 117.961 128.55 117.961 128.942C117.961 129.307 117.874 129.646 117.701 129.961C117.528 130.271 117.282 130.519 116.963 130.706C116.721 130.856 116.437 130.957 116.108 131.007C115.785 131.057 115.441 131.082 115.076 131.082ZM118.617 129.653H119.431C119.554 129.348 119.663 129.029 119.759 128.696C119.859 128.364 119.939 127.979 119.998 127.541C120.057 127.104 120.103 126.591 120.135 126.003C120.171 125.415 120.189 124.715 120.189 123.904H124.975V129.653H125.952V132.818H124.612V131H119.964V132.818H118.617V129.653ZM123.546 129.653V125.244H121.543C121.543 125.823 121.527 126.333 121.495 126.775C121.463 127.213 121.418 127.607 121.358 127.958C121.304 128.304 121.238 128.617 121.16 128.895C121.083 129.168 121.001 129.421 120.914 129.653H123.546ZM129.78 131.082C129.397 131.082 129.033 131.027 128.687 130.918C128.527 130.868 128.354 130.788 128.167 130.679C127.998 130.606 127.832 130.499 127.668 130.357C127.358 130.075 127.114 129.706 126.937 129.25C126.731 128.803 126.629 128.211 126.629 127.473C126.629 126.753 126.718 126.169 126.896 125.723C127.082 125.226 127.31 124.852 127.579 124.602C127.853 124.333 128.169 124.132 128.529 124C128.867 123.877 129.208 123.815 129.555 123.815C130.366 123.834 131.052 124.1 131.612 124.615C132.173 125.139 132.462 125.873 132.48 126.816V127.992H128.058C128.058 128.562 128.222 128.995 128.55 129.291C128.864 129.592 129.265 129.742 129.753 129.742C130.332 129.742 130.849 129.512 131.305 129.052L132.344 129.934C131.605 130.708 130.751 131.091 129.78 131.082ZM131.052 126.816C131.034 126.274 130.885 125.857 130.607 125.565C130.334 125.297 129.983 125.162 129.555 125.162C129.126 125.162 128.775 125.297 128.502 125.565C128.233 125.857 128.085 126.274 128.058 126.816H131.052ZM133.137 129.653H133.362C133.513 129.653 133.652 129.642 133.779 129.619C133.911 129.596 134.03 129.528 134.135 129.414C134.244 129.296 134.338 129.118 134.415 128.881C134.497 128.644 134.565 128.313 134.62 127.89C134.679 127.461 134.723 126.924 134.75 126.276C134.777 125.625 134.791 124.834 134.791 123.904H139.59V131H138.168V125.244H136.151C136.151 126.105 136.126 126.846 136.076 127.466C136.031 128.086 135.962 128.607 135.871 129.031C135.785 129.455 135.671 129.799 135.529 130.063C135.393 130.323 135.233 130.521 135.051 130.658C134.868 130.795 134.663 130.886 134.436 130.932C134.208 130.977 133.957 131 133.684 131H133.137V129.653ZM141.442 123.904H142.871V126.577H144.744C145.437 126.577 145.993 126.78 146.412 127.186C146.831 127.591 147.041 128.124 147.041 128.785C147.041 129.451 146.831 129.986 146.412 130.392C145.993 130.797 145.437 131 144.744 131H141.442V123.904ZM144.594 129.742C144.922 129.742 145.177 129.656 145.359 129.482C145.542 129.309 145.633 129.068 145.633 128.758C145.633 128.462 145.542 128.227 145.359 128.054C145.177 127.881 144.922 127.794 144.594 127.794H142.871V129.742H144.594ZM148.025 123.904H149.454V131H148.025V123.904ZM151.3 123.904H154.704C155.356 123.904 155.875 124.077 156.263 124.424C156.65 124.766 156.844 125.226 156.844 125.805C156.844 126.516 156.513 127.024 155.853 127.329C156.208 127.489 156.481 127.705 156.673 127.979C156.864 128.247 156.96 128.587 156.96 128.997C156.96 129.612 156.771 130.1 156.393 130.46C156.014 130.82 155.488 131 154.813 131H151.3V123.904ZM154.533 129.811C154.852 129.811 155.103 129.724 155.285 129.551C155.467 129.378 155.559 129.147 155.559 128.86C155.559 128.56 155.467 128.327 155.285 128.163C155.103 127.999 154.852 127.917 154.533 127.917H152.729V129.811H154.533ZM154.438 126.816C155.107 126.816 155.442 126.522 155.442 125.935C155.442 125.661 155.356 125.454 155.183 125.312C155.014 125.167 154.766 125.094 154.438 125.094H152.729V126.816H154.438ZM160.412 131.082C159.628 131.073 159.018 130.863 158.58 130.453C158.129 130.052 157.903 129.539 157.903 128.915C157.903 128.318 158.099 127.824 158.491 127.432C158.874 127.04 159.448 126.835 160.214 126.816H162.189V126.071C162.199 125.447 161.713 125.144 160.733 125.162C160.396 125.162 160.116 125.199 159.893 125.271C159.678 125.358 159.51 125.504 159.387 125.709L158.266 124.854C158.808 124.144 159.608 123.797 160.665 123.815C161.558 123.806 162.271 123.975 162.805 124.321C163.329 124.668 163.6 125.278 163.618 126.153V131H162.189V130.371H162.162C162.03 130.613 161.825 130.79 161.547 130.904C161.292 131.023 160.913 131.082 160.412 131.082ZM160.59 129.742C161.191 129.76 161.613 129.69 161.854 129.53C162.078 129.38 162.189 129.038 162.189 128.505V127.992H160.48C159.642 128.01 159.232 128.295 159.25 128.847C159.25 129.088 159.357 129.293 159.571 129.462C159.785 129.649 160.125 129.742 160.59 129.742ZM168.267 131.082C167.884 131.082 167.519 131.027 167.173 130.918C167.013 130.868 166.84 130.788 166.653 130.679C166.485 130.606 166.318 130.499 166.154 130.357C165.844 130.075 165.601 129.706 165.423 129.25C165.218 128.803 165.115 128.211 165.115 127.473C165.115 126.753 165.204 126.169 165.382 125.723C165.569 125.226 165.797 124.852 166.065 124.602C166.339 124.333 166.656 124.132 167.016 124C167.353 123.877 167.695 123.815 168.041 123.815C168.852 123.834 169.538 124.1 170.099 124.615C170.659 125.139 170.949 125.873 170.967 126.816V127.992H166.544C166.544 128.562 166.708 128.995 167.036 129.291C167.351 129.592 167.752 129.742 168.239 129.742C168.818 129.742 169.335 129.512 169.791 129.052L170.83 129.934C170.092 130.708 169.237 131.091 168.267 131.082ZM169.538 126.816C169.52 126.274 169.372 125.857 169.094 125.565C168.82 125.297 168.469 125.162 168.041 125.162C167.613 125.162 167.262 125.297 166.988 125.565C166.719 125.857 166.571 126.274 166.544 126.816H169.538ZM172.464 123.904H173.879L176.005 128.129L178.124 123.904H179.519V131H178.09V126.447L176.456 129.701H175.561L173.893 126.447V131H172.464V123.904ZM187.4 131.082C186.553 131.082 185.817 130.797 185.192 130.228C184.527 129.658 184.19 128.735 184.181 127.459C184.199 126.16 184.536 125.226 185.192 124.656C185.826 124.077 186.562 123.797 187.4 123.815C187.952 123.834 188.437 123.948 188.856 124.157C189.289 124.381 189.654 124.679 189.95 125.053L188.897 125.989C188.537 125.502 188.059 125.253 187.462 125.244C186.236 125.226 185.618 125.964 185.609 127.459C185.618 128.94 186.236 129.672 187.462 129.653C188.068 129.635 188.547 129.389 188.897 128.915L189.95 129.852C189.631 130.207 189.267 130.496 188.856 130.72C188.428 130.961 187.943 131.082 187.4 131.082ZM190.948 123.904H194.353C195.004 123.904 195.524 124.077 195.911 124.424C196.299 124.766 196.492 125.226 196.492 125.805C196.492 126.516 196.162 127.024 195.501 127.329C195.856 127.489 196.13 127.705 196.321 127.979C196.513 128.247 196.608 128.587 196.608 128.997C196.608 129.612 196.419 130.1 196.041 130.46C195.663 130.82 195.136 131 194.462 131H190.948V123.904ZM194.182 129.811C194.501 129.811 194.751 129.724 194.934 129.551C195.116 129.378 195.207 129.147 195.207 128.86C195.207 128.56 195.116 128.327 194.934 128.163C194.751 127.999 194.501 127.917 194.182 127.917H192.377V129.811H194.182ZM194.086 126.816C194.756 126.816 195.091 126.522 195.091 125.935C195.091 125.661 195.004 125.454 194.831 125.312C194.662 125.167 194.414 125.094 194.086 125.094H192.377V126.816H194.086ZM198.112 123.904H199.541V128.717L202.624 123.904H204.053V131H202.624V126.112L199.541 131H198.112V123.904ZM205.905 123.904H207.334V126.673H210.15V123.904H211.579V131H210.15V128.02H207.334V131H205.905V123.904ZM213.425 123.904H214.854V128.717L217.937 123.904H219.365V131H217.937V126.112L214.854 131H213.425V123.904ZM221.218 123.904H222.646V126.673H225.463V123.904H226.892V131H225.463V128.02H222.646V131H221.218V123.904ZM228.601 132.524H229.018C229.204 132.524 229.378 132.474 229.537 132.374C229.688 132.278 229.799 132.123 229.872 131.909L230.262 130.72L227.719 123.904H229.229L230.911 128.874H230.938L232.613 123.904H234.131L231.075 132.47C230.879 133.003 230.608 133.372 230.262 133.577C229.911 133.773 229.514 133.871 229.072 133.871H228.601V132.524ZM234.999 132.039V129.571H236.428V131L234.999 132.039ZM243.633 131.082C242.849 131.073 242.238 130.863 241.801 130.453C241.35 130.052 241.124 129.539 241.124 128.915C241.124 128.318 241.32 127.824 241.712 127.432C242.095 127.04 242.669 126.835 243.435 126.816H245.41V126.071C245.419 125.447 244.934 125.144 243.954 125.162C243.617 125.162 243.337 125.199 243.113 125.271C242.899 125.358 242.73 125.504 242.607 125.709L241.486 124.854C242.029 124.144 242.828 123.797 243.886 123.815C244.779 123.806 245.492 123.975 246.025 124.321C246.549 124.668 246.821 125.278 246.839 126.153V131H245.41V130.371H245.383C245.251 130.613 245.046 130.79 244.768 130.904C244.512 131.023 244.134 131.082 243.633 131.082ZM243.811 129.742C244.412 129.76 244.834 129.69 245.075 129.53C245.299 129.38 245.41 129.038 245.41 128.505V127.992H243.701C242.863 128.01 242.452 128.295 242.471 128.847C242.471 129.088 242.578 129.293 242.792 129.462C243.006 129.649 243.346 129.742 243.811 129.742ZM253.955 131.082C253.367 131.082 252.861 130.989 252.438 130.802C252.018 130.615 251.626 130.326 251.262 129.934L252.301 129.052C252.533 129.289 252.768 129.464 253.005 129.578C253.246 129.688 253.563 129.742 253.955 129.742C254.393 129.742 254.743 129.662 255.008 129.503C255.277 129.343 255.411 129.109 255.411 128.799C255.411 128.493 255.311 128.279 255.11 128.156C254.91 128.029 254.598 127.965 254.174 127.965H253.142V126.789H254.194C254.536 126.789 254.81 126.714 255.015 126.563C255.22 126.413 255.322 126.203 255.322 125.935C255.322 125.661 255.204 125.463 254.967 125.34C254.73 125.212 254.393 125.148 253.955 125.148C253.663 125.148 253.376 125.199 253.094 125.299C252.816 125.395 252.565 125.549 252.342 125.764L251.323 124.882C251.492 124.713 251.663 124.565 251.836 124.438C252.014 124.305 252.21 124.194 252.424 124.103C252.643 124.007 252.886 123.936 253.155 123.891C253.424 123.84 253.736 123.815 254.092 123.815C254.475 123.815 254.835 123.847 255.172 123.911C255.509 123.97 255.799 124.089 256.04 124.267C256.263 124.426 256.432 124.636 256.546 124.896C256.664 125.155 256.724 125.436 256.724 125.736C256.724 126.083 256.632 126.397 256.45 126.68C256.268 126.958 256.015 127.16 255.691 127.288C256.033 127.42 256.309 127.632 256.519 127.924C256.733 128.211 256.84 128.55 256.84 128.942C256.84 129.307 256.753 129.646 256.58 129.961C256.407 130.271 256.161 130.519 255.842 130.706C255.6 130.856 255.315 130.957 254.987 131.007C254.664 131.057 254.32 131.082 253.955 131.082ZM260.285 131.082C259.501 131.073 258.891 130.863 258.453 130.453C258.002 130.052 257.776 129.539 257.776 128.915C257.776 128.318 257.972 127.824 258.364 127.432C258.747 127.04 259.321 126.835 260.087 126.816H262.062V126.071C262.072 125.447 261.586 125.144 260.606 125.162C260.269 125.162 259.989 125.199 259.766 125.271C259.551 125.358 259.383 125.504 259.26 125.709L258.139 124.854C258.681 124.144 259.481 123.797 260.538 123.815C261.431 123.806 262.145 123.975 262.678 124.321C263.202 124.668 263.473 125.278 263.491 126.153V131H262.062V130.371H262.035C261.903 130.613 261.698 130.79 261.42 130.904C261.165 131.023 260.786 131.082 260.285 131.082ZM260.463 129.742C261.064 129.76 261.486 129.69 261.728 129.53C261.951 129.38 262.062 129.038 262.062 128.505V127.992H260.354C259.515 128.01 259.105 128.295 259.123 128.847C259.123 129.088 259.23 129.293 259.444 129.462C259.659 129.649 259.998 129.742 260.463 129.742ZM266.752 125.244H264.571V123.904H270.279V125.244H268.181V131H266.752V125.244ZM274.169 131.082C273.786 131.082 273.422 131.027 273.075 130.918C272.916 130.868 272.743 130.788 272.556 130.679C272.387 130.606 272.221 130.499 272.057 130.357C271.747 130.075 271.503 129.706 271.325 129.25C271.12 128.803 271.018 128.211 271.018 127.473C271.018 126.753 271.106 126.169 271.284 125.723C271.471 125.226 271.699 124.852 271.968 124.602C272.241 124.333 272.558 124.132 272.918 124C273.255 123.877 273.597 123.815 273.943 123.815C274.755 123.834 275.44 124.1 276.001 124.615C276.562 125.139 276.851 125.873 276.869 126.816V127.992H272.446C272.446 128.562 272.61 128.995 272.938 129.291C273.253 129.592 273.654 129.742 274.142 129.742C274.72 129.742 275.238 129.512 275.693 129.052L276.732 129.934C275.994 130.708 275.14 131.091 274.169 131.082ZM275.44 126.816C275.422 126.274 275.274 125.857 274.996 125.565C274.723 125.297 274.372 125.162 273.943 125.162C273.515 125.162 273.164 125.297 272.891 125.565C272.622 125.857 272.474 126.274 272.446 126.816H275.44ZM278.366 123.904H279.781L281.907 128.129L284.026 123.904H285.421V131H283.992V126.447L282.358 129.701H281.463L279.795 126.447V131H278.366V123.904ZM21.9229 141.904H23.3516V144.673H26.168V141.904H27.5967V149H26.168V146.02H23.3516V149H21.9229V141.904ZM31.3906 149.082C30.6068 149.073 29.9961 148.863 29.5586 148.453C29.1074 148.052 28.8818 147.539 28.8818 146.915C28.8818 146.318 29.0778 145.824 29.4697 145.432C29.8525 145.04 30.4268 144.835 31.1924 144.816H33.168V144.071C33.1771 143.447 32.6917 143.144 31.7119 143.162C31.3747 143.162 31.0944 143.199 30.8711 143.271C30.6569 143.358 30.4883 143.504 30.3652 143.709L29.2441 142.854C29.7865 142.144 30.5863 141.797 31.6436 141.815C32.5368 141.806 33.25 141.975 33.7832 142.321C34.3073 142.668 34.5785 143.278 34.5967 144.153V149H33.168V148.371H33.1406C33.0085 148.613 32.8034 148.79 32.5254 148.904C32.2702 149.023 31.8919 149.082 31.3906 149.082ZM31.5684 147.742C32.1699 147.76 32.5915 147.69 32.833 147.53C33.0563 147.38 33.168 147.038 33.168 146.505V145.992H31.459C30.6204 146.01 30.2103 146.295 30.2285 146.847C30.2285 147.088 30.3356 147.293 30.5498 147.462C30.764 147.649 31.1035 147.742 31.5684 147.742ZM35.6016 147.653H36.415C36.5381 147.348 36.6475 147.029 36.7432 146.696C36.8434 146.364 36.9232 145.979 36.9824 145.541C37.0417 145.104 37.0872 144.591 37.1191 144.003C37.1556 143.415 37.1738 142.715 37.1738 141.904H41.959V147.653H42.9365V150.818H41.5967V149H36.9482V150.818H35.6016V147.653ZM40.5303 147.653V143.244H38.5273C38.5273 143.823 38.5114 144.333 38.4795 144.775C38.4476 145.213 38.402 145.607 38.3428 145.958C38.2881 146.304 38.222 146.617 38.1445 146.895C38.0671 147.168 37.985 147.421 37.8984 147.653H40.5303ZM46.7646 149.082C46.3818 149.082 46.0173 149.027 45.6709 148.918C45.5114 148.868 45.3382 148.788 45.1514 148.679C44.9827 148.606 44.8164 148.499 44.6523 148.357C44.3424 148.075 44.0986 147.706 43.9209 147.25C43.7158 146.803 43.6133 146.211 43.6133 145.473C43.6133 144.753 43.7021 144.169 43.8799 143.723C44.0667 143.226 44.2946 142.852 44.5635 142.602C44.8369 142.333 45.1536 142.132 45.5137 142C45.8509 141.877 46.1927 141.815 46.5391 141.815C47.3503 141.834 48.0361 142.1 48.5967 142.615C49.1572 143.139 49.4466 143.873 49.4648 144.816V145.992H45.042C45.042 146.562 45.2061 146.995 45.5342 147.291C45.8486 147.592 46.2497 147.742 46.7373 147.742C47.3161 147.742 47.8333 147.512 48.2891 147.052L49.3281 147.934C48.5898 148.708 47.7354 149.091 46.7646 149.082ZM48.0361 144.816C48.0179 144.274 47.8698 143.857 47.5918 143.565C47.3184 143.297 46.9674 143.162 46.5391 143.162C46.1107 143.162 45.7598 143.297 45.4863 143.565C45.2174 143.857 45.0693 144.274 45.042 144.816H48.0361ZM47.0381 140.797H48.5557V139.286H47.0381V140.797ZM44.5771 140.797H46.0879V139.286H44.5771V140.797ZM50.251 147.681H50.5586C50.6862 147.681 50.791 147.672 50.873 147.653C50.9596 147.635 51.0303 147.605 51.085 147.564C51.1442 147.523 51.1943 147.466 51.2354 147.394C51.2764 147.316 51.3219 147.216 51.3721 147.093L51.6934 146.225C51.7936 145.965 51.9189 145.76 52.0693 145.609C52.2197 145.454 52.4157 145.338 52.6572 145.261C52.4977 145.206 52.3496 145.119 52.2129 145.001C52.0807 144.878 51.9759 144.709 51.8984 144.495L51.666 143.791C51.6159 143.659 51.5703 143.554 51.5293 143.477C51.4883 143.399 51.4359 143.34 51.3721 143.299C51.3128 143.253 51.2376 143.224 51.1465 143.21C51.0599 143.196 50.9482 143.189 50.8115 143.189H50.5859V141.904H51.0781C51.5339 141.904 51.8916 141.998 52.1514 142.185C52.4157 142.371 52.6253 142.679 52.7803 143.107L53.1221 144.058C53.195 144.254 53.318 144.413 53.4912 144.536C53.6644 144.655 53.8717 144.714 54.1133 144.714H54.5029V141.904H55.9316V144.714H56.3145C56.5651 144.714 56.777 144.655 56.9502 144.536C57.1234 144.413 57.2464 144.254 57.3193 144.058L57.6543 143.107C57.8138 142.679 58.0212 142.371 58.2764 142.185C58.5361 141.998 58.8984 141.904 59.3633 141.904H59.8418V143.189H59.6299C59.4886 143.189 59.3701 143.196 59.2744 143.21C59.1833 143.224 59.1104 143.253 59.0557 143.299C59.001 143.34 58.9508 143.399 58.9053 143.477C58.8643 143.554 58.821 143.659 58.7754 143.791L58.5225 144.495C58.4495 144.709 58.3447 144.878 58.208 145.001C58.0713 145.119 57.9232 145.206 57.7637 145.261C58.0098 145.338 58.2057 145.454 58.3516 145.609C58.502 145.76 58.6296 145.965 58.7344 146.225L59.0693 147.093C59.1149 147.216 59.1582 147.316 59.1992 147.394C59.2448 147.466 59.2949 147.523 59.3496 147.564C59.4043 147.605 59.4704 147.635 59.5479 147.653C59.6299 147.672 59.737 147.681 59.8691 147.681H60.1904V149H59.6709C59.4202 149 59.1992 148.977 59.0078 148.932C58.8164 148.886 58.6501 148.815 58.5088 148.72C58.3675 148.619 58.2422 148.487 58.1328 148.323C58.028 148.159 57.93 147.961 57.8389 147.729L57.4424 146.717C57.3786 146.548 57.2988 146.421 57.2031 146.334C57.112 146.243 57.0117 146.174 56.9023 146.129C56.7975 146.083 56.6882 146.056 56.5742 146.047C56.4648 146.038 56.3532 146.033 56.2393 146.033H55.9316V149H54.5029V146.033H54.1953C54.0859 146.033 53.972 146.038 53.8535 146.047C53.735 146.056 53.6211 146.083 53.5117 146.129C53.4069 146.174 53.3066 146.243 53.2109 146.334C53.1198 146.421 53.0423 146.548 52.9785 146.717L52.6025 147.729C52.5068 147.961 52.4043 148.159 52.2949 148.323C52.1901 148.487 52.0648 148.619 51.9189 148.72C51.7777 148.815 51.6136 148.886 51.4268 148.932C51.2399 148.977 51.0189 149 50.7637 149H50.251V147.681ZM61.3252 141.904H62.7539V144.673H65.5703V141.904H66.999V149H65.5703V146.02H62.7539V149H61.3252V141.904ZM71.4219 149.082C70.8978 149.082 70.4535 148.979 70.0889 148.774C69.7288 148.588 69.4554 148.387 69.2686 148.173C68.9951 147.877 68.7992 147.537 68.6807 147.154C68.5576 146.781 68.4961 146.211 68.4961 145.445C68.4961 144.689 68.5576 144.115 68.6807 143.723C68.8083 143.322 69.0042 142.989 69.2686 142.725C69.4645 142.492 69.738 142.283 70.0889 142.096C70.4443 141.909 70.8887 141.815 71.4219 141.815C71.9733 141.815 72.4268 141.909 72.7822 142.096C73.124 142.283 73.3883 142.492 73.5752 142.725C73.8486 142.989 74.0492 143.322 74.1768 143.723C74.2907 144.133 74.3477 144.707 74.3477 145.445C74.3477 146.193 74.2907 146.762 74.1768 147.154C74.0492 147.546 73.8486 147.886 73.5752 148.173C73.5296 148.218 73.4795 148.271 73.4248 148.33C73.3701 148.385 73.3086 148.435 73.2402 148.48C73.1126 148.594 72.96 148.692 72.7822 148.774C72.4176 148.979 71.9642 149.082 71.4219 149.082ZM71.4219 147.653C71.6725 147.653 71.9004 147.603 72.1055 147.503C72.3105 147.407 72.4655 147.286 72.5703 147.141C72.7207 146.945 72.8141 146.74 72.8506 146.525C72.8688 146.411 72.8848 146.266 72.8984 146.088C72.9121 145.91 72.9189 145.701 72.9189 145.459C72.9189 145.208 72.9121 144.992 72.8984 144.81C72.8848 144.627 72.8688 144.475 72.8506 144.352C72.8141 144.137 72.7207 143.941 72.5703 143.764C72.4655 143.613 72.3105 143.488 72.1055 143.388C71.9186 143.292 71.6908 143.244 71.4219 143.244C71.1712 143.244 70.9479 143.292 70.752 143.388C70.5651 143.479 70.4056 143.604 70.2734 143.764C70.1504 143.923 70.0615 144.119 70.0068 144.352C69.9521 144.593 69.9248 144.958 69.9248 145.445C69.9248 145.938 69.9521 146.298 70.0068 146.525C70.0615 146.758 70.1504 146.963 70.2734 147.141C70.4147 147.286 70.5742 147.407 70.752 147.503C70.9753 147.603 71.1986 147.653 71.4219 147.653ZM79.0713 150.524H79.4883C79.6751 150.524 79.8483 150.474 80.0078 150.374C80.1582 150.278 80.2699 150.123 80.3428 149.909L80.7324 148.72L78.1895 141.904H79.7002L81.3818 146.874H81.4092L83.084 141.904H84.6016L81.5459 150.47C81.3499 151.003 81.0788 151.372 80.7324 151.577C80.3815 151.773 79.985 151.871 79.543 151.871H79.0713V150.524ZM85.4287 141.904H91.1025V149H89.6738V143.244H86.8574V149H85.4287V141.904ZM94.8965 149.082C94.1126 149.073 93.502 148.863 93.0645 148.453C92.6133 148.052 92.3877 147.539 92.3877 146.915C92.3877 146.318 92.5837 145.824 92.9756 145.432C93.3584 145.04 93.9326 144.835 94.6982 144.816H96.6738V144.071C96.6829 143.447 96.1976 143.144 95.2178 143.162C94.8805 143.162 94.6003 143.199 94.377 143.271C94.1628 143.358 93.9941 143.504 93.8711 143.709L92.75 142.854C93.2923 142.144 94.0921 141.797 95.1494 141.815C96.0426 141.806 96.7559 141.975 97.2891 142.321C97.8132 142.668 98.0843 143.278 98.1025 144.153V149H96.6738V148.371H96.6465C96.5143 148.613 96.3092 148.79 96.0312 148.904C95.776 149.023 95.3978 149.082 94.8965 149.082ZM95.0742 147.742C95.6758 147.76 96.0973 147.69 96.3389 147.53C96.5622 147.38 96.6738 147.038 96.6738 146.505V145.992H94.9648C94.1263 146.01 93.7161 146.295 93.7344 146.847C93.7344 147.088 93.8415 147.293 94.0557 147.462C94.2699 147.649 94.6094 147.742 95.0742 147.742ZM99.9482 141.904H101.377V144.687H102.047C102.302 144.687 102.514 144.632 102.683 144.522C102.856 144.409 102.981 144.254 103.059 144.058L103.394 143.107C103.544 142.679 103.749 142.371 104.009 142.185C104.269 141.998 104.633 141.904 105.103 141.904H105.574V143.189H105.369C105.228 143.189 105.109 143.196 105.014 143.21C104.923 143.224 104.845 143.253 104.781 143.299C104.722 143.34 104.672 143.399 104.631 143.477C104.59 143.554 104.547 143.659 104.501 143.791L104.262 144.495C104.189 144.709 104.084 144.878 103.947 145.001C103.811 145.119 103.662 145.206 103.503 145.261C103.749 145.338 103.945 145.454 104.091 145.609C104.241 145.76 104.369 145.965 104.474 146.225L104.809 147.093C104.854 147.216 104.897 147.316 104.938 147.394C104.979 147.466 105.027 147.523 105.082 147.564C105.141 147.605 105.21 147.635 105.287 147.653C105.369 147.672 105.476 147.681 105.608 147.681H105.93V149H105.41C104.895 149 104.501 148.904 104.228 148.713C103.959 148.521 103.738 148.193 103.564 147.729L103.168 146.717C103.104 146.548 103.024 146.421 102.929 146.334C102.838 146.243 102.737 146.174 102.628 146.129C102.523 146.083 102.414 146.056 102.3 146.047C102.19 146.038 102.079 146.033 101.965 146.033H101.377V149H99.9482V141.904ZM109.635 149.082C109.111 149.082 108.666 148.979 108.302 148.774C107.942 148.588 107.668 148.387 107.481 148.173C107.208 147.877 107.012 147.537 106.894 147.154C106.771 146.781 106.709 146.211 106.709 145.445C106.709 144.689 106.771 144.115 106.894 143.723C107.021 143.322 107.217 142.989 107.481 142.725C107.677 142.492 107.951 142.283 108.302 142.096C108.657 141.909 109.102 141.815 109.635 141.815C110.186 141.815 110.64 141.909 110.995 142.096C111.337 142.283 111.601 142.492 111.788 142.725C112.062 142.989 112.262 143.322 112.39 143.723C112.504 144.133 112.561 144.707 112.561 145.445C112.561 146.193 112.504 146.762 112.39 147.154C112.262 147.546 112.062 147.886 111.788 148.173C111.743 148.218 111.692 148.271 111.638 148.33C111.583 148.385 111.521 148.435 111.453 148.48C111.326 148.594 111.173 148.692 110.995 148.774C110.631 148.979 110.177 149.082 109.635 149.082ZM109.635 147.653C109.885 147.653 110.113 147.603 110.318 147.503C110.523 147.407 110.678 147.286 110.783 147.141C110.934 146.945 111.027 146.74 111.063 146.525C111.082 146.411 111.098 146.266 111.111 146.088C111.125 145.91 111.132 145.701 111.132 145.459C111.132 145.208 111.125 144.992 111.111 144.81C111.098 144.627 111.082 144.475 111.063 144.352C111.027 144.137 110.934 143.941 110.783 143.764C110.678 143.613 110.523 143.488 110.318 143.388C110.132 143.292 109.904 143.244 109.635 143.244C109.384 143.244 109.161 143.292 108.965 143.388C108.778 143.479 108.618 143.604 108.486 143.764C108.363 143.923 108.274 144.119 108.22 144.352C108.165 144.593 108.138 144.958 108.138 145.445C108.138 145.938 108.165 146.298 108.22 146.525C108.274 146.758 108.363 146.963 108.486 147.141C108.628 147.286 108.787 147.407 108.965 147.503C109.188 147.603 109.411 147.653 109.635 147.653ZM114.058 141.904H117.462C118.114 141.904 118.633 142.077 119.021 142.424C119.408 142.766 119.602 143.226 119.602 143.805C119.602 144.516 119.271 145.024 118.61 145.329C118.966 145.489 119.239 145.705 119.431 145.979C119.622 146.247 119.718 146.587 119.718 146.997C119.718 147.612 119.529 148.1 119.15 148.46C118.772 148.82 118.246 149 117.571 149H114.058V141.904ZM117.291 147.811C117.61 147.811 117.861 147.724 118.043 147.551C118.225 147.378 118.316 147.147 118.316 146.86C118.316 146.56 118.225 146.327 118.043 146.163C117.861 145.999 117.61 145.917 117.291 145.917H115.486V147.811H117.291ZM117.195 144.816C117.865 144.816 118.2 144.522 118.2 143.935C118.2 143.661 118.114 143.454 117.94 143.312C117.772 143.167 117.523 143.094 117.195 143.094H115.486V144.816H117.195ZM121.222 141.904H122.65V144.577H124.523C125.216 144.577 125.772 144.78 126.191 145.186C126.611 145.591 126.82 146.124 126.82 146.785C126.82 147.451 126.611 147.986 126.191 148.392C125.772 148.797 125.216 149 124.523 149H121.222V141.904ZM124.373 147.742C124.701 147.742 124.956 147.656 125.139 147.482C125.321 147.309 125.412 147.068 125.412 146.758C125.412 146.462 125.321 146.227 125.139 146.054C124.956 145.881 124.701 145.794 124.373 145.794H122.65V147.742H124.373ZM127.805 141.904H129.233V149H127.805V141.904ZM131.079 141.904H134.483C135.135 141.904 135.655 142.077 136.042 142.424C136.429 142.766 136.623 143.226 136.623 143.805C136.623 144.516 136.293 145.024 135.632 145.329C135.987 145.489 136.261 145.705 136.452 145.979C136.644 146.247 136.739 146.587 136.739 146.997C136.739 147.612 136.55 148.1 136.172 148.46C135.794 148.82 135.267 149 134.593 149H131.079V141.904ZM134.312 147.811C134.632 147.811 134.882 147.724 135.064 147.551C135.247 147.378 135.338 147.147 135.338 146.86C135.338 146.56 135.247 146.327 135.064 146.163C134.882 145.999 134.632 145.917 134.312 145.917H132.508V147.811H134.312ZM134.217 144.816C134.887 144.816 135.222 144.522 135.222 143.935C135.222 143.661 135.135 143.454 134.962 143.312C134.793 143.167 134.545 143.094 134.217 143.094H132.508V144.816H134.217ZM140.191 149.082C139.408 149.073 138.797 148.863 138.359 148.453C137.908 148.052 137.683 147.539 137.683 146.915C137.683 146.318 137.879 145.824 138.271 145.432C138.653 145.04 139.228 144.835 139.993 144.816H141.969V144.071C141.978 143.447 141.493 143.144 140.513 143.162C140.175 143.162 139.895 143.199 139.672 143.271C139.458 143.358 139.289 143.504 139.166 143.709L138.045 142.854C138.587 142.144 139.387 141.797 140.444 141.815C141.338 141.806 142.051 141.975 142.584 142.321C143.108 142.668 143.379 143.278 143.397 144.153V149H141.969V148.371H141.941C141.809 148.613 141.604 148.79 141.326 148.904C141.071 149.023 140.693 149.082 140.191 149.082ZM140.369 147.742C140.971 147.76 141.392 147.69 141.634 147.53C141.857 147.38 141.969 147.038 141.969 146.505V145.992H140.26C139.421 146.01 139.011 146.295 139.029 146.847C139.029 147.088 139.136 147.293 139.351 147.462C139.565 147.649 139.904 147.742 140.369 147.742ZM148.046 149.082C147.663 149.082 147.299 149.027 146.952 148.918C146.793 148.868 146.619 148.788 146.433 148.679C146.264 148.606 146.098 148.499 145.934 148.357C145.624 148.075 145.38 147.706 145.202 147.25C144.997 146.803 144.895 146.211 144.895 145.473C144.895 144.753 144.983 144.169 145.161 143.723C145.348 143.226 145.576 142.852 145.845 142.602C146.118 142.333 146.435 142.132 146.795 142C147.132 141.877 147.474 141.815 147.82 141.815C148.632 141.834 149.317 142.1 149.878 142.615C150.438 143.139 150.728 143.873 150.746 144.816V145.992H146.323C146.323 146.562 146.487 146.995 146.815 147.291C147.13 147.592 147.531 147.742 148.019 147.742C148.597 147.742 149.115 147.512 149.57 147.052L150.609 147.934C149.871 148.708 149.017 149.091 148.046 149.082ZM149.317 144.816C149.299 144.274 149.151 143.857 148.873 143.565C148.6 143.297 148.249 143.162 147.82 143.162C147.392 143.162 147.041 143.297 146.768 143.565C146.499 143.857 146.351 144.274 146.323 144.816H149.317ZM152.243 141.904H153.658L155.784 146.129L157.903 141.904H159.298V149H157.869V144.447L156.235 147.701H155.34L153.672 144.447V149H152.243V141.904ZM164.507 141.904H165.922L168.048 146.129L170.167 141.904H171.562V149H170.133V144.447L168.499 147.701H167.604L165.936 144.447V149H164.507V141.904ZM172.819 147.653H173.141C173.337 147.653 173.492 147.628 173.605 147.578C173.724 147.528 173.817 147.428 173.886 147.277L174.152 146.662C174.198 146.53 174.253 146.416 174.316 146.32C174.385 146.22 174.483 146.129 174.61 146.047C174.164 145.969 173.808 145.751 173.544 145.391C173.284 145.026 173.154 144.577 173.154 144.044C173.154 143.374 173.362 142.85 173.776 142.472C174.196 142.093 174.758 141.904 175.465 141.904H178.712V149H177.283V146.272H176.709C176.367 146.272 176.114 146.325 175.95 146.43C175.786 146.53 175.638 146.737 175.506 147.052L175.185 147.838C175.103 148.052 175.009 148.232 174.904 148.378C174.804 148.524 174.688 148.645 174.556 148.74C174.424 148.831 174.266 148.897 174.084 148.938C173.906 148.979 173.694 149 173.448 149H172.819V147.653ZM177.283 145.097V143.189H175.622C175.267 143.189 175 143.276 174.822 143.449C174.645 143.622 174.556 143.857 174.556 144.153C174.556 144.782 174.911 145.097 175.622 145.097H177.283ZM183.23 149.082C182.383 149.082 181.647 148.797 181.022 148.228C180.357 147.658 180.02 146.735 180.011 145.459C180.029 144.16 180.366 143.226 181.022 142.656C181.656 142.077 182.392 141.797 183.23 141.815C183.782 141.834 184.267 141.948 184.687 142.157C185.119 142.381 185.484 142.679 185.78 143.053L184.728 143.989C184.368 143.502 183.889 143.253 183.292 143.244C182.066 143.226 181.449 143.964 181.439 145.459C181.449 146.94 182.066 147.672 183.292 147.653C183.898 147.635 184.377 147.389 184.728 146.915L185.78 147.852C185.461 148.207 185.097 148.496 184.687 148.72C184.258 148.961 183.773 149.082 183.23 149.082ZM189.355 149.082C188.831 149.082 188.387 148.979 188.022 148.774C187.662 148.588 187.389 148.387 187.202 148.173C186.929 147.877 186.733 147.537 186.614 147.154C186.491 146.781 186.43 146.211 186.43 145.445C186.43 144.689 186.491 144.115 186.614 143.723C186.742 143.322 186.938 142.989 187.202 142.725C187.398 142.492 187.672 142.283 188.022 142.096C188.378 141.909 188.822 141.815 189.355 141.815C189.907 141.815 190.36 141.909 190.716 142.096C191.058 142.283 191.322 142.492 191.509 142.725C191.782 142.989 191.983 143.322 192.11 143.723C192.224 144.133 192.281 144.707 192.281 145.445C192.281 146.193 192.224 146.762 192.11 147.154C191.983 147.546 191.782 147.886 191.509 148.173C191.463 148.218 191.413 148.271 191.358 148.33C191.304 148.385 191.242 148.435 191.174 148.48C191.046 148.594 190.894 148.692 190.716 148.774C190.351 148.979 189.898 149.082 189.355 149.082ZM189.355 147.653C189.606 147.653 189.834 147.603 190.039 147.503C190.244 147.407 190.399 147.286 190.504 147.141C190.654 146.945 190.748 146.74 190.784 146.525C190.802 146.411 190.818 146.266 190.832 146.088C190.846 145.91 190.853 145.701 190.853 145.459C190.853 145.208 190.846 144.992 190.832 144.81C190.818 144.627 190.802 144.475 190.784 144.352C190.748 144.137 190.654 143.941 190.504 143.764C190.399 143.613 190.244 143.488 190.039 143.388C189.852 143.292 189.624 143.244 189.355 143.244C189.105 143.244 188.882 143.292 188.686 143.388C188.499 143.479 188.339 143.604 188.207 143.764C188.084 143.923 187.995 144.119 187.94 144.352C187.886 144.593 187.858 144.958 187.858 145.445C187.858 145.938 187.886 146.298 187.94 146.525C187.995 146.758 188.084 146.963 188.207 147.141C188.348 147.286 188.508 147.407 188.686 147.503C188.909 147.603 189.132 147.653 189.355 147.653ZM197.142 141.904H198.57V146.717L201.653 141.904H203.082V149H201.653V144.112L198.57 149H197.142V141.904ZM211.128 149.082C210.408 149.082 209.822 148.916 209.371 148.583C208.92 148.246 208.601 147.797 208.414 147.236C208.355 147.077 208.312 146.895 208.284 146.689C208.257 146.484 208.234 146.27 208.216 146.047C208.198 145.824 208.186 145.6 208.182 145.377C208.177 145.149 208.175 144.937 208.175 144.741V144.201C208.175 143.818 208.182 143.447 208.195 143.087C208.209 142.727 208.25 142.385 208.318 142.062C208.391 141.733 208.496 141.43 208.633 141.152C208.774 140.87 208.965 140.615 209.207 140.387C209.403 140.214 209.61 140.072 209.829 139.963C210.052 139.854 210.283 139.769 210.52 139.71C210.757 139.651 210.996 139.605 211.237 139.573C211.479 139.541 211.718 139.509 211.955 139.478C212.101 139.459 212.219 139.416 212.311 139.348C212.406 139.279 212.465 139.174 212.488 139.033H213.944C213.867 140.068 213.386 140.656 212.502 140.797C212.274 140.833 212.049 140.863 211.825 140.886C211.602 140.909 211.381 140.943 211.162 140.988C210.943 141.029 210.736 141.091 210.54 141.173C210.344 141.25 210.162 141.362 209.993 141.508C209.779 141.704 209.622 141.938 209.521 142.212C209.426 142.481 209.373 142.731 209.364 142.964H209.405C209.565 142.686 209.822 142.449 210.178 142.253C210.538 142.057 210.957 141.959 211.436 141.959C212.37 141.959 213.044 142.264 213.459 142.875C213.874 143.486 214.081 144.356 214.081 145.486C214.081 146.102 214.024 146.628 213.91 147.065C213.801 147.498 213.614 147.872 213.35 148.187C213.108 148.478 212.8 148.701 212.427 148.856C212.053 149.007 211.62 149.082 211.128 149.082ZM211.114 147.667C211.356 147.667 211.575 147.624 211.771 147.537C211.966 147.451 212.131 147.327 212.263 147.168C212.422 146.981 212.527 146.756 212.577 146.491C212.627 146.222 212.652 145.896 212.652 145.514C212.652 145.122 212.627 144.787 212.577 144.509C212.527 144.226 212.422 143.992 212.263 143.805C212.131 143.654 211.966 143.538 211.771 143.456C211.575 143.374 211.356 143.333 211.114 143.333C210.873 143.333 210.654 143.376 210.458 143.463C210.262 143.549 210.103 143.673 209.979 143.832C209.82 144.019 209.717 144.254 209.672 144.536C209.626 144.814 209.604 145.149 209.604 145.541C209.604 145.988 209.64 146.343 209.713 146.607C209.786 146.867 209.902 147.081 210.062 147.25C210.194 147.382 210.351 147.485 210.533 147.558C210.715 147.631 210.909 147.667 211.114 147.667ZM215.585 141.904H217.014V144.577H218.887C219.579 144.577 220.135 144.78 220.555 145.186C220.974 145.591 221.184 146.124 221.184 146.785C221.184 147.451 220.974 147.986 220.555 148.392C220.135 148.797 219.579 149 218.887 149H215.585V141.904ZM218.736 147.742C219.064 147.742 219.32 147.656 219.502 147.482C219.684 147.309 219.775 147.068 219.775 146.758C219.775 146.462 219.684 146.227 219.502 146.054C219.32 145.881 219.064 145.794 218.736 145.794H217.014V147.742H218.736ZM222.168 141.904H223.597V149H222.168V141.904ZM228.115 149.082C227.268 149.082 226.532 148.797 225.907 148.228C225.242 147.658 224.905 146.735 224.896 145.459C224.914 144.16 225.251 143.226 225.907 142.656C226.541 142.077 227.277 141.797 228.115 141.815C228.667 141.834 229.152 141.948 229.571 142.157C230.004 142.381 230.369 142.679 230.665 143.053L229.612 143.989C229.252 143.502 228.774 143.253 228.177 143.244C226.951 143.226 226.333 143.964 226.324 145.459C226.333 146.94 226.951 147.672 228.177 147.653C228.783 147.635 229.261 147.389 229.612 146.915L230.665 147.852C230.346 148.207 229.981 148.496 229.571 148.72C229.143 148.961 228.658 149.082 228.115 149.082ZM233.078 143.244H230.897V141.904H236.605V143.244H234.507V149H233.078V143.244ZM237.692 141.904H239.121V142.643C239.6 142.109 240.21 141.834 240.953 141.815C241.814 141.825 242.45 142.134 242.86 142.745C243.065 142.978 243.2 143.271 243.264 143.627C243.3 143.814 243.325 144.06 243.339 144.365C243.357 144.666 243.366 145.031 243.366 145.459C243.366 145.878 243.357 146.238 243.339 146.539C243.325 146.835 243.3 147.077 243.264 147.264C243.2 147.619 243.065 147.918 242.86 148.159C242.655 148.442 242.398 148.66 242.088 148.815C241.783 148.975 241.404 149.064 240.953 149.082C240.602 149.082 240.276 149.002 239.976 148.843C239.666 148.688 239.381 148.487 239.121 148.241V151.871H237.692V141.904ZM240.522 147.653C240.851 147.653 241.117 147.59 241.322 147.462C241.518 147.339 241.657 147.17 241.739 146.956C241.835 146.76 241.896 146.523 241.924 146.245C241.933 146.113 241.938 145.983 241.938 145.855C241.938 145.723 241.938 145.591 241.938 145.459C241.938 145.318 241.938 145.179 241.938 145.042C241.938 144.901 241.933 144.764 241.924 144.632C241.896 144.354 241.835 144.117 241.739 143.921C241.657 143.716 241.518 143.547 241.322 143.415C241.126 143.301 240.86 143.244 240.522 143.244C240.203 143.244 239.951 143.31 239.764 143.442C239.577 143.565 239.433 143.739 239.333 143.962C239.246 144.167 239.189 144.399 239.162 144.659C239.135 144.933 239.121 145.199 239.121 145.459C239.121 145.71 239.135 145.96 239.162 146.211C239.189 146.484 239.246 146.724 239.333 146.929C239.433 147.152 239.577 147.325 239.764 147.448C239.941 147.585 240.194 147.653 240.522 147.653ZM247.543 149.082C247.019 149.082 246.575 148.979 246.21 148.774C245.85 148.588 245.576 148.387 245.39 148.173C245.116 147.877 244.92 147.537 244.802 147.154C244.679 146.781 244.617 146.211 244.617 145.445C244.617 144.689 244.679 144.115 244.802 143.723C244.929 143.322 245.125 142.989 245.39 142.725C245.586 142.492 245.859 142.283 246.21 142.096C246.565 141.909 247.01 141.815 247.543 141.815C248.094 141.815 248.548 141.909 248.903 142.096C249.245 142.283 249.509 142.492 249.696 142.725C249.97 142.989 250.17 143.322 250.298 143.723C250.412 144.133 250.469 144.707 250.469 145.445C250.469 146.193 250.412 146.762 250.298 147.154C250.17 147.546 249.97 147.886 249.696 148.173C249.651 148.218 249.601 148.271 249.546 148.33C249.491 148.385 249.43 148.435 249.361 148.48C249.234 148.594 249.081 148.692 248.903 148.774C248.539 148.979 248.085 149.082 247.543 149.082ZM247.543 147.653C247.794 147.653 248.021 147.603 248.227 147.503C248.432 147.407 248.587 147.286 248.691 147.141C248.842 146.945 248.935 146.74 248.972 146.525C248.99 146.411 249.006 146.266 249.02 146.088C249.033 145.91 249.04 145.701 249.04 145.459C249.04 145.208 249.033 144.992 249.02 144.81C249.006 144.627 248.99 144.475 248.972 144.352C248.935 144.137 248.842 143.941 248.691 143.764C248.587 143.613 248.432 143.488 248.227 143.388C248.04 143.292 247.812 143.244 247.543 143.244C247.292 143.244 247.069 143.292 246.873 143.388C246.686 143.479 246.527 143.604 246.395 143.764C246.271 143.923 246.183 144.119 246.128 144.352C246.073 144.593 246.046 144.958 246.046 145.445C246.046 145.938 246.073 146.298 246.128 146.525C246.183 146.758 246.271 146.963 246.395 147.141C246.536 147.286 246.695 147.407 246.873 147.503C247.096 147.603 247.32 147.653 247.543 147.653ZM21.082 165.653H21.8955C22.0186 165.348 22.1279 165.029 22.2236 164.696C22.3239 164.364 22.4036 163.979 22.4629 163.541C22.5221 163.104 22.5677 162.591 22.5996 162.003C22.6361 161.415 22.6543 160.715 22.6543 159.904H27.4395V165.653H28.417V168.818H27.0771V167H22.4287V168.818H21.082V165.653ZM26.0107 165.653V161.244H24.0078C24.0078 161.823 23.9919 162.333 23.96 162.775C23.9281 163.213 23.8825 163.607 23.8232 163.958C23.7686 164.304 23.7025 164.617 23.625 164.895C23.5475 165.168 23.4655 165.421 23.3789 165.653H26.0107ZM32.0195 167.082C31.4954 167.082 31.0511 166.979 30.6865 166.774C30.3265 166.588 30.0531 166.387 29.8662 166.173C29.5928 165.877 29.3968 165.537 29.2783 165.154C29.1553 164.781 29.0938 164.211 29.0938 163.445C29.0938 162.689 29.1553 162.115 29.2783 161.723C29.4059 161.322 29.6019 160.989 29.8662 160.725C30.0622 160.492 30.3356 160.283 30.6865 160.096C31.042 159.909 31.4863 159.815 32.0195 159.815C32.571 159.815 33.0244 159.909 33.3799 160.096C33.7217 160.283 33.986 160.492 34.1729 160.725C34.4463 160.989 34.6468 161.322 34.7744 161.723C34.8883 162.133 34.9453 162.707 34.9453 163.445C34.9453 164.193 34.8883 164.762 34.7744 165.154C34.6468 165.546 34.4463 165.886 34.1729 166.173C34.1273 166.218 34.0771 166.271 34.0225 166.33C33.9678 166.385 33.9062 166.435 33.8379 166.48C33.7103 166.594 33.5576 166.692 33.3799 166.774C33.0153 166.979 32.5618 167.082 32.0195 167.082ZM32.0195 165.653C32.2702 165.653 32.498 165.603 32.7031 165.503C32.9082 165.407 33.0632 165.286 33.168 165.141C33.3184 164.945 33.4118 164.74 33.4482 164.525C33.4665 164.411 33.4824 164.266 33.4961 164.088C33.5098 163.91 33.5166 163.701 33.5166 163.459C33.5166 163.208 33.5098 162.992 33.4961 162.81C33.4824 162.627 33.4665 162.475 33.4482 162.352C33.4118 162.137 33.3184 161.941 33.168 161.764C33.0632 161.613 32.9082 161.488 32.7031 161.388C32.5163 161.292 32.2884 161.244 32.0195 161.244C31.7689 161.244 31.5456 161.292 31.3496 161.388C31.1628 161.479 31.0033 161.604 30.8711 161.764C30.748 161.923 30.6592 162.119 30.6045 162.352C30.5498 162.593 30.5225 162.958 30.5225 163.445C30.5225 163.938 30.5498 164.298 30.6045 164.525C30.6592 164.758 30.748 164.963 30.8711 165.141C31.0124 165.286 31.1719 165.407 31.3496 165.503C31.5729 165.603 31.7962 165.653 32.0195 165.653ZM39.1152 167.082C38.2676 167.082 37.5316 166.797 36.9072 166.228C36.2419 165.658 35.9046 164.735 35.8955 163.459C35.9137 162.16 36.251 161.226 36.9072 160.656C37.5407 160.077 38.2767 159.797 39.1152 159.815C39.6667 159.834 40.152 159.948 40.5713 160.157C41.0042 160.381 41.3688 160.679 41.665 161.053L40.6123 161.989C40.2523 161.502 39.7738 161.253 39.1768 161.244C37.9508 161.226 37.3333 161.964 37.3242 163.459C37.3333 164.94 37.9508 165.672 39.1768 165.653C39.7829 165.635 40.2614 165.389 40.6123 164.915L41.665 165.852C41.346 166.207 40.9814 166.496 40.5713 166.72C40.1429 166.961 39.6576 167.082 39.1152 167.082ZM44.0781 161.244H41.8975V159.904H47.6055V161.244H45.5068V167H44.0781V161.244ZM50.6406 167.082C49.8568 167.073 49.2461 166.863 48.8086 166.453C48.3574 166.052 48.1318 165.539 48.1318 164.915C48.1318 164.318 48.3278 163.824 48.7197 163.432C49.1025 163.04 49.6768 162.835 50.4424 162.816H52.418V162.071C52.4271 161.447 51.9417 161.144 50.9619 161.162C50.6247 161.162 50.3444 161.199 50.1211 161.271C49.9069 161.358 49.7383 161.504 49.6152 161.709L48.4941 160.854C49.0365 160.144 49.8363 159.797 50.8936 159.815C51.7868 159.806 52.5 159.975 53.0332 160.321C53.5573 160.668 53.8285 161.278 53.8467 162.153V167H52.418V166.371H52.3906C52.2585 166.613 52.0534 166.79 51.7754 166.904C51.5202 167.023 51.1419 167.082 50.6406 167.082ZM50.8184 165.742C51.4199 165.76 51.8415 165.69 52.083 165.53C52.3063 165.38 52.418 165.038 52.418 164.505V163.992H50.709C49.8704 164.01 49.4603 164.295 49.4785 164.847C49.4785 165.088 49.5856 165.293 49.7998 165.462C50.014 165.649 50.3535 165.742 50.8184 165.742ZM55.6924 159.904H59.0967C59.7484 159.904 60.2679 160.077 60.6553 160.424C61.0426 160.766 61.2363 161.226 61.2363 161.805C61.2363 162.516 60.9059 163.024 60.2451 163.329C60.6006 163.489 60.874 163.705 61.0654 163.979C61.2568 164.247 61.3525 164.587 61.3525 164.997C61.3525 165.612 61.1634 166.1 60.7852 166.46C60.4069 166.82 59.8805 167 59.2061 167H55.6924V159.904ZM58.9258 165.811C59.2448 165.811 59.4954 165.724 59.6777 165.551C59.86 165.378 59.9512 165.147 59.9512 164.86C59.9512 164.56 59.86 164.327 59.6777 164.163C59.4954 163.999 59.2448 163.917 58.9258 163.917H57.1211V165.811H58.9258ZM58.8301 162.816C59.5 162.816 59.835 162.522 59.835 161.935C59.835 161.661 59.7484 161.454 59.5752 161.312C59.4066 161.167 59.1582 161.094 58.8301 161.094H57.1211V162.816H58.8301ZM62.0156 165.653H62.2412C62.3916 165.653 62.5306 165.642 62.6582 165.619C62.7904 165.596 62.9089 165.528 63.0137 165.414C63.123 165.296 63.2165 165.118 63.2939 164.881C63.376 164.644 63.4443 164.313 63.499 163.89C63.5583 163.461 63.6016 162.924 63.6289 162.276C63.6562 161.625 63.6699 160.834 63.6699 159.904H68.4688V167H67.0469V161.244H65.0303C65.0303 162.105 65.0052 162.846 64.9551 163.466C64.9095 164.086 64.8411 164.607 64.75 165.031C64.6634 165.455 64.5495 165.799 64.4082 166.063C64.2715 166.323 64.112 166.521 63.9297 166.658C63.7474 166.795 63.5423 166.886 63.3145 166.932C63.0866 166.977 62.8359 167 62.5625 167H62.0156V165.653ZM69.7334 165.653H70.0547C70.2507 165.653 70.4056 165.628 70.5195 165.578C70.638 165.528 70.7314 165.428 70.7998 165.277L71.0664 164.662C71.112 164.53 71.1667 164.416 71.2305 164.32C71.2988 164.22 71.3968 164.129 71.5244 164.047C71.0778 163.969 70.7223 163.751 70.458 163.391C70.1982 163.026 70.0684 162.577 70.0684 162.044C70.0684 161.374 70.2757 160.85 70.6904 160.472C71.1097 160.093 71.6725 159.904 72.3789 159.904H75.626V167H74.1973V164.272H73.623C73.2812 164.272 73.0283 164.325 72.8643 164.43C72.7002 164.53 72.5521 164.737 72.4199 165.052L72.0986 165.838C72.0166 166.052 71.9232 166.232 71.8184 166.378C71.7181 166.524 71.6019 166.645 71.4697 166.74C71.3376 166.831 71.1803 166.897 70.998 166.938C70.8203 166.979 70.6084 167 70.3623 167H69.7334V165.653ZM74.1973 163.097V161.189H72.5361C72.1807 161.189 71.9141 161.276 71.7363 161.449C71.5586 161.622 71.4697 161.857 71.4697 162.153C71.4697 162.782 71.8252 163.097 72.5361 163.097H74.1973ZM80.2744 167.082C79.8916 167.082 79.527 167.027 79.1807 166.918C79.0212 166.868 78.848 166.788 78.6611 166.679C78.4925 166.606 78.3262 166.499 78.1621 166.357C77.8522 166.075 77.6084 165.706 77.4307 165.25C77.2256 164.803 77.123 164.211 77.123 163.473C77.123 162.753 77.2119 162.169 77.3896 161.723C77.5765 161.226 77.8044 160.852 78.0732 160.602C78.3467 160.333 78.6634 160.132 79.0234 160C79.3607 159.877 79.7025 159.815 80.0488 159.815C80.86 159.834 81.5459 160.1 82.1064 160.615C82.667 161.139 82.9564 161.873 82.9746 162.816V163.992H78.5518C78.5518 164.562 78.7158 164.995 79.0439 165.291C79.3584 165.592 79.7594 165.742 80.2471 165.742C80.8258 165.742 81.3431 165.512 81.7988 165.052L82.8379 165.934C82.0996 166.708 81.2451 167.091 80.2744 167.082ZM81.5459 162.816C81.5277 162.274 81.3796 161.857 81.1016 161.565C80.8281 161.297 80.4772 161.162 80.0488 161.162C79.6204 161.162 79.2695 161.297 78.9961 161.565C78.7272 161.857 78.5791 162.274 78.5518 162.816H81.5459ZM84.4717 159.904H85.8867L88.0127 164.129L90.1318 159.904H91.5264V167H90.0977V162.447L88.4639 165.701H87.5684L85.9004 162.447V167H84.4717V159.904ZM96.7354 159.904H100.14C100.791 159.904 101.311 160.077 101.698 160.424C102.086 160.766 102.279 161.226 102.279 161.805C102.279 162.516 101.949 163.024 101.288 163.329C101.644 163.489 101.917 163.705 102.108 163.979C102.3 164.247 102.396 164.587 102.396 164.997C102.396 165.612 102.206 166.1 101.828 166.46C101.45 166.82 100.924 167 100.249 167H96.7354V159.904ZM99.9688 165.811C100.288 165.811 100.538 165.724 100.721 165.551C100.903 165.378 100.994 165.147 100.994 164.86C100.994 164.56 100.903 164.327 100.721 164.163C100.538 163.999 100.288 163.917 99.9688 163.917H98.1641V165.811H99.9688ZM99.873 162.816C100.543 162.816 100.878 162.522 100.878 161.935C100.878 161.661 100.791 161.454 100.618 161.312C100.45 161.167 100.201 161.094 99.873 161.094H98.1641V162.816H99.873ZM107.263 159.904H108.678L110.804 164.129L112.923 159.904H114.317V167H112.889V162.447L111.255 165.701H110.359L108.691 162.447V167H107.263V159.904ZM118.111 167.082C117.327 167.073 116.717 166.863 116.279 166.453C115.828 166.052 115.603 165.539 115.603 164.915C115.603 164.318 115.799 163.824 116.19 163.432C116.573 163.04 117.147 162.835 117.913 162.816H119.889V162.071C119.898 161.447 119.412 161.144 118.433 161.162C118.095 161.162 117.815 161.199 117.592 161.271C117.378 161.358 117.209 161.504 117.086 161.709L115.965 160.854C116.507 160.144 117.307 159.797 118.364 159.815C119.257 159.806 119.971 159.975 120.504 160.321C121.028 160.668 121.299 161.278 121.317 162.153V167H119.889V166.371H119.861C119.729 166.613 119.524 166.79 119.246 166.904C118.991 167.023 118.613 167.082 118.111 167.082ZM118.289 165.742C118.891 165.76 119.312 165.69 119.554 165.53C119.777 165.38 119.889 165.038 119.889 164.505V163.992H118.18C117.341 164.01 116.931 164.295 116.949 164.847C116.949 165.088 117.056 165.293 117.271 165.462C117.485 165.649 117.824 165.742 118.289 165.742ZM123.163 159.904H127.771V161.244H124.592V167H123.163V159.904ZM130.799 167.082C130.015 167.073 129.404 166.863 128.967 166.453C128.516 166.052 128.29 165.539 128.29 164.915C128.29 164.318 128.486 163.824 128.878 163.432C129.261 163.04 129.835 162.835 130.601 162.816H132.576V162.071C132.585 161.447 132.1 161.144 131.12 161.162C130.783 161.162 130.503 161.199 130.279 161.271C130.065 161.358 129.896 161.504 129.773 161.709L128.652 160.854C129.195 160.144 129.994 159.797 131.052 159.815C131.945 159.806 132.658 159.975 133.191 160.321C133.715 160.668 133.987 161.278 134.005 162.153V167H132.576V166.371H132.549C132.417 166.613 132.212 166.79 131.934 166.904C131.678 167.023 131.3 167.082 130.799 167.082ZM130.977 165.742C131.578 165.76 132 165.69 132.241 165.53C132.465 165.38 132.576 165.038 132.576 164.505V163.992H130.867C130.029 164.01 129.618 164.295 129.637 164.847C129.637 165.088 129.744 165.293 129.958 165.462C130.172 165.649 130.512 165.742 130.977 165.742ZM137.758 167.082C137.17 167.082 136.664 166.989 136.24 166.802C135.821 166.615 135.429 166.326 135.064 165.934L136.104 165.052C136.336 165.289 136.571 165.464 136.808 165.578C137.049 165.688 137.366 165.742 137.758 165.742C138.195 165.742 138.546 165.662 138.811 165.503C139.079 165.343 139.214 165.109 139.214 164.799C139.214 164.493 139.114 164.279 138.913 164.156C138.713 164.029 138.4 163.965 137.977 163.965H136.944V162.789H137.997C138.339 162.789 138.612 162.714 138.817 162.563C139.022 162.413 139.125 162.203 139.125 161.935C139.125 161.661 139.007 161.463 138.77 161.34C138.533 161.212 138.195 161.148 137.758 161.148C137.466 161.148 137.179 161.199 136.896 161.299C136.618 161.395 136.368 161.549 136.145 161.764L135.126 160.882C135.295 160.713 135.465 160.565 135.639 160.438C135.816 160.305 136.012 160.194 136.227 160.103C136.445 160.007 136.689 159.936 136.958 159.891C137.227 159.84 137.539 159.815 137.895 159.815C138.277 159.815 138.637 159.847 138.975 159.911C139.312 159.97 139.601 160.089 139.843 160.267C140.066 160.426 140.235 160.636 140.349 160.896C140.467 161.155 140.526 161.436 140.526 161.736C140.526 162.083 140.435 162.397 140.253 162.68C140.071 162.958 139.818 163.16 139.494 163.288C139.836 163.42 140.112 163.632 140.321 163.924C140.535 164.211 140.643 164.55 140.643 164.942C140.643 165.307 140.556 165.646 140.383 165.961C140.21 166.271 139.964 166.519 139.645 166.706C139.403 166.856 139.118 166.957 138.79 167.007C138.466 167.057 138.122 167.082 137.758 167.082ZM142.14 159.904H143.568V164.717L146.651 159.904H148.08V167H146.651V162.112L143.568 167H142.14V159.904ZM149.933 159.904H151.361V162.673H154.178V159.904H155.606V167H154.178V164.02H151.361V167H149.933V159.904ZM157.452 159.904H158.881V162.577H160.754C161.447 162.577 162.003 162.78 162.422 163.186C162.841 163.591 163.051 164.124 163.051 164.785C163.051 165.451 162.841 165.986 162.422 166.392C162.003 166.797 161.447 167 160.754 167H157.452V159.904ZM160.604 165.742C160.932 165.742 161.187 165.656 161.369 165.482C161.551 165.309 161.643 165.068 161.643 164.758C161.643 164.462 161.551 164.227 161.369 164.054C161.187 163.881 160.932 163.794 160.604 163.794H158.881V165.742H160.604ZM164.035 159.904H165.464V167H164.035V159.904ZM167.351 167V165.571H168.779V167H167.351Z" fill="white"/>
<path d="M266.948 40.3353L271.478 28.6135C272.172 26.819 274.751 26.9428 275.27 28.7955L278.463 40.2053C278.685 40.9995 279.372 41.5759 280.193 41.6566L291.587 42.7775C293.55 42.9706 294.078 45.5873 292.344 46.5265L281.246 52.5372C280.414 52.9875 280.012 53.9587 280.281 54.8652L284.188 68.0192C284.765 69.962 282.418 71.4322 280.922 70.0654L272.448 62.3264C271.718 61.6601 270.611 61.6264 269.843 62.2471L260.214 70.0206C258.604 71.3204 256.322 69.6191 257.108 67.705L262.158 55.4021C262.522 54.5138 262.204 53.4917 261.4 52.9673L251.004 46.1884C249.396 45.1401 250.044 42.6489 251.959 42.5178L265.219 41.6097C265.994 41.5566 266.668 41.0598 266.948 40.3353Z" fill="#8784D6"/>
</svg>
