<svg width="318" height="218" viewBox="0 0 318 218" fill="none" xmlns="http://www.w3.org/2000/svg">
<g clip-path="url(#clip0_3012_3)">
<path d="M318 33.797C318 23.1104 309.599 14.3118 298.924 13.8183L20.9235 0.967229C9.52744 0.440425 0 9.53765 0 20.9459V196.299C0 207.987 9.97955 217.185 21.6287 216.233L299.629 193.518C310.008 192.67 318 183.999 318 173.585V33.797Z" fill="#462B74"/>
<path d="M23.728 69V43.368H29.236C30.244 43.368 31.132 43.5 31.9 43.764C32.668 44.028 33.364 44.496 33.988 45.168C34.612 45.84 35.044 46.632 35.284 47.544C35.524 48.432 35.644 49.644 35.644 51.18C35.644 52.332 35.572 53.304 35.428 54.096C35.308 54.888 35.032 55.632 34.6 56.328C34.096 57.168 33.424 57.828 32.584 58.308C31.744 58.764 30.64 58.992 29.272 58.992H27.4V69H23.728ZM27.4 46.824V55.536H29.164C29.908 55.536 30.484 55.428 30.892 55.212C31.3 54.996 31.6 54.696 31.792 54.312C31.984 53.952 32.092 53.508 32.116 52.98C32.164 52.452 32.188 51.864 32.188 51.216C32.188 50.616 32.176 50.052 32.152 49.524C32.128 48.972 32.02 48.492 31.828 48.084C31.636 47.676 31.348 47.364 30.964 47.148C30.58 46.932 30.028 46.824 29.308 46.824H27.4ZM44.4682 60.036L42.6682 50.748H42.5962L40.7962 60.036H44.4682ZM35.3962 69L41.1202 43.368H44.1802L49.9042 69H46.2322L45.1522 63.492H40.1482L39.0682 69H35.3962ZM50.8928 49.848C50.8928 49.128 51.0368 48.312 51.3248 47.4C51.6368 46.488 52.1048 45.708 52.7288 45.06C53.2808 44.508 53.9048 44.052 54.6008 43.692C55.2968 43.332 56.1008 43.152 57.0128 43.152C58.0928 43.152 59.0168 43.344 59.7848 43.728C60.5768 44.088 61.2248 44.58 61.7288 45.204C62.2568 45.828 62.6408 46.572 62.8808 47.436C63.1208 48.3 63.2408 49.212 63.2408 50.172C63.2408 50.652 63.2288 51.144 63.2048 51.648C63.1808 52.128 63.0848 52.62 62.9168 53.124C62.7728 53.604 62.5208 54.06 62.1608 54.492C61.8248 54.924 61.3328 55.32 60.6848 55.68C61.3328 55.944 61.8248 56.292 62.1608 56.724C62.5208 57.132 62.7728 57.6 62.9168 58.128C63.0848 58.632 63.1808 59.196 63.2048 59.82C63.2288 60.42 63.2408 61.044 63.2408 61.692C63.2408 62.772 63.1208 63.78 62.8808 64.716C62.6648 65.652 62.2928 66.432 61.7648 67.056C61.2368 67.68 60.5648 68.196 59.7488 68.604C58.9568 69.012 57.9728 69.216 56.7968 69.216C55.9088 69.216 55.0808 69.06 54.3128 68.748C53.5448 68.436 52.8848 68.004 52.3328 67.452C51.7808 66.9 51.3608 66.192 51.0728 65.328C50.7848 64.464 50.6408 63.6 50.6408 62.736V61.764H54.3128L54.3488 62.772C54.3488 63.108 54.3848 63.444 54.4568 63.78C54.5528 64.092 54.6968 64.38 54.8888 64.644C55.0808 64.908 55.3328 65.124 55.6448 65.292C55.9568 65.46 56.3528 65.544 56.8328 65.544C57.9128 65.544 58.6328 65.208 58.9928 64.536C59.3768 63.84 59.5688 62.904 59.5688 61.728C59.5688 61.056 59.5448 60.432 59.4968 59.856C59.4488 59.256 59.3288 58.788 59.1368 58.452C58.7048 57.708 57.9848 57.336 56.9768 57.336H55.5728V54.096H57.0848C57.5408 54.096 57.9488 54.012 58.3088 53.844C58.6688 53.676 58.9568 53.388 59.1728 52.98C59.3648 52.596 59.4728 52.14 59.4968 51.612C59.5448 51.084 59.5688 50.616 59.5688 50.208C59.5688 49.776 59.5328 49.356 59.4608 48.948C59.3888 48.516 59.2568 48.144 59.0648 47.832C58.8728 47.544 58.6088 47.304 58.2728 47.112C57.9608 46.92 57.5528 46.824 57.0488 46.824C56.5928 46.824 56.2088 46.908 55.8968 47.076C55.6088 47.244 55.3688 47.46 55.1768 47.724C54.9608 48.012 54.8048 48.384 54.7088 48.84C54.6128 49.296 54.5648 49.74 54.5648 50.172V50.748H50.8928V49.848ZM66.7241 69V43.368H70.3961V54.348H74.9321V43.368H78.6041V69H74.9321V57.588H70.3961V69H66.7241ZM81.8362 49.416C81.8362 48.384 82.0162 47.472 82.3762 46.68C82.7362 45.888 83.2162 45.228 83.8162 44.7C84.3922 44.196 85.0402 43.812 85.7602 43.548C86.5042 43.284 87.2482 43.152 87.9922 43.152C88.7362 43.152 89.4682 43.284 90.1882 43.548C90.9322 43.812 91.6042 44.196 92.2042 44.7C92.7802 45.228 93.2482 45.888 93.6082 46.68C93.9682 47.472 94.1482 48.384 94.1482 49.416V62.952C94.1482 64.032 93.9682 64.956 93.6082 65.724C93.2482 66.492 92.7802 67.128 92.2042 67.632C91.6042 68.16 90.9322 68.556 90.1882 68.82C89.4682 69.084 88.7362 69.216 87.9922 69.216C87.2482 69.216 86.5042 69.084 85.7602 68.82C85.0402 68.556 84.3922 68.16 83.8162 67.632C83.2162 67.128 82.7362 66.492 82.3762 65.724C82.0162 64.956 81.8362 64.032 81.8362 62.952V49.416ZM85.5082 62.952C85.5082 63.84 85.7482 64.5 86.2282 64.932C86.7322 65.34 87.3202 65.544 87.9922 65.544C88.6642 65.544 89.2402 65.34 89.7202 64.932C90.2242 64.5 90.4762 63.84 90.4762 62.952V49.416C90.4762 48.528 90.2242 47.88 89.7202 47.472C89.2402 47.04 88.6642 46.824 87.9922 46.824C87.3202 46.824 86.7322 47.04 86.2282 47.472C85.7482 47.88 85.5082 48.528 85.5082 49.416V62.952ZM97.1643 49.416C97.1643 48.384 97.3443 47.472 97.7043 46.68C98.0643 45.888 98.5443 45.228 99.1443 44.7C99.7203 44.196 100.368 43.812 101.088 43.548C101.832 43.284 102.576 43.152 103.32 43.152C104.064 43.152 104.796 43.284 105.516 43.548C106.26 43.812 106.932 44.196 107.532 44.7C108.108 45.228 108.576 45.888 108.936 46.68C109.296 47.472 109.476 48.384 109.476 49.416V62.952C109.476 64.032 109.296 64.956 108.936 65.724C108.576 66.492 108.108 67.128 107.532 67.632C106.932 68.16 106.26 68.556 105.516 68.82C104.796 69.084 104.064 69.216 103.32 69.216C102.576 69.216 101.832 69.084 101.088 68.82C100.368 68.556 99.7203 68.16 99.1443 67.632C98.5443 67.128 98.0643 66.492 97.7043 65.724C97.3443 64.956 97.1643 64.032 97.1643 62.952V49.416ZM100.836 62.952C100.836 63.84 101.076 64.5 101.556 64.932C102.06 65.34 102.648 65.544 103.32 65.544C103.992 65.544 104.568 65.34 105.048 64.932C105.552 64.5 105.804 63.84 105.804 62.952V49.416C105.804 48.528 105.552 47.88 105.048 47.472C104.568 47.04 103.992 46.824 103.32 46.824C102.648 46.824 102.06 47.04 101.556 47.472C101.076 47.88 100.836 48.528 100.836 49.416V62.952ZM112.708 43.368H123.22V46.824H116.38V53.88H117.82C119.092 53.88 120.148 54.048 120.988 54.384C121.852 54.72 122.548 55.2 123.076 55.824C123.628 56.496 123.976 57.228 124.12 58.02C124.264 58.788 124.348 59.64 124.372 60.576V62.016C124.372 64.272 123.82 66 122.716 67.2C121.636 68.4 119.896 69 117.496 69H112.708V43.368ZM116.38 57.12V65.328H117.748C118.492 65.328 119.068 65.22 119.476 65.004C119.908 64.788 120.232 64.488 120.448 64.104C120.664 63.72 120.796 63.264 120.844 62.736C120.892 62.208 120.916 61.632 120.916 61.008C120.916 60.36 120.868 59.796 120.772 59.316C120.7 58.812 120.544 58.404 120.304 58.092C120.064 57.78 119.752 57.54 119.368 57.372C118.984 57.204 118.456 57.12 117.784 57.12H116.38ZM127.263 69V43.368H132.771C133.779 43.368 134.667 43.5 135.435 43.764C136.203 44.028 136.899 44.496 137.523 45.168C138.147 45.84 138.579 46.632 138.819 47.544C139.059 48.432 139.179 49.644 139.179 51.18C139.179 52.332 139.107 53.304 138.963 54.096C138.843 54.888 138.567 55.632 138.135 56.328C137.631 57.168 136.959 57.828 136.119 58.308C135.279 58.764 134.175 58.992 132.807 58.992H130.935V69H127.263ZM130.935 46.824V55.536H132.699C133.443 55.536 134.019 55.428 134.427 55.212C134.835 54.996 135.135 54.696 135.327 54.312C135.519 53.952 135.627 53.508 135.651 52.98C135.699 52.452 135.723 51.864 135.723 51.216C135.723 50.616 135.711 50.052 135.687 49.524C135.663 48.972 135.555 48.492 135.363 48.084C135.171 47.676 134.883 47.364 134.499 47.148C134.115 46.932 133.563 46.824 132.843 46.824H130.935ZM148.003 60.036L146.203 50.748H146.131L144.331 60.036H148.003ZM138.931 69L144.655 43.368H147.715L153.439 69H149.767L148.687 63.492H143.683L142.603 69H138.931ZM154.428 49.848C154.428 49.128 154.572 48.312 154.86 47.4C155.172 46.488 155.64 45.708 156.264 45.06C156.816 44.508 157.44 44.052 158.136 43.692C158.832 43.332 159.636 43.152 160.548 43.152C161.628 43.152 162.552 43.344 163.32 43.728C164.112 44.088 164.76 44.58 165.264 45.204C165.792 45.828 166.176 46.572 166.416 47.436C166.656 48.3 166.776 49.212 166.776 50.172C166.776 50.652 166.764 51.144 166.74 51.648C166.716 52.128 166.62 52.62 166.452 53.124C166.308 53.604 166.056 54.06 165.696 54.492C165.36 54.924 164.868 55.32 164.22 55.68C164.868 55.944 165.36 56.292 165.696 56.724C166.056 57.132 166.308 57.6 166.452 58.128C166.62 58.632 166.716 59.196 166.74 59.82C166.764 60.42 166.776 61.044 166.776 61.692C166.776 62.772 166.656 63.78 166.416 64.716C166.2 65.652 165.828 66.432 165.3 67.056C164.772 67.68 164.1 68.196 163.284 68.604C162.492 69.012 161.508 69.216 160.332 69.216C159.444 69.216 158.616 69.06 157.848 68.748C157.08 68.436 156.42 68.004 155.868 67.452C155.316 66.9 154.896 66.192 154.608 65.328C154.32 64.464 154.176 63.6 154.176 62.736V61.764H157.848L157.884 62.772C157.884 63.108 157.92 63.444 157.992 63.78C158.088 64.092 158.232 64.38 158.424 64.644C158.616 64.908 158.868 65.124 159.18 65.292C159.492 65.46 159.888 65.544 160.368 65.544C161.448 65.544 162.168 65.208 162.528 64.536C162.912 63.84 163.104 62.904 163.104 61.728C163.104 61.056 163.08 60.432 163.032 59.856C162.984 59.256 162.864 58.788 162.672 58.452C162.24 57.708 161.52 57.336 160.512 57.336H159.108V54.096H160.62C161.076 54.096 161.484 54.012 161.844 53.844C162.204 53.676 162.492 53.388 162.708 52.98C162.9 52.596 163.008 52.14 163.032 51.612C163.08 51.084 163.104 50.616 163.104 50.208C163.104 49.776 163.068 49.356 162.996 48.948C162.924 48.516 162.792 48.144 162.6 47.832C162.408 47.544 162.144 47.304 161.808 47.112C161.496 46.92 161.088 46.824 160.584 46.824C160.128 46.824 159.744 46.908 159.432 47.076C159.144 47.244 158.904 47.46 158.712 47.724C158.496 48.012 158.34 48.384 158.244 48.84C158.148 49.296 158.1 49.74 158.1 50.172V50.748H154.428V49.848ZM178.827 69V52.368H178.755L173.931 69H170.259V43.368H173.931V60.036H174.003L178.827 43.368H182.499V69H178.827ZM185.939 69V43.368H196.883V46.824H189.611V54.348H195.947V57.804H189.611V65.328H196.883V69H185.939Z" fill="white"/>
<path d="M269.378 59.9708L267.261 65.7375C266.774 67.0642 267.779 68.4636 269.192 68.4259L286.005 67.9766C286.826 67.9547 287.55 67.4331 287.831 66.6614L289.754 61.3791C290.041 60.589 290.792 60.0605 291.619 59.9085C295.297 59.2328 303 56.23 303 48.7388C303 45.2376 299.959 43.6409 297.456 42.8929C296.176 42.5105 295.267 41.0252 295.186 39.692C295.039 37.2755 293.853 34.0811 290.233 32.694C284.288 30.4163 281.215 34.2297 279.508 37.1413C278.841 38.2799 277.168 38.6638 275.894 38.3181C272.46 37.3861 266.461 37.4844 263.69 42.3206C259.419 49.7748 264.107 54.9992 268.211 57.2181C269.2 57.7529 269.765 58.9151 269.378 59.9708Z" fill="#8784D6"/>
<path d="M22.768 123V111.608H24.336L26.432 117.64H26.464L28.544 111.608H30.128V123H28.496V116.072H28.464L26.848 120.968H26.032L24.432 116.072H24.4V123H22.768ZM31.5626 123V114.888H33.1946V118.088H33.5946C34.0213 118.088 34.3946 118.131 34.7146 118.216C35.0453 118.291 35.3173 118.424 35.5306 118.616C35.7546 118.808 35.92 119.064 36.0266 119.384C36.144 119.704 36.2026 120.099 36.2026 120.568C36.2026 120.909 36.1493 121.24 36.0426 121.56C35.9466 121.869 35.792 122.136 35.5786 122.36C35.3226 122.627 35.0186 122.803 34.6666 122.888C34.3146 122.963 33.9626 123 33.6106 123H31.5626ZM33.1946 121.64H33.7546C33.9893 121.64 34.1973 121.565 34.3786 121.416C34.5706 121.256 34.6666 120.973 34.6666 120.568C34.6666 120.237 34.6026 119.971 34.4746 119.768C34.3573 119.555 34.1066 119.448 33.7226 119.448H33.1946V121.64ZM36.9066 123V114.888H38.5386V123H36.9066ZM42.8439 123V114.888H47.7239V123H46.0919V116.248H44.4759V123H42.8439ZM49.0001 126.28V114.888H50.6321V115.624C50.8348 115.389 51.0428 115.192 51.2561 115.032C51.4695 114.872 51.7788 114.792 52.1841 114.792C52.8561 114.792 53.3308 115.048 53.6081 115.56C53.7041 115.741 53.7735 115.965 53.8161 116.232C53.8588 116.499 53.8801 116.856 53.8801 117.304V120.392C53.8801 120.989 53.8641 121.421 53.8321 121.688C53.7681 122.221 53.5228 122.621 53.0961 122.888C52.8828 123.027 52.5735 123.096 52.1681 123.096C51.8481 123.096 51.5601 123.027 51.3041 122.888C51.0588 122.739 50.8455 122.531 50.6641 122.264H50.6321V126.28H49.0001ZM52.2481 117.528C52.2481 117.197 52.1841 116.931 52.0561 116.728C51.9281 116.525 51.7255 116.424 51.4481 116.424C51.2028 116.424 51.0055 116.52 50.8561 116.712C50.7068 116.893 50.6321 117.133 50.6321 117.432V120.584C50.6321 120.84 50.7068 121.053 50.8561 121.224C51.0161 121.384 51.2135 121.464 51.4481 121.464C51.7575 121.464 51.9655 121.368 52.0721 121.176C52.1895 120.984 52.2481 120.76 52.2481 120.504V117.528ZM59.9389 119.56H56.7069V120.664C56.7069 120.92 56.7762 121.117 56.9149 121.256C57.0642 121.395 57.2615 121.464 57.5069 121.464C57.8162 121.464 58.0189 121.373 58.1149 121.192C58.2215 121.011 58.2855 120.829 58.3069 120.648H59.9389C59.9389 121.363 59.7202 121.939 59.2829 122.376C59.0695 122.6 58.8135 122.776 58.5149 122.904C58.2162 123.032 57.8802 123.096 57.5069 123.096C56.9949 123.096 56.5575 122.989 56.1949 122.776C55.8429 122.563 55.5709 122.28 55.3789 121.928C55.2615 121.715 55.1815 121.469 55.1389 121.192C55.0962 120.915 55.0749 120.611 55.0749 120.28V117.608C55.0749 117.277 55.0962 116.973 55.1389 116.696C55.1815 116.419 55.2615 116.173 55.3789 115.96C55.5709 115.608 55.8429 115.325 56.1949 115.112C56.5575 114.899 56.9949 114.792 57.5069 114.792C57.8802 114.792 58.2162 114.856 58.5149 114.984C58.8242 115.112 59.0855 115.288 59.2989 115.512C59.7255 115.992 59.9389 116.595 59.9389 117.32V119.56ZM56.7069 118.28H58.3069V117.352C58.3069 117.043 58.2322 116.813 58.0829 116.664C57.9442 116.504 57.7522 116.424 57.5069 116.424C57.2615 116.424 57.0642 116.504 56.9149 116.664C56.7762 116.813 56.7069 117.043 56.7069 117.352V118.28ZM61.6424 123V124.6H60.2664V121.64H61.0024C61.1197 121.416 61.221 121.117 61.3064 120.744C61.4024 120.371 61.477 119.976 61.5304 119.56C61.573 119.219 61.5997 118.867 61.6104 118.504C61.621 118.141 61.6264 117.811 61.6264 117.512V114.888H66.1064V121.64H66.8744V124.6H65.4984V123H61.6424ZM63.1624 116.248V117.464C63.1624 117.603 63.157 117.773 63.1464 117.976C63.1357 118.168 63.1197 118.371 63.0984 118.584C63.0877 118.787 63.0717 118.989 63.0504 119.192C63.0397 119.384 63.0237 119.549 63.0024 119.688C62.9597 119.965 62.8904 120.296 62.7944 120.68C62.709 121.053 62.6077 121.373 62.4904 121.64H64.4744V116.248H63.1624ZM67.4558 121.464C67.5731 121.464 67.6904 121.432 67.8078 121.368C67.9358 121.304 68.0638 121.192 68.1918 121.032C68.2984 120.904 68.3838 120.723 68.4478 120.488C68.5118 120.243 68.5598 119.992 68.5918 119.736C68.6238 119.469 68.6451 119.219 68.6558 118.984C68.6664 118.739 68.6718 118.552 68.6718 118.424V114.888H73.1518V123H71.5198V116.248H70.2078V117.752C70.2078 118.125 70.1971 118.504 70.1758 118.888C70.1544 119.261 70.1171 119.624 70.0638 119.976C70.0211 120.317 69.9624 120.637 69.8878 120.936C69.8131 121.235 69.7171 121.491 69.5998 121.704C69.3758 122.12 69.0824 122.44 68.7198 122.664C68.3571 122.888 67.9464 123 67.4878 123H67.3758V121.464H67.4558ZM77.5881 123V122.168H77.5561C77.3428 122.467 77.1241 122.696 76.9001 122.856C76.6868 123.016 76.3828 123.096 75.9881 123.096C75.7961 123.096 75.5988 123.064 75.3961 123C75.2041 122.947 75.0175 122.84 74.8361 122.68C74.6548 122.531 74.5055 122.317 74.3881 122.04C74.2815 121.752 74.2281 121.384 74.2281 120.936C74.2281 120.477 74.2655 120.077 74.3401 119.736C74.4148 119.384 74.5535 119.091 74.7561 118.856C74.9481 118.632 75.2095 118.467 75.5401 118.36C75.8708 118.243 76.2921 118.184 76.8041 118.184C76.8575 118.184 76.9161 118.184 76.9801 118.184C77.0441 118.184 77.1028 118.189 77.1561 118.2C77.2095 118.211 77.2735 118.216 77.3481 118.216C77.4228 118.216 77.5028 118.221 77.5881 118.232V117.384C77.5881 117.107 77.5295 116.877 77.4121 116.696C77.2948 116.515 77.0815 116.424 76.7721 116.424C76.5588 116.424 76.3615 116.493 76.1801 116.632C76.0095 116.771 75.8975 116.973 75.8441 117.24H74.2601C74.3028 116.515 74.5481 115.928 74.9961 115.48C75.2095 115.267 75.4655 115.101 75.7641 114.984C76.0628 114.856 76.3988 114.792 76.7721 114.792C77.1135 114.792 77.4335 114.845 77.7321 114.952C78.0308 115.059 78.2921 115.219 78.5161 115.432C78.7295 115.645 78.9001 115.912 79.0281 116.232C79.1561 116.552 79.2201 116.925 79.2201 117.352V123H77.5881ZM77.5881 119.512C77.4068 119.48 77.2575 119.464 77.1401 119.464C76.7881 119.464 76.4841 119.549 76.2281 119.72C75.9828 119.88 75.8601 120.179 75.8601 120.616C75.8601 120.925 75.9348 121.176 76.0841 121.368C76.2335 121.56 76.4415 121.656 76.7081 121.656C76.9855 121.656 77.1988 121.565 77.3481 121.384C77.5081 121.203 77.5881 120.947 77.5881 120.616V119.512ZM80.422 123V114.888H84.294V116.328H82.054V123H80.422ZM87.9788 123V122.168H87.9468C87.7334 122.467 87.5148 122.696 87.2908 122.856C87.0774 123.016 86.7734 123.096 86.3788 123.096C86.1868 123.096 85.9894 123.064 85.7868 123C85.5948 122.947 85.4081 122.84 85.2268 122.68C85.0454 122.531 84.8961 122.317 84.7788 122.04C84.6721 121.752 84.6188 121.384 84.6188 120.936C84.6188 120.477 84.6561 120.077 84.7308 119.736C84.8054 119.384 84.9441 119.091 85.1468 118.856C85.3388 118.632 85.6001 118.467 85.9308 118.36C86.2614 118.243 86.6828 118.184 87.1948 118.184C87.2481 118.184 87.3068 118.184 87.3708 118.184C87.4348 118.184 87.4934 118.189 87.5468 118.2C87.6001 118.211 87.6641 118.216 87.7388 118.216C87.8134 118.216 87.8934 118.221 87.9788 118.232V117.384C87.9788 117.107 87.9201 116.877 87.8028 116.696C87.6854 116.515 87.4721 116.424 87.1628 116.424C86.9494 116.424 86.7521 116.493 86.5707 116.632C86.4001 116.771 86.2881 116.973 86.2348 117.24H84.6508C84.6934 116.515 84.9388 115.928 85.3868 115.48C85.6001 115.267 85.8561 115.101 86.1548 114.984C86.4534 114.856 86.7894 114.792 87.1628 114.792C87.5041 114.792 87.8241 114.845 88.1228 114.952C88.4214 115.059 88.6828 115.219 88.9068 115.432C89.1201 115.645 89.2908 115.912 89.4188 116.232C89.5468 116.552 89.6108 116.925 89.6108 117.352V123H87.9788ZM87.9788 119.512C87.7974 119.48 87.6481 119.464 87.5308 119.464C87.1788 119.464 86.8748 119.549 86.6188 119.72C86.3734 119.88 86.2508 120.179 86.2508 120.616C86.2508 120.925 86.3254 121.176 86.4748 121.368C86.6241 121.56 86.8321 121.656 87.0988 121.656C87.3761 121.656 87.5894 121.565 87.7388 121.384C87.8988 121.203 87.9788 120.947 87.9788 120.616V119.512ZM95.5326 119.56H92.3006V120.664C92.3006 120.92 92.37 121.117 92.5086 121.256C92.658 121.395 92.8553 121.464 93.1006 121.464C93.41 121.464 93.6126 121.373 93.7086 121.192C93.8153 121.011 93.8793 120.829 93.9006 120.648H95.5326C95.5326 121.363 95.314 121.939 94.8766 122.376C94.6633 122.6 94.4073 122.776 94.1086 122.904C93.81 123.032 93.474 123.096 93.1006 123.096C92.5886 123.096 92.1513 122.989 91.7886 122.776C91.4366 122.563 91.1646 122.28 90.9726 121.928C90.8553 121.715 90.7753 121.469 90.7326 121.192C90.69 120.915 90.6686 120.611 90.6686 120.28V117.608C90.6686 117.277 90.69 116.973 90.7326 116.696C90.7753 116.419 90.8553 116.173 90.9726 115.96C91.1646 115.608 91.4366 115.325 91.7886 115.112C92.1513 114.899 92.5886 114.792 93.1006 114.792C93.474 114.792 93.81 114.856 94.1086 114.984C94.418 115.112 94.6793 115.288 94.8926 115.512C95.3193 115.992 95.5326 116.595 95.5326 117.32V119.56ZM92.3006 118.28H93.9006V117.352C93.9006 117.043 93.826 116.813 93.6766 116.664C93.538 116.504 93.346 116.424 93.1006 116.424C92.8553 116.424 92.658 116.504 92.5086 116.664C92.37 116.813 92.3006 117.043 92.3006 117.352V118.28ZM96.7345 123V114.888H98.3985L100.047 119.24H100.079L101.727 114.888H103.391V123H101.823V118.088H101.791L100.479 121.672H99.6465L98.3345 118.088H98.3025V123H96.7345ZM115.255 114.888V123H107.703V114.888H109.335V121.64H110.663V114.888H112.295V121.64H113.623V114.888H115.255ZM120.098 123V117.848H120.066L118.258 123H116.594V114.888H118.13V120.04H118.162L119.954 114.888H121.634V123H120.098ZM122.985 126.28V114.888H124.617V115.624C124.819 115.389 125.027 115.192 125.241 115.032C125.454 114.872 125.763 114.792 126.169 114.792C126.841 114.792 127.315 115.048 127.593 115.56C127.689 115.741 127.758 115.965 127.801 116.232C127.843 116.499 127.865 116.856 127.865 117.304V120.392C127.865 120.989 127.849 121.421 127.817 121.688C127.753 122.221 127.507 122.621 127.081 122.888C126.867 123.027 126.558 123.096 126.153 123.096C125.833 123.096 125.545 123.027 125.289 122.888C125.043 122.739 124.83 122.531 124.649 122.264H124.617V126.28H122.985ZM126.233 117.528C126.233 117.197 126.169 116.931 126.041 116.728C125.913 116.525 125.71 116.424 125.433 116.424C125.187 116.424 124.99 116.52 124.841 116.712C124.691 116.893 124.617 117.133 124.617 117.432V120.584C124.617 120.84 124.691 121.053 124.841 121.224C125.001 121.384 125.198 121.464 125.433 121.464C125.742 121.464 125.95 121.368 126.057 121.176C126.174 120.984 126.233 120.76 126.233 120.504V117.528ZM129.059 117.608C129.059 117.277 129.081 116.973 129.123 116.696C129.166 116.419 129.246 116.173 129.363 115.96C129.555 115.608 129.827 115.325 130.179 115.112C130.542 114.899 130.979 114.792 131.491 114.792C132.003 114.792 132.435 114.899 132.787 115.112C133.15 115.325 133.427 115.608 133.619 115.96C133.737 116.173 133.817 116.419 133.859 116.696C133.902 116.973 133.923 117.277 133.923 117.608V120.28C133.923 120.611 133.902 120.915 133.859 121.192C133.817 121.469 133.737 121.715 133.619 121.928C133.427 122.28 133.15 122.563 132.787 122.776C132.435 122.989 132.003 123.096 131.491 123.096C130.979 123.096 130.542 122.989 130.179 122.776C129.827 122.563 129.555 122.28 129.363 121.928C129.246 121.715 129.166 121.469 129.123 121.192C129.081 120.915 129.059 120.611 129.059 120.28V117.608ZM130.691 120.536C130.691 120.845 130.761 121.08 130.899 121.24C131.049 121.389 131.246 121.464 131.491 121.464C131.737 121.464 131.929 121.389 132.067 121.24C132.217 121.08 132.291 120.845 132.291 120.536V117.352C132.291 117.043 132.217 116.813 132.067 116.664C131.929 116.504 131.737 116.424 131.491 116.424C131.246 116.424 131.049 116.504 130.899 116.664C130.761 116.813 130.691 117.043 130.691 117.352V120.536ZM135.125 123V114.888H136.757V118.2H137.381C137.626 118.2 137.792 118.115 137.877 117.944C137.962 117.773 138.032 117.56 138.085 117.304L138.261 116.376C138.325 116.131 138.405 115.912 138.501 115.72C138.608 115.517 138.746 115.357 138.917 115.24C139.098 115.112 139.306 115.021 139.541 114.968C139.786 114.915 140.064 114.888 140.373 114.888H140.405V116.328H140.357C140.165 116.328 140.005 116.365 139.877 116.44C139.749 116.504 139.658 116.659 139.605 116.904L139.445 117.8C139.434 117.832 139.418 117.896 139.397 117.992C139.386 118.088 139.36 118.195 139.317 118.312C139.274 118.419 139.216 118.525 139.141 118.632C139.077 118.739 138.992 118.819 138.885 118.872L140.517 123H138.853L137.557 119.56H136.757V123H135.125ZM144.817 123V117.848H144.785L142.977 123H141.313V114.888H142.849V120.04H142.881L144.673 114.888H146.353V123H144.817ZM151.207 123V117.848H151.175L149.367 123H147.703V114.888H149.239V120.04H149.271L151.063 114.888H152.743V123H151.207ZM149.415 111.88C149.426 111.944 149.431 112.024 149.431 112.12C149.442 112.205 149.469 112.296 149.511 112.392C149.565 112.477 149.645 112.552 149.751 112.616C149.858 112.68 150.013 112.712 150.215 112.712C150.418 112.712 150.573 112.68 150.679 112.616C150.786 112.552 150.861 112.477 150.903 112.392C150.957 112.296 150.983 112.205 150.983 112.12C150.994 112.024 151.005 111.944 151.015 111.88H152.375C152.322 112.477 152.125 112.936 151.783 113.256C151.453 113.576 150.93 113.736 150.215 113.736C149.501 113.736 148.973 113.576 148.631 113.256C148.301 112.925 148.109 112.467 148.055 111.88H149.415ZM160.151 123V122.168H160.119C159.905 122.467 159.687 122.696 159.463 122.856C159.249 123.016 158.945 123.096 158.551 123.096C158.359 123.096 158.161 123.064 157.959 123C157.767 122.947 157.58 122.84 157.399 122.68C157.217 122.531 157.068 122.317 156.951 122.04C156.844 121.752 156.791 121.384 156.791 120.936C156.791 120.477 156.828 120.077 156.903 119.736C156.977 119.384 157.116 119.091 157.319 118.856C157.511 118.632 157.772 118.467 158.103 118.36C158.433 118.243 158.855 118.184 159.367 118.184C159.42 118.184 159.479 118.184 159.543 118.184C159.607 118.184 159.665 118.189 159.719 118.2C159.772 118.211 159.836 118.216 159.911 118.216C159.985 118.216 160.065 118.221 160.151 118.232V117.384C160.151 117.107 160.092 116.877 159.975 116.696C159.857 116.515 159.644 116.424 159.335 116.424C159.121 116.424 158.924 116.493 158.743 116.632C158.572 116.771 158.46 116.973 158.407 117.24H156.823C156.865 116.515 157.111 115.928 157.559 115.48C157.772 115.267 158.028 115.101 158.327 114.984C158.625 114.856 158.961 114.792 159.335 114.792C159.676 114.792 159.996 114.845 160.295 114.952C160.593 115.059 160.855 115.219 161.079 115.432C161.292 115.645 161.463 115.912 161.591 116.232C161.719 116.552 161.783 116.925 161.783 117.352V123H160.151ZM160.151 119.512C159.969 119.48 159.82 119.464 159.703 119.464C159.351 119.464 159.047 119.549 158.791 119.72C158.545 119.88 158.423 120.179 158.423 120.616C158.423 120.925 158.497 121.176 158.647 121.368C158.796 121.56 159.004 121.656 159.271 121.656C159.548 121.656 159.761 121.565 159.911 121.384C160.071 121.203 160.151 120.947 160.151 120.616V119.512ZM164.713 120.664C164.713 120.92 164.782 121.117 164.921 121.256C165.07 121.395 165.267 121.464 165.513 121.464C165.822 121.464 166.025 121.373 166.121 121.192C166.227 121.011 166.291 120.829 166.312 120.648H167.945C167.945 121.363 167.726 121.939 167.289 122.376C167.075 122.6 166.819 122.776 166.521 122.904C166.222 123.032 165.886 123.096 165.513 123.096C165.001 123.096 164.563 122.989 164.201 122.776C163.849 122.563 163.577 122.28 163.385 121.928C163.267 121.715 163.187 121.469 163.145 121.192C163.102 120.915 163.081 120.611 163.081 120.28V117.608C163.081 117.277 163.102 116.973 163.145 116.696C163.187 116.419 163.267 116.173 163.385 115.96C163.577 115.608 163.849 115.325 164.201 115.112C164.563 114.899 165.001 114.792 165.513 114.792C165.886 114.792 166.222 114.856 166.521 114.984C166.83 115.112 167.091 115.288 167.305 115.512C167.731 115.992 167.945 116.616 167.945 117.384H166.312C166.312 117.053 166.238 116.813 166.089 116.664C165.95 116.504 165.758 116.424 165.513 116.424C165.267 116.424 165.07 116.504 164.921 116.664C164.782 116.813 164.713 117.043 164.713 117.352V120.664ZM170.322 120.664C170.322 120.92 170.391 121.117 170.53 121.256C170.679 121.395 170.877 121.464 171.122 121.464C171.431 121.464 171.634 121.373 171.73 121.192C171.837 121.011 171.901 120.829 171.922 120.648H173.554C173.554 121.363 173.335 121.939 172.898 122.376C172.685 122.6 172.429 122.776 172.13 122.904C171.831 123.032 171.495 123.096 171.122 123.096C170.61 123.096 170.173 122.989 169.81 122.776C169.458 122.563 169.186 122.28 168.994 121.928C168.877 121.715 168.797 121.469 168.754 121.192C168.711 120.915 168.69 120.611 168.69 120.28V117.608C168.69 117.277 168.711 116.973 168.754 116.696C168.797 116.419 168.877 116.173 168.994 115.96C169.186 115.608 169.458 115.325 169.81 115.112C170.173 114.899 170.61 114.792 171.122 114.792C171.495 114.792 171.831 114.856 172.13 114.984C172.439 115.112 172.701 115.288 172.914 115.512C173.341 115.992 173.554 116.616 173.554 117.384H171.922C171.922 117.053 171.847 116.813 171.698 116.664C171.559 116.504 171.367 116.424 171.122 116.424C170.877 116.424 170.679 116.504 170.53 116.664C170.391 116.813 170.322 117.043 170.322 117.352V120.664ZM174.372 117.608C174.372 117.277 174.393 116.973 174.436 116.696C174.478 116.419 174.558 116.173 174.676 115.96C174.868 115.608 175.14 115.325 175.492 115.112C175.854 114.899 176.292 114.792 176.804 114.792C177.316 114.792 177.748 114.899 178.1 115.112C178.462 115.325 178.74 115.608 178.932 115.96C179.049 116.173 179.129 116.419 179.172 116.696C179.214 116.973 179.236 117.277 179.236 117.608V120.28C179.236 120.611 179.214 120.915 179.172 121.192C179.129 121.469 179.049 121.715 178.932 121.928C178.74 122.28 178.462 122.563 178.1 122.776C177.748 122.989 177.316 123.096 176.804 123.096C176.292 123.096 175.854 122.989 175.492 122.776C175.14 122.563 174.868 122.28 174.676 121.928C174.558 121.715 174.478 121.469 174.436 121.192C174.393 120.915 174.372 120.611 174.372 120.28V117.608ZM176.004 120.536C176.004 120.845 176.073 121.08 176.212 121.24C176.361 121.389 176.558 121.464 176.804 121.464C177.049 121.464 177.241 121.389 177.38 121.24C177.529 121.08 177.604 120.845 177.604 120.536V117.352C177.604 117.043 177.529 116.813 177.38 116.664C177.241 116.504 177.049 116.424 176.804 116.424C176.558 116.424 176.361 116.504 176.212 116.664C176.073 116.813 176.004 117.043 176.004 117.352V120.536ZM180.438 126.28V114.888H182.07V115.624C182.272 115.389 182.48 115.192 182.694 115.032C182.907 114.872 183.216 114.792 183.622 114.792C184.294 114.792 184.768 115.048 185.046 115.56C185.142 115.741 185.211 115.965 185.254 116.232C185.296 116.499 185.318 116.856 185.318 117.304V120.392C185.318 120.989 185.302 121.421 185.27 121.688C185.206 122.221 184.96 122.621 184.534 122.888C184.32 123.027 184.011 123.096 183.606 123.096C183.286 123.096 182.998 123.027 182.742 122.888C182.496 122.739 182.283 122.531 182.102 122.264H182.07V126.28H180.438ZM183.686 117.528C183.686 117.197 183.622 116.931 183.494 116.728C183.366 116.525 183.163 116.424 182.886 116.424C182.64 116.424 182.443 116.52 182.294 116.712C182.144 116.893 182.07 117.133 182.07 117.432V120.584C182.07 120.84 182.144 121.053 182.294 121.224C182.454 121.384 182.651 121.464 182.886 121.464C183.195 121.464 183.403 121.368 183.51 121.176C183.627 120.984 183.686 120.76 183.686 120.504V117.528ZM187.506 123V116.328H185.906V114.888H190.738V116.328H189.138V123H187.506ZM194.91 123V117.848H194.878L193.07 123H191.406V114.888H192.942V120.04H192.974L194.766 114.888H196.446V123H194.91ZM197.797 123V114.888H199.461L201.109 119.24H201.141L202.789 114.888H204.453V123H202.885V118.088H202.853L201.541 121.672H200.709L199.397 118.088H199.365V123H197.797ZM210.517 119.56H207.285V120.664C207.285 120.92 207.354 121.117 207.493 121.256C207.642 121.395 207.84 121.464 208.085 121.464C208.394 121.464 208.597 121.373 208.693 121.192C208.8 121.011 208.864 120.829 208.885 120.648H210.517C210.517 121.363 210.298 121.939 209.861 122.376C209.648 122.6 209.392 122.776 209.093 122.904C208.794 123.032 208.458 123.096 208.085 123.096C207.573 123.096 207.136 122.989 206.773 122.776C206.421 122.563 206.149 122.28 205.957 121.928C205.84 121.715 205.76 121.469 205.717 121.192C205.674 120.915 205.653 120.611 205.653 120.28V117.608C205.653 117.277 205.674 116.973 205.717 116.696C205.76 116.419 205.84 116.173 205.957 115.96C206.149 115.608 206.421 115.325 206.773 115.112C207.136 114.899 207.573 114.792 208.085 114.792C208.458 114.792 208.794 114.856 209.093 114.984C209.402 115.112 209.664 115.288 209.877 115.512C210.304 115.992 210.517 116.595 210.517 117.32V119.56ZM207.285 118.28H208.885V117.352C208.885 117.043 208.81 116.813 208.661 116.664C208.522 116.504 208.33 116.424 208.085 116.424C207.84 116.424 207.642 116.504 207.493 116.664C207.354 116.813 207.285 117.043 207.285 117.352V118.28ZM211.719 123V114.888H213.351V118.2H214.999V114.888H216.631V123H214.999V119.56H213.351V123H211.719ZM218.897 123V116.328H217.297V114.888H222.129V116.328H220.529V123H218.897ZM22.672 144V135.888H27.552V144H25.92V137.248H24.304V144H22.672ZM28.6842 138.608C28.6842 138.277 28.7056 137.973 28.7483 137.696C28.7909 137.419 28.8709 137.173 28.9883 136.96C29.1803 136.608 29.4523 136.325 29.8043 136.112C30.1669 135.899 30.6043 135.792 31.1163 135.792C31.6283 135.792 32.0603 135.899 32.4123 136.112C32.7749 136.325 33.0523 136.608 33.2443 136.96C33.3616 137.173 33.4416 137.419 33.4843 137.696C33.5269 137.973 33.5483 138.277 33.5483 138.608V141.28C33.5483 141.611 33.5269 141.915 33.4843 142.192C33.4416 142.469 33.3616 142.715 33.2443 142.928C33.0523 143.28 32.7749 143.563 32.4123 143.776C32.0603 143.989 31.6283 144.096 31.1163 144.096C30.6043 144.096 30.1669 143.989 29.8043 143.776C29.4523 143.563 29.1803 143.28 28.9883 142.928C28.8709 142.715 28.7909 142.469 28.7483 142.192C28.7056 141.915 28.6842 141.611 28.6842 141.28V138.608ZM30.3163 141.536C30.3163 141.845 30.3856 142.08 30.5243 142.24C30.6736 142.389 30.8709 142.464 31.1163 142.464C31.3616 142.464 31.5536 142.389 31.6923 142.24C31.8416 142.08 31.9163 141.845 31.9163 141.536V138.352C31.9163 138.043 31.8416 137.813 31.6923 137.664C31.5536 137.504 31.3616 137.424 31.1163 137.424C30.8709 137.424 30.6736 137.504 30.5243 137.664C30.3856 137.813 30.3163 138.043 30.3163 138.352V141.536ZM34.1901 142.464C34.3075 142.464 34.4248 142.432 34.5421 142.368C34.6701 142.304 34.7981 142.192 34.9261 142.032C35.0328 141.904 35.1181 141.723 35.1821 141.488C35.2461 141.243 35.2941 140.992 35.3261 140.736C35.3581 140.469 35.3795 140.219 35.3901 139.984C35.4008 139.739 35.4061 139.552 35.4061 139.424V135.888H39.8861V144H38.2541V137.248H36.9421V138.752C36.9421 139.125 36.9315 139.504 36.9101 139.888C36.8888 140.261 36.8515 140.624 36.7981 140.976C36.7555 141.317 36.6968 141.637 36.6221 141.936C36.5475 142.235 36.4515 142.491 36.3341 142.704C36.1101 143.12 35.8168 143.44 35.4541 143.664C35.0915 143.888 34.6808 144 34.2221 144H34.1101V142.464H34.1901ZM40.5465 135.888H42.2745L43.3945 140.944H43.4265L44.5305 135.888H46.2105L43.8745 145.408C43.7892 145.771 43.6665 146.069 43.5065 146.304C43.3572 146.539 43.1812 146.731 42.9785 146.88C42.7758 147.029 42.5572 147.131 42.3225 147.184C42.0985 147.248 41.8638 147.28 41.6185 147.28H41.1705V145.744H41.5385C41.6985 145.744 41.8372 145.723 41.9545 145.68C42.0718 145.637 42.1785 145.541 42.2745 145.392C42.3598 145.243 42.4398 145.029 42.5145 144.752C42.5892 144.485 42.6745 144.112 42.7705 143.632L40.5465 135.888ZM51.3715 136.528C51.4035 136.485 51.4515 136.427 51.5155 136.352C51.5902 136.267 51.6808 136.187 51.7875 136.112C51.8942 136.027 52.0222 135.957 52.1715 135.904C52.3208 135.851 52.4862 135.824 52.6675 135.824C52.9768 135.824 53.2382 135.883 53.4515 136C53.6648 136.117 53.8462 136.299 53.9955 136.544C54.1128 136.725 54.2088 136.981 54.2835 137.312C54.3582 137.632 54.3955 138.016 54.3955 138.464V141.392C54.3955 141.68 54.3742 141.984 54.3315 142.304C54.2995 142.624 54.2302 142.896 54.1235 143.12C53.9848 143.408 53.7875 143.637 53.5315 143.808C53.2862 143.979 53.0035 144.064 52.6835 144.064C52.3635 144.064 52.1022 144.005 51.8995 143.888C51.7075 143.771 51.5422 143.637 51.4035 143.488H51.3715V147.28H49.7395V143.488H49.7075C49.5688 143.637 49.3982 143.771 49.1955 143.888C49.0035 144.005 48.7475 144.064 48.4275 144.064C48.1075 144.064 47.8195 143.979 47.5635 143.808C47.3182 143.637 47.1262 143.408 46.9875 143.12C46.8808 142.896 46.8062 142.624 46.7635 142.304C46.7315 141.984 46.7155 141.68 46.7155 141.392V138.464C46.7155 138.016 46.7528 137.632 46.8275 137.312C46.9022 136.981 46.9982 136.725 47.1155 136.544C47.4142 136.064 47.8568 135.824 48.4435 135.824C48.6248 135.824 48.7902 135.851 48.9395 135.904C49.0888 135.957 49.2168 136.027 49.3235 136.112C49.4302 136.187 49.5155 136.267 49.5795 136.352C49.6542 136.427 49.7075 136.485 49.7395 136.528V132.608H51.3715V136.528ZM48.3475 141.504C48.3475 141.76 48.3902 141.984 48.4755 142.176C48.5608 142.368 48.7582 142.464 49.0675 142.464C49.2808 142.464 49.4515 142.389 49.5795 142.24C49.7075 142.091 49.7715 141.957 49.7715 141.84V138.064C49.7715 137.925 49.7022 137.787 49.5635 137.648C49.4248 137.499 49.2488 137.424 49.0355 137.424C48.7582 137.424 48.5715 137.525 48.4755 137.728C48.3902 137.931 48.3475 138.197 48.3475 138.528V141.504ZM52.7635 138.528C52.7635 138.197 52.7155 137.931 52.6195 137.728C52.5342 137.525 52.3528 137.424 52.0755 137.424C51.8622 137.424 51.6862 137.499 51.5475 137.648C51.4088 137.787 51.3395 137.925 51.3395 138.064V141.84C51.3395 141.957 51.4035 142.091 51.5315 142.24C51.6595 142.389 51.8302 142.464 52.0435 142.464C52.3528 142.464 52.5502 142.368 52.6355 142.176C52.7208 141.984 52.7635 141.76 52.7635 141.504V138.528ZM58.6819 144V143.168H58.6499C58.4365 143.467 58.2179 143.696 57.9939 143.856C57.7805 144.016 57.4765 144.096 57.0819 144.096C56.8899 144.096 56.6925 144.064 56.4899 144C56.2979 143.947 56.1112 143.84 55.9299 143.68C55.7485 143.531 55.5992 143.317 55.4819 143.04C55.3752 142.752 55.3219 142.384 55.3219 141.936C55.3219 141.477 55.3592 141.077 55.4339 140.736C55.5085 140.384 55.6472 140.091 55.8499 139.856C56.0419 139.632 56.3032 139.467 56.6339 139.36C56.9645 139.243 57.3859 139.184 57.8979 139.184C57.9512 139.184 58.0099 139.184 58.0739 139.184C58.1379 139.184 58.1965 139.189 58.2499 139.2C58.3032 139.211 58.3672 139.216 58.4419 139.216C58.5165 139.216 58.5965 139.221 58.6819 139.232V138.384C58.6819 138.107 58.6232 137.877 58.5059 137.696C58.3885 137.515 58.1752 137.424 57.8659 137.424C57.6525 137.424 57.4552 137.493 57.2739 137.632C57.1032 137.771 56.9912 137.973 56.9379 138.24H55.3539C55.3965 137.515 55.6419 136.928 56.0899 136.48C56.3032 136.267 56.5592 136.101 56.8579 135.984C57.1565 135.856 57.4925 135.792 57.8659 135.792C58.2072 135.792 58.5272 135.845 58.8259 135.952C59.1245 136.059 59.3859 136.219 59.6099 136.432C59.8232 136.645 59.9939 136.912 60.1219 137.232C60.2499 137.552 60.3139 137.925 60.3139 138.352V144H58.6819ZM58.6819 140.512C58.5005 140.48 58.3512 140.464 58.2339 140.464C57.8819 140.464 57.5779 140.549 57.3219 140.72C57.0765 140.88 56.9539 141.179 56.9539 141.616C56.9539 141.925 57.0285 142.176 57.1779 142.368C57.3272 142.56 57.5352 142.656 57.8019 142.656C58.0792 142.656 58.2925 142.565 58.4419 142.384C58.6019 142.203 58.6819 141.947 58.6819 141.616V140.512ZM66.1718 132.608C66.1718 132.96 66.1184 133.259 66.0118 133.504C65.9158 133.739 65.7878 133.936 65.6278 134.096C65.4678 134.245 65.2811 134.373 65.0677 134.48C64.8651 134.576 64.6571 134.667 64.4438 134.752C64.1664 134.859 63.8998 134.971 63.6438 135.088C63.3984 135.195 63.2011 135.344 63.0518 135.536C62.9344 135.685 62.8651 135.856 62.8438 136.048C62.8224 136.24 62.8118 136.485 62.8118 136.784H62.8438C63.0038 136.517 63.2171 136.288 63.4838 136.096C63.7611 135.893 64.0544 135.792 64.3638 135.792C64.6838 135.792 64.9611 135.829 65.1958 135.904C65.4304 135.979 65.6384 136.123 65.8198 136.336C66.0331 136.613 66.1558 136.939 66.1878 137.312C66.2198 137.675 66.2358 138.053 66.2358 138.448V141.28C66.2358 141.611 66.2144 141.915 66.1718 142.192C66.1291 142.469 66.0491 142.715 65.9318 142.928C65.7398 143.28 65.4624 143.563 65.0998 143.776C64.7478 143.989 64.3158 144.096 63.8038 144.096C63.2918 144.096 62.8544 143.989 62.4918 143.776C62.1398 143.563 61.8678 143.28 61.6758 142.928C61.5584 142.715 61.4784 142.469 61.4358 142.192C61.3931 141.915 61.3717 141.611 61.3717 141.28V137.088C61.3717 136.448 61.4091 135.952 61.4838 135.6C61.5584 135.237 61.7131 134.912 61.9478 134.624C62.1824 134.347 62.4598 134.133 62.7798 133.984C63.1104 133.824 63.4038 133.691 63.6598 133.584C63.8304 133.509 63.9691 133.44 64.0758 133.376C64.1931 133.312 64.2838 133.248 64.3478 133.184C64.4118 133.109 64.4544 133.029 64.4758 132.944C64.5078 132.848 64.5291 132.736 64.5398 132.608H66.1718ZM63.0038 141.536C63.0038 141.845 63.0731 142.08 63.2118 142.24C63.3611 142.389 63.5584 142.464 63.8038 142.464C64.0491 142.464 64.2411 142.389 64.3798 142.24C64.5291 142.08 64.6038 141.845 64.6038 141.536V138.352C64.6038 138.043 64.5291 137.813 64.3798 137.664C64.2411 137.504 64.0491 137.424 63.8038 137.424C63.5584 137.424 63.3611 137.504 63.2118 137.664C63.0731 137.813 63.0038 138.043 63.0038 138.352V141.536ZM67.4533 147.28V135.888H69.0853V136.624C69.2879 136.389 69.4959 136.192 69.7093 136.032C69.9226 135.872 70.2319 135.792 70.6373 135.792C71.3093 135.792 71.7839 136.048 72.0613 136.56C72.1573 136.741 72.2266 136.965 72.2693 137.232C72.3119 137.499 72.3333 137.856 72.3333 138.304V141.392C72.3333 141.989 72.3173 142.421 72.2853 142.688C72.2213 143.221 71.9759 143.621 71.5493 143.888C71.3359 144.027 71.0266 144.096 70.6213 144.096C70.3013 144.096 70.0133 144.027 69.7573 143.888C69.5119 143.739 69.2986 143.531 69.1173 143.264H69.0853V147.28H67.4533ZM70.7013 138.528C70.7013 138.197 70.6373 137.931 70.5093 137.728C70.3813 137.525 70.1786 137.424 69.9013 137.424C69.6559 137.424 69.4586 137.52 69.3093 137.712C69.1599 137.893 69.0853 138.133 69.0853 138.432V141.584C69.0853 141.84 69.1599 142.053 69.3093 142.224C69.4693 142.384 69.6666 142.464 69.9013 142.464C70.2106 142.464 70.4186 142.368 70.5253 142.176C70.6426 141.984 70.7013 141.76 70.7013 141.504V138.528ZM77.176 144V138.848H77.144L75.336 144H73.672V135.888H75.208V141.04H75.24L77.032 135.888H78.712V144H77.176ZM80.0626 144V135.888H81.6946V139.2H82.3186C82.564 139.2 82.7293 139.115 82.8146 138.944C82.9 138.773 82.9693 138.56 83.0226 138.304L83.1986 137.376C83.2626 137.131 83.3426 136.912 83.4386 136.72C83.5453 136.517 83.684 136.357 83.8546 136.24C84.036 136.112 84.244 136.021 84.4786 135.968C84.724 135.915 85.0013 135.888 85.3106 135.888H85.3426V137.328H85.2946C85.1026 137.328 84.9426 137.365 84.8146 137.44C84.6866 137.504 84.596 137.659 84.5426 137.904L84.3826 138.8C84.372 138.832 84.356 138.896 84.3346 138.992C84.324 139.088 84.2973 139.195 84.2546 139.312C84.212 139.419 84.1533 139.525 84.0786 139.632C84.0146 139.739 83.9293 139.819 83.8226 139.872L85.4546 144H83.7906L82.4946 140.56H81.6946V144H80.0626ZM89.26 144V143.168H89.228C89.0147 143.467 88.796 143.696 88.572 143.856C88.3587 144.016 88.0547 144.096 87.66 144.096C87.468 144.096 87.2707 144.064 87.068 144C86.876 143.947 86.6893 143.84 86.508 143.68C86.3267 143.531 86.1773 143.317 86.06 143.04C85.9533 142.752 85.9 142.384 85.9 141.936C85.9 141.477 85.9373 141.077 86.012 140.736C86.0867 140.384 86.2253 140.091 86.428 139.856C86.62 139.632 86.8813 139.467 87.212 139.36C87.5427 139.243 87.964 139.184 88.476 139.184C88.5293 139.184 88.588 139.184 88.652 139.184C88.716 139.184 88.7747 139.189 88.828 139.2C88.8813 139.211 88.9453 139.216 89.02 139.216C89.0947 139.216 89.1747 139.221 89.26 139.232V138.384C89.26 138.107 89.2013 137.877 89.084 137.696C88.9667 137.515 88.7533 137.424 88.444 137.424C88.2307 137.424 88.0333 137.493 87.852 137.632C87.6813 137.771 87.5693 137.973 87.516 138.24H85.932C85.9747 137.515 86.22 136.928 86.668 136.48C86.8813 136.267 87.1373 136.101 87.436 135.984C87.7347 135.856 88.0707 135.792 88.444 135.792C88.7853 135.792 89.1053 135.845 89.404 135.952C89.7027 136.059 89.964 136.219 90.188 136.432C90.4013 136.645 90.572 136.912 90.7 137.232C90.828 137.552 90.892 137.925 90.892 138.352V144H89.26ZM89.26 140.512C89.0787 140.48 88.9293 140.464 88.812 140.464C88.46 140.464 88.156 140.549 87.9 140.72C87.6547 140.88 87.532 141.179 87.532 141.616C87.532 141.925 87.6067 142.176 87.756 142.368C87.9053 142.56 88.1133 142.656 88.38 142.656C88.6573 142.656 88.8707 142.565 89.02 142.384C89.18 142.203 89.26 141.947 89.26 141.616V140.512ZM93.0219 144V137.328H91.4219V135.888H96.2539V137.328H94.6539V144H93.0219ZM96.6999 138.608C96.6999 138.277 96.7212 137.973 96.7639 137.696C96.8065 137.419 96.8865 137.173 97.0039 136.96C97.1959 136.608 97.4679 136.325 97.8199 136.112C98.1825 135.899 98.6199 135.792 99.1319 135.792C99.6439 135.792 100.076 135.899 100.428 136.112C100.791 136.325 101.068 136.608 101.26 136.96C101.377 137.173 101.457 137.419 101.5 137.696C101.543 137.973 101.564 138.277 101.564 138.608V141.28C101.564 141.611 101.543 141.915 101.5 142.192C101.457 142.469 101.377 142.715 101.26 142.928C101.068 143.28 100.791 143.563 100.428 143.776C100.076 143.989 99.6439 144.096 99.1319 144.096C98.6199 144.096 98.1825 143.989 97.8199 143.776C97.4679 143.563 97.1959 143.28 97.0039 142.928C96.8865 142.715 96.8065 142.469 96.7639 142.192C96.7212 141.915 96.6999 141.611 96.6999 141.28V138.608ZM98.3319 141.536C98.3319 141.845 98.4012 142.08 98.5399 142.24C98.6892 142.389 98.8865 142.464 99.1319 142.464C99.3772 142.464 99.5692 142.389 99.7079 142.24C99.8572 142.08 99.9319 141.845 99.9319 141.536V138.352C99.9319 138.043 99.8572 137.813 99.7079 137.664C99.5692 137.504 99.3772 137.424 99.1319 137.424C98.8865 137.424 98.6892 137.504 98.5399 137.664C98.4012 137.813 98.3319 138.043 98.3319 138.352V141.536ZM102.766 144V135.888H104.878C105.198 135.888 105.528 135.92 105.87 135.984C106.211 136.048 106.52 136.197 106.798 136.432C107.054 136.645 107.23 136.896 107.326 137.184C107.432 137.472 107.486 137.787 107.486 138.128C107.486 138.245 107.475 138.384 107.454 138.544C107.432 138.693 107.39 138.848 107.326 139.008C107.262 139.168 107.166 139.328 107.038 139.488C106.92 139.637 106.76 139.765 106.558 139.872C106.782 139.957 106.963 140.064 107.102 140.192C107.24 140.32 107.347 140.464 107.422 140.624C107.507 140.784 107.56 140.955 107.582 141.136C107.614 141.307 107.63 141.477 107.63 141.648C107.63 141.989 107.582 142.304 107.486 142.592C107.4 142.88 107.251 143.136 107.038 143.36C106.782 143.627 106.467 143.803 106.094 143.888C105.72 143.963 105.358 144 105.006 144H102.766ZM104.398 142.64H105.054C105.171 142.64 105.283 142.629 105.39 142.608C105.507 142.576 105.608 142.523 105.694 142.448C105.79 142.373 105.864 142.272 105.918 142.144C105.971 142.016 105.998 141.851 105.998 141.648C105.998 141.317 105.934 141.051 105.806 140.848C105.688 140.635 105.438 140.528 105.054 140.528H104.398V142.64ZM104.398 139.248H105.038C105.368 139.248 105.598 139.147 105.726 138.944C105.854 138.741 105.918 138.469 105.918 138.128C105.918 137.883 105.843 137.675 105.694 137.504C105.544 137.333 105.336 137.248 105.07 137.248H104.398V139.248ZM111.766 144V135.888H113.878C114.198 135.888 114.528 135.92 114.87 135.984C115.211 136.048 115.52 136.197 115.798 136.432C116.054 136.645 116.23 136.896 116.326 137.184C116.432 137.472 116.486 137.787 116.486 138.128C116.486 138.245 116.475 138.384 116.454 138.544C116.432 138.693 116.39 138.848 116.326 139.008C116.262 139.168 116.166 139.328 116.038 139.488C115.92 139.637 115.76 139.765 115.558 139.872C115.782 139.957 115.963 140.064 116.102 140.192C116.24 140.32 116.347 140.464 116.422 140.624C116.507 140.784 116.56 140.955 116.582 141.136C116.614 141.307 116.63 141.477 116.63 141.648C116.63 141.989 116.582 142.304 116.486 142.592C116.4 142.88 116.251 143.136 116.038 143.36C115.782 143.627 115.467 143.803 115.094 143.888C114.72 143.963 114.358 144 114.006 144H111.766ZM113.398 142.64H114.054C114.171 142.64 114.283 142.629 114.39 142.608C114.507 142.576 114.608 142.523 114.694 142.448C114.79 142.373 114.864 142.272 114.918 142.144C114.971 142.016 114.998 141.851 114.998 141.648C114.998 141.317 114.934 141.051 114.806 140.848C114.688 140.635 114.438 140.528 114.054 140.528H113.398V142.64ZM113.398 139.248H114.038C114.368 139.248 114.598 139.147 114.726 138.944C114.854 138.741 114.918 138.469 114.918 138.128C114.918 137.883 114.843 137.675 114.694 137.504C114.544 137.333 114.336 137.248 114.07 137.248H113.398V139.248ZM120.766 147.28V135.888H122.398V136.624C122.6 136.389 122.808 136.192 123.022 136.032C123.235 135.872 123.544 135.792 123.95 135.792C124.622 135.792 125.096 136.048 125.374 136.56C125.47 136.741 125.539 136.965 125.582 137.232C125.624 137.499 125.646 137.856 125.646 138.304V141.392C125.646 141.989 125.63 142.421 125.598 142.688C125.534 143.221 125.288 143.621 124.862 143.888C124.648 144.027 124.339 144.096 123.934 144.096C123.614 144.096 123.326 144.027 123.07 143.888C122.824 143.739 122.611 143.531 122.43 143.264H122.398V147.28H120.766ZM124.014 138.528C124.014 138.197 123.95 137.931 123.822 137.728C123.694 137.525 123.491 137.424 123.214 137.424C122.968 137.424 122.771 137.52 122.622 137.712C122.472 137.893 122.398 138.133 122.398 138.432V141.584C122.398 141.84 122.472 142.053 122.622 142.224C122.782 142.384 122.979 142.464 123.214 142.464C123.523 142.464 123.731 142.368 123.838 142.176C123.955 141.984 124.014 141.76 124.014 141.504V138.528ZM130.073 144V143.168H130.041C129.827 143.467 129.609 143.696 129.385 143.856C129.171 144.016 128.867 144.096 128.473 144.096C128.281 144.096 128.083 144.064 127.881 144C127.689 143.947 127.502 143.84 127.321 143.68C127.139 143.531 126.99 143.317 126.873 143.04C126.766 142.752 126.713 142.384 126.713 141.936C126.713 141.477 126.75 141.077 126.825 140.736C126.899 140.384 127.038 140.091 127.241 139.856C127.433 139.632 127.694 139.467 128.025 139.36C128.355 139.243 128.777 139.184 129.289 139.184C129.342 139.184 129.401 139.184 129.465 139.184C129.529 139.184 129.587 139.189 129.641 139.2C129.694 139.211 129.758 139.216 129.833 139.216C129.907 139.216 129.987 139.221 130.073 139.232V138.384C130.073 138.107 130.014 137.877 129.897 137.696C129.779 137.515 129.566 137.424 129.257 137.424C129.043 137.424 128.846 137.493 128.664 137.632C128.494 137.771 128.382 137.973 128.329 138.24H126.745C126.787 137.515 127.033 136.928 127.481 136.48C127.694 136.267 127.95 136.101 128.249 135.984C128.547 135.856 128.883 135.792 129.257 135.792C129.598 135.792 129.918 135.845 130.217 135.952C130.515 136.059 130.777 136.219 131.001 136.432C131.214 136.645 131.385 136.912 131.513 137.232C131.641 137.552 131.705 137.925 131.705 138.352V144H130.073ZM130.073 140.512C129.891 140.48 129.742 140.464 129.625 140.464C129.273 140.464 128.969 140.549 128.713 140.72C128.467 140.88 128.345 141.179 128.345 141.616C128.345 141.925 128.419 142.176 128.569 142.368C128.718 142.56 128.926 142.656 129.193 142.656C129.47 142.656 129.683 142.565 129.833 142.384C129.993 142.203 130.073 141.947 130.073 141.616V140.512ZM132.538 138.16C132.56 137.84 132.629 137.541 132.746 137.264C132.874 136.976 133.04 136.725 133.242 136.512C133.456 136.288 133.706 136.112 133.994 135.984C134.282 135.856 134.597 135.792 134.938 135.792C135.28 135.792 135.605 135.851 135.914 135.968C136.234 136.075 136.506 136.235 136.73 136.448C136.944 136.651 137.109 136.896 137.226 137.184C137.354 137.461 137.418 137.776 137.418 138.128C137.418 138.245 137.408 138.384 137.386 138.544C137.365 138.693 137.317 138.848 137.242 139.008C137.178 139.168 137.077 139.328 136.938 139.488C136.81 139.637 136.634 139.765 136.41 139.872C136.645 139.957 136.837 140.064 136.986 140.192C137.146 140.32 137.264 140.464 137.338 140.624C137.424 140.784 137.482 140.955 137.514 141.136C137.546 141.307 137.562 141.477 137.562 141.648C137.562 141.979 137.509 142.277 137.402 142.544C137.296 142.811 137.136 143.061 136.922 143.296C136.688 143.552 136.4 143.749 136.058 143.888C135.728 144.027 135.365 144.096 134.97 144.096C134.213 144.096 133.6 143.845 133.13 143.344C132.714 142.896 132.49 142.331 132.458 141.648H133.994C134.016 141.936 134.101 142.16 134.25 142.32C134.41 142.48 134.645 142.56 134.954 142.56C135.232 142.56 135.45 142.48 135.61 142.32C135.781 142.149 135.866 141.904 135.866 141.584C135.866 141.275 135.797 141.029 135.658 140.848C135.53 140.656 135.29 140.56 134.938 140.56H134.426V139.2H134.874C135.194 139.2 135.424 139.12 135.562 138.96C135.712 138.8 135.786 138.539 135.786 138.176C135.786 137.941 135.712 137.744 135.562 137.584C135.413 137.413 135.205 137.328 134.938 137.328C134.725 137.328 134.533 137.392 134.362 137.52C134.192 137.637 134.096 137.851 134.074 138.16H132.538ZM138.766 144V135.888H140.398V139.2H142.046V135.888H143.678V144H142.046V140.56H140.398V144H138.766ZM145.016 144V135.888H146.648V139.088H147.048C147.474 139.088 147.848 139.131 148.168 139.216C148.498 139.291 148.77 139.424 148.984 139.616C149.208 139.808 149.373 140.064 149.48 140.384C149.597 140.704 149.656 141.099 149.656 141.568C149.656 141.909 149.602 142.24 149.496 142.56C149.4 142.869 149.245 143.136 149.032 143.36C148.776 143.627 148.472 143.803 148.12 143.888C147.768 143.963 147.416 144 147.064 144H145.016ZM146.648 142.64H147.208C147.442 142.64 147.65 142.565 147.832 142.416C148.024 142.256 148.12 141.973 148.12 141.568C148.12 141.237 148.056 140.971 147.928 140.768C147.81 140.555 147.56 140.448 147.176 140.448H146.648V142.64ZM150.36 144V135.888H151.992V144H150.36ZM152.48 144L154.48 139.856L152.576 135.888H154.304L155.312 138.192L156.32 135.888H158.048L156.112 139.856L158.144 144H156.416L155.312 141.52L154.208 144H152.48ZM161.61 144V135.888H163.274L164.922 140.24H164.954L166.602 135.888H168.266V144H166.698V139.088H166.666L165.354 142.672H164.522L163.21 139.088H163.178V144H161.61ZM172.602 144V140.768H171.898L170.874 144H169.21L170.426 140.528C170.18 140.421 169.983 140.272 169.834 140.08C169.695 139.888 169.588 139.685 169.514 139.472C169.45 139.259 169.407 139.051 169.386 138.848C169.375 138.645 169.37 138.485 169.37 138.368C169.37 138.027 169.428 137.669 169.546 137.296C169.663 136.923 169.86 136.624 170.138 136.4C170.415 136.165 170.708 136.021 171.018 135.968C171.338 135.915 171.658 135.888 171.978 135.888H174.234V144H172.602ZM172.602 137.248H171.802C171.482 137.248 171.268 137.365 171.162 137.6C171.055 137.835 171.002 138.112 171.002 138.432C171.002 139.125 171.3 139.472 171.898 139.472H172.602V137.248ZM177.306 141.664C177.306 141.92 177.376 142.117 177.514 142.256C177.664 142.395 177.861 142.464 178.106 142.464C178.416 142.464 178.618 142.373 178.714 142.192C178.821 142.011 178.885 141.829 178.906 141.648H180.538C180.538 142.363 180.32 142.939 179.882 143.376C179.669 143.6 179.413 143.776 179.114 143.904C178.816 144.032 178.48 144.096 178.106 144.096C177.594 144.096 177.157 143.989 176.794 143.776C176.442 143.563 176.17 143.28 175.978 142.928C175.861 142.715 175.781 142.469 175.738 142.192C175.696 141.915 175.674 141.611 175.674 141.28V138.608C175.674 138.277 175.696 137.973 175.738 137.696C175.781 137.419 175.861 137.173 175.978 136.96C176.17 136.608 176.442 136.325 176.794 136.112C177.157 135.899 177.594 135.792 178.106 135.792C178.48 135.792 178.816 135.856 179.114 135.984C179.424 136.112 179.685 136.288 179.898 136.512C180.325 136.992 180.538 137.616 180.538 138.384H178.906C178.906 138.053 178.832 137.813 178.682 137.664C178.544 137.504 178.352 137.424 178.106 137.424C177.861 137.424 177.664 137.504 177.514 137.664C177.376 137.813 177.306 138.043 177.306 138.352V141.664ZM181.5 144V135.888H183.132V139.2H184.78V135.888H186.412V144H184.78V140.56H183.132V144H181.5ZM187.75 144V135.888H189.382V139.088H189.782C190.209 139.088 190.582 139.131 190.902 139.216C191.233 139.291 191.505 139.424 191.718 139.616C191.942 139.808 192.107 140.064 192.214 140.384C192.331 140.704 192.39 141.099 192.39 141.568C192.39 141.909 192.337 142.24 192.23 142.56C192.134 142.869 191.979 143.136 191.766 143.36C191.51 143.627 191.206 143.803 190.854 143.888C190.502 143.963 190.15 144 189.798 144H187.75ZM189.382 142.64H189.942C190.177 142.64 190.385 142.565 190.566 142.416C190.758 142.256 190.854 141.973 190.854 141.568C190.854 141.237 190.79 140.971 190.662 140.768C190.545 140.555 190.294 140.448 189.91 140.448H189.382V142.64ZM193.094 144V135.888H194.726V144H193.094ZM195.215 144L197.215 139.856L195.311 135.888H197.039L198.047 138.192L199.055 135.888H200.783L198.847 139.856L200.879 144H199.151L198.047 141.52L196.943 144H195.215ZM204.344 144V135.888H205.976V139.2H206.6C206.845 139.2 207.011 139.115 207.096 138.944C207.181 138.773 207.251 138.56 207.304 138.304L207.48 137.376C207.544 137.131 207.624 136.912 207.72 136.72C207.827 136.517 207.965 136.357 208.136 136.24C208.317 136.112 208.525 136.021 208.76 135.968C209.005 135.915 209.283 135.888 209.592 135.888H209.624V137.328H209.576C209.384 137.328 209.224 137.365 209.096 137.44C208.968 137.504 208.877 137.659 208.824 137.904L208.664 138.8C208.653 138.832 208.637 138.896 208.616 138.992C208.605 139.088 208.579 139.195 208.536 139.312C208.493 139.419 208.435 139.525 208.36 139.632C208.296 139.739 208.211 139.819 208.104 139.872L209.736 144H208.072L206.776 140.56H205.976V144H204.344ZM213.541 144V143.168H213.509C213.296 143.467 213.077 143.696 212.853 143.856C212.64 144.016 212.336 144.096 211.941 144.096C211.749 144.096 211.552 144.064 211.349 144C211.157 143.947 210.971 143.84 210.789 143.68C210.608 143.531 210.459 143.317 210.341 143.04C210.235 142.752 210.181 142.384 210.181 141.936C210.181 141.477 210.219 141.077 210.293 140.736C210.368 140.384 210.507 140.091 210.709 139.856C210.901 139.632 211.163 139.467 211.493 139.36C211.824 139.243 212.245 139.184 212.757 139.184C212.811 139.184 212.869 139.184 212.933 139.184C212.997 139.184 213.056 139.189 213.109 139.2C213.163 139.211 213.227 139.216 213.301 139.216C213.376 139.216 213.456 139.221 213.541 139.232V138.384C213.541 138.107 213.483 137.877 213.365 137.696C213.248 137.515 213.035 137.424 212.725 137.424C212.512 137.424 212.315 137.493 212.133 137.632C211.963 137.771 211.851 137.973 211.797 138.24H210.213C210.256 137.515 210.501 136.928 210.949 136.48C211.163 136.267 211.419 136.101 211.717 135.984C212.016 135.856 212.352 135.792 212.725 135.792C213.067 135.792 213.387 135.845 213.685 135.952C213.984 136.059 214.245 136.219 214.469 136.432C214.683 136.645 214.853 136.912 214.981 137.232C215.109 137.552 215.173 137.925 215.173 138.352V144H213.541ZM213.541 140.512C213.36 140.48 213.211 140.464 213.093 140.464C212.741 140.464 212.437 140.549 212.181 140.72C211.936 140.88 211.813 141.179 211.813 141.616C211.813 141.925 211.888 142.176 212.037 142.368C212.187 142.56 212.395 142.656 212.661 142.656C212.939 142.656 213.152 142.565 213.301 142.384C213.461 142.203 213.541 141.947 213.541 141.616V140.512ZM217.303 144V137.328H215.703V135.888H220.535V137.328H218.935V144H217.303ZM225.923 140.56H222.691V141.664C222.691 141.92 222.761 142.117 222.899 142.256C223.049 142.395 223.246 142.464 223.491 142.464C223.801 142.464 224.003 142.373 224.099 142.192C224.206 142.011 224.27 141.829 224.291 141.648H225.923C225.923 142.363 225.705 142.939 225.267 143.376C225.054 143.6 224.798 143.776 224.499 143.904C224.201 144.032 223.865 144.096 223.491 144.096C222.979 144.096 222.542 143.989 222.179 143.776C221.827 143.563 221.555 143.28 221.363 142.928C221.246 142.715 221.166 142.469 221.123 142.192C221.081 141.915 221.059 141.611 221.059 141.28V138.608C221.059 138.277 221.081 137.973 221.123 137.696C221.166 137.419 221.246 137.173 221.363 136.96C221.555 136.608 221.827 136.325 222.179 136.112C222.542 135.899 222.979 135.792 223.491 135.792C223.865 135.792 224.201 135.856 224.499 135.984C224.809 136.112 225.07 136.288 225.283 136.512C225.71 136.992 225.923 137.595 225.923 138.32V140.56ZM222.691 139.28H224.291V138.352C224.291 138.043 224.217 137.813 224.067 137.664C223.929 137.504 223.737 137.424 223.491 137.424C223.246 137.424 223.049 137.504 222.899 137.664C222.761 137.813 222.691 138.043 222.691 138.352V139.28ZM227.125 144V135.888H230.997V137.328H228.757V144H227.125ZM231.372 138.608C231.372 138.277 231.393 137.973 231.436 137.696C231.478 137.419 231.558 137.173 231.676 136.96C231.868 136.608 232.14 136.325 232.492 136.112C232.854 135.899 233.292 135.792 233.804 135.792C234.316 135.792 234.748 135.899 235.1 136.112C235.462 136.325 235.74 136.608 235.932 136.96C236.049 137.173 236.129 137.419 236.172 137.696C236.214 137.973 236.236 138.277 236.236 138.608V141.28C236.236 141.611 236.214 141.915 236.172 142.192C236.129 142.469 236.049 142.715 235.932 142.928C235.74 143.28 235.462 143.563 235.1 143.776C234.748 143.989 234.316 144.096 233.804 144.096C233.292 144.096 232.854 143.989 232.492 143.776C232.14 143.563 231.868 143.28 231.676 142.928C231.558 142.715 231.478 142.469 231.436 142.192C231.393 141.915 231.372 141.611 231.372 141.28V138.608ZM233.004 141.536C233.004 141.845 233.073 142.08 233.212 142.24C233.361 142.389 233.558 142.464 233.804 142.464C234.049 142.464 234.241 142.389 234.38 142.24C234.529 142.08 234.604 141.845 234.604 141.536V138.352C234.604 138.043 234.529 137.813 234.38 137.664C234.241 137.504 234.049 137.424 233.804 137.424C233.558 137.424 233.361 137.504 233.212 137.664C233.073 137.813 233.004 138.043 233.004 138.352V141.536ZM237.438 147.28V135.888H239.07V136.624C239.272 136.389 239.48 136.192 239.694 136.032C239.907 135.872 240.216 135.792 240.622 135.792C241.294 135.792 241.768 136.048 242.046 136.56C242.142 136.741 242.211 136.965 242.254 137.232C242.296 137.499 242.318 137.856 242.318 138.304V141.392C242.318 141.989 242.302 142.421 242.27 142.688C242.206 143.221 241.96 143.621 241.534 143.888C241.32 144.027 241.011 144.096 240.606 144.096C240.286 144.096 239.998 144.027 239.742 143.888C239.496 143.739 239.283 143.531 239.102 143.264H239.07V147.28H237.438ZM240.686 138.528C240.686 138.197 240.622 137.931 240.494 137.728C240.366 137.525 240.163 137.424 239.886 137.424C239.64 137.424 239.443 137.52 239.294 137.712C239.144 137.893 239.07 138.133 239.07 138.432V141.584C239.07 141.84 239.144 142.053 239.294 142.224C239.454 142.384 239.651 142.464 239.886 142.464C240.195 142.464 240.403 142.368 240.51 142.176C240.627 141.984 240.686 141.76 240.686 141.504V138.528ZM247.16 144V138.848H247.128L245.32 144H243.656V135.888H245.192V141.04H245.224L247.016 135.888H248.696V144H247.16ZM253.039 144V140.768H252.335L251.311 144H249.647L250.863 140.528C250.618 140.421 250.42 140.272 250.271 140.08C250.132 139.888 250.026 139.685 249.951 139.472C249.887 139.259 249.844 139.051 249.823 138.848C249.812 138.645 249.807 138.485 249.807 138.368C249.807 138.027 249.866 137.669 249.983 137.296C250.1 136.923 250.298 136.624 250.575 136.4C250.852 136.165 251.146 136.021 251.455 135.968C251.775 135.915 252.095 135.888 252.415 135.888H254.671V144H253.039ZM253.039 137.248H252.239C251.919 137.248 251.706 137.365 251.599 137.6C251.492 137.835 251.439 138.112 251.439 138.432C251.439 139.125 251.738 139.472 252.335 139.472H253.039V137.248ZM255.168 144L257.168 139.856L255.264 135.888H256.992L258 138.192L259.008 135.888H260.736L258.8 139.856L260.832 144H259.104L258 141.52L256.896 144H255.168ZM23.408 165V166.6H22.032V163.64H22.768C22.8853 163.416 22.9867 163.117 23.072 162.744C23.168 162.371 23.2427 161.976 23.296 161.56C23.3387 161.219 23.3653 160.867 23.376 160.504C23.3867 160.141 23.392 159.811 23.392 159.512V156.888H27.872V163.64H28.64V166.6H27.264V165H23.408ZM24.928 158.248V159.464C24.928 159.603 24.9227 159.773 24.912 159.976C24.9013 160.168 24.8853 160.371 24.864 160.584C24.8533 160.787 24.8373 160.989 24.816 161.192C24.8053 161.384 24.7893 161.549 24.768 161.688C24.7253 161.965 24.656 162.296 24.56 162.68C24.4747 163.053 24.3733 163.373 24.256 163.64H26.24V158.248H24.928ZM29.2214 163.464C29.3387 163.464 29.456 163.432 29.5734 163.368C29.7014 163.304 29.8294 163.192 29.9574 163.032C30.064 162.904 30.1494 162.723 30.2134 162.488C30.2774 162.243 30.3254 161.992 30.3574 161.736C30.3894 161.469 30.4107 161.219 30.4214 160.984C30.432 160.739 30.4374 160.552 30.4374 160.424V156.888H34.9174V165H33.2854V158.248H31.9734V159.752C31.9734 160.125 31.9627 160.504 31.9414 160.888C31.92 161.261 31.8827 161.624 31.8294 161.976C31.7867 162.317 31.728 162.637 31.6534 162.936C31.5787 163.235 31.4827 163.491 31.3654 163.704C31.1414 164.12 30.848 164.44 30.4854 164.664C30.1227 164.888 29.712 165 29.2534 165H29.1414V163.464H29.2214ZM39.2578 165V161.768H38.5538L37.5298 165H35.8658L37.0818 161.528C36.8364 161.421 36.6391 161.272 36.4898 161.08C36.3511 160.888 36.2444 160.685 36.1698 160.472C36.1058 160.259 36.0631 160.051 36.0418 159.848C36.0311 159.645 36.0258 159.485 36.0258 159.368C36.0258 159.027 36.0844 158.669 36.2018 158.296C36.3191 157.923 36.5164 157.624 36.7938 157.4C37.0711 157.165 37.3644 157.021 37.6738 156.968C37.9938 156.915 38.3138 156.888 38.6338 156.888H40.8898V165H39.2578ZM39.2578 158.248H38.4578C38.1378 158.248 37.9244 158.365 37.8178 158.6C37.7111 158.835 37.6578 159.112 37.6578 159.432C37.6578 160.125 37.9564 160.472 38.5538 160.472H39.2578V158.248ZM45.2033 165V156.888H47.3153C47.6353 156.888 47.9659 156.92 48.3073 156.984C48.6486 157.048 48.9579 157.197 49.2352 157.432C49.4913 157.645 49.6673 157.896 49.7633 158.184C49.8699 158.472 49.9233 158.787 49.9233 159.128C49.9233 159.245 49.9126 159.384 49.8913 159.544C49.8699 159.693 49.8273 159.848 49.7633 160.008C49.6993 160.168 49.6033 160.328 49.4753 160.488C49.3579 160.637 49.1979 160.765 48.9953 160.872C49.2193 160.957 49.4006 161.064 49.5393 161.192C49.6779 161.32 49.7846 161.464 49.8593 161.624C49.9446 161.784 49.9979 161.955 50.0193 162.136C50.0513 162.307 50.0673 162.477 50.0673 162.648C50.0673 162.989 50.0193 163.304 49.9233 163.592C49.8379 163.88 49.6886 164.136 49.4753 164.36C49.2193 164.627 48.9046 164.803 48.5312 164.888C48.1579 164.963 47.7953 165 47.4433 165H45.2033ZM46.8353 163.64H47.4913C47.6086 163.64 47.7206 163.629 47.8273 163.608C47.9446 163.576 48.0459 163.523 48.1313 163.448C48.2273 163.373 48.3019 163.272 48.3553 163.144C48.4086 163.016 48.4353 162.851 48.4353 162.648C48.4353 162.317 48.3713 162.051 48.2433 161.848C48.1259 161.635 47.8753 161.528 47.4913 161.528H46.8353V163.64ZM46.8353 160.248H47.4753C47.8059 160.248 48.0353 160.147 48.1633 159.944C48.2913 159.741 48.3553 159.469 48.3553 159.128C48.3553 158.883 48.2806 158.675 48.1313 158.504C47.9819 158.333 47.7739 158.248 47.5073 158.248H46.8353V160.248ZM54.3225 165V164.168H54.2905C54.0772 164.467 53.8585 164.696 53.6345 164.856C53.4212 165.016 53.1172 165.096 52.7225 165.096C52.5305 165.096 52.3332 165.064 52.1305 165C51.9385 164.947 51.7518 164.84 51.5705 164.68C51.3892 164.531 51.2398 164.317 51.1225 164.04C51.0158 163.752 50.9625 163.384 50.9625 162.936C50.9625 162.477 50.9998 162.077 51.0745 161.736C51.1492 161.384 51.2878 161.091 51.4905 160.856C51.6825 160.632 51.9438 160.467 52.2745 160.36C52.6052 160.243 53.0265 160.184 53.5385 160.184C53.5918 160.184 53.6505 160.184 53.7145 160.184C53.7785 160.184 53.8372 160.189 53.8905 160.2C53.9438 160.211 54.0078 160.216 54.0825 160.216C54.1572 160.216 54.2372 160.221 54.3225 160.232V159.384C54.3225 159.107 54.2638 158.877 54.1465 158.696C54.0292 158.515 53.8158 158.424 53.5065 158.424C53.2932 158.424 53.0958 158.493 52.9145 158.632C52.7438 158.771 52.6318 158.973 52.5785 159.24H50.9945C51.0372 158.515 51.2825 157.928 51.7305 157.48C51.9438 157.267 52.1998 157.101 52.4985 156.984C52.7972 156.856 53.1332 156.792 53.5065 156.792C53.8478 156.792 54.1678 156.845 54.4665 156.952C54.7652 157.059 55.0265 157.219 55.2505 157.432C55.4638 157.645 55.6345 157.912 55.7625 158.232C55.8905 158.552 55.9545 158.925 55.9545 159.352V165H54.3225ZM54.3225 161.512C54.1412 161.48 53.9918 161.464 53.8745 161.464C53.5225 161.464 53.2185 161.549 52.9625 161.72C52.7172 161.88 52.5945 162.179 52.5945 162.616C52.5945 162.925 52.6692 163.176 52.8185 163.368C52.9678 163.56 53.1758 163.656 53.4425 163.656C53.7198 163.656 53.9332 163.565 54.0825 163.384C54.2425 163.203 54.3225 162.947 54.3225 162.616V161.512ZM64.7084 156.888V165H57.1564V156.888H58.7884V163.64H60.1164V156.888H61.7484V163.64H63.0764V156.888H64.7084ZM69.551 165V159.848H69.519L67.711 165H66.047V156.888H67.583V162.04H67.615L69.407 156.888H71.087V165H69.551ZM71.5896 165L73.5896 160.856L71.6856 156.888H73.4136L74.4216 159.192L75.4296 156.888H77.1576L75.2216 160.856L77.2536 165H75.5256L74.4216 162.52L73.3176 165H71.5896ZM80.7189 165V156.888H82.3509V160.2H82.9749C83.2202 160.2 83.3855 160.115 83.4709 159.944C83.5562 159.773 83.6255 159.56 83.6789 159.304L83.8549 158.376C83.9189 158.131 83.9989 157.912 84.0949 157.72C84.2015 157.517 84.3402 157.357 84.5109 157.24C84.6922 157.112 84.9002 157.021 85.1349 156.968C85.3802 156.915 85.6575 156.888 85.9669 156.888H85.9989V158.328H85.9509C85.7589 158.328 85.5989 158.365 85.4709 158.44C85.3429 158.504 85.2522 158.659 85.1989 158.904L85.0389 159.8C85.0282 159.832 85.0122 159.896 84.9909 159.992C84.9802 160.088 84.9535 160.195 84.9109 160.312C84.8682 160.419 84.8095 160.525 84.7349 160.632C84.6709 160.739 84.5855 160.819 84.4789 160.872L86.1109 165H84.4469L83.1509 161.56H82.3509V165H80.7189ZM86.2965 156.888H88.0245L89.1445 161.944H89.1765L90.2805 156.888H91.9605L89.6245 166.408C89.5392 166.771 89.4165 167.069 89.2565 167.304C89.1072 167.539 88.9312 167.731 88.7285 167.88C88.5258 168.029 88.3072 168.131 88.0725 168.184C87.8485 168.248 87.6138 168.28 87.3685 168.28H86.9205V166.744H87.2885C87.4485 166.744 87.5872 166.723 87.7045 166.68C87.8218 166.637 87.9285 166.541 88.0245 166.392C88.1098 166.243 88.1898 166.029 88.2645 165.752C88.3392 165.485 88.4245 165.112 88.5205 164.632L86.2965 156.888ZM92.0495 163.464C92.1668 163.464 92.2842 163.432 92.4015 163.368C92.5295 163.304 92.6575 163.192 92.7855 163.032C92.8922 162.904 92.9775 162.723 93.0415 162.488C93.1055 162.243 93.1535 161.992 93.1855 161.736C93.2175 161.469 93.2388 161.219 93.2495 160.984C93.2602 160.739 93.2655 160.552 93.2655 160.424V156.888H97.7455V165H96.1135V158.248H94.8015V159.752C94.8015 160.125 94.7908 160.504 94.7695 160.888C94.7482 161.261 94.7108 161.624 94.6575 161.976C94.6148 162.317 94.5562 162.637 94.4815 162.936C94.4068 163.235 94.3108 163.491 94.1935 163.704C93.9695 164.12 93.6762 164.44 93.3135 164.664C92.9508 164.888 92.5402 165 92.0815 165H91.9695V163.464H92.0495ZM102.598 165V159.848H102.566L100.758 165H99.0939V156.888H100.63V162.04H100.662L102.454 156.888H104.134V165H102.598ZM105.485 165V156.888H107.117V160.2H108.765V156.888H110.397V165H108.765V161.56H107.117V165H105.485ZM114.823 165V164.168H114.791C114.577 164.467 114.359 164.696 114.135 164.856C113.921 165.016 113.617 165.096 113.223 165.096C113.031 165.096 112.833 165.064 112.631 165C112.439 164.947 112.252 164.84 112.071 164.68C111.889 164.531 111.74 164.317 111.623 164.04C111.516 163.752 111.463 163.384 111.463 162.936C111.463 162.477 111.5 162.077 111.575 161.736C111.649 161.384 111.788 161.091 111.991 160.856C112.183 160.632 112.444 160.467 112.775 160.36C113.105 160.243 113.527 160.184 114.039 160.184C114.092 160.184 114.151 160.184 114.215 160.184C114.279 160.184 114.337 160.189 114.391 160.2C114.444 160.211 114.508 160.216 114.583 160.216C114.657 160.216 114.737 160.221 114.823 160.232V159.384C114.823 159.107 114.764 158.877 114.647 158.696C114.529 158.515 114.316 158.424 114.007 158.424C113.793 158.424 113.596 158.493 113.414 158.632C113.244 158.771 113.132 158.973 113.079 159.24H111.495C111.537 158.515 111.783 157.928 112.231 157.48C112.444 157.267 112.7 157.101 112.999 156.984C113.297 156.856 113.633 156.792 114.007 156.792C114.348 156.792 114.668 156.845 114.967 156.952C115.265 157.059 115.527 157.219 115.751 157.432C115.964 157.645 116.135 157.912 116.263 158.232C116.391 158.552 116.455 158.925 116.455 159.352V165H114.823ZM114.823 161.512C114.641 161.48 114.492 161.464 114.375 161.464C114.023 161.464 113.719 161.549 113.463 161.72C113.217 161.88 113.095 162.179 113.095 162.616C113.095 162.925 113.169 163.176 113.319 163.368C113.468 163.56 113.676 163.656 113.943 163.656C114.22 163.656 114.433 163.565 114.583 163.384C114.743 163.203 114.823 162.947 114.823 162.616V161.512ZM117.656 168.28V156.888H119.288V157.624C119.491 157.389 119.699 157.192 119.912 157.032C120.126 156.872 120.435 156.792 120.84 156.792C121.512 156.792 121.987 157.048 122.264 157.56C122.36 157.741 122.43 157.965 122.472 158.232C122.515 158.499 122.536 158.856 122.536 159.304V162.392C122.536 162.989 122.52 163.421 122.488 163.688C122.424 164.221 122.179 164.621 121.752 164.888C121.539 165.027 121.23 165.096 120.824 165.096C120.504 165.096 120.216 165.027 119.96 164.888C119.715 164.739 119.502 164.531 119.32 164.264H119.288V168.28H117.656ZM120.904 159.528C120.904 159.197 120.84 158.931 120.712 158.728C120.584 158.525 120.382 158.424 120.104 158.424C119.859 158.424 119.662 158.52 119.512 158.712C119.363 158.893 119.288 159.133 119.288 159.432V162.584C119.288 162.84 119.363 163.053 119.512 163.224C119.672 163.384 119.87 163.464 120.104 163.464C120.414 163.464 120.622 163.368 120.728 163.176C120.846 162.984 120.904 162.76 120.904 162.504V159.528ZM123.875 165V156.888H125.507V160.2H127.155V156.888H128.787V165H127.155V161.56H125.507V165H123.875ZM130.125 165V156.888H131.757V160.088H132.157C132.584 160.088 132.957 160.131 133.277 160.216C133.608 160.291 133.88 160.424 134.093 160.616C134.317 160.808 134.482 161.064 134.589 161.384C134.706 161.704 134.765 162.099 134.765 162.568C134.765 162.909 134.712 163.24 134.605 163.56C134.509 163.869 134.354 164.136 134.141 164.36C133.885 164.627 133.581 164.803 133.229 164.888C132.877 164.963 132.525 165 132.173 165H130.125ZM131.757 163.64H132.317C132.552 163.64 132.76 163.565 132.941 163.416C133.133 163.256 133.229 162.973 133.229 162.568C133.229 162.237 133.165 161.971 133.037 161.768C132.92 161.555 132.669 161.448 132.285 161.448H131.757V163.64ZM135.469 165V156.888H137.101V165H135.469ZM137.59 165L139.59 160.856L137.686 156.888H139.414L140.422 159.192L141.43 156.888H143.158L141.222 160.856L143.254 165H141.526L140.422 162.52L139.318 165H137.59ZM149.631 160.2V159.352C149.631 159.043 149.551 158.813 149.391 158.664C149.242 158.504 149.044 158.424 148.799 158.424C148.554 158.424 148.351 158.504 148.191 158.664C148.042 158.813 147.967 159.053 147.967 159.384H146.335C146.346 159.032 146.404 158.701 146.511 158.392C146.628 158.072 146.788 157.795 146.991 157.56C147.204 157.325 147.46 157.139 147.759 157C148.068 156.861 148.415 156.792 148.799 156.792C149.204 156.792 149.562 156.861 149.871 157C150.191 157.128 150.458 157.315 150.671 157.56C150.916 157.837 151.076 158.147 151.151 158.488C151.226 158.829 151.263 159.203 151.263 159.608V162.28C151.263 162.621 151.226 162.973 151.151 163.336C151.087 163.699 150.932 164.019 150.687 164.296C150.474 164.552 150.212 164.749 149.903 164.888C149.604 165.027 149.247 165.096 148.831 165.096C148.479 165.096 148.154 165.037 147.855 164.92C147.556 164.792 147.295 164.621 147.071 164.408C146.858 164.195 146.682 163.939 146.543 163.64C146.415 163.331 146.346 163 146.335 162.648H147.967C147.988 162.829 148.052 163.011 148.159 163.192C148.276 163.373 148.49 163.464 148.799 163.464C149.044 163.464 149.242 163.395 149.391 163.256C149.551 163.117 149.631 162.92 149.631 162.664V161.56H148.111V160.2H149.631ZM152.469 165V156.888H154.101V160.2H154.725C154.97 160.2 155.136 160.115 155.221 159.944C155.306 159.773 155.376 159.56 155.429 159.304L155.605 158.376C155.669 158.131 155.749 157.912 155.845 157.72C155.952 157.517 156.09 157.357 156.261 157.24C156.442 157.112 156.65 157.021 156.885 156.968C157.13 156.915 157.408 156.888 157.717 156.888H157.749V158.328H157.701C157.509 158.328 157.349 158.365 157.221 158.44C157.093 158.504 157.002 158.659 156.949 158.904L156.789 159.8C156.778 159.832 156.762 159.896 156.741 159.992C156.73 160.088 156.704 160.195 156.661 160.312C156.618 160.419 156.56 160.525 156.485 160.632C156.421 160.739 156.336 160.819 156.229 160.872L157.861 165H156.197L154.901 161.56H154.101V165H152.469ZM160.384 162.664C160.384 162.92 160.454 163.117 160.592 163.256C160.742 163.395 160.939 163.464 161.184 163.464C161.494 163.464 161.696 163.373 161.792 163.192C161.899 163.011 161.963 162.829 161.984 162.648H163.616C163.616 163.363 163.398 163.939 162.96 164.376C162.747 164.6 162.491 164.776 162.192 164.904C161.894 165.032 161.558 165.096 161.184 165.096C160.672 165.096 160.235 164.989 159.872 164.776C159.52 164.563 159.248 164.28 159.056 163.928C158.939 163.715 158.859 163.469 158.816 163.192C158.774 162.915 158.752 162.611 158.752 162.28V159.608C158.752 159.277 158.774 158.973 158.816 158.696C158.859 158.419 158.939 158.173 159.056 157.96C159.248 157.608 159.52 157.325 159.872 157.112C160.235 156.899 160.672 156.792 161.184 156.792C161.558 156.792 161.894 156.856 162.192 156.984C162.502 157.112 162.763 157.288 162.976 157.512C163.403 157.992 163.616 158.616 163.616 159.384H161.984C161.984 159.053 161.91 158.813 161.76 158.664C161.622 158.504 161.43 158.424 161.184 158.424C160.939 158.424 160.742 158.504 160.592 158.664C160.454 158.813 160.384 159.043 160.384 159.352V162.664ZM164.578 165V156.888H169.458V165H167.826V158.248H166.21V165H164.578ZM175.455 161.56H172.223V162.664C172.223 162.92 172.292 163.117 172.431 163.256C172.58 163.395 172.777 163.464 173.023 163.464C173.332 163.464 173.535 163.373 173.631 163.192C173.737 163.011 173.801 162.829 173.823 162.648H175.455C175.455 163.363 175.236 163.939 174.799 164.376C174.585 164.6 174.329 164.776 174.031 164.904C173.732 165.032 173.396 165.096 173.023 165.096C172.511 165.096 172.073 164.989 171.711 164.776C171.359 164.563 171.087 164.28 170.895 163.928C170.777 163.715 170.697 163.469 170.655 163.192C170.612 162.915 170.59 162.611 170.59 162.28V159.608C170.59 159.277 170.612 158.973 170.655 158.696C170.697 158.419 170.777 158.173 170.895 157.96C171.087 157.608 171.359 157.325 171.711 157.112C172.073 156.899 172.511 156.792 173.023 156.792C173.396 156.792 173.732 156.856 174.031 156.984C174.34 157.112 174.601 157.288 174.815 157.512C175.241 157.992 175.455 158.595 175.455 159.32V161.56ZM172.223 160.28H173.823V159.352C173.823 159.043 173.748 158.813 173.599 158.664C173.46 158.504 173.268 158.424 173.023 158.424C172.777 158.424 172.58 158.504 172.431 158.664C172.292 158.813 172.223 159.043 172.223 159.352V160.28ZM176.656 168.28V156.888H178.288V157.624C178.491 157.389 178.699 157.192 178.912 157.032C179.126 156.872 179.435 156.792 179.84 156.792C180.512 156.792 180.987 157.048 181.264 157.56C181.36 157.741 181.43 157.965 181.472 158.232C181.515 158.499 181.536 158.856 181.536 159.304V162.392C181.536 162.989 181.52 163.421 181.488 163.688C181.424 164.221 181.179 164.621 180.752 164.888C180.539 165.027 180.23 165.096 179.824 165.096C179.504 165.096 179.216 165.027 178.96 164.888C178.715 164.739 178.502 164.531 178.32 164.264H178.288V168.28H176.656ZM179.904 159.528C179.904 159.197 179.84 158.931 179.712 158.728C179.584 158.525 179.382 158.424 179.104 158.424C178.859 158.424 178.662 158.52 178.512 158.712C178.363 158.893 178.288 159.133 178.288 159.432V162.584C178.288 162.84 178.363 163.053 178.512 163.224C178.672 163.384 178.87 163.464 179.104 163.464C179.414 163.464 179.622 163.368 179.728 163.176C179.846 162.984 179.904 162.76 179.904 162.504V159.528ZM186.379 165V159.848H186.347L184.539 165H182.875V156.888H184.411V162.04H184.443L186.235 156.888H187.915V165H186.379ZM189.266 165V156.888H190.93L192.578 161.24H192.61L194.258 156.888H195.922V165H194.354V160.088H194.322L193.01 163.672H192.178L190.866 160.088H190.834V165H189.266ZM201.986 161.56H198.754V162.664C198.754 162.92 198.823 163.117 198.962 163.256C199.111 163.395 199.308 163.464 199.554 163.464C199.863 163.464 200.066 163.373 200.162 163.192C200.268 163.011 200.332 162.829 200.354 162.648H201.986C201.986 163.363 201.767 163.939 201.33 164.376C201.116 164.6 200.86 164.776 200.562 164.904C200.263 165.032 199.927 165.096 199.554 165.096C199.042 165.096 198.604 164.989 198.242 164.776C197.89 164.563 197.618 164.28 197.426 163.928C197.308 163.715 197.228 163.469 197.186 163.192C197.143 162.915 197.122 162.611 197.122 162.28V159.608C197.122 159.277 197.143 158.973 197.186 158.696C197.228 158.419 197.308 158.173 197.426 157.96C197.618 157.608 197.89 157.325 198.242 157.112C198.604 156.899 199.042 156.792 199.554 156.792C199.927 156.792 200.263 156.856 200.562 156.984C200.871 157.112 201.132 157.288 201.346 157.512C201.772 157.992 201.986 158.595 201.986 159.32V161.56ZM198.754 160.28H200.354V159.352C200.354 159.043 200.279 158.813 200.13 158.664C199.991 158.504 199.799 158.424 199.554 158.424C199.308 158.424 199.111 158.504 198.962 158.664C198.823 158.813 198.754 159.043 198.754 159.352V160.28ZM203.188 165V156.888H204.82V160.2H206.468V156.888H208.1V165H206.468V161.56H204.82V165H203.188ZM210.366 165V158.328H208.766V156.888H213.598V158.328H211.998V165H210.366ZM214.044 159.608C214.044 159.277 214.065 158.973 214.108 158.696C214.15 158.419 214.23 158.173 214.348 157.96C214.54 157.608 214.812 157.325 215.164 157.112C215.526 156.899 215.964 156.792 216.476 156.792C216.988 156.792 217.42 156.899 217.772 157.112C218.134 157.325 218.412 157.608 218.604 157.96C218.721 158.173 218.801 158.419 218.844 158.696C218.886 158.973 218.908 159.277 218.908 159.608V162.28C218.908 162.611 218.886 162.915 218.844 163.192C218.801 163.469 218.721 163.715 218.604 163.928C218.412 164.28 218.134 164.563 217.772 164.776C217.42 164.989 216.988 165.096 216.476 165.096C215.964 165.096 215.526 164.989 215.164 164.776C214.812 164.563 214.54 164.28 214.348 163.928C214.23 163.715 214.15 163.469 214.108 163.192C214.065 162.915 214.044 162.611 214.044 162.28V159.608ZM215.676 162.536C215.676 162.845 215.745 163.08 215.884 163.24C216.033 163.389 216.23 163.464 216.476 163.464C216.721 163.464 216.913 163.389 217.052 163.24C217.201 163.08 217.276 162.845 217.276 162.536V159.352C217.276 159.043 217.201 158.813 217.052 158.664C216.913 158.504 216.721 158.424 216.476 158.424C216.23 158.424 216.033 158.504 215.884 158.664C215.745 158.813 215.676 159.043 215.676 159.352V162.536ZM220.11 165V156.888H222.222C222.542 156.888 222.872 156.92 223.214 156.984C223.555 157.048 223.864 157.197 224.141 157.432C224.398 157.645 224.574 157.896 224.67 158.184C224.776 158.472 224.83 158.787 224.83 159.128C224.83 159.245 224.819 159.384 224.798 159.544C224.776 159.693 224.734 159.848 224.67 160.008C224.606 160.168 224.51 160.328 224.382 160.488C224.264 160.637 224.104 160.765 223.902 160.872C224.126 160.957 224.307 161.064 224.446 161.192C224.584 161.32 224.691 161.464 224.766 161.624C224.851 161.784 224.904 161.955 224.926 162.136C224.958 162.307 224.974 162.477 224.974 162.648C224.974 162.989 224.926 163.304 224.83 163.592C224.744 163.88 224.595 164.136 224.382 164.36C224.126 164.627 223.811 164.803 223.438 164.888C223.064 164.963 222.702 165 222.35 165H220.11ZM221.742 163.64H222.398C222.515 163.64 222.627 163.629 222.734 163.608C222.851 163.576 222.952 163.523 223.038 163.448C223.134 163.373 223.208 163.272 223.262 163.144C223.315 163.016 223.342 162.851 223.342 162.648C223.342 162.317 223.278 162.051 223.15 161.848C223.032 161.635 222.782 161.528 222.398 161.528H221.742V163.64ZM221.742 160.248H222.382C222.712 160.248 222.942 160.147 223.07 159.944C223.198 159.741 223.262 159.469 223.262 159.128C223.262 158.883 223.187 158.675 223.038 158.504C222.888 158.333 222.68 158.248 222.414 158.248H221.742V160.248Z" fill="white"/>
</g>
<defs>
<clipPath id="clip0_3012_3">
<rect width="318" height="218" fill="white"/>
</clipPath>
</defs>
</svg>
