<svg width="318" height="218" viewBox="0 0 318 218" fill="none" xmlns="http://www.w3.org/2000/svg">
<path d="M318 33.797C318 23.1104 309.599 14.3118 298.924 13.8183L20.9235 0.967229C9.52744 0.440425 0 9.53765 0 20.9459V196.299C0 207.987 9.97955 217.185 21.6287 216.233L299.629 193.518C310.008 192.67 318 183.999 318 173.585V33.797Z" fill="#462B74"/>
<path d="M24.728 78V52.368H30.236C31.244 52.368 32.132 52.5 32.9 52.764C33.668 53.028 34.364 53.496 34.988 54.168C35.612 54.84 36.044 55.632 36.284 56.544C36.524 57.432 36.644 58.644 36.644 60.18C36.644 61.332 36.572 62.304 36.428 63.096C36.308 63.888 36.032 64.632 35.6 65.328C35.096 66.168 34.424 66.828 33.584 67.308C32.744 67.764 31.64 67.992 30.272 67.992H28.4V78H24.728ZM28.4 55.824V64.536H30.164C30.908 64.536 31.484 64.428 31.892 64.212C32.3 63.996 32.6 63.696 32.792 63.312C32.984 62.952 33.092 62.508 33.116 61.98C33.164 61.452 33.188 60.864 33.188 60.216C33.188 59.616 33.176 59.052 33.152 58.524C33.128 57.972 33.02 57.492 32.828 57.084C32.636 56.676 32.348 56.364 31.964 56.148C31.58 55.932 31.028 55.824 30.308 55.824H28.4ZM45.4682 69.036L43.6682 59.748H43.5962L41.7962 69.036H45.4682ZM36.3962 78L42.1202 52.368H45.1802L50.9042 78H47.2322L46.1522 72.492H41.1482L40.0682 78H36.3962ZM51.8928 58.848C51.8928 58.128 52.0368 57.312 52.3248 56.4C52.6368 55.488 53.1048 54.708 53.7288 54.06C54.2808 53.508 54.9048 53.052 55.6008 52.692C56.2968 52.332 57.1008 52.152 58.0128 52.152C59.0928 52.152 60.0168 52.344 60.7848 52.728C61.5768 53.088 62.2248 53.58 62.7288 54.204C63.2568 54.828 63.6408 55.572 63.8808 56.436C64.1208 57.3 64.2408 58.212 64.2408 59.172C64.2408 59.652 64.2288 60.144 64.2048 60.648C64.1808 61.128 64.0848 61.62 63.9168 62.124C63.7728 62.604 63.5208 63.06 63.1608 63.492C62.8248 63.924 62.3328 64.32 61.6848 64.68C62.3328 64.944 62.8248 65.292 63.1608 65.724C63.5208 66.132 63.7728 66.6 63.9168 67.128C64.0848 67.632 64.1808 68.196 64.2048 68.82C64.2288 69.42 64.2408 70.044 64.2408 70.692C64.2408 71.772 64.1208 72.78 63.8808 73.716C63.6648 74.652 63.2928 75.432 62.7648 76.056C62.2368 76.68 61.5648 77.196 60.7488 77.604C59.9568 78.012 58.9728 78.216 57.7968 78.216C56.9088 78.216 56.0808 78.06 55.3128 77.748C54.5448 77.436 53.8848 77.004 53.3328 76.452C52.7808 75.9 52.3608 75.192 52.0728 74.328C51.7848 73.464 51.6408 72.6 51.6408 71.736V70.764H55.3128L55.3488 71.772C55.3488 72.108 55.3848 72.444 55.4568 72.78C55.5528 73.092 55.6968 73.38 55.8888 73.644C56.0808 73.908 56.3328 74.124 56.6448 74.292C56.9568 74.46 57.3528 74.544 57.8328 74.544C58.9128 74.544 59.6328 74.208 59.9928 73.536C60.3768 72.84 60.5688 71.904 60.5688 70.728C60.5688 70.056 60.5448 69.432 60.4968 68.856C60.4488 68.256 60.3288 67.788 60.1368 67.452C59.7048 66.708 58.9848 66.336 57.9768 66.336H56.5728V63.096H58.0848C58.5408 63.096 58.9488 63.012 59.3088 62.844C59.6688 62.676 59.9568 62.388 60.1728 61.98C60.3648 61.596 60.4728 61.14 60.4968 60.612C60.5448 60.084 60.5688 59.616 60.5688 59.208C60.5688 58.776 60.5328 58.356 60.4608 57.948C60.3888 57.516 60.2568 57.144 60.0648 56.832C59.8728 56.544 59.6088 56.304 59.2728 56.112C58.9608 55.92 58.5528 55.824 58.0488 55.824C57.5928 55.824 57.2088 55.908 56.8968 56.076C56.6088 56.244 56.3688 56.46 56.1768 56.724C55.9608 57.012 55.8048 57.384 55.7088 57.84C55.6128 58.296 55.5648 58.74 55.5648 59.172V59.748H51.8928V58.848ZM67.7241 78V52.368H71.3961V63.348H75.9321V52.368H79.6041V78H75.9321V66.588H71.3961V78H67.7241ZM82.8362 58.416C82.8362 57.384 83.0162 56.472 83.3762 55.68C83.7362 54.888 84.2162 54.228 84.8162 53.7C85.3922 53.196 86.0402 52.812 86.7602 52.548C87.5042 52.284 88.2482 52.152 88.9922 52.152C89.7362 52.152 90.4682 52.284 91.1882 52.548C91.9322 52.812 92.6042 53.196 93.2042 53.7C93.7802 54.228 94.2482 54.888 94.6082 55.68C94.9682 56.472 95.1482 57.384 95.1482 58.416V71.952C95.1482 73.032 94.9682 73.956 94.6082 74.724C94.2482 75.492 93.7802 76.128 93.2042 76.632C92.6042 77.16 91.9322 77.556 91.1882 77.82C90.4682 78.084 89.7362 78.216 88.9922 78.216C88.2482 78.216 87.5042 78.084 86.7602 77.82C86.0402 77.556 85.3922 77.16 84.8162 76.632C84.2162 76.128 83.7362 75.492 83.3762 74.724C83.0162 73.956 82.8362 73.032 82.8362 71.952V58.416ZM86.5082 71.952C86.5082 72.84 86.7482 73.5 87.2282 73.932C87.7322 74.34 88.3202 74.544 88.9922 74.544C89.6642 74.544 90.2402 74.34 90.7202 73.932C91.2242 73.5 91.4762 72.84 91.4762 71.952V58.416C91.4762 57.528 91.2242 56.88 90.7202 56.472C90.2402 56.04 89.6642 55.824 88.9922 55.824C88.3202 55.824 87.7322 56.04 87.2282 56.472C86.7482 56.88 86.5082 57.528 86.5082 58.416V71.952ZM98.1643 58.416C98.1643 57.384 98.3443 56.472 98.7043 55.68C99.0643 54.888 99.5443 54.228 100.144 53.7C100.72 53.196 101.368 52.812 102.088 52.548C102.832 52.284 103.576 52.152 104.32 52.152C105.064 52.152 105.796 52.284 106.516 52.548C107.26 52.812 107.932 53.196 108.532 53.7C109.108 54.228 109.576 54.888 109.936 55.68C110.296 56.472 110.476 57.384 110.476 58.416V71.952C110.476 73.032 110.296 73.956 109.936 74.724C109.576 75.492 109.108 76.128 108.532 76.632C107.932 77.16 107.26 77.556 106.516 77.82C105.796 78.084 105.064 78.216 104.32 78.216C103.576 78.216 102.832 78.084 102.088 77.82C101.368 77.556 100.72 77.16 100.144 76.632C99.5443 76.128 99.0643 75.492 98.7043 74.724C98.3443 73.956 98.1643 73.032 98.1643 71.952V58.416ZM101.836 71.952C101.836 72.84 102.076 73.5 102.556 73.932C103.06 74.34 103.648 74.544 104.32 74.544C104.992 74.544 105.568 74.34 106.048 73.932C106.552 73.5 106.804 72.84 106.804 71.952V58.416C106.804 57.528 106.552 56.88 106.048 56.472C105.568 56.04 104.992 55.824 104.32 55.824C103.648 55.824 103.06 56.04 102.556 56.472C102.076 56.88 101.836 57.528 101.836 58.416V71.952ZM113.708 52.368H124.22V55.824H117.38V62.88H118.82C120.092 62.88 121.148 63.048 121.988 63.384C122.852 63.72 123.548 64.2 124.076 64.824C124.628 65.496 124.976 66.228 125.12 67.02C125.264 67.788 125.348 68.64 125.372 69.576V71.016C125.372 73.272 124.82 75 123.716 76.2C122.636 77.4 120.896 78 118.496 78H113.708V52.368ZM117.38 66.12V74.328H118.748C119.492 74.328 120.068 74.22 120.476 74.004C120.908 73.788 121.232 73.488 121.448 73.104C121.664 72.72 121.796 72.264 121.844 71.736C121.892 71.208 121.916 70.632 121.916 70.008C121.916 69.36 121.868 68.796 121.772 68.316C121.7 67.812 121.544 67.404 121.304 67.092C121.064 66.78 120.752 66.54 120.368 66.372C119.984 66.204 119.456 66.12 118.784 66.12H117.38ZM128.263 78V52.368H133.771C134.779 52.368 135.667 52.5 136.435 52.764C137.203 53.028 137.899 53.496 138.523 54.168C139.147 54.84 139.579 55.632 139.819 56.544C140.059 57.432 140.179 58.644 140.179 60.18C140.179 61.332 140.107 62.304 139.963 63.096C139.843 63.888 139.567 64.632 139.135 65.328C138.631 66.168 137.959 66.828 137.119 67.308C136.279 67.764 135.175 67.992 133.807 67.992H131.935V78H128.263ZM131.935 55.824V64.536H133.699C134.443 64.536 135.019 64.428 135.427 64.212C135.835 63.996 136.135 63.696 136.327 63.312C136.519 62.952 136.627 62.508 136.651 61.98C136.699 61.452 136.723 60.864 136.723 60.216C136.723 59.616 136.711 59.052 136.687 58.524C136.663 57.972 136.555 57.492 136.363 57.084C136.171 56.676 135.883 56.364 135.499 56.148C135.115 55.932 134.563 55.824 133.843 55.824H131.935ZM149.003 69.036L147.203 59.748H147.131L145.331 69.036H149.003ZM139.931 78L145.655 52.368H148.715L154.439 78H150.767L149.687 72.492H144.683L143.603 78H139.931ZM155.428 58.848C155.428 58.128 155.572 57.312 155.86 56.4C156.172 55.488 156.64 54.708 157.264 54.06C157.816 53.508 158.44 53.052 159.136 52.692C159.832 52.332 160.636 52.152 161.548 52.152C162.628 52.152 163.552 52.344 164.32 52.728C165.112 53.088 165.76 53.58 166.264 54.204C166.792 54.828 167.176 55.572 167.416 56.436C167.656 57.3 167.776 58.212 167.776 59.172C167.776 59.652 167.764 60.144 167.74 60.648C167.716 61.128 167.62 61.62 167.452 62.124C167.308 62.604 167.056 63.06 166.696 63.492C166.36 63.924 165.868 64.32 165.22 64.68C165.868 64.944 166.36 65.292 166.696 65.724C167.056 66.132 167.308 66.6 167.452 67.128C167.62 67.632 167.716 68.196 167.74 68.82C167.764 69.42 167.776 70.044 167.776 70.692C167.776 71.772 167.656 72.78 167.416 73.716C167.2 74.652 166.828 75.432 166.3 76.056C165.772 76.68 165.1 77.196 164.284 77.604C163.492 78.012 162.508 78.216 161.332 78.216C160.444 78.216 159.616 78.06 158.848 77.748C158.08 77.436 157.42 77.004 156.868 76.452C156.316 75.9 155.896 75.192 155.608 74.328C155.32 73.464 155.176 72.6 155.176 71.736V70.764H158.848L158.884 71.772C158.884 72.108 158.92 72.444 158.992 72.78C159.088 73.092 159.232 73.38 159.424 73.644C159.616 73.908 159.868 74.124 160.18 74.292C160.492 74.46 160.888 74.544 161.368 74.544C162.448 74.544 163.168 74.208 163.528 73.536C163.912 72.84 164.104 71.904 164.104 70.728C164.104 70.056 164.08 69.432 164.032 68.856C163.984 68.256 163.864 67.788 163.672 67.452C163.24 66.708 162.52 66.336 161.512 66.336H160.108V63.096H161.62C162.076 63.096 162.484 63.012 162.844 62.844C163.204 62.676 163.492 62.388 163.708 61.98C163.9 61.596 164.008 61.14 164.032 60.612C164.08 60.084 164.104 59.616 164.104 59.208C164.104 58.776 164.068 58.356 163.996 57.948C163.924 57.516 163.792 57.144 163.6 56.832C163.408 56.544 163.144 56.304 162.808 56.112C162.496 55.92 162.088 55.824 161.584 55.824C161.128 55.824 160.744 55.908 160.432 56.076C160.144 56.244 159.904 56.46 159.712 56.724C159.496 57.012 159.34 57.384 159.244 57.84C159.148 58.296 159.1 58.74 159.1 59.172V59.748H155.428V58.848ZM179.827 78V61.368H179.755L174.931 78H171.259V52.368H174.931V69.036H175.003L179.827 52.368H183.499V78H179.827ZM186.939 78V52.368H197.883V55.824H190.611V63.348H196.947V66.804H190.611V74.328H197.883V78H186.939Z" fill="white"/>
<path d="M23.0254 102.571H23.7363C24.0326 102.571 24.265 102.507 24.4336 102.38C24.6022 102.248 24.7435 102.045 24.8574 101.771L25.2061 100.965L22.0137 94.0332H23.6406L25.9922 99.3379L28.1318 94.0332H29.7246L26.1562 102.373C25.9603 102.833 25.696 103.221 25.3633 103.535C25.0352 103.845 24.5999 104 24.0576 104H23.0254V102.571ZM34.0381 96.9043H35.4668V99.6729H38.2832V96.9043H39.7119V104H38.2832V101.02H35.4668V104H34.0381V96.9043ZM43.5059 104.082C42.722 104.073 42.1113 103.863 41.6738 103.453C41.2227 103.052 40.9971 102.539 40.9971 101.915C40.9971 101.318 41.193 100.824 41.585 100.432C41.9678 100.04 42.542 99.8346 43.3076 99.8164H45.2832V99.0713C45.2923 98.4469 44.807 98.1439 43.8271 98.1621C43.4899 98.1621 43.2096 98.1986 42.9863 98.2715C42.7721 98.3581 42.6035 98.5039 42.4805 98.709L41.3594 97.8545C41.9017 97.1436 42.7015 96.7972 43.7588 96.8154C44.652 96.8063 45.3652 96.9749 45.8984 97.3213C46.4225 97.6676 46.6937 98.2783 46.7119 99.1533V104H45.2832V103.371H45.2559C45.1237 103.613 44.9186 103.79 44.6406 103.904C44.3854 104.023 44.0072 104.082 43.5059 104.082ZM43.6836 102.742C44.2852 102.76 44.7067 102.69 44.9482 102.53C45.1715 102.38 45.2832 102.038 45.2832 101.505V100.992H43.5742C42.7357 101.01 42.3255 101.295 42.3438 101.847C42.3438 102.088 42.4508 102.293 42.665 102.462C42.8792 102.649 43.2188 102.742 43.6836 102.742ZM51.2305 104.082C50.3828 104.082 49.6468 103.797 49.0225 103.228C48.3571 102.658 48.0199 101.735 48.0107 100.459C48.029 99.1602 48.3662 98.2259 49.0225 97.6562C49.6559 97.0775 50.3919 96.7972 51.2305 96.8154C51.7819 96.8337 52.2673 96.9476 52.6865 97.1572C53.1195 97.3805 53.484 97.679 53.7803 98.0527L52.7275 98.9893C52.3675 98.5016 51.889 98.2533 51.292 98.2441C50.0661 98.2259 49.4486 98.9642 49.4395 100.459C49.4486 101.94 50.0661 102.672 51.292 102.653C51.8981 102.635 52.3766 102.389 52.7275 101.915L53.7803 102.852C53.4613 103.207 53.0967 103.496 52.6865 103.72C52.2581 103.961 51.7728 104.082 51.2305 104.082ZM60.9443 104.082C60.5615 104.082 60.1969 104.027 59.8506 103.918C59.6911 103.868 59.5179 103.788 59.3311 103.679C59.1624 103.606 58.9961 103.499 58.832 103.357C58.5221 103.075 58.2783 102.706 58.1006 102.25C57.8955 101.803 57.793 101.211 57.793 100.473C57.793 99.7526 57.8818 99.1693 58.0596 98.7227C58.2464 98.2259 58.4743 97.8522 58.7432 97.6016C59.0166 97.3327 59.3333 97.1322 59.6934 97C60.0306 96.877 60.3724 96.8154 60.7188 96.8154C61.5299 96.8337 62.2158 97.1003 62.7764 97.6152C63.3369 98.1393 63.6263 98.873 63.6445 99.8164V100.992H59.2217C59.2217 101.562 59.3857 101.995 59.7139 102.291C60.0283 102.592 60.4294 102.742 60.917 102.742C61.4958 102.742 62.013 102.512 62.4688 102.052L63.5078 102.934C62.7695 103.708 61.915 104.091 60.9443 104.082ZM62.2158 99.8164C62.1976 99.2741 62.0495 98.8571 61.7715 98.5654C61.498 98.2965 61.1471 98.1621 60.7188 98.1621C60.2904 98.1621 59.9395 98.2965 59.666 98.5654C59.3971 98.8571 59.249 99.2741 59.2217 99.8164H62.2158ZM67.8145 104.082C66.9668 104.082 66.2308 103.797 65.6064 103.228C64.9411 102.658 64.6038 101.735 64.5947 100.459C64.613 99.1602 64.9502 98.2259 65.6064 97.6562C66.2399 97.0775 66.9759 96.7972 67.8145 96.8154C68.3659 96.8337 68.8512 96.9476 69.2705 97.1572C69.7035 97.3805 70.068 97.679 70.3643 98.0527L69.3115 98.9893C68.9515 98.5016 68.473 98.2533 67.876 98.2441C66.6501 98.2259 66.0326 98.9642 66.0234 100.459C66.0326 101.94 66.6501 102.672 67.876 102.653C68.4821 102.635 68.9606 102.389 69.3115 101.915L70.3643 102.852C70.0452 103.207 69.6807 103.496 69.2705 103.72C68.8421 103.961 68.3568 104.082 67.8145 104.082ZM72.7773 98.2441H70.5967V96.9043H76.3047V98.2441H74.2061V104H72.7773V98.2441ZM77.3916 96.9043H78.8203V99.5771H80.6934C81.3861 99.5771 81.9421 99.7799 82.3613 100.186C82.7806 100.591 82.9902 101.124 82.9902 101.785C82.9902 102.451 82.7806 102.986 82.3613 103.392C81.9421 103.797 81.3861 104 80.6934 104H77.3916V96.9043ZM80.543 102.742C80.8711 102.742 81.1263 102.656 81.3086 102.482C81.4909 102.309 81.582 102.068 81.582 101.758C81.582 101.462 81.4909 101.227 81.3086 101.054C81.1263 100.881 80.8711 100.794 80.543 100.794H78.8203V102.742H80.543ZM86.8047 102.653H87.6182C87.7412 102.348 87.8506 102.029 87.9463 101.696C88.0465 101.364 88.1263 100.979 88.1855 100.541C88.2448 100.104 88.2904 99.5908 88.3223 99.0029C88.3587 98.415 88.377 97.7155 88.377 96.9043H93.1621V102.653H94.1396V105.818H92.7998V104H88.1514V105.818H86.8047V102.653ZM91.7334 102.653V98.2441H89.7305C89.7305 98.8229 89.7145 99.3333 89.6826 99.7754C89.6507 100.213 89.6051 100.607 89.5459 100.958C89.4912 101.304 89.4251 101.617 89.3477 101.895C89.2702 102.168 89.1882 102.421 89.1016 102.653H91.7334ZM97.9678 104.082C97.585 104.082 97.2204 104.027 96.874 103.918C96.7145 103.868 96.5413 103.788 96.3545 103.679C96.1859 103.606 96.0195 103.499 95.8555 103.357C95.5456 103.075 95.3018 102.706 95.124 102.25C94.9189 101.803 94.8164 101.211 94.8164 100.473C94.8164 99.7526 94.9053 99.1693 95.083 98.7227C95.2699 98.2259 95.4977 97.8522 95.7666 97.6016C96.04 97.3327 96.3568 97.1322 96.7168 97C97.054 96.877 97.3958 96.8154 97.7422 96.8154C98.5534 96.8337 99.2393 97.1003 99.7998 97.6152C100.36 98.1393 100.65 98.873 100.668 99.8164V100.992H96.2451C96.2451 101.562 96.4092 101.995 96.7373 102.291C97.0518 102.592 97.4528 102.742 97.9404 102.742C98.5192 102.742 99.0365 102.512 99.4922 102.052L100.531 102.934C99.793 103.708 98.9385 104.091 97.9678 104.082ZM99.2393 99.8164C99.221 99.2741 99.0729 98.8571 98.7949 98.5654C98.5215 98.2965 98.1706 98.1621 97.7422 98.1621C97.3138 98.1621 96.9629 98.2965 96.6895 98.5654C96.4206 98.8571 96.2725 99.2741 96.2451 99.8164H99.2393ZM104.838 104.082C103.99 104.082 103.254 103.797 102.63 103.228C101.965 102.658 101.627 101.735 101.618 100.459C101.636 99.1602 101.974 98.2259 102.63 97.6562C103.263 97.0775 103.999 96.7972 104.838 96.8154C105.389 96.8337 105.875 96.9476 106.294 97.1572C106.727 97.3805 107.091 97.679 107.388 98.0527L106.335 98.9893C105.975 98.5016 105.496 98.2533 104.899 98.2441C103.674 98.2259 103.056 98.9642 103.047 100.459C103.056 101.94 103.674 102.672 104.899 102.653C105.506 102.635 105.984 102.389 106.335 101.915L107.388 102.852C107.069 103.207 106.704 103.496 106.294 103.72C105.866 103.961 105.38 104.082 104.838 104.082ZM107.798 102.653H108.119C108.315 102.653 108.47 102.628 108.584 102.578C108.702 102.528 108.796 102.428 108.864 102.277L109.131 101.662C109.176 101.53 109.231 101.416 109.295 101.32C109.363 101.22 109.461 101.129 109.589 101.047C109.142 100.969 108.787 100.751 108.522 100.391C108.263 100.026 108.133 99.5771 108.133 99.0439C108.133 98.374 108.34 97.8499 108.755 97.4717C109.174 97.0934 109.737 96.9043 110.443 96.9043H113.69V104H112.262V101.272H111.688C111.346 101.272 111.093 101.325 110.929 101.43C110.765 101.53 110.617 101.737 110.484 102.052L110.163 102.838C110.081 103.052 109.988 103.232 109.883 103.378C109.783 103.524 109.666 103.645 109.534 103.74C109.402 103.831 109.245 103.897 109.062 103.938C108.885 103.979 108.673 104 108.427 104H107.798V102.653ZM112.262 100.097V98.1895H110.601C110.245 98.1895 109.979 98.276 109.801 98.4492C109.623 98.6224 109.534 98.8571 109.534 99.1533C109.534 99.7822 109.89 100.097 110.601 100.097H112.262ZM116.951 98.2441H114.771V96.9043H120.479V98.2441H118.38V104H116.951V98.2441ZM121.565 96.9043H122.994V99.6865H123.664C123.919 99.6865 124.131 99.6318 124.3 99.5225C124.473 99.4085 124.598 99.2536 124.676 99.0576L125.011 98.1074C125.161 97.679 125.366 97.3714 125.626 97.1846C125.886 96.9977 126.25 96.9043 126.72 96.9043H127.191V98.1895H126.986C126.845 98.1895 126.727 98.1963 126.631 98.21C126.54 98.2236 126.462 98.2533 126.398 98.2988C126.339 98.3398 126.289 98.3991 126.248 98.4766C126.207 98.554 126.164 98.6589 126.118 98.791L125.879 99.4951C125.806 99.7093 125.701 99.8779 125.564 100.001C125.428 100.119 125.28 100.206 125.12 100.261C125.366 100.338 125.562 100.454 125.708 100.609C125.858 100.76 125.986 100.965 126.091 101.225L126.426 102.093C126.471 102.216 126.515 102.316 126.556 102.394C126.597 102.466 126.645 102.523 126.699 102.564C126.758 102.605 126.827 102.635 126.904 102.653C126.986 102.672 127.093 102.681 127.226 102.681H127.547V104H127.027C126.512 104 126.118 103.904 125.845 103.713C125.576 103.521 125.355 103.193 125.182 102.729L124.785 101.717C124.721 101.548 124.642 101.421 124.546 101.334C124.455 101.243 124.354 101.174 124.245 101.129C124.14 101.083 124.031 101.056 123.917 101.047C123.808 101.038 123.696 101.033 123.582 101.033H122.994V104H121.565V96.9043ZM128.675 96.9043H130.104V101.717L133.187 96.9043H134.615V104H133.187V99.1123L130.104 104H128.675V96.9043ZM139.831 96.9043H141.26V97.6426C141.738 97.1094 142.349 96.8337 143.092 96.8154C143.953 96.8245 144.589 97.1344 144.999 97.7451C145.204 97.9775 145.339 98.2715 145.402 98.627C145.439 98.8138 145.464 99.0599 145.478 99.3652C145.496 99.666 145.505 100.031 145.505 100.459C145.505 100.878 145.496 101.238 145.478 101.539C145.464 101.835 145.439 102.077 145.402 102.264C145.339 102.619 145.204 102.918 144.999 103.159C144.794 103.442 144.536 103.66 144.227 103.815C143.921 103.975 143.543 104.064 143.092 104.082C142.741 104.082 142.415 104.002 142.114 103.843C141.804 103.688 141.52 103.487 141.26 103.241V106.871H139.831V96.9043ZM142.661 102.653C142.989 102.653 143.256 102.59 143.461 102.462C143.657 102.339 143.796 102.17 143.878 101.956C143.974 101.76 144.035 101.523 144.062 101.245C144.072 101.113 144.076 100.983 144.076 100.855C144.076 100.723 144.076 100.591 144.076 100.459C144.076 100.318 144.076 100.179 144.076 100.042C144.076 99.9007 144.072 99.764 144.062 99.6318C144.035 99.3538 143.974 99.1169 143.878 98.9209C143.796 98.7158 143.657 98.5472 143.461 98.415C143.265 98.3011 142.998 98.2441 142.661 98.2441C142.342 98.2441 142.089 98.3102 141.902 98.4424C141.715 98.5654 141.572 98.7386 141.472 98.9619C141.385 99.167 141.328 99.3994 141.301 99.6592C141.273 99.9326 141.26 100.199 141.26 100.459C141.26 100.71 141.273 100.96 141.301 101.211C141.328 101.484 141.385 101.724 141.472 101.929C141.572 102.152 141.715 102.325 141.902 102.448C142.08 102.585 142.333 102.653 142.661 102.653ZM149.053 104.082C148.269 104.073 147.658 103.863 147.221 103.453C146.77 103.052 146.544 102.539 146.544 101.915C146.544 101.318 146.74 100.824 147.132 100.432C147.515 100.04 148.089 99.8346 148.854 99.8164H150.83V99.0713C150.839 98.4469 150.354 98.1439 149.374 98.1621C149.037 98.1621 148.757 98.1986 148.533 98.2715C148.319 98.3581 148.15 98.5039 148.027 98.709L146.906 97.8545C147.449 97.1436 148.248 96.7972 149.306 96.8154C150.199 96.8063 150.912 96.9749 151.445 97.3213C151.969 97.6676 152.241 98.2783 152.259 99.1533V104H150.83V103.371H150.803C150.671 103.613 150.465 103.79 150.188 103.904C149.932 104.023 149.554 104.082 149.053 104.082ZM149.23 102.742C149.832 102.76 150.254 102.69 150.495 102.53C150.718 102.38 150.83 102.038 150.83 101.505V100.992H149.121C148.283 101.01 147.872 101.295 147.891 101.847C147.891 102.088 147.998 102.293 148.212 102.462C148.426 102.649 148.766 102.742 149.23 102.742ZM156.012 104.082C155.424 104.082 154.918 103.989 154.494 103.802C154.075 103.615 153.683 103.326 153.318 102.934L154.357 102.052C154.59 102.289 154.825 102.464 155.062 102.578C155.303 102.688 155.62 102.742 156.012 102.742C156.449 102.742 156.8 102.662 157.064 102.503C157.333 102.343 157.468 102.109 157.468 101.799C157.468 101.493 157.368 101.279 157.167 101.156C156.966 101.029 156.654 100.965 156.23 100.965H155.198V99.7891H156.251C156.593 99.7891 156.866 99.7139 157.071 99.5635C157.276 99.4131 157.379 99.2035 157.379 98.9346C157.379 98.6611 157.26 98.4629 157.023 98.3398C156.786 98.2122 156.449 98.1484 156.012 98.1484C155.72 98.1484 155.433 98.1986 155.15 98.2988C154.872 98.3945 154.622 98.5495 154.398 98.7637L153.38 97.8818C153.549 97.7132 153.719 97.5651 153.893 97.4375C154.07 97.3053 154.266 97.1937 154.48 97.1025C154.699 97.0068 154.943 96.9362 155.212 96.8906C155.481 96.8405 155.793 96.8154 156.148 96.8154C156.531 96.8154 156.891 96.8473 157.229 96.9111C157.566 96.9704 157.855 97.0889 158.097 97.2666C158.32 97.4261 158.489 97.6357 158.603 97.8955C158.721 98.1553 158.78 98.4355 158.78 98.7363C158.78 99.0827 158.689 99.3971 158.507 99.6797C158.325 99.9577 158.072 100.16 157.748 100.288C158.09 100.42 158.366 100.632 158.575 100.924C158.789 101.211 158.896 101.55 158.896 101.942C158.896 102.307 158.81 102.646 158.637 102.961C158.464 103.271 158.217 103.519 157.898 103.706C157.657 103.856 157.372 103.957 157.044 104.007C156.72 104.057 156.376 104.082 156.012 104.082ZM160.394 96.9043H161.822V99.6729H164.639V96.9043H166.067V104H164.639V101.02H161.822V104H160.394V96.9043ZM167.913 96.9043H169.342V99.5771H171.215C171.908 99.5771 172.464 99.7799 172.883 100.186C173.302 100.591 173.512 101.124 173.512 101.785C173.512 102.451 173.302 102.986 172.883 103.392C172.464 103.797 171.908 104 171.215 104H167.913V96.9043ZM171.064 102.742C171.393 102.742 171.648 102.656 171.83 102.482C172.012 102.309 172.104 102.068 172.104 101.758C172.104 101.462 172.012 101.227 171.83 101.054C171.648 100.881 171.393 100.794 171.064 100.794H169.342V102.742H171.064ZM174.496 96.9043H175.925V104H174.496V96.9043ZM179.411 100.377L177.087 96.9043H178.796L180.211 99.2012L181.619 96.9043H183.328L181.004 100.377L183.431 104H181.722L180.211 101.635L178.693 104H176.984L179.411 100.377ZM187.86 96.9043H193.534V104H192.105V98.2441H189.289V104H187.86V96.9043ZM197.957 104.082C197.433 104.082 196.989 103.979 196.624 103.774C196.264 103.588 195.991 103.387 195.804 103.173C195.53 102.877 195.334 102.537 195.216 102.154C195.093 101.781 195.031 101.211 195.031 100.445C195.031 99.6888 195.093 99.1146 195.216 98.7227C195.343 98.3216 195.539 97.9889 195.804 97.7246C196 97.4922 196.273 97.2826 196.624 97.0957C196.979 96.9089 197.424 96.8154 197.957 96.8154C198.508 96.8154 198.962 96.9089 199.317 97.0957C199.659 97.2826 199.924 97.4922 200.11 97.7246C200.384 97.9889 200.584 98.3216 200.712 98.7227C200.826 99.1328 200.883 99.707 200.883 100.445C200.883 101.193 200.826 101.762 200.712 102.154C200.584 102.546 200.384 102.886 200.11 103.173C200.065 103.218 200.015 103.271 199.96 103.33C199.905 103.385 199.844 103.435 199.775 103.48C199.648 103.594 199.495 103.692 199.317 103.774C198.953 103.979 198.499 104.082 197.957 104.082ZM197.957 102.653C198.208 102.653 198.436 102.603 198.641 102.503C198.846 102.407 199.001 102.286 199.105 102.141C199.256 101.945 199.349 101.74 199.386 101.525C199.404 101.411 199.42 101.266 199.434 101.088C199.447 100.91 199.454 100.701 199.454 100.459C199.454 100.208 199.447 99.9919 199.434 99.8096C199.42 99.6273 199.404 99.4746 199.386 99.3516C199.349 99.1374 199.256 98.9414 199.105 98.7637C199.001 98.6133 198.846 98.488 198.641 98.3877C198.454 98.292 198.226 98.2441 197.957 98.2441C197.706 98.2441 197.483 98.292 197.287 98.3877C197.1 98.4788 196.941 98.6042 196.809 98.7637C196.686 98.9232 196.597 99.1191 196.542 99.3516C196.487 99.5931 196.46 99.9577 196.46 100.445C196.46 100.938 196.487 101.298 196.542 101.525C196.597 101.758 196.686 101.963 196.809 102.141C196.95 102.286 197.109 102.407 197.287 102.503C197.51 102.603 197.734 102.653 197.957 102.653ZM201.539 102.653H201.765C201.915 102.653 202.054 102.642 202.182 102.619C202.314 102.596 202.432 102.528 202.537 102.414C202.646 102.296 202.74 102.118 202.817 101.881C202.899 101.644 202.968 101.313 203.022 100.89C203.082 100.461 203.125 99.9235 203.152 99.2764C203.18 98.6247 203.193 97.834 203.193 96.9043H207.992V104H206.57V98.2441H204.554C204.554 99.1055 204.529 99.846 204.479 100.466C204.433 101.086 204.365 101.607 204.273 102.031C204.187 102.455 204.073 102.799 203.932 103.063C203.795 103.323 203.635 103.521 203.453 103.658C203.271 103.795 203.066 103.886 202.838 103.932C202.61 103.977 202.359 104 202.086 104H201.539V102.653ZM209.708 105.524H210.125C210.312 105.524 210.485 105.474 210.645 105.374C210.795 105.278 210.907 105.123 210.979 104.909L211.369 103.72L208.826 96.9043H210.337L212.019 101.874H212.046L213.721 96.9043H215.238L212.183 105.47C211.987 106.003 211.715 106.372 211.369 106.577C211.018 106.773 210.622 106.871 210.18 106.871H209.708V105.524ZM219.682 103.665C219.472 103.815 219.258 103.923 219.039 103.986C218.82 104.05 218.545 104.082 218.212 104.082C217.752 104.082 217.364 103.991 217.05 103.809C216.74 103.626 216.478 103.382 216.264 103.077C216.168 102.936 216.09 102.79 216.031 102.64C215.972 102.485 215.924 102.305 215.888 102.1C215.856 101.89 215.835 101.651 215.826 101.382C215.817 101.113 215.812 100.796 215.812 100.432C215.812 99.862 215.833 99.363 215.874 98.9346C215.92 98.5016 216.049 98.1143 216.264 97.7725C216.478 97.4352 216.756 97.1914 217.098 97.041C217.444 96.8906 217.834 96.8154 218.267 96.8154C218.599 96.8154 218.87 96.8587 219.08 96.9453C219.294 97.0273 219.495 97.1344 219.682 97.2666V94.0332H221.09V97.2666C221.277 97.1344 221.475 97.0273 221.685 96.9453C221.899 96.8587 222.172 96.8154 222.505 96.8154C222.933 96.8154 223.321 96.8906 223.667 97.041C224.013 97.1914 224.294 97.4352 224.508 97.7725C224.722 98.1143 224.85 98.5016 224.891 98.9346C224.936 99.363 224.959 99.862 224.959 100.432C224.959 100.796 224.954 101.113 224.945 101.382C224.936 101.651 224.913 101.89 224.877 102.1C224.845 102.305 224.799 102.485 224.74 102.64C224.681 102.79 224.604 102.936 224.508 103.077C224.294 103.382 224.029 103.626 223.715 103.809C223.405 103.991 223.02 104.082 222.56 104.082C222.227 104.082 221.949 104.05 221.726 103.986C221.507 103.923 221.295 103.815 221.09 103.665V106.871H219.682V103.665ZM218.602 102.653C218.825 102.653 219.028 102.61 219.21 102.523C219.392 102.432 219.549 102.314 219.682 102.168V98.7363C219.549 98.5859 219.395 98.4674 219.217 98.3809C219.039 98.2897 218.839 98.2441 218.615 98.2441C218.137 98.2441 217.786 98.4082 217.562 98.7363C217.339 99.0645 217.228 99.6387 217.228 100.459C217.228 101.261 217.339 101.828 217.562 102.161C217.786 102.489 218.132 102.653 218.602 102.653ZM222.17 102.653C222.635 102.653 222.979 102.489 223.202 102.161C223.43 101.828 223.544 101.261 223.544 100.459C223.544 99.6387 223.43 99.0645 223.202 98.7363C222.979 98.4082 222.63 98.2441 222.156 98.2441C221.933 98.2441 221.732 98.2897 221.555 98.3809C221.377 98.4674 221.222 98.5859 221.09 98.7363V102.168C221.222 102.314 221.379 102.432 221.562 102.523C221.744 102.61 221.947 102.653 222.17 102.653ZM228.5 104.082C227.716 104.073 227.105 103.863 226.668 103.453C226.217 103.052 225.991 102.539 225.991 101.915C225.991 101.318 226.187 100.824 226.579 100.432C226.962 100.04 227.536 99.8346 228.302 99.8164H230.277V99.0713C230.286 98.4469 229.801 98.1439 228.821 98.1621C228.484 98.1621 228.204 98.1986 227.98 98.2715C227.766 98.3581 227.598 98.5039 227.475 98.709L226.354 97.8545C226.896 97.1436 227.696 96.7972 228.753 96.8154C229.646 96.8063 230.359 96.9749 230.893 97.3213C231.417 97.6676 231.688 98.2783 231.706 99.1533V104H230.277V103.371H230.25C230.118 103.613 229.913 103.79 229.635 103.904C229.38 104.023 229.001 104.082 228.5 104.082ZM228.678 102.742C229.279 102.76 229.701 102.69 229.942 102.53C230.166 102.38 230.277 102.038 230.277 101.505V100.992H228.568C227.73 101.01 227.32 101.295 227.338 101.847C227.338 102.088 227.445 102.293 227.659 102.462C227.873 102.649 228.213 102.742 228.678 102.742ZM236.382 104.082C235.662 104.082 235.076 103.916 234.625 103.583C234.174 103.246 233.855 102.797 233.668 102.236C233.609 102.077 233.565 101.895 233.538 101.689C233.511 101.484 233.488 101.27 233.47 101.047C233.451 100.824 233.44 100.6 233.436 100.377C233.431 100.149 233.429 99.9372 233.429 99.7412V99.2012C233.429 98.8184 233.436 98.4469 233.449 98.0869C233.463 97.7269 233.504 97.3851 233.572 97.0615C233.645 96.7334 233.75 96.4303 233.887 96.1523C234.028 95.8698 234.219 95.6146 234.461 95.3867C234.657 95.2135 234.864 95.0723 235.083 94.9629C235.306 94.8535 235.536 94.7692 235.773 94.71C236.01 94.6507 236.25 94.6051 236.491 94.5732C236.733 94.5413 236.972 94.5094 237.209 94.4775C237.355 94.4593 237.473 94.416 237.564 94.3477C237.66 94.2793 237.719 94.1745 237.742 94.0332H239.198C239.121 95.0677 238.64 95.6556 237.756 95.7969C237.528 95.8333 237.302 95.863 237.079 95.8857C236.856 95.9085 236.635 95.9427 236.416 95.9883C236.197 96.0293 235.99 96.0908 235.794 96.1729C235.598 96.2503 235.416 96.362 235.247 96.5078C235.033 96.7038 234.876 96.9385 234.775 97.2119C234.68 97.4808 234.627 97.7314 234.618 97.9639H234.659C234.819 97.6859 235.076 97.4489 235.432 97.2529C235.792 97.057 236.211 96.959 236.689 96.959C237.624 96.959 238.298 97.2643 238.713 97.875C239.128 98.4857 239.335 99.3561 239.335 100.486C239.335 101.102 239.278 101.628 239.164 102.065C239.055 102.498 238.868 102.872 238.604 103.187C238.362 103.478 238.054 103.701 237.681 103.856C237.307 104.007 236.874 104.082 236.382 104.082ZM236.368 102.667C236.61 102.667 236.828 102.624 237.024 102.537C237.22 102.451 237.384 102.327 237.517 102.168C237.676 101.981 237.781 101.756 237.831 101.491C237.881 101.222 237.906 100.896 237.906 100.514C237.906 100.122 237.881 99.7868 237.831 99.5088C237.781 99.2262 237.676 98.9915 237.517 98.8047C237.384 98.6543 237.22 98.5381 237.024 98.4561C236.828 98.374 236.61 98.333 236.368 98.333C236.127 98.333 235.908 98.3763 235.712 98.4629C235.516 98.5495 235.356 98.6725 235.233 98.832C235.074 99.0189 234.971 99.2536 234.926 99.5361C234.88 99.8141 234.857 100.149 234.857 100.541C234.857 100.988 234.894 101.343 234.967 101.607C235.04 101.867 235.156 102.081 235.315 102.25C235.448 102.382 235.605 102.485 235.787 102.558C235.969 102.631 236.163 102.667 236.368 102.667ZM240.839 96.9043H242.268V97.6426C242.746 97.1094 243.357 96.8337 244.1 96.8154C244.961 96.8245 245.597 97.1344 246.007 97.7451C246.212 97.9775 246.346 98.2715 246.41 98.627C246.447 98.8138 246.472 99.0599 246.485 99.3652C246.504 99.666 246.513 100.031 246.513 100.459C246.513 100.878 246.504 101.238 246.485 101.539C246.472 101.835 246.447 102.077 246.41 102.264C246.346 102.619 246.212 102.918 246.007 103.159C245.802 103.442 245.544 103.66 245.234 103.815C244.929 103.975 244.551 104.064 244.1 104.082C243.749 104.082 243.423 104.002 243.122 103.843C242.812 103.688 242.527 103.487 242.268 103.241V106.871H240.839V96.9043ZM243.669 102.653C243.997 102.653 244.264 102.59 244.469 102.462C244.665 102.339 244.804 102.17 244.886 101.956C244.981 101.76 245.043 101.523 245.07 101.245C245.079 101.113 245.084 100.983 245.084 100.855C245.084 100.723 245.084 100.591 245.084 100.459C245.084 100.318 245.084 100.179 245.084 100.042C245.084 99.9007 245.079 99.764 245.07 99.6318C245.043 99.3538 244.981 99.1169 244.886 98.9209C244.804 98.7158 244.665 98.5472 244.469 98.415C244.273 98.3011 244.006 98.2441 243.669 98.2441C243.35 98.2441 243.097 98.3102 242.91 98.4424C242.723 98.5654 242.58 98.7386 242.479 98.9619C242.393 99.167 242.336 99.3994 242.309 99.6592C242.281 99.9326 242.268 100.199 242.268 100.459C242.268 100.71 242.281 100.96 242.309 101.211C242.336 101.484 242.393 101.724 242.479 101.929C242.58 102.152 242.723 102.325 242.91 102.448C243.088 102.585 243.341 102.653 243.669 102.653ZM248.112 96.9043H249.541V101.717L252.624 96.9043H254.053V104H252.624V99.1123L249.541 104H248.112V96.9043ZM255.905 96.9043H257.334V99.6865H258.004C258.259 99.6865 258.471 99.6318 258.64 99.5225C258.813 99.4085 258.938 99.2536 259.016 99.0576L259.351 98.1074C259.501 97.679 259.706 97.3714 259.966 97.1846C260.226 96.9977 260.59 96.9043 261.06 96.9043H261.531V98.1895H261.326C261.185 98.1895 261.066 98.1963 260.971 98.21C260.88 98.2236 260.802 98.2533 260.738 98.2988C260.679 98.3398 260.629 98.3991 260.588 98.4766C260.547 98.554 260.504 98.6589 260.458 98.791L260.219 99.4951C260.146 99.7093 260.041 99.8779 259.904 100.001C259.768 100.119 259.619 100.206 259.46 100.261C259.706 100.338 259.902 100.454 260.048 100.609C260.198 100.76 260.326 100.965 260.431 101.225L260.766 102.093C260.811 102.216 260.854 102.316 260.896 102.394C260.937 102.466 260.984 102.523 261.039 102.564C261.098 102.605 261.167 102.635 261.244 102.653C261.326 102.672 261.433 102.681 261.565 102.681H261.887V104H261.367C260.852 104 260.458 103.904 260.185 103.713C259.916 103.521 259.695 103.193 259.521 102.729L259.125 101.717C259.061 101.548 258.981 101.421 258.886 101.334C258.795 101.243 258.694 101.174 258.585 101.129C258.48 101.083 258.371 101.056 258.257 101.047C258.147 101.038 258.036 101.033 257.922 101.033H257.334V104H255.905V96.9043ZM264.963 104.082C264.179 104.073 263.568 103.863 263.131 103.453C262.68 103.052 262.454 102.539 262.454 101.915C262.454 101.318 262.65 100.824 263.042 100.432C263.425 100.04 263.999 99.8346 264.765 99.8164H266.74V99.0713C266.749 98.4469 266.264 98.1439 265.284 98.1621C264.947 98.1621 264.667 98.1986 264.443 98.2715C264.229 98.3581 264.061 98.5039 263.938 98.709L262.816 97.8545C263.359 97.1436 264.159 96.7972 265.216 96.8154C266.109 96.8063 266.822 96.9749 267.355 97.3213C267.88 97.6676 268.151 98.2783 268.169 99.1533V104H266.74V103.371H266.713C266.581 103.613 266.376 103.79 266.098 103.904C265.842 104.023 265.464 104.082 264.963 104.082ZM265.141 102.742C265.742 102.76 266.164 102.69 266.405 102.53C266.629 102.38 266.74 102.038 266.74 101.505V100.992H265.031C264.193 101.01 263.783 101.295 263.801 101.847C263.801 102.088 263.908 102.293 264.122 102.462C264.336 102.649 264.676 102.742 265.141 102.742ZM271.43 98.2441H269.249V96.9043H274.957V98.2441H272.858V104H271.43V98.2441ZM278.621 104.082C278.097 104.082 277.653 103.979 277.288 103.774C276.928 103.588 276.655 103.387 276.468 103.173C276.194 102.877 275.998 102.537 275.88 102.154C275.757 101.781 275.695 101.211 275.695 100.445C275.695 99.6888 275.757 99.1146 275.88 98.7227C276.007 98.3216 276.203 97.9889 276.468 97.7246C276.664 97.4922 276.937 97.2826 277.288 97.0957C277.644 96.9089 278.088 96.8154 278.621 96.8154C279.173 96.8154 279.626 96.9089 279.981 97.0957C280.323 97.2826 280.588 97.4922 280.774 97.7246C281.048 97.9889 281.248 98.3216 281.376 98.7227C281.49 99.1328 281.547 99.707 281.547 100.445C281.547 101.193 281.49 101.762 281.376 102.154C281.248 102.546 281.048 102.886 280.774 103.173C280.729 103.218 280.679 103.271 280.624 103.33C280.569 103.385 280.508 103.435 280.439 103.48C280.312 103.594 280.159 103.692 279.981 103.774C279.617 103.979 279.163 104.082 278.621 104.082ZM278.621 102.653C278.872 102.653 279.1 102.603 279.305 102.503C279.51 102.407 279.665 102.286 279.77 102.141C279.92 101.945 280.013 101.74 280.05 101.525C280.068 101.411 280.084 101.266 280.098 101.088C280.111 100.91 280.118 100.701 280.118 100.459C280.118 100.208 280.111 99.9919 280.098 99.8096C280.084 99.6273 280.068 99.4746 280.05 99.3516C280.013 99.1374 279.92 98.9414 279.77 98.7637C279.665 98.6133 279.51 98.488 279.305 98.3877C279.118 98.292 278.89 98.2441 278.621 98.2441C278.37 98.2441 278.147 98.292 277.951 98.3877C277.764 98.4788 277.605 98.6042 277.473 98.7637C277.35 98.9232 277.261 99.1191 277.206 99.3516C277.151 99.5931 277.124 99.9577 277.124 100.445C277.124 100.938 277.151 101.298 277.206 101.525C277.261 101.758 277.35 101.963 277.473 102.141C277.614 102.286 277.773 102.407 277.951 102.503C278.174 102.603 278.398 102.653 278.621 102.653ZM283.044 96.9043H286.448C287.1 96.9043 287.619 97.0775 288.007 97.4238C288.394 97.7656 288.588 98.2259 288.588 98.8047C288.588 99.5156 288.257 100.024 287.597 100.329C287.952 100.489 288.226 100.705 288.417 100.979C288.608 101.247 288.704 101.587 288.704 101.997C288.704 102.612 288.515 103.1 288.137 103.46C287.758 103.82 287.232 104 286.558 104H283.044V96.9043ZM286.277 102.811C286.596 102.811 286.847 102.724 287.029 102.551C287.212 102.378 287.303 102.147 287.303 101.86C287.303 101.56 287.212 101.327 287.029 101.163C286.847 100.999 286.596 100.917 286.277 100.917H284.473V102.811H286.277ZM286.182 99.8164C286.852 99.8164 287.187 99.5225 287.187 98.9346C287.187 98.6611 287.1 98.4538 286.927 98.3125C286.758 98.1667 286.51 98.0938 286.182 98.0938H284.473V99.8164H286.182ZM290.249 105.039V102.571H291.678V104L290.249 105.039ZM26.7441 119.409C26.5026 119.455 26.2087 119.505 25.8623 119.56C25.516 119.61 25.1331 119.635 24.7139 119.635C24.126 119.635 23.6429 119.464 23.2646 119.122C22.8864 118.78 22.6973 118.247 22.6973 117.522V114.904H24.126V117.242C24.126 117.625 24.2171 117.896 24.3994 118.056C24.5817 118.211 24.8369 118.288 25.165 118.288C25.4613 118.288 25.7484 118.27 26.0264 118.233C26.3089 118.197 26.5482 118.16 26.7441 118.124V114.904H28.1729V122H26.7441V119.409ZM31.4336 116.244H29.2529V114.904H34.9609V116.244H32.8623V122H31.4336V116.244ZM38.625 122.082C38.1009 122.082 37.6566 121.979 37.292 121.774C36.932 121.588 36.6585 121.387 36.4717 121.173C36.1982 120.877 36.0023 120.537 35.8838 120.154C35.7607 119.781 35.6992 119.211 35.6992 118.445C35.6992 117.689 35.7607 117.115 35.8838 116.723C36.0114 116.322 36.2074 115.989 36.4717 115.725C36.6676 115.492 36.9411 115.283 37.292 115.096C37.6475 114.909 38.0918 114.815 38.625 114.815C39.1764 114.815 39.6299 114.909 39.9854 115.096C40.3271 115.283 40.5915 115.492 40.7783 115.725C41.0518 115.989 41.2523 116.322 41.3799 116.723C41.4938 117.133 41.5508 117.707 41.5508 118.445C41.5508 119.193 41.4938 119.762 41.3799 120.154C41.2523 120.546 41.0518 120.886 40.7783 121.173C40.7327 121.218 40.6826 121.271 40.6279 121.33C40.5732 121.385 40.5117 121.435 40.4434 121.48C40.3158 121.594 40.1631 121.692 39.9854 121.774C39.6208 121.979 39.1673 122.082 38.625 122.082ZM38.625 120.653C38.8757 120.653 39.1035 120.603 39.3086 120.503C39.5137 120.407 39.6686 120.286 39.7734 120.141C39.9238 119.945 40.0173 119.74 40.0537 119.525C40.0719 119.411 40.0879 119.266 40.1016 119.088C40.1152 118.91 40.1221 118.701 40.1221 118.459C40.1221 118.208 40.1152 117.992 40.1016 117.81C40.0879 117.627 40.0719 117.475 40.0537 117.352C40.0173 117.137 39.9238 116.941 39.7734 116.764C39.6686 116.613 39.5137 116.488 39.3086 116.388C39.1217 116.292 38.8939 116.244 38.625 116.244C38.3743 116.244 38.151 116.292 37.9551 116.388C37.7682 116.479 37.6087 116.604 37.4766 116.764C37.3535 116.923 37.2646 117.119 37.21 117.352C37.1553 117.593 37.1279 117.958 37.1279 118.445C37.1279 118.938 37.1553 119.298 37.21 119.525C37.2646 119.758 37.3535 119.963 37.4766 120.141C37.6178 120.286 37.7773 120.407 37.9551 120.503C38.1784 120.603 38.4017 120.653 38.625 120.653ZM45.8779 122.082C45.1579 122.082 44.5723 121.916 44.1211 121.583C43.6699 121.246 43.3509 120.797 43.1641 120.236C43.1048 120.077 43.0615 119.895 43.0342 119.689C43.0068 119.484 42.984 119.27 42.9658 119.047C42.9476 118.824 42.9362 118.6 42.9316 118.377C42.9271 118.149 42.9248 117.937 42.9248 117.741V117.201C42.9248 116.818 42.9316 116.447 42.9453 116.087C42.959 115.727 43 115.385 43.0684 115.062C43.1413 114.733 43.2461 114.43 43.3828 114.152C43.5241 113.87 43.7155 113.615 43.957 113.387C44.153 113.214 44.3604 113.072 44.5791 112.963C44.8024 112.854 45.0326 112.769 45.2695 112.71C45.5065 112.651 45.7458 112.605 45.9873 112.573C46.2288 112.541 46.4681 112.509 46.7051 112.478C46.8509 112.459 46.9694 112.416 47.0605 112.348C47.1562 112.279 47.2155 112.174 47.2383 112.033H48.6943C48.6169 113.068 48.1361 113.656 47.252 113.797C47.0241 113.833 46.7985 113.863 46.5752 113.886C46.3519 113.909 46.1309 113.943 45.9121 113.988C45.6934 114.029 45.486 114.091 45.29 114.173C45.0941 114.25 44.9118 114.362 44.7432 114.508C44.529 114.704 44.3717 114.938 44.2715 115.212C44.1758 115.481 44.1234 115.731 44.1143 115.964H44.1553C44.3148 115.686 44.5723 115.449 44.9277 115.253C45.2878 115.057 45.707 114.959 46.1855 114.959C47.1198 114.959 47.7943 115.264 48.209 115.875C48.6237 116.486 48.8311 117.356 48.8311 118.486C48.8311 119.102 48.7741 119.628 48.6602 120.065C48.5508 120.498 48.3639 120.872 48.0996 121.187C47.8581 121.478 47.5505 121.701 47.1768 121.856C46.8031 122.007 46.3701 122.082 45.8779 122.082ZM45.8643 120.667C46.1058 120.667 46.3245 120.624 46.5205 120.537C46.7165 120.451 46.8805 120.327 47.0127 120.168C47.1722 119.981 47.277 119.756 47.3271 119.491C47.3773 119.222 47.4023 118.896 47.4023 118.514C47.4023 118.122 47.3773 117.787 47.3271 117.509C47.277 117.226 47.1722 116.992 47.0127 116.805C46.8805 116.654 46.7165 116.538 46.5205 116.456C46.3245 116.374 46.1058 116.333 45.8643 116.333C45.6227 116.333 45.404 116.376 45.208 116.463C45.012 116.549 44.8525 116.673 44.7295 116.832C44.57 117.019 44.4674 117.254 44.4219 117.536C44.3763 117.814 44.3535 118.149 44.3535 118.541C44.3535 118.988 44.39 119.343 44.4629 119.607C44.5358 119.867 44.652 120.081 44.8115 120.25C44.9437 120.382 45.1009 120.485 45.2832 120.558C45.4655 120.631 45.6592 120.667 45.8643 120.667ZM50.335 114.904H51.7637V117.577H53.6367C54.3294 117.577 54.8854 117.78 55.3047 118.186C55.724 118.591 55.9336 119.124 55.9336 119.785C55.9336 120.451 55.724 120.986 55.3047 121.392C54.8854 121.797 54.3294 122 53.6367 122H50.335V114.904ZM53.4863 120.742C53.8145 120.742 54.0697 120.656 54.252 120.482C54.4342 120.309 54.5254 120.068 54.5254 119.758C54.5254 119.462 54.4342 119.227 54.252 119.054C54.0697 118.881 53.8145 118.794 53.4863 118.794H51.7637V120.742H53.4863ZM56.918 114.904H58.3467V122H56.918V114.904ZM63.5557 114.904H66.96C67.6117 114.904 68.1312 115.077 68.5186 115.424C68.9059 115.766 69.0996 116.226 69.0996 116.805C69.0996 117.516 68.7692 118.024 68.1084 118.329C68.4639 118.489 68.7373 118.705 68.9287 118.979C69.1201 119.247 69.2158 119.587 69.2158 119.997C69.2158 120.612 69.0267 121.1 68.6484 121.46C68.2702 121.82 67.7438 122 67.0693 122H63.5557V114.904ZM66.7891 120.811C67.1081 120.811 67.3587 120.724 67.541 120.551C67.7233 120.378 67.8145 120.147 67.8145 119.86C67.8145 119.56 67.7233 119.327 67.541 119.163C67.3587 118.999 67.1081 118.917 66.7891 118.917H64.9844V120.811H66.7891ZM66.6934 117.816C67.3633 117.816 67.6982 117.522 67.6982 116.935C67.6982 116.661 67.6117 116.454 67.4385 116.312C67.2699 116.167 67.0215 116.094 66.6934 116.094H64.9844V117.816H66.6934ZM70.7197 114.904H72.1484V117.577H74.0215C74.7142 117.577 75.2702 117.78 75.6895 118.186C76.1087 118.591 76.3184 119.124 76.3184 119.785C76.3184 120.451 76.1087 120.986 75.6895 121.392C75.2702 121.797 74.7142 122 74.0215 122H70.7197V114.904ZM73.8711 120.742C74.1992 120.742 74.4544 120.656 74.6367 120.482C74.819 120.309 74.9102 120.068 74.9102 119.758C74.9102 119.462 74.819 119.227 74.6367 119.054C74.4544 118.881 74.1992 118.794 73.8711 118.794H72.1484V120.742H73.8711ZM77.3027 114.904H78.7314V122H77.3027V114.904ZM83.9404 114.904H85.3555L87.4814 119.129L89.6006 114.904H90.9951V122H89.5664V117.447L87.9326 120.701H87.0371L85.3691 117.447V122H83.9404V114.904ZM95.418 122.082C94.8939 122.082 94.4495 121.979 94.085 121.774C93.7249 121.588 93.4515 121.387 93.2646 121.173C92.9912 120.877 92.7952 120.537 92.6768 120.154C92.5537 119.781 92.4922 119.211 92.4922 118.445C92.4922 117.689 92.5537 117.115 92.6768 116.723C92.8044 116.322 93.0003 115.989 93.2646 115.725C93.4606 115.492 93.734 115.283 94.085 115.096C94.4404 114.909 94.8848 114.815 95.418 114.815C95.9694 114.815 96.4229 114.909 96.7783 115.096C97.1201 115.283 97.3844 115.492 97.5713 115.725C97.8447 115.989 98.0452 116.322 98.1729 116.723C98.2868 117.133 98.3438 117.707 98.3438 118.445C98.3438 119.193 98.2868 119.762 98.1729 120.154C98.0452 120.546 97.8447 120.886 97.5713 121.173C97.5257 121.218 97.4756 121.271 97.4209 121.33C97.3662 121.385 97.3047 121.435 97.2363 121.48C97.1087 121.594 96.9561 121.692 96.7783 121.774C96.4137 121.979 95.9603 122.082 95.418 122.082ZM95.418 120.653C95.6686 120.653 95.8965 120.603 96.1016 120.503C96.3066 120.407 96.4616 120.286 96.5664 120.141C96.7168 119.945 96.8102 119.74 96.8467 119.525C96.8649 119.411 96.8809 119.266 96.8945 119.088C96.9082 118.91 96.915 118.701 96.915 118.459C96.915 118.208 96.9082 117.992 96.8945 117.81C96.8809 117.627 96.8649 117.475 96.8467 117.352C96.8102 117.137 96.7168 116.941 96.5664 116.764C96.4616 116.613 96.3066 116.488 96.1016 116.388C95.9147 116.292 95.6868 116.244 95.418 116.244C95.1673 116.244 94.944 116.292 94.748 116.388C94.5612 116.479 94.4017 116.604 94.2695 116.764C94.1465 116.923 94.0576 117.119 94.0029 117.352C93.9482 117.593 93.9209 117.958 93.9209 118.445C93.9209 118.938 93.9482 119.298 94.0029 119.525C94.0576 119.758 94.1465 119.963 94.2695 120.141C94.4108 120.286 94.5703 120.407 94.748 120.503C94.9714 120.603 95.1947 120.653 95.418 120.653ZM99.8408 114.904H104.448V116.244H101.27V122H99.8408V114.904ZM104.688 120.653H104.913C105.063 120.653 105.202 120.642 105.33 120.619C105.462 120.596 105.581 120.528 105.686 120.414C105.795 120.296 105.888 120.118 105.966 119.881C106.048 119.644 106.116 119.313 106.171 118.89C106.23 118.461 106.273 117.924 106.301 117.276C106.328 116.625 106.342 115.834 106.342 114.904H111.141V122H109.719V116.244H107.702C107.702 117.105 107.677 117.846 107.627 118.466C107.581 119.086 107.513 119.607 107.422 120.031C107.335 120.455 107.221 120.799 107.08 121.063C106.943 121.323 106.784 121.521 106.602 121.658C106.419 121.795 106.214 121.886 105.986 121.932C105.758 121.977 105.508 122 105.234 122H104.688V120.653ZM112.993 114.904H114.422V119.717L117.505 114.904H118.934V122H117.505V117.112L114.422 122H112.993V114.904ZM124.149 114.904H125.578V117.687H126.248C126.503 117.687 126.715 117.632 126.884 117.522C127.057 117.409 127.182 117.254 127.26 117.058L127.595 116.107C127.745 115.679 127.95 115.371 128.21 115.185C128.47 114.998 128.834 114.904 129.304 114.904H129.775V116.189H129.57C129.429 116.189 129.311 116.196 129.215 116.21C129.124 116.224 129.046 116.253 128.982 116.299C128.923 116.34 128.873 116.399 128.832 116.477C128.791 116.554 128.748 116.659 128.702 116.791L128.463 117.495C128.39 117.709 128.285 117.878 128.148 118.001C128.012 118.119 127.864 118.206 127.704 118.261C127.95 118.338 128.146 118.454 128.292 118.609C128.442 118.76 128.57 118.965 128.675 119.225L129.01 120.093C129.055 120.216 129.099 120.316 129.14 120.394C129.181 120.466 129.229 120.523 129.283 120.564C129.342 120.605 129.411 120.635 129.488 120.653C129.57 120.672 129.677 120.681 129.81 120.681H130.131V122H129.611C129.096 122 128.702 121.904 128.429 121.713C128.16 121.521 127.939 121.193 127.766 120.729L127.369 119.717C127.305 119.548 127.226 119.421 127.13 119.334C127.039 119.243 126.938 119.174 126.829 119.129C126.724 119.083 126.615 119.056 126.501 119.047C126.392 119.038 126.28 119.033 126.166 119.033H125.578V122H124.149V114.904ZM133.207 122.082C132.423 122.073 131.812 121.863 131.375 121.453C130.924 121.052 130.698 120.539 130.698 119.915C130.698 119.318 130.894 118.824 131.286 118.432C131.669 118.04 132.243 117.835 133.009 117.816H134.984V117.071C134.993 116.447 134.508 116.144 133.528 116.162C133.191 116.162 132.911 116.199 132.688 116.271C132.473 116.358 132.305 116.504 132.182 116.709L131.061 115.854C131.603 115.144 132.403 114.797 133.46 114.815C134.353 114.806 135.066 114.975 135.6 115.321C136.124 115.668 136.395 116.278 136.413 117.153V122H134.984V121.371H134.957C134.825 121.613 134.62 121.79 134.342 121.904C134.087 122.023 133.708 122.082 133.207 122.082ZM133.385 120.742C133.986 120.76 134.408 120.69 134.649 120.53C134.873 120.38 134.984 120.038 134.984 119.505V118.992H133.275C132.437 119.01 132.027 119.295 132.045 119.847C132.045 120.088 132.152 120.293 132.366 120.462C132.58 120.649 132.92 120.742 133.385 120.742ZM137.548 120.681H137.855C137.983 120.681 138.088 120.672 138.17 120.653C138.257 120.635 138.327 120.605 138.382 120.564C138.441 120.523 138.491 120.466 138.532 120.394C138.573 120.316 138.619 120.216 138.669 120.093L138.99 119.225C139.09 118.965 139.216 118.76 139.366 118.609C139.517 118.454 139.713 118.338 139.954 118.261C139.795 118.206 139.646 118.119 139.51 118.001C139.378 117.878 139.273 117.709 139.195 117.495L138.963 116.791C138.913 116.659 138.867 116.554 138.826 116.477C138.785 116.399 138.733 116.34 138.669 116.299C138.61 116.253 138.535 116.224 138.443 116.21C138.357 116.196 138.245 116.189 138.108 116.189H137.883V114.904H138.375C138.831 114.904 139.188 114.998 139.448 115.185C139.713 115.371 139.922 115.679 140.077 116.107L140.419 117.058C140.492 117.254 140.615 117.413 140.788 117.536C140.961 117.655 141.169 117.714 141.41 117.714H141.8V114.904H143.229V117.714H143.611C143.862 117.714 144.074 117.655 144.247 117.536C144.42 117.413 144.543 117.254 144.616 117.058L144.951 116.107C145.111 115.679 145.318 115.371 145.573 115.185C145.833 114.998 146.195 114.904 146.66 114.904H147.139V116.189H146.927C146.785 116.189 146.667 116.196 146.571 116.21C146.48 116.224 146.407 116.253 146.353 116.299C146.298 116.34 146.248 116.399 146.202 116.477C146.161 116.554 146.118 116.659 146.072 116.791L145.819 117.495C145.746 117.709 145.642 117.878 145.505 118.001C145.368 118.119 145.22 118.206 145.061 118.261C145.307 118.338 145.503 118.454 145.648 118.609C145.799 118.76 145.926 118.965 146.031 119.225L146.366 120.093C146.412 120.216 146.455 120.316 146.496 120.394C146.542 120.466 146.592 120.523 146.646 120.564C146.701 120.605 146.767 120.635 146.845 120.653C146.927 120.672 147.034 120.681 147.166 120.681H147.487V122H146.968C146.717 122 146.496 121.977 146.305 121.932C146.113 121.886 145.947 121.815 145.806 121.72C145.664 121.619 145.539 121.487 145.43 121.323C145.325 121.159 145.227 120.961 145.136 120.729L144.739 119.717C144.675 119.548 144.596 119.421 144.5 119.334C144.409 119.243 144.309 119.174 144.199 119.129C144.094 119.083 143.985 119.056 143.871 119.047C143.762 119.038 143.65 119.033 143.536 119.033H143.229V122H141.8V119.033H141.492C141.383 119.033 141.269 119.038 141.15 119.047C141.032 119.056 140.918 119.083 140.809 119.129C140.704 119.174 140.604 119.243 140.508 119.334C140.417 119.421 140.339 119.548 140.275 119.717L139.899 120.729C139.804 120.961 139.701 121.159 139.592 121.323C139.487 121.487 139.362 121.619 139.216 121.72C139.075 121.815 138.91 121.886 138.724 121.932C138.537 121.977 138.316 122 138.061 122H137.548V120.681ZM147.781 120.653H148.595C148.718 120.348 148.827 120.029 148.923 119.696C149.023 119.364 149.103 118.979 149.162 118.541C149.221 118.104 149.267 117.591 149.299 117.003C149.335 116.415 149.354 115.715 149.354 114.904H154.139V120.653H155.116V123.818H153.776V122H149.128V123.818H147.781V120.653ZM152.71 120.653V116.244H150.707C150.707 116.823 150.691 117.333 150.659 117.775C150.627 118.213 150.582 118.607 150.522 118.958C150.468 119.304 150.402 119.617 150.324 119.895C150.247 120.168 150.165 120.421 150.078 120.653H152.71ZM156.142 114.904H157.57V117.577H159.443C160.136 117.577 160.692 117.78 161.111 118.186C161.531 118.591 161.74 119.124 161.74 119.785C161.74 120.451 161.531 120.986 161.111 121.392C160.692 121.797 160.136 122 159.443 122H156.142V114.904ZM159.293 120.742C159.621 120.742 159.876 120.656 160.059 120.482C160.241 120.309 160.332 120.068 160.332 119.758C160.332 119.462 160.241 119.227 160.059 119.054C159.876 118.881 159.621 118.794 159.293 118.794H157.57V120.742H159.293ZM162.725 114.904H164.153V122H162.725V114.904ZM165.999 114.904H167.428V119.717L170.511 114.904H171.939V122H170.511V117.112L167.428 122H165.999V114.904ZM167.558 111.951C167.653 112.325 167.817 112.589 168.05 112.744C168.291 112.904 168.599 112.983 168.973 112.983C169.319 112.993 169.618 112.917 169.868 112.758C170.128 112.612 170.301 112.343 170.388 111.951H171.229C171.178 112.539 170.962 113.004 170.579 113.346C170.196 113.719 169.661 113.906 168.973 113.906C168.298 113.906 167.772 113.719 167.394 113.346C167.002 113.004 166.776 112.539 166.717 111.951H167.558ZM176.314 120.653H177.128C177.251 120.348 177.36 120.029 177.456 119.696C177.556 119.364 177.636 118.979 177.695 118.541C177.755 118.104 177.8 117.591 177.832 117.003C177.868 116.415 177.887 115.715 177.887 114.904H182.672V120.653H183.649V123.818H182.31V122H177.661V123.818H176.314V120.653ZM181.243 120.653V116.244H179.24C179.24 116.823 179.224 117.333 179.192 117.775C179.16 118.213 179.115 118.607 179.056 118.958C179.001 119.304 178.935 119.617 178.857 119.895C178.78 120.168 178.698 120.421 178.611 120.653H181.243ZM187.478 122.082C187.095 122.082 186.73 122.027 186.384 121.918C186.224 121.868 186.051 121.788 185.864 121.679C185.696 121.606 185.529 121.499 185.365 121.357C185.055 121.075 184.812 120.706 184.634 120.25C184.429 119.803 184.326 119.211 184.326 118.473C184.326 117.753 184.415 117.169 184.593 116.723C184.78 116.226 185.007 115.852 185.276 115.602C185.55 115.333 185.867 115.132 186.227 115C186.564 114.877 186.906 114.815 187.252 114.815C188.063 114.834 188.749 115.1 189.31 115.615C189.87 116.139 190.16 116.873 190.178 117.816V118.992H185.755C185.755 119.562 185.919 119.995 186.247 120.291C186.562 120.592 186.963 120.742 187.45 120.742C188.029 120.742 188.546 120.512 189.002 120.052L190.041 120.934C189.303 121.708 188.448 122.091 187.478 122.082ZM188.749 117.816C188.731 117.274 188.583 116.857 188.305 116.565C188.031 116.297 187.68 116.162 187.252 116.162C186.824 116.162 186.473 116.297 186.199 116.565C185.93 116.857 185.782 117.274 185.755 117.816H188.749ZM191.675 114.904H193.104V117.673H195.92V114.904H197.349V122H195.92V119.02H193.104V122H191.675V114.904ZM199.194 114.904H200.623V117.577H202.496C203.189 117.577 203.745 117.78 204.164 118.186C204.583 118.591 204.793 119.124 204.793 119.785C204.793 120.451 204.583 120.986 204.164 121.392C203.745 121.797 203.189 122 202.496 122H199.194V114.904ZM202.346 120.742C202.674 120.742 202.929 120.656 203.111 120.482C203.294 120.309 203.385 120.068 203.385 119.758C203.385 119.462 203.294 119.227 203.111 119.054C202.929 118.881 202.674 118.794 202.346 118.794H200.623V120.742H202.346ZM209.448 114.904H214.056V116.244H210.877V122H209.448V114.904ZM217.713 122.082C217.189 122.082 216.744 121.979 216.38 121.774C216.02 121.588 215.746 121.387 215.56 121.173C215.286 120.877 215.09 120.537 214.972 120.154C214.849 119.781 214.787 119.211 214.787 118.445C214.787 117.689 214.849 117.115 214.972 116.723C215.099 116.322 215.295 115.989 215.56 115.725C215.756 115.492 216.029 115.283 216.38 115.096C216.735 114.909 217.18 114.815 217.713 114.815C218.264 114.815 218.718 114.909 219.073 115.096C219.415 115.283 219.679 115.492 219.866 115.725C220.14 115.989 220.34 116.322 220.468 116.723C220.582 117.133 220.639 117.707 220.639 118.445C220.639 119.193 220.582 119.762 220.468 120.154C220.34 120.546 220.14 120.886 219.866 121.173C219.821 121.218 219.771 121.271 219.716 121.33C219.661 121.385 219.6 121.435 219.531 121.48C219.404 121.594 219.251 121.692 219.073 121.774C218.709 121.979 218.255 122.082 217.713 122.082ZM217.713 120.653C217.964 120.653 218.191 120.603 218.396 120.503C218.602 120.407 218.757 120.286 218.861 120.141C219.012 119.945 219.105 119.74 219.142 119.525C219.16 119.411 219.176 119.266 219.189 119.088C219.203 118.91 219.21 118.701 219.21 118.459C219.21 118.208 219.203 117.992 219.189 117.81C219.176 117.627 219.16 117.475 219.142 117.352C219.105 117.137 219.012 116.941 218.861 116.764C218.757 116.613 218.602 116.488 218.396 116.388C218.21 116.292 217.982 116.244 217.713 116.244C217.462 116.244 217.239 116.292 217.043 116.388C216.856 116.479 216.697 116.604 216.564 116.764C216.441 116.923 216.353 117.119 216.298 117.352C216.243 117.593 216.216 117.958 216.216 118.445C216.216 118.938 216.243 119.298 216.298 119.525C216.353 119.758 216.441 119.963 216.564 120.141C216.706 120.286 216.865 120.407 217.043 120.503C217.266 120.603 217.49 120.653 217.713 120.653ZM223.551 116.244H221.37V114.904H227.078V116.244H224.979V122H223.551V116.244ZM230.742 122.082C230.218 122.082 229.774 121.979 229.409 121.774C229.049 121.588 228.776 121.387 228.589 121.173C228.315 120.877 228.119 120.537 228.001 120.154C227.878 119.781 227.816 119.211 227.816 118.445C227.816 117.689 227.878 117.115 228.001 116.723C228.129 116.322 228.325 115.989 228.589 115.725C228.785 115.492 229.058 115.283 229.409 115.096C229.765 114.909 230.209 114.815 230.742 114.815C231.294 114.815 231.747 114.909 232.103 115.096C232.444 115.283 232.709 115.492 232.896 115.725C233.169 115.989 233.369 116.322 233.497 116.723C233.611 117.133 233.668 117.707 233.668 118.445C233.668 119.193 233.611 119.762 233.497 120.154C233.369 120.546 233.169 120.886 232.896 121.173C232.85 121.218 232.8 121.271 232.745 121.33C232.69 121.385 232.629 121.435 232.561 121.48C232.433 121.594 232.28 121.692 232.103 121.774C231.738 121.979 231.285 122.082 230.742 122.082ZM230.742 120.653C230.993 120.653 231.221 120.603 231.426 120.503C231.631 120.407 231.786 120.286 231.891 120.141C232.041 119.945 232.134 119.74 232.171 119.525C232.189 119.411 232.205 119.266 232.219 119.088C232.232 118.91 232.239 118.701 232.239 118.459C232.239 118.208 232.232 117.992 232.219 117.81C232.205 117.627 232.189 117.475 232.171 117.352C232.134 117.137 232.041 116.941 231.891 116.764C231.786 116.613 231.631 116.488 231.426 116.388C231.239 116.292 231.011 116.244 230.742 116.244C230.492 116.244 230.268 116.292 230.072 116.388C229.885 116.479 229.726 116.604 229.594 116.764C229.471 116.923 229.382 117.119 229.327 117.352C229.272 117.593 229.245 117.958 229.245 118.445C229.245 118.938 229.272 119.298 229.327 119.525C229.382 119.758 229.471 119.963 229.594 120.141C229.735 120.286 229.895 120.407 230.072 120.503C230.296 120.603 230.519 120.653 230.742 120.653ZM235.165 114.904H238.569C239.221 114.904 239.741 115.077 240.128 115.424C240.515 115.766 240.709 116.226 240.709 116.805C240.709 117.516 240.379 118.024 239.718 118.329C240.073 118.489 240.347 118.705 240.538 118.979C240.729 119.247 240.825 119.587 240.825 119.997C240.825 120.612 240.636 121.1 240.258 121.46C239.88 121.82 239.353 122 238.679 122H235.165V114.904ZM238.398 120.811C238.717 120.811 238.968 120.724 239.15 120.551C239.333 120.378 239.424 120.147 239.424 119.86C239.424 119.56 239.333 119.327 239.15 119.163C238.968 118.999 238.717 118.917 238.398 118.917H236.594V120.811H238.398ZM238.303 117.816C238.973 117.816 239.308 117.522 239.308 116.935C239.308 116.661 239.221 116.454 239.048 116.312C238.879 116.167 238.631 116.094 238.303 116.094H236.594V117.816H238.303ZM242.329 114.904H243.758V119.717L246.841 114.904H248.27V122H246.841V117.112L243.758 122H242.329V114.904ZM251.537 116.244H249.356V114.904H255.064V116.244H252.966V122H251.537V116.244ZM256.151 114.904H257.58V117.577H259.453C260.146 117.577 260.702 117.78 261.121 118.186C261.54 118.591 261.75 119.124 261.75 119.785C261.75 120.451 261.54 120.986 261.121 121.392C260.702 121.797 260.146 122 259.453 122H256.151V114.904ZM259.303 120.742C259.631 120.742 259.886 120.656 260.068 120.482C260.251 120.309 260.342 120.068 260.342 119.758C260.342 119.462 260.251 119.227 260.068 119.054C259.886 118.881 259.631 118.794 259.303 118.794H257.58V120.742H259.303ZM26.7441 137.409C26.5026 137.455 26.2087 137.505 25.8623 137.56C25.516 137.61 25.1331 137.635 24.7139 137.635C24.126 137.635 23.6429 137.464 23.2646 137.122C22.8864 136.78 22.6973 136.247 22.6973 135.522V132.904H24.126V135.242C24.126 135.625 24.2171 135.896 24.3994 136.056C24.5817 136.211 24.8369 136.288 25.165 136.288C25.4613 136.288 25.7484 136.27 26.0264 136.233C26.3089 136.197 26.5482 136.16 26.7441 136.124V132.904H28.1729V140H26.7441V137.409ZM31.4336 134.244H29.2529V132.904H34.9609V134.244H32.8623V140H31.4336V134.244ZM38.625 140.082C38.1009 140.082 37.6566 139.979 37.292 139.774C36.932 139.588 36.6585 139.387 36.4717 139.173C36.1982 138.877 36.0023 138.537 35.8838 138.154C35.7607 137.781 35.6992 137.211 35.6992 136.445C35.6992 135.689 35.7607 135.115 35.8838 134.723C36.0114 134.322 36.2074 133.989 36.4717 133.725C36.6676 133.492 36.9411 133.283 37.292 133.096C37.6475 132.909 38.0918 132.815 38.625 132.815C39.1764 132.815 39.6299 132.909 39.9854 133.096C40.3271 133.283 40.5915 133.492 40.7783 133.725C41.0518 133.989 41.2523 134.322 41.3799 134.723C41.4938 135.133 41.5508 135.707 41.5508 136.445C41.5508 137.193 41.4938 137.762 41.3799 138.154C41.2523 138.546 41.0518 138.886 40.7783 139.173C40.7327 139.218 40.6826 139.271 40.6279 139.33C40.5732 139.385 40.5117 139.435 40.4434 139.48C40.3158 139.594 40.1631 139.692 39.9854 139.774C39.6208 139.979 39.1673 140.082 38.625 140.082ZM38.625 138.653C38.8757 138.653 39.1035 138.603 39.3086 138.503C39.5137 138.407 39.6686 138.286 39.7734 138.141C39.9238 137.945 40.0173 137.74 40.0537 137.525C40.0719 137.411 40.0879 137.266 40.1016 137.088C40.1152 136.91 40.1221 136.701 40.1221 136.459C40.1221 136.208 40.1152 135.992 40.1016 135.81C40.0879 135.627 40.0719 135.475 40.0537 135.352C40.0173 135.137 39.9238 134.941 39.7734 134.764C39.6686 134.613 39.5137 134.488 39.3086 134.388C39.1217 134.292 38.8939 134.244 38.625 134.244C38.3743 134.244 38.151 134.292 37.9551 134.388C37.7682 134.479 37.6087 134.604 37.4766 134.764C37.3535 134.923 37.2646 135.119 37.21 135.352C37.1553 135.593 37.1279 135.958 37.1279 136.445C37.1279 136.938 37.1553 137.298 37.21 137.525C37.2646 137.758 37.3535 137.963 37.4766 138.141C37.6178 138.286 37.7773 138.407 37.9551 138.503C38.1784 138.603 38.4017 138.653 38.625 138.653ZM42.8701 136.835V135.406H47.0811V136.835H42.8701ZM50.1641 134.244H47.9834V132.904H53.6914V134.244H51.5928V140H50.1641V134.244ZM57.3555 140.082C56.8314 140.082 56.387 139.979 56.0225 139.774C55.6624 139.588 55.389 139.387 55.2021 139.173C54.9287 138.877 54.7327 138.537 54.6143 138.154C54.4912 137.781 54.4297 137.211 54.4297 136.445C54.4297 135.689 54.4912 135.115 54.6143 134.723C54.7419 134.322 54.9378 133.989 55.2021 133.725C55.3981 133.492 55.6715 133.283 56.0225 133.096C56.3779 132.909 56.8223 132.815 57.3555 132.815C57.9069 132.815 58.3604 132.909 58.7158 133.096C59.0576 133.283 59.3219 133.492 59.5088 133.725C59.7822 133.989 59.9827 134.322 60.1104 134.723C60.2243 135.133 60.2812 135.707 60.2812 136.445C60.2812 137.193 60.2243 137.762 60.1104 138.154C59.9827 138.546 59.7822 138.886 59.5088 139.173C59.4632 139.218 59.4131 139.271 59.3584 139.33C59.3037 139.385 59.2422 139.435 59.1738 139.48C59.0462 139.594 58.8936 139.692 58.7158 139.774C58.3512 139.979 57.8978 140.082 57.3555 140.082ZM57.3555 138.653C57.6061 138.653 57.834 138.603 58.0391 138.503C58.2441 138.407 58.3991 138.286 58.5039 138.141C58.6543 137.945 58.7477 137.74 58.7842 137.525C58.8024 137.411 58.8184 137.266 58.832 137.088C58.8457 136.91 58.8525 136.701 58.8525 136.459C58.8525 136.208 58.8457 135.992 58.832 135.81C58.8184 135.627 58.8024 135.475 58.7842 135.352C58.7477 135.137 58.6543 134.941 58.5039 134.764C58.3991 134.613 58.2441 134.488 58.0391 134.388C57.8522 134.292 57.6243 134.244 57.3555 134.244C57.1048 134.244 56.8815 134.292 56.6855 134.388C56.4987 134.479 56.3392 134.604 56.207 134.764C56.084 134.923 55.9951 135.119 55.9404 135.352C55.8857 135.593 55.8584 135.958 55.8584 136.445C55.8584 136.938 55.8857 137.298 55.9404 137.525C55.9951 137.758 56.084 137.963 56.207 138.141C56.3483 138.286 56.5078 138.407 56.6855 138.503C56.9089 138.603 57.1322 138.653 57.3555 138.653ZM65.1416 132.904H66.5703V135.673H69.3867V132.904H70.8154V140H69.3867V137.02H66.5703V140H65.1416V132.904ZM75.2383 140.082C74.7142 140.082 74.2699 139.979 73.9053 139.774C73.5452 139.588 73.2718 139.387 73.085 139.173C72.8115 138.877 72.6156 138.537 72.4971 138.154C72.374 137.781 72.3125 137.211 72.3125 136.445C72.3125 135.689 72.374 135.115 72.4971 134.723C72.6247 134.322 72.8206 133.989 73.085 133.725C73.2809 133.492 73.5544 133.283 73.9053 133.096C74.2607 132.909 74.7051 132.815 75.2383 132.815C75.7897 132.815 76.2432 132.909 76.5986 133.096C76.9404 133.283 77.2048 133.492 77.3916 133.725C77.665 133.989 77.8656 134.322 77.9932 134.723C78.1071 135.133 78.1641 135.707 78.1641 136.445C78.1641 137.193 78.1071 137.762 77.9932 138.154C77.8656 138.546 77.665 138.886 77.3916 139.173C77.346 139.218 77.2959 139.271 77.2412 139.33C77.1865 139.385 77.125 139.435 77.0566 139.48C76.929 139.594 76.7764 139.692 76.5986 139.774C76.234 139.979 75.7806 140.082 75.2383 140.082ZM75.2383 138.653C75.4889 138.653 75.7168 138.603 75.9219 138.503C76.127 138.407 76.2819 138.286 76.3867 138.141C76.5371 137.945 76.6305 137.74 76.667 137.525C76.6852 137.411 76.7012 137.266 76.7148 137.088C76.7285 136.91 76.7354 136.701 76.7354 136.459C76.7354 136.208 76.7285 135.992 76.7148 135.81C76.7012 135.627 76.6852 135.475 76.667 135.352C76.6305 135.137 76.5371 134.941 76.3867 134.764C76.2819 134.613 76.127 134.488 75.9219 134.388C75.735 134.292 75.5072 134.244 75.2383 134.244C74.9876 134.244 74.7643 134.292 74.5684 134.388C74.3815 134.479 74.222 134.604 74.0898 134.764C73.9668 134.923 73.8779 135.119 73.8232 135.352C73.7686 135.593 73.7412 135.958 73.7412 136.445C73.7412 136.938 73.7686 137.298 73.8232 137.525C73.8779 137.758 73.9668 137.963 74.0898 138.141C74.2311 138.286 74.3906 138.407 74.5684 138.503C74.7917 138.603 75.015 138.653 75.2383 138.653ZM79.6611 132.904H83.0654C83.7171 132.904 84.2367 133.077 84.624 133.424C85.0114 133.766 85.2051 134.226 85.2051 134.805C85.2051 135.516 84.8747 136.024 84.2139 136.329C84.5693 136.489 84.8428 136.705 85.0342 136.979C85.2256 137.247 85.3213 137.587 85.3213 137.997C85.3213 138.612 85.1322 139.1 84.7539 139.46C84.3757 139.82 83.8493 140 83.1748 140H79.6611V132.904ZM82.8945 138.811C83.2135 138.811 83.4642 138.724 83.6465 138.551C83.8288 138.378 83.9199 138.147 83.9199 137.86C83.9199 137.56 83.8288 137.327 83.6465 137.163C83.4642 136.999 83.2135 136.917 82.8945 136.917H81.0898V138.811H82.8945ZM82.7988 135.816C83.4688 135.816 83.8037 135.522 83.8037 134.935C83.8037 134.661 83.7171 134.454 83.5439 134.312C83.3753 134.167 83.127 134.094 82.7988 134.094H81.0898V135.816H82.7988ZM89.4023 140.082C88.8783 140.082 88.4339 139.979 88.0693 139.774C87.7093 139.588 87.4359 139.387 87.249 139.173C86.9756 138.877 86.7796 138.537 86.6611 138.154C86.5381 137.781 86.4766 137.211 86.4766 136.445C86.4766 135.689 86.5381 135.115 86.6611 134.723C86.7887 134.322 86.9847 133.989 87.249 133.725C87.445 133.492 87.7184 133.283 88.0693 133.096C88.4248 132.909 88.8691 132.815 89.4023 132.815C89.9538 132.815 90.4072 132.909 90.7627 133.096C91.1045 133.283 91.3688 133.492 91.5557 133.725C91.8291 133.989 92.0296 134.322 92.1572 134.723C92.2712 135.133 92.3281 135.707 92.3281 136.445C92.3281 137.193 92.2712 137.762 92.1572 138.154C92.0296 138.546 91.8291 138.886 91.5557 139.173C91.5101 139.218 91.46 139.271 91.4053 139.33C91.3506 139.385 91.2891 139.435 91.2207 139.48C91.0931 139.594 90.9404 139.692 90.7627 139.774C90.3981 139.979 89.9447 140.082 89.4023 140.082ZM89.4023 138.653C89.653 138.653 89.8809 138.603 90.0859 138.503C90.291 138.407 90.446 138.286 90.5508 138.141C90.7012 137.945 90.7946 137.74 90.8311 137.525C90.8493 137.411 90.8652 137.266 90.8789 137.088C90.8926 136.91 90.8994 136.701 90.8994 136.459C90.8994 136.208 90.8926 135.992 90.8789 135.81C90.8652 135.627 90.8493 135.475 90.8311 135.352C90.7946 135.137 90.7012 134.941 90.5508 134.764C90.446 134.613 90.291 134.488 90.0859 134.388C89.8991 134.292 89.6712 134.244 89.4023 134.244C89.1517 134.244 88.9284 134.292 88.7324 134.388C88.5456 134.479 88.3861 134.604 88.2539 134.764C88.1309 134.923 88.042 135.119 87.9873 135.352C87.9326 135.593 87.9053 135.958 87.9053 136.445C87.9053 136.938 87.9326 137.298 87.9873 137.525C88.042 137.758 88.1309 137.963 88.2539 138.141C88.3952 138.286 88.5547 138.407 88.7324 138.503C88.9557 138.603 89.179 138.653 89.4023 138.653ZM96.6279 140.082C96.2451 140.082 95.8805 140.027 95.5342 139.918C95.3747 139.868 95.2015 139.788 95.0146 139.679C94.846 139.606 94.6797 139.499 94.5156 139.357C94.2057 139.075 93.9619 138.706 93.7842 138.25C93.5791 137.803 93.4766 137.211 93.4766 136.473C93.4766 135.753 93.5654 135.169 93.7432 134.723C93.93 134.226 94.1579 133.852 94.4268 133.602C94.7002 133.333 95.0169 133.132 95.377 133C95.7142 132.877 96.056 132.815 96.4023 132.815C97.2135 132.834 97.8994 133.1 98.46 133.615C99.0205 134.139 99.3099 134.873 99.3281 135.816V136.992H94.9053C94.9053 137.562 95.0693 137.995 95.3975 138.291C95.7119 138.592 96.113 138.742 96.6006 138.742C97.1794 138.742 97.6966 138.512 98.1523 138.052L99.1914 138.934C98.4531 139.708 97.5986 140.091 96.6279 140.082ZM97.8994 135.816C97.8812 135.274 97.7331 134.857 97.4551 134.565C97.1816 134.297 96.8307 134.162 96.4023 134.162C95.974 134.162 95.623 134.297 95.3496 134.565C95.0807 134.857 94.9326 135.274 94.9053 135.816H97.8994ZM104.188 132.904H105.617V137.717L108.7 132.904H110.129V140H108.7V135.112L105.617 140H104.188V132.904ZM115.345 132.904H116.773V135.673H119.59V132.904H121.019V140H119.59V137.02H116.773V140H115.345V132.904ZM125.667 140.082C125.284 140.082 124.92 140.027 124.573 139.918C124.414 139.868 124.241 139.788 124.054 139.679C123.885 139.606 123.719 139.499 123.555 139.357C123.245 139.075 123.001 138.706 122.823 138.25C122.618 137.803 122.516 137.211 122.516 136.473C122.516 135.753 122.604 135.169 122.782 134.723C122.969 134.226 123.197 133.852 123.466 133.602C123.739 133.333 124.056 133.132 124.416 133C124.753 132.877 125.095 132.815 125.441 132.815C126.253 132.834 126.938 133.1 127.499 133.615C128.06 134.139 128.349 134.873 128.367 135.816V136.992H123.944C123.944 137.562 124.108 137.995 124.437 138.291C124.751 138.592 125.152 138.742 125.64 138.742C126.218 138.742 126.736 138.512 127.191 138.052L128.23 138.934C127.492 139.708 126.638 140.091 125.667 140.082ZM126.938 135.816C126.92 135.274 126.772 134.857 126.494 134.565C126.221 134.297 125.87 134.162 125.441 134.162C125.013 134.162 124.662 134.297 124.389 134.565C124.12 134.857 123.972 135.274 123.944 135.816H126.938ZM132.441 140.082C131.917 140.082 131.473 139.979 131.108 139.774C130.748 139.588 130.475 139.387 130.288 139.173C130.015 138.877 129.819 138.537 129.7 138.154C129.577 137.781 129.516 137.211 129.516 136.445C129.516 135.689 129.577 135.115 129.7 134.723C129.828 134.322 130.024 133.989 130.288 133.725C130.484 133.492 130.757 133.283 131.108 133.096C131.464 132.909 131.908 132.815 132.441 132.815C132.993 132.815 133.446 132.909 133.802 133.096C134.144 133.283 134.408 133.492 134.595 133.725C134.868 133.989 135.069 134.322 135.196 134.723C135.31 135.133 135.367 135.707 135.367 136.445C135.367 137.193 135.31 137.762 135.196 138.154C135.069 138.546 134.868 138.886 134.595 139.173C134.549 139.218 134.499 139.271 134.444 139.33C134.39 139.385 134.328 139.435 134.26 139.48C134.132 139.594 133.979 139.692 133.802 139.774C133.437 139.979 132.984 140.082 132.441 140.082ZM132.441 138.653C132.692 138.653 132.92 138.603 133.125 138.503C133.33 138.407 133.485 138.286 133.59 138.141C133.74 137.945 133.834 137.74 133.87 137.525C133.888 137.411 133.904 137.266 133.918 137.088C133.932 136.91 133.938 136.701 133.938 136.459C133.938 136.208 133.932 135.992 133.918 135.81C133.904 135.627 133.888 135.475 133.87 135.352C133.834 135.137 133.74 134.941 133.59 134.764C133.485 134.613 133.33 134.488 133.125 134.388C132.938 134.292 132.71 134.244 132.441 134.244C132.191 134.244 131.967 134.292 131.771 134.388C131.585 134.479 131.425 134.604 131.293 134.764C131.17 134.923 131.081 135.119 131.026 135.352C130.972 135.593 130.944 135.958 130.944 136.445C130.944 136.938 130.972 137.298 131.026 137.525C131.081 137.758 131.17 137.963 131.293 138.141C131.434 138.286 131.594 138.407 131.771 138.503C131.995 138.603 132.218 138.653 132.441 138.653ZM139.694 140.082C138.974 140.082 138.389 139.916 137.938 139.583C137.486 139.246 137.167 138.797 136.98 138.236C136.921 138.077 136.878 137.895 136.851 137.689C136.823 137.484 136.8 137.27 136.782 137.047C136.764 136.824 136.753 136.6 136.748 136.377C136.743 136.149 136.741 135.937 136.741 135.741V135.201C136.741 134.818 136.748 134.447 136.762 134.087C136.775 133.727 136.816 133.385 136.885 133.062C136.958 132.733 137.062 132.43 137.199 132.152C137.34 131.87 137.532 131.615 137.773 131.387C137.969 131.214 138.177 131.072 138.396 130.963C138.619 130.854 138.849 130.769 139.086 130.71C139.323 130.651 139.562 130.605 139.804 130.573C140.045 130.541 140.285 130.509 140.521 130.478C140.667 130.459 140.786 130.416 140.877 130.348C140.973 130.279 141.032 130.174 141.055 130.033H142.511C142.433 131.068 141.952 131.656 141.068 131.797C140.84 131.833 140.615 131.863 140.392 131.886C140.168 131.909 139.947 131.943 139.729 131.988C139.51 132.029 139.302 132.091 139.106 132.173C138.91 132.25 138.728 132.362 138.56 132.508C138.345 132.704 138.188 132.938 138.088 133.212C137.992 133.481 137.94 133.731 137.931 133.964H137.972C138.131 133.686 138.389 133.449 138.744 133.253C139.104 133.057 139.523 132.959 140.002 132.959C140.936 132.959 141.611 133.264 142.025 133.875C142.44 134.486 142.647 135.356 142.647 136.486C142.647 137.102 142.59 137.628 142.477 138.065C142.367 138.498 142.18 138.872 141.916 139.187C141.674 139.478 141.367 139.701 140.993 139.856C140.619 140.007 140.187 140.082 139.694 140.082ZM139.681 138.667C139.922 138.667 140.141 138.624 140.337 138.537C140.533 138.451 140.697 138.327 140.829 138.168C140.989 137.981 141.093 137.756 141.144 137.491C141.194 137.222 141.219 136.896 141.219 136.514C141.219 136.122 141.194 135.787 141.144 135.509C141.093 135.226 140.989 134.992 140.829 134.805C140.697 134.654 140.533 134.538 140.337 134.456C140.141 134.374 139.922 134.333 139.681 134.333C139.439 134.333 139.22 134.376 139.024 134.463C138.828 134.549 138.669 134.673 138.546 134.832C138.386 135.019 138.284 135.254 138.238 135.536C138.193 135.814 138.17 136.149 138.17 136.541C138.17 136.988 138.206 137.343 138.279 137.607C138.352 137.867 138.468 138.081 138.628 138.25C138.76 138.382 138.917 138.485 139.1 138.558C139.282 138.631 139.476 138.667 139.681 138.667ZM144.151 132.904H145.58V135.577H147.453C148.146 135.577 148.702 135.78 149.121 136.186C149.54 136.591 149.75 137.124 149.75 137.785C149.75 138.451 149.54 138.986 149.121 139.392C148.702 139.797 148.146 140 147.453 140H144.151V132.904ZM147.303 138.742C147.631 138.742 147.886 138.656 148.068 138.482C148.251 138.309 148.342 138.068 148.342 137.758C148.342 137.462 148.251 137.227 148.068 137.054C147.886 136.881 147.631 136.794 147.303 136.794H145.58V138.742H147.303ZM150.734 132.904H152.163V140H150.734V132.904ZM157.83 137.409C157.589 137.455 157.295 137.505 156.948 137.56C156.602 137.61 156.219 137.635 155.8 137.635C155.212 137.635 154.729 137.464 154.351 137.122C153.972 136.78 153.783 136.247 153.783 135.522V132.904H155.212V135.242C155.212 135.625 155.303 135.896 155.485 136.056C155.668 136.211 155.923 136.288 156.251 136.288C156.547 136.288 156.834 136.27 157.112 136.233C157.395 136.197 157.634 136.16 157.83 136.124V132.904H159.259V140H157.83V137.409ZM161.104 132.904H162.533V135.673H165.35V132.904H166.778V140H165.35V137.02H162.533V140H161.104V132.904ZM171.201 140.082C170.677 140.082 170.233 139.979 169.868 139.774C169.508 139.588 169.235 139.387 169.048 139.173C168.774 138.877 168.578 138.537 168.46 138.154C168.337 137.781 168.275 137.211 168.275 136.445C168.275 135.689 168.337 135.115 168.46 134.723C168.588 134.322 168.784 133.989 169.048 133.725C169.244 133.492 169.517 133.283 169.868 133.096C170.224 132.909 170.668 132.815 171.201 132.815C171.753 132.815 172.206 132.909 172.562 133.096C172.903 133.283 173.168 133.492 173.354 133.725C173.628 133.989 173.828 134.322 173.956 134.723C174.07 135.133 174.127 135.707 174.127 136.445C174.127 137.193 174.07 137.762 173.956 138.154C173.828 138.546 173.628 138.886 173.354 139.173C173.309 139.218 173.259 139.271 173.204 139.33C173.149 139.385 173.088 139.435 173.02 139.48C172.892 139.594 172.739 139.692 172.562 139.774C172.197 139.979 171.743 140.082 171.201 140.082ZM171.201 138.653C171.452 138.653 171.68 138.603 171.885 138.503C172.09 138.407 172.245 138.286 172.35 138.141C172.5 137.945 172.593 137.74 172.63 137.525C172.648 137.411 172.664 137.266 172.678 137.088C172.691 136.91 172.698 136.701 172.698 136.459C172.698 136.208 172.691 135.992 172.678 135.81C172.664 135.627 172.648 135.475 172.63 135.352C172.593 135.137 172.5 134.941 172.35 134.764C172.245 134.613 172.09 134.488 171.885 134.388C171.698 134.292 171.47 134.244 171.201 134.244C170.951 134.244 170.727 134.292 170.531 134.388C170.344 134.479 170.185 134.604 170.053 134.764C169.93 134.923 169.841 135.119 169.786 135.352C169.731 135.593 169.704 135.958 169.704 136.445C169.704 136.938 169.731 137.298 169.786 137.525C169.841 137.758 169.93 137.963 170.053 138.141C170.194 138.286 170.354 138.407 170.531 138.503C170.755 138.603 170.978 138.653 171.201 138.653ZM178.427 140.082C178.044 140.082 177.679 140.027 177.333 139.918C177.174 139.868 177 139.788 176.813 139.679C176.645 139.606 176.479 139.499 176.314 139.357C176.005 139.075 175.761 138.706 175.583 138.25C175.378 137.803 175.275 137.211 175.275 136.473C175.275 135.753 175.364 135.169 175.542 134.723C175.729 134.226 175.957 133.852 176.226 133.602C176.499 133.333 176.816 133.132 177.176 133C177.513 132.877 177.855 132.815 178.201 132.815C179.012 132.834 179.698 133.1 180.259 133.615C180.819 134.139 181.109 134.873 181.127 135.816V136.992H176.704C176.704 137.562 176.868 137.995 177.196 138.291C177.511 138.592 177.912 138.742 178.399 138.742C178.978 138.742 179.495 138.512 179.951 138.052L180.99 138.934C180.252 139.708 179.397 140.091 178.427 140.082ZM179.698 135.816C179.68 135.274 179.532 134.857 179.254 134.565C178.98 134.297 178.63 134.162 178.201 134.162C177.773 134.162 177.422 134.297 177.148 134.565C176.88 134.857 176.731 135.274 176.704 135.816H179.698Z" fill="white"/>
</svg>
