<svg width="318" height="218" viewBox="0 0 318 218" fill="none" xmlns="http://www.w3.org/2000/svg">
<path d="M318 33.797C318 23.1104 309.599 14.3118 298.924 13.8183L20.9235 0.967229C9.52744 0.440425 0 9.53765 0 20.9459V196.299C0 207.987 9.97955 217.185 21.6287 216.233L299.629 193.518C310.008 192.67 318 183.999 318 173.585V33.797Z" fill="#462B74"/>
<path d="M37.544 55.824C37.208 55.824 36.932 55.872 36.716 55.968C36.5 56.04 36.296 56.184 36.104 56.4C35.912 56.616 35.78 56.88 35.708 57.192C35.636 57.504 35.576 57.852 35.528 58.236L35.204 61.224C35.18 61.536 35.144 61.824 35.096 62.088C35.048 62.328 35 62.58 34.952 62.844C34.904 63.084 34.832 63.3 34.736 63.492C34.592 63.828 34.412 64.128 34.196 64.392C34.004 64.632 33.812 64.824 33.62 64.968L37.436 78H33.692L30.452 66.588H28.4V78H24.728V52.368H28.4V63.348H29.624C30.056 63.348 30.404 63.288 30.668 63.168C30.932 63.048 31.148 62.88 31.316 62.664C31.484 62.448 31.604 62.208 31.676 61.944C31.748 61.656 31.808 61.344 31.856 61.008L32.216 57.948C32.24 57.852 32.264 57.66 32.288 57.372C32.336 57.06 32.408 56.712 32.504 56.328C32.6 55.944 32.732 55.548 32.9 55.14C33.068 54.732 33.284 54.348 33.548 53.988C34.004 53.412 34.556 53.004 35.204 52.764C35.876 52.5 36.656 52.368 37.544 52.368V55.824ZM46.6903 69.036L44.8903 59.748H44.8183L43.0183 69.036H46.6903ZM37.6183 78L43.3423 52.368H46.4023L52.1263 78H48.4543L47.3743 72.492H42.3703L41.2903 78H37.6183ZM63.7166 78H60.0446V66.624C59.8526 66.648 59.6126 66.684 59.3246 66.732C59.0366 66.756 58.6526 66.768 58.1726 66.768C57.3326 66.768 56.5166 66.648 55.7246 66.408C54.9326 66.168 54.2726 65.796 53.7446 65.292C53.2166 64.788 52.8206 64.14 52.5566 63.348C52.3166 62.556 52.1966 61.716 52.1966 60.828V52.368H55.8686V60.396C55.8686 60.804 55.9166 61.212 56.0126 61.62C56.1086 62.028 56.2886 62.364 56.5526 62.628C57.0086 63.084 57.6926 63.312 58.6046 63.312C58.7966 63.312 58.9886 63.312 59.1806 63.312C59.3726 63.288 59.5286 63.264 59.6486 63.24C59.7926 63.216 59.9246 63.192 60.0446 63.168V52.368H63.7166V78ZM66.8199 78V52.368H77.7639V55.824H70.4919V63.348H76.8279V66.804H70.4919V74.328H77.7639V78H66.8199ZM91.4481 70.692V72.276C91.4481 73.068 91.2921 73.824 90.9801 74.544C90.6921 75.24 90.2841 75.864 89.7561 76.416C89.2281 76.968 88.6041 77.412 87.8841 77.748C87.1881 78.06 86.4321 78.216 85.6161 78.216C84.9201 78.216 84.2121 78.12 83.4921 77.928C82.7721 77.736 82.1241 77.4 81.5481 76.92C80.9721 76.44 80.4921 75.828 80.1081 75.084C79.7481 74.316 79.5681 73.344 79.5681 72.168V58.056C79.5681 57.216 79.7121 56.436 80.0001 55.716C80.2881 54.996 80.6961 54.372 81.2241 53.844C81.7521 53.316 82.3761 52.908 83.0961 52.62C83.8401 52.308 84.6561 52.152 85.5441 52.152C87.2721 52.152 88.6761 52.716 89.7561 53.844C90.2841 54.396 90.6921 55.056 90.9801 55.824C91.2921 56.568 91.4481 57.384 91.4481 58.272V59.712H87.7761V58.488C87.7761 57.768 87.5721 57.144 87.1641 56.616C86.7561 56.088 86.2041 55.824 85.5081 55.824C84.5961 55.824 83.9841 56.112 83.6721 56.688C83.3841 57.24 83.2401 57.948 83.2401 58.812V71.916C83.2401 72.66 83.3961 73.284 83.7081 73.788C84.0441 74.292 84.6321 74.544 85.4721 74.544C85.7121 74.544 85.9641 74.508 86.2281 74.436C86.5161 74.34 86.7801 74.196 87.0201 74.004C87.2361 73.812 87.4161 73.548 87.5601 73.212C87.7041 72.876 87.7761 72.456 87.7761 71.952V70.692H91.4481ZM96.1447 78V55.824H91.8967V52.368H104.065V55.824H99.8167V78H96.1447ZM105.326 78V52.368H110.69C111.866 52.368 112.862 52.548 113.678 52.908C114.518 53.268 115.202 53.748 115.73 54.348C116.258 54.948 116.63 55.644 116.846 56.436C117.086 57.204 117.206 58.008 117.206 58.848V59.784C117.206 60.48 117.146 61.068 117.026 61.548C116.93 62.028 116.774 62.448 116.558 62.808C116.15 63.48 115.526 64.056 114.686 64.536C115.55 64.944 116.186 65.544 116.594 66.336C117.002 67.128 117.206 68.208 117.206 69.576V71.016C117.206 73.272 116.654 75 115.55 76.2C114.47 77.4 112.73 78 110.33 78H105.326ZM108.998 66.12V74.328H110.582C111.326 74.328 111.902 74.22 112.31 74.004C112.742 73.788 113.066 73.488 113.282 73.104C113.498 72.72 113.63 72.264 113.678 71.736C113.726 71.208 113.75 70.632 113.75 70.008C113.75 69.36 113.714 68.796 113.642 68.316C113.57 67.836 113.426 67.428 113.21 67.092C112.97 66.756 112.646 66.516 112.238 66.372C111.83 66.204 111.29 66.12 110.618 66.12H108.998ZM108.998 55.824V62.88H110.654C111.878 62.88 112.694 62.58 113.102 61.98C113.534 61.356 113.75 60.456 113.75 59.28C113.75 58.128 113.51 57.264 113.03 56.688C112.574 56.112 111.734 55.824 110.51 55.824H108.998ZM120.078 58.416C120.078 57.384 120.258 56.472 120.618 55.68C120.978 54.888 121.458 54.228 122.058 53.7C122.634 53.196 123.282 52.812 124.002 52.548C124.746 52.284 125.49 52.152 126.234 52.152C126.978 52.152 127.71 52.284 128.43 52.548C129.174 52.812 129.846 53.196 130.446 53.7C131.022 54.228 131.49 54.888 131.85 55.68C132.21 56.472 132.39 57.384 132.39 58.416V71.952C132.39 73.032 132.21 73.956 131.85 74.724C131.49 75.492 131.022 76.128 130.446 76.632C129.846 77.16 129.174 77.556 128.43 77.82C127.71 78.084 126.978 78.216 126.234 78.216C125.49 78.216 124.746 78.084 124.002 77.82C123.282 77.556 122.634 77.16 122.058 76.632C121.458 76.128 120.978 75.492 120.618 74.724C120.258 73.956 120.078 73.032 120.078 71.952V58.416ZM123.75 71.952C123.75 72.84 123.99 73.5 124.47 73.932C124.974 74.34 125.562 74.544 126.234 74.544C126.906 74.544 127.482 74.34 127.962 73.932C128.466 73.5 128.718 72.84 128.718 71.952V58.416C128.718 57.528 128.466 56.88 127.962 56.472C127.482 56.04 126.906 55.824 126.234 55.824C125.562 55.824 124.974 56.04 124.47 56.472C123.99 56.88 123.75 57.528 123.75 58.416V71.952Z" fill="white"/>
<path d="M23.0527 94.0332H24.4746L27.332 100.527L30.1348 94.0332H31.5635V104H30.0527V97.7861H30.0254L27.9336 102.571H26.6758L24.5908 97.7861H24.5635V104H23.0527V94.0332ZM33.5459 96.9043H34.9746V99.5771H36.8477C37.5404 99.5771 38.0964 99.7799 38.5156 100.186C38.9349 100.591 39.1445 101.124 39.1445 101.785C39.1445 102.451 38.9349 102.986 38.5156 103.392C38.0964 103.797 37.5404 104 36.8477 104H33.5459V96.9043ZM36.6973 102.742C37.0254 102.742 37.2806 102.656 37.4629 102.482C37.6452 102.309 37.7363 102.068 37.7363 101.758C37.7363 101.462 37.6452 101.227 37.4629 101.054C37.2806 100.881 37.0254 100.794 36.6973 100.794H34.9746V102.742H36.6973ZM40.1289 96.9043H41.5576V104H40.1289V96.9043ZM49.4395 104.082C48.5918 104.082 47.8558 103.797 47.2314 103.228C46.5661 102.658 46.2288 101.735 46.2197 100.459C46.238 99.1602 46.5752 98.2259 47.2314 97.6562C47.8649 97.0775 48.6009 96.7972 49.4395 96.8154C49.9909 96.8337 50.4762 96.9476 50.8955 97.1572C51.3285 97.3805 51.693 97.679 51.9893 98.0527L50.9365 98.9893C50.5765 98.5016 50.098 98.2533 49.501 98.2441C48.2751 98.2259 47.6576 98.9642 47.6484 100.459C47.6576 101.94 48.2751 102.672 49.501 102.653C50.1071 102.635 50.5856 102.389 50.9365 101.915L51.9893 102.852C51.6702 103.207 51.3057 103.496 50.8955 103.72C50.4671 103.961 49.9818 104.082 49.4395 104.082ZM54.9355 104.082C54.1517 104.073 53.541 103.863 53.1035 103.453C52.6523 103.052 52.4268 102.539 52.4268 101.915C52.4268 101.318 52.6227 100.824 53.0146 100.432C53.3975 100.04 53.9717 99.8346 54.7373 99.8164H56.7129V99.0713C56.722 98.4469 56.2367 98.1439 55.2568 98.1621C54.9196 98.1621 54.6393 98.1986 54.416 98.2715C54.2018 98.3581 54.0332 98.5039 53.9102 98.709L52.7891 97.8545C53.3314 97.1436 54.1312 96.7972 55.1885 96.8154C56.0817 96.8063 56.7949 96.9749 57.3281 97.3213C57.8522 97.6676 58.1234 98.2783 58.1416 99.1533V104H56.7129V103.371H56.6855C56.5534 103.613 56.3483 103.79 56.0703 103.904C55.8151 104.023 55.4368 104.082 54.9355 104.082ZM55.1133 102.742C55.7148 102.76 56.1364 102.69 56.3779 102.53C56.6012 102.38 56.7129 102.038 56.7129 101.505V100.992H55.0039C54.1654 101.01 53.7552 101.295 53.7734 101.847C53.7734 102.088 53.8805 102.293 54.0947 102.462C54.3089 102.649 54.6484 102.742 55.1133 102.742ZM59.9873 96.9043H61.4023L63.5283 101.129L65.6475 96.9043H67.042V104H65.6133V99.4473L63.9795 102.701H63.084L61.416 99.4473V104H59.9873V96.9043ZM68.8877 96.9043H70.3164V101.717L73.3994 96.9043H74.8281V104H73.3994V99.1123L70.3164 104H68.8877V96.9043ZM80.0439 96.9043H85.7178V104H84.2891V98.2441H81.4727V104H80.0439V96.9043ZM87.5635 96.9043H88.9922V97.6426C89.4707 97.1094 90.0814 96.8337 90.8242 96.8154C91.6855 96.8245 92.3213 97.1344 92.7314 97.7451C92.9365 97.9775 93.071 98.2715 93.1348 98.627C93.1712 98.8138 93.1963 99.0599 93.21 99.3652C93.2282 99.666 93.2373 100.031 93.2373 100.459C93.2373 100.878 93.2282 101.238 93.21 101.539C93.1963 101.835 93.1712 102.077 93.1348 102.264C93.071 102.619 92.9365 102.918 92.7314 103.159C92.5264 103.442 92.2689 103.66 91.959 103.815C91.6536 103.975 91.2754 104.064 90.8242 104.082C90.4733 104.082 90.1475 104.002 89.8467 103.843C89.5368 103.688 89.252 103.487 88.9922 103.241V106.871H87.5635V96.9043ZM90.3936 102.653C90.7217 102.653 90.9883 102.59 91.1934 102.462C91.3893 102.339 91.5283 102.17 91.6104 101.956C91.7061 101.76 91.7676 101.523 91.7949 101.245C91.804 101.113 91.8086 100.983 91.8086 100.855C91.8086 100.723 91.8086 100.591 91.8086 100.459C91.8086 100.318 91.8086 100.179 91.8086 100.042C91.8086 99.9007 91.804 99.764 91.7949 99.6318C91.7676 99.3538 91.7061 99.1169 91.6104 98.9209C91.5283 98.7158 91.3893 98.5472 91.1934 98.415C90.9974 98.3011 90.7308 98.2441 90.3936 98.2441C90.0745 98.2441 89.8216 98.3102 89.6348 98.4424C89.4479 98.5654 89.3044 98.7386 89.2041 98.9619C89.1175 99.167 89.0605 99.3994 89.0332 99.6592C89.0059 99.9326 88.9922 100.199 88.9922 100.459C88.9922 100.71 89.0059 100.96 89.0332 101.211C89.0605 101.484 89.1175 101.724 89.2041 101.929C89.3044 102.152 89.4479 102.325 89.6348 102.448C89.8125 102.585 90.0654 102.653 90.3936 102.653ZM97.4141 104.082C96.89 104.082 96.4456 103.979 96.0811 103.774C95.721 103.588 95.4476 103.387 95.2607 103.173C94.9873 102.877 94.7913 102.537 94.6729 102.154C94.5498 101.781 94.4883 101.211 94.4883 100.445C94.4883 99.6888 94.5498 99.1146 94.6729 98.7227C94.8005 98.3216 94.9964 97.9889 95.2607 97.7246C95.4567 97.4922 95.7301 97.2826 96.0811 97.0957C96.4365 96.9089 96.8809 96.8154 97.4141 96.8154C97.9655 96.8154 98.4189 96.9089 98.7744 97.0957C99.1162 97.2826 99.3805 97.4922 99.5674 97.7246C99.8408 97.9889 100.041 98.3216 100.169 98.7227C100.283 99.1328 100.34 99.707 100.34 100.445C100.34 101.193 100.283 101.762 100.169 102.154C100.041 102.546 99.8408 102.886 99.5674 103.173C99.5218 103.218 99.4717 103.271 99.417 103.33C99.3623 103.385 99.3008 103.435 99.2324 103.48C99.1048 103.594 98.9521 103.692 98.7744 103.774C98.4098 103.979 97.9564 104.082 97.4141 104.082ZM97.4141 102.653C97.6647 102.653 97.8926 102.603 98.0977 102.503C98.3027 102.407 98.4577 102.286 98.5625 102.141C98.7129 101.945 98.8063 101.74 98.8428 101.525C98.861 101.411 98.877 101.266 98.8906 101.088C98.9043 100.91 98.9111 100.701 98.9111 100.459C98.9111 100.208 98.9043 99.9919 98.8906 99.8096C98.877 99.6273 98.861 99.4746 98.8428 99.3516C98.8063 99.1374 98.7129 98.9414 98.5625 98.7637C98.4577 98.6133 98.3027 98.488 98.0977 98.3877C97.9108 98.292 97.6829 98.2441 97.4141 98.2441C97.1634 98.2441 96.9401 98.292 96.7441 98.3877C96.5573 98.4788 96.3978 98.6042 96.2656 98.7637C96.1426 98.9232 96.0537 99.1191 95.999 99.3516C95.9443 99.5931 95.917 99.9577 95.917 100.445C95.917 100.938 95.9443 101.298 95.999 101.525C96.0537 101.758 96.1426 101.963 96.2656 102.141C96.4069 102.286 96.5664 102.407 96.7441 102.503C96.9674 102.603 97.1908 102.653 97.4141 102.653ZM101.837 96.9043H103.266V101.717L106.349 96.9043H107.777V104H106.349V99.1123L103.266 104H101.837V96.9043ZM111.537 104.082C110.949 104.082 110.443 103.989 110.02 103.802C109.6 103.615 109.208 103.326 108.844 102.934L109.883 102.052C110.115 102.289 110.35 102.464 110.587 102.578C110.828 102.688 111.145 102.742 111.537 102.742C111.975 102.742 112.326 102.662 112.59 102.503C112.859 102.343 112.993 102.109 112.993 101.799C112.993 101.493 112.893 101.279 112.692 101.156C112.492 101.029 112.18 100.965 111.756 100.965H110.724V99.7891H111.776C112.118 99.7891 112.392 99.7139 112.597 99.5635C112.802 99.4131 112.904 99.2035 112.904 98.9346C112.904 98.6611 112.786 98.4629 112.549 98.3398C112.312 98.2122 111.975 98.1484 111.537 98.1484C111.245 98.1484 110.958 98.1986 110.676 98.2988C110.398 98.3945 110.147 98.5495 109.924 98.7637L108.905 97.8818C109.074 97.7132 109.245 97.5651 109.418 97.4375C109.596 97.3053 109.792 97.1937 110.006 97.1025C110.225 97.0068 110.468 96.9362 110.737 96.8906C111.006 96.8405 111.318 96.8154 111.674 96.8154C112.057 96.8154 112.417 96.8473 112.754 96.9111C113.091 96.9704 113.381 97.0889 113.622 97.2666C113.845 97.4261 114.014 97.6357 114.128 97.8955C114.246 98.1553 114.306 98.4355 114.306 98.7363C114.306 99.0827 114.215 99.3971 114.032 99.6797C113.85 99.9577 113.597 100.16 113.273 100.288C113.615 100.42 113.891 100.632 114.101 100.924C114.315 101.211 114.422 101.55 114.422 101.942C114.422 102.307 114.335 102.646 114.162 102.961C113.989 103.271 113.743 103.519 113.424 103.706C113.182 103.856 112.897 103.957 112.569 104.007C112.246 104.057 111.902 104.082 111.537 104.082ZM115.919 96.9043H119.323C119.975 96.9043 120.494 97.0775 120.882 97.4238C121.269 97.7656 121.463 98.2259 121.463 98.8047C121.463 99.5156 121.132 100.024 120.472 100.329C120.827 100.489 121.101 100.705 121.292 100.979C121.483 101.247 121.579 101.587 121.579 101.997C121.579 102.612 121.39 103.1 121.012 103.46C120.633 103.82 120.107 104 119.433 104H115.919V96.9043ZM119.152 102.811C119.471 102.811 119.722 102.724 119.904 102.551C120.087 102.378 120.178 102.147 120.178 101.86C120.178 101.56 120.087 101.327 119.904 101.163C119.722 100.999 119.471 100.917 119.152 100.917H117.348V102.811H119.152ZM119.057 99.8164C119.727 99.8164 120.062 99.5225 120.062 98.9346C120.062 98.6611 119.975 98.4538 119.802 98.3125C119.633 98.1667 119.385 98.0938 119.057 98.0938H117.348V99.8164H119.057ZM125.66 104.082C125.136 104.082 124.692 103.979 124.327 103.774C123.967 103.588 123.694 103.387 123.507 103.173C123.233 102.877 123.037 102.537 122.919 102.154C122.796 101.781 122.734 101.211 122.734 100.445C122.734 99.6888 122.796 99.1146 122.919 98.7227C123.047 98.3216 123.243 97.9889 123.507 97.7246C123.703 97.4922 123.976 97.2826 124.327 97.0957C124.683 96.9089 125.127 96.8154 125.66 96.8154C126.212 96.8154 126.665 96.9089 127.021 97.0957C127.362 97.2826 127.627 97.4922 127.813 97.7246C128.087 97.9889 128.287 98.3216 128.415 98.7227C128.529 99.1328 128.586 99.707 128.586 100.445C128.586 101.193 128.529 101.762 128.415 102.154C128.287 102.546 128.087 102.886 127.813 103.173C127.768 103.218 127.718 103.271 127.663 103.33C127.608 103.385 127.547 103.435 127.479 103.48C127.351 103.594 127.198 103.692 127.021 103.774C126.656 103.979 126.202 104.082 125.66 104.082ZM125.66 102.653C125.911 102.653 126.139 102.603 126.344 102.503C126.549 102.407 126.704 102.286 126.809 102.141C126.959 101.945 127.052 101.74 127.089 101.525C127.107 101.411 127.123 101.266 127.137 101.088C127.15 100.91 127.157 100.701 127.157 100.459C127.157 100.208 127.15 99.9919 127.137 99.8096C127.123 99.6273 127.107 99.4746 127.089 99.3516C127.052 99.1374 126.959 98.9414 126.809 98.7637C126.704 98.6133 126.549 98.488 126.344 98.3877C126.157 98.292 125.929 98.2441 125.66 98.2441C125.41 98.2441 125.186 98.292 124.99 98.3877C124.803 98.4788 124.644 98.6042 124.512 98.7637C124.389 98.9232 124.3 99.1191 124.245 99.3516C124.19 99.5931 124.163 99.9577 124.163 100.445C124.163 100.938 124.19 101.298 124.245 101.525C124.3 101.758 124.389 101.963 124.512 102.141C124.653 102.286 124.812 102.407 124.99 102.503C125.214 102.603 125.437 102.653 125.66 102.653ZM129.242 102.653H130.056C130.179 102.348 130.288 102.029 130.384 101.696C130.484 101.364 130.564 100.979 130.623 100.541C130.682 100.104 130.728 99.5908 130.76 99.0029C130.796 98.415 130.814 97.7155 130.814 96.9043H135.6V102.653H136.577V105.818H135.237V104H130.589V105.818H129.242V102.653ZM134.171 102.653V98.2441H132.168C132.168 98.8229 132.152 99.3333 132.12 99.7754C132.088 100.213 132.043 100.607 131.983 100.958C131.929 101.304 131.863 101.617 131.785 101.895C131.708 102.168 131.626 102.421 131.539 102.653H134.171ZM137.603 96.9043H139.031V101.717L142.114 96.9043H143.543V104H142.114V99.1123L139.031 104H137.603V96.9043ZM145.396 96.9043H146.811L148.937 101.129L151.056 96.9043H152.45V104H151.021V99.4473L149.388 102.701H148.492L146.824 99.4473V104H145.396V96.9043ZM157.659 96.9043H159.088V99.6865H159.758C160.013 99.6865 160.225 99.6318 160.394 99.5225C160.567 99.4085 160.692 99.2536 160.77 99.0576L161.104 98.1074C161.255 97.679 161.46 97.3714 161.72 97.1846C161.979 96.9977 162.344 96.9043 162.813 96.9043H163.285V98.1895H163.08C162.939 98.1895 162.82 98.1963 162.725 98.21C162.633 98.2236 162.556 98.2533 162.492 98.2988C162.433 98.3398 162.383 98.3991 162.342 98.4766C162.301 98.554 162.257 98.6589 162.212 98.791L161.973 99.4951C161.9 99.7093 161.795 99.8779 161.658 100.001C161.521 100.119 161.373 100.206 161.214 100.261C161.46 100.338 161.656 100.454 161.802 100.609C161.952 100.76 162.08 100.965 162.185 101.225L162.52 102.093C162.565 102.216 162.608 102.316 162.649 102.394C162.69 102.466 162.738 102.523 162.793 102.564C162.852 102.605 162.921 102.635 162.998 102.653C163.08 102.672 163.187 102.681 163.319 102.681H163.641V104H163.121C162.606 104 162.212 103.904 161.938 103.713C161.67 103.521 161.449 103.193 161.275 102.729L160.879 101.717C160.815 101.548 160.735 101.421 160.64 101.334C160.549 101.243 160.448 101.174 160.339 101.129C160.234 101.083 160.125 101.056 160.011 101.047C159.901 101.038 159.79 101.033 159.676 101.033H159.088V104H157.659V96.9043ZM167.346 104.082C166.822 104.082 166.377 103.979 166.013 103.774C165.653 103.588 165.379 103.387 165.192 103.173C164.919 102.877 164.723 102.537 164.604 102.154C164.481 101.781 164.42 101.211 164.42 100.445C164.42 99.6888 164.481 99.1146 164.604 98.7227C164.732 98.3216 164.928 97.9889 165.192 97.7246C165.388 97.4922 165.662 97.2826 166.013 97.0957C166.368 96.9089 166.812 96.8154 167.346 96.8154C167.897 96.8154 168.351 96.9089 168.706 97.0957C169.048 97.2826 169.312 97.4922 169.499 97.7246C169.772 97.9889 169.973 98.3216 170.101 98.7227C170.215 99.1328 170.271 99.707 170.271 100.445C170.271 101.193 170.215 101.762 170.101 102.154C169.973 102.546 169.772 102.886 169.499 103.173C169.453 103.218 169.403 103.271 169.349 103.33C169.294 103.385 169.232 103.435 169.164 103.48C169.036 103.594 168.884 103.692 168.706 103.774C168.341 103.979 167.888 104.082 167.346 104.082ZM167.346 102.653C167.596 102.653 167.824 102.603 168.029 102.503C168.234 102.407 168.389 102.286 168.494 102.141C168.645 101.945 168.738 101.74 168.774 101.525C168.793 101.411 168.809 101.266 168.822 101.088C168.836 100.91 168.843 100.701 168.843 100.459C168.843 100.208 168.836 99.9919 168.822 99.8096C168.809 99.6273 168.793 99.4746 168.774 99.3516C168.738 99.1374 168.645 98.9414 168.494 98.7637C168.389 98.6133 168.234 98.488 168.029 98.3877C167.842 98.292 167.615 98.2441 167.346 98.2441C167.095 98.2441 166.872 98.292 166.676 98.3877C166.489 98.4788 166.329 98.6042 166.197 98.7637C166.074 98.9232 165.985 99.1191 165.931 99.3516C165.876 99.5931 165.849 99.9577 165.849 100.445C165.849 100.938 165.876 101.298 165.931 101.525C165.985 101.758 166.074 101.963 166.197 102.141C166.339 102.286 166.498 102.407 166.676 102.503C166.899 102.603 167.122 102.653 167.346 102.653ZM171.769 96.9043H173.184L175.31 101.129L177.429 96.9043H178.823V104H177.395V99.4473L175.761 102.701H174.865L173.197 99.4473V104H171.769V96.9043ZM183.499 104.082C182.779 104.082 182.193 103.916 181.742 103.583C181.291 103.246 180.972 102.797 180.785 102.236C180.726 102.077 180.683 101.895 180.655 101.689C180.628 101.484 180.605 101.27 180.587 101.047C180.569 100.824 180.557 100.6 180.553 100.377C180.548 100.149 180.546 99.9372 180.546 99.7412V99.2012C180.546 98.8184 180.553 98.4469 180.566 98.0869C180.58 97.7269 180.621 97.3851 180.689 97.0615C180.762 96.7334 180.867 96.4303 181.004 96.1523C181.145 95.8698 181.337 95.6146 181.578 95.3867C181.774 95.2135 181.981 95.0723 182.2 94.9629C182.424 94.8535 182.654 94.7692 182.891 94.71C183.128 94.6507 183.367 94.6051 183.608 94.5732C183.85 94.5413 184.089 94.5094 184.326 94.4775C184.472 94.4593 184.59 94.416 184.682 94.3477C184.777 94.2793 184.837 94.1745 184.859 94.0332H186.315C186.238 95.0677 185.757 95.6556 184.873 95.7969C184.645 95.8333 184.42 95.863 184.196 95.8857C183.973 95.9085 183.752 95.9427 183.533 95.9883C183.314 96.0293 183.107 96.0908 182.911 96.1729C182.715 96.2503 182.533 96.362 182.364 96.5078C182.15 96.7038 181.993 96.9385 181.893 97.2119C181.797 97.4808 181.744 97.7314 181.735 97.9639H181.776C181.936 97.6859 182.193 97.4489 182.549 97.2529C182.909 97.057 183.328 96.959 183.807 96.959C184.741 96.959 185.415 97.2643 185.83 97.875C186.245 98.4857 186.452 99.3561 186.452 100.486C186.452 101.102 186.395 101.628 186.281 102.065C186.172 102.498 185.985 102.872 185.721 103.187C185.479 103.478 185.172 103.701 184.798 103.856C184.424 104.007 183.991 104.082 183.499 104.082ZM183.485 102.667C183.727 102.667 183.946 102.624 184.142 102.537C184.338 102.451 184.502 102.327 184.634 102.168C184.793 101.981 184.898 101.756 184.948 101.491C184.998 101.222 185.023 100.896 185.023 100.514C185.023 100.122 184.998 99.7868 184.948 99.5088C184.898 99.2262 184.793 98.9915 184.634 98.8047C184.502 98.6543 184.338 98.5381 184.142 98.4561C183.946 98.374 183.727 98.333 183.485 98.333C183.244 98.333 183.025 98.3763 182.829 98.4629C182.633 98.5495 182.474 98.6725 182.351 98.832C182.191 99.0189 182.089 99.2536 182.043 99.5361C181.997 99.8141 181.975 100.149 181.975 100.541C181.975 100.988 182.011 101.343 182.084 101.607C182.157 101.867 182.273 102.081 182.433 102.25C182.565 102.382 182.722 102.485 182.904 102.558C183.087 102.631 183.28 102.667 183.485 102.667ZM187.956 96.9043H189.385V101.717L192.468 96.9043H193.896V104H192.468V99.1123L189.385 104H187.956V96.9043ZM195.749 96.9043H197.178V99.6865H197.848C198.103 99.6865 198.315 99.6318 198.483 99.5225C198.657 99.4085 198.782 99.2536 198.859 99.0576L199.194 98.1074C199.345 97.679 199.55 97.3714 199.81 97.1846C200.069 96.9977 200.434 96.9043 200.903 96.9043H201.375V98.1895H201.17C201.029 98.1895 200.91 98.1963 200.814 98.21C200.723 98.2236 200.646 98.2533 200.582 98.2988C200.523 98.3398 200.473 98.3991 200.432 98.4766C200.391 98.554 200.347 98.6589 200.302 98.791L200.062 99.4951C199.99 99.7093 199.885 99.8779 199.748 100.001C199.611 100.119 199.463 100.206 199.304 100.261C199.55 100.338 199.746 100.454 199.892 100.609C200.042 100.76 200.17 100.965 200.274 101.225L200.609 102.093C200.655 102.216 200.698 102.316 200.739 102.394C200.78 102.466 200.828 102.523 200.883 102.564C200.942 102.605 201.01 102.635 201.088 102.653C201.17 102.672 201.277 102.681 201.409 102.681H201.73V104H201.211C200.696 104 200.302 103.904 200.028 103.713C199.759 103.521 199.538 103.193 199.365 102.729L198.969 101.717C198.905 101.548 198.825 101.421 198.729 101.334C198.638 101.243 198.538 101.174 198.429 101.129C198.324 101.083 198.215 101.056 198.101 101.047C197.991 101.038 197.88 101.033 197.766 101.033H197.178V104H195.749V96.9043ZM205.436 104.082C204.911 104.082 204.467 103.979 204.103 103.774C203.743 103.588 203.469 103.387 203.282 103.173C203.009 102.877 202.813 102.537 202.694 102.154C202.571 101.781 202.51 101.211 202.51 100.445C202.51 99.6888 202.571 99.1146 202.694 98.7227C202.822 98.3216 203.018 97.9889 203.282 97.7246C203.478 97.4922 203.752 97.2826 204.103 97.0957C204.458 96.9089 204.902 96.8154 205.436 96.8154C205.987 96.8154 206.44 96.9089 206.796 97.0957C207.138 97.2826 207.402 97.4922 207.589 97.7246C207.862 97.9889 208.063 98.3216 208.19 98.7227C208.304 99.1328 208.361 99.707 208.361 100.445C208.361 101.193 208.304 101.762 208.19 102.154C208.063 102.546 207.862 102.886 207.589 103.173C207.543 103.218 207.493 103.271 207.438 103.33C207.384 103.385 207.322 103.435 207.254 103.48C207.126 103.594 206.974 103.692 206.796 103.774C206.431 103.979 205.978 104.082 205.436 104.082ZM205.436 102.653C205.686 102.653 205.914 102.603 206.119 102.503C206.324 102.407 206.479 102.286 206.584 102.141C206.734 101.945 206.828 101.74 206.864 101.525C206.882 101.411 206.898 101.266 206.912 101.088C206.926 100.91 206.933 100.701 206.933 100.459C206.933 100.208 206.926 99.9919 206.912 99.8096C206.898 99.6273 206.882 99.4746 206.864 99.3516C206.828 99.1374 206.734 98.9414 206.584 98.7637C206.479 98.6133 206.324 98.488 206.119 98.3877C205.932 98.292 205.704 98.2441 205.436 98.2441C205.185 98.2441 204.962 98.292 204.766 98.3877C204.579 98.4788 204.419 98.6042 204.287 98.7637C204.164 98.9232 204.075 99.1191 204.021 99.3516C203.966 99.5931 203.938 99.9577 203.938 100.445C203.938 100.938 203.966 101.298 204.021 101.525C204.075 101.758 204.164 101.963 204.287 102.141C204.428 102.286 204.588 102.407 204.766 102.503C204.989 102.603 205.212 102.653 205.436 102.653ZM209.858 96.9043H211.287V97.6426C211.766 97.1094 212.376 96.8337 213.119 96.8154C213.98 96.8245 214.616 97.1344 215.026 97.7451C215.231 97.9775 215.366 98.2715 215.43 98.627C215.466 98.8138 215.491 99.0599 215.505 99.3652C215.523 99.666 215.532 100.031 215.532 100.459C215.532 100.878 215.523 101.238 215.505 101.539C215.491 101.835 215.466 102.077 215.43 102.264C215.366 102.619 215.231 102.918 215.026 103.159C214.821 103.442 214.564 103.66 214.254 103.815C213.949 103.975 213.57 104.064 213.119 104.082C212.768 104.082 212.442 104.002 212.142 103.843C211.832 103.688 211.547 103.487 211.287 103.241V106.871H209.858V96.9043ZM212.688 102.653C213.017 102.653 213.283 102.59 213.488 102.462C213.684 102.339 213.823 102.17 213.905 101.956C214.001 101.76 214.062 101.523 214.09 101.245C214.099 101.113 214.104 100.983 214.104 100.855C214.104 100.723 214.104 100.591 214.104 100.459C214.104 100.318 214.104 100.179 214.104 100.042C214.104 99.9007 214.099 99.764 214.09 99.6318C214.062 99.3538 214.001 99.1169 213.905 98.9209C213.823 98.7158 213.684 98.5472 213.488 98.415C213.292 98.3011 213.026 98.2441 212.688 98.2441C212.369 98.2441 212.117 98.3102 211.93 98.4424C211.743 98.5654 211.599 98.7386 211.499 98.9619C211.412 99.167 211.355 99.3994 211.328 99.6592C211.301 99.9326 211.287 100.199 211.287 100.459C211.287 100.71 211.301 100.96 211.328 101.211C211.355 101.484 211.412 101.724 211.499 101.929C211.599 102.152 211.743 102.325 211.93 102.448C212.107 102.585 212.36 102.653 212.688 102.653ZM217.132 96.9043H218.547L220.673 101.129L222.792 96.9043H224.187V104H222.758V99.4473L221.124 102.701H220.229L218.561 99.4473V104H217.132V96.9043ZM226.073 105.039V102.571H227.502V104L226.073 105.039ZM22.9229 114.904H26.3271C26.9788 114.904 27.4984 115.077 27.8857 115.424C28.2731 115.766 28.4668 116.226 28.4668 116.805C28.4668 117.516 28.1364 118.024 27.4756 118.329C27.8311 118.489 28.1045 118.705 28.2959 118.979C28.4873 119.247 28.583 119.587 28.583 119.997C28.583 120.612 28.3939 121.1 28.0156 121.46C27.6374 121.82 27.111 122 26.4365 122H22.9229V114.904ZM26.1562 120.811C26.4753 120.811 26.7259 120.724 26.9082 120.551C27.0905 120.378 27.1816 120.147 27.1816 119.86C27.1816 119.56 27.0905 119.327 26.9082 119.163C26.7259 118.999 26.4753 118.917 26.1562 118.917H24.3516V120.811H26.1562ZM26.0605 117.816C26.7305 117.816 27.0654 117.522 27.0654 116.935C27.0654 116.661 26.9788 116.454 26.8057 116.312C26.637 116.167 26.3887 116.094 26.0605 116.094H24.3516V117.816H26.0605ZM30.0869 114.904H31.5156V117.577H33.3887C34.0814 117.577 34.6374 117.78 35.0566 118.186C35.4759 118.591 35.6855 119.124 35.6855 119.785C35.6855 120.451 35.4759 120.986 35.0566 121.392C34.6374 121.797 34.0814 122 33.3887 122H30.0869V114.904ZM33.2383 120.742C33.5664 120.742 33.8216 120.656 34.0039 120.482C34.1862 120.309 34.2773 120.068 34.2773 119.758C34.2773 119.462 34.1862 119.227 34.0039 119.054C33.8216 118.881 33.5664 118.794 33.2383 118.794H31.5156V120.742H33.2383ZM36.6699 114.904H38.0986V122H36.6699V114.904ZM39.9443 114.904H41.373V115.643C41.8516 115.109 42.4622 114.834 43.2051 114.815C44.0664 114.825 44.7021 115.134 45.1123 115.745C45.3174 115.978 45.4518 116.271 45.5156 116.627C45.5521 116.814 45.5771 117.06 45.5908 117.365C45.609 117.666 45.6182 118.031 45.6182 118.459C45.6182 118.878 45.609 119.238 45.5908 119.539C45.5771 119.835 45.5521 120.077 45.5156 120.264C45.4518 120.619 45.3174 120.918 45.1123 121.159C44.9072 121.442 44.6497 121.66 44.3398 121.815C44.0345 121.975 43.6562 122.064 43.2051 122.082C42.8542 122.082 42.5283 122.002 42.2275 121.843C41.9176 121.688 41.6328 121.487 41.373 121.241V124.871H39.9443V114.904ZM42.7744 120.653C43.1025 120.653 43.3691 120.59 43.5742 120.462C43.7702 120.339 43.9092 120.17 43.9912 119.956C44.0869 119.76 44.1484 119.523 44.1758 119.245C44.1849 119.113 44.1895 118.983 44.1895 118.855C44.1895 118.723 44.1895 118.591 44.1895 118.459C44.1895 118.318 44.1895 118.179 44.1895 118.042C44.1895 117.901 44.1849 117.764 44.1758 117.632C44.1484 117.354 44.0869 117.117 43.9912 116.921C43.9092 116.716 43.7702 116.547 43.5742 116.415C43.3783 116.301 43.1117 116.244 42.7744 116.244C42.4554 116.244 42.2025 116.31 42.0156 116.442C41.8288 116.565 41.6852 116.739 41.585 116.962C41.4984 117.167 41.4414 117.399 41.4141 117.659C41.3867 117.933 41.373 118.199 41.373 118.459C41.373 118.71 41.3867 118.96 41.4141 119.211C41.4414 119.484 41.4984 119.724 41.585 119.929C41.6852 120.152 41.8288 120.325 42.0156 120.448C42.1934 120.585 42.4463 120.653 42.7744 120.653ZM49.166 122.082C48.3822 122.073 47.7715 121.863 47.334 121.453C46.8828 121.052 46.6572 120.539 46.6572 119.915C46.6572 119.318 46.8532 118.824 47.2451 118.432C47.6279 118.04 48.2021 117.835 48.9678 117.816H50.9434V117.071C50.9525 116.447 50.4671 116.144 49.4873 116.162C49.1501 116.162 48.8698 116.199 48.6465 116.271C48.4323 116.358 48.2637 116.504 48.1406 116.709L47.0195 115.854C47.5618 115.144 48.3617 114.797 49.4189 114.815C50.3122 114.806 51.0254 114.975 51.5586 115.321C52.0827 115.668 52.3538 116.278 52.3721 117.153V122H50.9434V121.371H50.916C50.7839 121.613 50.5788 121.79 50.3008 121.904C50.0456 122.023 49.6673 122.082 49.166 122.082ZM49.3438 120.742C49.9453 120.76 50.3669 120.69 50.6084 120.53C50.8317 120.38 50.9434 120.038 50.9434 119.505V118.992H49.2344C48.3958 119.01 47.9857 119.295 48.0039 119.847C48.0039 120.088 48.111 120.293 48.3252 120.462C48.5394 120.649 48.8789 120.742 49.3438 120.742ZM62.9678 122H54.2178V114.904H55.6465V120.653H58.0527V114.904H59.4814V120.653H61.874V114.904H63.3027V120.653H64.3145V123.818H62.9678V122ZM65.333 114.904H66.7617V119.717L69.8447 114.904H71.2734V122H69.8447V117.112L66.7617 122H65.333V114.904ZM73.126 114.904H76.5303C77.182 114.904 77.7015 115.077 78.0889 115.424C78.4762 115.766 78.6699 116.226 78.6699 116.805C78.6699 117.516 78.3395 118.024 77.6787 118.329C78.0342 118.489 78.3076 118.705 78.499 118.979C78.6904 119.247 78.7861 119.587 78.7861 119.997C78.7861 120.612 78.597 121.1 78.2188 121.46C77.8405 121.82 77.3141 122 76.6396 122H73.126V114.904ZM76.3594 120.811C76.6784 120.811 76.929 120.724 77.1113 120.551C77.2936 120.378 77.3848 120.147 77.3848 119.86C77.3848 119.56 77.2936 119.327 77.1113 119.163C76.929 118.999 76.6784 118.917 76.3594 118.917H74.5547V120.811H76.3594ZM76.2637 117.816C76.9336 117.816 77.2686 117.522 77.2686 116.935C77.2686 116.661 77.182 116.454 77.0088 116.312C76.8402 116.167 76.5918 116.094 76.2637 116.094H74.5547V117.816H76.2637ZM82.2383 122.082C81.4544 122.073 80.8438 121.863 80.4062 121.453C79.9551 121.052 79.7295 120.539 79.7295 119.915C79.7295 119.318 79.9255 118.824 80.3174 118.432C80.7002 118.04 81.2744 117.835 82.04 117.816H84.0156V117.071C84.0247 116.447 83.5394 116.144 82.5596 116.162C82.2223 116.162 81.9421 116.199 81.7188 116.271C81.5046 116.358 81.3359 116.504 81.2129 116.709L80.0918 115.854C80.6341 115.144 81.4339 114.797 82.4912 114.815C83.3844 114.806 84.0977 114.975 84.6309 115.321C85.1549 115.668 85.4261 116.278 85.4443 117.153V122H84.0156V121.371H83.9883C83.8561 121.613 83.651 121.79 83.373 121.904C83.1178 122.023 82.7396 122.082 82.2383 122.082ZM82.416 120.742C83.0176 120.76 83.4391 120.69 83.6807 120.53C83.904 120.38 84.0156 120.038 84.0156 119.505V118.992H82.3066C81.4681 119.01 81.0579 119.295 81.0762 119.847C81.0762 120.088 81.1833 120.293 81.3975 120.462C81.6117 120.649 81.9512 120.742 82.416 120.742ZM90.0928 122.082C89.71 122.082 89.3454 122.027 88.999 121.918C88.8395 121.868 88.6663 121.788 88.4795 121.679C88.3109 121.606 88.1445 121.499 87.9805 121.357C87.6706 121.075 87.4268 120.706 87.249 120.25C87.0439 119.803 86.9414 119.211 86.9414 118.473C86.9414 117.753 87.0303 117.169 87.208 116.723C87.3949 116.226 87.6227 115.852 87.8916 115.602C88.165 115.333 88.4818 115.132 88.8418 115C89.179 114.877 89.5208 114.815 89.8672 114.815C90.6784 114.834 91.3643 115.1 91.9248 115.615C92.4854 116.139 92.7747 116.873 92.793 117.816V118.992H88.3701C88.3701 119.562 88.5342 119.995 88.8623 120.291C89.1768 120.592 89.5778 120.742 90.0654 120.742C90.6442 120.742 91.1615 120.512 91.6172 120.052L92.6562 120.934C91.918 121.708 91.0635 122.091 90.0928 122.082ZM91.3643 117.816C91.346 117.274 91.1979 116.857 90.9199 116.565C90.6465 116.297 90.2956 116.162 89.8672 116.162C89.4388 116.162 89.0879 116.297 88.8145 116.565C88.5456 116.857 88.3975 117.274 88.3701 117.816H91.3643ZM94.29 114.904H95.7051L97.8311 119.129L99.9502 114.904H101.345V122H99.916V117.447L98.2822 120.701H97.3867L95.7188 117.447V122H94.29V114.904ZM105.843 120.681H106.15C106.278 120.681 106.383 120.672 106.465 120.653C106.551 120.635 106.622 120.605 106.677 120.564C106.736 120.523 106.786 120.466 106.827 120.394C106.868 120.316 106.914 120.216 106.964 120.093L107.285 119.225C107.385 118.965 107.511 118.76 107.661 118.609C107.812 118.454 108.007 118.338 108.249 118.261C108.09 118.206 107.941 118.119 107.805 118.001C107.673 117.878 107.568 117.709 107.49 117.495L107.258 116.791C107.208 116.659 107.162 116.554 107.121 116.477C107.08 116.399 107.028 116.34 106.964 116.299C106.905 116.253 106.829 116.224 106.738 116.21C106.652 116.196 106.54 116.189 106.403 116.189H106.178V114.904H106.67C107.126 114.904 107.483 114.998 107.743 115.185C108.007 115.371 108.217 115.679 108.372 116.107L108.714 117.058C108.787 117.254 108.91 117.413 109.083 117.536C109.256 117.655 109.464 117.714 109.705 117.714H110.095V114.904H111.523V117.714H111.906C112.157 117.714 112.369 117.655 112.542 117.536C112.715 117.413 112.838 117.254 112.911 117.058L113.246 116.107C113.406 115.679 113.613 115.371 113.868 115.185C114.128 114.998 114.49 114.904 114.955 114.904H115.434V116.189H115.222C115.08 116.189 114.962 116.196 114.866 116.21C114.775 116.224 114.702 116.253 114.647 116.299C114.593 116.34 114.543 116.399 114.497 116.477C114.456 116.554 114.413 116.659 114.367 116.791L114.114 117.495C114.041 117.709 113.937 117.878 113.8 118.001C113.663 118.119 113.515 118.206 113.355 118.261C113.602 118.338 113.798 118.454 113.943 118.609C114.094 118.76 114.221 118.965 114.326 119.225L114.661 120.093C114.707 120.216 114.75 120.316 114.791 120.394C114.837 120.466 114.887 120.523 114.941 120.564C114.996 120.605 115.062 120.635 115.14 120.653C115.222 120.672 115.329 120.681 115.461 120.681H115.782V122H115.263C115.012 122 114.791 121.977 114.6 121.932C114.408 121.886 114.242 121.815 114.101 121.72C113.959 121.619 113.834 121.487 113.725 121.323C113.62 121.159 113.522 120.961 113.431 120.729L113.034 119.717C112.97 119.548 112.891 119.421 112.795 119.334C112.704 119.243 112.604 119.174 112.494 119.129C112.389 119.083 112.28 119.056 112.166 119.047C112.057 119.038 111.945 119.033 111.831 119.033H111.523V122H110.095V119.033H109.787C109.678 119.033 109.564 119.038 109.445 119.047C109.327 119.056 109.213 119.083 109.104 119.129C108.999 119.174 108.898 119.243 108.803 119.334C108.712 119.421 108.634 119.548 108.57 119.717L108.194 120.729C108.099 120.961 107.996 121.159 107.887 121.323C107.782 121.487 107.657 121.619 107.511 121.72C107.369 121.815 107.205 121.886 107.019 121.932C106.832 121.977 106.611 122 106.355 122H105.843V120.681ZM116.917 114.904H118.346V119.717L121.429 114.904H122.857V122H121.429V117.112L118.346 122H116.917V114.904ZM124.71 114.904H128.114C128.766 114.904 129.285 115.077 129.673 115.424C130.06 115.766 130.254 116.226 130.254 116.805C130.254 117.516 129.924 118.024 129.263 118.329C129.618 118.489 129.892 118.705 130.083 118.979C130.274 119.247 130.37 119.587 130.37 119.997C130.37 120.612 130.181 121.1 129.803 121.46C129.424 121.82 128.898 122 128.224 122H124.71V114.904ZM127.943 120.811C128.262 120.811 128.513 120.724 128.695 120.551C128.878 120.378 128.969 120.147 128.969 119.86C128.969 119.56 128.878 119.327 128.695 119.163C128.513 118.999 128.262 118.917 127.943 118.917H126.139V120.811H127.943ZM127.848 117.816C128.518 117.816 128.853 117.522 128.853 116.935C128.853 116.661 128.766 116.454 128.593 116.312C128.424 116.167 128.176 116.094 127.848 116.094H126.139V117.816H127.848ZM134.451 122.082C133.927 122.082 133.483 121.979 133.118 121.774C132.758 121.588 132.485 121.387 132.298 121.173C132.024 120.877 131.828 120.537 131.71 120.154C131.587 119.781 131.525 119.211 131.525 118.445C131.525 117.689 131.587 117.115 131.71 116.723C131.838 116.322 132.034 115.989 132.298 115.725C132.494 115.492 132.767 115.283 133.118 115.096C133.474 114.909 133.918 114.815 134.451 114.815C135.003 114.815 135.456 114.909 135.812 115.096C136.153 115.283 136.418 115.492 136.604 115.725C136.878 115.989 137.078 116.322 137.206 116.723C137.32 117.133 137.377 117.707 137.377 118.445C137.377 119.193 137.32 119.762 137.206 120.154C137.078 120.546 136.878 120.886 136.604 121.173C136.559 121.218 136.509 121.271 136.454 121.33C136.399 121.385 136.338 121.435 136.27 121.48C136.142 121.594 135.989 121.692 135.812 121.774C135.447 121.979 134.993 122.082 134.451 122.082ZM134.451 120.653C134.702 120.653 134.93 120.603 135.135 120.503C135.34 120.407 135.495 120.286 135.6 120.141C135.75 119.945 135.843 119.74 135.88 119.525C135.898 119.411 135.914 119.266 135.928 119.088C135.941 118.91 135.948 118.701 135.948 118.459C135.948 118.208 135.941 117.992 135.928 117.81C135.914 117.627 135.898 117.475 135.88 117.352C135.843 117.137 135.75 116.941 135.6 116.764C135.495 116.613 135.34 116.488 135.135 116.388C134.948 116.292 134.72 116.244 134.451 116.244C134.201 116.244 133.977 116.292 133.781 116.388C133.594 116.479 133.435 116.604 133.303 116.764C133.18 116.923 133.091 117.119 133.036 117.352C132.981 117.593 132.954 117.958 132.954 118.445C132.954 118.938 132.981 119.298 133.036 119.525C133.091 119.758 133.18 119.963 133.303 120.141C133.444 120.286 133.604 120.407 133.781 120.503C134.005 120.603 134.228 120.653 134.451 120.653ZM140.289 116.244H138.108V114.904H143.816V116.244H141.718V122H140.289V116.244ZM144.903 114.904H146.332V117.673H149.148V114.904H150.577V122H149.148V119.02H146.332V122H144.903V114.904ZM152.423 114.904H153.852V117.577H155.725C156.417 117.577 156.973 117.78 157.393 118.186C157.812 118.591 158.021 119.124 158.021 119.785C158.021 120.451 157.812 120.986 157.393 121.392C156.973 121.797 156.417 122 155.725 122H152.423V114.904ZM155.574 120.742C155.902 120.742 156.158 120.656 156.34 120.482C156.522 120.309 156.613 120.068 156.613 119.758C156.613 119.462 156.522 119.227 156.34 119.054C156.158 118.881 155.902 118.794 155.574 118.794H153.852V120.742H155.574ZM159.006 114.904H160.435V122H159.006V114.904ZM163.921 118.377L161.597 114.904H163.306L164.721 117.201L166.129 114.904H167.838L165.514 118.377L167.94 122H166.231L164.721 119.635L163.203 122H161.494L163.921 118.377ZM172.37 114.904H173.799V119.717L176.882 114.904H178.311V122H176.882V117.112L173.799 122H172.37V114.904ZM186.104 122.082C185.579 122.082 185.135 121.979 184.771 121.774C184.41 121.588 184.137 121.387 183.95 121.173C183.677 120.877 183.481 120.537 183.362 120.154C183.239 119.781 183.178 119.211 183.178 118.445C183.178 117.689 183.239 117.115 183.362 116.723C183.49 116.322 183.686 115.989 183.95 115.725C184.146 115.492 184.42 115.283 184.771 115.096C185.126 114.909 185.57 114.815 186.104 114.815C186.655 114.815 187.108 114.909 187.464 115.096C187.806 115.283 188.07 115.492 188.257 115.725C188.53 115.989 188.731 116.322 188.858 116.723C188.972 117.133 189.029 117.707 189.029 118.445C189.029 119.193 188.972 119.762 188.858 120.154C188.731 120.546 188.53 120.886 188.257 121.173C188.211 121.218 188.161 121.271 188.106 121.33C188.052 121.385 187.99 121.435 187.922 121.48C187.794 121.594 187.642 121.692 187.464 121.774C187.099 121.979 186.646 122.082 186.104 122.082ZM186.104 120.653C186.354 120.653 186.582 120.603 186.787 120.503C186.992 120.407 187.147 120.286 187.252 120.141C187.402 119.945 187.496 119.74 187.532 119.525C187.55 119.411 187.566 119.266 187.58 119.088C187.594 118.91 187.601 118.701 187.601 118.459C187.601 118.208 187.594 117.992 187.58 117.81C187.566 117.627 187.55 117.475 187.532 117.352C187.496 117.137 187.402 116.941 187.252 116.764C187.147 116.613 186.992 116.488 186.787 116.388C186.6 116.292 186.372 116.244 186.104 116.244C185.853 116.244 185.63 116.292 185.434 116.388C185.247 116.479 185.087 116.604 184.955 116.764C184.832 116.923 184.743 117.119 184.688 117.352C184.634 117.593 184.606 117.958 184.606 118.445C184.606 118.938 184.634 119.298 184.688 119.525C184.743 119.758 184.832 119.963 184.955 120.141C185.096 120.286 185.256 120.407 185.434 120.503C185.657 120.603 185.88 120.653 186.104 120.653ZM193.356 122.082C192.636 122.082 192.051 121.916 191.6 121.583C191.148 121.246 190.829 120.797 190.643 120.236C190.583 120.077 190.54 119.895 190.513 119.689C190.485 119.484 190.463 119.27 190.444 119.047C190.426 118.824 190.415 118.6 190.41 118.377C190.406 118.149 190.403 117.937 190.403 117.741V117.201C190.403 116.818 190.41 116.447 190.424 116.087C190.438 115.727 190.479 115.385 190.547 115.062C190.62 114.733 190.725 114.43 190.861 114.152C191.003 113.87 191.194 113.615 191.436 113.387C191.632 113.214 191.839 113.072 192.058 112.963C192.281 112.854 192.511 112.769 192.748 112.71C192.985 112.651 193.224 112.605 193.466 112.573C193.707 112.541 193.947 112.509 194.184 112.478C194.329 112.459 194.448 112.416 194.539 112.348C194.635 112.279 194.694 112.174 194.717 112.033H196.173C196.095 113.068 195.615 113.656 194.73 113.797C194.503 113.833 194.277 113.863 194.054 113.886C193.83 113.909 193.609 113.943 193.391 113.988C193.172 114.029 192.965 114.091 192.769 114.173C192.573 114.25 192.39 114.362 192.222 114.508C192.007 114.704 191.85 114.938 191.75 115.212C191.654 115.481 191.602 115.731 191.593 115.964H191.634C191.793 115.686 192.051 115.449 192.406 115.253C192.766 115.057 193.186 114.959 193.664 114.959C194.598 114.959 195.273 115.264 195.688 115.875C196.102 116.486 196.31 117.356 196.31 118.486C196.31 119.102 196.253 119.628 196.139 120.065C196.029 120.498 195.842 120.872 195.578 121.187C195.337 121.478 195.029 121.701 194.655 121.856C194.282 122.007 193.849 122.082 193.356 122.082ZM193.343 120.667C193.584 120.667 193.803 120.624 193.999 120.537C194.195 120.451 194.359 120.327 194.491 120.168C194.651 119.981 194.756 119.756 194.806 119.491C194.856 119.222 194.881 118.896 194.881 118.514C194.881 118.122 194.856 117.787 194.806 117.509C194.756 117.226 194.651 116.992 194.491 116.805C194.359 116.654 194.195 116.538 193.999 116.456C193.803 116.374 193.584 116.333 193.343 116.333C193.101 116.333 192.882 116.376 192.687 116.463C192.491 116.549 192.331 116.673 192.208 116.832C192.049 117.019 191.946 117.254 191.9 117.536C191.855 117.814 191.832 118.149 191.832 118.541C191.832 118.988 191.868 119.343 191.941 119.607C192.014 119.867 192.131 120.081 192.29 120.25C192.422 120.382 192.579 120.485 192.762 120.558C192.944 120.631 193.138 120.667 193.343 120.667ZM197.813 114.904H199.242V115.643C199.721 115.109 200.331 114.834 201.074 114.815C201.936 114.825 202.571 115.134 202.981 115.745C203.187 115.978 203.321 116.271 203.385 116.627C203.421 116.814 203.446 117.06 203.46 117.365C203.478 117.666 203.487 118.031 203.487 118.459C203.487 118.878 203.478 119.238 203.46 119.539C203.446 119.835 203.421 120.077 203.385 120.264C203.321 120.619 203.187 120.918 202.981 121.159C202.776 121.442 202.519 121.66 202.209 121.815C201.904 121.975 201.525 122.064 201.074 122.082C200.723 122.082 200.397 122.002 200.097 121.843C199.787 121.688 199.502 121.487 199.242 121.241V124.871H197.813V114.904ZM200.644 120.653C200.972 120.653 201.238 120.59 201.443 120.462C201.639 120.339 201.778 120.17 201.86 119.956C201.956 119.76 202.018 119.523 202.045 119.245C202.054 119.113 202.059 118.983 202.059 118.855C202.059 118.723 202.059 118.591 202.059 118.459C202.059 118.318 202.059 118.179 202.059 118.042C202.059 117.901 202.054 117.764 202.045 117.632C202.018 117.354 201.956 117.117 201.86 116.921C201.778 116.716 201.639 116.547 201.443 116.415C201.247 116.301 200.981 116.244 200.644 116.244C200.325 116.244 200.072 116.31 199.885 116.442C199.698 116.565 199.554 116.739 199.454 116.962C199.368 117.167 199.311 117.399 199.283 117.659C199.256 117.933 199.242 118.199 199.242 118.459C199.242 118.71 199.256 118.96 199.283 119.211C199.311 119.484 199.368 119.724 199.454 119.929C199.554 120.152 199.698 120.325 199.885 120.448C200.062 120.585 200.315 120.653 200.644 120.653ZM207.035 122.082C206.251 122.073 205.641 121.863 205.203 121.453C204.752 121.052 204.526 120.539 204.526 119.915C204.526 119.318 204.722 118.824 205.114 118.432C205.497 118.04 206.071 117.835 206.837 117.816H208.812V117.071C208.822 116.447 208.336 116.144 207.356 116.162C207.019 116.162 206.739 116.199 206.516 116.271C206.301 116.358 206.133 116.504 206.01 116.709L204.889 115.854C205.431 115.144 206.231 114.797 207.288 114.815C208.181 114.806 208.895 114.975 209.428 115.321C209.952 115.668 210.223 116.278 210.241 117.153V122H208.812V121.371H208.785C208.653 121.613 208.448 121.79 208.17 121.904C207.915 122.023 207.536 122.082 207.035 122.082ZM207.213 120.742C207.814 120.76 208.236 120.69 208.478 120.53C208.701 120.38 208.812 120.038 208.812 119.505V118.992H207.104C206.265 119.01 205.855 119.295 205.873 119.847C205.873 120.088 205.98 120.293 206.194 120.462C206.409 120.649 206.748 120.742 207.213 120.742ZM214.917 122.082C214.197 122.082 213.611 121.916 213.16 121.583C212.709 121.246 212.39 120.797 212.203 120.236C212.144 120.077 212.101 119.895 212.073 119.689C212.046 119.484 212.023 119.27 212.005 119.047C211.987 118.824 211.975 118.6 211.971 118.377C211.966 118.149 211.964 117.937 211.964 117.741V117.201C211.964 116.818 211.971 116.447 211.984 116.087C211.998 115.727 212.039 115.385 212.107 115.062C212.18 114.733 212.285 114.43 212.422 114.152C212.563 113.87 212.755 113.615 212.996 113.387C213.192 113.214 213.399 113.072 213.618 112.963C213.841 112.854 214.072 112.769 214.309 112.71C214.546 112.651 214.785 112.605 215.026 112.573C215.268 112.541 215.507 112.509 215.744 112.478C215.89 112.459 216.008 112.416 216.1 112.348C216.195 112.279 216.255 112.174 216.277 112.033H217.733C217.656 113.068 217.175 113.656 216.291 113.797C216.063 113.833 215.838 113.863 215.614 113.886C215.391 113.909 215.17 113.943 214.951 113.988C214.732 114.029 214.525 114.091 214.329 114.173C214.133 114.25 213.951 114.362 213.782 114.508C213.568 114.704 213.411 114.938 213.311 115.212C213.215 115.481 213.162 115.731 213.153 115.964H213.194C213.354 115.686 213.611 115.449 213.967 115.253C214.327 115.057 214.746 114.959 215.225 114.959C216.159 114.959 216.833 115.264 217.248 115.875C217.663 116.486 217.87 117.356 217.87 118.486C217.87 119.102 217.813 119.628 217.699 120.065C217.59 120.498 217.403 120.872 217.139 121.187C216.897 121.478 216.59 121.701 216.216 121.856C215.842 122.007 215.409 122.082 214.917 122.082ZM214.903 120.667C215.145 120.667 215.364 120.624 215.56 120.537C215.756 120.451 215.92 120.327 216.052 120.168C216.211 119.981 216.316 119.756 216.366 119.491C216.416 119.222 216.441 118.896 216.441 118.514C216.441 118.122 216.416 117.787 216.366 117.509C216.316 117.226 216.211 116.992 216.052 116.805C215.92 116.654 215.756 116.538 215.56 116.456C215.364 116.374 215.145 116.333 214.903 116.333C214.662 116.333 214.443 116.376 214.247 116.463C214.051 116.549 213.892 116.673 213.769 116.832C213.609 117.019 213.507 117.254 213.461 117.536C213.415 117.814 213.393 118.149 213.393 118.541C213.393 118.988 213.429 119.343 213.502 119.607C213.575 119.867 213.691 120.081 213.851 120.25C213.983 120.382 214.14 120.485 214.322 120.558C214.505 120.631 214.698 120.667 214.903 120.667ZM221.322 122.082C220.538 122.073 219.928 121.863 219.49 121.453C219.039 121.052 218.813 120.539 218.813 119.915C218.813 119.318 219.009 118.824 219.401 118.432C219.784 118.04 220.358 117.835 221.124 117.816H223.1V117.071C223.109 116.447 222.623 116.144 221.644 116.162C221.306 116.162 221.026 116.199 220.803 116.271C220.589 116.358 220.42 116.504 220.297 116.709L219.176 115.854C219.718 115.144 220.518 114.797 221.575 114.815C222.468 114.806 223.182 114.975 223.715 115.321C224.239 115.668 224.51 116.278 224.528 117.153V122H223.1V121.371H223.072C222.94 121.613 222.735 121.79 222.457 121.904C222.202 122.023 221.824 122.082 221.322 122.082ZM221.5 120.742C222.102 120.76 222.523 120.69 222.765 120.53C222.988 120.38 223.1 120.038 223.1 119.505V118.992H221.391C220.552 119.01 220.142 119.295 220.16 119.847C220.16 120.088 220.267 120.293 220.481 120.462C220.696 120.649 221.035 120.742 221.5 120.742ZM227.789 116.244H225.608V114.904H231.316V116.244H229.218V122H227.789V116.244ZM232.403 114.904H233.832V117.577H235.705C236.398 117.577 236.954 117.78 237.373 118.186C237.792 118.591 238.002 119.124 238.002 119.785C238.002 120.451 237.792 120.986 237.373 121.392C236.954 121.797 236.398 122 235.705 122H232.403V114.904ZM235.555 120.742C235.883 120.742 236.138 120.656 236.32 120.482C236.503 120.309 236.594 120.068 236.594 119.758C236.594 119.462 236.503 119.227 236.32 119.054C236.138 118.881 235.883 118.794 235.555 118.794H233.832V120.742H235.555ZM238.986 114.904H240.415V122H238.986V114.904ZM242.261 114.904H245.665C246.317 114.904 246.836 115.077 247.224 115.424C247.611 115.766 247.805 116.226 247.805 116.805C247.805 117.516 247.474 118.024 246.813 118.329C247.169 118.489 247.442 118.705 247.634 118.979C247.825 119.247 247.921 119.587 247.921 119.997C247.921 120.612 247.732 121.1 247.354 121.46C246.975 121.82 246.449 122 245.774 122H242.261V114.904ZM245.494 120.811C245.813 120.811 246.064 120.724 246.246 120.551C246.428 120.378 246.52 120.147 246.52 119.86C246.52 119.56 246.428 119.327 246.246 119.163C246.064 118.999 245.813 118.917 245.494 118.917H243.689V120.811H245.494ZM245.398 117.816C246.068 117.816 246.403 117.522 246.403 116.935C246.403 116.661 246.317 116.454 246.144 116.312C245.975 116.167 245.727 116.094 245.398 116.094H243.689V117.816H245.398ZM251.373 122.082C250.589 122.073 249.979 121.863 249.541 121.453C249.09 121.052 248.864 120.539 248.864 119.915C248.864 119.318 249.06 118.824 249.452 118.432C249.835 118.04 250.409 117.835 251.175 117.816H253.15V117.071C253.16 116.447 252.674 116.144 251.694 116.162C251.357 116.162 251.077 116.199 250.854 116.271C250.639 116.358 250.471 116.504 250.348 116.709L249.227 115.854C249.769 115.144 250.569 114.797 251.626 114.815C252.519 114.806 253.232 114.975 253.766 115.321C254.29 115.668 254.561 116.278 254.579 117.153V122H253.15V121.371H253.123C252.991 121.613 252.786 121.79 252.508 121.904C252.253 122.023 251.874 122.082 251.373 122.082ZM251.551 120.742C252.152 120.76 252.574 120.69 252.815 120.53C253.039 120.38 253.15 120.038 253.15 119.505V118.992H251.441C250.603 119.01 250.193 119.295 250.211 119.847C250.211 120.088 250.318 120.293 250.532 120.462C250.746 120.649 251.086 120.742 251.551 120.742ZM259.228 122.082C258.845 122.082 258.48 122.027 258.134 121.918C257.974 121.868 257.801 121.788 257.614 121.679C257.446 121.606 257.279 121.499 257.115 121.357C256.805 121.075 256.562 120.706 256.384 120.25C256.179 119.803 256.076 119.211 256.076 118.473C256.076 117.753 256.165 117.169 256.343 116.723C256.53 116.226 256.757 115.852 257.026 115.602C257.3 115.333 257.617 115.132 257.977 115C258.314 114.877 258.656 114.815 259.002 114.815C259.813 114.834 260.499 115.1 261.06 115.615C261.62 116.139 261.91 116.873 261.928 117.816V118.992H257.505C257.505 119.562 257.669 119.995 257.997 120.291C258.312 120.592 258.713 120.742 259.2 120.742C259.779 120.742 260.296 120.512 260.752 120.052L261.791 120.934C261.053 121.708 260.198 122.091 259.228 122.082ZM260.499 117.816C260.481 117.274 260.333 116.857 260.055 116.565C259.781 116.297 259.43 116.162 259.002 116.162C258.574 116.162 258.223 116.297 257.949 116.565C257.68 116.857 257.532 117.274 257.505 117.816H260.499ZM263.425 114.904H264.84L266.966 119.129L269.085 114.904H270.479V122H269.051V117.447L267.417 120.701H266.521L264.854 117.447V122H263.425V114.904ZM25.5957 140.082C24.748 140.082 24.012 139.797 23.3877 139.228C22.7223 138.658 22.3851 137.735 22.376 136.459C22.3942 135.16 22.7314 134.226 23.3877 133.656C24.0212 133.077 24.7572 132.797 25.5957 132.815C26.1471 132.834 26.6325 132.948 27.0518 133.157C27.4847 133.381 27.8493 133.679 28.1455 134.053L27.0928 134.989C26.7327 134.502 26.2542 134.253 25.6572 134.244C24.4313 134.226 23.8138 134.964 23.8047 136.459C23.8138 137.94 24.4313 138.672 25.6572 138.653C26.2633 138.635 26.7419 138.389 27.0928 137.915L28.1455 138.852C27.8265 139.207 27.4619 139.496 27.0518 139.72C26.6234 139.961 26.138 140.082 25.5957 140.082ZM29.1436 132.904H32.5479C33.1995 132.904 33.7191 133.077 34.1064 133.424C34.4938 133.766 34.6875 134.226 34.6875 134.805C34.6875 135.516 34.3571 136.024 33.6963 136.329C34.0518 136.489 34.3252 136.705 34.5166 136.979C34.708 137.247 34.8037 137.587 34.8037 137.997C34.8037 138.612 34.6146 139.1 34.2363 139.46C33.8581 139.82 33.3317 140 32.6572 140H29.1436V132.904ZM32.377 138.811C32.696 138.811 32.9466 138.724 33.1289 138.551C33.3112 138.378 33.4023 138.147 33.4023 137.86C33.4023 137.56 33.3112 137.327 33.1289 137.163C32.9466 136.999 32.696 136.917 32.377 136.917H30.5723V138.811H32.377ZM32.2812 135.816C32.9512 135.816 33.2861 135.522 33.2861 134.935C33.2861 134.661 33.1995 134.454 33.0264 134.312C32.8577 134.167 32.6094 134.094 32.2812 134.094H30.5723V135.816H32.2812ZM36.3076 132.904H37.7363V137.717L40.8193 132.904H42.248V140H40.8193V135.112L37.7363 140H36.3076V132.904ZM44.1006 132.904H45.5293V135.673H48.3457V132.904H49.7744V140H48.3457V137.02H45.5293V140H44.1006V132.904ZM51.6201 132.904H53.0488V137.717L56.1318 132.904H57.5605V140H56.1318V135.112L53.0488 140H51.6201V132.904ZM59.4131 132.904H60.8418V135.673H63.6582V132.904H65.0869V140H63.6582V137.02H60.8418V140H59.4131V132.904ZM66.7959 141.524H67.2129C67.3997 141.524 67.5729 141.474 67.7324 141.374C67.8828 141.278 67.9945 141.123 68.0674 140.909L68.457 139.72L65.9141 132.904H67.4248L69.1064 137.874H69.1338L70.8086 132.904H72.3262L69.2705 141.47C69.0745 142.003 68.8034 142.372 68.457 142.577C68.1061 142.773 67.7096 142.871 67.2676 142.871H66.7959V141.524ZM73.1943 141.039V138.571H74.623V140L73.1943 141.039ZM81.8281 140.082C81.0443 140.073 80.4336 139.863 79.9961 139.453C79.5449 139.052 79.3193 138.539 79.3193 137.915C79.3193 137.318 79.5153 136.824 79.9072 136.432C80.29 136.04 80.8643 135.835 81.6299 135.816H83.6055V135.071C83.6146 134.447 83.1292 134.144 82.1494 134.162C81.8122 134.162 81.5319 134.199 81.3086 134.271C81.0944 134.358 80.9258 134.504 80.8027 134.709L79.6816 133.854C80.224 133.144 81.0238 132.797 82.0811 132.815C82.9743 132.806 83.6875 132.975 84.2207 133.321C84.7448 133.668 85.016 134.278 85.0342 135.153V140H83.6055V139.371H83.5781C83.446 139.613 83.2409 139.79 82.9629 139.904C82.7077 140.023 82.3294 140.082 81.8281 140.082ZM82.0059 138.742C82.6074 138.76 83.029 138.69 83.2705 138.53C83.4938 138.38 83.6055 138.038 83.6055 137.505V136.992H81.8965C81.0579 137.01 80.6478 137.295 80.666 137.847C80.666 138.088 80.7731 138.293 80.9873 138.462C81.2015 138.649 81.541 138.742 82.0059 138.742ZM92.1504 140.082C91.5625 140.082 91.0566 139.989 90.6328 139.802C90.2135 139.615 89.8216 139.326 89.457 138.934L90.4961 138.052C90.7285 138.289 90.9632 138.464 91.2002 138.578C91.4417 138.688 91.7585 138.742 92.1504 138.742C92.5879 138.742 92.9388 138.662 93.2031 138.503C93.472 138.343 93.6064 138.109 93.6064 137.799C93.6064 137.493 93.5062 137.279 93.3057 137.156C93.1051 137.029 92.793 136.965 92.3691 136.965H91.3369V135.789H92.3896C92.7314 135.789 93.0049 135.714 93.21 135.563C93.415 135.413 93.5176 135.203 93.5176 134.935C93.5176 134.661 93.3991 134.463 93.1621 134.34C92.9251 134.212 92.5879 134.148 92.1504 134.148C91.8587 134.148 91.5716 134.199 91.2891 134.299C91.0111 134.395 90.7604 134.549 90.5371 134.764L89.5186 133.882C89.6872 133.713 89.8581 133.565 90.0312 133.438C90.209 133.305 90.4049 133.194 90.6191 133.103C90.8379 133.007 91.0817 132.936 91.3506 132.891C91.6195 132.84 91.9316 132.815 92.2871 132.815C92.6699 132.815 93.0299 132.847 93.3672 132.911C93.7044 132.97 93.9938 133.089 94.2354 133.267C94.4587 133.426 94.6273 133.636 94.7412 133.896C94.8597 134.155 94.9189 134.436 94.9189 134.736C94.9189 135.083 94.8278 135.397 94.6455 135.68C94.4632 135.958 94.2103 136.16 93.8867 136.288C94.2285 136.42 94.5042 136.632 94.7139 136.924C94.9281 137.211 95.0352 137.55 95.0352 137.942C95.0352 138.307 94.9486 138.646 94.7754 138.961C94.6022 139.271 94.3561 139.519 94.0371 139.706C93.7956 139.856 93.5107 139.957 93.1826 140.007C92.859 140.057 92.515 140.082 92.1504 140.082ZM98.4805 140.082C97.6966 140.073 97.0859 139.863 96.6484 139.453C96.1973 139.052 95.9717 138.539 95.9717 137.915C95.9717 137.318 96.1676 136.824 96.5596 136.432C96.9424 136.04 97.5166 135.835 98.2822 135.816H100.258V135.071C100.267 134.447 99.7816 134.144 98.8018 134.162C98.4645 134.162 98.1842 134.199 97.9609 134.271C97.7467 134.358 97.5781 134.504 97.4551 134.709L96.334 133.854C96.8763 133.144 97.6761 132.797 98.7334 132.815C99.6266 132.806 100.34 132.975 100.873 133.321C101.397 133.668 101.668 134.278 101.687 135.153V140H100.258V139.371H100.23C100.098 139.613 99.8932 139.79 99.6152 139.904C99.36 140.023 98.9818 140.082 98.4805 140.082ZM98.6582 138.742C99.2598 138.76 99.6813 138.69 99.9229 138.53C100.146 138.38 100.258 138.038 100.258 137.505V136.992H98.5488C97.7103 137.01 97.3001 137.295 97.3184 137.847C97.3184 138.088 97.4255 138.293 97.6396 138.462C97.8538 138.649 98.1934 138.742 98.6582 138.742ZM104.947 134.244H102.767V132.904H108.475V134.244H106.376V140H104.947V134.244ZM112.364 140.082C111.981 140.082 111.617 140.027 111.271 139.918C111.111 139.868 110.938 139.788 110.751 139.679C110.582 139.606 110.416 139.499 110.252 139.357C109.942 139.075 109.698 138.706 109.521 138.25C109.315 137.803 109.213 137.211 109.213 136.473C109.213 135.753 109.302 135.169 109.479 134.723C109.666 134.226 109.894 133.852 110.163 133.602C110.437 133.333 110.753 133.132 111.113 133C111.451 132.877 111.792 132.815 112.139 132.815C112.95 132.834 113.636 133.1 114.196 133.615C114.757 134.139 115.046 134.873 115.064 135.816V136.992H110.642C110.642 137.562 110.806 137.995 111.134 138.291C111.448 138.592 111.849 138.742 112.337 138.742C112.916 138.742 113.433 138.512 113.889 138.052L114.928 138.934C114.189 139.708 113.335 140.091 112.364 140.082ZM113.636 135.816C113.618 135.274 113.469 134.857 113.191 134.565C112.918 134.297 112.567 134.162 112.139 134.162C111.71 134.162 111.359 134.297 111.086 134.565C110.817 134.857 110.669 135.274 110.642 135.816H113.636ZM116.562 132.904H117.977L120.103 137.129L122.222 132.904H123.616V140H122.188V135.447L120.554 138.701H119.658L117.99 135.447V140H116.562V132.904ZM128.825 132.904H130.254V135.673H133.07V132.904H134.499V140H133.07V137.02H130.254V140H128.825V132.904ZM138.293 140.082C137.509 140.073 136.898 139.863 136.461 139.453C136.01 139.052 135.784 138.539 135.784 137.915C135.784 137.318 135.98 136.824 136.372 136.432C136.755 136.04 137.329 135.835 138.095 135.816H140.07V135.071C140.079 134.447 139.594 134.144 138.614 134.162C138.277 134.162 137.997 134.199 137.773 134.271C137.559 134.358 137.391 134.504 137.268 134.709L136.146 133.854C136.689 133.144 137.489 132.797 138.546 132.815C139.439 132.806 140.152 132.975 140.686 133.321C141.21 133.668 141.481 134.278 141.499 135.153V140H140.07V139.371H140.043C139.911 139.613 139.706 139.79 139.428 139.904C139.173 140.023 138.794 140.082 138.293 140.082ZM138.471 138.742C139.072 138.76 139.494 138.69 139.735 138.53C139.959 138.38 140.07 138.038 140.07 137.505V136.992H138.361C137.523 137.01 137.113 137.295 137.131 137.847C137.131 138.088 137.238 138.293 137.452 138.462C137.666 138.649 138.006 138.742 138.471 138.742ZM142.504 138.653H143.317C143.44 138.348 143.55 138.029 143.646 137.696C143.746 137.364 143.826 136.979 143.885 136.541C143.944 136.104 143.99 135.591 144.021 135.003C144.058 134.415 144.076 133.715 144.076 132.904H148.861V138.653H149.839V141.818H148.499V140H143.851V141.818H142.504V138.653ZM147.433 138.653V134.244H145.43C145.43 134.823 145.414 135.333 145.382 135.775C145.35 136.213 145.304 136.607 145.245 136.958C145.19 137.304 145.124 137.617 145.047 137.895C144.969 138.168 144.887 138.421 144.801 138.653H147.433ZM153.667 140.082C153.284 140.082 152.92 140.027 152.573 139.918C152.414 139.868 152.241 139.788 152.054 139.679C151.885 139.606 151.719 139.499 151.555 139.357C151.245 139.075 151.001 138.706 150.823 138.25C150.618 137.803 150.516 137.211 150.516 136.473C150.516 135.753 150.604 135.169 150.782 134.723C150.969 134.226 151.197 133.852 151.466 133.602C151.739 133.333 152.056 133.132 152.416 133C152.753 132.877 153.095 132.815 153.441 132.815C154.253 132.834 154.938 133.1 155.499 133.615C156.06 134.139 156.349 134.873 156.367 135.816V136.992H151.944C151.944 137.562 152.108 137.995 152.437 138.291C152.751 138.592 153.152 138.742 153.64 138.742C154.218 138.742 154.736 138.512 155.191 138.052L156.23 138.934C155.492 139.708 154.638 140.091 153.667 140.082ZM154.938 135.816C154.92 135.274 154.772 134.857 154.494 134.565C154.221 134.297 153.87 134.162 153.441 134.162C153.013 134.162 152.662 134.297 152.389 134.565C152.12 134.857 151.972 135.274 151.944 135.816H154.938ZM153.94 131.797H155.458V130.286H153.94V131.797ZM151.479 131.797H152.99V130.286H151.479V131.797ZM157.153 138.681H157.461C157.589 138.681 157.693 138.672 157.775 138.653C157.862 138.635 157.933 138.605 157.987 138.564C158.047 138.523 158.097 138.466 158.138 138.394C158.179 138.316 158.224 138.216 158.274 138.093L158.596 137.225C158.696 136.965 158.821 136.76 158.972 136.609C159.122 136.454 159.318 136.338 159.56 136.261C159.4 136.206 159.252 136.119 159.115 136.001C158.983 135.878 158.878 135.709 158.801 135.495L158.568 134.791C158.518 134.659 158.473 134.554 158.432 134.477C158.391 134.399 158.338 134.34 158.274 134.299C158.215 134.253 158.14 134.224 158.049 134.21C157.962 134.196 157.851 134.189 157.714 134.189H157.488V132.904H157.98C158.436 132.904 158.794 132.998 159.054 133.185C159.318 133.371 159.528 133.679 159.683 134.107L160.024 135.058C160.097 135.254 160.22 135.413 160.394 135.536C160.567 135.655 160.774 135.714 161.016 135.714H161.405V132.904H162.834V135.714H163.217C163.467 135.714 163.679 135.655 163.853 135.536C164.026 135.413 164.149 135.254 164.222 135.058L164.557 134.107C164.716 133.679 164.924 133.371 165.179 133.185C165.438 132.998 165.801 132.904 166.266 132.904H166.744V134.189H166.532C166.391 134.189 166.272 134.196 166.177 134.21C166.086 134.224 166.013 134.253 165.958 134.299C165.903 134.34 165.853 134.399 165.808 134.477C165.767 134.554 165.723 134.659 165.678 134.791L165.425 135.495C165.352 135.709 165.247 135.878 165.11 136.001C164.974 136.119 164.826 136.206 164.666 136.261C164.912 136.338 165.108 136.454 165.254 136.609C165.404 136.76 165.532 136.965 165.637 137.225L165.972 138.093C166.017 138.216 166.061 138.316 166.102 138.394C166.147 138.466 166.197 138.523 166.252 138.564C166.307 138.605 166.373 138.635 166.45 138.653C166.532 138.672 166.639 138.681 166.771 138.681H167.093V140H166.573C166.323 140 166.102 139.977 165.91 139.932C165.719 139.886 165.552 139.815 165.411 139.72C165.27 139.619 165.145 139.487 165.035 139.323C164.93 139.159 164.832 138.961 164.741 138.729L164.345 137.717C164.281 137.548 164.201 137.421 164.105 137.334C164.014 137.243 163.914 137.174 163.805 137.129C163.7 137.083 163.59 137.056 163.477 137.047C163.367 137.038 163.256 137.033 163.142 137.033H162.834V140H161.405V137.033H161.098C160.988 137.033 160.874 137.038 160.756 137.047C160.637 137.056 160.523 137.083 160.414 137.129C160.309 137.174 160.209 137.243 160.113 137.334C160.022 137.421 159.945 137.548 159.881 137.717L159.505 138.729C159.409 138.961 159.307 139.159 159.197 139.323C159.092 139.487 158.967 139.619 158.821 139.72C158.68 139.815 158.516 139.886 158.329 139.932C158.142 139.977 157.921 140 157.666 140H157.153V138.681ZM168.228 132.904H169.656V135.673H172.473V132.904H173.901V140H172.473V137.02H169.656V140H168.228V132.904ZM178.324 140.082C177.8 140.082 177.356 139.979 176.991 139.774C176.631 139.588 176.358 139.387 176.171 139.173C175.897 138.877 175.701 138.537 175.583 138.154C175.46 137.781 175.398 137.211 175.398 136.445C175.398 135.689 175.46 135.115 175.583 134.723C175.711 134.322 175.907 133.989 176.171 133.725C176.367 133.492 176.64 133.283 176.991 133.096C177.347 132.909 177.791 132.815 178.324 132.815C178.876 132.815 179.329 132.909 179.685 133.096C180.026 133.283 180.291 133.492 180.478 133.725C180.751 133.989 180.951 134.322 181.079 134.723C181.193 135.133 181.25 135.707 181.25 136.445C181.25 137.193 181.193 137.762 181.079 138.154C180.951 138.546 180.751 138.886 180.478 139.173C180.432 139.218 180.382 139.271 180.327 139.33C180.272 139.385 180.211 139.435 180.143 139.48C180.015 139.594 179.862 139.692 179.685 139.774C179.32 139.979 178.867 140.082 178.324 140.082ZM178.324 138.653C178.575 138.653 178.803 138.603 179.008 138.503C179.213 138.407 179.368 138.286 179.473 138.141C179.623 137.945 179.716 137.74 179.753 137.525C179.771 137.411 179.787 137.266 179.801 137.088C179.814 136.91 179.821 136.701 179.821 136.459C179.821 136.208 179.814 135.992 179.801 135.81C179.787 135.627 179.771 135.475 179.753 135.352C179.716 135.137 179.623 134.941 179.473 134.764C179.368 134.613 179.213 134.488 179.008 134.388C178.821 134.292 178.593 134.244 178.324 134.244C178.074 134.244 177.85 134.292 177.654 134.388C177.467 134.479 177.308 134.604 177.176 134.764C177.053 134.923 176.964 135.119 176.909 135.352C176.854 135.593 176.827 135.958 176.827 136.445C176.827 136.938 176.854 137.298 176.909 137.525C176.964 137.758 177.053 137.963 177.176 138.141C177.317 138.286 177.477 138.407 177.654 138.503C177.878 138.603 178.101 138.653 178.324 138.653ZM185.974 141.524H186.391C186.577 141.524 186.751 141.474 186.91 141.374C187.061 141.278 187.172 141.123 187.245 140.909L187.635 139.72L185.092 132.904H186.603L188.284 137.874H188.312L189.986 132.904H191.504L188.448 141.47C188.252 142.003 187.981 142.372 187.635 142.577C187.284 142.773 186.887 142.871 186.445 142.871H185.974V141.524ZM192.331 132.904H198.005V140H196.576V134.244H193.76V140H192.331V132.904ZM201.799 140.082C201.015 140.073 200.404 139.863 199.967 139.453C199.516 139.052 199.29 138.539 199.29 137.915C199.29 137.318 199.486 136.824 199.878 136.432C200.261 136.04 200.835 135.835 201.601 135.816H203.576V135.071C203.585 134.447 203.1 134.144 202.12 134.162C201.783 134.162 201.503 134.199 201.279 134.271C201.065 134.358 200.896 134.504 200.773 134.709L199.652 133.854C200.195 133.144 200.994 132.797 202.052 132.815C202.945 132.806 203.658 132.975 204.191 133.321C204.715 133.668 204.987 134.278 205.005 135.153V140H203.576V139.371H203.549C203.417 139.613 203.212 139.79 202.934 139.904C202.678 140.023 202.3 140.082 201.799 140.082ZM201.977 138.742C202.578 138.76 203 138.69 203.241 138.53C203.465 138.38 203.576 138.038 203.576 137.505V136.992H201.867C201.029 137.01 200.618 137.295 200.637 137.847C200.637 138.088 200.744 138.293 200.958 138.462C201.172 138.649 201.512 138.742 201.977 138.742ZM206.851 132.904H208.279V135.687H208.949C209.204 135.687 209.416 135.632 209.585 135.522C209.758 135.409 209.883 135.254 209.961 135.058L210.296 134.107C210.446 133.679 210.651 133.371 210.911 133.185C211.171 132.998 211.535 132.904 212.005 132.904H212.477V134.189H212.271C212.13 134.189 212.012 134.196 211.916 134.21C211.825 134.224 211.747 134.253 211.684 134.299C211.624 134.34 211.574 134.399 211.533 134.477C211.492 134.554 211.449 134.659 211.403 134.791L211.164 135.495C211.091 135.709 210.986 135.878 210.85 136.001C210.713 136.119 210.565 136.206 210.405 136.261C210.651 136.338 210.847 136.454 210.993 136.609C211.144 136.76 211.271 136.965 211.376 137.225L211.711 138.093C211.757 138.216 211.8 138.316 211.841 138.394C211.882 138.466 211.93 138.523 211.984 138.564C212.044 138.605 212.112 138.635 212.189 138.653C212.271 138.672 212.379 138.681 212.511 138.681H212.832V140H212.312C211.798 140 211.403 139.904 211.13 139.713C210.861 139.521 210.64 139.193 210.467 138.729L210.07 137.717C210.007 137.548 209.927 137.421 209.831 137.334C209.74 137.243 209.64 137.174 209.53 137.129C209.425 137.083 209.316 137.056 209.202 137.047C209.093 137.038 208.981 137.033 208.867 137.033H208.279V140H206.851V132.904ZM216.537 140.082C216.013 140.082 215.569 139.979 215.204 139.774C214.844 139.588 214.571 139.387 214.384 139.173C214.11 138.877 213.914 138.537 213.796 138.154C213.673 137.781 213.611 137.211 213.611 136.445C213.611 135.689 213.673 135.115 213.796 134.723C213.924 134.322 214.119 133.989 214.384 133.725C214.58 133.492 214.853 133.283 215.204 133.096C215.56 132.909 216.004 132.815 216.537 132.815C217.089 132.815 217.542 132.909 217.897 133.096C218.239 133.283 218.504 133.492 218.69 133.725C218.964 133.989 219.164 134.322 219.292 134.723C219.406 135.133 219.463 135.707 219.463 136.445C219.463 137.193 219.406 137.762 219.292 138.154C219.164 138.546 218.964 138.886 218.69 139.173C218.645 139.218 218.595 139.271 218.54 139.33C218.485 139.385 218.424 139.435 218.355 139.48C218.228 139.594 218.075 139.692 217.897 139.774C217.533 139.979 217.079 140.082 216.537 140.082ZM216.537 138.653C216.788 138.653 217.016 138.603 217.221 138.503C217.426 138.407 217.581 138.286 217.686 138.141C217.836 137.945 217.929 137.74 217.966 137.525C217.984 137.411 218 137.266 218.014 137.088C218.027 136.91 218.034 136.701 218.034 136.459C218.034 136.208 218.027 135.992 218.014 135.81C218 135.627 217.984 135.475 217.966 135.352C217.929 135.137 217.836 134.941 217.686 134.764C217.581 134.613 217.426 134.488 217.221 134.388C217.034 134.292 216.806 134.244 216.537 134.244C216.286 134.244 216.063 134.292 215.867 134.388C215.68 134.479 215.521 134.604 215.389 134.764C215.266 134.923 215.177 135.119 215.122 135.352C215.067 135.593 215.04 135.958 215.04 136.445C215.04 136.938 215.067 137.298 215.122 137.525C215.177 137.758 215.266 137.963 215.389 138.141C215.53 138.286 215.689 138.407 215.867 138.503C216.09 138.603 216.314 138.653 216.537 138.653ZM220.96 132.904H224.364C225.016 132.904 225.535 133.077 225.923 133.424C226.31 133.766 226.504 134.226 226.504 134.805C226.504 135.516 226.174 136.024 225.513 136.329C225.868 136.489 226.142 136.705 226.333 136.979C226.524 137.247 226.62 137.587 226.62 137.997C226.62 138.612 226.431 139.1 226.053 139.46C225.674 139.82 225.148 140 224.474 140H220.96V132.904ZM224.193 138.811C224.512 138.811 224.763 138.724 224.945 138.551C225.128 138.378 225.219 138.147 225.219 137.86C225.219 137.56 225.128 137.327 224.945 137.163C224.763 136.999 224.512 136.917 224.193 136.917H222.389V138.811H224.193ZM224.098 135.816C224.768 135.816 225.103 135.522 225.103 134.935C225.103 134.661 225.016 134.454 224.843 134.312C224.674 134.167 224.426 134.094 224.098 134.094H222.389V135.816H224.098ZM228.124 132.904H229.553V135.577H231.426C232.118 135.577 232.674 135.78 233.094 136.186C233.513 136.591 233.723 137.124 233.723 137.785C233.723 138.451 233.513 138.986 233.094 139.392C232.674 139.797 232.118 140 231.426 140H228.124V132.904ZM231.275 138.742C231.604 138.742 231.859 138.656 232.041 138.482C232.223 138.309 232.314 138.068 232.314 137.758C232.314 137.462 232.223 137.227 232.041 137.054C231.859 136.881 231.604 136.794 231.275 136.794H229.553V138.742H231.275ZM234.707 132.904H236.136V140H234.707V132.904ZM237.981 132.904H241.386C242.037 132.904 242.557 133.077 242.944 133.424C243.332 133.766 243.525 134.226 243.525 134.805C243.525 135.516 243.195 136.024 242.534 136.329C242.89 136.489 243.163 136.705 243.354 136.979C243.546 137.247 243.642 137.587 243.642 137.997C243.642 138.612 243.452 139.1 243.074 139.46C242.696 139.82 242.17 140 241.495 140H237.981V132.904ZM241.215 138.811C241.534 138.811 241.785 138.724 241.967 138.551C242.149 138.378 242.24 138.147 242.24 137.86C242.24 137.56 242.149 137.327 241.967 137.163C241.785 136.999 241.534 136.917 241.215 136.917H239.41V138.811H241.215ZM241.119 135.816C241.789 135.816 242.124 135.522 242.124 134.935C242.124 134.661 242.037 134.454 241.864 134.312C241.696 134.167 241.447 134.094 241.119 134.094H239.41V135.816H241.119ZM247.094 140.082C246.31 140.073 245.699 139.863 245.262 139.453C244.811 139.052 244.585 138.539 244.585 137.915C244.585 137.318 244.781 136.824 245.173 136.432C245.556 136.04 246.13 135.835 246.896 135.816H248.871V135.071C248.88 134.447 248.395 134.144 247.415 134.162C247.078 134.162 246.798 134.199 246.574 134.271C246.36 134.358 246.191 134.504 246.068 134.709L244.947 133.854C245.49 133.144 246.289 132.797 247.347 132.815C248.24 132.806 248.953 132.975 249.486 133.321C250.01 133.668 250.282 134.278 250.3 135.153V140H248.871V139.371H248.844C248.712 139.613 248.507 139.79 248.229 139.904C247.973 140.023 247.595 140.082 247.094 140.082ZM247.271 138.742C247.873 138.76 248.295 138.69 248.536 138.53C248.759 138.38 248.871 138.038 248.871 137.505V136.992H247.162C246.324 137.01 245.913 137.295 245.932 137.847C245.932 138.088 246.039 138.293 246.253 138.462C246.467 138.649 246.807 138.742 247.271 138.742ZM254.948 140.082C254.565 140.082 254.201 140.027 253.854 139.918C253.695 139.868 253.522 139.788 253.335 139.679C253.166 139.606 253 139.499 252.836 139.357C252.526 139.075 252.282 138.706 252.104 138.25C251.899 137.803 251.797 137.211 251.797 136.473C251.797 135.753 251.886 135.169 252.063 134.723C252.25 134.226 252.478 133.852 252.747 133.602C253.021 133.333 253.337 133.132 253.697 133C254.035 132.877 254.376 132.815 254.723 132.815C255.534 132.834 256.22 133.1 256.78 133.615C257.341 134.139 257.63 134.873 257.648 135.816V136.992H253.226C253.226 137.562 253.39 137.995 253.718 138.291C254.032 138.592 254.433 138.742 254.921 138.742C255.5 138.742 256.017 138.512 256.473 138.052L257.512 138.934C256.773 139.708 255.919 140.091 254.948 140.082ZM256.22 135.816C256.201 135.274 256.053 134.857 255.775 134.565C255.502 134.297 255.151 134.162 254.723 134.162C254.294 134.162 253.943 134.297 253.67 134.565C253.401 134.857 253.253 135.274 253.226 135.816H256.22ZM259.146 132.904H260.561L262.687 137.129L264.806 132.904H266.2V140H264.771V135.447L263.138 138.701H262.242L260.574 135.447V140H259.146V132.904ZM22.9229 150.904H24.3379L26.4639 155.129L28.583 150.904H29.9775V158H28.5488V153.447L26.915 156.701H26.0195L24.3516 153.447V158H22.9229V150.904ZM31.2354 156.653H31.5566C31.7526 156.653 31.9076 156.628 32.0215 156.578C32.14 156.528 32.2334 156.428 32.3018 156.277L32.5684 155.662C32.6139 155.53 32.6686 155.416 32.7324 155.32C32.8008 155.22 32.8988 155.129 33.0264 155.047C32.5798 154.969 32.2243 154.751 31.96 154.391C31.7002 154.026 31.5703 153.577 31.5703 153.044C31.5703 152.374 31.7777 151.85 32.1924 151.472C32.6117 151.093 33.1745 150.904 33.8809 150.904H37.1279V158H35.6992V155.272H35.125C34.7832 155.272 34.5303 155.325 34.3662 155.43C34.2021 155.53 34.054 155.737 33.9219 156.052L33.6006 156.838C33.5186 157.052 33.4251 157.232 33.3203 157.378C33.2201 157.524 33.1038 157.645 32.9717 157.74C32.8395 157.831 32.6823 157.897 32.5 157.938C32.3223 157.979 32.1104 158 31.8643 158H31.2354V156.653ZM35.6992 154.097V152.189H34.0381C33.6826 152.189 33.416 152.276 33.2383 152.449C33.0605 152.622 32.9717 152.857 32.9717 153.153C32.9717 153.782 33.3271 154.097 34.0381 154.097H35.6992ZM41.6465 158.082C40.7988 158.082 40.0628 157.797 39.4385 157.228C38.7731 156.658 38.4359 155.735 38.4268 154.459C38.445 153.16 38.7822 152.226 39.4385 151.656C40.0719 151.077 40.8079 150.797 41.6465 150.815C42.1979 150.834 42.6833 150.948 43.1025 151.157C43.5355 151.381 43.9001 151.679 44.1963 152.053L43.1436 152.989C42.7835 152.502 42.305 152.253 41.708 152.244C40.4821 152.226 39.8646 152.964 39.8555 154.459C39.8646 155.94 40.4821 156.672 41.708 156.653C42.3141 156.635 42.7926 156.389 43.1436 155.915L44.1963 156.852C43.8773 157.207 43.5127 157.496 43.1025 157.72C42.6742 157.961 42.1888 158.082 41.6465 158.082ZM47.7715 158.082C47.2474 158.082 46.8031 157.979 46.4385 157.774C46.0785 157.588 45.805 157.387 45.6182 157.173C45.3447 156.877 45.1488 156.537 45.0303 156.154C44.9072 155.781 44.8457 155.211 44.8457 154.445C44.8457 153.689 44.9072 153.115 45.0303 152.723C45.1579 152.322 45.3538 151.989 45.6182 151.725C45.8141 151.492 46.0876 151.283 46.4385 151.096C46.7939 150.909 47.2383 150.815 47.7715 150.815C48.3229 150.815 48.7764 150.909 49.1318 151.096C49.4736 151.283 49.738 151.492 49.9248 151.725C50.1982 151.989 50.3988 152.322 50.5264 152.723C50.6403 153.133 50.6973 153.707 50.6973 154.445C50.6973 155.193 50.6403 155.762 50.5264 156.154C50.3988 156.546 50.1982 156.886 49.9248 157.173C49.8792 157.218 49.8291 157.271 49.7744 157.33C49.7197 157.385 49.6582 157.435 49.5898 157.48C49.4622 157.594 49.3096 157.692 49.1318 157.774C48.7673 157.979 48.3138 158.082 47.7715 158.082ZM47.7715 156.653C48.0221 156.653 48.25 156.603 48.4551 156.503C48.6602 156.407 48.8151 156.286 48.9199 156.141C49.0703 155.945 49.1637 155.74 49.2002 155.525C49.2184 155.411 49.2344 155.266 49.248 155.088C49.2617 154.91 49.2686 154.701 49.2686 154.459C49.2686 154.208 49.2617 153.992 49.248 153.81C49.2344 153.627 49.2184 153.475 49.2002 153.352C49.1637 153.137 49.0703 152.941 48.9199 152.764C48.8151 152.613 48.6602 152.488 48.4551 152.388C48.2682 152.292 48.0404 152.244 47.7715 152.244C47.5208 152.244 47.2975 152.292 47.1016 152.388C46.9147 152.479 46.7552 152.604 46.623 152.764C46.5 152.923 46.4111 153.119 46.3564 153.352C46.3018 153.593 46.2744 153.958 46.2744 154.445C46.2744 154.938 46.3018 155.298 46.3564 155.525C46.4111 155.758 46.5 155.963 46.623 156.141C46.7643 156.286 46.9238 156.407 47.1016 156.503C47.3249 156.603 47.5482 156.653 47.7715 156.653ZM55.5576 150.904H56.9863V155.717L60.0693 150.904H61.498V158H60.0693V153.112L56.9863 158H55.5576V150.904ZM69.5439 158.082C68.8239 158.082 68.2383 157.916 67.7871 157.583C67.3359 157.246 67.0169 156.797 66.8301 156.236C66.7708 156.077 66.7275 155.895 66.7002 155.689C66.6729 155.484 66.6501 155.27 66.6318 155.047C66.6136 154.824 66.6022 154.6 66.5977 154.377C66.5931 154.149 66.5908 153.937 66.5908 153.741V153.201C66.5908 152.818 66.5977 152.447 66.6113 152.087C66.625 151.727 66.666 151.385 66.7344 151.062C66.8073 150.733 66.9121 150.43 67.0488 150.152C67.1901 149.87 67.3815 149.615 67.623 149.387C67.819 149.214 68.0264 149.072 68.2451 148.963C68.4684 148.854 68.6986 148.769 68.9355 148.71C69.1725 148.651 69.4118 148.605 69.6533 148.573C69.8949 148.541 70.1341 148.509 70.3711 148.478C70.5169 148.459 70.6354 148.416 70.7266 148.348C70.8223 148.279 70.8815 148.174 70.9043 148.033H72.3604C72.2829 149.068 71.8021 149.656 70.918 149.797C70.6901 149.833 70.4645 149.863 70.2412 149.886C70.0179 149.909 69.7969 149.943 69.5781 149.988C69.3594 150.029 69.152 150.091 68.9561 150.173C68.7601 150.25 68.5778 150.362 68.4092 150.508C68.195 150.704 68.0378 150.938 67.9375 151.212C67.8418 151.481 67.7894 151.731 67.7803 151.964H67.8213C67.9808 151.686 68.2383 151.449 68.5938 151.253C68.9538 151.057 69.373 150.959 69.8516 150.959C70.7858 150.959 71.4603 151.264 71.875 151.875C72.2897 152.486 72.4971 153.356 72.4971 154.486C72.4971 155.102 72.4401 155.628 72.3262 156.065C72.2168 156.498 72.0299 156.872 71.7656 157.187C71.5241 157.478 71.2165 157.701 70.8428 157.856C70.4691 158.007 70.0361 158.082 69.5439 158.082ZM69.5303 156.667C69.7718 156.667 69.9906 156.624 70.1865 156.537C70.3825 156.451 70.5465 156.327 70.6787 156.168C70.8382 155.981 70.943 155.756 70.9932 155.491C71.0433 155.222 71.0684 154.896 71.0684 154.514C71.0684 154.122 71.0433 153.787 70.9932 153.509C70.943 153.226 70.8382 152.992 70.6787 152.805C70.5465 152.654 70.3825 152.538 70.1865 152.456C69.9906 152.374 69.7718 152.333 69.5303 152.333C69.2887 152.333 69.07 152.376 68.874 152.463C68.6781 152.549 68.5186 152.673 68.3955 152.832C68.236 153.019 68.1335 153.254 68.0879 153.536C68.0423 153.814 68.0195 154.149 68.0195 154.541C68.0195 154.988 68.056 155.343 68.1289 155.607C68.2018 155.867 68.318 156.081 68.4775 156.25C68.6097 156.382 68.7669 156.485 68.9492 156.558C69.1315 156.631 69.3252 156.667 69.5303 156.667ZM74.001 150.904H75.4297V153.577H77.3027C77.9954 153.577 78.5514 153.78 78.9707 154.186C79.39 154.591 79.5996 155.124 79.5996 155.785C79.5996 156.451 79.39 156.986 78.9707 157.392C78.5514 157.797 77.9954 158 77.3027 158H74.001V150.904ZM77.1523 156.742C77.4805 156.742 77.7357 156.656 77.918 156.482C78.1003 156.309 78.1914 156.068 78.1914 155.758C78.1914 155.462 78.1003 155.227 77.918 155.054C77.7357 154.881 77.4805 154.794 77.1523 154.794H75.4297V156.742H77.1523ZM80.584 150.904H82.0127V158H80.584V150.904ZM86.5312 158.082C85.6836 158.082 84.9476 157.797 84.3232 157.228C83.6579 156.658 83.3206 155.735 83.3115 154.459C83.3298 153.16 83.667 152.226 84.3232 151.656C84.9567 151.077 85.6927 150.797 86.5312 150.815C87.0827 150.834 87.568 150.948 87.9873 151.157C88.4202 151.381 88.7848 151.679 89.0811 152.053L88.0283 152.989C87.6683 152.502 87.1898 152.253 86.5928 152.244C85.3669 152.226 84.7493 152.964 84.7402 154.459C84.7493 155.94 85.3669 156.672 86.5928 156.653C87.1989 156.635 87.6774 156.389 88.0283 155.915L89.0811 156.852C88.762 157.207 88.3975 157.496 87.9873 157.72C87.5589 157.961 87.0736 158.082 86.5312 158.082ZM91.4941 152.244H89.3135V150.904H95.0215V152.244H92.9229V158H91.4941V152.244ZM96.1084 150.904H97.5371V151.643C98.0156 151.109 98.6263 150.834 99.3691 150.815C100.23 150.825 100.866 151.134 101.276 151.745C101.481 151.978 101.616 152.271 101.68 152.627C101.716 152.814 101.741 153.06 101.755 153.365C101.773 153.666 101.782 154.031 101.782 154.459C101.782 154.878 101.773 155.238 101.755 155.539C101.741 155.835 101.716 156.077 101.68 156.264C101.616 156.619 101.481 156.918 101.276 157.159C101.071 157.442 100.814 157.66 100.504 157.815C100.199 157.975 99.8203 158.064 99.3691 158.082C99.0182 158.082 98.6924 158.002 98.3916 157.843C98.0817 157.688 97.7969 157.487 97.5371 157.241V160.871H96.1084V150.904ZM98.9385 156.653C99.2666 156.653 99.5332 156.59 99.7383 156.462C99.9342 156.339 100.073 156.17 100.155 155.956C100.251 155.76 100.312 155.523 100.34 155.245C100.349 155.113 100.354 154.983 100.354 154.855C100.354 154.723 100.354 154.591 100.354 154.459C100.354 154.318 100.354 154.179 100.354 154.042C100.354 153.901 100.349 153.764 100.34 153.632C100.312 153.354 100.251 153.117 100.155 152.921C100.073 152.716 99.9342 152.547 99.7383 152.415C99.5423 152.301 99.2757 152.244 98.9385 152.244C98.6195 152.244 98.3665 152.31 98.1797 152.442C97.9928 152.565 97.8493 152.739 97.749 152.962C97.6624 153.167 97.6055 153.399 97.5781 153.659C97.5508 153.933 97.5371 154.199 97.5371 154.459C97.5371 154.71 97.5508 154.96 97.5781 155.211C97.6055 155.484 97.6624 155.724 97.749 155.929C97.8493 156.152 97.9928 156.325 98.1797 156.448C98.3574 156.585 98.6104 156.653 98.9385 156.653ZM105.959 158.082C105.435 158.082 104.991 157.979 104.626 157.774C104.266 157.588 103.993 157.387 103.806 157.173C103.532 156.877 103.336 156.537 103.218 156.154C103.095 155.781 103.033 155.211 103.033 154.445C103.033 153.689 103.095 153.115 103.218 152.723C103.345 152.322 103.541 151.989 103.806 151.725C104.002 151.492 104.275 151.283 104.626 151.096C104.981 150.909 105.426 150.815 105.959 150.815C106.51 150.815 106.964 150.909 107.319 151.096C107.661 151.283 107.925 151.492 108.112 151.725C108.386 151.989 108.586 152.322 108.714 152.723C108.828 153.133 108.885 153.707 108.885 154.445C108.885 155.193 108.828 155.762 108.714 156.154C108.586 156.546 108.386 156.886 108.112 157.173C108.067 157.218 108.017 157.271 107.962 157.33C107.907 157.385 107.846 157.435 107.777 157.48C107.65 157.594 107.497 157.692 107.319 157.774C106.955 157.979 106.501 158.082 105.959 158.082ZM105.959 156.653C106.21 156.653 106.438 156.603 106.643 156.503C106.848 156.407 107.003 156.286 107.107 156.141C107.258 155.945 107.351 155.74 107.388 155.525C107.406 155.411 107.422 155.266 107.436 155.088C107.449 154.91 107.456 154.701 107.456 154.459C107.456 154.208 107.449 153.992 107.436 153.81C107.422 153.627 107.406 153.475 107.388 153.352C107.351 153.137 107.258 152.941 107.107 152.764C107.003 152.613 106.848 152.488 106.643 152.388C106.456 152.292 106.228 152.244 105.959 152.244C105.708 152.244 105.485 152.292 105.289 152.388C105.102 152.479 104.943 152.604 104.811 152.764C104.688 152.923 104.599 153.119 104.544 153.352C104.489 153.593 104.462 153.958 104.462 154.445C104.462 154.938 104.489 155.298 104.544 155.525C104.599 155.758 104.688 155.963 104.811 156.141C104.952 156.286 105.111 156.407 105.289 156.503C105.512 156.603 105.736 156.653 105.959 156.653ZM112.904 156.653H113.718C113.841 156.348 113.95 156.029 114.046 155.696C114.146 155.364 114.226 154.979 114.285 154.541C114.344 154.104 114.39 153.591 114.422 153.003C114.458 152.415 114.477 151.715 114.477 150.904H119.262V156.653H120.239V159.818H118.899V158H114.251V159.818H112.904V156.653ZM117.833 156.653V152.244H115.83C115.83 152.823 115.814 153.333 115.782 153.775C115.75 154.213 115.705 154.607 115.646 154.958C115.591 155.304 115.525 155.617 115.447 155.895C115.37 156.168 115.288 156.421 115.201 156.653H117.833ZM123.842 158.082C123.318 158.082 122.873 157.979 122.509 157.774C122.149 157.588 121.875 157.387 121.688 157.173C121.415 156.877 121.219 156.537 121.101 156.154C120.978 155.781 120.916 155.211 120.916 154.445C120.916 153.689 120.978 153.115 121.101 152.723C121.228 152.322 121.424 151.989 121.688 151.725C121.884 151.492 122.158 151.283 122.509 151.096C122.864 150.909 123.309 150.815 123.842 150.815C124.393 150.815 124.847 150.909 125.202 151.096C125.544 151.283 125.808 151.492 125.995 151.725C126.269 151.989 126.469 152.322 126.597 152.723C126.711 153.133 126.768 153.707 126.768 154.445C126.768 155.193 126.711 155.762 126.597 156.154C126.469 156.546 126.269 156.886 125.995 157.173C125.95 157.218 125.899 157.271 125.845 157.33C125.79 157.385 125.729 157.435 125.66 157.48C125.533 157.594 125.38 157.692 125.202 157.774C124.838 157.979 124.384 158.082 123.842 158.082ZM123.842 156.653C124.092 156.653 124.32 156.603 124.525 156.503C124.73 156.407 124.885 156.286 124.99 156.141C125.141 155.945 125.234 155.74 125.271 155.525C125.289 155.411 125.305 155.266 125.318 155.088C125.332 154.91 125.339 154.701 125.339 154.459C125.339 154.208 125.332 153.992 125.318 153.81C125.305 153.627 125.289 153.475 125.271 153.352C125.234 153.137 125.141 152.941 124.99 152.764C124.885 152.613 124.73 152.488 124.525 152.388C124.339 152.292 124.111 152.244 123.842 152.244C123.591 152.244 123.368 152.292 123.172 152.388C122.985 152.479 122.826 152.604 122.693 152.764C122.57 152.923 122.481 153.119 122.427 153.352C122.372 153.593 122.345 153.958 122.345 154.445C122.345 154.938 122.372 155.298 122.427 155.525C122.481 155.758 122.57 155.963 122.693 156.141C122.835 156.286 122.994 156.407 123.172 156.503C123.395 156.603 123.618 156.653 123.842 156.653ZM130.938 158.082C130.09 158.082 129.354 157.797 128.729 157.228C128.064 156.658 127.727 155.735 127.718 154.459C127.736 153.16 128.073 152.226 128.729 151.656C129.363 151.077 130.099 150.797 130.938 150.815C131.489 150.834 131.974 150.948 132.394 151.157C132.826 151.381 133.191 151.679 133.487 152.053L132.435 152.989C132.075 152.502 131.596 152.253 130.999 152.244C129.773 152.226 129.156 152.964 129.146 154.459C129.156 155.94 129.773 156.672 130.999 156.653C131.605 156.635 132.084 156.389 132.435 155.915L133.487 156.852C133.168 157.207 132.804 157.496 132.394 157.72C131.965 157.961 131.48 158.082 130.938 158.082ZM135.9 152.244H133.72V150.904H139.428V152.244H137.329V158H135.9V152.244ZM142.463 158.082C141.679 158.073 141.068 157.863 140.631 157.453C140.18 157.052 139.954 156.539 139.954 155.915C139.954 155.318 140.15 154.824 140.542 154.432C140.925 154.04 141.499 153.835 142.265 153.816H144.24V153.071C144.249 152.447 143.764 152.144 142.784 152.162C142.447 152.162 142.167 152.199 141.943 152.271C141.729 152.358 141.561 152.504 141.438 152.709L140.316 151.854C140.859 151.144 141.659 150.797 142.716 150.815C143.609 150.806 144.322 150.975 144.855 151.321C145.38 151.668 145.651 152.278 145.669 153.153V158H144.24V157.371H144.213C144.081 157.613 143.876 157.79 143.598 157.904C143.342 158.023 142.964 158.082 142.463 158.082ZM142.641 156.742C143.242 156.76 143.664 156.69 143.905 156.53C144.129 156.38 144.24 156.038 144.24 155.505V154.992H142.531C141.693 155.01 141.283 155.295 141.301 155.847C141.301 156.088 141.408 156.293 141.622 156.462C141.836 156.649 142.176 156.742 142.641 156.742ZM147.515 150.904H150.919C151.571 150.904 152.09 151.077 152.478 151.424C152.865 151.766 153.059 152.226 153.059 152.805C153.059 153.516 152.728 154.024 152.067 154.329C152.423 154.489 152.696 154.705 152.888 154.979C153.079 155.247 153.175 155.587 153.175 155.997C153.175 156.612 152.986 157.1 152.607 157.46C152.229 157.82 151.703 158 151.028 158H147.515V150.904ZM150.748 156.811C151.067 156.811 151.318 156.724 151.5 156.551C151.682 156.378 151.773 156.147 151.773 155.86C151.773 155.56 151.682 155.327 151.5 155.163C151.318 154.999 151.067 154.917 150.748 154.917H148.943V156.811H150.748ZM150.652 153.816C151.322 153.816 151.657 153.522 151.657 152.935C151.657 152.661 151.571 152.454 151.397 152.312C151.229 152.167 150.98 152.094 150.652 152.094H148.943V153.816H150.652ZM153.838 156.653H154.063C154.214 156.653 154.353 156.642 154.48 156.619C154.613 156.596 154.731 156.528 154.836 156.414C154.945 156.296 155.039 156.118 155.116 155.881C155.198 155.644 155.267 155.313 155.321 154.89C155.381 154.461 155.424 153.924 155.451 153.276C155.479 152.625 155.492 151.834 155.492 150.904H160.291V158H158.869V152.244H156.853C156.853 153.105 156.827 153.846 156.777 154.466C156.732 155.086 156.663 155.607 156.572 156.031C156.486 156.455 156.372 156.799 156.23 157.063C156.094 157.323 155.934 157.521 155.752 157.658C155.57 157.795 155.365 157.886 155.137 157.932C154.909 157.977 154.658 158 154.385 158H153.838V156.653ZM161.556 156.653H161.877C162.073 156.653 162.228 156.628 162.342 156.578C162.46 156.528 162.554 156.428 162.622 156.277L162.889 155.662C162.934 155.53 162.989 155.416 163.053 155.32C163.121 155.22 163.219 155.129 163.347 155.047C162.9 154.969 162.545 154.751 162.28 154.391C162.021 154.026 161.891 153.577 161.891 153.044C161.891 152.374 162.098 151.85 162.513 151.472C162.932 151.093 163.495 150.904 164.201 150.904H167.448V158H166.02V155.272H165.445C165.104 155.272 164.851 155.325 164.687 155.43C164.522 155.53 164.374 155.737 164.242 156.052L163.921 156.838C163.839 157.052 163.745 157.232 163.641 157.378C163.54 157.524 163.424 157.645 163.292 157.74C163.16 157.831 163.003 157.897 162.82 157.938C162.643 157.979 162.431 158 162.185 158H161.556V156.653ZM166.02 154.097V152.189H164.358C164.003 152.189 163.736 152.276 163.559 152.449C163.381 152.622 163.292 152.857 163.292 153.153C163.292 153.782 163.647 154.097 164.358 154.097H166.02ZM172.097 158.082C171.714 158.082 171.349 158.027 171.003 157.918C170.843 157.868 170.67 157.788 170.483 157.679C170.315 157.606 170.148 157.499 169.984 157.357C169.674 157.075 169.431 156.706 169.253 156.25C169.048 155.803 168.945 155.211 168.945 154.473C168.945 153.753 169.034 153.169 169.212 152.723C169.399 152.226 169.627 151.852 169.896 151.602C170.169 151.333 170.486 151.132 170.846 151C171.183 150.877 171.525 150.815 171.871 150.815C172.682 150.834 173.368 151.1 173.929 151.615C174.489 152.139 174.779 152.873 174.797 153.816V154.992H170.374C170.374 155.562 170.538 155.995 170.866 156.291C171.181 156.592 171.582 156.742 172.069 156.742C172.648 156.742 173.165 156.512 173.621 156.052L174.66 156.934C173.922 157.708 173.067 158.091 172.097 158.082ZM173.368 153.816C173.35 153.274 173.202 152.857 172.924 152.565C172.65 152.297 172.299 152.162 171.871 152.162C171.443 152.162 171.092 152.297 170.818 152.565C170.549 152.857 170.401 153.274 170.374 153.816H173.368ZM176.294 150.904H177.709L179.835 155.129L181.954 150.904H183.349V158H181.92V153.447L180.286 156.701H179.391L177.723 153.447V158H176.294V150.904ZM188.558 150.904H191.962C192.614 150.904 193.133 151.077 193.521 151.424C193.908 151.766 194.102 152.226 194.102 152.805C194.102 153.516 193.771 154.024 193.11 154.329C193.466 154.489 193.739 154.705 193.931 154.979C194.122 155.247 194.218 155.587 194.218 155.997C194.218 156.612 194.029 157.1 193.65 157.46C193.272 157.82 192.746 158 192.071 158H188.558V150.904ZM191.791 156.811C192.11 156.811 192.361 156.724 192.543 156.551C192.725 156.378 192.816 156.147 192.816 155.86C192.816 155.56 192.725 155.327 192.543 155.163C192.361 154.999 192.11 154.917 191.791 154.917H189.986V156.811H191.791ZM191.695 153.816C192.365 153.816 192.7 153.522 192.7 152.935C192.7 152.661 192.614 152.454 192.44 152.312C192.272 152.167 192.023 152.094 191.695 152.094H189.986V153.816H191.695ZM199.085 150.904H200.5L202.626 155.129L204.745 150.904H206.14V158H204.711V153.447L203.077 156.701H202.182L200.514 153.447V158H199.085V150.904ZM209.934 158.082C209.15 158.073 208.539 157.863 208.102 157.453C207.65 157.052 207.425 156.539 207.425 155.915C207.425 155.318 207.621 154.824 208.013 154.432C208.396 154.04 208.97 153.835 209.735 153.816H211.711V153.071C211.72 152.447 211.235 152.144 210.255 152.162C209.918 152.162 209.637 152.199 209.414 152.271C209.2 152.358 209.031 152.504 208.908 152.709L207.787 151.854C208.329 151.144 209.129 150.797 210.187 150.815C211.08 150.806 211.793 150.975 212.326 151.321C212.85 151.668 213.121 152.278 213.14 153.153V158H211.711V157.371H211.684C211.551 157.613 211.346 157.79 211.068 157.904C210.813 158.023 210.435 158.082 209.934 158.082ZM210.111 156.742C210.713 156.76 211.134 156.69 211.376 156.53C211.599 156.38 211.711 156.038 211.711 155.505V154.992H210.002C209.163 155.01 208.753 155.295 208.771 155.847C208.771 156.088 208.879 156.293 209.093 156.462C209.307 156.649 209.646 156.742 210.111 156.742ZM214.985 150.904H219.593V152.244H216.414V158H214.985V150.904ZM222.621 158.082C221.837 158.073 221.227 157.863 220.789 157.453C220.338 157.052 220.112 156.539 220.112 155.915C220.112 155.318 220.308 154.824 220.7 154.432C221.083 154.04 221.657 153.835 222.423 153.816H224.398V153.071C224.408 152.447 223.922 152.144 222.942 152.162C222.605 152.162 222.325 152.199 222.102 152.271C221.887 152.358 221.719 152.504 221.596 152.709L220.475 151.854C221.017 151.144 221.817 150.797 222.874 150.815C223.767 150.806 224.48 150.975 225.014 151.321C225.538 151.668 225.809 152.278 225.827 153.153V158H224.398V157.371H224.371C224.239 157.613 224.034 157.79 223.756 157.904C223.501 158.023 223.122 158.082 222.621 158.082ZM222.799 156.742C223.4 156.76 223.822 156.69 224.063 156.53C224.287 156.38 224.398 156.038 224.398 155.505V154.992H222.689C221.851 155.01 221.441 155.295 221.459 155.847C221.459 156.088 221.566 156.293 221.78 156.462C221.994 156.649 222.334 156.742 222.799 156.742ZM229.58 158.082C228.992 158.082 228.486 157.989 228.062 157.802C227.643 157.615 227.251 157.326 226.887 156.934L227.926 156.052C228.158 156.289 228.393 156.464 228.63 156.578C228.871 156.688 229.188 156.742 229.58 156.742C230.018 156.742 230.368 156.662 230.633 156.503C230.902 156.343 231.036 156.109 231.036 155.799C231.036 155.493 230.936 155.279 230.735 155.156C230.535 155.029 230.223 154.965 229.799 154.965H228.767V153.789H229.819C230.161 153.789 230.435 153.714 230.64 153.563C230.845 153.413 230.947 153.203 230.947 152.935C230.947 152.661 230.829 152.463 230.592 152.34C230.355 152.212 230.018 152.148 229.58 152.148C229.288 152.148 229.001 152.199 228.719 152.299C228.441 152.395 228.19 152.549 227.967 152.764L226.948 151.882C227.117 151.713 227.288 151.565 227.461 151.438C227.639 151.305 227.835 151.194 228.049 151.103C228.268 151.007 228.511 150.936 228.78 150.891C229.049 150.84 229.361 150.815 229.717 150.815C230.1 150.815 230.46 150.847 230.797 150.911C231.134 150.97 231.424 151.089 231.665 151.267C231.888 151.426 232.057 151.636 232.171 151.896C232.289 152.155 232.349 152.436 232.349 152.736C232.349 153.083 232.257 153.397 232.075 153.68C231.893 153.958 231.64 154.16 231.316 154.288C231.658 154.42 231.934 154.632 232.144 154.924C232.358 155.211 232.465 155.55 232.465 155.942C232.465 156.307 232.378 156.646 232.205 156.961C232.032 157.271 231.786 157.519 231.467 157.706C231.225 157.856 230.94 157.957 230.612 158.007C230.289 158.057 229.945 158.082 229.58 158.082ZM233.962 150.904H235.391V155.717L238.474 150.904H239.902V158H238.474V153.112L235.391 158H233.962V150.904ZM241.755 150.904H243.184V153.673H246V150.904H247.429V158H246V155.02H243.184V158H241.755V150.904ZM249.274 150.904H250.703V153.577H252.576C253.269 153.577 253.825 153.78 254.244 154.186C254.663 154.591 254.873 155.124 254.873 155.785C254.873 156.451 254.663 156.986 254.244 157.392C253.825 157.797 253.269 158 252.576 158H249.274V150.904ZM252.426 156.742C252.754 156.742 253.009 156.656 253.191 156.482C253.374 156.309 253.465 156.068 253.465 155.758C253.465 155.462 253.374 155.227 253.191 155.054C253.009 154.881 252.754 154.794 252.426 154.794H250.703V156.742H252.426ZM255.857 150.904H257.286V158H255.857V150.904Z" fill="white"/>
<path d="M266.948 40.3353L271.478 28.6135C272.172 26.819 274.751 26.9428 275.27 28.7955L278.463 40.2053C278.685 40.9995 279.372 41.5759 280.193 41.6566L291.587 42.7775C293.55 42.9706 294.078 45.5873 292.344 46.5265L281.246 52.5372C280.414 52.9875 280.012 53.9587 280.281 54.8652L284.188 68.0192C284.765 69.962 282.418 71.4322 280.922 70.0654L272.448 62.3264C271.718 61.6601 270.611 61.6264 269.843 62.2471L260.214 70.0206C258.604 71.3204 256.322 69.6191 257.108 67.705L262.158 55.4021C262.522 54.5138 262.204 53.4917 261.4 52.9673L251.004 46.1884C249.396 45.1401 250.044 42.6489 251.959 42.5178L265.219 41.6097C265.994 41.5566 266.668 41.0598 266.948 40.3353Z" fill="#8784D6"/>
</svg>
