<svg width="318" height="218" viewBox="0 0 318 218" fill="none" xmlns="http://www.w3.org/2000/svg">
<path d="M318 33.797C318 23.1104 309.599 14.3118 298.924 13.8183L20.9235 0.967229C9.52744 0.440425 0 9.53765 0 20.9459V196.299C0 207.987 9.97955 217.185 21.6287 216.233L299.629 193.518C310.008 192.67 318 183.999 318 173.585V33.797Z" fill="#462B74"/>
<path d="M26.932 54.348H31.468V49.812C31.468 48.948 31.3 48.24 30.964 47.688C30.652 47.112 30.052 46.824 29.164 46.824C28.42 46.824 27.856 47.088 27.472 47.616C27.112 48.144 26.932 48.768 26.932 49.488V50.712H23.26V49.632C23.26 48.744 23.416 47.868 23.728 47.004C24.064 46.116 24.496 45.396 25.024 44.844C25.552 44.292 26.176 43.872 26.896 43.584C27.64 43.296 28.396 43.152 29.164 43.152C30.004 43.152 30.796 43.308 31.54 43.62C32.308 43.908 32.956 44.316 33.484 44.844C34.012 45.372 34.42 45.996 34.708 46.716C34.996 47.436 35.14 48.216 35.14 49.056V62.808C35.14 63.984 34.948 65.004 34.564 65.868C34.18 66.732 33.7 67.404 33.124 67.884C32.548 68.364 31.9 68.712 31.18 68.928C30.484 69.12 29.788 69.216 29.092 69.216C28.276 69.216 27.508 69.06 26.788 68.748C26.068 68.412 25.444 67.968 24.916 67.416C24.388 66.864 23.98 66.24 23.692 65.544C23.404 64.824 23.26 64.068 23.26 63.276V61.692H26.932V62.952C26.932 63.456 26.992 63.876 27.112 64.212C27.256 64.548 27.436 64.812 27.652 65.004C27.892 65.196 28.144 65.34 28.408 65.436C28.696 65.508 28.96 65.544 29.2 65.544C30.04 65.544 30.628 65.28 30.964 64.752C31.3 64.224 31.468 63.588 31.468 62.844V57.588H26.932V54.348ZM50.8442 46.824C50.5082 46.824 50.2322 46.872 50.0162 46.968C49.8002 47.04 49.5962 47.184 49.4042 47.4C49.2122 47.616 49.0802 47.88 49.0082 48.192C48.9362 48.504 48.8762 48.852 48.8282 49.236L48.5042 52.224C48.4802 52.536 48.4442 52.824 48.3962 53.088C48.3482 53.328 48.3002 53.58 48.2522 53.844C48.2042 54.084 48.1322 54.3 48.0362 54.492C47.8922 54.828 47.7122 55.128 47.4962 55.392C47.3042 55.632 47.1122 55.824 46.9202 55.968L50.7362 69H46.9922L43.7522 57.588H41.7002V69H38.0282V43.368H41.7002V54.348H42.9242C43.3562 54.348 43.7042 54.288 43.9682 54.168C44.2322 54.048 44.4482 53.88 44.6162 53.664C44.7842 53.448 44.9042 53.208 44.9762 52.944C45.0482 52.656 45.1082 52.344 45.1562 52.008L45.5162 48.948C45.5402 48.852 45.5642 48.66 45.5882 48.372C45.6362 48.06 45.7082 47.712 45.8042 47.328C45.9002 46.944 46.0322 46.548 46.2002 46.14C46.3682 45.732 46.5842 45.348 46.8482 44.988C47.3042 44.412 47.8562 44.004 48.5042 43.764C49.1762 43.5 49.9562 43.368 50.8442 43.368V46.824ZM64.2384 61.692V63.276C64.2384 64.068 64.0824 64.824 63.7704 65.544C63.4824 66.24 63.0744 66.864 62.5464 67.416C62.0184 67.968 61.3944 68.412 60.6744 68.748C59.9784 69.06 59.2224 69.216 58.4064 69.216C57.7104 69.216 57.0024 69.12 56.2824 68.928C55.5624 68.736 54.9144 68.4 54.3384 67.92C53.7624 67.44 53.2824 66.828 52.8984 66.084C52.5384 65.316 52.3584 64.344 52.3584 63.168V49.056C52.3584 48.216 52.5024 47.436 52.7904 46.716C53.0784 45.996 53.4864 45.372 54.0144 44.844C54.5424 44.316 55.1664 43.908 55.8864 43.62C56.6304 43.308 57.4464 43.152 58.3344 43.152C60.0624 43.152 61.4664 43.716 62.5464 44.844C63.0744 45.396 63.4824 46.056 63.7704 46.824C64.0824 47.568 64.2384 48.384 64.2384 49.272V50.712H60.5664V49.488C60.5664 48.768 60.3624 48.144 59.9544 47.616C59.5464 47.088 58.9944 46.824 58.2984 46.824C57.3864 46.824 56.7744 47.112 56.4624 47.688C56.1744 48.24 56.0304 48.948 56.0304 49.812V62.916C56.0304 63.66 56.1864 64.284 56.4984 64.788C56.8344 65.292 57.4224 65.544 58.2624 65.544C58.5024 65.544 58.7544 65.508 59.0184 65.436C59.3064 65.34 59.5704 65.196 59.8104 65.004C60.0264 64.812 60.2064 64.548 60.3504 64.212C60.4944 63.876 60.5664 63.456 60.5664 62.952V61.692H64.2384ZM66.8746 69V43.368H78.5746V69H74.9026V46.608H70.5466V69H66.8746ZM81.6669 69V43.368H92.6109V46.824H85.3389V54.348H91.6749V57.804H85.3389V65.328H92.6109V69H81.6669ZM94.6311 69V43.368H100.139C101.147 43.368 102.035 43.5 102.803 43.764C103.571 44.028 104.267 44.496 104.891 45.168C105.515 45.84 105.947 46.632 106.187 47.544C106.427 48.432 106.547 49.644 106.547 51.18C106.547 52.332 106.475 53.304 106.331 54.096C106.211 54.888 105.935 55.632 105.503 56.328C104.999 57.168 104.327 57.828 103.487 58.308C102.647 58.764 101.543 58.992 100.175 58.992H98.3031V69H94.6311ZM98.3031 46.824V55.536H100.067C100.811 55.536 101.387 55.428 101.795 55.212C102.203 54.996 102.503 54.696 102.695 54.312C102.887 53.952 102.995 53.508 103.019 52.98C103.067 52.452 103.091 51.864 103.091 51.216C103.091 50.616 103.079 50.052 103.055 49.524C103.031 48.972 102.923 48.492 102.731 48.084C102.539 47.676 102.251 47.364 101.867 47.148C101.483 46.932 100.931 46.824 100.211 46.824H98.3031ZM111.343 69V46.824H107.095V43.368H119.263V46.824H115.015V69H111.343ZM129.092 69V52.368H129.02L124.196 69H120.524V43.368H124.196V60.036H124.268L129.092 43.368H132.764V69H129.092ZM135.376 49.848C135.376 49.128 135.52 48.312 135.808 47.4C136.12 46.488 136.588 45.708 137.212 45.06C137.764 44.508 138.388 44.052 139.084 43.692C139.78 43.332 140.584 43.152 141.496 43.152C142.576 43.152 143.5 43.344 144.268 43.728C145.06 44.088 145.708 44.58 146.212 45.204C146.74 45.828 147.124 46.572 147.364 47.436C147.604 48.3 147.724 49.212 147.724 50.172C147.724 50.652 147.712 51.144 147.688 51.648C147.664 52.128 147.568 52.62 147.4 53.124C147.256 53.604 147.004 54.06 146.644 54.492C146.308 54.924 145.816 55.32 145.168 55.68C145.816 55.944 146.308 56.292 146.644 56.724C147.004 57.132 147.256 57.6 147.4 58.128C147.568 58.632 147.664 59.196 147.688 59.82C147.712 60.42 147.724 61.044 147.724 61.692C147.724 62.772 147.604 63.78 147.364 64.716C147.148 65.652 146.776 66.432 146.248 67.056C145.72 67.68 145.048 68.196 144.232 68.604C143.44 69.012 142.456 69.216 141.28 69.216C140.392 69.216 139.564 69.06 138.796 68.748C138.028 68.436 137.368 68.004 136.816 67.452C136.264 66.9 135.844 66.192 135.556 65.328C135.268 64.464 135.124 63.6 135.124 62.736V61.764H138.796L138.832 62.772C138.832 63.108 138.868 63.444 138.94 63.78C139.036 64.092 139.18 64.38 139.372 64.644C139.564 64.908 139.816 65.124 140.128 65.292C140.44 65.46 140.836 65.544 141.316 65.544C142.396 65.544 143.116 65.208 143.476 64.536C143.86 63.84 144.052 62.904 144.052 61.728C144.052 61.056 144.028 60.432 143.98 59.856C143.932 59.256 143.812 58.788 143.62 58.452C143.188 57.708 142.468 57.336 141.46 57.336H140.056V54.096H141.568C142.024 54.096 142.432 54.012 142.792 53.844C143.152 53.676 143.44 53.388 143.656 52.98C143.848 52.596 143.956 52.14 143.98 51.612C144.028 51.084 144.052 50.616 144.052 50.208C144.052 49.776 144.016 49.356 143.944 48.948C143.872 48.516 143.74 48.144 143.548 47.832C143.356 47.544 143.092 47.304 142.756 47.112C142.444 46.92 142.036 46.824 141.532 46.824C141.076 46.824 140.692 46.908 140.38 47.076C140.092 47.244 139.852 47.46 139.66 47.724C139.444 48.012 139.288 48.384 139.192 48.84C139.096 49.296 139.048 49.74 139.048 50.172V50.748H135.376V49.848ZM157.56 60.036L155.76 50.748H155.688L153.888 60.036H157.56ZM148.488 69L154.212 43.368H157.272L162.996 69H159.324L158.244 63.492H153.24L152.16 69H148.488Z" fill="white"/>
<path d="M22.768 104V92.608H24.336L26.432 98.64H26.464L28.544 92.608H30.128V104H28.496V97.072H28.464L26.848 101.968H26.032L24.432 97.072H24.4V104H22.768ZM31.5626 104V95.888H33.1946V99.088H33.5946C34.0213 99.088 34.3946 99.1307 34.7146 99.216C35.0453 99.2907 35.3173 99.424 35.5306 99.616C35.7546 99.808 35.92 100.064 36.0266 100.384C36.144 100.704 36.2026 101.099 36.2026 101.568C36.2026 101.909 36.1493 102.24 36.0426 102.56C35.9466 102.869 35.792 103.136 35.5786 103.36C35.3226 103.627 35.0186 103.803 34.6666 103.888C34.3146 103.963 33.9626 104 33.6106 104H31.5626ZM33.1946 102.64H33.7546C33.9893 102.64 34.1973 102.565 34.3786 102.416C34.5706 102.256 34.6666 101.973 34.6666 101.568C34.6666 101.237 34.6026 100.971 34.4746 100.768C34.3573 100.555 34.1066 100.448 33.7226 100.448H33.1946V102.64ZM36.9066 104V95.888H38.5386V104H36.9066ZM44.5719 101.664C44.5719 101.92 44.6412 102.117 44.7799 102.256C44.9292 102.395 45.1265 102.464 45.3719 102.464C45.6812 102.464 45.8839 102.373 45.9799 102.192C46.0865 102.011 46.1505 101.829 46.1719 101.648H47.8039C47.8039 102.363 47.5852 102.939 47.1479 103.376C46.9345 103.6 46.6785 103.776 46.3799 103.904C46.0812 104.032 45.7452 104.096 45.3719 104.096C44.8599 104.096 44.4225 103.989 44.0599 103.776C43.7079 103.563 43.4359 103.28 43.2439 102.928C43.1265 102.715 43.0465 102.469 43.0039 102.192C42.9612 101.915 42.9399 101.611 42.9399 101.28V98.608C42.9399 98.2773 42.9612 97.9733 43.0039 97.696C43.0465 97.4187 43.1265 97.1733 43.2439 96.96C43.4359 96.608 43.7079 96.3253 44.0599 96.112C44.4225 95.8987 44.8599 95.792 45.3719 95.792C45.7452 95.792 46.0812 95.856 46.3799 95.984C46.6892 96.112 46.9505 96.288 47.1639 96.512C47.5905 96.992 47.8039 97.616 47.8039 98.384H46.1719C46.1719 98.0533 46.0972 97.8133 45.9479 97.664C45.8092 97.504 45.6172 97.424 45.3719 97.424C45.1265 97.424 44.9292 97.504 44.7799 97.664C44.6412 97.8133 44.5719 98.0427 44.5719 98.352V101.664ZM51.8538 104V103.168H51.8218C51.6084 103.467 51.3898 103.696 51.1658 103.856C50.9524 104.016 50.6484 104.096 50.2538 104.096C50.0618 104.096 49.8644 104.064 49.6618 104C49.4698 103.947 49.2831 103.84 49.1018 103.68C48.9204 103.531 48.7711 103.317 48.6538 103.04C48.5471 102.752 48.4938 102.384 48.4938 101.936C48.4938 101.477 48.5311 101.077 48.6058 100.736C48.6804 100.384 48.8191 100.091 49.0218 99.856C49.2138 99.632 49.4751 99.4667 49.8058 99.36C50.1364 99.2427 50.5578 99.184 51.0698 99.184C51.1231 99.184 51.1818 99.184 51.2458 99.184C51.3098 99.184 51.3684 99.1893 51.4218 99.2C51.4751 99.2107 51.5391 99.216 51.6138 99.216C51.6884 99.216 51.7684 99.2213 51.8538 99.232V98.384C51.8538 98.1067 51.7951 97.8773 51.6778 97.696C51.5604 97.5147 51.3471 97.424 51.0378 97.424C50.8244 97.424 50.6271 97.4933 50.4457 97.632C50.2751 97.7707 50.1631 97.9733 50.1098 98.24H48.5258C48.5684 97.5147 48.8138 96.928 49.2618 96.48C49.4751 96.2667 49.7311 96.1013 50.0298 95.984C50.3284 95.856 50.6644 95.792 51.0378 95.792C51.3791 95.792 51.6991 95.8453 51.9978 95.952C52.2964 96.0587 52.5578 96.2187 52.7818 96.432C52.9951 96.6453 53.1658 96.912 53.2938 97.232C53.4218 97.552 53.4858 97.9253 53.4858 98.352V104H51.8538ZM51.8538 100.512C51.6724 100.48 51.5231 100.464 51.4058 100.464C51.0538 100.464 50.7498 100.549 50.4938 100.72C50.2484 100.88 50.1258 101.179 50.1258 101.616C50.1258 101.925 50.2004 102.176 50.3498 102.368C50.4991 102.56 50.7071 102.656 50.9738 102.656C51.2511 102.656 51.4644 102.565 51.6138 102.384C51.7738 102.203 51.8538 101.947 51.8538 101.616V100.512ZM54.6876 104V95.888H56.3516L57.9996 100.24H58.0316L59.6796 95.888H61.3436V104H59.7756V99.088H59.7436L58.4316 102.672H57.5996L56.2876 99.088H56.2556V104H54.6876ZM66.1916 104V98.848H66.1596L64.3516 104H62.6876V95.888H64.2236V101.04H64.2556L66.0476 95.888H67.7276V104H66.1916ZM72.047 104V95.888H76.927V104H75.295V97.248H73.679V104H72.047ZM78.2033 107.28V95.888H79.8353V96.624C80.0379 96.3893 80.2459 96.192 80.4593 96.032C80.6726 95.872 80.9819 95.792 81.3873 95.792C82.0593 95.792 82.5339 96.048 82.8113 96.56C82.9073 96.7413 82.9766 96.9653 83.0193 97.232C83.0619 97.4987 83.0833 97.856 83.0833 98.304V101.392C83.0833 101.989 83.0673 102.421 83.0353 102.688C82.9713 103.221 82.7259 103.621 82.2993 103.888C82.0859 104.027 81.7766 104.096 81.3713 104.096C81.0513 104.096 80.7633 104.027 80.5073 103.888C80.2619 103.739 80.0486 103.531 79.8673 103.264H79.8353V107.28H78.2033ZM81.4513 98.528C81.4513 98.1973 81.3873 97.9307 81.2593 97.728C81.1313 97.5253 80.9286 97.424 80.6513 97.424C80.4059 97.424 80.2086 97.52 80.0593 97.712C79.9099 97.8933 79.8353 98.1333 79.8353 98.432V101.584C79.8353 101.84 79.9099 102.053 80.0593 102.224C80.2193 102.384 80.4166 102.464 80.6513 102.464C80.9606 102.464 81.1686 102.368 81.2753 102.176C81.3926 101.984 81.4513 101.76 81.4513 101.504V98.528ZM84.278 98.608C84.278 98.2773 84.2993 97.9733 84.342 97.696C84.3847 97.4187 84.4647 97.1733 84.582 96.96C84.774 96.608 85.046 96.3253 85.398 96.112C85.7607 95.8987 86.198 95.792 86.71 95.792C87.222 95.792 87.654 95.8987 88.006 96.112C88.3687 96.3253 88.646 96.608 88.838 96.96C88.9553 97.1733 89.0353 97.4187 89.078 97.696C89.1207 97.9733 89.142 98.2773 89.142 98.608V101.28C89.142 101.611 89.1207 101.915 89.078 102.192C89.0353 102.469 88.9553 102.715 88.838 102.928C88.646 103.28 88.3687 103.563 88.006 103.776C87.654 103.989 87.222 104.096 86.71 104.096C86.198 104.096 85.7607 103.989 85.398 103.776C85.046 103.563 84.774 103.28 84.582 102.928C84.4647 102.715 84.3847 102.469 84.342 102.192C84.2993 101.915 84.278 101.611 84.278 101.28V98.608ZM85.91 101.536C85.91 101.845 85.9793 102.08 86.118 102.24C86.2673 102.389 86.4647 102.464 86.71 102.464C86.9553 102.464 87.1473 102.389 87.286 102.24C87.4353 102.08 87.51 101.845 87.51 101.536V98.352C87.51 98.0427 87.4353 97.8133 87.286 97.664C87.1473 97.504 86.9553 97.424 86.71 97.424C86.4647 97.424 86.2673 97.504 86.118 97.664C85.9793 97.8133 85.91 98.0427 85.91 98.352V101.536ZM93.8479 104V98.848H93.8159L92.0079 104H90.3439V95.888H91.8799V101.04H91.9119L93.7039 95.888H95.3839V104H93.8479ZM96.3665 98.16C96.3878 97.84 96.4572 97.5413 96.5745 97.264C96.7025 96.976 96.8678 96.7253 97.0705 96.512C97.2838 96.288 97.5345 96.112 97.8225 95.984C98.1105 95.856 98.4252 95.792 98.7665 95.792C99.1078 95.792 99.4332 95.8507 99.7425 95.968C100.063 96.0747 100.335 96.2347 100.559 96.448C100.772 96.6507 100.937 96.896 101.055 97.184C101.183 97.4613 101.247 97.776 101.247 98.128C101.247 98.2453 101.236 98.384 101.215 98.544C101.193 98.6933 101.145 98.848 101.071 99.008C101.007 99.168 100.905 99.328 100.766 99.488C100.639 99.6373 100.463 99.7653 100.239 99.872C100.473 99.9573 100.665 100.064 100.815 100.192C100.975 100.32 101.092 100.464 101.167 100.624C101.252 100.784 101.311 100.955 101.343 101.136C101.375 101.307 101.391 101.477 101.391 101.648C101.391 101.979 101.337 102.277 101.231 102.544C101.124 102.811 100.964 103.061 100.751 103.296C100.516 103.552 100.228 103.749 99.8865 103.888C99.5558 104.027 99.1932 104.096 98.7985 104.096C98.0412 104.096 97.4278 103.845 96.9585 103.344C96.5425 102.896 96.3185 102.331 96.2865 101.648H97.8225C97.8438 101.936 97.9292 102.16 98.0785 102.32C98.2385 102.48 98.4732 102.56 98.7825 102.56C99.0598 102.56 99.2785 102.48 99.4385 102.32C99.6092 102.149 99.6945 101.904 99.6945 101.584C99.6945 101.275 99.6252 101.029 99.4865 100.848C99.3585 100.656 99.1185 100.56 98.7665 100.56H98.2545V99.2H98.7025C99.0225 99.2 99.2518 99.12 99.3905 98.96C99.5398 98.8 99.6145 98.5387 99.6145 98.176C99.6145 97.9413 99.5398 97.744 99.3905 97.584C99.2412 97.4133 99.0332 97.328 98.7665 97.328C98.5532 97.328 98.3612 97.392 98.1905 97.52C98.0198 97.6373 97.9238 97.8507 97.9025 98.16H96.3665ZM102.594 104V95.888H104.706C105.026 95.888 105.357 95.92 105.698 95.984C106.039 96.048 106.349 96.1973 106.626 96.432C106.882 96.6453 107.058 96.896 107.154 97.184C107.261 97.472 107.314 97.7867 107.314 98.128C107.314 98.2453 107.303 98.384 107.282 98.544C107.261 98.6933 107.218 98.848 107.154 99.008C107.09 99.168 106.994 99.328 106.866 99.488C106.749 99.6373 106.589 99.7653 106.386 99.872C106.61 99.9573 106.791 100.064 106.93 100.192C107.069 100.32 107.175 100.464 107.25 100.624C107.335 100.784 107.389 100.955 107.41 101.136C107.442 101.307 107.458 101.477 107.458 101.648C107.458 101.989 107.41 102.304 107.314 102.592C107.229 102.88 107.079 103.136 106.866 103.36C106.61 103.627 106.295 103.803 105.922 103.888C105.549 103.963 105.186 104 104.834 104H102.594ZM104.226 102.64H104.882C104.999 102.64 105.111 102.629 105.218 102.608C105.335 102.576 105.437 102.523 105.522 102.448C105.618 102.373 105.693 102.272 105.746 102.144C105.799 102.016 105.826 101.851 105.826 101.648C105.826 101.317 105.762 101.051 105.634 100.848C105.517 100.635 105.266 100.528 104.882 100.528H104.226V102.64ZM104.226 99.248H104.866C105.197 99.248 105.426 99.1467 105.554 98.944C105.682 98.7413 105.746 98.4693 105.746 98.128C105.746 97.8827 105.671 97.6747 105.522 97.504C105.373 97.3333 105.165 97.248 104.898 97.248H104.226V99.248ZM108.481 98.608C108.481 98.2773 108.502 97.9733 108.545 97.696C108.588 97.4187 108.668 97.1733 108.785 96.96C108.977 96.608 109.249 96.3253 109.601 96.112C109.964 95.8987 110.401 95.792 110.913 95.792C111.425 95.792 111.857 95.8987 112.209 96.112C112.572 96.3253 112.849 96.608 113.041 96.96C113.158 97.1733 113.238 97.4187 113.281 97.696C113.324 97.9733 113.345 98.2773 113.345 98.608V101.28C113.345 101.611 113.324 101.915 113.281 102.192C113.238 102.469 113.158 102.715 113.041 102.928C112.849 103.28 112.572 103.563 112.209 103.776C111.857 103.989 111.425 104.096 110.913 104.096C110.401 104.096 109.964 103.989 109.601 103.776C109.249 103.563 108.977 103.28 108.785 102.928C108.668 102.715 108.588 102.469 108.545 102.192C108.502 101.915 108.481 101.611 108.481 101.28V98.608ZM110.113 101.536C110.113 101.845 110.182 102.08 110.321 102.24C110.47 102.389 110.668 102.464 110.913 102.464C111.158 102.464 111.35 102.389 111.489 102.24C111.638 102.08 111.713 101.845 111.713 101.536V98.352C111.713 98.0427 111.638 97.8133 111.489 97.664C111.35 97.504 111.158 97.424 110.913 97.424C110.668 97.424 110.47 97.504 110.321 97.664C110.182 97.8133 110.113 98.0427 110.113 98.352V101.536ZM115.205 104V105.6H113.829V102.64H114.565C114.682 102.416 114.784 102.117 114.869 101.744C114.965 101.371 115.04 100.976 115.093 100.56C115.136 100.219 115.162 99.8667 115.173 99.504C115.184 99.1413 115.189 98.8107 115.189 98.512V95.888H119.669V102.64H120.437V105.6H119.061V104H115.205ZM116.725 97.248V98.464C116.725 98.6027 116.72 98.7733 116.709 98.976C116.698 99.168 116.682 99.3707 116.661 99.584C116.65 99.7867 116.634 99.9893 116.613 100.192C116.602 100.384 116.586 100.549 116.565 100.688C116.522 100.965 116.453 101.296 116.357 101.68C116.272 102.053 116.17 102.373 116.053 102.64H118.037V97.248H116.725ZM124.676 104V98.848H124.644L122.836 104H121.172V95.888H122.708V101.04H122.74L124.532 95.888H126.212V104H124.676ZM127.563 104V95.888H129.227L130.875 100.24H130.907L132.555 95.888H134.219V104H132.651V99.088H132.619L131.307 102.672H130.475L129.163 99.088H129.131V104H127.563ZM138.531 104V95.888H140.163V99.2H140.787C141.033 99.2 141.198 99.1147 141.283 98.944C141.369 98.7733 141.438 98.56 141.491 98.304L141.667 97.376C141.731 97.1307 141.811 96.912 141.907 96.72C142.014 96.5173 142.153 96.3573 142.323 96.24C142.505 96.112 142.713 96.0213 142.947 95.968C143.193 95.9147 143.47 95.888 143.779 95.888H143.811V97.328H143.763C143.571 97.328 143.411 97.3653 143.283 97.44C143.155 97.504 143.065 97.6587 143.011 97.904L142.851 98.8C142.841 98.832 142.825 98.896 142.803 98.992C142.793 99.088 142.766 99.1947 142.723 99.312C142.681 99.4187 142.622 99.5253 142.547 99.632C142.483 99.7387 142.398 99.8187 142.291 99.872L143.923 104H142.259L140.963 100.56H140.163V104H138.531ZM144.575 98.608C144.575 98.2773 144.596 97.9733 144.639 97.696C144.682 97.4187 144.762 97.1733 144.879 96.96C145.071 96.608 145.343 96.3253 145.695 96.112C146.058 95.8987 146.495 95.792 147.007 95.792C147.519 95.792 147.951 95.8987 148.303 96.112C148.666 96.3253 148.943 96.608 149.135 96.96C149.252 97.1733 149.332 97.4187 149.375 97.696C149.418 97.9733 149.439 98.2773 149.439 98.608V101.28C149.439 101.611 149.418 101.915 149.375 102.192C149.332 102.469 149.252 102.715 149.135 102.928C148.943 103.28 148.666 103.563 148.303 103.776C147.951 103.989 147.519 104.096 147.007 104.096C146.495 104.096 146.058 103.989 145.695 103.776C145.343 103.563 145.071 103.28 144.879 102.928C144.762 102.715 144.682 102.469 144.639 102.192C144.596 101.915 144.575 101.611 144.575 101.28V98.608ZM146.207 101.536C146.207 101.845 146.276 102.08 146.415 102.24C146.564 102.389 146.762 102.464 147.007 102.464C147.252 102.464 147.444 102.389 147.583 102.24C147.732 102.08 147.807 101.845 147.807 101.536V98.352C147.807 98.0427 147.732 97.8133 147.583 97.664C147.444 97.504 147.252 97.424 147.007 97.424C146.762 97.424 146.564 97.504 146.415 97.664C146.276 97.8133 146.207 98.0427 146.207 98.352V101.536ZM150.641 107.28V95.888H152.273V96.624C152.475 96.3893 152.683 96.192 152.897 96.032C153.11 95.872 153.419 95.792 153.825 95.792C154.497 95.792 154.971 96.048 155.249 96.56C155.345 96.7413 155.414 96.9653 155.457 97.232C155.499 97.4987 155.521 97.856 155.521 98.304V101.392C155.521 101.989 155.505 102.421 155.473 102.688C155.409 103.221 155.163 103.621 154.737 103.888C154.523 104.027 154.214 104.096 153.809 104.096C153.489 104.096 153.201 104.027 152.945 103.888C152.699 103.739 152.486 103.531 152.305 103.264H152.273V107.28H150.641ZM153.889 98.528C153.889 98.1973 153.825 97.9307 153.697 97.728C153.569 97.5253 153.366 97.424 153.089 97.424C152.843 97.424 152.646 97.52 152.497 97.712C152.347 97.8933 152.273 98.1333 152.273 98.432V101.584C152.273 101.84 152.347 102.053 152.497 102.224C152.657 102.384 152.854 102.464 153.089 102.464C153.398 102.464 153.606 102.368 153.713 102.176C153.83 101.984 153.889 101.76 153.889 101.504V98.528ZM156.86 104V95.888H158.524L160.172 100.24H160.204L161.852 95.888H163.516V104H161.948V99.088H161.916L160.604 102.672H159.772L158.46 99.088H158.428V104H156.86ZM167.948 104V103.168H167.916C167.702 103.467 167.484 103.696 167.26 103.856C167.046 104.016 166.742 104.096 166.348 104.096C166.156 104.096 165.958 104.064 165.756 104C165.564 103.947 165.377 103.84 165.196 103.68C165.014 103.531 164.865 103.317 164.748 103.04C164.641 102.752 164.588 102.384 164.588 101.936C164.588 101.477 164.625 101.077 164.7 100.736C164.774 100.384 164.913 100.091 165.116 99.856C165.308 99.632 165.569 99.4667 165.9 99.36C166.23 99.2427 166.652 99.184 167.164 99.184C167.217 99.184 167.276 99.184 167.34 99.184C167.404 99.184 167.462 99.1893 167.516 99.2C167.569 99.2107 167.633 99.216 167.708 99.216C167.782 99.216 167.862 99.2213 167.948 99.232V98.384C167.948 98.1067 167.889 97.8773 167.772 97.696C167.654 97.5147 167.441 97.424 167.132 97.424C166.918 97.424 166.721 97.4933 166.539 97.632C166.369 97.7707 166.257 97.9733 166.204 98.24H164.62C164.662 97.5147 164.908 96.928 165.356 96.48C165.569 96.2667 165.825 96.1013 166.124 95.984C166.422 95.856 166.758 95.792 167.132 95.792C167.473 95.792 167.793 95.8453 168.092 95.952C168.39 96.0587 168.652 96.2187 168.876 96.432C169.089 96.6453 169.26 96.912 169.388 97.232C169.516 97.552 169.58 97.9253 169.58 98.352V104H167.948ZM167.948 100.512C167.766 100.48 167.617 100.464 167.5 100.464C167.148 100.464 166.844 100.549 166.588 100.72C166.342 100.88 166.22 101.179 166.22 101.616C166.22 101.925 166.294 102.176 166.444 102.368C166.593 102.56 166.801 102.656 167.068 102.656C167.345 102.656 167.558 102.565 167.708 102.384C167.868 102.203 167.948 101.947 167.948 101.616V100.512ZM170.781 105.184V102.368H172.413V104L170.781 105.184ZM176.719 104V95.888H178.831C179.151 95.888 179.482 95.92 179.823 95.984C180.164 96.048 180.474 96.1973 180.751 96.432C181.007 96.6453 181.183 96.896 181.279 97.184C181.386 97.472 181.439 97.7867 181.439 98.128C181.439 98.2453 181.428 98.384 181.407 98.544C181.386 98.6933 181.343 98.848 181.279 99.008C181.215 99.168 181.119 99.328 180.991 99.488C180.874 99.6373 180.714 99.7653 180.511 99.872C180.735 99.9573 180.916 100.064 181.055 100.192C181.194 100.32 181.3 100.464 181.375 100.624C181.46 100.784 181.514 100.955 181.535 101.136C181.567 101.307 181.583 101.477 181.583 101.648C181.583 101.989 181.535 102.304 181.439 102.592C181.354 102.88 181.204 103.136 180.991 103.36C180.735 103.627 180.42 103.803 180.047 103.888C179.674 103.963 179.311 104 178.959 104H176.719ZM178.351 102.64H179.007C179.124 102.64 179.236 102.629 179.343 102.608C179.46 102.576 179.562 102.523 179.647 102.448C179.743 102.373 179.818 102.272 179.871 102.144C179.924 102.016 179.951 101.851 179.951 101.648C179.951 101.317 179.887 101.051 179.759 100.848C179.642 100.635 179.391 100.528 179.007 100.528H178.351V102.64ZM178.351 99.248H178.991C179.322 99.248 179.551 99.1467 179.679 98.944C179.807 98.7413 179.871 98.4693 179.871 98.128C179.871 97.8827 179.796 97.6747 179.647 97.504C179.498 97.3333 179.29 97.248 179.023 97.248H178.351V99.248ZM182.75 104V95.888H184.382V99.088H184.782C185.209 99.088 185.582 99.1307 185.902 99.216C186.233 99.2907 186.505 99.424 186.718 99.616C186.942 99.808 187.107 100.064 187.214 100.384C187.331 100.704 187.39 101.099 187.39 101.568C187.39 101.909 187.337 102.24 187.23 102.56C187.134 102.869 186.979 103.136 186.766 103.36C186.51 103.627 186.206 103.803 185.854 103.888C185.502 103.963 185.15 104 184.798 104H182.75ZM184.382 102.64H184.942C185.177 102.64 185.385 102.565 185.566 102.416C185.758 102.256 185.854 101.973 185.854 101.568C185.854 101.237 185.79 100.971 185.662 100.768C185.545 100.555 185.294 100.448 184.91 100.448H184.382V102.64ZM188.094 104V95.888H189.726V104H188.094ZM191.063 107.28V95.888H192.695V96.624C192.897 96.3893 193.105 96.192 193.319 96.032C193.532 95.872 193.841 95.792 194.247 95.792C194.919 95.792 195.393 96.048 195.671 96.56C195.767 96.7413 195.836 96.9653 195.879 97.232C195.921 97.4987 195.943 97.856 195.943 98.304V101.392C195.943 101.989 195.927 102.421 195.895 102.688C195.831 103.221 195.585 103.621 195.159 103.888C194.945 104.027 194.636 104.096 194.231 104.096C193.911 104.096 193.623 104.027 193.367 103.888C193.121 103.739 192.908 103.531 192.727 103.264H192.695V107.28H191.063ZM194.311 98.528C194.311 98.1973 194.247 97.9307 194.119 97.728C193.991 97.5253 193.788 97.424 193.511 97.424C193.265 97.424 193.068 97.52 192.919 97.712C192.769 97.8933 192.695 98.1333 192.695 98.432V101.584C192.695 101.84 192.769 102.053 192.919 102.224C193.079 102.384 193.276 102.464 193.511 102.464C193.82 102.464 194.028 102.368 194.135 102.176C194.252 101.984 194.311 101.76 194.311 101.504V98.528ZM200.369 104V103.168H200.337C200.124 103.467 199.905 103.696 199.681 103.856C199.468 104.016 199.164 104.096 198.769 104.096C198.577 104.096 198.38 104.064 198.177 104C197.985 103.947 197.799 103.84 197.617 103.68C197.436 103.531 197.287 103.317 197.169 103.04C197.063 102.752 197.009 102.384 197.009 101.936C197.009 101.477 197.047 101.077 197.121 100.736C197.196 100.384 197.335 100.091 197.537 99.856C197.729 99.632 197.991 99.4667 198.321 99.36C198.652 99.2427 199.073 99.184 199.585 99.184C199.639 99.184 199.697 99.184 199.761 99.184C199.825 99.184 199.884 99.1893 199.937 99.2C199.991 99.2107 200.055 99.216 200.129 99.216C200.204 99.216 200.284 99.2213 200.369 99.232V98.384C200.369 98.1067 200.311 97.8773 200.193 97.696C200.076 97.5147 199.863 97.424 199.553 97.424C199.34 97.424 199.143 97.4933 198.961 97.632C198.791 97.7707 198.679 97.9733 198.625 98.24H197.041C197.084 97.5147 197.329 96.928 197.777 96.48C197.991 96.2667 198.247 96.1013 198.545 95.984C198.844 95.856 199.18 95.792 199.553 95.792C199.895 95.792 200.215 95.8453 200.513 95.952C200.812 96.0587 201.073 96.2187 201.297 96.432C201.511 96.6453 201.681 96.912 201.809 97.232C201.937 97.552 202.001 97.9253 202.001 98.352V104H200.369ZM200.369 100.512C200.188 100.48 200.039 100.464 199.921 100.464C199.569 100.464 199.265 100.549 199.009 100.72C198.764 100.88 198.641 101.179 198.641 101.616C198.641 101.925 198.716 102.176 198.865 102.368C199.015 102.56 199.223 102.656 199.489 102.656C199.767 102.656 199.98 102.565 200.129 102.384C200.289 102.203 200.369 101.947 200.369 101.616V100.512ZM203.203 104V95.888H204.835V102.64H206.163V95.888H207.795V102.64H209.123V95.888H210.755V102.64H211.619V105.6H210.243V104H203.203ZM215.864 104V98.848H215.832L214.024 104H212.36V95.888H213.896V101.04H213.928L215.72 95.888H217.4V104H215.864ZM218.75 104V95.888H220.862C221.182 95.888 221.513 95.92 221.854 95.984C222.195 96.048 222.505 96.1973 222.782 96.432C223.038 96.6453 223.214 96.896 223.31 97.184C223.417 97.472 223.47 97.7867 223.47 98.128C223.47 98.2453 223.459 98.384 223.438 98.544C223.417 98.6933 223.374 98.848 223.31 99.008C223.246 99.168 223.15 99.328 223.022 99.488C222.905 99.6373 222.745 99.7653 222.542 99.872C222.766 99.9573 222.947 100.064 223.086 100.192C223.225 100.32 223.331 100.464 223.406 100.624C223.491 100.784 223.545 100.955 223.566 101.136C223.598 101.307 223.614 101.477 223.614 101.648C223.614 101.989 223.566 102.304 223.47 102.592C223.385 102.88 223.235 103.136 223.022 103.36C222.766 103.627 222.451 103.803 222.078 103.888C221.705 103.963 221.342 104 220.99 104H218.75ZM220.382 102.64H221.038C221.155 102.64 221.267 102.629 221.374 102.608C221.491 102.576 221.593 102.523 221.678 102.448C221.774 102.373 221.849 102.272 221.902 102.144C221.955 102.016 221.982 101.851 221.982 101.648C221.982 101.317 221.918 101.051 221.79 100.848C221.673 100.635 221.422 100.528 221.038 100.528H220.382V102.64ZM220.382 99.248H221.022C221.353 99.248 221.582 99.1467 221.71 98.944C221.838 98.7413 221.902 98.4693 221.902 98.128C221.902 97.8827 221.827 97.6747 221.678 97.504C221.529 97.3333 221.321 97.248 221.054 97.248H220.382V99.248ZM227.869 104V103.168H227.837C227.624 103.467 227.405 103.696 227.181 103.856C226.968 104.016 226.664 104.096 226.269 104.096C226.077 104.096 225.88 104.064 225.677 104C225.485 103.947 225.299 103.84 225.117 103.68C224.936 103.531 224.787 103.317 224.669 103.04C224.563 102.752 224.509 102.384 224.509 101.936C224.509 101.477 224.547 101.077 224.621 100.736C224.696 100.384 224.835 100.091 225.037 99.856C225.229 99.632 225.491 99.4667 225.821 99.36C226.152 99.2427 226.573 99.184 227.085 99.184C227.139 99.184 227.197 99.184 227.261 99.184C227.325 99.184 227.384 99.1893 227.437 99.2C227.491 99.2107 227.555 99.216 227.629 99.216C227.704 99.216 227.784 99.2213 227.869 99.232V98.384C227.869 98.1067 227.811 97.8773 227.693 97.696C227.576 97.5147 227.363 97.424 227.053 97.424C226.84 97.424 226.643 97.4933 226.461 97.632C226.291 97.7707 226.179 97.9733 226.125 98.24H224.541C224.584 97.5147 224.829 96.928 225.277 96.48C225.491 96.2667 225.747 96.1013 226.045 95.984C226.344 95.856 226.68 95.792 227.053 95.792C227.395 95.792 227.715 95.8453 228.013 95.952C228.312 96.0587 228.573 96.2187 228.797 96.432C229.011 96.6453 229.181 96.912 229.309 97.232C229.437 97.552 229.501 97.9253 229.501 98.352V104H227.869ZM227.869 100.512C227.688 100.48 227.539 100.464 227.421 100.464C227.069 100.464 226.765 100.549 226.509 100.72C226.264 100.88 226.141 101.179 226.141 101.616C226.141 101.925 226.216 102.176 226.365 102.368C226.515 102.56 226.723 102.656 226.989 102.656C227.267 102.656 227.48 102.565 227.629 102.384C227.789 102.203 227.869 101.947 227.869 101.616V100.512ZM235.423 100.56H232.191V101.664C232.191 101.92 232.261 102.117 232.399 102.256C232.549 102.395 232.746 102.464 232.991 102.464C233.301 102.464 233.503 102.373 233.599 102.192C233.706 102.011 233.77 101.829 233.791 101.648H235.423C235.423 102.363 235.205 102.939 234.767 103.376C234.554 103.6 234.298 103.776 233.999 103.904C233.701 104.032 233.365 104.096 232.991 104.096C232.479 104.096 232.042 103.989 231.679 103.776C231.327 103.563 231.055 103.28 230.863 102.928C230.746 102.715 230.666 102.469 230.623 102.192C230.581 101.915 230.559 101.611 230.559 101.28V98.608C230.559 98.2773 230.581 97.9733 230.623 97.696C230.666 97.4187 230.746 97.1733 230.863 96.96C231.055 96.608 231.327 96.3253 231.679 96.112C232.042 95.8987 232.479 95.792 232.991 95.792C233.365 95.792 233.701 95.856 233.999 95.984C234.309 96.112 234.57 96.288 234.783 96.512C235.21 96.992 235.423 97.5947 235.423 98.32V100.56ZM232.191 99.28H233.791V98.352C233.791 98.0427 233.717 97.8133 233.567 97.664C233.429 97.504 233.237 97.424 232.991 97.424C232.746 97.424 232.549 97.504 232.399 97.664C232.261 97.8133 232.191 98.0427 232.191 98.352V99.28ZM236.625 104V95.888H238.289L239.937 100.24H239.969L241.617 95.888H243.281V104H241.713V99.088H241.681L240.369 102.672H239.537L238.225 99.088H238.193V104H236.625ZM250.57 95.888H252.202V99.2H252.794C253.039 99.2 253.205 99.1147 253.29 98.944C253.375 98.7733 253.439 98.5813 253.482 98.368L253.642 97.568C253.695 97.3227 253.786 97.0667 253.914 96.8C254.042 96.5333 254.218 96.3253 254.442 96.176C254.655 96.0373 254.858 95.9573 255.05 95.936C255.253 95.904 255.466 95.888 255.69 95.888H255.722V97.328H255.706C255.546 97.328 255.402 97.3653 255.274 97.44C255.146 97.504 255.055 97.6747 255.002 97.952L254.858 98.8C254.847 98.832 254.831 98.896 254.81 98.992C254.799 99.088 254.773 99.1947 254.73 99.312C254.687 99.4187 254.629 99.5253 254.554 99.632C254.49 99.7387 254.405 99.8187 254.298 99.872L255.674 104H254.01L252.97 100.56H252.202V104H250.57V100.56H249.802L248.762 104H247.098L248.474 99.872C248.357 99.8187 248.261 99.7387 248.186 99.632C248.122 99.5253 248.069 99.4187 248.026 99.312C247.994 99.1947 247.967 99.088 247.946 98.992C247.935 98.896 247.925 98.832 247.914 98.8L247.77 97.952C247.717 97.6747 247.626 97.504 247.498 97.44C247.37 97.3653 247.226 97.328 247.066 97.328H247.05V95.888H247.082C247.306 95.888 247.514 95.904 247.706 95.936C247.909 95.968 248.117 96.048 248.33 96.176C248.575 96.3253 248.757 96.5333 248.874 96.8C248.991 97.0667 249.077 97.3227 249.13 97.568L249.29 98.368C249.333 98.5813 249.397 98.7733 249.482 98.944C249.567 99.1147 249.733 99.2 249.978 99.2H250.57V95.888ZM260.02 104V98.848H259.988L258.18 104H256.516V95.888H258.052V101.04H258.084L259.876 95.888H261.556V104H260.02ZM262.906 104V95.888H265.018C265.338 95.888 265.669 95.92 266.01 95.984C266.352 96.048 266.661 96.1973 266.938 96.432C267.194 96.6453 267.37 96.896 267.466 97.184C267.573 97.472 267.626 97.7867 267.626 98.128C267.626 98.2453 267.616 98.384 267.594 98.544C267.573 98.6933 267.53 98.848 267.466 99.008C267.402 99.168 267.306 99.328 267.178 99.488C267.061 99.6373 266.901 99.7653 266.698 99.872C266.922 99.9573 267.104 100.064 267.242 100.192C267.381 100.32 267.488 100.464 267.562 100.624C267.648 100.784 267.701 100.955 267.722 101.136C267.754 101.307 267.77 101.477 267.77 101.648C267.77 101.989 267.722 102.304 267.626 102.592C267.541 102.88 267.392 103.136 267.178 103.36C266.922 103.627 266.608 103.803 266.234 103.888C265.861 103.963 265.498 104 265.146 104H262.906ZM264.538 102.64H265.194C265.312 102.64 265.424 102.629 265.53 102.608C265.648 102.576 265.749 102.523 265.834 102.448C265.93 102.373 266.005 102.272 266.058 102.144C266.112 102.016 266.138 101.851 266.138 101.648C266.138 101.317 266.074 101.051 265.946 100.848C265.829 100.635 265.578 100.528 265.194 100.528H264.538V102.64ZM264.538 99.248H265.178C265.509 99.248 265.738 99.1467 265.866 98.944C265.994 98.7413 266.058 98.4693 266.058 98.128C266.058 97.8827 265.984 97.6747 265.834 97.504C265.685 97.3333 265.477 97.248 265.21 97.248H264.538V99.248ZM268.794 98.608C268.794 98.2773 268.815 97.9733 268.858 97.696C268.9 97.4187 268.98 97.1733 269.098 96.96C269.29 96.608 269.562 96.3253 269.914 96.112C270.276 95.8987 270.714 95.792 271.226 95.792C271.738 95.792 272.17 95.8987 272.522 96.112C272.884 96.3253 273.162 96.608 273.354 96.96C273.471 97.1733 273.551 97.4187 273.594 97.696C273.636 97.9733 273.658 98.2773 273.658 98.608V101.28C273.658 101.611 273.636 101.915 273.594 102.192C273.551 102.469 273.471 102.715 273.354 102.928C273.162 103.28 272.884 103.563 272.522 103.776C272.17 103.989 271.738 104.096 271.226 104.096C270.714 104.096 270.276 103.989 269.914 103.776C269.562 103.563 269.29 103.28 269.098 102.928C268.98 102.715 268.9 102.469 268.858 102.192C268.815 101.915 268.794 101.611 268.794 101.28V98.608ZM270.426 101.536C270.426 101.845 270.495 102.08 270.634 102.24C270.783 102.389 270.98 102.464 271.226 102.464C271.471 102.464 271.663 102.389 271.802 102.24C271.951 102.08 272.026 101.845 272.026 101.536V98.352C272.026 98.0427 271.951 97.8133 271.802 97.664C271.663 97.504 271.471 97.424 271.226 97.424C270.98 97.424 270.783 97.504 270.634 97.664C270.495 97.8133 270.426 98.0427 270.426 98.352V101.536ZM275.709 104V97.328H274.109V95.888H278.941V97.328H277.341V104H275.709ZM279.61 104V95.888H281.242V99.2H282.89V95.888H284.522V104H282.89V100.56H281.242V104H279.61ZM285.86 104V95.888H287.492V99.088H287.892C288.318 99.088 288.692 99.1307 289.012 99.216C289.342 99.2907 289.614 99.424 289.828 99.616C290.052 99.808 290.217 100.064 290.324 100.384C290.441 100.704 290.5 101.099 290.5 101.568C290.5 101.909 290.446 102.24 290.34 102.56C290.244 102.869 290.089 103.136 289.876 103.36C289.62 103.627 289.316 103.803 288.964 103.888C288.612 103.963 288.26 104 287.908 104H285.86ZM287.492 102.64H288.052C288.286 102.64 288.494 102.565 288.676 102.416C288.868 102.256 288.964 101.973 288.964 101.568C288.964 101.237 288.9 100.971 288.772 100.768C288.654 100.555 288.404 100.448 288.02 100.448H287.492V102.64ZM291.204 104V95.888H292.836V104H291.204ZM293.324 104L295.324 99.856L293.42 95.888H295.148L296.156 98.192L297.164 95.888H298.892L296.956 99.856L298.988 104H297.26L296.156 101.52L295.052 104H293.324ZM26.176 125V119.848H26.144L24.336 125H22.672V116.888H24.208V122.04H24.24L26.032 116.888H27.712V125H26.176ZM32.0314 128.28V116.888H33.6634V117.624C33.866 117.389 34.074 117.192 34.2874 117.032C34.5007 116.872 34.81 116.792 35.2154 116.792C35.8874 116.792 36.362 117.048 36.6394 117.56C36.7354 117.741 36.8047 117.965 36.8474 118.232C36.89 118.499 36.9114 118.856 36.9114 119.304V122.392C36.9114 122.989 36.8954 123.421 36.8634 123.688C36.7994 124.221 36.554 124.621 36.1274 124.888C35.914 125.027 35.6047 125.096 35.1994 125.096C34.8794 125.096 34.5914 125.027 34.3354 124.888C34.09 124.739 33.8767 124.531 33.6954 124.264H33.6634V128.28H32.0314ZM35.2794 119.528C35.2794 119.197 35.2154 118.931 35.0874 118.728C34.9594 118.525 34.7567 118.424 34.4794 118.424C34.234 118.424 34.0367 118.52 33.8874 118.712C33.738 118.893 33.6634 119.133 33.6634 119.432V122.584C33.6634 122.84 33.738 123.053 33.8874 123.224C34.0474 123.384 34.2447 123.464 34.4794 123.464C34.7887 123.464 34.9967 123.368 35.1034 123.176C35.2207 122.984 35.2794 122.76 35.2794 122.504V119.528ZM41.3381 125V124.168H41.3061C41.0928 124.467 40.8741 124.696 40.6501 124.856C40.4368 125.016 40.1328 125.096 39.7381 125.096C39.5461 125.096 39.3488 125.064 39.1461 125C38.9541 124.947 38.7675 124.84 38.5861 124.68C38.4048 124.531 38.2555 124.317 38.1381 124.04C38.0315 123.752 37.9781 123.384 37.9781 122.936C37.9781 122.477 38.0155 122.077 38.0901 121.736C38.1648 121.384 38.3035 121.091 38.5061 120.856C38.6981 120.632 38.9595 120.467 39.2901 120.36C39.6208 120.243 40.0421 120.184 40.5541 120.184C40.6075 120.184 40.6661 120.184 40.7301 120.184C40.7941 120.184 40.8528 120.189 40.9061 120.2C40.9595 120.211 41.0235 120.216 41.0981 120.216C41.1728 120.216 41.2528 120.221 41.3381 120.232V119.384C41.3381 119.107 41.2795 118.877 41.1621 118.696C41.0448 118.515 40.8315 118.424 40.5221 118.424C40.3088 118.424 40.1115 118.493 39.9301 118.632C39.7595 118.771 39.6475 118.973 39.5941 119.24H38.0101C38.0528 118.515 38.2981 117.928 38.7461 117.48C38.9595 117.267 39.2155 117.101 39.5141 116.984C39.8128 116.856 40.1488 116.792 40.5221 116.792C40.8635 116.792 41.1835 116.845 41.4821 116.952C41.7808 117.059 42.0421 117.219 42.2661 117.432C42.4795 117.645 42.6501 117.912 42.7781 118.232C42.9061 118.552 42.9701 118.925 42.9701 119.352V125H41.3381ZM41.3381 121.512C41.1568 121.48 41.0075 121.464 40.8901 121.464C40.5381 121.464 40.2341 121.549 39.9781 121.72C39.7328 121.88 39.6101 122.179 39.6101 122.616C39.6101 122.925 39.6848 123.176 39.8341 123.368C39.9835 123.56 40.1915 123.656 40.4581 123.656C40.7355 123.656 40.9488 123.565 41.0981 123.384C41.2581 123.203 41.3381 122.947 41.3381 122.616V121.512ZM43.804 119.16C43.8253 118.84 43.8947 118.541 44.012 118.264C44.14 117.976 44.3053 117.725 44.508 117.512C44.7213 117.288 44.972 117.112 45.26 116.984C45.548 116.856 45.8627 116.792 46.204 116.792C46.5453 116.792 46.8707 116.851 47.18 116.968C47.5 117.075 47.772 117.235 47.996 117.448C48.2093 117.651 48.3747 117.896 48.492 118.184C48.62 118.461 48.684 118.776 48.684 119.128C48.684 119.245 48.6733 119.384 48.652 119.544C48.6307 119.693 48.5827 119.848 48.508 120.008C48.444 120.168 48.3427 120.328 48.204 120.488C48.076 120.637 47.9 120.765 47.676 120.872C47.9107 120.957 48.1027 121.064 48.252 121.192C48.412 121.32 48.5293 121.464 48.604 121.624C48.6893 121.784 48.748 121.955 48.78 122.136C48.812 122.307 48.828 122.477 48.828 122.648C48.828 122.979 48.7747 123.277 48.668 123.544C48.5613 123.811 48.4013 124.061 48.188 124.296C47.9533 124.552 47.6653 124.749 47.324 124.888C46.9933 125.027 46.6307 125.096 46.236 125.096C45.4787 125.096 44.8653 124.845 44.396 124.344C43.98 123.896 43.756 123.331 43.724 122.648H45.26C45.2813 122.936 45.3667 123.16 45.516 123.32C45.676 123.48 45.9107 123.56 46.22 123.56C46.4973 123.56 46.716 123.48 46.876 123.32C47.0467 123.149 47.132 122.904 47.132 122.584C47.132 122.275 47.0627 122.029 46.924 121.848C46.796 121.656 46.556 121.56 46.204 121.56H45.692V120.2H46.14C46.46 120.2 46.6893 120.12 46.828 119.96C46.9773 119.8 47.052 119.539 47.052 119.176C47.052 118.941 46.9773 118.744 46.828 118.584C46.6787 118.413 46.4707 118.328 46.204 118.328C45.9907 118.328 45.7987 118.392 45.628 118.52C45.4573 118.637 45.3613 118.851 45.34 119.16H43.804ZM50.6111 125V126.6H49.2351V123.64H49.9711C50.0885 123.416 50.1898 123.117 50.2751 122.744C50.3711 122.371 50.4458 121.976 50.4991 121.56C50.5418 121.219 50.5685 120.867 50.5791 120.504C50.5898 120.141 50.5951 119.811 50.5951 119.512V116.888H55.0751V123.64H55.8431V126.6H54.4671V125H50.6111ZM52.1311 118.248V119.464C52.1311 119.603 52.1258 119.773 52.1151 119.976C52.1045 120.168 52.0885 120.371 52.0671 120.584C52.0565 120.787 52.0405 120.989 52.0191 121.192C52.0085 121.384 51.9925 121.549 51.9711 121.688C51.9285 121.965 51.8591 122.296 51.7631 122.68C51.6778 123.053 51.5765 123.373 51.4591 123.64H53.4431V118.248H52.1311ZM61.2983 121.56H58.0663V122.664C58.0663 122.92 58.1356 123.117 58.2743 123.256C58.4236 123.395 58.6209 123.464 58.8663 123.464C59.1756 123.464 59.3783 123.373 59.4743 123.192C59.5809 123.011 59.6449 122.829 59.6663 122.648H61.2983C61.2983 123.363 61.0796 123.939 60.6423 124.376C60.4289 124.6 60.1729 124.776 59.8743 124.904C59.5756 125.032 59.2396 125.096 58.8663 125.096C58.3543 125.096 57.9169 124.989 57.5543 124.776C57.2023 124.563 56.9303 124.28 56.7383 123.928C56.6209 123.715 56.5409 123.469 56.4983 123.192C56.4556 122.915 56.4342 122.611 56.4342 122.28V119.608C56.4342 119.277 56.4556 118.973 56.4983 118.696C56.5409 118.419 56.6209 118.173 56.7383 117.96C56.9303 117.608 57.2023 117.325 57.5543 117.112C57.9169 116.899 58.3543 116.792 58.8663 116.792C59.2396 116.792 59.5756 116.856 59.8743 116.984C60.1836 117.112 60.4449 117.288 60.6583 117.512C61.0849 117.992 61.2983 118.595 61.2983 119.32V121.56ZM58.0663 120.28H59.6663V119.352C59.6663 119.043 59.5916 118.813 59.4423 118.664C59.3036 118.504 59.1116 118.424 58.8663 118.424C58.6209 118.424 58.4236 118.504 58.2743 118.664C58.1356 118.813 58.0663 119.043 58.0663 119.352V120.28ZM61.862 123.464C61.9793 123.464 62.0967 123.432 62.214 123.368C62.342 123.304 62.47 123.192 62.598 123.032C62.7047 122.904 62.79 122.723 62.854 122.488C62.918 122.243 62.966 121.992 62.998 121.736C63.03 121.469 63.0513 121.219 63.062 120.984C63.0727 120.739 63.078 120.552 63.078 120.424V116.888H67.558V125H65.926V118.248H64.614V119.752C64.614 120.125 64.6033 120.504 64.582 120.888C64.5607 121.261 64.5233 121.624 64.47 121.976C64.4273 122.317 64.3687 122.637 64.294 122.936C64.2193 123.235 64.1233 123.491 64.006 123.704C63.782 124.12 63.4887 124.44 63.126 124.664C62.7633 124.888 62.3527 125 61.894 125H61.782V123.464H61.862ZM68.9064 125V116.888H70.5384V120.088H70.9384C71.365 120.088 71.7384 120.131 72.0584 120.216C72.389 120.291 72.661 120.424 72.8744 120.616C73.0984 120.808 73.2637 121.064 73.3704 121.384C73.4877 121.704 73.5464 122.099 73.5464 122.568C73.5464 122.909 73.493 123.24 73.3864 123.56C73.2904 123.869 73.1357 124.136 72.9224 124.36C72.6664 124.627 72.3624 124.803 72.0104 124.888C71.6584 124.963 71.3064 125 70.9544 125H68.9064ZM70.5384 123.64H71.0984C71.333 123.64 71.541 123.565 71.7224 123.416C71.9144 123.256 72.0104 122.973 72.0104 122.568C72.0104 122.237 71.9464 121.971 71.8184 121.768C71.701 121.555 71.4504 121.448 71.0664 121.448H70.5384V123.64ZM74.2504 125V116.888H75.8824V125H74.2504ZM77.2189 125V116.888H79.3309C79.6509 116.888 79.9815 116.92 80.3229 116.984C80.6642 117.048 80.9735 117.197 81.2509 117.432C81.5069 117.645 81.6829 117.896 81.7789 118.184C81.8855 118.472 81.9389 118.787 81.9389 119.128C81.9389 119.245 81.9282 119.384 81.9069 119.544C81.8855 119.693 81.8429 119.848 81.7789 120.008C81.7149 120.168 81.6189 120.328 81.4909 120.488C81.3735 120.637 81.2135 120.765 81.0109 120.872C81.2349 120.957 81.4162 121.064 81.5549 121.192C81.6935 121.32 81.8002 121.464 81.8749 121.624C81.9602 121.784 82.0135 121.955 82.0349 122.136C82.0669 122.307 82.0829 122.477 82.0829 122.648C82.0829 122.989 82.0349 123.304 81.9389 123.592C81.8535 123.88 81.7042 124.136 81.4909 124.36C81.2349 124.627 80.9202 124.803 80.5469 124.888C80.1735 124.963 79.8109 125 79.4589 125H77.2189ZM78.8509 123.64H79.5069C79.6242 123.64 79.7362 123.629 79.8429 123.608C79.9602 123.576 80.0615 123.523 80.1469 123.448C80.2429 123.373 80.3175 123.272 80.3709 123.144C80.4242 123.016 80.4509 122.851 80.4509 122.648C80.4509 122.317 80.3869 122.051 80.2589 121.848C80.1415 121.635 79.8909 121.528 79.5069 121.528H78.8509V123.64ZM78.8509 120.248H79.4909C79.8215 120.248 80.0509 120.147 80.1789 119.944C80.3069 119.741 80.3709 119.469 80.3709 119.128C80.3709 118.883 80.2962 118.675 80.1469 118.504C79.9975 118.333 79.7895 118.248 79.5229 118.248H78.8509V120.248ZM86.3381 125V124.168H86.3061C86.0928 124.467 85.8741 124.696 85.6501 124.856C85.4368 125.016 85.1328 125.096 84.7381 125.096C84.5461 125.096 84.3488 125.064 84.1461 125C83.9541 124.947 83.7675 124.84 83.5861 124.68C83.4048 124.531 83.2555 124.317 83.1381 124.04C83.0315 123.752 82.9781 123.384 82.9781 122.936C82.9781 122.477 83.0155 122.077 83.0901 121.736C83.1648 121.384 83.3035 121.091 83.5061 120.856C83.6981 120.632 83.9595 120.467 84.2901 120.36C84.6208 120.243 85.0421 120.184 85.5541 120.184C85.6075 120.184 85.6661 120.184 85.7301 120.184C85.7941 120.184 85.8528 120.189 85.9061 120.2C85.9595 120.211 86.0235 120.216 86.0981 120.216C86.1728 120.216 86.2528 120.221 86.3381 120.232V119.384C86.3381 119.107 86.2795 118.877 86.1621 118.696C86.0448 118.515 85.8315 118.424 85.5221 118.424C85.3088 118.424 85.1115 118.493 84.9301 118.632C84.7595 118.771 84.6475 118.973 84.5941 119.24H83.0101C83.0528 118.515 83.2981 117.928 83.7461 117.48C83.9595 117.267 84.2155 117.101 84.5141 116.984C84.8128 116.856 85.1488 116.792 85.5221 116.792C85.8635 116.792 86.1835 116.845 86.4821 116.952C86.7808 117.059 87.0421 117.219 87.2661 117.432C87.4795 117.645 87.6501 117.912 87.7781 118.232C87.9061 118.552 87.9701 118.925 87.9701 119.352V125H86.3381ZM86.3381 121.512C86.1568 121.48 86.0075 121.464 85.8901 121.464C85.5381 121.464 85.2341 121.549 84.9781 121.72C84.7328 121.88 84.6101 122.179 84.6101 122.616C84.6101 122.925 84.6848 123.176 84.8341 123.368C84.9835 123.56 85.1915 123.656 85.4581 123.656C85.7355 123.656 85.9488 123.565 86.0981 123.384C86.2581 123.203 86.3381 122.947 86.3381 122.616V121.512ZM93.892 121.56H90.66V122.664C90.66 122.92 90.7293 123.117 90.868 123.256C91.0173 123.395 91.2147 123.464 91.46 123.464C91.7693 123.464 91.972 123.373 92.068 123.192C92.1747 123.011 92.2387 122.829 92.26 122.648H93.892C93.892 123.363 93.6733 123.939 93.236 124.376C93.0227 124.6 92.7667 124.776 92.468 124.904C92.1693 125.032 91.8333 125.096 91.46 125.096C90.948 125.096 90.5107 124.989 90.148 124.776C89.796 124.563 89.524 124.28 89.332 123.928C89.2147 123.715 89.1347 123.469 89.092 123.192C89.0493 122.915 89.028 122.611 89.028 122.28V119.608C89.028 119.277 89.0493 118.973 89.092 118.696C89.1347 118.419 89.2147 118.173 89.332 117.96C89.524 117.608 89.796 117.325 90.148 117.112C90.5107 116.899 90.948 116.792 91.46 116.792C91.8333 116.792 92.1693 116.856 92.468 116.984C92.7773 117.112 93.0387 117.288 93.252 117.512C93.6787 117.992 93.892 118.595 93.892 119.32V121.56ZM90.66 120.28H92.26V119.352C92.26 119.043 92.1853 118.813 92.036 118.664C91.8973 118.504 91.7053 118.424 91.46 118.424C91.2147 118.424 91.0173 118.504 90.868 118.664C90.7293 118.813 90.66 119.043 90.66 119.352V120.28ZM95.0939 125V116.888H96.7579L98.4059 121.24H98.4379L100.086 116.888H101.75V125H100.182V120.088H100.15L98.8379 123.672H98.0059L96.6939 120.088H96.6619V125H95.0939ZM107.791 122.664C107.791 122.92 107.86 123.117 107.999 123.256C108.148 123.395 108.345 123.464 108.591 123.464C108.9 123.464 109.103 123.373 109.199 123.192C109.305 123.011 109.369 122.829 109.391 122.648H111.023C111.023 123.363 110.804 123.939 110.367 124.376C110.153 124.6 109.897 124.776 109.599 124.904C109.3 125.032 108.964 125.096 108.591 125.096C108.079 125.096 107.641 124.989 107.279 124.776C106.927 124.563 106.655 124.28 106.463 123.928C106.345 123.715 106.265 123.469 106.223 123.192C106.18 122.915 106.159 122.611 106.159 122.28V119.608C106.159 119.277 106.18 118.973 106.223 118.696C106.265 118.419 106.345 118.173 106.463 117.96C106.655 117.608 106.927 117.325 107.279 117.112C107.641 116.899 108.079 116.792 108.591 116.792C108.964 116.792 109.3 116.856 109.599 116.984C109.908 117.112 110.169 117.288 110.383 117.512C110.809 117.992 111.023 118.616 111.023 119.384H109.391C109.391 119.053 109.316 118.813 109.167 118.664C109.028 118.504 108.836 118.424 108.591 118.424C108.345 118.424 108.148 118.504 107.999 118.664C107.86 118.813 107.791 119.043 107.791 119.352V122.664ZM111.985 125V116.888H114.097C114.417 116.888 114.747 116.92 115.089 116.984C115.43 117.048 115.739 117.197 116.016 117.432C116.273 117.645 116.449 117.896 116.545 118.184C116.651 118.472 116.705 118.787 116.705 119.128C116.705 119.245 116.694 119.384 116.673 119.544C116.651 119.693 116.609 119.848 116.545 120.008C116.481 120.168 116.385 120.328 116.257 120.488C116.139 120.637 115.979 120.765 115.777 120.872C116.001 120.957 116.182 121.064 116.321 121.192C116.459 121.32 116.566 121.464 116.641 121.624C116.726 121.784 116.779 121.955 116.801 122.136C116.833 122.307 116.849 122.477 116.849 122.648C116.849 122.989 116.801 123.304 116.705 123.592C116.619 123.88 116.47 124.136 116.257 124.36C116.001 124.627 115.686 124.803 115.312 124.888C114.939 124.963 114.577 125 114.225 125H111.985ZM113.617 123.64H114.273C114.39 123.64 114.502 123.629 114.609 123.608C114.726 123.576 114.827 123.523 114.913 123.448C115.009 123.373 115.083 123.272 115.137 123.144C115.19 123.016 115.217 122.851 115.217 122.648C115.217 122.317 115.153 122.051 115.025 121.848C114.907 121.635 114.657 121.528 114.273 121.528H113.617V123.64ZM113.617 120.248H114.257C114.587 120.248 114.817 120.147 114.945 119.944C115.073 119.741 115.137 119.469 115.137 119.128C115.137 118.883 115.062 118.675 114.913 118.504C114.763 118.333 114.555 118.248 114.289 118.248H113.617V120.248ZM121.52 125V119.848H121.488L119.68 125H118.016V116.888H119.552V122.04H119.584L121.376 116.888H123.056V125H121.52ZM124.406 125V116.888H126.038V120.2H127.686V116.888H129.318V125H127.686V121.56H126.038V125H124.406ZM134.16 125V119.848H134.128L132.32 125H130.656V116.888H132.192V122.04H132.224L134.016 116.888H135.696V125H134.16ZM137.047 125V116.888H138.679V120.2H140.327V116.888H141.959V125H140.327V121.56H138.679V125H137.047ZM142.609 116.888H144.337L145.457 121.944H145.489L146.593 116.888H148.273L145.937 126.408C145.852 126.771 145.729 127.069 145.569 127.304C145.42 127.539 145.244 127.731 145.041 127.88C144.838 128.029 144.62 128.131 144.385 128.184C144.161 128.248 143.926 128.28 143.681 128.28H143.233V126.744H143.601C143.761 126.744 143.9 126.723 144.017 126.68C144.134 126.637 144.241 126.541 144.337 126.392C144.422 126.243 144.502 126.029 144.577 125.752C144.652 125.485 144.737 125.112 144.833 124.632L142.609 116.888ZM148.047 126.184V123.368H149.679V125L148.047 126.184ZM157.073 125V124.168H157.041C156.827 124.467 156.609 124.696 156.385 124.856C156.171 125.016 155.867 125.096 155.473 125.096C155.281 125.096 155.083 125.064 154.881 125C154.689 124.947 154.502 124.84 154.321 124.68C154.139 124.531 153.99 124.317 153.873 124.04C153.766 123.752 153.713 123.384 153.713 122.936C153.713 122.477 153.75 122.077 153.825 121.736C153.899 121.384 154.038 121.091 154.241 120.856C154.433 120.632 154.694 120.467 155.025 120.36C155.355 120.243 155.777 120.184 156.289 120.184C156.342 120.184 156.401 120.184 156.465 120.184C156.529 120.184 156.587 120.189 156.641 120.2C156.694 120.211 156.758 120.216 156.833 120.216C156.907 120.216 156.987 120.221 157.073 120.232V119.384C157.073 119.107 157.014 118.877 156.897 118.696C156.779 118.515 156.566 118.424 156.257 118.424C156.043 118.424 155.846 118.493 155.664 118.632C155.494 118.771 155.382 118.973 155.329 119.24H153.745C153.787 118.515 154.033 117.928 154.481 117.48C154.694 117.267 154.95 117.101 155.249 116.984C155.547 116.856 155.883 116.792 156.257 116.792C156.598 116.792 156.918 116.845 157.217 116.952C157.515 117.059 157.777 117.219 158.001 117.432C158.214 117.645 158.385 117.912 158.513 118.232C158.641 118.552 158.705 118.925 158.705 119.352V125H157.073ZM157.073 121.512C156.891 121.48 156.742 121.464 156.625 121.464C156.273 121.464 155.969 121.549 155.713 121.72C155.467 121.88 155.345 122.179 155.345 122.616C155.345 122.925 155.419 123.176 155.569 123.368C155.718 123.56 155.926 123.656 156.193 123.656C156.47 123.656 156.683 123.565 156.833 123.384C156.993 123.203 157.073 122.947 157.073 122.616V121.512ZM162.507 119.16C162.528 118.84 162.598 118.541 162.715 118.264C162.843 117.976 163.008 117.725 163.211 117.512C163.424 117.288 163.675 117.112 163.963 116.984C164.251 116.856 164.566 116.792 164.907 116.792C165.248 116.792 165.574 116.851 165.883 116.968C166.203 117.075 166.475 117.235 166.699 117.448C166.912 117.651 167.078 117.896 167.195 118.184C167.323 118.461 167.387 118.776 167.387 119.128C167.387 119.245 167.376 119.384 167.355 119.544C167.334 119.693 167.286 119.848 167.211 120.008C167.147 120.168 167.046 120.328 166.907 120.488C166.779 120.637 166.603 120.765 166.379 120.872C166.614 120.957 166.806 121.064 166.955 121.192C167.115 121.32 167.232 121.464 167.307 121.624C167.392 121.784 167.451 121.955 167.483 122.136C167.515 122.307 167.531 122.477 167.531 122.648C167.531 122.979 167.478 123.277 167.371 123.544C167.264 123.811 167.104 124.061 166.891 124.296C166.656 124.552 166.368 124.749 166.027 124.888C165.696 125.027 165.334 125.096 164.939 125.096C164.182 125.096 163.568 124.845 163.099 124.344C162.683 123.896 162.459 123.331 162.427 122.648H163.963C163.984 122.936 164.07 123.16 164.219 123.32C164.379 123.48 164.614 123.56 164.923 123.56C165.2 123.56 165.419 123.48 165.579 123.32C165.75 123.149 165.835 122.904 165.835 122.584C165.835 122.275 165.766 122.029 165.627 121.848C165.499 121.656 165.259 121.56 164.907 121.56H164.395V120.2H164.843C165.163 120.2 165.392 120.12 165.531 119.96C165.68 119.8 165.755 119.539 165.755 119.176C165.755 118.941 165.68 118.744 165.531 118.584C165.382 118.413 165.174 118.328 164.907 118.328C164.694 118.328 164.502 118.392 164.331 118.52C164.16 118.637 164.064 118.851 164.043 119.16H162.507ZM171.823 125V124.168H171.791C171.577 124.467 171.359 124.696 171.135 124.856C170.921 125.016 170.617 125.096 170.223 125.096C170.031 125.096 169.833 125.064 169.631 125C169.439 124.947 169.252 124.84 169.071 124.68C168.889 124.531 168.74 124.317 168.623 124.04C168.516 123.752 168.463 123.384 168.463 122.936C168.463 122.477 168.5 122.077 168.575 121.736C168.649 121.384 168.788 121.091 168.991 120.856C169.183 120.632 169.444 120.467 169.775 120.36C170.105 120.243 170.527 120.184 171.039 120.184C171.092 120.184 171.151 120.184 171.215 120.184C171.279 120.184 171.337 120.189 171.391 120.2C171.444 120.211 171.508 120.216 171.583 120.216C171.657 120.216 171.737 120.221 171.823 120.232V119.384C171.823 119.107 171.764 118.877 171.647 118.696C171.529 118.515 171.316 118.424 171.007 118.424C170.793 118.424 170.596 118.493 170.414 118.632C170.244 118.771 170.132 118.973 170.079 119.24H168.495C168.537 118.515 168.783 117.928 169.231 117.48C169.444 117.267 169.7 117.101 169.999 116.984C170.297 116.856 170.633 116.792 171.007 116.792C171.348 116.792 171.668 116.845 171.967 116.952C172.265 117.059 172.527 117.219 172.751 117.432C172.964 117.645 173.135 117.912 173.263 118.232C173.391 118.552 173.455 118.925 173.455 119.352V125H171.823ZM171.823 121.512C171.641 121.48 171.492 121.464 171.375 121.464C171.023 121.464 170.719 121.549 170.463 121.72C170.217 121.88 170.095 122.179 170.095 122.616C170.095 122.925 170.169 123.176 170.319 123.368C170.468 123.56 170.676 123.656 170.943 123.656C171.22 123.656 171.433 123.565 171.583 123.384C171.743 123.203 171.823 122.947 171.823 122.616V121.512ZM175.584 125V118.328H173.984V116.888H178.816V118.328H177.216V125H175.584ZM184.205 121.56H180.973V122.664C180.973 122.92 181.042 123.117 181.181 123.256C181.33 123.395 181.527 123.464 181.773 123.464C182.082 123.464 182.285 123.373 182.381 123.192C182.487 123.011 182.551 122.829 182.573 122.648H184.205C184.205 123.363 183.986 123.939 183.549 124.376C183.335 124.6 183.079 124.776 182.781 124.904C182.482 125.032 182.146 125.096 181.773 125.096C181.261 125.096 180.823 124.989 180.461 124.776C180.109 124.563 179.837 124.28 179.645 123.928C179.527 123.715 179.447 123.469 179.405 123.192C179.362 122.915 179.34 122.611 179.34 122.28V119.608C179.34 119.277 179.362 118.973 179.405 118.696C179.447 118.419 179.527 118.173 179.645 117.96C179.837 117.608 180.109 117.325 180.461 117.112C180.823 116.899 181.261 116.792 181.773 116.792C182.146 116.792 182.482 116.856 182.781 116.984C183.09 117.112 183.351 117.288 183.565 117.512C183.991 117.992 184.205 118.595 184.205 119.32V121.56ZM180.973 120.28H182.573V119.352C182.573 119.043 182.498 118.813 182.349 118.664C182.21 118.504 182.018 118.424 181.773 118.424C181.527 118.424 181.33 118.504 181.181 118.664C181.042 118.813 180.973 119.043 180.973 119.352V120.28ZM185.406 125V116.888H187.07L188.718 121.24H188.75L190.398 116.888H192.062V125H190.494V120.088H190.462L189.15 123.672H188.318L187.006 120.088H186.974V125H185.406ZM196.375 125V116.888H198.007V120.2H199.655V116.888H201.287V125H199.655V121.56H198.007V125H196.375ZM205.713 125V124.168H205.681C205.468 124.467 205.249 124.696 205.025 124.856C204.812 125.016 204.508 125.096 204.113 125.096C203.921 125.096 203.724 125.064 203.521 125C203.329 124.947 203.142 124.84 202.961 124.68C202.78 124.531 202.63 124.317 202.513 124.04C202.406 123.752 202.353 123.384 202.353 122.936C202.353 122.477 202.39 122.077 202.465 121.736C202.54 121.384 202.678 121.091 202.881 120.856C203.073 120.632 203.334 120.467 203.665 120.36C203.996 120.243 204.417 120.184 204.929 120.184C204.982 120.184 205.041 120.184 205.105 120.184C205.169 120.184 205.228 120.189 205.281 120.2C205.334 120.211 205.398 120.216 205.473 120.216C205.548 120.216 205.628 120.221 205.713 120.232V119.384C205.713 119.107 205.654 118.877 205.537 118.696C205.42 118.515 205.206 118.424 204.897 118.424C204.684 118.424 204.486 118.493 204.305 118.632C204.134 118.771 204.022 118.973 203.969 119.24H202.385C202.428 118.515 202.673 117.928 203.121 117.48C203.334 117.267 203.59 117.101 203.889 116.984C204.188 116.856 204.524 116.792 204.897 116.792C205.238 116.792 205.558 116.845 205.857 116.952C206.156 117.059 206.417 117.219 206.641 117.432C206.854 117.645 207.025 117.912 207.153 118.232C207.281 118.552 207.345 118.925 207.345 119.352V125H205.713ZM205.713 121.512C205.532 121.48 205.382 121.464 205.265 121.464C204.913 121.464 204.609 121.549 204.353 121.72C204.108 121.88 203.985 122.179 203.985 122.616C203.985 122.925 204.06 123.176 204.209 123.368C204.358 123.56 204.566 123.656 204.833 123.656C205.11 123.656 205.324 123.565 205.473 123.384C205.633 123.203 205.713 122.947 205.713 122.616V121.512ZM209.283 125V126.6H207.907V123.64H208.643C208.76 123.416 208.862 123.117 208.947 122.744C209.043 122.371 209.118 121.976 209.171 121.56C209.214 121.219 209.24 120.867 209.251 120.504C209.262 120.141 209.267 119.811 209.267 119.512V116.888H213.747V123.64H214.515V126.6H213.139V125H209.283ZM210.803 118.248V119.464C210.803 119.603 210.798 119.773 210.787 119.976C210.776 120.168 210.76 120.371 210.739 120.584C210.728 120.787 210.712 120.989 210.691 121.192C210.68 121.384 210.664 121.549 210.643 121.688C210.6 121.965 210.531 122.296 210.435 122.68C210.35 123.053 210.248 123.373 210.131 123.64H212.115V118.248H210.803ZM219.97 121.56H216.738V122.664C216.738 122.92 216.807 123.117 216.946 123.256C217.095 123.395 217.293 123.464 217.538 123.464C217.847 123.464 218.05 123.373 218.146 123.192C218.253 123.011 218.317 122.829 218.338 122.648H219.97C219.97 123.363 219.751 123.939 219.314 124.376C219.101 124.6 218.845 124.776 218.546 124.904C218.247 125.032 217.911 125.096 217.538 125.096C217.026 125.096 216.589 124.989 216.226 124.776C215.874 124.563 215.602 124.28 215.41 123.928C215.293 123.715 215.213 123.469 215.17 123.192C215.127 122.915 215.106 122.611 215.106 122.28V119.608C215.106 119.277 215.127 118.973 215.17 118.696C215.213 118.419 215.293 118.173 215.41 117.96C215.602 117.608 215.874 117.325 216.226 117.112C216.589 116.899 217.026 116.792 217.538 116.792C217.911 116.792 218.247 116.856 218.546 116.984C218.855 117.112 219.117 117.288 219.33 117.512C219.757 117.992 219.97 118.595 219.97 119.32V121.56ZM216.738 120.28H218.338V119.352C218.338 119.043 218.263 118.813 218.114 118.664C217.975 118.504 217.783 118.424 217.538 118.424C217.293 118.424 217.095 118.504 216.946 118.664C216.807 118.813 216.738 119.043 216.738 119.352V120.28ZM215.522 115.624V113.992H216.962V115.624H215.522ZM218.114 115.624V113.992H219.554V115.624H218.114ZM224.148 116.888H225.78V120.2H226.372C226.617 120.2 226.783 120.115 226.868 119.944C226.953 119.773 227.017 119.581 227.06 119.368L227.22 118.568C227.273 118.323 227.364 118.067 227.492 117.8C227.62 117.533 227.796 117.325 228.02 117.176C228.233 117.037 228.436 116.957 228.628 116.936C228.831 116.904 229.044 116.888 229.268 116.888H229.3V118.328H229.284C229.124 118.328 228.98 118.365 228.852 118.44C228.724 118.504 228.633 118.675 228.58 118.952L228.436 119.8C228.425 119.832 228.409 119.896 228.388 119.992C228.377 120.088 228.351 120.195 228.308 120.312C228.265 120.419 228.207 120.525 228.132 120.632C228.068 120.739 227.983 120.819 227.876 120.872L229.252 125H227.588L226.548 121.56H225.78V125H224.148V121.56H223.38L222.34 125H220.676L222.052 120.872C221.935 120.819 221.839 120.739 221.764 120.632C221.7 120.525 221.647 120.419 221.604 120.312C221.572 120.195 221.545 120.088 221.524 119.992C221.513 119.896 221.503 119.832 221.492 119.8L221.348 118.952C221.295 118.675 221.204 118.504 221.076 118.44C220.948 118.365 220.804 118.328 220.644 118.328H220.628V116.888H220.66C220.884 116.888 221.092 116.904 221.284 116.936C221.487 116.968 221.695 117.048 221.908 117.176C222.153 117.325 222.335 117.533 222.452 117.8C222.569 118.067 222.655 118.323 222.708 118.568L222.868 119.368C222.911 119.581 222.975 119.773 223.06 119.944C223.145 120.115 223.311 120.2 223.556 120.2H224.148V116.888ZM230.094 125V116.888H231.726V120.2H233.374V116.888H235.006V125H233.374V121.56H231.726V125H230.094ZM236.2 119.608C236.2 119.277 236.221 118.973 236.264 118.696C236.307 118.419 236.387 118.173 236.504 117.96C236.696 117.608 236.968 117.325 237.32 117.112C237.683 116.899 238.12 116.792 238.632 116.792C239.144 116.792 239.576 116.899 239.928 117.112C240.291 117.325 240.568 117.608 240.76 117.96C240.877 118.173 240.957 118.419 241 118.696C241.043 118.973 241.064 119.277 241.064 119.608V122.28C241.064 122.611 241.043 122.915 241 123.192C240.957 123.469 240.877 123.715 240.76 123.928C240.568 124.28 240.291 124.563 239.928 124.776C239.576 124.989 239.144 125.096 238.632 125.096C238.12 125.096 237.683 124.989 237.32 124.776C236.968 124.563 236.696 124.28 236.504 123.928C236.387 123.715 236.307 123.469 236.264 123.192C236.221 122.915 236.2 122.611 236.2 122.28V119.608ZM237.832 122.536C237.832 122.845 237.901 123.08 238.04 123.24C238.189 123.389 238.387 123.464 238.632 123.464C238.877 123.464 239.069 123.389 239.208 123.24C239.357 123.08 239.432 122.845 239.432 122.536V119.352C239.432 119.043 239.357 118.813 239.208 118.664C239.069 118.504 238.877 118.424 238.632 118.424C238.387 118.424 238.189 118.504 238.04 118.664C237.901 118.813 237.832 119.043 237.832 119.352V122.536ZM21.984 137.888H23.712L24.832 142.944H24.864L25.968 137.888H27.648L25.312 147.408C25.2267 147.771 25.104 148.069 24.944 148.304C24.7947 148.539 24.6187 148.731 24.416 148.88C24.2133 149.029 23.9947 149.131 23.76 149.184C23.536 149.248 23.3013 149.28 23.056 149.28H22.608V147.744H22.976C23.136 147.744 23.2747 147.723 23.392 147.68C23.5093 147.637 23.616 147.541 23.712 147.392C23.7973 147.243 23.8773 147.029 23.952 146.752C24.0267 146.485 24.112 146.112 24.208 145.632L21.984 137.888ZM28.297 146V137.888H33.177V146H31.545V139.248H29.929V146H28.297ZM37.5413 146V145.168H37.5093C37.2959 145.467 37.0773 145.696 36.8533 145.856C36.6399 146.016 36.3359 146.096 35.9413 146.096C35.7493 146.096 35.5519 146.064 35.3493 146C35.1573 145.947 34.9706 145.84 34.7893 145.68C34.6079 145.531 34.4586 145.317 34.3413 145.04C34.2346 144.752 34.1813 144.384 34.1813 143.936C34.1813 143.477 34.2186 143.077 34.2933 142.736C34.3679 142.384 34.5066 142.091 34.7093 141.856C34.9013 141.632 35.1626 141.467 35.4933 141.36C35.8239 141.243 36.2453 141.184 36.7573 141.184C36.8106 141.184 36.8693 141.184 36.9333 141.184C36.9973 141.184 37.0559 141.189 37.1093 141.2C37.1626 141.211 37.2266 141.216 37.3013 141.216C37.3759 141.216 37.4559 141.221 37.5413 141.232V140.384C37.5413 140.107 37.4826 139.877 37.3653 139.696C37.2479 139.515 37.0346 139.424 36.7253 139.424C36.5119 139.424 36.3146 139.493 36.1332 139.632C35.9626 139.771 35.8506 139.973 35.7973 140.24H34.2133C34.2559 139.515 34.5013 138.928 34.9493 138.48C35.1626 138.267 35.4186 138.101 35.7173 137.984C36.0159 137.856 36.3519 137.792 36.7253 137.792C37.0666 137.792 37.3866 137.845 37.6853 137.952C37.9839 138.059 38.2453 138.219 38.4693 138.432C38.6826 138.645 38.8533 138.912 38.9813 139.232C39.1093 139.552 39.1733 139.925 39.1733 140.352V146H37.5413ZM37.5413 142.512C37.3599 142.48 37.2106 142.464 37.0933 142.464C36.7413 142.464 36.4373 142.549 36.1813 142.72C35.9359 142.88 35.8133 143.179 35.8133 143.616C35.8133 143.925 35.8879 144.176 36.0373 144.368C36.1866 144.56 36.3946 144.656 36.6613 144.656C36.9386 144.656 37.1519 144.565 37.3013 144.384C37.4613 144.203 37.5413 143.947 37.5413 143.616V142.512ZM40.3751 146V137.888H42.0071V141.2H42.6311C42.8765 141.2 43.0418 141.115 43.1271 140.944C43.2125 140.773 43.2818 140.56 43.3351 140.304L43.5111 139.376C43.5751 139.131 43.6551 138.912 43.7511 138.72C43.8578 138.517 43.9965 138.357 44.1671 138.24C44.3485 138.112 44.5565 138.021 44.7911 137.968C45.0365 137.915 45.3138 137.888 45.6231 137.888H45.6551V139.328H45.6071C45.4151 139.328 45.2551 139.365 45.1271 139.44C44.9991 139.504 44.9085 139.659 44.8551 139.904L44.6951 140.8C44.6845 140.832 44.6685 140.896 44.6471 140.992C44.6365 141.088 44.6098 141.195 44.5671 141.312C44.5245 141.419 44.4658 141.525 44.3911 141.632C44.3271 141.739 44.2418 141.819 44.1351 141.872L45.7671 146H44.1031L42.8071 142.56H42.0071V146H40.3751ZM46.4186 140.608C46.4186 140.277 46.44 139.973 46.4826 139.696C46.5253 139.419 46.6053 139.173 46.7226 138.96C46.9146 138.608 47.1866 138.325 47.5386 138.112C47.9013 137.899 48.3386 137.792 48.8506 137.792C49.3626 137.792 49.7946 137.899 50.1466 138.112C50.5093 138.325 50.7866 138.608 50.9786 138.96C51.096 139.173 51.176 139.419 51.2186 139.696C51.2613 139.973 51.2826 140.277 51.2826 140.608V143.28C51.2826 143.611 51.2613 143.915 51.2186 144.192C51.176 144.469 51.096 144.715 50.9786 144.928C50.7866 145.28 50.5093 145.563 50.1466 145.776C49.7946 145.989 49.3626 146.096 48.8506 146.096C48.3386 146.096 47.9013 145.989 47.5386 145.776C47.1866 145.563 46.9146 145.28 46.7226 144.928C46.6053 144.715 46.5253 144.469 46.4826 144.192C46.44 143.915 46.4186 143.611 46.4186 143.28V140.608ZM48.0506 143.536C48.0506 143.845 48.12 144.08 48.2586 144.24C48.408 144.389 48.6053 144.464 48.8506 144.464C49.096 144.464 49.288 144.389 49.4266 144.24C49.576 144.08 49.6506 143.845 49.6506 143.536V140.352C49.6506 140.043 49.576 139.813 49.4266 139.664C49.288 139.504 49.096 139.424 48.8506 139.424C48.6053 139.424 48.408 139.504 48.2586 139.664C48.12 139.813 48.0506 140.043 48.0506 140.352V143.536ZM52.4845 146V137.888H54.5965C54.9165 137.888 55.2472 137.92 55.5885 137.984C55.9298 138.048 56.2392 138.197 56.5165 138.432C56.7725 138.645 56.9485 138.896 57.0445 139.184C57.1512 139.472 57.2045 139.787 57.2045 140.128C57.2045 140.245 57.1938 140.384 57.1725 140.544C57.1512 140.693 57.1085 140.848 57.0445 141.008C56.9805 141.168 56.8845 141.328 56.7565 141.488C56.6392 141.637 56.4792 141.765 56.2765 141.872C56.5005 141.957 56.6818 142.064 56.8205 142.192C56.9592 142.32 57.0658 142.464 57.1405 142.624C57.2258 142.784 57.2792 142.955 57.3005 143.136C57.3325 143.307 57.3485 143.477 57.3485 143.648C57.3485 143.989 57.3005 144.304 57.2045 144.592C57.1192 144.88 56.9698 145.136 56.7565 145.36C56.5005 145.627 56.1858 145.803 55.8125 145.888C55.4392 145.963 55.0765 146 54.7245 146H52.4845ZM54.1165 144.64H54.7725C54.8898 144.64 55.0018 144.629 55.1085 144.608C55.2258 144.576 55.3272 144.523 55.4125 144.448C55.5085 144.373 55.5832 144.272 55.6365 144.144C55.6898 144.016 55.7165 143.851 55.7165 143.648C55.7165 143.317 55.6525 143.051 55.5245 142.848C55.4072 142.635 55.1565 142.528 54.7725 142.528H54.1165V144.64ZM54.1165 141.248H54.7565C55.0872 141.248 55.3165 141.147 55.4445 140.944C55.5725 140.741 55.6365 140.469 55.6365 140.128C55.6365 139.883 55.5618 139.675 55.4125 139.504C55.2632 139.333 55.0552 139.248 54.7885 139.248H54.1165V141.248ZM58.5158 146V137.888H60.1478V141.088H60.5478C60.9744 141.088 61.3478 141.131 61.6678 141.216C61.9984 141.291 62.2704 141.424 62.4838 141.616C62.7078 141.808 62.8731 142.064 62.9798 142.384C63.0971 142.704 63.1558 143.099 63.1558 143.568C63.1558 143.909 63.1024 144.24 62.9958 144.56C62.8998 144.869 62.7451 145.136 62.5318 145.36C62.2758 145.627 61.9718 145.803 61.6198 145.888C61.2678 145.963 60.9158 146 60.5638 146H58.5158ZM60.1478 144.64H60.7078C60.9424 144.64 61.1504 144.565 61.3318 144.416C61.5238 144.256 61.6198 143.973 61.6198 143.568C61.6198 143.237 61.5558 142.971 61.4278 142.768C61.3104 142.555 61.0598 142.448 60.6758 142.448H60.1478V144.64ZM63.8598 146V137.888H65.4918V146H63.8598ZM66.8283 146V137.888H68.9403C69.2603 137.888 69.5909 137.92 69.9323 137.984C70.2736 138.048 70.5829 138.197 70.8602 138.432C71.1163 138.645 71.2923 138.896 71.3883 139.184C71.4949 139.472 71.5483 139.787 71.5483 140.128C71.5483 140.245 71.5376 140.384 71.5163 140.544C71.4949 140.693 71.4523 140.848 71.3883 141.008C71.3243 141.168 71.2283 141.328 71.1003 141.488C70.9829 141.637 70.8229 141.765 70.6203 141.872C70.8443 141.957 71.0256 142.064 71.1643 142.192C71.3029 142.32 71.4096 142.464 71.4843 142.624C71.5696 142.784 71.6229 142.955 71.6443 143.136C71.6763 143.307 71.6923 143.477 71.6923 143.648C71.6923 143.989 71.6443 144.304 71.5483 144.592C71.4629 144.88 71.3136 145.136 71.1003 145.36C70.8443 145.627 70.5296 145.803 70.1562 145.888C69.7829 145.963 69.4203 146 69.0683 146H66.8283ZM68.4603 144.64H69.1163C69.2336 144.64 69.3456 144.629 69.4523 144.608C69.5696 144.576 69.6709 144.523 69.7563 144.448C69.8523 144.373 69.9269 144.272 69.9803 144.144C70.0336 144.016 70.0603 143.851 70.0603 143.648C70.0603 143.317 69.9963 143.051 69.8683 142.848C69.7509 142.635 69.5003 142.528 69.1163 142.528H68.4603V144.64ZM68.4603 141.248H69.1003C69.4309 141.248 69.6603 141.147 69.7883 140.944C69.9163 140.741 69.9803 140.469 69.9803 140.128C69.9803 139.883 69.9056 139.675 69.7563 139.504C69.6069 139.333 69.3989 139.248 69.1323 139.248H68.4603V141.248ZM75.9475 146V145.168H75.9155C75.7022 145.467 75.4835 145.696 75.2595 145.856C75.0462 146.016 74.7422 146.096 74.3475 146.096C74.1555 146.096 73.9582 146.064 73.7555 146C73.5635 145.947 73.3768 145.84 73.1955 145.68C73.0142 145.531 72.8648 145.317 72.7475 145.04C72.6408 144.752 72.5875 144.384 72.5875 143.936C72.5875 143.477 72.6248 143.077 72.6995 142.736C72.7742 142.384 72.9128 142.091 73.1155 141.856C73.3075 141.632 73.5688 141.467 73.8995 141.36C74.2302 141.243 74.6515 141.184 75.1635 141.184C75.2168 141.184 75.2755 141.184 75.3395 141.184C75.4035 141.184 75.4622 141.189 75.5155 141.2C75.5688 141.211 75.6328 141.216 75.7075 141.216C75.7822 141.216 75.8622 141.221 75.9475 141.232V140.384C75.9475 140.107 75.8888 139.877 75.7715 139.696C75.6542 139.515 75.4408 139.424 75.1315 139.424C74.9182 139.424 74.7208 139.493 74.5395 139.632C74.3688 139.771 74.2568 139.973 74.2035 140.24H72.6195C72.6622 139.515 72.9075 138.928 73.3555 138.48C73.5688 138.267 73.8248 138.101 74.1235 137.984C74.4222 137.856 74.7582 137.792 75.1315 137.792C75.4728 137.792 75.7928 137.845 76.0915 137.952C76.3902 138.059 76.6515 138.219 76.8755 138.432C77.0888 138.645 77.2595 138.912 77.3875 139.232C77.5155 139.552 77.5795 139.925 77.5795 140.352V146H75.9475ZM75.9475 142.512C75.7662 142.48 75.6168 142.464 75.4995 142.464C75.1475 142.464 74.8435 142.549 74.5875 142.72C74.3422 142.88 74.2195 143.179 74.2195 143.616C74.2195 143.925 74.2942 144.176 74.4435 144.368C74.5928 144.56 74.8008 144.656 75.0675 144.656C75.3448 144.656 75.5582 144.565 75.7075 144.384C75.8675 144.203 75.9475 143.947 75.9475 143.616V142.512ZM83.5014 142.56H80.2694V143.664C80.2694 143.92 80.3387 144.117 80.4774 144.256C80.6267 144.395 80.824 144.464 81.0694 144.464C81.3787 144.464 81.5814 144.373 81.6774 144.192C81.784 144.011 81.848 143.829 81.8694 143.648H83.5014C83.5014 144.363 83.2827 144.939 82.8454 145.376C82.632 145.6 82.376 145.776 82.0774 145.904C81.7787 146.032 81.4427 146.096 81.0694 146.096C80.5574 146.096 80.12 145.989 79.7574 145.776C79.4054 145.563 79.1334 145.28 78.9414 144.928C78.824 144.715 78.744 144.469 78.7014 144.192C78.6587 143.915 78.6374 143.611 78.6374 143.28V140.608C78.6374 140.277 78.6587 139.973 78.7014 139.696C78.744 139.419 78.824 139.173 78.9414 138.96C79.1334 138.608 79.4054 138.325 79.7574 138.112C80.12 137.899 80.5574 137.792 81.0694 137.792C81.4427 137.792 81.7787 137.856 82.0774 137.984C82.3867 138.112 82.648 138.288 82.8614 138.512C83.288 138.992 83.5014 139.595 83.5014 140.32V142.56ZM80.2694 141.28H81.8694V140.352C81.8694 140.043 81.7947 139.813 81.6454 139.664C81.5067 139.504 81.3147 139.424 81.0694 139.424C80.824 139.424 80.6267 139.504 80.4774 139.664C80.3387 139.813 80.2694 140.043 80.2694 140.352V141.28ZM84.7033 146V137.888H86.3673L88.0153 142.24H88.0473L89.6953 137.888H91.3593V146H89.7913V141.088H89.7593L88.4473 144.672H87.6153L86.3033 141.088H86.2713V146H84.7033ZM95.672 146V137.888H97.336L98.984 142.24H99.016L100.664 137.888H102.328V146H100.76V141.088H100.728L99.416 144.672H98.584L97.272 141.088H97.24V146H95.672ZM106.664 146V142.768H105.96L104.936 146H103.272L104.488 142.528C104.243 142.421 104.045 142.272 103.896 142.08C103.757 141.888 103.651 141.685 103.576 141.472C103.512 141.259 103.469 141.051 103.448 140.848C103.437 140.645 103.432 140.485 103.432 140.368C103.432 140.027 103.491 139.669 103.608 139.296C103.725 138.923 103.923 138.624 104.2 138.4C104.477 138.165 104.771 138.021 105.08 137.968C105.4 137.915 105.72 137.888 106.04 137.888H108.296V146H106.664ZM106.664 139.248H105.864C105.544 139.248 105.331 139.365 105.224 139.6C105.117 139.835 105.064 140.112 105.064 140.432C105.064 141.125 105.363 141.472 105.96 141.472H106.664V139.248ZM111.369 143.664C111.369 143.92 111.438 144.117 111.577 144.256C111.726 144.395 111.923 144.464 112.169 144.464C112.478 144.464 112.681 144.373 112.777 144.192C112.883 144.011 112.947 143.829 112.969 143.648H114.601C114.601 144.363 114.382 144.939 113.945 145.376C113.731 145.6 113.475 145.776 113.177 145.904C112.878 146.032 112.542 146.096 112.169 146.096C111.657 146.096 111.219 145.989 110.857 145.776C110.505 145.563 110.233 145.28 110.041 144.928C109.923 144.715 109.843 144.469 109.801 144.192C109.758 143.915 109.737 143.611 109.737 143.28V140.608C109.737 140.277 109.758 139.973 109.801 139.696C109.843 139.419 109.923 139.173 110.041 138.96C110.233 138.608 110.505 138.325 110.857 138.112C111.219 137.899 111.657 137.792 112.169 137.792C112.542 137.792 112.878 137.856 113.177 137.984C113.486 138.112 113.747 138.288 113.961 138.512C114.387 138.992 114.601 139.616 114.601 140.384H112.969C112.969 140.053 112.894 139.813 112.745 139.664C112.606 139.504 112.414 139.424 112.169 139.424C111.923 139.424 111.726 139.504 111.577 139.664C111.438 139.813 111.369 140.043 111.369 140.352V143.664ZM115.419 140.608C115.419 140.277 115.44 139.973 115.483 139.696C115.525 139.419 115.605 139.173 115.723 138.96C115.915 138.608 116.187 138.325 116.539 138.112C116.901 137.899 117.339 137.792 117.851 137.792C118.363 137.792 118.795 137.899 119.147 138.112C119.509 138.325 119.787 138.608 119.979 138.96C120.096 139.173 120.176 139.419 120.219 139.696C120.261 139.973 120.283 140.277 120.283 140.608V143.28C120.283 143.611 120.261 143.915 120.219 144.192C120.176 144.469 120.096 144.715 119.979 144.928C119.787 145.28 119.509 145.563 119.147 145.776C118.795 145.989 118.363 146.096 117.851 146.096C117.339 146.096 116.901 145.989 116.539 145.776C116.187 145.563 115.915 145.28 115.723 144.928C115.605 144.715 115.525 144.469 115.483 144.192C115.44 143.915 115.419 143.611 115.419 143.28V140.608ZM117.051 143.536C117.051 143.845 117.12 144.08 117.259 144.24C117.408 144.389 117.605 144.464 117.851 144.464C118.096 144.464 118.288 144.389 118.427 144.24C118.576 144.08 118.651 143.845 118.651 143.536V140.352C118.651 140.043 118.576 139.813 118.427 139.664C118.288 139.504 118.096 139.424 117.851 139.424C117.605 139.424 117.408 139.504 117.259 139.664C117.12 139.813 117.051 140.043 117.051 140.352V143.536ZM127.957 146V140.848H127.925L126.117 146H124.453V137.888H125.989V143.04H126.021L127.813 137.888H129.493V146H127.957ZM138.469 134.608C138.469 134.96 138.415 135.259 138.309 135.504C138.213 135.739 138.085 135.936 137.925 136.096C137.765 136.245 137.578 136.373 137.365 136.48C137.162 136.576 136.954 136.667 136.741 136.752C136.463 136.859 136.197 136.971 135.941 137.088C135.695 137.195 135.498 137.344 135.349 137.536C135.231 137.685 135.162 137.856 135.141 138.048C135.119 138.24 135.109 138.485 135.109 138.784H135.141C135.301 138.517 135.514 138.288 135.781 138.096C136.058 137.893 136.351 137.792 136.661 137.792C136.981 137.792 137.258 137.829 137.493 137.904C137.727 137.979 137.935 138.123 138.117 138.336C138.33 138.613 138.453 138.939 138.485 139.312C138.517 139.675 138.533 140.053 138.533 140.448V143.28C138.533 143.611 138.511 143.915 138.469 144.192C138.426 144.469 138.346 144.715 138.229 144.928C138.037 145.28 137.759 145.563 137.397 145.776C137.045 145.989 136.613 146.096 136.101 146.096C135.589 146.096 135.151 145.989 134.789 145.776C134.437 145.563 134.165 145.28 133.973 144.928C133.855 144.715 133.775 144.469 133.733 144.192C133.69 143.915 133.669 143.611 133.669 143.28V139.088C133.669 138.448 133.706 137.952 133.781 137.6C133.855 137.237 134.01 136.912 134.245 136.624C134.479 136.347 134.757 136.133 135.077 135.984C135.407 135.824 135.701 135.691 135.957 135.584C136.127 135.509 136.266 135.44 136.373 135.376C136.49 135.312 136.581 135.248 136.645 135.184C136.709 135.109 136.751 135.029 136.773 134.944C136.805 134.848 136.826 134.736 136.837 134.608H138.469ZM135.301 143.536C135.301 143.845 135.37 144.08 135.509 144.24C135.658 144.389 135.855 144.464 136.101 144.464C136.346 144.464 136.538 144.389 136.677 144.24C136.826 144.08 136.901 143.845 136.901 143.536V140.352C136.901 140.043 136.826 139.813 136.677 139.664C136.538 139.504 136.346 139.424 136.101 139.424C135.855 139.424 135.658 139.504 135.509 139.664C135.37 139.813 135.301 140.043 135.301 140.352V143.536ZM139.75 146V137.888H141.382V141.088H141.782C142.209 141.088 142.582 141.131 142.902 141.216C143.233 141.291 143.505 141.424 143.718 141.616C143.942 141.808 144.107 142.064 144.214 142.384C144.331 142.704 144.39 143.099 144.39 143.568C144.39 143.909 144.337 144.24 144.23 144.56C144.134 144.869 143.979 145.136 143.766 145.36C143.51 145.627 143.206 145.803 142.854 145.888C142.502 145.963 142.15 146 141.798 146H139.75ZM141.382 144.64H141.942C142.177 144.64 142.385 144.565 142.566 144.416C142.758 144.256 142.854 143.973 142.854 143.568C142.854 143.237 142.79 142.971 142.662 142.768C142.545 142.555 142.294 142.448 141.91 142.448H141.382V144.64ZM145.094 146V137.888H146.726V146H145.094ZM149.791 143.664C149.791 143.92 149.86 144.117 149.999 144.256C150.148 144.395 150.345 144.464 150.591 144.464C150.9 144.464 151.103 144.373 151.199 144.192C151.305 144.011 151.369 143.829 151.391 143.648H153.023C153.023 144.363 152.804 144.939 152.367 145.376C152.153 145.6 151.897 145.776 151.599 145.904C151.3 146.032 150.964 146.096 150.591 146.096C150.079 146.096 149.641 145.989 149.279 145.776C148.927 145.563 148.655 145.28 148.463 144.928C148.345 144.715 148.265 144.469 148.223 144.192C148.18 143.915 148.159 143.611 148.159 143.28V140.608C148.159 140.277 148.18 139.973 148.223 139.696C148.265 139.419 148.345 139.173 148.463 138.96C148.655 138.608 148.927 138.325 149.279 138.112C149.641 137.899 150.079 137.792 150.591 137.792C150.964 137.792 151.3 137.856 151.599 137.984C151.908 138.112 152.169 138.288 152.383 138.512C152.809 138.992 153.023 139.616 153.023 140.384H151.391C151.391 140.053 151.316 139.813 151.167 139.664C151.028 139.504 150.836 139.424 150.591 139.424C150.345 139.424 150.148 139.504 149.999 139.664C149.86 139.813 149.791 140.043 149.791 140.352V143.664ZM154.85 146V139.328H153.25V137.888H158.082V139.328H156.482V146H154.85ZM158.75 149.28V137.888H160.382V138.624C160.585 138.389 160.793 138.192 161.006 138.032C161.219 137.872 161.529 137.792 161.934 137.792C162.606 137.792 163.081 138.048 163.358 138.56C163.454 138.741 163.523 138.965 163.566 139.232C163.609 139.499 163.63 139.856 163.63 140.304V143.392C163.63 143.989 163.614 144.421 163.582 144.688C163.518 145.221 163.273 145.621 162.846 145.888C162.633 146.027 162.323 146.096 161.918 146.096C161.598 146.096 161.31 146.027 161.054 145.888C160.809 145.739 160.595 145.531 160.414 145.264H160.382V149.28H158.75ZM161.998 140.528C161.998 140.197 161.934 139.931 161.806 139.728C161.678 139.525 161.475 139.424 161.198 139.424C160.953 139.424 160.755 139.52 160.606 139.712C160.457 139.893 160.382 140.133 160.382 140.432V143.584C160.382 143.84 160.457 144.053 160.606 144.224C160.766 144.384 160.963 144.464 161.198 144.464C161.507 144.464 161.715 144.368 161.822 144.176C161.939 143.984 161.998 143.76 161.998 143.504V140.528ZM164.825 140.608C164.825 140.277 164.846 139.973 164.889 139.696C164.932 139.419 165.012 139.173 165.129 138.96C165.321 138.608 165.593 138.325 165.945 138.112C166.308 137.899 166.745 137.792 167.257 137.792C167.769 137.792 168.201 137.899 168.553 138.112C168.916 138.325 169.193 138.608 169.385 138.96C169.502 139.173 169.582 139.419 169.625 139.696C169.668 139.973 169.689 140.277 169.689 140.608V143.28C169.689 143.611 169.668 143.915 169.625 144.192C169.582 144.469 169.502 144.715 169.385 144.928C169.193 145.28 168.916 145.563 168.553 145.776C168.201 145.989 167.769 146.096 167.257 146.096C166.745 146.096 166.308 145.989 165.945 145.776C165.593 145.563 165.321 145.28 165.129 144.928C165.012 144.715 164.932 144.469 164.889 144.192C164.846 143.915 164.825 143.611 164.825 143.28V140.608ZM166.457 143.536C166.457 143.845 166.526 144.08 166.665 144.24C166.814 144.389 167.012 144.464 167.257 144.464C167.502 144.464 167.694 144.389 167.833 144.24C167.982 144.08 168.057 143.845 168.057 143.536V140.352C168.057 140.043 167.982 139.813 167.833 139.664C167.694 139.504 167.502 139.424 167.257 139.424C167.012 139.424 166.814 139.504 166.665 139.664C166.526 139.813 166.457 140.043 166.457 140.352V143.536ZM174.596 146V147.6H173.22V144.64H173.956C174.073 144.416 174.174 144.117 174.26 143.744C174.356 143.371 174.43 142.976 174.484 142.56C174.526 142.219 174.553 141.867 174.564 141.504C174.574 141.141 174.58 140.811 174.58 140.512V137.888H179.06V144.64H179.828V147.6H178.452V146H174.596ZM176.116 139.248V140.464C176.116 140.603 176.11 140.773 176.1 140.976C176.089 141.168 176.073 141.371 176.052 141.584C176.041 141.787 176.025 141.989 176.004 142.192C175.993 142.384 175.977 142.549 175.956 142.688C175.913 142.965 175.844 143.296 175.748 143.68C175.662 144.053 175.561 144.373 175.444 144.64H177.428V139.248H176.116ZM180.419 140.608C180.419 140.277 180.44 139.973 180.483 139.696C180.525 139.419 180.605 139.173 180.723 138.96C180.915 138.608 181.187 138.325 181.539 138.112C181.901 137.899 182.339 137.792 182.851 137.792C183.363 137.792 183.795 137.899 184.147 138.112C184.509 138.325 184.787 138.608 184.979 138.96C185.096 139.173 185.176 139.419 185.219 139.696C185.261 139.973 185.283 140.277 185.283 140.608V143.28C185.283 143.611 185.261 143.915 185.219 144.192C185.176 144.469 185.096 144.715 184.979 144.928C184.787 145.28 184.509 145.563 184.147 145.776C183.795 145.989 183.363 146.096 182.851 146.096C182.339 146.096 181.901 145.989 181.539 145.776C181.187 145.563 180.915 145.28 180.723 144.928C180.605 144.715 180.525 144.469 180.483 144.192C180.44 143.915 180.419 143.611 180.419 143.28V140.608ZM182.051 143.536C182.051 143.845 182.12 144.08 182.259 144.24C182.408 144.389 182.605 144.464 182.851 144.464C183.096 144.464 183.288 144.389 183.427 144.24C183.576 144.08 183.651 143.845 183.651 143.536V140.352C183.651 140.043 183.576 139.813 183.427 139.664C183.288 139.504 183.096 139.424 182.851 139.424C182.605 139.424 182.408 139.504 182.259 139.664C182.12 139.813 182.051 140.043 182.051 140.352V143.536ZM188.213 143.664C188.213 143.92 188.282 144.117 188.421 144.256C188.57 144.395 188.767 144.464 189.013 144.464C189.322 144.464 189.525 144.373 189.621 144.192C189.727 144.011 189.791 143.829 189.812 143.648H191.445C191.445 144.363 191.226 144.939 190.789 145.376C190.575 145.6 190.319 145.776 190.021 145.904C189.722 146.032 189.386 146.096 189.013 146.096C188.501 146.096 188.063 145.989 187.701 145.776C187.349 145.563 187.077 145.28 186.885 144.928C186.767 144.715 186.687 144.469 186.645 144.192C186.602 143.915 186.581 143.611 186.581 143.28V140.608C186.581 140.277 186.602 139.973 186.645 139.696C186.687 139.419 186.767 139.173 186.885 138.96C187.077 138.608 187.349 138.325 187.701 138.112C188.063 137.899 188.501 137.792 189.013 137.792C189.386 137.792 189.722 137.856 190.021 137.984C190.33 138.112 190.591 138.288 190.805 138.512C191.231 138.992 191.445 139.616 191.445 140.384H189.812C189.812 140.053 189.738 139.813 189.589 139.664C189.45 139.504 189.258 139.424 189.013 139.424C188.767 139.424 188.57 139.504 188.421 139.664C188.282 139.813 188.213 140.043 188.213 140.352V143.664ZM193.272 146V139.328H191.672V137.888H196.504V139.328H194.904V146H193.272ZM200.104 146V145.168H200.072C199.858 145.467 199.64 145.696 199.416 145.856C199.202 146.016 198.898 146.096 198.504 146.096C198.312 146.096 198.114 146.064 197.912 146C197.72 145.947 197.533 145.84 197.352 145.68C197.17 145.531 197.021 145.317 196.904 145.04C196.797 144.752 196.744 144.384 196.744 143.936C196.744 143.477 196.781 143.077 196.856 142.736C196.93 142.384 197.069 142.091 197.272 141.856C197.464 141.632 197.725 141.467 198.056 141.36C198.386 141.243 198.808 141.184 199.32 141.184C199.373 141.184 199.432 141.184 199.496 141.184C199.56 141.184 199.618 141.189 199.672 141.2C199.725 141.211 199.789 141.216 199.864 141.216C199.938 141.216 200.018 141.221 200.104 141.232V140.384C200.104 140.107 200.045 139.877 199.928 139.696C199.81 139.515 199.597 139.424 199.288 139.424C199.074 139.424 198.877 139.493 198.696 139.632C198.525 139.771 198.413 139.973 198.36 140.24H196.776C196.818 139.515 197.064 138.928 197.512 138.48C197.725 138.267 197.981 138.101 198.28 137.984C198.578 137.856 198.914 137.792 199.288 137.792C199.629 137.792 199.949 137.845 200.248 137.952C200.546 138.059 200.808 138.219 201.032 138.432C201.245 138.645 201.416 138.912 201.544 139.232C201.672 139.552 201.736 139.925 201.736 140.352V146H200.104ZM200.104 142.512C199.922 142.48 199.773 142.464 199.656 142.464C199.304 142.464 199 142.549 198.744 142.72C198.498 142.88 198.376 143.179 198.376 143.616C198.376 143.925 198.45 144.176 198.6 144.368C198.749 144.56 198.957 144.656 199.224 144.656C199.501 144.656 199.714 144.565 199.864 144.384C200.024 144.203 200.104 143.947 200.104 143.616V142.512ZM202.938 146V137.888H205.05C205.37 137.888 205.7 137.92 206.042 137.984C206.383 138.048 206.692 138.197 206.97 138.432C207.226 138.645 207.402 138.896 207.498 139.184C207.604 139.472 207.658 139.787 207.658 140.128C207.658 140.245 207.647 140.384 207.626 140.544C207.604 140.693 207.562 140.848 207.498 141.008C207.434 141.168 207.338 141.328 207.21 141.488C207.092 141.637 206.932 141.765 206.73 141.872C206.954 141.957 207.135 142.064 207.274 142.192C207.412 142.32 207.519 142.464 207.594 142.624C207.679 142.784 207.732 142.955 207.754 143.136C207.786 143.307 207.802 143.477 207.802 143.648C207.802 143.989 207.754 144.304 207.658 144.592C207.572 144.88 207.423 145.136 207.21 145.36C206.954 145.627 206.639 145.803 206.266 145.888C205.892 145.963 205.53 146 205.178 146H202.938ZM204.57 144.64H205.226C205.343 144.64 205.455 144.629 205.562 144.608C205.679 144.576 205.78 144.523 205.866 144.448C205.962 144.373 206.036 144.272 206.09 144.144C206.143 144.016 206.17 143.851 206.17 143.648C206.17 143.317 206.106 143.051 205.978 142.848C205.86 142.635 205.61 142.528 205.226 142.528H204.57V144.64ZM204.57 141.248H205.21C205.54 141.248 205.77 141.147 205.898 140.944C206.026 140.741 206.09 140.469 206.09 140.128C206.09 139.883 206.015 139.675 205.866 139.504C205.716 139.333 205.508 139.248 205.242 139.248H204.57V141.248ZM208.409 144.464C208.526 144.464 208.644 144.432 208.761 144.368C208.889 144.304 209.017 144.192 209.145 144.032C209.252 143.904 209.337 143.723 209.401 143.488C209.465 143.243 209.513 142.992 209.545 142.736C209.577 142.469 209.598 142.219 209.609 141.984C209.62 141.739 209.625 141.552 209.625 141.424V137.888H214.105V146H212.473V139.248H211.161V140.752C211.161 141.125 211.15 141.504 211.129 141.888C211.108 142.261 211.07 142.624 211.017 142.976C210.974 143.317 210.916 143.637 210.841 143.936C210.766 144.235 210.67 144.491 210.553 144.704C210.329 145.12 210.036 145.44 209.673 145.664C209.31 145.888 208.9 146 208.441 146H208.329V144.464H208.409ZM218.445 146V142.768H217.741L216.717 146H215.053L216.269 142.528C216.024 142.421 215.827 142.272 215.677 142.08C215.539 141.888 215.432 141.685 215.357 141.472C215.293 141.259 215.251 141.051 215.229 140.848C215.219 140.645 215.213 140.485 215.213 140.368C215.213 140.027 215.272 139.669 215.389 139.296C215.507 138.923 215.704 138.624 215.981 138.4C216.259 138.165 216.552 138.021 216.861 137.968C217.181 137.915 217.501 137.888 217.821 137.888H220.077V146H218.445ZM218.445 139.248H217.645C217.325 139.248 217.112 139.365 217.005 139.6C216.899 139.835 216.845 140.112 216.845 140.432C216.845 141.125 217.144 141.472 217.741 141.472H218.445V139.248ZM226.142 142.56H222.91V143.664C222.91 143.92 222.979 144.117 223.118 144.256C223.267 144.395 223.465 144.464 223.71 144.464C224.019 144.464 224.222 144.373 224.318 144.192C224.425 144.011 224.489 143.829 224.51 143.648H226.142C226.142 144.363 225.923 144.939 225.486 145.376C225.273 145.6 225.017 145.776 224.718 145.904C224.419 146.032 224.083 146.096 223.71 146.096C223.198 146.096 222.761 145.989 222.398 145.776C222.046 145.563 221.774 145.28 221.582 144.928C221.465 144.715 221.385 144.469 221.342 144.192C221.299 143.915 221.278 143.611 221.278 143.28V140.608C221.278 140.277 221.299 139.973 221.342 139.696C221.385 139.419 221.465 139.173 221.582 138.96C221.774 138.608 222.046 138.325 222.398 138.112C222.761 137.899 223.198 137.792 223.71 137.792C224.083 137.792 224.419 137.856 224.718 137.984C225.027 138.112 225.289 138.288 225.502 138.512C225.929 138.992 226.142 139.595 226.142 140.32V142.56ZM222.91 141.28H224.51V140.352C224.51 140.043 224.435 139.813 224.286 139.664C224.147 139.504 223.955 139.424 223.71 139.424C223.465 139.424 223.267 139.504 223.118 139.664C222.979 139.813 222.91 140.043 222.91 140.352V141.28ZM227.344 146V137.888H229.008L230.656 142.24H230.688L232.336 137.888H234V146H232.432V141.088H232.4L231.088 144.672H230.256L228.944 141.088H228.912V146H227.344ZM238.313 146V137.888H240.425C240.745 137.888 241.075 137.92 241.417 137.984C241.758 138.048 242.067 138.197 242.345 138.432C242.601 138.645 242.777 138.896 242.873 139.184C242.979 139.472 243.033 139.787 243.033 140.128C243.033 140.245 243.022 140.384 243.001 140.544C242.979 140.693 242.937 140.848 242.873 141.008C242.809 141.168 242.713 141.328 242.585 141.488C242.467 141.637 242.307 141.765 242.105 141.872C242.329 141.957 242.51 142.064 242.649 142.192C242.787 142.32 242.894 142.464 242.969 142.624C243.054 142.784 243.107 142.955 243.129 143.136C243.161 143.307 243.177 143.477 243.177 143.648C243.177 143.989 243.129 144.304 243.033 144.592C242.947 144.88 242.798 145.136 242.585 145.36C242.329 145.627 242.014 145.803 241.641 145.888C241.267 145.963 240.905 146 240.553 146H238.313ZM239.945 144.64H240.601C240.718 144.64 240.83 144.629 240.937 144.608C241.054 144.576 241.155 144.523 241.241 144.448C241.337 144.373 241.411 144.272 241.465 144.144C241.518 144.016 241.545 143.851 241.545 143.648C241.545 143.317 241.481 143.051 241.353 142.848C241.235 142.635 240.985 142.528 240.601 142.528H239.945V144.64ZM239.945 141.248H240.585C240.915 141.248 241.145 141.147 241.273 140.944C241.401 140.741 241.465 140.469 241.465 140.128C241.465 139.883 241.39 139.675 241.241 139.504C241.091 139.333 240.883 139.248 240.617 139.248H239.945V141.248ZM22.672 167V158.888H24.336L25.984 163.24H26.016L27.664 158.888H29.328V167H27.76V162.088H27.728L26.416 165.672H25.584L24.272 162.088H24.24V167H22.672ZM33.76 167V166.168H33.728C33.5147 166.467 33.296 166.696 33.072 166.856C32.8587 167.016 32.5547 167.096 32.16 167.096C31.968 167.096 31.7707 167.064 31.568 167C31.376 166.947 31.1893 166.84 31.008 166.68C30.8267 166.531 30.6773 166.317 30.56 166.04C30.4533 165.752 30.4 165.384 30.4 164.936C30.4 164.477 30.4373 164.077 30.512 163.736C30.5867 163.384 30.7253 163.091 30.928 162.856C31.12 162.632 31.3813 162.467 31.712 162.36C32.0427 162.243 32.464 162.184 32.976 162.184C33.0293 162.184 33.088 162.184 33.152 162.184C33.216 162.184 33.2747 162.189 33.328 162.2C33.3813 162.211 33.4453 162.216 33.52 162.216C33.5947 162.216 33.6747 162.221 33.76 162.232V161.384C33.76 161.107 33.7013 160.877 33.584 160.696C33.4667 160.515 33.2533 160.424 32.944 160.424C32.7307 160.424 32.5333 160.493 32.352 160.632C32.1813 160.771 32.0693 160.973 32.016 161.24H30.432C30.4747 160.515 30.72 159.928 31.168 159.48C31.3813 159.267 31.6373 159.101 31.936 158.984C32.2347 158.856 32.5707 158.792 32.944 158.792C33.2853 158.792 33.6053 158.845 33.904 158.952C34.2027 159.059 34.464 159.219 34.688 159.432C34.9013 159.645 35.072 159.912 35.2 160.232C35.328 160.552 35.392 160.925 35.392 161.352V167H33.76ZM33.76 163.512C33.5787 163.48 33.4293 163.464 33.312 163.464C32.96 163.464 32.656 163.549 32.4 163.72C32.1547 163.88 32.032 164.179 32.032 164.616C32.032 164.925 32.1067 165.176 32.256 165.368C32.4053 165.56 32.6133 165.656 32.88 165.656C33.1573 165.656 33.3707 165.565 33.52 165.384C33.68 165.203 33.76 164.947 33.76 164.616V163.512ZM36.5939 167V158.888H40.4659V160.328H38.2259V167H36.5939ZM44.1506 167V166.168H44.1186C43.9053 166.467 43.6866 166.696 43.4626 166.856C43.2493 167.016 42.9453 167.096 42.5506 167.096C42.3586 167.096 42.1613 167.064 41.9586 167C41.7666 166.947 41.58 166.84 41.3986 166.68C41.2173 166.531 41.068 166.317 40.9506 166.04C40.844 165.752 40.7906 165.384 40.7906 164.936C40.7906 164.477 40.828 164.077 40.9026 163.736C40.9773 163.384 41.116 163.091 41.3186 162.856C41.5106 162.632 41.772 162.467 42.1026 162.36C42.4333 162.243 42.8546 162.184 43.3666 162.184C43.42 162.184 43.4786 162.184 43.5426 162.184C43.6066 162.184 43.6653 162.189 43.7186 162.2C43.772 162.211 43.836 162.216 43.9106 162.216C43.9853 162.216 44.0653 162.221 44.1506 162.232V161.384C44.1506 161.107 44.092 160.877 43.9746 160.696C43.8573 160.515 43.644 160.424 43.3346 160.424C43.1213 160.424 42.924 160.493 42.7426 160.632C42.572 160.771 42.46 160.973 42.4066 161.24H40.8226C40.8653 160.515 41.1106 159.928 41.5586 159.48C41.772 159.267 42.028 159.101 42.3266 158.984C42.6253 158.856 42.9613 158.792 43.3346 158.792C43.676 158.792 43.996 158.845 44.2946 158.952C44.5933 159.059 44.8546 159.219 45.0786 159.432C45.292 159.645 45.4626 159.912 45.5906 160.232C45.7186 160.552 45.7826 160.925 45.7826 161.352V167H44.1506ZM44.1506 163.512C43.9693 163.48 43.82 163.464 43.7026 163.464C43.3506 163.464 43.0466 163.549 42.7906 163.72C42.5453 163.88 42.4226 164.179 42.4226 164.616C42.4226 164.925 42.4973 165.176 42.6466 165.368C42.796 165.56 43.004 165.656 43.2706 165.656C43.548 165.656 43.7613 165.565 43.9106 165.384C44.0706 165.203 44.1506 164.947 44.1506 164.616V163.512ZM46.6165 161.16C46.6378 160.84 46.7072 160.541 46.8245 160.264C46.9525 159.976 47.1178 159.725 47.3205 159.512C47.5338 159.288 47.7845 159.112 48.0725 158.984C48.3605 158.856 48.6752 158.792 49.0165 158.792C49.3578 158.792 49.6832 158.851 49.9925 158.968C50.3125 159.075 50.5845 159.235 50.8085 159.448C51.0218 159.651 51.1872 159.896 51.3045 160.184C51.4325 160.461 51.4965 160.776 51.4965 161.128C51.4965 161.245 51.4858 161.384 51.4645 161.544C51.4432 161.693 51.3952 161.848 51.3205 162.008C51.2565 162.168 51.1552 162.328 51.0165 162.488C50.8885 162.637 50.7125 162.765 50.4885 162.872C50.7232 162.957 50.9152 163.064 51.0645 163.192C51.2245 163.32 51.3418 163.464 51.4165 163.624C51.5018 163.784 51.5605 163.955 51.5925 164.136C51.6245 164.307 51.6405 164.477 51.6405 164.648C51.6405 164.979 51.5872 165.277 51.4805 165.544C51.3738 165.811 51.2138 166.061 51.0005 166.296C50.7658 166.552 50.4778 166.749 50.1365 166.888C49.8058 167.027 49.4432 167.096 49.0485 167.096C48.2912 167.096 47.6778 166.845 47.2085 166.344C46.7925 165.896 46.5685 165.331 46.5365 164.648H48.0725C48.0938 164.936 48.1792 165.16 48.3285 165.32C48.4885 165.48 48.7232 165.56 49.0325 165.56C49.3098 165.56 49.5285 165.48 49.6885 165.32C49.8592 165.149 49.9445 164.904 49.9445 164.584C49.9445 164.275 49.8752 164.029 49.7365 163.848C49.6085 163.656 49.3685 163.56 49.0165 163.56H48.5045V162.2H48.9525C49.2725 162.2 49.5018 162.12 49.6405 161.96C49.7898 161.8 49.8645 161.539 49.8645 161.176C49.8645 160.941 49.7898 160.744 49.6405 160.584C49.4912 160.413 49.2832 160.328 49.0165 160.328C48.8032 160.328 48.6112 160.392 48.4405 160.52C48.2698 160.637 48.1738 160.851 48.1525 161.16H46.6165ZM56.3479 167V161.848H56.3159L54.5079 167H52.8439V158.888H54.3799V164.04H54.4119L56.2039 158.888H57.8839V167H56.3479ZM59.2345 167V158.888H60.8665V162.2H62.5145V158.888H64.1465V167H62.5145V163.56H60.8665V167H59.2345ZM65.4845 167V158.888H67.1165V162.088H67.5165C67.9432 162.088 68.3165 162.131 68.6365 162.216C68.9672 162.291 69.2392 162.424 69.4525 162.616C69.6765 162.808 69.8418 163.064 69.9485 163.384C70.0658 163.704 70.1245 164.099 70.1245 164.568C70.1245 164.909 70.0712 165.24 69.9645 165.56C69.8685 165.869 69.7138 166.136 69.5005 166.36C69.2445 166.627 68.9405 166.803 68.5885 166.888C68.2365 166.963 67.8845 167 67.5325 167H65.4845ZM67.1165 165.64H67.6765C67.9112 165.64 68.1192 165.565 68.3005 165.416C68.4925 165.256 68.5885 164.973 68.5885 164.568C68.5885 164.237 68.5245 163.971 68.3965 163.768C68.2792 163.555 68.0285 163.448 67.6445 163.448H67.1165V165.64ZM70.8285 167V158.888H72.4605V167H70.8285ZM73.797 167V165.368H75.429V167H73.797Z" fill="white"/>
<path d="M266.948 40.3353L271.478 28.6135C272.172 26.819 274.751 26.9428 275.27 28.7955L278.463 40.2053C278.685 40.9995 279.372 41.5759 280.193 41.6566L291.587 42.7775C293.55 42.9706 294.078 45.5873 292.344 46.5265L281.246 52.5372C280.414 52.9875 280.012 53.9587 280.281 54.8652L284.188 68.0192C284.765 69.962 282.418 71.4322 280.922 70.0654L272.448 62.3264C271.718 61.6601 270.611 61.6264 269.843 62.2471L260.214 70.0206C258.604 71.3204 256.322 69.6191 257.108 67.705L262.158 55.4021C262.522 54.5138 262.204 53.4917 261.4 52.9673L251.004 46.1884C249.396 45.1401 250.044 42.6489 251.959 42.5178L265.219 41.6097C265.994 41.5566 266.668 41.0598 266.948 40.3353Z" fill="#8784D6"/>
</svg>
