<svg width="235" height="32" viewBox="0 0 235 32" fill="none" xmlns="http://www.w3.org/2000/svg">
<path fill-rule="evenodd" clip-rule="evenodd" d="M10.6934 1.3285C11.2193 0.926446 11.8232 0.638409 12.4666 0.482772C13.11 0.327136 13.7788 0.307312 14.4303 0.424563C15.0818 0.541814 15.7017 0.79355 16.2505 1.16375C16.7992 1.53394 17.2648 2.01446 17.6175 2.57464C18.0532 3.26961 18.3122 4.06065 18.3717 4.87873C18.4313 5.69681 18.2897 6.51703 17.9592 7.26778C17.6514 7.92509 17.2178 8.51575 16.6829 9.00637L13.5877 12.1519C12.442 11.0062 11.3064 9.84048 10.1708 8.68478C9.68577 8.18536 9.31168 7.58914 9.073 6.93515C8.83433 6.28115 8.73644 5.58412 8.78577 4.88968C8.83511 4.19524 9.03054 3.51906 9.35927 2.90537C9.688 2.29168 10.1426 1.75434 10.6934 1.3285Z" fill="#61AE2C"/>
<path fill-rule="evenodd" clip-rule="evenodd" d="M35.6985 2.42224H52.2803C52.2803 9.79194 52.2803 17.1884 52.2803 24.6117H47.8987V6.58276H40.0801V24.6017H35.6985V2.42224ZM153.982 2.48254C154.537 2.35279 155.12 2.44811 155.604 2.74764C156.088 3.04717 156.434 3.52646 156.565 4.08042C156.655 4.36196 156.686 4.65901 156.656 4.95301C156.626 5.24701 156.535 5.53164 156.39 5.78917C156.245 6.0467 156.049 6.2716 155.813 6.44981C155.577 6.62801 155.307 6.75572 155.02 6.82495C154.733 6.89418 154.434 6.90345 154.143 6.85218C153.852 6.80092 153.575 6.6902 153.328 6.52697C153.082 6.36374 152.872 6.1515 152.711 5.90347C152.55 5.65544 152.443 5.37694 152.394 5.08538C152.271 4.52917 152.368 3.94699 152.664 3.4602C152.96 2.97342 153.432 2.61959 153.982 2.47248V2.48254ZM160.012 2.48254C160.453 2.38024 160.916 2.41793 161.335 2.59043C161.754 2.76293 162.108 3.06166 162.35 3.44508C162.591 3.8285 162.707 4.27759 162.682 4.72995C162.656 5.18232 162.49 5.61549 162.207 5.96929C161.924 6.32309 161.538 6.57995 161.102 6.70417C160.667 6.8284 160.203 6.81381 159.776 6.66246C159.349 6.51112 158.98 6.23052 158.719 5.85964C158.459 5.48876 158.321 5.04603 158.324 4.59296C158.332 4.10399 158.502 3.63159 158.808 3.24972C159.113 2.86785 159.537 2.59805 160.012 2.48254ZM58.4106 9.51725C59.9075 8.49378 61.6956 7.98273 63.5073 8.06063C65.319 8.13853 67.0566 8.80118 68.4602 9.94938C69.5895 10.9889 70.4337 12.3004 70.9122 13.7588C71.3907 15.2173 71.4876 16.774 71.1937 18.2805C67.1738 18.2805 63.2143 18.2805 59.2246 18.2805C59.3558 18.8058 59.5964 19.2975 59.9306 19.7235C60.2648 20.1495 60.6852 20.5002 61.1642 20.7527C62.1577 21.2701 63.2935 21.447 64.3973 21.2564C65.5012 21.0658 66.5119 20.5181 67.2743 19.6975C68.3496 20.3708 69.4651 20.9838 70.5505 21.6371C69.6172 23.0389 68.2516 24.0976 66.6613 24.6519C65.1369 25.1704 63.5049 25.2892 61.9214 24.9972C60.338 24.7051 58.8558 24.0119 57.6167 22.9837C56.6888 22.1086 55.9682 21.0373 55.5074 19.848C55.0467 18.6587 54.8574 17.3816 54.9535 16.1098C54.9891 14.8221 55.3214 13.5601 55.9245 12.4219C56.5276 11.2837 57.3853 10.3 58.4307 9.5474L58.4106 9.51725ZM61.1742 12.2909C60.659 12.581 60.2127 12.9791 59.8657 13.4578C59.5188 13.9366 59.2795 14.4847 59.1643 15.0646H67.204C67.0141 14.1018 66.4954 13.235 65.7367 12.6125C65.0734 12.1494 64.2969 11.875 63.4899 11.8183C62.6829 11.7617 61.8756 11.925 61.1541 12.2909H61.1742ZM78.2585 10.4116C80.1378 7.89925 83.8863 7.45707 86.5896 8.81377C87.9444 9.52907 89.0813 10.5963 89.8807 11.9033C90.6801 13.2102 91.1124 14.7085 91.1321 16.2404C91.2234 17.8223 90.8791 19.3989 90.1367 20.7987C89.3942 22.1985 88.2821 23.3679 86.9213 24.1796C84.1777 25.7373 80.2283 25.3654 78.2585 22.7525C78.2585 25.5262 78.2585 28.31 78.2585 31.0837C76.8918 31.0837 75.525 31.0837 74.1583 31.0837C74.1583 23.5599 74.1583 16.0394 74.1583 8.52232H78.2585V10.4116ZM82.0573 12.0799C81.3436 12.1531 80.6611 12.4101 80.0763 12.8258C79.4916 13.2415 79.0245 13.8016 78.7208 14.4516C78.3358 15.2852 78.1866 16.2083 78.2894 17.1208C78.3921 18.0332 78.7429 18.9001 79.3037 19.6271C80.0675 20.4794 81.1267 21.0097 82.2667 21.1104C83.4068 21.2112 84.5425 20.8749 85.444 20.1698C85.9387 19.7235 86.3359 19.1798 86.6105 18.5727C86.8851 17.9656 87.0313 17.3083 87.0397 16.6421C87.0482 15.9758 86.9189 15.315 86.6599 14.7011C86.4008 14.0872 86.0176 13.5335 85.5344 13.0748C85.0569 12.6742 84.5009 12.3779 83.9021 12.2048C83.3033 12.0318 82.6749 11.9858 82.0573 12.0698V12.0799ZM97.1317 9.24589C98.5757 8.38494 100.245 7.97647 101.923 8.0732C103.602 8.16993 105.213 8.76743 106.548 9.78858C107.737 10.8167 108.632 12.1413 109.142 13.6277C109.652 15.1141 109.759 16.7091 109.452 18.2503C105.433 18.3508 101.483 18.2503 97.4934 18.2503C97.6354 18.8216 97.9068 19.3525 98.2867 19.802C98.6666 20.2516 99.1447 20.6078 99.6842 20.8431C100.658 21.2898 101.749 21.4166 102.8 21.2054C103.85 20.9942 104.807 20.4558 105.533 19.6673L108.829 21.6069C107.89 23.007 106.522 24.0648 104.93 24.6218C103.371 25.1539 101.7 25.266 100.084 24.9467C98.4675 24.6273 96.9641 23.8879 95.7247 22.8028C94.7153 21.7754 93.9724 20.5167 93.5608 19.1365C93.1491 17.7562 93.0813 16.2962 93.3631 14.8837C93.5497 13.7285 93.9829 12.6271 94.6332 11.6543C95.2834 10.6814 96.1356 9.86 97.1317 9.24589ZM99.4933 12.2608C98.9641 12.5419 98.5045 12.9378 98.1481 13.4194C97.7916 13.9011 97.5474 14.4563 97.4331 15.0445H105.473C105.29 14.1202 104.806 13.2826 104.096 12.6628C103.435 12.1734 102.651 11.8767 101.831 11.8057C101.012 11.7348 100.189 11.8923 99.4531 12.2608H99.4933ZM134.375 10.3916C136.265 7.85906 140.043 7.43697 142.757 8.81377C144.099 9.53871 145.223 10.6098 146.011 11.9158C146.799 13.2218 147.223 14.7151 147.239 16.2404C147.326 17.8079 146.986 19.3696 146.255 20.7589C145.524 22.1483 144.429 23.3131 143.088 24.1293C140.345 25.7172 136.355 25.3655 134.375 22.7425V31.0636H130.275V8.48214H134.375V10.3715V10.3916ZM137.772 12.1201C137.107 12.2587 136.484 12.5512 135.953 12.9743C135.454 13.4292 135.055 13.9832 134.782 14.601C134.51 15.2188 134.369 15.8867 134.369 16.562C134.369 17.2373 134.51 17.9053 134.782 18.523C135.055 19.1408 135.454 19.6948 135.953 20.1497C136.855 20.8515 137.989 21.1865 139.128 21.0877C140.266 20.989 141.326 20.4637 142.094 19.6171C142.859 18.6489 143.23 17.4266 143.131 16.196C143.033 14.9654 142.472 13.8179 141.561 12.9843C141.03 12.5707 140.414 12.2788 139.758 12.1295C139.101 11.9801 138.42 11.9769 137.762 12.1201H137.772ZM153.852 8.90421C155.295 8.18037 156.918 7.89008 158.523 8.06842C160.128 8.24676 161.647 8.88609 162.896 9.90917C164.016 10.9523 164.85 12.2645 165.32 13.7209C165.789 15.1773 165.879 16.7295 165.579 18.2302H153.62C153.763 18.8053 154.037 19.3395 154.421 19.7911C154.804 20.2426 155.287 20.5992 155.831 20.8331C156.801 21.2793 157.888 21.4049 158.935 21.1917C159.981 20.9785 160.932 20.4375 161.65 19.6472L164.946 21.5868C163.994 22.9998 162.602 24.0594 160.987 24.6017C159.402 25.1265 157.706 25.2169 156.074 24.8634C154.443 24.5099 152.936 23.7254 151.711 22.5917C150.66 21.4504 149.922 20.0563 149.57 18.5453C149.218 17.0342 149.263 15.4577 149.701 13.9692C149.991 12.8657 150.514 11.8372 151.235 10.953C151.957 10.0689 152.859 9.34966 153.882 8.84391L153.852 8.90421ZM155.58 12.2809C155.063 12.5656 154.614 12.9608 154.267 13.4385C153.919 13.9161 153.682 14.4645 153.57 15.0445H161.61C161.411 14.015 160.829 13.0991 159.982 12.4819C159.323 12.0686 158.569 11.8328 157.792 11.7976C157.016 11.7624 156.243 11.9289 155.55 12.2809H155.58ZM169.81 10.7332C170.738 9.73474 171.897 8.97833 173.184 8.52993C174.472 8.08152 175.849 7.95472 177.197 8.16055C178.433 8.32431 179.613 8.77848 180.64 9.48591C181.667 10.1933 182.512 11.1339 183.106 12.2306L179.589 14.331C179.298 13.8071 178.9 13.3513 178.419 12.9942C177.938 12.637 177.387 12.3868 176.802 12.2602C176.216 12.1336 175.611 12.1337 175.025 12.2603C174.44 12.3869 173.889 12.6372 173.408 12.9944C172.886 13.4241 172.464 13.9629 172.173 14.5729C171.881 15.1829 171.726 15.8494 171.72 16.5255C171.713 17.2017 171.854 17.8711 172.134 18.4867C172.413 19.1024 172.824 19.6494 173.338 20.0894C173.82 20.458 174.375 20.7196 174.967 20.8566C175.558 20.9936 176.172 21.003 176.767 20.8841C177.363 20.7653 177.926 20.5209 178.419 20.1672C178.913 19.8136 179.325 19.3588 179.629 18.8332C180.805 19.5367 182 20.21 183.176 20.9034C182.48 22.1228 181.488 23.1469 180.291 23.8812C179.094 24.6154 177.731 25.036 176.329 25.1041C174.927 25.1723 173.53 24.8857 172.267 24.2709C171.005 23.6561 169.918 22.7329 169.107 21.5868C168.012 19.9545 167.486 18.0075 167.607 16.0461C167.729 14.0847 168.492 12.2178 169.78 10.7332H169.81ZM207.084 8.22084C208.552 7.9316 210.07 8.0379 211.482 8.52885C212.895 9.0198 214.152 9.87772 215.124 11.0146C216.246 12.376 216.931 14.044 217.091 15.8009C217.251 17.5578 216.877 19.322 216.018 20.8632C215.352 22.0264 214.416 23.0128 213.29 23.7401C212.163 24.4673 210.879 24.914 209.545 25.0429C208.21 25.1718 206.865 24.9792 205.62 24.481C204.375 23.9829 203.268 23.1937 202.391 22.1797C201.295 20.8687 200.604 19.2677 200.4 17.5711C200.197 15.8746 200.49 14.1555 201.245 12.6226C201.812 11.4855 202.633 10.4937 203.643 9.72356C204.654 8.95345 205.827 8.42558 207.074 8.18064L207.084 8.22084ZM207.456 12.3211C206.71 12.5444 206.041 12.9727 205.527 13.5572C204.759 14.4841 204.375 15.6689 204.451 16.8698C204.528 18.0707 205.06 19.1971 205.939 20.0191C206.752 20.6899 207.78 21.045 208.834 21.0192C209.888 20.9934 210.897 20.5883 211.677 19.8784C212.127 19.4221 212.479 18.8781 212.711 18.2802C212.943 17.6824 213.049 17.0433 213.023 16.4027C212.998 15.762 212.841 15.1334 212.563 14.5558C212.285 13.9781 211.891 13.4638 211.406 13.0446C210.851 12.6202 210.204 12.3333 209.518 12.2075C208.831 12.0817 208.125 12.1206 207.456 12.3211ZM112.487 8.52232H116.588C116.588 10.7031 116.588 12.8839 116.588 15.0646H117.975L122.557 8.52232H127.451C125.492 11.1754 123.522 13.8285 121.572 16.4917C123.582 19.2051 125.592 21.9285 127.602 24.6419C126.004 24.6419 124.376 24.7223 122.798 24.5916C121.271 22.5013 119.783 20.3909 118.256 18.2905H116.547C116.547 20.411 116.547 22.5214 116.547 24.6419H112.447V8.56253L112.487 8.52232ZM184.965 8.52232C189.658 8.52232 194.341 8.52232 199.035 8.52232C199.035 9.84887 199.035 11.1754 199.035 12.5422H194.05C194.05 16.562 194.05 20.5818 194.05 24.662H189.95C189.95 20.6421 189.95 16.6223 189.95 12.5522C188.281 12.5522 186.623 12.5522 184.925 12.5522C184.925 11.2156 184.925 9.88907 184.925 8.53238L184.965 8.52232ZM219.546 8.52232H223.656C223.656 10.6997 223.656 12.8805 223.656 15.0646H225.053C226.58 12.8839 228.068 10.683 229.646 8.51229C231.264 8.51229 232.892 8.51229 234.52 8.51229L228.641 16.4715C230.651 19.195 232.66 21.9084 234.67 24.6419C233.072 24.6419 231.444 24.7022 229.867 24.5816C228.339 22.4913 226.852 20.3909 225.324 18.2805H223.626C223.626 20.401 223.626 22.5113 223.626 24.6318H219.526V8.55247L219.546 8.52232ZM10.2027 18.4212L13.5793 14.9742C14.7953 16.2103 16.0315 17.4263 17.2173 18.6925C17.9726 19.588 18.3869 20.7218 18.3869 21.8933C18.3869 23.0648 17.9726 24.1986 17.2173 25.0941C16.5016 25.9349 15.5166 26.5016 14.4299 26.6977C13.3433 26.8938 12.2223 26.7071 11.2579 26.1694C10.5661 25.7781 9.98027 25.224 9.55121 24.555C9.12215 23.886 8.86283 23.1224 8.79574 22.3305C8.72727 21.6093 8.81777 20.882 9.06086 20.1996C9.30395 19.5172 9.6937 18.8964 10.2027 18.381V18.4212Z" fill="#015929"/>
<path fill-rule="evenodd" clip-rule="evenodd" d="M1.39782 10.8036C1.82484 10.1591 2.40173 9.62764 3.07907 9.25484C3.75642 8.88204 4.51401 8.67899 5.28701 8.66305C5.92955 8.64775 6.56847 8.76374 7.16463 9.00394C7.7608 9.24413 8.30166 9.60345 8.75413 10.0599L12.1911 13.5471C10.965 14.7832 9.76912 16.0395 8.52298 17.2454C7.63751 18.0191 6.49764 18.4387 5.32188 18.4239C4.14612 18.4091 3.0172 17.9608 2.15154 17.165C1.30537 16.358 0.767127 15.2811 0.629547 14.12C0.491967 12.9588 0.76366 11.786 1.39782 10.8036Z" fill="#A8E542"/>
<path fill-rule="evenodd" clip-rule="evenodd" d="M18.4024 10.0413C18.9337 9.51612 19.5808 9.123 20.2916 8.8935C21.0025 8.664 21.7573 8.60454 22.4953 8.71988C23.2334 8.83523 23.9341 9.12218 24.541 9.55764C25.1479 9.9931 25.6442 10.5649 25.9899 11.2271C26.541 12.2771 26.698 13.4897 26.4326 14.6455C26.1671 15.8013 25.4968 16.8239 24.5427 17.5282C23.6501 18.1724 22.5622 18.4883 21.4634 18.4224C20.3645 18.3564 19.3222 17.9127 18.513 17.1664C17.307 15.9806 16.1413 14.7545 14.9454 13.5586C16.1011 12.3728 17.2467 11.207 18.4024 10.0413Z" fill="#1F8635"/>
</svg>
