<svg width="86" height="77" viewBox="0 0 86 77" fill="none" xmlns="http://www.w3.org/2000/svg">
<path d="M33.8619 25.4944L44.2969 1.82969C45.0398 0.144948 47.472 0.274258 48.0321 2.02827L55.4761 25.3411C55.7216 26.11 56.4053 26.656 57.2095 26.7253L83.6459 29.0047C85.6787 29.1799 86.1749 31.9291 84.3318 32.8041L59.2902 44.6909C58.3735 45.126 57.928 46.1786 58.2536 47.1395L67.194 73.5234C67.8354 75.4162 65.6102 76.9756 64.05 75.7267L43.0999 58.9573C42.4037 58.4001 41.4227 58.3711 40.6948 58.8862L17.0324 75.6306C15.3564 76.8167 13.1951 75.0093 14.0659 73.1498L25.8341 48.0211C26.2759 47.0778 25.9197 45.9533 25.0153 45.4365L1.8278 32.1847C0.101816 31.1983 0.715943 28.571 2.70034 28.4518L32.1518 26.6839C32.8996 26.639 33.5597 26.1799 33.8619 25.4944Z" fill="#8784D6"/>
</svg>
