<svg width="75" height="79" viewBox="0 0 75 79" fill="none" xmlns="http://www.w3.org/2000/svg">
<path d="M14.0818 49.5689L8.7817 64.0096C8.29479 65.3363 9.29997 66.7358 10.7127 66.698L45.0403 65.7808C45.8613 65.7588 46.5854 65.2373 46.8663 64.4655L51.1665 52.6509C51.4541 51.8608 52.1989 51.3383 53.033 51.2324C59.1296 50.4583 75 45.1628 75 30.6198C75 23.1638 67.4615 20.4294 62.7116 19.3692C61.4081 19.0783 60.564 17.6181 60.6816 16.2877C61.0733 11.8563 59.4581 4.26267 51.6455 1.26943C39.4082 -3.41904 33.8239 6.00182 30.9659 11.304C30.3396 12.4657 28.695 12.7527 27.4753 12.2485C21.8814 9.9364 8.77463 8.95993 3.09133 18.8791C-5.25729 33.4502 5.10787 43.3638 12.8864 46.8879C13.9107 47.352 14.4693 48.5133 14.0818 49.5689Z" fill="#8784D6"/>
<path d="M45.5633 76.0982L45.8667 74.0488C46.1435 72.18 44.6447 70.5236 42.7576 70.6127L8.38963 72.2358C7.10698 72.2964 6.00511 73.1666 5.64889 74.4003L5.52583 74.8265C4.97195 76.7448 6.41145 78.6587 8.40808 78.6587H42.5957C44.0828 78.6587 45.3455 77.5692 45.5633 76.0982Z" fill="#8784D6"/>
</svg>
