<svg width="206" height="30" viewBox="0 0 206 30" fill="none" xmlns="http://www.w3.org/2000/svg">
<path d="M33.8389 15.8909C33.4988 11.64 31.5575 7.67673 28.4074 4.80225C25.2573 1.92777 21.1333 0.356454 16.8692 0.405918C12.605 0.455383 8.51859 2.12194 5.43602 5.06872C2.35345 8.01549 0.504608 12.0227 0.263214 16.2803H6.91119C6.86311 19.8423 8.23196 23.2774 10.7166 25.8301C13.2013 28.3827 16.5982 29.8438 20.1601 29.8919C23.7221 29.94 27.1572 28.5711 29.7099 26.0865C32.2625 23.6018 33.7236 20.2049 33.7717 16.6429L33.8389 15.8909ZM20.3415 22.9955C18.5605 22.9955 16.8525 22.288 15.5931 21.0286C14.3338 19.7693 13.6263 18.0613 13.6263 16.2803C13.6263 14.4994 14.3338 12.7914 15.5931 11.532C16.8525 10.2727 18.5605 9.5652 20.3415 9.5652C22.1224 9.5652 23.8304 10.2727 25.0898 11.532C26.3491 12.7914 27.0566 14.4994 27.0566 16.2803C27.0566 18.0613 26.3491 19.7693 25.0898 21.0286C23.8304 22.288 22.1224 22.9955 20.3415 22.9955ZM129.623 5.72415C126.819 5.71697 124.125 6.82059 122.132 8.7937C120.139 10.7668 119.008 13.4489 118.987 16.2535C118.987 19.0745 120.107 21.78 122.102 23.7748C124.097 25.7696 126.802 26.8902 129.623 26.8902C132.445 26.8902 135.15 25.7696 137.145 23.7748C139.14 21.78 140.26 19.0745 140.26 16.2535C140.239 13.4489 139.108 10.7668 137.115 8.7937C135.122 6.82059 132.428 5.71697 129.623 5.72415ZM129.623 22.3911C128.869 22.345 128.13 22.1501 127.451 21.8175C126.772 21.485 126.165 21.0214 125.666 20.4534C125.167 19.8855 124.785 19.2244 124.542 18.5082C124.299 17.792 124.2 17.0348 124.251 16.2803C124.251 12.9631 126.508 10.1696 129.623 10.1696C132.739 10.1696 134.996 13.0168 134.996 16.2803C134.996 19.5439 132.726 22.3911 129.623 22.3911ZM82.8996 6.18078V8.53107L82.4564 8.00729C81.7263 7.23802 80.8376 6.63661 79.8521 6.24471C78.8665 5.85281 77.8076 5.67977 76.7485 5.73758C71.5242 5.73758 67.2668 10.4785 67.2668 16.2803C67.2668 22.0822 71.5242 26.8097 76.7485 26.8097C77.8147 26.8781 78.8828 26.7101 79.8765 26.3177C80.8702 25.9254 81.7649 25.3183 82.4967 24.5399L82.9399 24.0296V26.3665H88.0971V6.22107L82.8996 6.18078ZM83.2085 16.2803C83.2085 19.7185 81.0865 22.3911 77.8364 22.3911C74.5863 22.3911 72.3837 19.705 72.3837 16.2803C72.3837 12.8556 74.6266 10.1696 77.8364 10.1696C81.0462 10.1696 83.2085 12.8556 83.2085 16.2803ZM179.423 6.18078V8.53107L178.98 8.00729C178.245 7.23266 177.35 6.62811 176.357 6.23603C175.364 5.84394 174.297 5.67382 173.232 5.73758C168.007 5.73758 163.75 10.4785 163.75 16.2803C163.75 22.0822 168.007 26.8097 173.232 26.8097C174.298 26.8781 175.366 26.7101 176.359 26.3177C177.353 25.9254 178.248 25.3183 178.98 24.5399L179.423 24.0296V26.3665H184.58V6.22107L179.423 6.18078ZM179.732 16.2803C179.732 19.7185 177.61 22.3911 174.36 22.3911C171.11 22.3911 168.907 19.705 168.907 16.2803C168.907 12.8556 171.15 10.1696 174.36 10.1696C177.569 10.1696 179.732 12.8556 179.732 16.2803ZM59.4504 13.5943H64.6613C64.1755 11.3025 62.8957 9.25607 61.0478 7.8161C59.1999 6.37613 56.9027 5.63523 54.5618 5.72415C53.1631 5.68393 51.7708 5.92797 50.4692 6.4415C49.1676 6.95503 47.9837 7.72737 46.9893 8.71175C45.9949 9.69613 45.2106 10.8721 44.6839 12.1684C44.1571 13.4647 43.899 14.8545 43.925 16.2535C43.899 17.6531 44.1572 19.0434 44.6837 20.3404C45.2103 21.6375 45.9944 22.8143 46.9886 23.7997C47.9828 24.7852 49.1666 25.5588 50.4682 26.0738C51.7699 26.5888 53.1624 26.8346 54.5618 26.7962C56.9027 26.8851 59.1999 26.1442 61.0478 24.7043C62.8957 23.2643 64.1755 21.2178 64.6613 18.9261H59.4235C59.0603 19.9276 58.4003 20.7945 57.5317 21.4112C56.663 22.0279 55.627 22.365 54.5618 22.3777C51.3654 22.3777 49.1896 19.6916 49.1896 16.2535C49.1896 12.8153 51.4191 10.1427 54.5618 10.1427C55.6307 10.1537 56.6709 10.4898 57.5442 11.1064C58.4174 11.7229 59.0823 12.5907 59.4504 13.5943ZM97.0551 6.18078H92.6634V26.3262H97.8475V13.9569L104.039 21.8807L110.19 13.9569V26.353H115.374V6.20764H110.929L103.999 15.0716L97.1088 6.20764L97.0551 6.18078ZM162.407 6.18078H156.296L148.95 15.0447V6.18078H143.766V26.3262H148.95V17.6368L157.156 26.353H163.763L153.999 16.1192L162.407 6.18078ZM194.129 26.3262H199.313V10.5322H205.41V6.18078H188.099V10.5322H194.183V26.353L194.129 26.3262Z" fill="#FF335F"/>
</svg>
