<svg width="36" height="36" viewBox="0 0 36 36" fill="none" xmlns="http://www.w3.org/2000/svg">
<path d="M33.4589 10.9316L25.2081 2.68076C24.5589 2.03158 23.4535 2.29253 23.1632 3.16349L22.9092 3.92537C22.4485 5.30753 21.7535 6.60149 20.7821 7.68728C19.5741 9.03742 17.754 10.9326 15.9288 12.3102C15.8987 12.3329 15.8635 12.3474 15.8262 12.3527L13.3074 12.7125C11.3843 12.9873 9.60212 13.8784 8.22845 15.252C8.08631 15.3942 8.0863 15.6246 8.22845 15.7668L20.3729 27.9112C20.5151 28.0534 20.7455 28.0534 20.8877 27.9112C22.2613 26.5376 23.1524 24.7554 23.4272 22.8323L23.787 20.3135C23.7923 20.2762 23.8067 20.241 23.8295 20.2109C25.2071 18.3857 27.1023 16.5655 28.4524 15.3576C29.5382 14.3861 30.8322 13.6912 32.2143 13.2305L32.9762 12.9765C33.8472 12.6862 34.1081 11.5808 33.4589 10.9316Z" fill="white"/>
<path d="M16.6729 19.4648L7.17843 28.9593" stroke="white" stroke-width="2" stroke-linecap="round"/>
</svg>
