<svg width="580" height="349" viewBox="0 0 580 349" fill="none" xmlns="http://www.w3.org/2000/svg">
<path d="M580 42.706C580 31.9753 571.532 23.1569 560.81 22.7225L20.8097 0.843151C9.45569 0.383118 0 9.46343 0 20.8268V327.016C0 338.625 9.84998 347.795 21.4286 346.965L561.429 308.293C571.893 307.544 580 298.836 580 288.344V42.706Z" fill="#462B74"/>
<path d="M78.088 75.148C77.416 75.148 76.864 75.244 76.432 75.436C76 75.58 75.592 75.868 75.208 76.3C74.824 76.732 74.56 77.26 74.416 77.884C74.272 78.508 74.152 79.204 74.056 79.972L73.408 85.948C73.36 86.572 73.288 87.148 73.192 87.676C73.096 88.156 73 88.66 72.904 89.188C72.808 89.668 72.664 90.1 72.472 90.484C72.184 91.156 71.824 91.756 71.392 92.284C71.008 92.764 70.624 93.148 70.24 93.436L77.872 119.5H70.384L63.904 96.676H59.8V119.5H52.456V68.236H59.8V90.196H62.248C63.112 90.196 63.808 90.076 64.336 89.836C64.864 89.596 65.296 89.26 65.632 88.828C65.968 88.396 66.208 87.916 66.352 87.388C66.496 86.812 66.616 86.188 66.712 85.516L67.432 79.396C67.48 79.204 67.528 78.82 67.576 78.244C67.672 77.62 67.816 76.924 68.008 76.156C68.2 75.388 68.464 74.596 68.8 73.78C69.136 72.964 69.568 72.196 70.096 71.476C71.008 70.324 72.112 69.508 73.408 69.028C74.752 68.5 76.312 68.236 78.088 68.236V75.148ZM96.3805 101.572L92.7805 82.996H92.6365L89.0365 101.572H96.3805ZM78.2365 119.5L89.6845 68.236H95.8045L107.253 119.5H99.9085L97.7485 108.484H87.7405L85.5805 119.5H78.2365ZM130.433 119.5H123.089V96.748C122.705 96.796 122.225 96.868 121.649 96.964C121.073 97.012 120.305 97.036 119.345 97.036C117.665 97.036 116.033 96.796 114.449 96.316C112.865 95.836 111.545 95.092 110.489 94.084C109.433 93.076 108.641 91.78 108.113 90.196C107.633 88.612 107.393 86.932 107.393 85.156V68.236H114.737V84.292C114.737 85.108 114.833 85.924 115.025 86.74C115.217 87.556 115.577 88.228 116.105 88.756C117.017 89.668 118.385 90.124 120.209 90.124C120.593 90.124 120.977 90.124 121.361 90.124C121.745 90.076 122.057 90.028 122.297 89.98C122.585 89.932 122.849 89.884 123.089 89.836V68.236H130.433V119.5ZM136.64 119.5V68.236H158.528V75.148H143.984V90.196H156.656V97.108H143.984V112.156H158.528V119.5H136.64ZM185.896 104.884V108.052C185.896 109.636 185.584 111.148 184.96 112.588C184.384 113.98 183.568 115.228 182.512 116.332C181.456 117.436 180.208 118.324 178.768 118.996C177.376 119.62 175.864 119.932 174.232 119.932C172.84 119.932 171.424 119.74 169.984 119.356C168.544 118.972 167.248 118.3 166.096 117.34C164.944 116.38 163.984 115.156 163.216 113.668C162.496 112.132 162.136 110.188 162.136 107.836V79.612C162.136 77.932 162.424 76.372 163 74.932C163.576 73.492 164.392 72.244 165.448 71.188C166.504 70.132 167.752 69.316 169.192 68.74C170.68 68.116 172.312 67.804 174.088 67.804C177.544 67.804 180.352 68.932 182.512 71.188C183.568 72.292 184.384 73.612 184.96 75.148C185.584 76.636 185.896 78.268 185.896 80.044V82.924H178.552V80.476C178.552 79.036 178.144 77.788 177.328 76.732C176.512 75.676 175.408 75.148 174.016 75.148C172.192 75.148 170.968 75.724 170.344 76.876C169.768 77.98 169.48 79.396 169.48 81.124V107.332C169.48 108.82 169.792 110.068 170.416 111.076C171.088 112.084 172.264 112.588 173.944 112.588C174.424 112.588 174.928 112.516 175.456 112.372C176.032 112.18 176.56 111.892 177.04 111.508C177.472 111.124 177.832 110.596 178.12 109.924C178.408 109.252 178.552 108.412 178.552 107.404V104.884H185.896ZM195.289 119.5V75.148H186.793V68.236H211.129V75.148H202.633V119.5H195.289ZM213.652 119.5V68.236H224.38C226.732 68.236 228.724 68.596 230.356 69.316C232.036 70.036 233.404 70.996 234.46 72.196C235.516 73.396 236.26 74.788 236.692 76.372C237.172 77.908 237.412 79.516 237.412 81.196V83.068C237.412 84.46 237.292 85.636 237.052 86.596C236.86 87.556 236.548 88.396 236.116 89.116C235.3 90.46 234.052 91.612 232.372 92.572C234.1 93.388 235.372 94.588 236.188 96.172C237.004 97.756 237.412 99.916 237.412 102.652V105.532C237.412 110.044 236.308 113.5 234.1 115.9C231.94 118.3 228.46 119.5 223.66 119.5H213.652ZM220.996 95.74V112.156H224.164C225.652 112.156 226.804 111.94 227.62 111.508C228.484 111.076 229.132 110.476 229.564 109.708C229.996 108.94 230.26 108.028 230.356 106.972C230.452 105.916 230.5 104.764 230.5 103.516C230.5 102.22 230.428 101.092 230.284 100.132C230.14 99.172 229.852 98.356 229.42 97.684C228.94 97.012 228.292 96.532 227.476 96.244C226.66 95.908 225.58 95.74 224.236 95.74H220.996ZM220.996 75.148V89.26H224.308C226.756 89.26 228.388 88.66 229.204 87.46C230.068 86.212 230.5 84.412 230.5 82.06C230.5 79.756 230.02 78.028 229.06 76.876C228.148 75.724 226.468 75.148 224.02 75.148H220.996ZM243.156 80.332C243.156 78.268 243.516 76.444 244.236 74.86C244.956 73.276 245.916 71.956 247.116 70.9C248.268 69.892 249.564 69.124 251.004 68.596C252.492 68.068 253.98 67.804 255.468 67.804C256.956 67.804 258.42 68.068 259.86 68.596C261.348 69.124 262.692 69.892 263.892 70.9C265.044 71.956 265.98 73.276 266.7 74.86C267.42 76.444 267.78 78.268 267.78 80.332V107.404C267.78 109.564 267.42 111.412 266.7 112.948C265.98 114.484 265.044 115.756 263.892 116.764C262.692 117.82 261.348 118.612 259.86 119.14C258.42 119.668 256.956 119.932 255.468 119.932C253.98 119.932 252.492 119.668 251.004 119.14C249.564 118.612 248.268 117.82 247.116 116.764C245.916 115.756 244.956 114.484 244.236 112.948C243.516 111.412 243.156 109.564 243.156 107.404V80.332ZM250.5 107.404C250.5 109.18 250.98 110.5 251.94 111.364C252.948 112.18 254.124 112.588 255.468 112.588C256.812 112.588 257.964 112.18 258.924 111.364C259.932 110.5 260.436 109.18 260.436 107.404V80.332C260.436 78.556 259.932 77.26 258.924 76.444C257.964 75.58 256.812 75.148 255.468 75.148C254.124 75.148 252.948 75.58 251.94 76.444C250.98 77.26 250.5 78.556 250.5 80.332V107.404Z" fill="white"/>
<path d="M55.5039 166.262H57.5352L61.6172 175.539L65.6211 166.262H67.6621V180.5H65.5039V171.623H65.4648L62.4766 178.459H60.6797L57.7012 171.623H57.6621V180.5H55.5039V166.262ZM70.4941 170.363H72.5352V174.182H75.2109C76.2005 174.182 76.9948 174.471 77.5938 175.051C78.1927 175.63 78.4922 176.392 78.4922 177.336C78.4922 178.286 78.1927 179.051 77.5938 179.631C76.9948 180.21 76.2005 180.5 75.2109 180.5H70.4941V170.363ZM74.9961 178.703C75.4648 178.703 75.8294 178.579 76.0898 178.332C76.3503 178.085 76.4805 177.74 76.4805 177.297C76.4805 176.874 76.3503 176.538 76.0898 176.291C75.8294 176.044 75.4648 175.92 74.9961 175.92H72.5352V178.703H74.9961ZM79.8984 170.363H81.9395V180.5H79.8984V170.363ZM93.1992 180.617C91.9883 180.617 90.9368 180.21 90.0449 179.396C89.0944 178.583 88.6126 177.264 88.5996 175.441C88.6257 173.586 89.1074 172.251 90.0449 171.438C90.9499 170.611 92.0013 170.21 93.1992 170.236C93.987 170.262 94.6803 170.425 95.2793 170.725C95.8978 171.044 96.4186 171.47 96.8418 172.004L95.3379 173.342C94.8236 172.645 94.14 172.29 93.2871 172.277C91.5358 172.251 90.6536 173.306 90.6406 175.441C90.6536 177.557 91.5358 178.602 93.2871 178.576C94.153 178.55 94.8366 178.199 95.3379 177.521L96.8418 178.859C96.3861 179.367 95.8652 179.781 95.2793 180.1C94.6673 180.445 93.974 180.617 93.1992 180.617ZM101.051 180.617C99.931 180.604 99.0586 180.305 98.4336 179.719C97.7891 179.146 97.4668 178.413 97.4668 177.521C97.4668 176.669 97.7467 175.962 98.3066 175.402C98.8535 174.842 99.6738 174.549 100.768 174.523H103.59V173.459C103.603 172.567 102.91 172.134 101.51 172.16C101.028 172.16 100.628 172.212 100.309 172.316C100.003 172.44 99.7617 172.648 99.5859 172.941L97.9844 171.721C98.7591 170.705 99.9017 170.21 101.412 170.236C102.688 170.223 103.707 170.464 104.469 170.959C105.217 171.454 105.605 172.326 105.631 173.576V180.5H103.59V179.602H103.551C103.362 179.947 103.069 180.201 102.672 180.363C102.307 180.533 101.767 180.617 101.051 180.617ZM101.305 178.703C102.164 178.729 102.766 178.628 103.111 178.4C103.43 178.186 103.59 177.697 103.59 176.936V176.203H101.148C99.9505 176.229 99.3646 176.636 99.3906 177.424C99.3906 177.769 99.5436 178.062 99.8496 178.303C100.156 178.57 100.641 178.703 101.305 178.703ZM108.268 170.363H110.289L113.326 176.398L116.354 170.363H118.346V180.5H116.305V173.996L113.971 178.645H112.691L110.309 173.996V180.5H108.268V170.363ZM120.982 170.363H123.023V177.238L127.428 170.363H129.469V180.5H127.428V173.518L123.023 180.5H120.982V170.363ZM136.92 170.363H145.025V180.5H142.984V172.277H138.961V180.5H136.92V170.363ZM147.662 170.363H149.703V171.418C150.387 170.656 151.259 170.262 152.32 170.236C153.551 170.249 154.459 170.692 155.045 171.564C155.338 171.896 155.53 172.316 155.621 172.824C155.673 173.091 155.709 173.443 155.729 173.879C155.755 174.309 155.768 174.829 155.768 175.441C155.768 176.04 155.755 176.555 155.729 176.984C155.709 177.408 155.673 177.753 155.621 178.02C155.53 178.527 155.338 178.954 155.045 179.299C154.752 179.702 154.384 180.015 153.941 180.236C153.505 180.464 152.965 180.591 152.32 180.617C151.819 180.617 151.354 180.503 150.924 180.275C150.481 180.054 150.074 179.768 149.703 179.416V184.602H147.662V170.363ZM151.705 178.576C152.174 178.576 152.555 178.485 152.848 178.303C153.128 178.127 153.326 177.886 153.443 177.58C153.58 177.3 153.668 176.962 153.707 176.564C153.72 176.376 153.727 176.19 153.727 176.008C153.727 175.819 153.727 175.63 153.727 175.441C153.727 175.24 153.727 175.041 153.727 174.846C153.727 174.644 153.72 174.449 153.707 174.26C153.668 173.863 153.58 173.524 153.443 173.244C153.326 172.951 153.128 172.71 152.848 172.521C152.568 172.359 152.187 172.277 151.705 172.277C151.249 172.277 150.888 172.372 150.621 172.561C150.354 172.736 150.149 172.984 150.006 173.303C149.882 173.596 149.801 173.928 149.762 174.299C149.723 174.689 149.703 175.07 149.703 175.441C149.703 175.799 149.723 176.158 149.762 176.516C149.801 176.906 149.882 177.248 150.006 177.541C150.149 177.86 150.354 178.107 150.621 178.283C150.875 178.479 151.236 178.576 151.705 178.576ZM161.734 180.617C160.986 180.617 160.351 180.471 159.83 180.178C159.316 179.911 158.925 179.624 158.658 179.318C158.268 178.895 157.988 178.41 157.818 177.863C157.643 177.329 157.555 176.516 157.555 175.422C157.555 174.341 157.643 173.521 157.818 172.961C158.001 172.388 158.281 171.913 158.658 171.535C158.938 171.203 159.329 170.904 159.83 170.637C160.338 170.37 160.973 170.236 161.734 170.236C162.522 170.236 163.17 170.37 163.678 170.637C164.166 170.904 164.544 171.203 164.811 171.535C165.201 171.913 165.488 172.388 165.67 172.961C165.833 173.547 165.914 174.367 165.914 175.422C165.914 176.49 165.833 177.303 165.67 177.863C165.488 178.423 165.201 178.908 164.811 179.318C164.745 179.383 164.674 179.458 164.596 179.543C164.518 179.621 164.43 179.693 164.332 179.758C164.15 179.921 163.932 180.061 163.678 180.178C163.157 180.471 162.509 180.617 161.734 180.617ZM161.734 178.576C162.092 178.576 162.418 178.505 162.711 178.361C163.004 178.225 163.225 178.052 163.375 177.844C163.59 177.564 163.723 177.271 163.775 176.965C163.801 176.802 163.824 176.594 163.844 176.34C163.863 176.086 163.873 175.786 163.873 175.441C163.873 175.083 163.863 174.774 163.844 174.514C163.824 174.253 163.801 174.035 163.775 173.859C163.723 173.553 163.59 173.273 163.375 173.02C163.225 172.805 163.004 172.626 162.711 172.482C162.444 172.346 162.118 172.277 161.734 172.277C161.376 172.277 161.057 172.346 160.777 172.482C160.51 172.613 160.283 172.792 160.094 173.02C159.918 173.247 159.791 173.527 159.713 173.859C159.635 174.204 159.596 174.725 159.596 175.422C159.596 176.125 159.635 176.639 159.713 176.965C159.791 177.297 159.918 177.59 160.094 177.844C160.296 178.052 160.523 178.225 160.777 178.361C161.096 178.505 161.415 178.576 161.734 178.576ZM168.053 170.363H170.094V177.238L174.498 170.363H176.539V180.5H174.498V173.518L170.094 180.5H168.053V170.363ZM181.91 180.617C181.07 180.617 180.348 180.484 179.742 180.217C179.143 179.95 178.583 179.536 178.062 178.977L179.547 177.717C179.879 178.055 180.214 178.306 180.553 178.469C180.898 178.625 181.35 178.703 181.91 178.703C182.535 178.703 183.036 178.589 183.414 178.361C183.798 178.133 183.99 177.798 183.99 177.355C183.99 176.919 183.847 176.613 183.561 176.438C183.274 176.255 182.828 176.164 182.223 176.164H180.748V174.484H182.252C182.74 174.484 183.131 174.377 183.424 174.162C183.717 173.947 183.863 173.648 183.863 173.264C183.863 172.873 183.694 172.59 183.355 172.414C183.017 172.232 182.535 172.141 181.91 172.141C181.493 172.141 181.083 172.212 180.68 172.355C180.283 172.492 179.924 172.714 179.605 173.02L178.15 171.76C178.391 171.519 178.635 171.307 178.883 171.125C179.137 170.936 179.417 170.777 179.723 170.646C180.035 170.51 180.383 170.409 180.768 170.344C181.152 170.272 181.598 170.236 182.105 170.236C182.652 170.236 183.167 170.282 183.648 170.373C184.13 170.458 184.544 170.627 184.889 170.881C185.208 171.109 185.449 171.408 185.611 171.779C185.781 172.15 185.865 172.551 185.865 172.98C185.865 173.475 185.735 173.924 185.475 174.328C185.214 174.725 184.853 175.015 184.391 175.197C184.879 175.386 185.273 175.689 185.572 176.105C185.878 176.516 186.031 177.001 186.031 177.561C186.031 178.081 185.908 178.566 185.66 179.016C185.413 179.458 185.061 179.813 184.605 180.08C184.26 180.295 183.854 180.438 183.385 180.51C182.923 180.581 182.431 180.617 181.91 180.617ZM188.17 170.363H193.033C193.964 170.363 194.706 170.611 195.26 171.105C195.813 171.594 196.09 172.251 196.09 173.078C196.09 174.094 195.618 174.82 194.674 175.256C195.182 175.484 195.572 175.793 195.846 176.184C196.119 176.568 196.256 177.053 196.256 177.639C196.256 178.518 195.986 179.214 195.445 179.729C194.905 180.243 194.153 180.5 193.189 180.5H188.17V170.363ZM192.789 178.801C193.245 178.801 193.603 178.677 193.863 178.43C194.124 178.182 194.254 177.854 194.254 177.443C194.254 177.014 194.124 176.682 193.863 176.447C193.603 176.213 193.245 176.096 192.789 176.096H190.211V178.801H192.789ZM192.652 174.523C193.609 174.523 194.088 174.104 194.088 173.264C194.088 172.873 193.964 172.577 193.717 172.375C193.476 172.167 193.121 172.062 192.652 172.062H190.211V174.523H192.652ZM202.086 180.617C201.337 180.617 200.702 180.471 200.182 180.178C199.667 179.911 199.277 179.624 199.01 179.318C198.619 178.895 198.339 178.41 198.17 177.863C197.994 177.329 197.906 176.516 197.906 175.422C197.906 174.341 197.994 173.521 198.17 172.961C198.352 172.388 198.632 171.913 199.01 171.535C199.29 171.203 199.68 170.904 200.182 170.637C200.689 170.37 201.324 170.236 202.086 170.236C202.874 170.236 203.521 170.37 204.029 170.637C204.518 170.904 204.895 171.203 205.162 171.535C205.553 171.913 205.839 172.388 206.021 172.961C206.184 173.547 206.266 174.367 206.266 175.422C206.266 176.49 206.184 177.303 206.021 177.863C205.839 178.423 205.553 178.908 205.162 179.318C205.097 179.383 205.025 179.458 204.947 179.543C204.869 179.621 204.781 179.693 204.684 179.758C204.501 179.921 204.283 180.061 204.029 180.178C203.508 180.471 202.861 180.617 202.086 180.617ZM202.086 178.576C202.444 178.576 202.77 178.505 203.062 178.361C203.355 178.225 203.577 178.052 203.727 177.844C203.941 177.564 204.075 177.271 204.127 176.965C204.153 176.802 204.176 176.594 204.195 176.34C204.215 176.086 204.225 175.786 204.225 175.441C204.225 175.083 204.215 174.774 204.195 174.514C204.176 174.253 204.153 174.035 204.127 173.859C204.075 173.553 203.941 173.273 203.727 173.02C203.577 172.805 203.355 172.626 203.062 172.482C202.796 172.346 202.47 172.277 202.086 172.277C201.728 172.277 201.409 172.346 201.129 172.482C200.862 172.613 200.634 172.792 200.445 173.02C200.27 173.247 200.143 173.527 200.064 173.859C199.986 174.204 199.947 174.725 199.947 175.422C199.947 176.125 199.986 176.639 200.064 176.965C200.143 177.297 200.27 177.59 200.445 177.844C200.647 178.052 200.875 178.225 201.129 178.361C201.448 178.505 201.767 178.576 202.086 178.576ZM207.203 178.576H208.365C208.541 178.14 208.697 177.684 208.834 177.209C208.977 176.734 209.091 176.184 209.176 175.559C209.26 174.934 209.326 174.201 209.371 173.361C209.423 172.521 209.449 171.522 209.449 170.363H216.285V178.576H217.682V183.098H215.768V180.5H209.127V183.098H207.203V178.576ZM214.244 178.576V172.277H211.383C211.383 173.104 211.36 173.833 211.314 174.465C211.269 175.09 211.204 175.653 211.119 176.154C211.041 176.649 210.947 177.095 210.836 177.492C210.725 177.883 210.608 178.244 210.484 178.576H214.244ZM219.146 170.363H221.188V177.238L225.592 170.363H227.633V180.5H225.592V173.518L221.188 180.5H219.146V170.363ZM230.279 170.363H232.301L235.338 176.398L238.365 170.363H240.357V180.5H238.316V173.996L235.982 178.645H234.703L232.32 173.996V180.5H230.279V170.363ZM247.799 170.363H249.84V174.338H250.797C251.161 174.338 251.464 174.26 251.705 174.104C251.952 173.941 252.132 173.719 252.242 173.439L252.721 172.082C252.936 171.47 253.229 171.031 253.6 170.764C253.971 170.497 254.492 170.363 255.162 170.363H255.836V172.199H255.543C255.341 172.199 255.172 172.209 255.035 172.229C254.905 172.248 254.794 172.29 254.703 172.355C254.618 172.414 254.547 172.499 254.488 172.609C254.43 172.72 254.368 172.87 254.303 173.059L253.961 174.064C253.857 174.37 253.707 174.611 253.512 174.787C253.316 174.956 253.105 175.08 252.877 175.158C253.229 175.269 253.508 175.435 253.717 175.656C253.932 175.871 254.114 176.164 254.264 176.535L254.742 177.775C254.807 177.951 254.869 178.094 254.928 178.205C254.986 178.309 255.055 178.391 255.133 178.449C255.217 178.508 255.315 178.55 255.426 178.576C255.543 178.602 255.696 178.615 255.885 178.615H256.344V180.5H255.602C254.866 180.5 254.303 180.363 253.912 180.09C253.528 179.816 253.212 179.348 252.965 178.684L252.398 177.238C252.307 176.997 252.193 176.815 252.057 176.691C251.926 176.561 251.783 176.464 251.627 176.398C251.477 176.333 251.321 176.294 251.158 176.281C251.002 176.268 250.842 176.262 250.68 176.262H249.84V180.5H247.799V170.363ZM261.637 180.617C260.888 180.617 260.253 180.471 259.732 180.178C259.218 179.911 258.827 179.624 258.561 179.318C258.17 178.895 257.89 178.41 257.721 177.863C257.545 177.329 257.457 176.516 257.457 175.422C257.457 174.341 257.545 173.521 257.721 172.961C257.903 172.388 258.183 171.913 258.561 171.535C258.84 171.203 259.231 170.904 259.732 170.637C260.24 170.37 260.875 170.236 261.637 170.236C262.424 170.236 263.072 170.37 263.58 170.637C264.068 170.904 264.446 171.203 264.713 171.535C265.104 171.913 265.39 172.388 265.572 172.961C265.735 173.547 265.816 174.367 265.816 175.422C265.816 176.49 265.735 177.303 265.572 177.863C265.39 178.423 265.104 178.908 264.713 179.318C264.648 179.383 264.576 179.458 264.498 179.543C264.42 179.621 264.332 179.693 264.234 179.758C264.052 179.921 263.834 180.061 263.58 180.178C263.059 180.471 262.411 180.617 261.637 180.617ZM261.637 178.576C261.995 178.576 262.32 178.505 262.613 178.361C262.906 178.225 263.128 178.052 263.277 177.844C263.492 177.564 263.626 177.271 263.678 176.965C263.704 176.802 263.727 176.594 263.746 176.34C263.766 176.086 263.775 175.786 263.775 175.441C263.775 175.083 263.766 174.774 263.746 174.514C263.727 174.253 263.704 174.035 263.678 173.859C263.626 173.553 263.492 173.273 263.277 173.02C263.128 172.805 262.906 172.626 262.613 172.482C262.346 172.346 262.021 172.277 261.637 172.277C261.279 172.277 260.96 172.346 260.68 172.482C260.413 172.613 260.185 172.792 259.996 173.02C259.82 173.247 259.693 173.527 259.615 173.859C259.537 174.204 259.498 174.725 259.498 175.422C259.498 176.125 259.537 176.639 259.615 176.965C259.693 177.297 259.82 177.59 259.996 177.844C260.198 178.052 260.426 178.225 260.68 178.361C260.999 178.505 261.318 178.576 261.637 178.576ZM267.955 170.363H269.977L273.014 176.398L276.041 170.363H278.033V180.5H275.992V173.996L273.658 178.645H272.379L269.996 173.996V180.5H267.955V170.363ZM284.713 180.617C283.684 180.617 282.848 180.38 282.203 179.904C281.559 179.423 281.103 178.781 280.836 177.98C280.751 177.753 280.689 177.492 280.65 177.199C280.611 176.906 280.579 176.6 280.553 176.281C280.527 175.962 280.51 175.643 280.504 175.324C280.497 174.999 280.494 174.696 280.494 174.416V173.645C280.494 173.098 280.504 172.567 280.523 172.053C280.543 171.538 280.602 171.05 280.699 170.588C280.803 170.119 280.953 169.686 281.148 169.289C281.35 168.885 281.624 168.521 281.969 168.195C282.249 167.948 282.545 167.746 282.857 167.59C283.176 167.434 283.505 167.313 283.844 167.229C284.182 167.144 284.524 167.079 284.869 167.033C285.214 166.988 285.556 166.942 285.895 166.896C286.103 166.87 286.272 166.809 286.402 166.711C286.539 166.613 286.624 166.464 286.656 166.262H288.736C288.626 167.74 287.939 168.579 286.676 168.781C286.35 168.833 286.028 168.876 285.709 168.908C285.39 168.941 285.074 168.99 284.762 169.055C284.449 169.113 284.153 169.201 283.873 169.318C283.593 169.429 283.333 169.589 283.092 169.797C282.786 170.077 282.561 170.412 282.418 170.803C282.281 171.187 282.206 171.545 282.193 171.877H282.252C282.48 171.48 282.848 171.141 283.355 170.861C283.87 170.581 284.469 170.441 285.152 170.441C286.487 170.441 287.451 170.878 288.043 171.75C288.635 172.622 288.932 173.866 288.932 175.48C288.932 176.359 288.85 177.111 288.688 177.736C288.531 178.355 288.264 178.889 287.887 179.338C287.542 179.755 287.102 180.074 286.568 180.295C286.035 180.51 285.416 180.617 284.713 180.617ZM284.693 178.596C285.038 178.596 285.351 178.534 285.631 178.41C285.911 178.286 286.145 178.111 286.334 177.883C286.562 177.616 286.712 177.294 286.783 176.916C286.855 176.532 286.891 176.066 286.891 175.52C286.891 174.96 286.855 174.481 286.783 174.084C286.712 173.68 286.562 173.345 286.334 173.078C286.145 172.863 285.911 172.697 285.631 172.58C285.351 172.463 285.038 172.404 284.693 172.404C284.348 172.404 284.036 172.466 283.756 172.59C283.476 172.714 283.248 172.889 283.072 173.117C282.844 173.384 282.698 173.719 282.633 174.123C282.568 174.52 282.535 174.999 282.535 175.559C282.535 176.197 282.587 176.704 282.691 177.082C282.796 177.453 282.962 177.759 283.189 178C283.378 178.189 283.603 178.335 283.863 178.439C284.124 178.544 284.4 178.596 284.693 178.596ZM291.08 170.363H293.121V177.238L297.525 170.363H299.566V180.5H297.525V173.518L293.121 180.5H291.08V170.363ZM302.213 170.363H304.254V174.338H305.211C305.576 174.338 305.878 174.26 306.119 174.104C306.367 173.941 306.546 173.719 306.656 173.439L307.135 172.082C307.35 171.47 307.643 171.031 308.014 170.764C308.385 170.497 308.906 170.363 309.576 170.363H310.25V172.199H309.957C309.755 172.199 309.586 172.209 309.449 172.229C309.319 172.248 309.208 172.29 309.117 172.355C309.033 172.414 308.961 172.499 308.902 172.609C308.844 172.72 308.782 172.87 308.717 173.059L308.375 174.064C308.271 174.37 308.121 174.611 307.926 174.787C307.73 174.956 307.519 175.08 307.291 175.158C307.643 175.269 307.923 175.435 308.131 175.656C308.346 175.871 308.528 176.164 308.678 176.535L309.156 177.775C309.221 177.951 309.283 178.094 309.342 178.205C309.4 178.309 309.469 178.391 309.547 178.449C309.632 178.508 309.729 178.55 309.84 178.576C309.957 178.602 310.11 178.615 310.299 178.615H310.758V180.5H310.016C309.28 180.5 308.717 180.363 308.326 180.09C307.942 179.816 307.626 179.348 307.379 178.684L306.812 177.238C306.721 176.997 306.607 176.815 306.471 176.691C306.34 176.561 306.197 176.464 306.041 176.398C305.891 176.333 305.735 176.294 305.572 176.281C305.416 176.268 305.257 176.262 305.094 176.262H304.254V180.5H302.213V170.363ZM316.051 180.617C315.302 180.617 314.667 180.471 314.146 180.178C313.632 179.911 313.242 179.624 312.975 179.318C312.584 178.895 312.304 178.41 312.135 177.863C311.959 177.329 311.871 176.516 311.871 175.422C311.871 174.341 311.959 173.521 312.135 172.961C312.317 172.388 312.597 171.913 312.975 171.535C313.255 171.203 313.645 170.904 314.146 170.637C314.654 170.37 315.289 170.236 316.051 170.236C316.839 170.236 317.486 170.37 317.994 170.637C318.482 170.904 318.86 171.203 319.127 171.535C319.518 171.913 319.804 172.388 319.986 172.961C320.149 173.547 320.23 174.367 320.23 175.422C320.23 176.49 320.149 177.303 319.986 177.863C319.804 178.423 319.518 178.908 319.127 179.318C319.062 179.383 318.99 179.458 318.912 179.543C318.834 179.621 318.746 179.693 318.648 179.758C318.466 179.921 318.248 180.061 317.994 180.178C317.473 180.471 316.826 180.617 316.051 180.617ZM316.051 178.576C316.409 178.576 316.734 178.505 317.027 178.361C317.32 178.225 317.542 178.052 317.691 177.844C317.906 177.564 318.04 177.271 318.092 176.965C318.118 176.802 318.141 176.594 318.16 176.34C318.18 176.086 318.189 175.786 318.189 175.441C318.189 175.083 318.18 174.774 318.16 174.514C318.141 174.253 318.118 174.035 318.092 173.859C318.04 173.553 317.906 173.273 317.691 173.02C317.542 172.805 317.32 172.626 317.027 172.482C316.76 172.346 316.435 172.277 316.051 172.277C315.693 172.277 315.374 172.346 315.094 172.482C314.827 172.613 314.599 172.792 314.41 173.02C314.234 173.247 314.107 173.527 314.029 173.859C313.951 174.204 313.912 174.725 313.912 175.422C313.912 176.125 313.951 176.639 314.029 176.965C314.107 177.297 314.234 177.59 314.41 177.844C314.612 178.052 314.84 178.225 315.094 178.361C315.413 178.505 315.732 178.576 316.051 178.576ZM322.369 170.363H324.41V171.418C325.094 170.656 325.966 170.262 327.027 170.236C328.258 170.249 329.166 170.692 329.752 171.564C330.045 171.896 330.237 172.316 330.328 172.824C330.38 173.091 330.416 173.443 330.436 173.879C330.462 174.309 330.475 174.829 330.475 175.441C330.475 176.04 330.462 176.555 330.436 176.984C330.416 177.408 330.38 177.753 330.328 178.02C330.237 178.527 330.045 178.954 329.752 179.299C329.459 179.702 329.091 180.015 328.648 180.236C328.212 180.464 327.672 180.591 327.027 180.617C326.526 180.617 326.061 180.503 325.631 180.275C325.188 180.054 324.781 179.768 324.41 179.416V184.602H322.369V170.363ZM326.412 178.576C326.881 178.576 327.262 178.485 327.555 178.303C327.835 178.127 328.033 177.886 328.15 177.58C328.287 177.3 328.375 176.962 328.414 176.564C328.427 176.376 328.434 176.19 328.434 176.008C328.434 175.819 328.434 175.63 328.434 175.441C328.434 175.24 328.434 175.041 328.434 174.846C328.434 174.644 328.427 174.449 328.414 174.26C328.375 173.863 328.287 173.524 328.15 173.244C328.033 172.951 327.835 172.71 327.555 172.521C327.275 172.359 326.894 172.277 326.412 172.277C325.956 172.277 325.595 172.372 325.328 172.561C325.061 172.736 324.856 172.984 324.713 173.303C324.589 173.596 324.508 173.928 324.469 174.299C324.43 174.689 324.41 175.07 324.41 175.441C324.41 175.799 324.43 176.158 324.469 176.516C324.508 176.906 324.589 177.248 324.713 177.541C324.856 177.86 325.061 178.107 325.328 178.283C325.582 178.479 325.943 178.576 326.412 178.576ZM332.76 170.363H334.781L337.818 176.398L340.846 170.363H342.838V180.5H340.797V173.996L338.463 178.645H337.184L334.801 173.996V180.5H332.76V170.363ZM345.533 181.984V178.459H347.574V180.5L345.533 181.984ZM55.3184 196.363H60.1816C61.1126 196.363 61.8548 196.611 62.4082 197.105C62.9616 197.594 63.2383 198.251 63.2383 199.078C63.2383 200.094 62.7663 200.82 61.8223 201.256C62.3301 201.484 62.7207 201.793 62.9941 202.184C63.2676 202.568 63.4043 203.053 63.4043 203.639C63.4043 204.518 63.1341 205.214 62.5938 205.729C62.0534 206.243 61.3014 206.5 60.3379 206.5H55.3184V196.363ZM59.9375 204.801C60.3932 204.801 60.7513 204.677 61.0117 204.43C61.2721 204.182 61.4023 203.854 61.4023 203.443C61.4023 203.014 61.2721 202.682 61.0117 202.447C60.7513 202.213 60.3932 202.096 59.9375 202.096H57.3594V204.801H59.9375ZM59.8008 200.523C60.7578 200.523 61.2363 200.104 61.2363 199.264C61.2363 198.873 61.1126 198.577 60.8652 198.375C60.6243 198.167 60.2695 198.062 59.8008 198.062H57.3594V200.523H59.8008ZM65.5527 196.363H67.5938V200.182H70.2695C71.2591 200.182 72.0534 200.471 72.6523 201.051C73.2513 201.63 73.5508 202.392 73.5508 203.336C73.5508 204.286 73.2513 205.051 72.6523 205.631C72.0534 206.21 71.2591 206.5 70.2695 206.5H65.5527V196.363ZM70.0547 204.703C70.5234 204.703 70.888 204.579 71.1484 204.332C71.4089 204.085 71.5391 203.74 71.5391 203.297C71.5391 202.874 71.4089 202.538 71.1484 202.291C70.888 202.044 70.5234 201.92 70.0547 201.92H67.5938V204.703H70.0547ZM74.957 196.363H76.998V206.5H74.957V196.363ZM79.6348 196.363H81.6758V197.418C82.3594 196.656 83.2318 196.262 84.293 196.236C85.5234 196.249 86.4316 196.692 87.0176 197.564C87.3105 197.896 87.5026 198.316 87.5938 198.824C87.6458 199.091 87.6816 199.443 87.7012 199.879C87.7272 200.309 87.7402 200.829 87.7402 201.441C87.7402 202.04 87.7272 202.555 87.7012 202.984C87.6816 203.408 87.6458 203.753 87.5938 204.02C87.5026 204.527 87.3105 204.954 87.0176 205.299C86.7246 205.702 86.3568 206.015 85.9141 206.236C85.4779 206.464 84.9375 206.591 84.293 206.617C83.7917 206.617 83.3262 206.503 82.8965 206.275C82.4538 206.054 82.0469 205.768 81.6758 205.416V210.602H79.6348V196.363ZM83.6777 204.576C84.1465 204.576 84.5273 204.485 84.8203 204.303C85.1003 204.127 85.2988 203.886 85.416 203.58C85.5527 203.3 85.6406 202.962 85.6797 202.564C85.6927 202.376 85.6992 202.19 85.6992 202.008C85.6992 201.819 85.6992 201.63 85.6992 201.441C85.6992 201.24 85.6992 201.041 85.6992 200.846C85.6992 200.644 85.6927 200.449 85.6797 200.26C85.6406 199.863 85.5527 199.524 85.416 199.244C85.2988 198.951 85.1003 198.71 84.8203 198.521C84.5404 198.359 84.1595 198.277 83.6777 198.277C83.222 198.277 82.8607 198.372 82.5938 198.561C82.3268 198.736 82.1217 198.984 81.9785 199.303C81.8548 199.596 81.7734 199.928 81.7344 200.299C81.6953 200.689 81.6758 201.07 81.6758 201.441C81.6758 201.799 81.6953 202.158 81.7344 202.516C81.7734 202.906 81.8548 203.248 81.9785 203.541C82.1217 203.86 82.3268 204.107 82.5938 204.283C82.8477 204.479 83.209 204.576 83.6777 204.576ZM92.8086 206.617C91.6888 206.604 90.8164 206.305 90.1914 205.719C89.5469 205.146 89.2246 204.413 89.2246 203.521C89.2246 202.669 89.5046 201.962 90.0645 201.402C90.6113 200.842 91.4316 200.549 92.5254 200.523H95.3477V199.459C95.3607 198.567 94.6673 198.134 93.2676 198.16C92.7858 198.16 92.3854 198.212 92.0664 198.316C91.7604 198.44 91.5195 198.648 91.3438 198.941L89.7422 197.721C90.5169 196.705 91.6595 196.21 93.1699 196.236C94.446 196.223 95.4648 196.464 96.2266 196.959C96.9753 197.454 97.3626 198.326 97.3887 199.576V206.5H95.3477V205.602H95.3086C95.1198 205.947 94.8268 206.201 94.4297 206.363C94.0651 206.533 93.5247 206.617 92.8086 206.617ZM93.0625 204.703C93.9219 204.729 94.5241 204.628 94.8691 204.4C95.1882 204.186 95.3477 203.697 95.3477 202.936V202.203H92.9062C91.7083 202.229 91.1224 202.636 91.1484 203.424C91.1484 203.769 91.3014 204.062 91.6074 204.303C91.9134 204.57 92.3984 204.703 93.0625 204.703ZM112.525 206.5H100.025V196.363H102.066V204.576H105.504V196.363H107.545V204.576H110.963V196.363H113.004V204.576H114.449V209.098H112.525V206.5ZM115.904 196.363H117.945V203.238L122.35 196.363H124.391V206.5H122.35V199.518L117.945 206.5H115.904V196.363ZM127.037 196.363H131.9C132.831 196.363 133.574 196.611 134.127 197.105C134.68 197.594 134.957 198.251 134.957 199.078C134.957 200.094 134.485 200.82 133.541 201.256C134.049 201.484 134.439 201.793 134.713 202.184C134.986 202.568 135.123 203.053 135.123 203.639C135.123 204.518 134.853 205.214 134.312 205.729C133.772 206.243 133.02 206.5 132.057 206.5H127.037V196.363ZM131.656 204.801C132.112 204.801 132.47 204.677 132.73 204.43C132.991 204.182 133.121 203.854 133.121 203.443C133.121 203.014 132.991 202.682 132.73 202.447C132.47 202.213 132.112 202.096 131.656 202.096H129.078V204.801H131.656ZM131.52 200.523C132.477 200.523 132.955 200.104 132.955 199.264C132.955 198.873 132.831 198.577 132.584 198.375C132.343 198.167 131.988 198.062 131.52 198.062H129.078V200.523H131.52ZM140.055 206.617C138.935 206.604 138.062 206.305 137.438 205.719C136.793 205.146 136.471 204.413 136.471 203.521C136.471 202.669 136.751 201.962 137.311 201.402C137.857 200.842 138.678 200.549 139.771 200.523H142.594V199.459C142.607 198.567 141.913 198.134 140.514 198.16C140.032 198.16 139.632 198.212 139.312 198.316C139.007 198.44 138.766 198.648 138.59 198.941L136.988 197.721C137.763 196.705 138.906 196.21 140.416 196.236C141.692 196.223 142.711 196.464 143.473 196.959C144.221 197.454 144.609 198.326 144.635 199.576V206.5H142.594V205.602H142.555C142.366 205.947 142.073 206.201 141.676 206.363C141.311 206.533 140.771 206.617 140.055 206.617ZM140.309 204.703C141.168 204.729 141.77 204.628 142.115 204.4C142.434 204.186 142.594 203.697 142.594 202.936V202.203H140.152C138.954 202.229 138.368 202.636 138.395 203.424C138.395 203.769 138.548 204.062 138.854 204.303C139.16 204.57 139.645 204.703 140.309 204.703ZM151.275 206.617C150.729 206.617 150.208 206.539 149.713 206.383C149.485 206.311 149.238 206.197 148.971 206.041C148.73 205.937 148.492 205.784 148.258 205.582C147.815 205.178 147.467 204.651 147.213 204C146.92 203.362 146.773 202.516 146.773 201.461C146.773 200.432 146.9 199.599 147.154 198.961C147.421 198.251 147.747 197.717 148.131 197.359C148.521 196.975 148.974 196.689 149.488 196.5C149.97 196.324 150.458 196.236 150.953 196.236C152.112 196.262 153.092 196.643 153.893 197.379C154.693 198.128 155.107 199.176 155.133 200.523V202.203H148.814C148.814 203.017 149.049 203.635 149.518 204.059C149.967 204.488 150.54 204.703 151.236 204.703C152.063 204.703 152.802 204.374 153.453 203.717L154.938 204.977C153.883 206.083 152.662 206.63 151.275 206.617ZM153.092 200.523C153.066 199.749 152.854 199.153 152.457 198.736C152.066 198.352 151.565 198.16 150.953 198.16C150.341 198.16 149.84 198.352 149.449 198.736C149.065 199.153 148.854 199.749 148.814 200.523H153.092ZM157.271 196.363H159.293L162.33 202.398L165.357 196.363H167.35V206.5H165.309V199.996L162.975 204.645H161.695L159.312 199.996V206.5H157.271V196.363ZM173.775 204.615H174.215C174.397 204.615 174.547 204.602 174.664 204.576C174.788 204.55 174.889 204.508 174.967 204.449C175.051 204.391 175.123 204.309 175.182 204.205C175.24 204.094 175.305 203.951 175.377 203.775L175.836 202.535C175.979 202.164 176.158 201.871 176.373 201.656C176.588 201.435 176.868 201.269 177.213 201.158C176.985 201.08 176.773 200.956 176.578 200.787C176.389 200.611 176.24 200.37 176.129 200.064L175.797 199.059C175.725 198.87 175.66 198.72 175.602 198.609C175.543 198.499 175.468 198.414 175.377 198.355C175.292 198.29 175.185 198.248 175.055 198.229C174.931 198.209 174.771 198.199 174.576 198.199H174.254V196.363H174.957C175.608 196.363 176.119 196.497 176.49 196.764C176.868 197.031 177.167 197.47 177.389 198.082L177.877 199.439C177.981 199.719 178.157 199.947 178.404 200.123C178.652 200.292 178.948 200.377 179.293 200.377H179.85V196.363H181.891V200.377H182.438C182.796 200.377 183.098 200.292 183.346 200.123C183.593 199.947 183.769 199.719 183.873 199.439L184.352 198.082C184.579 197.47 184.876 197.031 185.24 196.764C185.611 196.497 186.129 196.363 186.793 196.363H187.477V198.199H187.174C186.972 198.199 186.803 198.209 186.666 198.229C186.536 198.248 186.432 198.29 186.354 198.355C186.275 198.414 186.204 198.499 186.139 198.609C186.08 198.72 186.018 198.87 185.953 199.059L185.592 200.064C185.488 200.37 185.338 200.611 185.143 200.787C184.947 200.956 184.736 201.08 184.508 201.158C184.859 201.269 185.139 201.435 185.348 201.656C185.562 201.871 185.745 202.164 185.895 202.535L186.373 203.775C186.438 203.951 186.5 204.094 186.559 204.205C186.624 204.309 186.695 204.391 186.773 204.449C186.852 204.508 186.946 204.55 187.057 204.576C187.174 204.602 187.327 204.615 187.516 204.615H187.975V206.5H187.232C186.874 206.5 186.559 206.467 186.285 206.402C186.012 206.337 185.774 206.236 185.572 206.1C185.37 205.956 185.191 205.768 185.035 205.533C184.885 205.299 184.745 205.016 184.615 204.684L184.049 203.238C183.958 202.997 183.844 202.815 183.707 202.691C183.577 202.561 183.434 202.464 183.277 202.398C183.128 202.333 182.971 202.294 182.809 202.281C182.652 202.268 182.493 202.262 182.33 202.262H181.891V206.5H179.85V202.262H179.41C179.254 202.262 179.091 202.268 178.922 202.281C178.753 202.294 178.59 202.333 178.434 202.398C178.284 202.464 178.141 202.561 178.004 202.691C177.874 202.815 177.763 202.997 177.672 203.238L177.135 204.684C176.998 205.016 176.852 205.299 176.695 205.533C176.546 205.768 176.367 205.956 176.158 206.1C175.956 206.236 175.722 206.337 175.455 206.402C175.188 206.467 174.872 206.5 174.508 206.5H173.775V204.615ZM189.596 196.363H191.637V203.238L196.041 196.363H198.082V206.5H196.041V199.518L191.637 206.5H189.596V196.363ZM200.729 196.363H205.592C206.523 196.363 207.265 196.611 207.818 197.105C208.372 197.594 208.648 198.251 208.648 199.078C208.648 200.094 208.176 200.82 207.232 201.256C207.74 201.484 208.131 201.793 208.404 202.184C208.678 202.568 208.814 203.053 208.814 203.639C208.814 204.518 208.544 205.214 208.004 205.729C207.464 206.243 206.712 206.5 205.748 206.5H200.729V196.363ZM205.348 204.801C205.803 204.801 206.161 204.677 206.422 204.43C206.682 204.182 206.812 203.854 206.812 203.443C206.812 203.014 206.682 202.682 206.422 202.447C206.161 202.213 205.803 202.096 205.348 202.096H202.77V204.801H205.348ZM205.211 200.523C206.168 200.523 206.646 200.104 206.646 199.264C206.646 198.873 206.523 198.577 206.275 198.375C206.035 198.167 205.68 198.062 205.211 198.062H202.77V200.523H205.211ZM214.645 206.617C213.896 206.617 213.261 206.471 212.74 206.178C212.226 205.911 211.835 205.624 211.568 205.318C211.178 204.895 210.898 204.41 210.729 203.863C210.553 203.329 210.465 202.516 210.465 201.422C210.465 200.341 210.553 199.521 210.729 198.961C210.911 198.388 211.191 197.913 211.568 197.535C211.848 197.203 212.239 196.904 212.74 196.637C213.248 196.37 213.883 196.236 214.645 196.236C215.432 196.236 216.08 196.37 216.588 196.637C217.076 196.904 217.454 197.203 217.721 197.535C218.111 197.913 218.398 198.388 218.58 198.961C218.743 199.547 218.824 200.367 218.824 201.422C218.824 202.49 218.743 203.303 218.58 203.863C218.398 204.423 218.111 204.908 217.721 205.318C217.656 205.383 217.584 205.458 217.506 205.543C217.428 205.621 217.34 205.693 217.242 205.758C217.06 205.921 216.842 206.061 216.588 206.178C216.067 206.471 215.419 206.617 214.645 206.617ZM214.645 204.576C215.003 204.576 215.328 204.505 215.621 204.361C215.914 204.225 216.135 204.052 216.285 203.844C216.5 203.564 216.633 203.271 216.686 202.965C216.712 202.802 216.734 202.594 216.754 202.34C216.773 202.086 216.783 201.786 216.783 201.441C216.783 201.083 216.773 200.774 216.754 200.514C216.734 200.253 216.712 200.035 216.686 199.859C216.633 199.553 216.5 199.273 216.285 199.02C216.135 198.805 215.914 198.626 215.621 198.482C215.354 198.346 215.029 198.277 214.645 198.277C214.286 198.277 213.967 198.346 213.688 198.482C213.421 198.613 213.193 198.792 213.004 199.02C212.828 199.247 212.701 199.527 212.623 199.859C212.545 200.204 212.506 200.725 212.506 201.422C212.506 202.125 212.545 202.639 212.623 202.965C212.701 203.297 212.828 203.59 213.004 203.844C213.206 204.052 213.434 204.225 213.688 204.361C214.007 204.505 214.326 204.576 214.645 204.576ZM222.984 198.277H219.869V196.363H228.023V198.277H225.025V206.5H222.984V198.277ZM229.576 196.363H231.617V200.318H235.641V196.363H237.682V206.5H235.641V202.242H231.617V206.5H229.576V196.363ZM240.318 196.363H242.359V200.182H245.035C246.025 200.182 246.819 200.471 247.418 201.051C248.017 201.63 248.316 202.392 248.316 203.336C248.316 204.286 248.017 205.051 247.418 205.631C246.819 206.21 246.025 206.5 245.035 206.5H240.318V196.363ZM244.82 204.703C245.289 204.703 245.654 204.579 245.914 204.332C246.174 204.085 246.305 203.74 246.305 203.297C246.305 202.874 246.174 202.538 245.914 202.291C245.654 202.044 245.289 201.92 244.82 201.92H242.359V204.703H244.82ZM249.723 196.363H251.764V206.5H249.723V196.363ZM256.744 201.324L253.424 196.363H255.865L257.887 199.645L259.898 196.363H262.34L259.02 201.324L262.486 206.5H260.045L257.887 203.121L255.719 206.5H253.277L256.744 201.324ZM268.814 196.363H270.855V203.238L275.26 196.363H277.301V206.5H275.26V199.518L270.855 206.5H268.814V196.363ZM288.434 206.617C287.685 206.617 287.05 206.471 286.529 206.178C286.015 205.911 285.624 205.624 285.357 205.318C284.967 204.895 284.687 204.41 284.518 203.863C284.342 203.329 284.254 202.516 284.254 201.422C284.254 200.341 284.342 199.521 284.518 198.961C284.7 198.388 284.98 197.913 285.357 197.535C285.637 197.203 286.028 196.904 286.529 196.637C287.037 196.37 287.672 196.236 288.434 196.236C289.221 196.236 289.869 196.37 290.377 196.637C290.865 196.904 291.243 197.203 291.51 197.535C291.9 197.913 292.187 198.388 292.369 198.961C292.532 199.547 292.613 200.367 292.613 201.422C292.613 202.49 292.532 203.303 292.369 203.863C292.187 204.423 291.9 204.908 291.51 205.318C291.445 205.383 291.373 205.458 291.295 205.543C291.217 205.621 291.129 205.693 291.031 205.758C290.849 205.921 290.631 206.061 290.377 206.178C289.856 206.471 289.208 206.617 288.434 206.617ZM288.434 204.576C288.792 204.576 289.117 204.505 289.41 204.361C289.703 204.225 289.924 204.052 290.074 203.844C290.289 203.564 290.423 203.271 290.475 202.965C290.501 202.802 290.523 202.594 290.543 202.34C290.562 202.086 290.572 201.786 290.572 201.441C290.572 201.083 290.562 200.774 290.543 200.514C290.523 200.253 290.501 200.035 290.475 199.859C290.423 199.553 290.289 199.273 290.074 199.02C289.924 198.805 289.703 198.626 289.41 198.482C289.143 198.346 288.818 198.277 288.434 198.277C288.076 198.277 287.757 198.346 287.477 198.482C287.21 198.613 286.982 198.792 286.793 199.02C286.617 199.247 286.49 199.527 286.412 199.859C286.334 200.204 286.295 200.725 286.295 201.422C286.295 202.125 286.334 202.639 286.412 202.965C286.49 203.297 286.617 203.59 286.793 203.844C286.995 204.052 287.223 204.225 287.477 204.361C287.796 204.505 288.115 204.576 288.434 204.576ZM298.795 206.617C297.766 206.617 296.93 206.38 296.285 205.904C295.641 205.423 295.185 204.781 294.918 203.98C294.833 203.753 294.771 203.492 294.732 203.199C294.693 202.906 294.661 202.6 294.635 202.281C294.609 201.962 294.592 201.643 294.586 201.324C294.579 200.999 294.576 200.696 294.576 200.416V199.645C294.576 199.098 294.586 198.567 294.605 198.053C294.625 197.538 294.684 197.05 294.781 196.588C294.885 196.119 295.035 195.686 295.23 195.289C295.432 194.885 295.706 194.521 296.051 194.195C296.331 193.948 296.627 193.746 296.939 193.59C297.258 193.434 297.587 193.313 297.926 193.229C298.264 193.144 298.606 193.079 298.951 193.033C299.296 192.988 299.638 192.942 299.977 192.896C300.185 192.87 300.354 192.809 300.484 192.711C300.621 192.613 300.706 192.464 300.738 192.262H302.818C302.708 193.74 302.021 194.579 300.758 194.781C300.432 194.833 300.11 194.876 299.791 194.908C299.472 194.941 299.156 194.99 298.844 195.055C298.531 195.113 298.235 195.201 297.955 195.318C297.675 195.429 297.415 195.589 297.174 195.797C296.868 196.077 296.643 196.412 296.5 196.803C296.363 197.187 296.288 197.545 296.275 197.877H296.334C296.562 197.48 296.93 197.141 297.438 196.861C297.952 196.581 298.551 196.441 299.234 196.441C300.569 196.441 301.533 196.878 302.125 197.75C302.717 198.622 303.014 199.866 303.014 201.48C303.014 202.359 302.932 203.111 302.77 203.736C302.613 204.355 302.346 204.889 301.969 205.338C301.624 205.755 301.184 206.074 300.65 206.295C300.117 206.51 299.498 206.617 298.795 206.617ZM298.775 204.596C299.12 204.596 299.433 204.534 299.713 204.41C299.993 204.286 300.227 204.111 300.416 203.883C300.644 203.616 300.794 203.294 300.865 202.916C300.937 202.532 300.973 202.066 300.973 201.52C300.973 200.96 300.937 200.481 300.865 200.084C300.794 199.68 300.644 199.345 300.416 199.078C300.227 198.863 299.993 198.697 299.713 198.58C299.433 198.463 299.12 198.404 298.775 198.404C298.43 198.404 298.118 198.466 297.838 198.59C297.558 198.714 297.33 198.889 297.154 199.117C296.926 199.384 296.78 199.719 296.715 200.123C296.65 200.52 296.617 200.999 296.617 201.559C296.617 202.197 296.669 202.704 296.773 203.082C296.878 203.453 297.044 203.759 297.271 204C297.46 204.189 297.685 204.335 297.945 204.439C298.206 204.544 298.482 204.596 298.775 204.596ZM305.162 196.363H307.203V197.418C307.887 196.656 308.759 196.262 309.82 196.236C311.051 196.249 311.959 196.692 312.545 197.564C312.838 197.896 313.03 198.316 313.121 198.824C313.173 199.091 313.209 199.443 313.229 199.879C313.255 200.309 313.268 200.829 313.268 201.441C313.268 202.04 313.255 202.555 313.229 202.984C313.209 203.408 313.173 203.753 313.121 204.02C313.03 204.527 312.838 204.954 312.545 205.299C312.252 205.702 311.884 206.015 311.441 206.236C311.005 206.464 310.465 206.591 309.82 206.617C309.319 206.617 308.854 206.503 308.424 206.275C307.981 206.054 307.574 205.768 307.203 205.416V210.602H305.162V196.363ZM309.205 204.576C309.674 204.576 310.055 204.485 310.348 204.303C310.628 204.127 310.826 203.886 310.943 203.58C311.08 203.3 311.168 202.962 311.207 202.564C311.22 202.376 311.227 202.19 311.227 202.008C311.227 201.819 311.227 201.63 311.227 201.441C311.227 201.24 311.227 201.041 311.227 200.846C311.227 200.644 311.22 200.449 311.207 200.26C311.168 199.863 311.08 199.524 310.943 199.244C310.826 198.951 310.628 198.71 310.348 198.521C310.068 198.359 309.687 198.277 309.205 198.277C308.749 198.277 308.388 198.372 308.121 198.561C307.854 198.736 307.649 198.984 307.506 199.303C307.382 199.596 307.301 199.928 307.262 200.299C307.223 200.689 307.203 201.07 307.203 201.441C307.203 201.799 307.223 202.158 307.262 202.516C307.301 202.906 307.382 203.248 307.506 203.541C307.649 203.86 307.854 204.107 308.121 204.283C308.375 204.479 308.736 204.576 309.205 204.576ZM318.336 206.617C317.216 206.604 316.344 206.305 315.719 205.719C315.074 205.146 314.752 204.413 314.752 203.521C314.752 202.669 315.032 201.962 315.592 201.402C316.139 200.842 316.959 200.549 318.053 200.523H320.875V199.459C320.888 198.567 320.195 198.134 318.795 198.16C318.313 198.16 317.913 198.212 317.594 198.316C317.288 198.44 317.047 198.648 316.871 198.941L315.27 197.721C316.044 196.705 317.187 196.21 318.697 196.236C319.973 196.223 320.992 196.464 321.754 196.959C322.503 197.454 322.89 198.326 322.916 199.576V206.5H320.875V205.602H320.836C320.647 205.947 320.354 206.201 319.957 206.363C319.592 206.533 319.052 206.617 318.336 206.617ZM318.59 204.703C319.449 204.729 320.051 204.628 320.396 204.4C320.715 204.186 320.875 203.697 320.875 202.936V202.203H318.434C317.236 202.229 316.65 202.636 316.676 203.424C316.676 203.769 316.829 204.062 317.135 204.303C317.441 204.57 317.926 204.703 318.59 204.703ZM329.596 206.617C328.567 206.617 327.73 206.38 327.086 205.904C326.441 205.423 325.986 204.781 325.719 203.98C325.634 203.753 325.572 203.492 325.533 203.199C325.494 202.906 325.462 202.6 325.436 202.281C325.41 201.962 325.393 201.643 325.387 201.324C325.38 200.999 325.377 200.696 325.377 200.416V199.645C325.377 199.098 325.387 198.567 325.406 198.053C325.426 197.538 325.484 197.05 325.582 196.588C325.686 196.119 325.836 195.686 326.031 195.289C326.233 194.885 326.507 194.521 326.852 194.195C327.132 193.948 327.428 193.746 327.74 193.59C328.059 193.434 328.388 193.313 328.727 193.229C329.065 193.144 329.407 193.079 329.752 193.033C330.097 192.988 330.439 192.942 330.777 192.896C330.986 192.87 331.155 192.809 331.285 192.711C331.422 192.613 331.507 192.464 331.539 192.262H333.619C333.508 193.74 332.822 194.579 331.559 194.781C331.233 194.833 330.911 194.876 330.592 194.908C330.273 194.941 329.957 194.99 329.645 195.055C329.332 195.113 329.036 195.201 328.756 195.318C328.476 195.429 328.215 195.589 327.975 195.797C327.669 196.077 327.444 196.412 327.301 196.803C327.164 197.187 327.089 197.545 327.076 197.877H327.135C327.363 197.48 327.73 197.141 328.238 196.861C328.753 196.581 329.352 196.441 330.035 196.441C331.37 196.441 332.333 196.878 332.926 197.75C333.518 198.622 333.814 199.866 333.814 201.48C333.814 202.359 333.733 203.111 333.57 203.736C333.414 204.355 333.147 204.889 332.77 205.338C332.424 205.755 331.985 206.074 331.451 206.295C330.917 206.51 330.299 206.617 329.596 206.617ZM329.576 204.596C329.921 204.596 330.234 204.534 330.514 204.41C330.794 204.286 331.028 204.111 331.217 203.883C331.445 203.616 331.594 203.294 331.666 202.916C331.738 202.532 331.773 202.066 331.773 201.52C331.773 200.96 331.738 200.481 331.666 200.084C331.594 199.68 331.445 199.345 331.217 199.078C331.028 198.863 330.794 198.697 330.514 198.58C330.234 198.463 329.921 198.404 329.576 198.404C329.231 198.404 328.919 198.466 328.639 198.59C328.359 198.714 328.131 198.889 327.955 199.117C327.727 199.384 327.581 199.719 327.516 200.123C327.451 200.52 327.418 200.999 327.418 201.559C327.418 202.197 327.47 202.704 327.574 203.082C327.678 203.453 327.844 203.759 328.072 204C328.261 204.189 328.486 204.335 328.746 204.439C329.007 204.544 329.283 204.596 329.576 204.596ZM338.746 206.617C337.626 206.604 336.754 206.305 336.129 205.719C335.484 205.146 335.162 204.413 335.162 203.521C335.162 202.669 335.442 201.962 336.002 201.402C336.549 200.842 337.369 200.549 338.463 200.523H341.285V199.459C341.298 198.567 340.605 198.134 339.205 198.16C338.723 198.16 338.323 198.212 338.004 198.316C337.698 198.44 337.457 198.648 337.281 198.941L335.68 197.721C336.454 196.705 337.597 196.21 339.107 196.236C340.383 196.223 341.402 196.464 342.164 196.959C342.913 197.454 343.3 198.326 343.326 199.576V206.5H341.285V205.602H341.246C341.057 205.947 340.764 206.201 340.367 206.363C340.003 206.533 339.462 206.617 338.746 206.617ZM339 204.703C339.859 204.729 340.462 204.628 340.807 204.4C341.126 204.186 341.285 203.697 341.285 202.936V202.203H338.844C337.646 202.229 337.06 202.636 337.086 203.424C337.086 203.769 337.239 204.062 337.545 204.303C337.851 204.57 338.336 204.703 339 204.703ZM347.984 198.277H344.869V196.363H353.023V198.277H350.025V206.5H347.984V198.277ZM354.576 196.363H356.617V200.182H359.293C360.283 200.182 361.077 200.471 361.676 201.051C362.275 201.63 362.574 202.392 362.574 203.336C362.574 204.286 362.275 205.051 361.676 205.631C361.077 206.21 360.283 206.5 359.293 206.5H354.576V196.363ZM359.078 204.703C359.547 204.703 359.911 204.579 360.172 204.332C360.432 204.085 360.562 203.74 360.562 203.297C360.562 202.874 360.432 202.538 360.172 202.291C359.911 202.044 359.547 201.92 359.078 201.92H356.617V204.703H359.078ZM363.98 196.363H366.021V206.5H363.98V196.363ZM368.658 196.363H373.521C374.452 196.363 375.195 196.611 375.748 197.105C376.301 197.594 376.578 198.251 376.578 199.078C376.578 200.094 376.106 200.82 375.162 201.256C375.67 201.484 376.061 201.793 376.334 202.184C376.607 202.568 376.744 203.053 376.744 203.639C376.744 204.518 376.474 205.214 375.934 205.729C375.393 206.243 374.641 206.5 373.678 206.5H368.658V196.363ZM373.277 204.801C373.733 204.801 374.091 204.677 374.352 204.43C374.612 204.182 374.742 203.854 374.742 203.443C374.742 203.014 374.612 202.682 374.352 202.447C374.091 202.213 373.733 202.096 373.277 202.096H370.699V204.801H373.277ZM373.141 200.523C374.098 200.523 374.576 200.104 374.576 199.264C374.576 198.873 374.452 198.577 374.205 198.375C373.964 198.167 373.609 198.062 373.141 198.062H370.699V200.523H373.141ZM381.676 206.617C380.556 206.604 379.684 206.305 379.059 205.719C378.414 205.146 378.092 204.413 378.092 203.521C378.092 202.669 378.372 201.962 378.932 201.402C379.479 200.842 380.299 200.549 381.393 200.523H384.215V199.459C384.228 198.567 383.535 198.134 382.135 198.16C381.653 198.16 381.253 198.212 380.934 198.316C380.628 198.44 380.387 198.648 380.211 198.941L378.609 197.721C379.384 196.705 380.527 196.21 382.037 196.236C383.313 196.223 384.332 196.464 385.094 196.959C385.842 197.454 386.23 198.326 386.256 199.576V206.5H384.215V205.602H384.176C383.987 205.947 383.694 206.201 383.297 206.363C382.932 206.533 382.392 206.617 381.676 206.617ZM381.93 204.703C382.789 204.729 383.391 204.628 383.736 204.4C384.055 204.186 384.215 203.697 384.215 202.936V202.203H381.773C380.576 202.229 379.99 202.636 380.016 203.424C380.016 203.769 380.169 204.062 380.475 204.303C380.781 204.57 381.266 204.703 381.93 204.703ZM392.896 206.617C392.35 206.617 391.829 206.539 391.334 206.383C391.106 206.311 390.859 206.197 390.592 206.041C390.351 205.937 390.113 205.784 389.879 205.582C389.436 205.178 389.088 204.651 388.834 204C388.541 203.362 388.395 202.516 388.395 201.461C388.395 200.432 388.521 199.599 388.775 198.961C389.042 198.251 389.368 197.717 389.752 197.359C390.143 196.975 390.595 196.689 391.109 196.5C391.591 196.324 392.079 196.236 392.574 196.236C393.733 196.262 394.713 196.643 395.514 197.379C396.314 198.128 396.728 199.176 396.754 200.523V202.203H390.436C390.436 203.017 390.67 203.635 391.139 204.059C391.588 204.488 392.161 204.703 392.857 204.703C393.684 204.703 394.423 204.374 395.074 203.717L396.559 204.977C395.504 206.083 394.283 206.63 392.896 206.617ZM394.713 200.523C394.687 199.749 394.475 199.153 394.078 198.736C393.688 198.352 393.186 198.16 392.574 198.16C391.962 198.16 391.461 198.352 391.07 198.736C390.686 199.153 390.475 199.749 390.436 200.523H394.713ZM398.893 196.363H400.914L403.951 202.398L406.979 196.363H408.971V206.5H406.93V199.996L404.596 204.645H403.316L400.934 199.996V206.5H398.893V196.363ZM59.1367 232.617C57.9258 232.617 56.8743 232.21 55.9824 231.396C55.0319 230.583 54.5501 229.264 54.5371 227.441C54.5632 225.586 55.0449 224.251 55.9824 223.438C56.8874 222.611 57.9388 222.21 59.1367 222.236C59.9245 222.262 60.6178 222.425 61.2168 222.725C61.8353 223.044 62.3561 223.47 62.7793 224.004L61.2754 225.342C60.7611 224.645 60.0775 224.29 59.2246 224.277C57.4733 224.251 56.5911 225.306 56.5781 227.441C56.5911 229.557 57.4733 230.602 59.2246 230.576C60.0905 230.55 60.7741 230.199 61.2754 229.521L62.7793 230.859C62.3236 231.367 61.8027 231.781 61.2168 232.1C60.6048 232.445 59.9115 232.617 59.1367 232.617ZM64.2051 222.363H69.0684C69.9993 222.363 70.7415 222.611 71.2949 223.105C71.8483 223.594 72.125 224.251 72.125 225.078C72.125 226.094 71.653 226.82 70.709 227.256C71.2168 227.484 71.6074 227.793 71.8809 228.184C72.1543 228.568 72.291 229.053 72.291 229.639C72.291 230.518 72.0208 231.214 71.4805 231.729C70.9401 232.243 70.1882 232.5 69.2246 232.5H64.2051V222.363ZM68.8242 230.801C69.2799 230.801 69.638 230.677 69.8984 230.43C70.1589 230.182 70.2891 229.854 70.2891 229.443C70.2891 229.014 70.1589 228.682 69.8984 228.447C69.638 228.213 69.2799 228.096 68.8242 228.096H66.2461V230.801H68.8242ZM68.6875 226.523C69.6445 226.523 70.123 226.104 70.123 225.264C70.123 224.873 69.9993 224.577 69.752 224.375C69.5111 224.167 69.1562 224.062 68.6875 224.062H66.2461V226.523H68.6875ZM74.4395 222.363H76.4805V229.238L80.8848 222.363H82.9258V232.5H80.8848V225.518L76.4805 232.5H74.4395V222.363ZM85.5723 222.363H87.6133V226.318H91.6367V222.363H93.6777V232.5H91.6367V228.242H87.6133V232.5H85.5723V222.363ZM96.3145 222.363H98.3555V229.238L102.76 222.363H104.801V232.5H102.76V225.518L98.3555 232.5H96.3145V222.363ZM107.447 222.363H109.488V226.318H113.512V222.363H115.553V232.5H113.512V228.242H109.488V232.5H107.447V222.363ZM117.994 234.678H118.59C118.857 234.678 119.104 234.606 119.332 234.463C119.547 234.326 119.706 234.105 119.811 233.799L120.367 232.1L116.734 222.363H118.893L121.295 229.463H121.334L123.727 222.363H125.895L121.529 234.6C121.249 235.361 120.862 235.889 120.367 236.182C119.866 236.462 119.299 236.602 118.668 236.602H117.994V234.678ZM127.135 233.984V230.459H129.176V232.5L127.135 233.984ZM139.469 232.617C138.349 232.604 137.477 232.305 136.852 231.719C136.207 231.146 135.885 230.413 135.885 229.521C135.885 228.669 136.165 227.962 136.725 227.402C137.271 226.842 138.092 226.549 139.186 226.523H142.008V225.459C142.021 224.567 141.327 224.134 139.928 224.16C139.446 224.16 139.046 224.212 138.727 224.316C138.421 224.44 138.18 224.648 138.004 224.941L136.402 223.721C137.177 222.705 138.32 222.21 139.83 222.236C141.106 222.223 142.125 222.464 142.887 222.959C143.635 223.454 144.023 224.326 144.049 225.576V232.5H142.008V231.602H141.969C141.78 231.947 141.487 232.201 141.09 232.363C140.725 232.533 140.185 232.617 139.469 232.617ZM139.723 230.703C140.582 230.729 141.184 230.628 141.529 230.4C141.848 230.186 142.008 229.697 142.008 228.936V228.203H139.566C138.368 228.229 137.783 228.636 137.809 229.424C137.809 229.769 137.962 230.062 138.268 230.303C138.574 230.57 139.059 230.703 139.723 230.703ZM154.215 232.617C153.375 232.617 152.652 232.484 152.047 232.217C151.448 231.95 150.888 231.536 150.367 230.977L151.852 229.717C152.184 230.055 152.519 230.306 152.857 230.469C153.202 230.625 153.655 230.703 154.215 230.703C154.84 230.703 155.341 230.589 155.719 230.361C156.103 230.133 156.295 229.798 156.295 229.355C156.295 228.919 156.152 228.613 155.865 228.438C155.579 228.255 155.133 228.164 154.527 228.164H153.053V226.484H154.557C155.045 226.484 155.436 226.377 155.729 226.162C156.021 225.947 156.168 225.648 156.168 225.264C156.168 224.873 155.999 224.59 155.66 224.414C155.322 224.232 154.84 224.141 154.215 224.141C153.798 224.141 153.388 224.212 152.984 224.355C152.587 224.492 152.229 224.714 151.91 225.02L150.455 223.76C150.696 223.519 150.94 223.307 151.188 223.125C151.441 222.936 151.721 222.777 152.027 222.646C152.34 222.51 152.688 222.409 153.072 222.344C153.456 222.272 153.902 222.236 154.41 222.236C154.957 222.236 155.471 222.282 155.953 222.373C156.435 222.458 156.848 222.627 157.193 222.881C157.512 223.109 157.753 223.408 157.916 223.779C158.085 224.15 158.17 224.551 158.17 224.98C158.17 225.475 158.04 225.924 157.779 226.328C157.519 226.725 157.158 227.015 156.695 227.197C157.184 227.386 157.577 227.689 157.877 228.105C158.183 228.516 158.336 229.001 158.336 229.561C158.336 230.081 158.212 230.566 157.965 231.016C157.717 231.458 157.366 231.813 156.91 232.08C156.565 232.295 156.158 232.438 155.689 232.51C155.227 232.581 154.736 232.617 154.215 232.617ZM163.258 232.617C162.138 232.604 161.266 232.305 160.641 231.719C159.996 231.146 159.674 230.413 159.674 229.521C159.674 228.669 159.954 227.962 160.514 227.402C161.061 226.842 161.881 226.549 162.975 226.523H165.797V225.459C165.81 224.567 165.117 224.134 163.717 224.16C163.235 224.16 162.835 224.212 162.516 224.316C162.21 224.44 161.969 224.648 161.793 224.941L160.191 223.721C160.966 222.705 162.109 222.21 163.619 222.236C164.895 222.223 165.914 222.464 166.676 222.959C167.424 223.454 167.812 224.326 167.838 225.576V232.5H165.797V231.602H165.758C165.569 231.947 165.276 232.201 164.879 232.363C164.514 232.533 163.974 232.617 163.258 232.617ZM163.512 230.703C164.371 230.729 164.973 230.628 165.318 230.4C165.637 230.186 165.797 229.697 165.797 228.936V228.203H163.355C162.158 228.229 161.572 228.636 161.598 229.424C161.598 229.769 161.751 230.062 162.057 230.303C162.363 230.57 162.848 230.703 163.512 230.703ZM172.496 224.277H169.381V222.363H177.535V224.277H174.537V232.5H172.496V224.277ZM183.092 232.617C182.545 232.617 182.024 232.539 181.529 232.383C181.301 232.311 181.054 232.197 180.787 232.041C180.546 231.937 180.309 231.784 180.074 231.582C179.632 231.178 179.283 230.651 179.029 230C178.736 229.362 178.59 228.516 178.59 227.461C178.59 226.432 178.717 225.599 178.971 224.961C179.238 224.251 179.563 223.717 179.947 223.359C180.338 222.975 180.79 222.689 181.305 222.5C181.786 222.324 182.275 222.236 182.77 222.236C183.928 222.262 184.908 222.643 185.709 223.379C186.51 224.128 186.923 225.176 186.949 226.523V228.203H180.631C180.631 229.017 180.865 229.635 181.334 230.059C181.783 230.488 182.356 230.703 183.053 230.703C183.88 230.703 184.618 230.374 185.27 229.717L186.754 230.977C185.699 232.083 184.479 232.63 183.092 232.617ZM184.908 226.523C184.882 225.749 184.671 225.153 184.273 224.736C183.883 224.352 183.382 224.16 182.77 224.16C182.158 224.16 181.656 224.352 181.266 224.736C180.882 225.153 180.67 225.749 180.631 226.523H184.908ZM189.088 222.363H191.109L194.146 228.398L197.174 222.363H199.166V232.5H197.125V225.996L194.791 230.645H193.512L191.129 225.996V232.5H189.088V222.363ZM206.607 222.363H208.648V226.318H212.672V222.363H214.713V232.5H212.672V228.242H208.648V232.5H206.607V222.363ZM220.133 232.617C219.013 232.604 218.141 232.305 217.516 231.719C216.871 231.146 216.549 230.413 216.549 229.521C216.549 228.669 216.829 227.962 217.389 227.402C217.936 226.842 218.756 226.549 219.85 226.523H222.672V225.459C222.685 224.567 221.992 224.134 220.592 224.16C220.11 224.16 219.71 224.212 219.391 224.316C219.085 224.44 218.844 224.648 218.668 224.941L217.066 223.721C217.841 222.705 218.984 222.21 220.494 222.236C221.77 222.223 222.789 222.464 223.551 222.959C224.299 223.454 224.687 224.326 224.713 225.576V232.5H222.672V231.602H222.633C222.444 231.947 222.151 232.201 221.754 232.363C221.389 232.533 220.849 232.617 220.133 232.617ZM220.387 230.703C221.246 230.729 221.848 230.628 222.193 230.4C222.512 230.186 222.672 229.697 222.672 228.936V228.203H220.23C219.033 228.229 218.447 228.636 218.473 229.424C218.473 229.769 218.626 230.062 218.932 230.303C219.238 230.57 219.723 230.703 220.387 230.703ZM226.148 230.576H227.311C227.486 230.14 227.643 229.684 227.779 229.209C227.923 228.734 228.036 228.184 228.121 227.559C228.206 226.934 228.271 226.201 228.316 225.361C228.368 224.521 228.395 223.522 228.395 222.363H235.23V230.576H236.627V235.098H234.713V232.5H228.072V235.098H226.148V230.576ZM233.189 230.576V224.277H230.328C230.328 225.104 230.305 225.833 230.26 226.465C230.214 227.09 230.149 227.653 230.064 228.154C229.986 228.649 229.892 229.095 229.781 229.492C229.671 229.883 229.553 230.244 229.43 230.576H233.189ZM242.096 232.617C241.549 232.617 241.028 232.539 240.533 232.383C240.305 232.311 240.058 232.197 239.791 232.041C239.55 231.937 239.312 231.784 239.078 231.582C238.635 231.178 238.287 230.651 238.033 230C237.74 229.362 237.594 228.516 237.594 227.461C237.594 226.432 237.721 225.599 237.975 224.961C238.242 224.251 238.567 223.717 238.951 223.359C239.342 222.975 239.794 222.689 240.309 222.5C240.79 222.324 241.279 222.236 241.773 222.236C242.932 222.262 243.912 222.643 244.713 223.379C245.514 224.128 245.927 225.176 245.953 226.523V228.203H239.635C239.635 229.017 239.869 229.635 240.338 230.059C240.787 230.488 241.36 230.703 242.057 230.703C242.883 230.703 243.622 230.374 244.273 229.717L245.758 230.977C244.703 232.083 243.482 232.63 242.096 232.617ZM243.912 226.523C243.886 225.749 243.674 225.153 243.277 224.736C242.887 224.352 242.385 224.16 241.773 224.16C241.161 224.16 240.66 224.352 240.27 224.736C239.885 225.153 239.674 225.749 239.635 226.523H243.912ZM242.486 220.781H244.654V218.623H242.486V220.781ZM238.971 220.781H241.129V218.623H238.971V220.781ZM247.076 230.615H247.516C247.698 230.615 247.848 230.602 247.965 230.576C248.089 230.55 248.189 230.508 248.268 230.449C248.352 230.391 248.424 230.309 248.482 230.205C248.541 230.094 248.606 229.951 248.678 229.775L249.137 228.535C249.28 228.164 249.459 227.871 249.674 227.656C249.889 227.435 250.169 227.269 250.514 227.158C250.286 227.08 250.074 226.956 249.879 226.787C249.69 226.611 249.54 226.37 249.43 226.064L249.098 225.059C249.026 224.87 248.961 224.72 248.902 224.609C248.844 224.499 248.769 224.414 248.678 224.355C248.593 224.29 248.486 224.248 248.355 224.229C248.232 224.209 248.072 224.199 247.877 224.199H247.555V222.363H248.258C248.909 222.363 249.42 222.497 249.791 222.764C250.169 223.031 250.468 223.47 250.689 224.082L251.178 225.439C251.282 225.719 251.458 225.947 251.705 226.123C251.952 226.292 252.249 226.377 252.594 226.377H253.15V222.363H255.191V226.377H255.738C256.096 226.377 256.399 226.292 256.646 226.123C256.894 225.947 257.07 225.719 257.174 225.439L257.652 224.082C257.88 223.47 258.176 223.031 258.541 222.764C258.912 222.497 259.43 222.363 260.094 222.363H260.777V224.199H260.475C260.273 224.199 260.104 224.209 259.967 224.229C259.837 224.248 259.732 224.29 259.654 224.355C259.576 224.414 259.505 224.499 259.439 224.609C259.381 224.72 259.319 224.87 259.254 225.059L258.893 226.064C258.788 226.37 258.639 226.611 258.443 226.787C258.248 226.956 258.036 227.08 257.809 227.158C258.16 227.269 258.44 227.435 258.648 227.656C258.863 227.871 259.046 228.164 259.195 228.535L259.674 229.775C259.739 229.951 259.801 230.094 259.859 230.205C259.924 230.309 259.996 230.391 260.074 230.449C260.152 230.508 260.247 230.55 260.357 230.576C260.475 230.602 260.628 230.615 260.816 230.615H261.275V232.5H260.533C260.175 232.5 259.859 232.467 259.586 232.402C259.312 232.337 259.075 232.236 258.873 232.1C258.671 231.956 258.492 231.768 258.336 231.533C258.186 231.299 258.046 231.016 257.916 230.684L257.35 229.238C257.258 228.997 257.145 228.815 257.008 228.691C256.878 228.561 256.734 228.464 256.578 228.398C256.428 228.333 256.272 228.294 256.109 228.281C255.953 228.268 255.794 228.262 255.631 228.262H255.191V232.5H253.15V228.262H252.711C252.555 228.262 252.392 228.268 252.223 228.281C252.053 228.294 251.891 228.333 251.734 228.398C251.585 228.464 251.441 228.561 251.305 228.691C251.174 228.815 251.064 228.997 250.973 229.238L250.436 230.684C250.299 231.016 250.152 231.299 249.996 231.533C249.846 231.768 249.667 231.956 249.459 232.1C249.257 232.236 249.023 232.337 248.756 232.402C248.489 232.467 248.173 232.5 247.809 232.5H247.076V230.615ZM262.896 222.363H264.938V226.318H268.961V222.363H271.002V232.5H268.961V228.242H264.938V232.5H262.896V222.363ZM277.32 232.617C276.572 232.617 275.937 232.471 275.416 232.178C274.902 231.911 274.511 231.624 274.244 231.318C273.854 230.895 273.574 230.41 273.404 229.863C273.229 229.329 273.141 228.516 273.141 227.422C273.141 226.341 273.229 225.521 273.404 224.961C273.587 224.388 273.867 223.913 274.244 223.535C274.524 223.203 274.915 222.904 275.416 222.637C275.924 222.37 276.559 222.236 277.32 222.236C278.108 222.236 278.756 222.37 279.264 222.637C279.752 222.904 280.13 223.203 280.396 223.535C280.787 223.913 281.074 224.388 281.256 224.961C281.419 225.547 281.5 226.367 281.5 227.422C281.5 228.49 281.419 229.303 281.256 229.863C281.074 230.423 280.787 230.908 280.396 231.318C280.331 231.383 280.26 231.458 280.182 231.543C280.104 231.621 280.016 231.693 279.918 231.758C279.736 231.921 279.518 232.061 279.264 232.178C278.743 232.471 278.095 232.617 277.32 232.617ZM277.32 230.576C277.678 230.576 278.004 230.505 278.297 230.361C278.59 230.225 278.811 230.052 278.961 229.844C279.176 229.564 279.309 229.271 279.361 228.965C279.387 228.802 279.41 228.594 279.43 228.34C279.449 228.086 279.459 227.786 279.459 227.441C279.459 227.083 279.449 226.774 279.43 226.514C279.41 226.253 279.387 226.035 279.361 225.859C279.309 225.553 279.176 225.273 278.961 225.02C278.811 224.805 278.59 224.626 278.297 224.482C278.03 224.346 277.704 224.277 277.32 224.277C276.962 224.277 276.643 224.346 276.363 224.482C276.096 224.613 275.868 224.792 275.68 225.02C275.504 225.247 275.377 225.527 275.299 225.859C275.221 226.204 275.182 226.725 275.182 227.422C275.182 228.125 275.221 228.639 275.299 228.965C275.377 229.297 275.504 229.59 275.68 229.844C275.882 230.052 276.109 230.225 276.363 230.361C276.682 230.505 277.001 230.576 277.32 230.576ZM288.248 234.678H288.844C289.111 234.678 289.358 234.606 289.586 234.463C289.801 234.326 289.96 234.105 290.064 233.799L290.621 232.1L286.988 222.363H289.146L291.549 229.463H291.588L293.98 222.363H296.148L291.783 234.6C291.503 235.361 291.116 235.889 290.621 236.182C290.12 236.462 289.553 236.602 288.922 236.602H288.248V234.678ZM297.33 222.363H305.436V232.5H303.395V224.277H299.371V232.5H297.33V222.363ZM310.855 232.617C309.736 232.604 308.863 232.305 308.238 231.719C307.594 231.146 307.271 230.413 307.271 229.521C307.271 228.669 307.551 227.962 308.111 227.402C308.658 226.842 309.479 226.549 310.572 226.523H313.395V225.459C313.408 224.567 312.714 224.134 311.314 224.16C310.833 224.16 310.432 224.212 310.113 224.316C309.807 224.44 309.566 224.648 309.391 224.941L307.789 223.721C308.564 222.705 309.706 222.21 311.217 222.236C312.493 222.223 313.512 222.464 314.273 222.959C315.022 223.454 315.41 224.326 315.436 225.576V232.5H313.395V231.602H313.355C313.167 231.947 312.874 232.201 312.477 232.363C312.112 232.533 311.572 232.617 310.855 232.617ZM311.109 230.703C311.969 230.729 312.571 230.628 312.916 230.4C313.235 230.186 313.395 229.697 313.395 228.936V228.203H310.953C309.755 228.229 309.169 228.636 309.195 229.424C309.195 229.769 309.348 230.062 309.654 230.303C309.96 230.57 310.445 230.703 311.109 230.703ZM318.072 222.363H320.113V226.338H321.07C321.435 226.338 321.738 226.26 321.979 226.104C322.226 225.941 322.405 225.719 322.516 225.439L322.994 224.082C323.209 223.47 323.502 223.031 323.873 222.764C324.244 222.497 324.765 222.363 325.436 222.363H326.109V224.199H325.816C325.615 224.199 325.445 224.209 325.309 224.229C325.178 224.248 325.068 224.29 324.977 224.355C324.892 224.414 324.82 224.499 324.762 224.609C324.703 224.72 324.641 224.87 324.576 225.059L324.234 226.064C324.13 226.37 323.98 226.611 323.785 226.787C323.59 226.956 323.378 227.08 323.15 227.158C323.502 227.269 323.782 227.435 323.99 227.656C324.205 227.871 324.387 228.164 324.537 228.535L325.016 229.775C325.081 229.951 325.143 230.094 325.201 230.205C325.26 230.309 325.328 230.391 325.406 230.449C325.491 230.508 325.589 230.55 325.699 230.576C325.816 230.602 325.969 230.615 326.158 230.615H326.617V232.5H325.875C325.139 232.5 324.576 232.363 324.186 232.09C323.801 231.816 323.486 231.348 323.238 230.684L322.672 229.238C322.581 228.997 322.467 228.815 322.33 228.691C322.2 228.561 322.057 228.464 321.9 228.398C321.751 228.333 321.594 228.294 321.432 228.281C321.275 228.268 321.116 228.262 320.953 228.262H320.113V232.5H318.072V222.363ZM331.91 232.617C331.161 232.617 330.527 232.471 330.006 232.178C329.492 231.911 329.101 231.624 328.834 231.318C328.443 230.895 328.163 230.41 327.994 229.863C327.818 229.329 327.73 228.516 327.73 227.422C327.73 226.341 327.818 225.521 327.994 224.961C328.176 224.388 328.456 223.913 328.834 223.535C329.114 223.203 329.505 222.904 330.006 222.637C330.514 222.37 331.148 222.236 331.91 222.236C332.698 222.236 333.346 222.37 333.854 222.637C334.342 222.904 334.719 223.203 334.986 223.535C335.377 223.913 335.663 224.388 335.846 224.961C336.008 225.547 336.09 226.367 336.09 227.422C336.09 228.49 336.008 229.303 335.846 229.863C335.663 230.423 335.377 230.908 334.986 231.318C334.921 231.383 334.85 231.458 334.771 231.543C334.693 231.621 334.605 231.693 334.508 231.758C334.326 231.921 334.107 232.061 333.854 232.178C333.333 232.471 332.685 232.617 331.91 232.617ZM331.91 230.576C332.268 230.576 332.594 230.505 332.887 230.361C333.18 230.225 333.401 230.052 333.551 229.844C333.766 229.564 333.899 229.271 333.951 228.965C333.977 228.802 334 228.594 334.02 228.34C334.039 228.086 334.049 227.786 334.049 227.441C334.049 227.083 334.039 226.774 334.02 226.514C334 226.253 333.977 226.035 333.951 225.859C333.899 225.553 333.766 225.273 333.551 225.02C333.401 224.805 333.18 224.626 332.887 224.482C332.62 224.346 332.294 224.277 331.91 224.277C331.552 224.277 331.233 224.346 330.953 224.482C330.686 224.613 330.458 224.792 330.27 225.02C330.094 225.247 329.967 225.527 329.889 225.859C329.811 226.204 329.771 226.725 329.771 227.422C329.771 228.125 329.811 228.639 329.889 228.965C329.967 229.297 330.094 229.59 330.27 229.844C330.471 230.052 330.699 230.225 330.953 230.361C331.272 230.505 331.591 230.576 331.91 230.576ZM338.229 222.363H343.092C344.023 222.363 344.765 222.611 345.318 223.105C345.872 223.594 346.148 224.251 346.148 225.078C346.148 226.094 345.676 226.82 344.732 227.256C345.24 227.484 345.631 227.793 345.904 228.184C346.178 228.568 346.314 229.053 346.314 229.639C346.314 230.518 346.044 231.214 345.504 231.729C344.964 232.243 344.212 232.5 343.248 232.5H338.229V222.363ZM342.848 230.801C343.303 230.801 343.661 230.677 343.922 230.43C344.182 230.182 344.312 229.854 344.312 229.443C344.312 229.014 344.182 228.682 343.922 228.447C343.661 228.213 343.303 228.096 342.848 228.096H340.27V230.801H342.848ZM342.711 226.523C343.668 226.523 344.146 226.104 344.146 225.264C344.146 224.873 344.023 224.577 343.775 224.375C343.535 224.167 343.18 224.062 342.711 224.062H340.27V226.523H342.711ZM348.463 222.363H350.504V226.182H353.18C354.169 226.182 354.964 226.471 355.562 227.051C356.161 227.63 356.461 228.392 356.461 229.336C356.461 230.286 356.161 231.051 355.562 231.631C354.964 232.21 354.169 232.5 353.18 232.5H348.463V222.363ZM352.965 230.703C353.434 230.703 353.798 230.579 354.059 230.332C354.319 230.085 354.449 229.74 354.449 229.297C354.449 228.874 354.319 228.538 354.059 228.291C353.798 228.044 353.434 227.92 352.965 227.92H350.504V230.703H352.965ZM357.867 222.363H359.908V232.5H357.867V222.363ZM362.545 222.363H367.408C368.339 222.363 369.081 222.611 369.635 223.105C370.188 223.594 370.465 224.251 370.465 225.078C370.465 226.094 369.993 226.82 369.049 227.256C369.557 227.484 369.947 227.793 370.221 228.184C370.494 228.568 370.631 229.053 370.631 229.639C370.631 230.518 370.361 231.214 369.82 231.729C369.28 232.243 368.528 232.5 367.564 232.5H362.545V222.363ZM367.164 230.801C367.62 230.801 367.978 230.677 368.238 230.43C368.499 230.182 368.629 229.854 368.629 229.443C368.629 229.014 368.499 228.682 368.238 228.447C367.978 228.213 367.62 228.096 367.164 228.096H364.586V230.801H367.164ZM367.027 226.523C367.984 226.523 368.463 226.104 368.463 225.264C368.463 224.873 368.339 224.577 368.092 224.375C367.851 224.167 367.496 224.062 367.027 224.062H364.586V226.523H367.027ZM375.562 232.617C374.443 232.604 373.57 232.305 372.945 231.719C372.301 231.146 371.979 230.413 371.979 229.521C371.979 228.669 372.258 227.962 372.818 227.402C373.365 226.842 374.186 226.549 375.279 226.523H378.102V225.459C378.115 224.567 377.421 224.134 376.021 224.16C375.54 224.16 375.139 224.212 374.82 224.316C374.514 224.44 374.273 224.648 374.098 224.941L372.496 223.721C373.271 222.705 374.413 222.21 375.924 222.236C377.2 222.223 378.219 222.464 378.98 222.959C379.729 223.454 380.117 224.326 380.143 225.576V232.5H378.102V231.602H378.062C377.874 231.947 377.581 232.201 377.184 232.363C376.819 232.533 376.279 232.617 375.562 232.617ZM375.816 230.703C376.676 230.729 377.278 230.628 377.623 230.4C377.942 230.186 378.102 229.697 378.102 228.936V228.203H375.66C374.462 228.229 373.876 228.636 373.902 229.424C373.902 229.769 374.055 230.062 374.361 230.303C374.667 230.57 375.152 230.703 375.816 230.703ZM386.783 232.617C386.236 232.617 385.715 232.539 385.221 232.383C384.993 232.311 384.745 232.197 384.479 232.041C384.238 231.937 384 231.784 383.766 231.582C383.323 231.178 382.975 230.651 382.721 230C382.428 229.362 382.281 228.516 382.281 227.461C382.281 226.432 382.408 225.599 382.662 224.961C382.929 224.251 383.255 223.717 383.639 223.359C384.029 222.975 384.482 222.689 384.996 222.5C385.478 222.324 385.966 222.236 386.461 222.236C387.62 222.262 388.6 222.643 389.4 223.379C390.201 224.128 390.615 225.176 390.641 226.523V228.203H384.322C384.322 229.017 384.557 229.635 385.025 230.059C385.475 230.488 386.048 230.703 386.744 230.703C387.571 230.703 388.31 230.374 388.961 229.717L390.445 230.977C389.391 232.083 388.17 232.63 386.783 232.617ZM388.6 226.523C388.574 225.749 388.362 225.153 387.965 224.736C387.574 224.352 387.073 224.16 386.461 224.16C385.849 224.16 385.348 224.352 384.957 224.736C384.573 225.153 384.361 225.749 384.322 226.523H388.6ZM392.779 222.363H394.801L397.838 228.398L400.865 222.363H402.857V232.5H400.816V225.996L398.482 230.645H397.203L394.82 225.996V232.5H392.779V222.363ZM55.3184 248.363H57.3398L60.377 254.398L63.4043 248.363H65.3965V258.5H63.3555V251.996L61.0215 256.645H59.7422L57.3594 251.996V258.5H55.3184V248.363ZM67.1934 256.576H67.6523C67.9323 256.576 68.1536 256.54 68.3164 256.469C68.4857 256.397 68.6191 256.254 68.7168 256.039L69.0977 255.16C69.1628 254.971 69.2409 254.809 69.332 254.672C69.4297 254.529 69.5697 254.398 69.752 254.281C69.1139 254.171 68.6061 253.858 68.2285 253.344C67.8574 252.823 67.6719 252.182 67.6719 251.42C67.6719 250.463 67.9681 249.714 68.5605 249.174C69.1595 248.633 69.9635 248.363 70.9727 248.363H75.6113V258.5H73.5703V254.604H72.75C72.2617 254.604 71.9004 254.678 71.666 254.828C71.4316 254.971 71.2201 255.268 71.0312 255.717L70.5723 256.84C70.4551 257.146 70.3216 257.403 70.1719 257.611C70.0286 257.82 69.8626 257.992 69.6738 258.129C69.485 258.259 69.2604 258.354 69 258.412C68.7461 258.471 68.4434 258.5 68.0918 258.5H67.1934V256.576ZM73.5703 252.924V250.199H71.1973C70.6895 250.199 70.3086 250.323 70.0547 250.57C69.8008 250.818 69.6738 251.153 69.6738 251.576C69.6738 252.475 70.1816 252.924 71.1973 252.924H73.5703ZM82.0664 258.617C80.8555 258.617 79.804 258.21 78.9121 257.396C77.9616 256.583 77.4798 255.264 77.4668 253.441C77.4928 251.586 77.9746 250.251 78.9121 249.438C79.8171 248.611 80.8685 248.21 82.0664 248.236C82.8542 248.262 83.5475 248.425 84.1465 248.725C84.765 249.044 85.2858 249.47 85.709 250.004L84.2051 251.342C83.6908 250.645 83.0072 250.29 82.1543 250.277C80.403 250.251 79.5208 251.306 79.5078 253.441C79.5208 255.557 80.403 256.602 82.1543 256.576C83.0202 256.55 83.7038 256.199 84.2051 255.521L85.709 256.859C85.2533 257.367 84.7324 257.781 84.1465 258.1C83.5345 258.445 82.8411 258.617 82.0664 258.617ZM90.8164 258.617C90.0677 258.617 89.4329 258.471 88.9121 258.178C88.3978 257.911 88.0072 257.624 87.7402 257.318C87.3496 256.895 87.0697 256.41 86.9004 255.863C86.7246 255.329 86.6367 254.516 86.6367 253.422C86.6367 252.341 86.7246 251.521 86.9004 250.961C87.0827 250.388 87.3626 249.913 87.7402 249.535C88.0202 249.203 88.4108 248.904 88.9121 248.637C89.4199 248.37 90.0547 248.236 90.8164 248.236C91.6042 248.236 92.252 248.37 92.7598 248.637C93.248 248.904 93.6257 249.203 93.8926 249.535C94.2832 249.913 94.5697 250.388 94.752 250.961C94.9147 251.547 94.9961 252.367 94.9961 253.422C94.9961 254.49 94.9147 255.303 94.752 255.863C94.5697 256.423 94.2832 256.908 93.8926 257.318C93.8275 257.383 93.7559 257.458 93.6777 257.543C93.5996 257.621 93.5117 257.693 93.4141 257.758C93.2318 257.921 93.0137 258.061 92.7598 258.178C92.2389 258.471 91.5911 258.617 90.8164 258.617ZM90.8164 256.576C91.1745 256.576 91.5 256.505 91.793 256.361C92.0859 256.225 92.3073 256.052 92.457 255.844C92.6719 255.564 92.8053 255.271 92.8574 254.965C92.8835 254.802 92.9062 254.594 92.9258 254.34C92.9453 254.086 92.9551 253.786 92.9551 253.441C92.9551 253.083 92.9453 252.774 92.9258 252.514C92.9062 252.253 92.8835 252.035 92.8574 251.859C92.8053 251.553 92.6719 251.273 92.457 251.02C92.3073 250.805 92.0859 250.626 91.793 250.482C91.526 250.346 91.2005 250.277 90.8164 250.277C90.4583 250.277 90.1393 250.346 89.8594 250.482C89.5924 250.613 89.3646 250.792 89.1758 251.02C89 251.247 88.873 251.527 88.7949 251.859C88.7168 252.204 88.6777 252.725 88.6777 253.422C88.6777 254.125 88.7168 254.639 88.7949 254.965C88.873 255.297 89 255.59 89.1758 255.844C89.3776 256.052 89.6055 256.225 89.8594 256.361C90.1784 256.505 90.4974 256.576 90.8164 256.576ZM101.939 248.363H103.98V255.238L108.385 248.363H110.426V258.5H108.385V251.518L103.98 258.5H101.939V248.363ZM121.92 258.617C120.891 258.617 120.055 258.38 119.41 257.904C118.766 257.423 118.31 256.781 118.043 255.98C117.958 255.753 117.896 255.492 117.857 255.199C117.818 254.906 117.786 254.6 117.76 254.281C117.734 253.962 117.717 253.643 117.711 253.324C117.704 252.999 117.701 252.696 117.701 252.416V251.645C117.701 251.098 117.711 250.567 117.73 250.053C117.75 249.538 117.809 249.05 117.906 248.588C118.01 248.119 118.16 247.686 118.355 247.289C118.557 246.885 118.831 246.521 119.176 246.195C119.456 245.948 119.752 245.746 120.064 245.59C120.383 245.434 120.712 245.313 121.051 245.229C121.389 245.144 121.731 245.079 122.076 245.033C122.421 244.988 122.763 244.942 123.102 244.896C123.31 244.87 123.479 244.809 123.609 244.711C123.746 244.613 123.831 244.464 123.863 244.262H125.943C125.833 245.74 125.146 246.579 123.883 246.781C123.557 246.833 123.235 246.876 122.916 246.908C122.597 246.941 122.281 246.99 121.969 247.055C121.656 247.113 121.36 247.201 121.08 247.318C120.8 247.429 120.54 247.589 120.299 247.797C119.993 248.077 119.768 248.412 119.625 248.803C119.488 249.187 119.413 249.545 119.4 249.877H119.459C119.687 249.48 120.055 249.141 120.562 248.861C121.077 248.581 121.676 248.441 122.359 248.441C123.694 248.441 124.658 248.878 125.25 249.75C125.842 250.622 126.139 251.866 126.139 253.48C126.139 254.359 126.057 255.111 125.895 255.736C125.738 256.355 125.471 256.889 125.094 257.338C124.749 257.755 124.309 258.074 123.775 258.295C123.242 258.51 122.623 258.617 121.92 258.617ZM121.9 256.596C122.245 256.596 122.558 256.534 122.838 256.41C123.118 256.286 123.352 256.111 123.541 255.883C123.769 255.616 123.919 255.294 123.99 254.916C124.062 254.532 124.098 254.066 124.098 253.52C124.098 252.96 124.062 252.481 123.99 252.084C123.919 251.68 123.769 251.345 123.541 251.078C123.352 250.863 123.118 250.697 122.838 250.58C122.558 250.463 122.245 250.404 121.9 250.404C121.555 250.404 121.243 250.466 120.963 250.59C120.683 250.714 120.455 250.889 120.279 251.117C120.051 251.384 119.905 251.719 119.84 252.123C119.775 252.52 119.742 252.999 119.742 253.559C119.742 254.197 119.794 254.704 119.898 255.082C120.003 255.453 120.169 255.759 120.396 256C120.585 256.189 120.81 256.335 121.07 256.439C121.331 256.544 121.607 256.596 121.9 256.596ZM128.287 248.363H130.328V252.182H133.004C133.993 252.182 134.788 252.471 135.387 253.051C135.986 253.63 136.285 254.392 136.285 255.336C136.285 256.286 135.986 257.051 135.387 257.631C134.788 258.21 133.993 258.5 133.004 258.5H128.287V248.363ZM132.789 256.703C133.258 256.703 133.622 256.579 133.883 256.332C134.143 256.085 134.273 255.74 134.273 255.297C134.273 254.874 134.143 254.538 133.883 254.291C133.622 254.044 133.258 253.92 132.789 253.92H130.328V256.703H132.789ZM137.691 248.363H139.732V258.5H137.691V248.363ZM146.188 258.617C144.977 258.617 143.925 258.21 143.033 257.396C142.083 256.583 141.601 255.264 141.588 253.441C141.614 251.586 142.096 250.251 143.033 249.438C143.938 248.611 144.99 248.21 146.188 248.236C146.975 248.262 147.669 248.425 148.268 248.725C148.886 249.044 149.407 249.47 149.83 250.004L148.326 251.342C147.812 250.645 147.128 250.29 146.275 250.277C144.524 250.251 143.642 251.306 143.629 253.441C143.642 255.557 144.524 256.602 146.275 256.576C147.141 256.55 147.825 256.199 148.326 255.521L149.83 256.859C149.374 257.367 148.854 257.781 148.268 258.1C147.656 258.445 146.962 258.617 146.188 258.617ZM153.277 250.277H150.162V248.363H158.316V250.277H155.318V258.5H153.277V250.277ZM159.869 248.363H161.91V249.418C162.594 248.656 163.466 248.262 164.527 248.236C165.758 248.249 166.666 248.692 167.252 249.564C167.545 249.896 167.737 250.316 167.828 250.824C167.88 251.091 167.916 251.443 167.936 251.879C167.962 252.309 167.975 252.829 167.975 253.441C167.975 254.04 167.962 254.555 167.936 254.984C167.916 255.408 167.88 255.753 167.828 256.02C167.737 256.527 167.545 256.954 167.252 257.299C166.959 257.702 166.591 258.015 166.148 258.236C165.712 258.464 165.172 258.591 164.527 258.617C164.026 258.617 163.561 258.503 163.131 258.275C162.688 258.054 162.281 257.768 161.91 257.416V262.602H159.869V248.363ZM163.912 256.576C164.381 256.576 164.762 256.485 165.055 256.303C165.335 256.127 165.533 255.886 165.65 255.58C165.787 255.3 165.875 254.962 165.914 254.564C165.927 254.376 165.934 254.19 165.934 254.008C165.934 253.819 165.934 253.63 165.934 253.441C165.934 253.24 165.934 253.041 165.934 252.846C165.934 252.644 165.927 252.449 165.914 252.26C165.875 251.863 165.787 251.524 165.65 251.244C165.533 250.951 165.335 250.71 165.055 250.521C164.775 250.359 164.394 250.277 163.912 250.277C163.456 250.277 163.095 250.372 162.828 250.561C162.561 250.736 162.356 250.984 162.213 251.303C162.089 251.596 162.008 251.928 161.969 252.299C161.93 252.689 161.91 253.07 161.91 253.441C161.91 253.799 161.93 254.158 161.969 254.516C162.008 254.906 162.089 255.248 162.213 255.541C162.356 255.86 162.561 256.107 162.828 256.283C163.082 256.479 163.443 256.576 163.912 256.576ZM173.941 258.617C173.193 258.617 172.558 258.471 172.037 258.178C171.523 257.911 171.132 257.624 170.865 257.318C170.475 256.895 170.195 256.41 170.025 255.863C169.85 255.329 169.762 254.516 169.762 253.422C169.762 252.341 169.85 251.521 170.025 250.961C170.208 250.388 170.488 249.913 170.865 249.535C171.145 249.203 171.536 248.904 172.037 248.637C172.545 248.37 173.18 248.236 173.941 248.236C174.729 248.236 175.377 248.37 175.885 248.637C176.373 248.904 176.751 249.203 177.018 249.535C177.408 249.913 177.695 250.388 177.877 250.961C178.04 251.547 178.121 252.367 178.121 253.422C178.121 254.49 178.04 255.303 177.877 255.863C177.695 256.423 177.408 256.908 177.018 257.318C176.952 257.383 176.881 257.458 176.803 257.543C176.725 257.621 176.637 257.693 176.539 257.758C176.357 257.921 176.139 258.061 175.885 258.178C175.364 258.471 174.716 258.617 173.941 258.617ZM173.941 256.576C174.299 256.576 174.625 256.505 174.918 256.361C175.211 256.225 175.432 256.052 175.582 255.844C175.797 255.564 175.93 255.271 175.982 254.965C176.008 254.802 176.031 254.594 176.051 254.34C176.07 254.086 176.08 253.786 176.08 253.441C176.08 253.083 176.07 252.774 176.051 252.514C176.031 252.253 176.008 252.035 175.982 251.859C175.93 251.553 175.797 251.273 175.582 251.02C175.432 250.805 175.211 250.626 174.918 250.482C174.651 250.346 174.326 250.277 173.941 250.277C173.583 250.277 173.264 250.346 172.984 250.482C172.717 250.613 172.49 250.792 172.301 251.02C172.125 251.247 171.998 251.527 171.92 251.859C171.842 252.204 171.803 252.725 171.803 253.422C171.803 254.125 171.842 254.639 171.92 254.965C171.998 255.297 172.125 255.59 172.301 255.844C172.503 256.052 172.73 256.225 172.984 256.361C173.303 256.505 173.622 256.576 173.941 256.576ZM183.863 256.576H185.025C185.201 256.14 185.357 255.684 185.494 255.209C185.637 254.734 185.751 254.184 185.836 253.559C185.921 252.934 185.986 252.201 186.031 251.361C186.083 250.521 186.109 249.522 186.109 248.363H192.945V256.576H194.342V261.098H192.428V258.5H185.787V261.098H183.863V256.576ZM190.904 256.576V250.277H188.043C188.043 251.104 188.02 251.833 187.975 252.465C187.929 253.09 187.864 253.653 187.779 254.154C187.701 254.649 187.607 255.095 187.496 255.492C187.385 255.883 187.268 256.244 187.145 256.576H190.904ZM199.488 258.617C198.74 258.617 198.105 258.471 197.584 258.178C197.07 257.911 196.679 257.624 196.412 257.318C196.021 256.895 195.742 256.41 195.572 255.863C195.396 255.329 195.309 254.516 195.309 253.422C195.309 252.341 195.396 251.521 195.572 250.961C195.755 250.388 196.035 249.913 196.412 249.535C196.692 249.203 197.083 248.904 197.584 248.637C198.092 248.37 198.727 248.236 199.488 248.236C200.276 248.236 200.924 248.37 201.432 248.637C201.92 248.904 202.298 249.203 202.564 249.535C202.955 249.913 203.242 250.388 203.424 250.961C203.587 251.547 203.668 252.367 203.668 253.422C203.668 254.49 203.587 255.303 203.424 255.863C203.242 256.423 202.955 256.908 202.564 257.318C202.499 257.383 202.428 257.458 202.35 257.543C202.271 257.621 202.184 257.693 202.086 257.758C201.904 257.921 201.686 258.061 201.432 258.178C200.911 258.471 200.263 258.617 199.488 258.617ZM199.488 256.576C199.846 256.576 200.172 256.505 200.465 256.361C200.758 256.225 200.979 256.052 201.129 255.844C201.344 255.564 201.477 255.271 201.529 254.965C201.555 254.802 201.578 254.594 201.598 254.34C201.617 254.086 201.627 253.786 201.627 253.441C201.627 253.083 201.617 252.774 201.598 252.514C201.578 252.253 201.555 252.035 201.529 251.859C201.477 251.553 201.344 251.273 201.129 251.02C200.979 250.805 200.758 250.626 200.465 250.482C200.198 250.346 199.872 250.277 199.488 250.277C199.13 250.277 198.811 250.346 198.531 250.482C198.264 250.613 198.036 250.792 197.848 251.02C197.672 251.247 197.545 251.527 197.467 251.859C197.389 252.204 197.35 252.725 197.35 253.422C197.35 254.125 197.389 254.639 197.467 254.965C197.545 255.297 197.672 255.59 197.848 255.844C198.049 256.052 198.277 256.225 198.531 256.361C198.85 256.505 199.169 256.576 199.488 256.576ZM209.625 258.617C208.414 258.617 207.363 258.21 206.471 257.396C205.52 256.583 205.038 255.264 205.025 253.441C205.051 251.586 205.533 250.251 206.471 249.438C207.376 248.611 208.427 248.21 209.625 248.236C210.413 248.262 211.106 248.425 211.705 248.725C212.324 249.044 212.844 249.47 213.268 250.004L211.764 251.342C211.249 250.645 210.566 250.29 209.713 250.277C207.962 250.251 207.079 251.306 207.066 253.441C207.079 255.557 207.962 256.602 209.713 256.576C210.579 256.55 211.262 256.199 211.764 255.521L213.268 256.859C212.812 257.367 212.291 257.781 211.705 258.1C211.093 258.445 210.4 258.617 209.625 258.617ZM216.715 250.277H213.6V248.363H221.754V250.277H218.756V258.5H216.715V250.277ZM226.09 258.617C224.97 258.604 224.098 258.305 223.473 257.719C222.828 257.146 222.506 256.413 222.506 255.521C222.506 254.669 222.786 253.962 223.346 253.402C223.893 252.842 224.713 252.549 225.807 252.523H228.629V251.459C228.642 250.567 227.949 250.134 226.549 250.16C226.067 250.16 225.667 250.212 225.348 250.316C225.042 250.44 224.801 250.648 224.625 250.941L223.023 249.721C223.798 248.705 224.941 248.21 226.451 248.236C227.727 248.223 228.746 248.464 229.508 248.959C230.257 249.454 230.644 250.326 230.67 251.576V258.5H228.629V257.602H228.59C228.401 257.947 228.108 258.201 227.711 258.363C227.346 258.533 226.806 258.617 226.09 258.617ZM226.344 256.703C227.203 256.729 227.805 256.628 228.15 256.4C228.469 256.186 228.629 255.697 228.629 254.936V254.203H226.188C224.99 254.229 224.404 254.636 224.43 255.424C224.43 255.769 224.583 256.062 224.889 256.303C225.195 256.57 225.68 256.703 226.344 256.703ZM233.307 248.363H238.17C239.101 248.363 239.843 248.611 240.396 249.105C240.95 249.594 241.227 250.251 241.227 251.078C241.227 252.094 240.755 252.82 239.811 253.256C240.318 253.484 240.709 253.793 240.982 254.184C241.256 254.568 241.393 255.053 241.393 255.639C241.393 256.518 241.122 257.214 240.582 257.729C240.042 258.243 239.29 258.5 238.326 258.5H233.307V248.363ZM237.926 256.801C238.382 256.801 238.74 256.677 239 256.43C239.26 256.182 239.391 255.854 239.391 255.443C239.391 255.014 239.26 254.682 239 254.447C238.74 254.213 238.382 254.096 237.926 254.096H235.348V256.801H237.926ZM237.789 252.523C238.746 252.523 239.225 252.104 239.225 251.264C239.225 250.873 239.101 250.577 238.854 250.375C238.613 250.167 238.258 250.062 237.789 250.062H235.348V252.523H237.789ZM242.34 256.576H242.662C242.877 256.576 243.076 256.56 243.258 256.527C243.447 256.495 243.616 256.397 243.766 256.234C243.922 256.065 244.055 255.811 244.166 255.473C244.283 255.134 244.381 254.662 244.459 254.057C244.544 253.445 244.605 252.676 244.645 251.752C244.684 250.821 244.703 249.691 244.703 248.363H251.559V258.5H249.527V250.277H246.646C246.646 251.508 246.611 252.566 246.539 253.451C246.474 254.337 246.376 255.082 246.246 255.688C246.122 256.293 245.96 256.785 245.758 257.162C245.562 257.533 245.335 257.816 245.074 258.012C244.814 258.207 244.521 258.337 244.195 258.402C243.87 258.467 243.512 258.5 243.121 258.5H242.34V256.576ZM253.365 256.576H253.824C254.104 256.576 254.326 256.54 254.488 256.469C254.658 256.397 254.791 256.254 254.889 256.039L255.27 255.16C255.335 254.971 255.413 254.809 255.504 254.672C255.602 254.529 255.742 254.398 255.924 254.281C255.286 254.171 254.778 253.858 254.4 253.344C254.029 252.823 253.844 252.182 253.844 251.42C253.844 250.463 254.14 249.714 254.732 249.174C255.331 248.633 256.135 248.363 257.145 248.363H261.783V258.5H259.742V254.604H258.922C258.434 254.604 258.072 254.678 257.838 254.828C257.604 254.971 257.392 255.268 257.203 255.717L256.744 256.84C256.627 257.146 256.493 257.403 256.344 257.611C256.201 257.82 256.035 257.992 255.846 258.129C255.657 258.259 255.432 258.354 255.172 258.412C254.918 258.471 254.615 258.5 254.264 258.5H253.365V256.576ZM259.742 252.924V250.199H257.369C256.861 250.199 256.48 250.323 256.227 250.57C255.973 250.818 255.846 251.153 255.846 251.576C255.846 252.475 256.354 252.924 257.369 252.924H259.742ZM268.424 258.617C267.877 258.617 267.356 258.539 266.861 258.383C266.633 258.311 266.386 258.197 266.119 258.041C265.878 257.937 265.641 257.784 265.406 257.582C264.964 257.178 264.615 256.651 264.361 256C264.068 255.362 263.922 254.516 263.922 253.461C263.922 252.432 264.049 251.599 264.303 250.961C264.57 250.251 264.895 249.717 265.279 249.359C265.67 248.975 266.122 248.689 266.637 248.5C267.118 248.324 267.607 248.236 268.102 248.236C269.26 248.262 270.24 248.643 271.041 249.379C271.842 250.128 272.255 251.176 272.281 252.523V254.203H265.963C265.963 255.017 266.197 255.635 266.666 256.059C267.115 256.488 267.688 256.703 268.385 256.703C269.212 256.703 269.951 256.374 270.602 255.717L272.086 256.977C271.031 258.083 269.811 258.63 268.424 258.617ZM270.24 252.523C270.214 251.749 270.003 251.153 269.605 250.736C269.215 250.352 268.714 250.16 268.102 250.16C267.49 250.16 266.988 250.352 266.598 250.736C266.214 251.153 266.002 251.749 265.963 252.523H270.24ZM274.42 248.363H276.441L279.479 254.398L282.506 248.363H284.498V258.5H282.457V251.996L280.123 256.645H278.844L276.461 251.996V258.5H274.42V248.363ZM291.939 248.363H296.803C297.734 248.363 298.476 248.611 299.029 249.105C299.583 249.594 299.859 250.251 299.859 251.078C299.859 252.094 299.387 252.82 298.443 253.256C298.951 253.484 299.342 253.793 299.615 254.184C299.889 254.568 300.025 255.053 300.025 255.639C300.025 256.518 299.755 257.214 299.215 257.729C298.674 258.243 297.923 258.5 296.959 258.5H291.939V248.363ZM296.559 256.801C297.014 256.801 297.372 256.677 297.633 256.43C297.893 256.182 298.023 255.854 298.023 255.443C298.023 255.014 297.893 254.682 297.633 254.447C297.372 254.213 297.014 254.096 296.559 254.096H293.98V256.801H296.559ZM296.422 252.523C297.379 252.523 297.857 252.104 297.857 251.264C297.857 250.873 297.734 250.577 297.486 250.375C297.245 250.167 296.891 250.062 296.422 250.062H293.98V252.523H296.422ZM306.979 248.363H309L312.037 254.398L315.064 248.363H317.057V258.5H315.016V251.996L312.682 256.645H311.402L309.02 251.996V258.5H306.979V248.363ZM322.477 258.617C321.357 258.604 320.484 258.305 319.859 257.719C319.215 257.146 318.893 256.413 318.893 255.521C318.893 254.669 319.173 253.962 319.732 253.402C320.279 252.842 321.1 252.549 322.193 252.523H325.016V251.459C325.029 250.567 324.335 250.134 322.936 250.16C322.454 250.16 322.053 250.212 321.734 250.316C321.428 250.44 321.188 250.648 321.012 250.941L319.41 249.721C320.185 248.705 321.327 248.21 322.838 248.236C324.114 248.223 325.133 248.464 325.895 248.959C326.643 249.454 327.031 250.326 327.057 251.576V258.5H325.016V257.602H324.977C324.788 257.947 324.495 258.201 324.098 258.363C323.733 258.533 323.193 258.617 322.477 258.617ZM322.73 256.703C323.59 256.729 324.192 256.628 324.537 256.4C324.856 256.186 325.016 255.697 325.016 254.936V254.203H322.574C321.376 254.229 320.79 254.636 320.816 255.424C320.816 255.769 320.969 256.062 321.275 256.303C321.581 256.57 322.066 256.703 322.73 256.703ZM329.693 248.363H336.275V250.277H331.734V258.5H329.693V248.363ZM340.602 258.617C339.482 258.604 338.609 258.305 337.984 257.719C337.34 257.146 337.018 256.413 337.018 255.521C337.018 254.669 337.298 253.962 337.857 253.402C338.404 252.842 339.225 252.549 340.318 252.523H343.141V251.459C343.154 250.567 342.46 250.134 341.061 250.16C340.579 250.16 340.178 250.212 339.859 250.316C339.553 250.44 339.312 250.648 339.137 250.941L337.535 249.721C338.31 248.705 339.452 248.21 340.963 248.236C342.239 248.223 343.258 248.464 344.02 248.959C344.768 249.454 345.156 250.326 345.182 251.576V258.5H343.141V257.602H343.102C342.913 257.947 342.62 258.201 342.223 258.363C341.858 258.533 341.318 258.617 340.602 258.617ZM340.855 256.703C341.715 256.729 342.317 256.628 342.662 256.4C342.981 256.186 343.141 255.697 343.141 254.936V254.203H340.699C339.501 254.229 338.915 254.636 338.941 255.424C338.941 255.769 339.094 256.062 339.4 256.303C339.706 256.57 340.191 256.703 340.855 256.703ZM350.543 258.617C349.703 258.617 348.98 258.484 348.375 258.217C347.776 257.95 347.216 257.536 346.695 256.977L348.18 255.717C348.512 256.055 348.847 256.306 349.186 256.469C349.531 256.625 349.983 256.703 350.543 256.703C351.168 256.703 351.669 256.589 352.047 256.361C352.431 256.133 352.623 255.798 352.623 255.355C352.623 254.919 352.48 254.613 352.193 254.438C351.907 254.255 351.461 254.164 350.855 254.164H349.381V252.484H350.885C351.373 252.484 351.764 252.377 352.057 252.162C352.35 251.947 352.496 251.648 352.496 251.264C352.496 250.873 352.327 250.59 351.988 250.414C351.65 250.232 351.168 250.141 350.543 250.141C350.126 250.141 349.716 250.212 349.312 250.355C348.915 250.492 348.557 250.714 348.238 251.02L346.783 249.76C347.024 249.519 347.268 249.307 347.516 249.125C347.77 248.936 348.049 248.777 348.355 248.646C348.668 248.51 349.016 248.409 349.4 248.344C349.785 248.272 350.23 248.236 350.738 248.236C351.285 248.236 351.799 248.282 352.281 248.373C352.763 248.458 353.176 248.627 353.521 248.881C353.84 249.109 354.081 249.408 354.244 249.779C354.413 250.15 354.498 250.551 354.498 250.98C354.498 251.475 354.368 251.924 354.107 252.328C353.847 252.725 353.486 253.015 353.023 253.197C353.512 253.386 353.906 253.689 354.205 254.105C354.511 254.516 354.664 255.001 354.664 255.561C354.664 256.081 354.54 256.566 354.293 257.016C354.046 257.458 353.694 257.813 353.238 258.08C352.893 258.295 352.486 258.438 352.018 258.51C351.555 258.581 351.064 258.617 350.543 258.617ZM356.803 248.363H358.844V255.238L363.248 248.363H365.289V258.5H363.248V251.518L358.844 258.5H356.803V248.363ZM367.936 248.363H369.977V252.318H374V248.363H376.041V258.5H374V254.242H369.977V258.5H367.936V248.363ZM378.678 248.363H380.719V252.182H383.395C384.384 252.182 385.178 252.471 385.777 253.051C386.376 253.63 386.676 254.392 386.676 255.336C386.676 256.286 386.376 257.051 385.777 257.631C385.178 258.21 384.384 258.5 383.395 258.5H378.678V248.363ZM383.18 256.703C383.648 256.703 384.013 256.579 384.273 256.332C384.534 256.085 384.664 255.74 384.664 255.297C384.664 254.874 384.534 254.538 384.273 254.291C384.013 254.044 383.648 253.92 383.18 253.92H380.719V256.703H383.18ZM388.082 248.363H390.123V258.5H388.082V248.363Z" fill="white"/>
<path d="M481.862 80.9944L492.297 57.3297C493.04 55.6449 495.472 55.7743 496.032 57.5283L503.476 80.8411C503.722 81.61 504.405 82.156 505.21 82.2253L531.646 84.5047C533.679 84.6799 534.175 87.4291 532.332 88.3041L507.29 100.191C506.374 100.626 505.928 101.679 506.254 102.64L515.194 129.023C515.835 130.916 513.61 132.476 512.05 131.227L491.1 114.457C490.404 113.9 489.423 113.871 488.695 114.386L465.032 131.131C463.356 132.317 461.195 130.509 462.066 128.65L473.834 103.521C474.276 102.578 473.92 101.453 473.015 100.936L449.828 87.6847C448.102 86.6983 448.716 84.071 450.7 83.9518L480.152 82.1839C480.9 82.139 481.56 81.6799 481.862 80.9944Z" fill="#8784D6"/>
</svg>
