<svg width="580" height="349" viewBox="0 0 580 349" fill="none" xmlns="http://www.w3.org/2000/svg">
<path d="M580 42.706C580 31.9753 571.532 23.1569 560.81 22.7225L20.8097 0.843151C9.45569 0.383118 0 9.46343 0 20.8268V327.016C0 338.625 9.84998 347.795 21.4286 346.965L561.429 308.293C571.893 307.544 580 298.836 580 288.344V42.706Z" fill="#462B74"/>
<path d="M58.864 90.196H67.936V81.124C67.936 79.396 67.6 77.98 66.928 76.876C66.304 75.724 65.104 75.148 63.328 75.148C61.84 75.148 60.712 75.676 59.944 76.732C59.224 77.788 58.864 79.036 58.864 80.476V82.924H51.52V80.764C51.52 78.988 51.832 77.236 52.456 75.508C53.128 73.732 53.992 72.292 55.048 71.188C56.104 70.084 57.352 69.244 58.792 68.668C60.28 68.092 61.792 67.804 63.328 67.804C65.008 67.804 66.592 68.116 68.08 68.74C69.616 69.316 70.912 70.132 71.968 71.188C73.024 72.244 73.84 73.492 74.416 74.932C74.992 76.372 75.28 77.932 75.28 79.612V107.116C75.28 109.468 74.896 111.508 74.128 113.236C73.36 114.964 72.4 116.308 71.248 117.268C70.096 118.228 68.8 118.924 67.36 119.356C65.968 119.74 64.576 119.932 63.184 119.932C61.552 119.932 60.016 119.62 58.576 118.996C57.136 118.324 55.888 117.436 54.832 116.332C53.776 115.228 52.96 113.98 52.384 112.588C51.808 111.148 51.52 109.636 51.52 108.052V104.884H58.864V107.404C58.864 108.412 58.984 109.252 59.224 109.924C59.512 110.596 59.872 111.124 60.304 111.508C60.784 111.892 61.288 112.18 61.816 112.372C62.392 112.516 62.92 112.588 63.4 112.588C65.08 112.588 66.256 112.06 66.928 111.004C67.6 109.948 67.936 108.676 67.936 107.188V96.676H58.864V90.196ZM106.688 75.148C106.016 75.148 105.464 75.244 105.032 75.436C104.6 75.58 104.192 75.868 103.808 76.3C103.424 76.732 103.16 77.26 103.016 77.884C102.872 78.508 102.752 79.204 102.656 79.972L102.008 85.948C101.96 86.572 101.888 87.148 101.792 87.676C101.696 88.156 101.6 88.66 101.504 89.188C101.408 89.668 101.264 90.1 101.072 90.484C100.784 91.156 100.424 91.756 99.9923 92.284C99.6083 92.764 99.2243 93.148 98.8403 93.436L106.472 119.5H98.9843L92.5043 96.676H88.4003V119.5H81.0563V68.236H88.4003V90.196H90.8483C91.7123 90.196 92.4083 90.076 92.9363 89.836C93.4643 89.596 93.8963 89.26 94.2323 88.828C94.5683 88.396 94.8083 87.916 94.9523 87.388C95.0963 86.812 95.2163 86.188 95.3123 85.516L96.0323 79.396C96.0803 79.204 96.1283 78.82 96.1763 78.244C96.2723 77.62 96.4163 76.924 96.6083 76.156C96.8003 75.388 97.0643 74.596 97.4003 73.78C97.7363 72.964 98.1683 72.196 98.6963 71.476C99.6083 70.324 100.712 69.508 102.008 69.028C103.352 68.5 104.912 68.236 106.688 68.236V75.148ZM133.477 104.884V108.052C133.477 109.636 133.165 111.148 132.541 112.588C131.965 113.98 131.149 115.228 130.093 116.332C129.037 117.436 127.789 118.324 126.349 118.996C124.957 119.62 123.445 119.932 121.813 119.932C120.421 119.932 119.005 119.74 117.565 119.356C116.125 118.972 114.829 118.3 113.677 117.34C112.525 116.38 111.565 115.156 110.797 113.668C110.077 112.132 109.717 110.188 109.717 107.836V79.612C109.717 77.932 110.005 76.372 110.581 74.932C111.157 73.492 111.973 72.244 113.029 71.188C114.085 70.132 115.333 69.316 116.773 68.74C118.261 68.116 119.893 67.804 121.669 67.804C125.125 67.804 127.933 68.932 130.093 71.188C131.149 72.292 131.965 73.612 132.541 75.148C133.165 76.636 133.477 78.268 133.477 80.044V82.924H126.133V80.476C126.133 79.036 125.725 77.788 124.909 76.732C124.093 75.676 122.989 75.148 121.597 75.148C119.773 75.148 118.549 75.724 117.925 76.876C117.349 77.98 117.061 79.396 117.061 81.124V107.332C117.061 108.82 117.373 110.068 117.997 111.076C118.669 112.084 119.845 112.588 121.525 112.588C122.005 112.588 122.509 112.516 123.037 112.372C123.613 112.18 124.141 111.892 124.621 111.508C125.053 111.124 125.413 110.596 125.701 109.924C125.989 109.252 126.133 108.412 126.133 107.404V104.884H133.477ZM138.749 119.5V68.236H162.149V119.5H154.805V74.716H146.093V119.5H138.749ZM168.334 119.5V68.236H190.222V75.148H175.678V90.196H188.35V97.108H175.678V112.156H190.222V119.5H168.334ZM194.262 119.5V68.236H205.278C207.294 68.236 209.07 68.5 210.606 69.028C212.142 69.556 213.534 70.492 214.782 71.836C216.03 73.18 216.894 74.764 217.374 76.588C217.854 78.364 218.094 80.788 218.094 83.86C218.094 86.164 217.95 88.108 217.662 89.692C217.422 91.276 216.87 92.764 216.006 94.156C214.998 95.836 213.654 97.156 211.974 98.116C210.294 99.028 208.086 99.484 205.35 99.484H201.606V119.5H194.262ZM201.606 75.148V92.572H205.134C206.622 92.572 207.774 92.356 208.59 91.924C209.406 91.492 210.006 90.892 210.39 90.124C210.774 89.404 210.99 88.516 211.038 87.46C211.134 86.404 211.182 85.228 211.182 83.932C211.182 82.732 211.158 81.604 211.11 80.548C211.062 79.444 210.846 78.484 210.462 77.668C210.078 76.852 209.502 76.228 208.734 75.796C207.966 75.364 206.862 75.148 205.422 75.148H201.606ZM227.687 119.5V75.148H219.191V68.236H243.527V75.148H235.031V119.5H227.687ZM263.185 119.5V86.236H263.041L253.393 119.5H246.049V68.236H253.393V101.572H253.537L263.185 68.236H270.529V119.5H263.185ZM275.752 81.196C275.752 79.756 276.04 78.124 276.616 76.3C277.24 74.476 278.176 72.916 279.424 71.62C280.528 70.516 281.776 69.604 283.168 68.884C284.56 68.164 286.168 67.804 287.992 67.804C290.152 67.804 292 68.188 293.536 68.956C295.12 69.676 296.416 70.66 297.424 71.908C298.48 73.156 299.248 74.644 299.728 76.372C300.208 78.1 300.448 79.924 300.448 81.844C300.448 82.804 300.424 83.788 300.376 84.796C300.328 85.756 300.136 86.74 299.8 87.748C299.512 88.708 299.008 89.62 298.288 90.484C297.616 91.348 296.632 92.14 295.336 92.86C296.632 93.388 297.616 94.084 298.288 94.948C299.008 95.764 299.512 96.7 299.8 97.756C300.136 98.764 300.328 99.892 300.376 101.14C300.424 102.34 300.448 103.588 300.448 104.884C300.448 107.044 300.208 109.06 299.728 110.932C299.296 112.804 298.552 114.364 297.496 115.612C296.44 116.86 295.096 117.892 293.464 118.708C291.88 119.524 289.912 119.932 287.56 119.932C285.784 119.932 284.128 119.62 282.592 118.996C281.056 118.372 279.736 117.508 278.632 116.404C277.528 115.3 276.688 113.884 276.112 112.156C275.536 110.428 275.248 108.7 275.248 106.972V105.028H282.592L282.664 107.044C282.664 107.716 282.736 108.388 282.88 109.06C283.072 109.684 283.36 110.26 283.744 110.788C284.128 111.316 284.632 111.748 285.256 112.084C285.88 112.42 286.672 112.588 287.632 112.588C289.792 112.588 291.232 111.916 291.952 110.572C292.72 109.18 293.104 107.308 293.104 104.956C293.104 103.612 293.056 102.364 292.96 101.212C292.864 100.012 292.624 99.076 292.24 98.404C291.376 96.916 289.936 96.172 287.92 96.172H285.112V89.692H288.136C289.048 89.692 289.864 89.524 290.584 89.188C291.304 88.852 291.88 88.276 292.312 87.46C292.696 86.692 292.912 85.78 292.96 84.724C293.056 83.668 293.104 82.732 293.104 81.916C293.104 81.052 293.032 80.212 292.888 79.396C292.744 78.532 292.48 77.788 292.096 77.164C291.712 76.588 291.184 76.108 290.512 75.724C289.888 75.34 289.072 75.148 288.064 75.148C287.152 75.148 286.384 75.316 285.76 75.652C285.184 75.988 284.704 76.42 284.32 76.948C283.888 77.524 283.576 78.268 283.384 79.18C283.192 80.092 283.096 80.98 283.096 81.844V82.996H275.752V81.196ZM320.121 101.572L316.521 82.996H316.377L312.777 101.572H320.121ZM301.977 119.5L313.425 68.236H319.545L330.993 119.5H323.649L321.489 108.484H311.481L309.321 119.5H301.977Z" fill="white"/>
<path d="M55.5039 166.262H57.5352L61.6172 175.539L65.6211 166.262H67.6621V180.5H65.5039V171.623H65.4648L62.4766 178.459H60.6797L57.7012 171.623H57.6621V180.5H55.5039V166.262ZM70.4941 170.363H72.5352V174.182H75.2109C76.2005 174.182 76.9948 174.471 77.5938 175.051C78.1927 175.63 78.4922 176.392 78.4922 177.336C78.4922 178.286 78.1927 179.051 77.5938 179.631C76.9948 180.21 76.2005 180.5 75.2109 180.5H70.4941V170.363ZM74.9961 178.703C75.4648 178.703 75.8294 178.579 76.0898 178.332C76.3503 178.085 76.4805 177.74 76.4805 177.297C76.4805 176.874 76.3503 176.538 76.0898 176.291C75.8294 176.044 75.4648 175.92 74.9961 175.92H72.5352V178.703H74.9961ZM79.8984 170.363H81.9395V180.5H79.8984V170.363ZM93.1992 180.617C91.9883 180.617 90.9368 180.21 90.0449 179.396C89.0944 178.583 88.6126 177.264 88.5996 175.441C88.6257 173.586 89.1074 172.251 90.0449 171.438C90.9499 170.611 92.0013 170.21 93.1992 170.236C93.987 170.262 94.6803 170.425 95.2793 170.725C95.8978 171.044 96.4186 171.47 96.8418 172.004L95.3379 173.342C94.8236 172.645 94.14 172.29 93.2871 172.277C91.5358 172.251 90.6536 173.306 90.6406 175.441C90.6536 177.557 91.5358 178.602 93.2871 178.576C94.153 178.55 94.8366 178.199 95.3379 177.521L96.8418 178.859C96.3861 179.367 95.8652 179.781 95.2793 180.1C94.6673 180.445 93.974 180.617 93.1992 180.617ZM101.051 180.617C99.931 180.604 99.0586 180.305 98.4336 179.719C97.7891 179.146 97.4668 178.413 97.4668 177.521C97.4668 176.669 97.7467 175.962 98.3066 175.402C98.8535 174.842 99.6738 174.549 100.768 174.523H103.59V173.459C103.603 172.567 102.91 172.134 101.51 172.16C101.028 172.16 100.628 172.212 100.309 172.316C100.003 172.44 99.7617 172.648 99.5859 172.941L97.9844 171.721C98.7591 170.705 99.9017 170.21 101.412 170.236C102.688 170.223 103.707 170.464 104.469 170.959C105.217 171.454 105.605 172.326 105.631 173.576V180.5H103.59V179.602H103.551C103.362 179.947 103.069 180.201 102.672 180.363C102.307 180.533 101.767 180.617 101.051 180.617ZM101.305 178.703C102.164 178.729 102.766 178.628 103.111 178.4C103.43 178.186 103.59 177.697 103.59 176.936V176.203H101.148C99.9505 176.229 99.3646 176.636 99.3906 177.424C99.3906 177.769 99.5436 178.062 99.8496 178.303C100.156 178.57 100.641 178.703 101.305 178.703ZM108.268 170.363H110.289L113.326 176.398L116.354 170.363H118.346V180.5H116.305V173.996L113.971 178.645H112.691L110.309 173.996V180.5H108.268V170.363ZM120.982 170.363H123.023V177.238L127.428 170.363H129.469V180.5H127.428V173.518L123.023 180.5H120.982V170.363ZM136.92 170.363H145.025V180.5H142.984V172.277H138.961V180.5H136.92V170.363ZM147.662 170.363H149.703V171.418C150.387 170.656 151.259 170.262 152.32 170.236C153.551 170.249 154.459 170.692 155.045 171.564C155.338 171.896 155.53 172.316 155.621 172.824C155.673 173.091 155.709 173.443 155.729 173.879C155.755 174.309 155.768 174.829 155.768 175.441C155.768 176.04 155.755 176.555 155.729 176.984C155.709 177.408 155.673 177.753 155.621 178.02C155.53 178.527 155.338 178.954 155.045 179.299C154.752 179.702 154.384 180.015 153.941 180.236C153.505 180.464 152.965 180.591 152.32 180.617C151.819 180.617 151.354 180.503 150.924 180.275C150.481 180.054 150.074 179.768 149.703 179.416V184.602H147.662V170.363ZM151.705 178.576C152.174 178.576 152.555 178.485 152.848 178.303C153.128 178.127 153.326 177.886 153.443 177.58C153.58 177.3 153.668 176.962 153.707 176.564C153.72 176.376 153.727 176.19 153.727 176.008C153.727 175.819 153.727 175.63 153.727 175.441C153.727 175.24 153.727 175.041 153.727 174.846C153.727 174.644 153.72 174.449 153.707 174.26C153.668 173.863 153.58 173.524 153.443 173.244C153.326 172.951 153.128 172.71 152.848 172.521C152.568 172.359 152.187 172.277 151.705 172.277C151.249 172.277 150.888 172.372 150.621 172.561C150.354 172.736 150.149 172.984 150.006 173.303C149.882 173.596 149.801 173.928 149.762 174.299C149.723 174.689 149.703 175.07 149.703 175.441C149.703 175.799 149.723 176.158 149.762 176.516C149.801 176.906 149.882 177.248 150.006 177.541C150.149 177.86 150.354 178.107 150.621 178.283C150.875 178.479 151.236 178.576 151.705 178.576ZM161.734 180.617C160.986 180.617 160.351 180.471 159.83 180.178C159.316 179.911 158.925 179.624 158.658 179.318C158.268 178.895 157.988 178.41 157.818 177.863C157.643 177.329 157.555 176.516 157.555 175.422C157.555 174.341 157.643 173.521 157.818 172.961C158.001 172.388 158.281 171.913 158.658 171.535C158.938 171.203 159.329 170.904 159.83 170.637C160.338 170.37 160.973 170.236 161.734 170.236C162.522 170.236 163.17 170.37 163.678 170.637C164.166 170.904 164.544 171.203 164.811 171.535C165.201 171.913 165.488 172.388 165.67 172.961C165.833 173.547 165.914 174.367 165.914 175.422C165.914 176.49 165.833 177.303 165.67 177.863C165.488 178.423 165.201 178.908 164.811 179.318C164.745 179.383 164.674 179.458 164.596 179.543C164.518 179.621 164.43 179.693 164.332 179.758C164.15 179.921 163.932 180.061 163.678 180.178C163.157 180.471 162.509 180.617 161.734 180.617ZM161.734 178.576C162.092 178.576 162.418 178.505 162.711 178.361C163.004 178.225 163.225 178.052 163.375 177.844C163.59 177.564 163.723 177.271 163.775 176.965C163.801 176.802 163.824 176.594 163.844 176.34C163.863 176.086 163.873 175.786 163.873 175.441C163.873 175.083 163.863 174.774 163.844 174.514C163.824 174.253 163.801 174.035 163.775 173.859C163.723 173.553 163.59 173.273 163.375 173.02C163.225 172.805 163.004 172.626 162.711 172.482C162.444 172.346 162.118 172.277 161.734 172.277C161.376 172.277 161.057 172.346 160.777 172.482C160.51 172.613 160.283 172.792 160.094 173.02C159.918 173.247 159.791 173.527 159.713 173.859C159.635 174.204 159.596 174.725 159.596 175.422C159.596 176.125 159.635 176.639 159.713 176.965C159.791 177.297 159.918 177.59 160.094 177.844C160.296 178.052 160.523 178.225 160.777 178.361C161.096 178.505 161.415 178.576 161.734 178.576ZM168.053 170.363H170.094V177.238L174.498 170.363H176.539V180.5H174.498V173.518L170.094 180.5H168.053V170.363ZM181.91 180.617C181.07 180.617 180.348 180.484 179.742 180.217C179.143 179.95 178.583 179.536 178.062 178.977L179.547 177.717C179.879 178.055 180.214 178.306 180.553 178.469C180.898 178.625 181.35 178.703 181.91 178.703C182.535 178.703 183.036 178.589 183.414 178.361C183.798 178.133 183.99 177.798 183.99 177.355C183.99 176.919 183.847 176.613 183.561 176.438C183.274 176.255 182.828 176.164 182.223 176.164H180.748V174.484H182.252C182.74 174.484 183.131 174.377 183.424 174.162C183.717 173.947 183.863 173.648 183.863 173.264C183.863 172.873 183.694 172.59 183.355 172.414C183.017 172.232 182.535 172.141 181.91 172.141C181.493 172.141 181.083 172.212 180.68 172.355C180.283 172.492 179.924 172.714 179.605 173.02L178.15 171.76C178.391 171.519 178.635 171.307 178.883 171.125C179.137 170.936 179.417 170.777 179.723 170.646C180.035 170.51 180.383 170.409 180.768 170.344C181.152 170.272 181.598 170.236 182.105 170.236C182.652 170.236 183.167 170.282 183.648 170.373C184.13 170.458 184.544 170.627 184.889 170.881C185.208 171.109 185.449 171.408 185.611 171.779C185.781 172.15 185.865 172.551 185.865 172.98C185.865 173.475 185.735 173.924 185.475 174.328C185.214 174.725 184.853 175.015 184.391 175.197C184.879 175.386 185.273 175.689 185.572 176.105C185.878 176.516 186.031 177.001 186.031 177.561C186.031 178.081 185.908 178.566 185.66 179.016C185.413 179.458 185.061 179.813 184.605 180.08C184.26 180.295 183.854 180.438 183.385 180.51C182.923 180.581 182.431 180.617 181.91 180.617ZM188.17 170.363H193.033C193.964 170.363 194.706 170.611 195.26 171.105C195.813 171.594 196.09 172.251 196.09 173.078C196.09 174.094 195.618 174.82 194.674 175.256C195.182 175.484 195.572 175.793 195.846 176.184C196.119 176.568 196.256 177.053 196.256 177.639C196.256 178.518 195.986 179.214 195.445 179.729C194.905 180.243 194.153 180.5 193.189 180.5H188.17V170.363ZM192.789 178.801C193.245 178.801 193.603 178.677 193.863 178.43C194.124 178.182 194.254 177.854 194.254 177.443C194.254 177.014 194.124 176.682 193.863 176.447C193.603 176.213 193.245 176.096 192.789 176.096H190.211V178.801H192.789ZM192.652 174.523C193.609 174.523 194.088 174.104 194.088 173.264C194.088 172.873 193.964 172.577 193.717 172.375C193.476 172.167 193.121 172.062 192.652 172.062H190.211V174.523H192.652ZM202.086 180.617C201.337 180.617 200.702 180.471 200.182 180.178C199.667 179.911 199.277 179.624 199.01 179.318C198.619 178.895 198.339 178.41 198.17 177.863C197.994 177.329 197.906 176.516 197.906 175.422C197.906 174.341 197.994 173.521 198.17 172.961C198.352 172.388 198.632 171.913 199.01 171.535C199.29 171.203 199.68 170.904 200.182 170.637C200.689 170.37 201.324 170.236 202.086 170.236C202.874 170.236 203.521 170.37 204.029 170.637C204.518 170.904 204.895 171.203 205.162 171.535C205.553 171.913 205.839 172.388 206.021 172.961C206.184 173.547 206.266 174.367 206.266 175.422C206.266 176.49 206.184 177.303 206.021 177.863C205.839 178.423 205.553 178.908 205.162 179.318C205.097 179.383 205.025 179.458 204.947 179.543C204.869 179.621 204.781 179.693 204.684 179.758C204.501 179.921 204.283 180.061 204.029 180.178C203.508 180.471 202.861 180.617 202.086 180.617ZM202.086 178.576C202.444 178.576 202.77 178.505 203.062 178.361C203.355 178.225 203.577 178.052 203.727 177.844C203.941 177.564 204.075 177.271 204.127 176.965C204.153 176.802 204.176 176.594 204.195 176.34C204.215 176.086 204.225 175.786 204.225 175.441C204.225 175.083 204.215 174.774 204.195 174.514C204.176 174.253 204.153 174.035 204.127 173.859C204.075 173.553 203.941 173.273 203.727 173.02C203.577 172.805 203.355 172.626 203.062 172.482C202.796 172.346 202.47 172.277 202.086 172.277C201.728 172.277 201.409 172.346 201.129 172.482C200.862 172.613 200.634 172.792 200.445 173.02C200.27 173.247 200.143 173.527 200.064 173.859C199.986 174.204 199.947 174.725 199.947 175.422C199.947 176.125 199.986 176.639 200.064 176.965C200.143 177.297 200.27 177.59 200.445 177.844C200.647 178.052 200.875 178.225 201.129 178.361C201.448 178.505 201.767 178.576 202.086 178.576ZM207.203 178.576H208.365C208.541 178.14 208.697 177.684 208.834 177.209C208.977 176.734 209.091 176.184 209.176 175.559C209.26 174.934 209.326 174.201 209.371 173.361C209.423 172.521 209.449 171.522 209.449 170.363H216.285V178.576H217.682V183.098H215.768V180.5H209.127V183.098H207.203V178.576ZM214.244 178.576V172.277H211.383C211.383 173.104 211.36 173.833 211.314 174.465C211.269 175.09 211.204 175.653 211.119 176.154C211.041 176.649 210.947 177.095 210.836 177.492C210.725 177.883 210.608 178.244 210.484 178.576H214.244ZM219.146 170.363H221.188V177.238L225.592 170.363H227.633V180.5H225.592V173.518L221.188 180.5H219.146V170.363ZM230.279 170.363H232.301L235.338 176.398L238.365 170.363H240.357V180.5H238.316V173.996L235.982 178.645H234.703L232.32 173.996V180.5H230.279V170.363ZM247.799 170.363H249.84V174.338H250.797C251.161 174.338 251.464 174.26 251.705 174.104C251.952 173.941 252.132 173.719 252.242 173.439L252.721 172.082C252.936 171.47 253.229 171.031 253.6 170.764C253.971 170.497 254.492 170.363 255.162 170.363H255.836V172.199H255.543C255.341 172.199 255.172 172.209 255.035 172.229C254.905 172.248 254.794 172.29 254.703 172.355C254.618 172.414 254.547 172.499 254.488 172.609C254.43 172.72 254.368 172.87 254.303 173.059L253.961 174.064C253.857 174.37 253.707 174.611 253.512 174.787C253.316 174.956 253.105 175.08 252.877 175.158C253.229 175.269 253.508 175.435 253.717 175.656C253.932 175.871 254.114 176.164 254.264 176.535L254.742 177.775C254.807 177.951 254.869 178.094 254.928 178.205C254.986 178.309 255.055 178.391 255.133 178.449C255.217 178.508 255.315 178.55 255.426 178.576C255.543 178.602 255.696 178.615 255.885 178.615H256.344V180.5H255.602C254.866 180.5 254.303 180.363 253.912 180.09C253.528 179.816 253.212 179.348 252.965 178.684L252.398 177.238C252.307 176.997 252.193 176.815 252.057 176.691C251.926 176.561 251.783 176.464 251.627 176.398C251.477 176.333 251.321 176.294 251.158 176.281C251.002 176.268 250.842 176.262 250.68 176.262H249.84V180.5H247.799V170.363ZM261.637 180.617C260.888 180.617 260.253 180.471 259.732 180.178C259.218 179.911 258.827 179.624 258.561 179.318C258.17 178.895 257.89 178.41 257.721 177.863C257.545 177.329 257.457 176.516 257.457 175.422C257.457 174.341 257.545 173.521 257.721 172.961C257.903 172.388 258.183 171.913 258.561 171.535C258.84 171.203 259.231 170.904 259.732 170.637C260.24 170.37 260.875 170.236 261.637 170.236C262.424 170.236 263.072 170.37 263.58 170.637C264.068 170.904 264.446 171.203 264.713 171.535C265.104 171.913 265.39 172.388 265.572 172.961C265.735 173.547 265.816 174.367 265.816 175.422C265.816 176.49 265.735 177.303 265.572 177.863C265.39 178.423 265.104 178.908 264.713 179.318C264.648 179.383 264.576 179.458 264.498 179.543C264.42 179.621 264.332 179.693 264.234 179.758C264.052 179.921 263.834 180.061 263.58 180.178C263.059 180.471 262.411 180.617 261.637 180.617ZM261.637 178.576C261.995 178.576 262.32 178.505 262.613 178.361C262.906 178.225 263.128 178.052 263.277 177.844C263.492 177.564 263.626 177.271 263.678 176.965C263.704 176.802 263.727 176.594 263.746 176.34C263.766 176.086 263.775 175.786 263.775 175.441C263.775 175.083 263.766 174.774 263.746 174.514C263.727 174.253 263.704 174.035 263.678 173.859C263.626 173.553 263.492 173.273 263.277 173.02C263.128 172.805 262.906 172.626 262.613 172.482C262.346 172.346 262.021 172.277 261.637 172.277C261.279 172.277 260.96 172.346 260.68 172.482C260.413 172.613 260.185 172.792 259.996 173.02C259.82 173.247 259.693 173.527 259.615 173.859C259.537 174.204 259.498 174.725 259.498 175.422C259.498 176.125 259.537 176.639 259.615 176.965C259.693 177.297 259.82 177.59 259.996 177.844C260.198 178.052 260.426 178.225 260.68 178.361C260.999 178.505 261.318 178.576 261.637 178.576ZM267.955 170.363H269.996V171.418C270.68 170.656 271.552 170.262 272.613 170.236C273.844 170.249 274.752 170.692 275.338 171.564C275.631 171.896 275.823 172.316 275.914 172.824C275.966 173.091 276.002 173.443 276.021 173.879C276.048 174.309 276.061 174.829 276.061 175.441C276.061 176.04 276.048 176.555 276.021 176.984C276.002 177.408 275.966 177.753 275.914 178.02C275.823 178.527 275.631 178.954 275.338 179.299C275.045 179.702 274.677 180.015 274.234 180.236C273.798 180.464 273.258 180.591 272.613 180.617C272.112 180.617 271.646 180.503 271.217 180.275C270.774 180.054 270.367 179.768 269.996 179.416V184.602H267.955V170.363ZM271.998 178.576C272.467 178.576 272.848 178.485 273.141 178.303C273.421 178.127 273.619 177.886 273.736 177.58C273.873 177.3 273.961 176.962 274 176.564C274.013 176.376 274.02 176.19 274.02 176.008C274.02 175.819 274.02 175.63 274.02 175.441C274.02 175.24 274.02 175.041 274.02 174.846C274.02 174.644 274.013 174.449 274 174.26C273.961 173.863 273.873 173.524 273.736 173.244C273.619 172.951 273.421 172.71 273.141 172.521C272.861 172.359 272.48 172.277 271.998 172.277C271.542 172.277 271.181 172.372 270.914 172.561C270.647 172.736 270.442 172.984 270.299 173.303C270.175 173.596 270.094 173.928 270.055 174.299C270.016 174.689 269.996 175.07 269.996 175.441C269.996 175.799 270.016 176.158 270.055 176.516C270.094 176.906 270.175 177.248 270.299 177.541C270.442 177.86 270.647 178.107 270.914 178.283C271.168 178.479 271.529 178.576 271.998 178.576ZM278.346 170.363H280.367L283.404 176.398L286.432 170.363H288.424V180.5H286.383V173.996L284.049 178.645H282.77L280.387 173.996V180.5H278.346V170.363ZM293.844 180.617C292.724 180.604 291.852 180.305 291.227 179.719C290.582 179.146 290.26 178.413 290.26 177.521C290.26 176.669 290.54 175.962 291.1 175.402C291.646 174.842 292.467 174.549 293.561 174.523H296.383V173.459C296.396 172.567 295.702 172.134 294.303 172.16C293.821 172.16 293.421 172.212 293.102 172.316C292.796 172.44 292.555 172.648 292.379 172.941L290.777 171.721C291.552 170.705 292.695 170.21 294.205 170.236C295.481 170.223 296.5 170.464 297.262 170.959C298.01 171.454 298.398 172.326 298.424 173.576V180.5H296.383V179.602H296.344C296.155 179.947 295.862 180.201 295.465 180.363C295.1 180.533 294.56 180.617 293.844 180.617ZM294.098 178.703C294.957 178.729 295.559 178.628 295.904 178.4C296.223 178.186 296.383 177.697 296.383 176.936V176.203H293.941C292.743 176.229 292.158 176.636 292.184 177.424C292.184 177.769 292.337 178.062 292.643 178.303C292.949 178.57 293.434 178.703 294.098 178.703ZM301.119 181.984V178.459H303.16V180.5L301.119 181.984ZM310.67 170.363H315.533C316.464 170.363 317.206 170.611 317.76 171.105C318.313 171.594 318.59 172.251 318.59 173.078C318.59 174.094 318.118 174.82 317.174 175.256C317.682 175.484 318.072 175.793 318.346 176.184C318.619 176.568 318.756 177.053 318.756 177.639C318.756 178.518 318.486 179.214 317.945 179.729C317.405 180.243 316.653 180.5 315.689 180.5H310.67V170.363ZM315.289 178.801C315.745 178.801 316.103 178.677 316.363 178.43C316.624 178.182 316.754 177.854 316.754 177.443C316.754 177.014 316.624 176.682 316.363 176.447C316.103 176.213 315.745 176.096 315.289 176.096H312.711V178.801H315.289ZM315.152 174.523C316.109 174.523 316.588 174.104 316.588 173.264C316.588 172.873 316.464 172.577 316.217 172.375C315.976 172.167 315.621 172.062 315.152 172.062H312.711V174.523H315.152ZM320.904 170.363H322.945V174.182H325.621C326.611 174.182 327.405 174.471 328.004 175.051C328.603 175.63 328.902 176.392 328.902 177.336C328.902 178.286 328.603 179.051 328.004 179.631C327.405 180.21 326.611 180.5 325.621 180.5H320.904V170.363ZM325.406 178.703C325.875 178.703 326.24 178.579 326.5 178.332C326.76 178.085 326.891 177.74 326.891 177.297C326.891 176.874 326.76 176.538 326.5 176.291C326.24 176.044 325.875 175.92 325.406 175.92H322.945V178.703H325.406ZM330.309 170.363H332.35V180.5H330.309V170.363ZM334.986 170.363H337.027V171.418C337.711 170.656 338.583 170.262 339.645 170.236C340.875 170.249 341.783 170.692 342.369 171.564C342.662 171.896 342.854 172.316 342.945 172.824C342.997 173.091 343.033 173.443 343.053 173.879C343.079 174.309 343.092 174.829 343.092 175.441C343.092 176.04 343.079 176.555 343.053 176.984C343.033 177.408 342.997 177.753 342.945 178.02C342.854 178.527 342.662 178.954 342.369 179.299C342.076 179.702 341.708 180.015 341.266 180.236C340.829 180.464 340.289 180.591 339.645 180.617C339.143 180.617 338.678 180.503 338.248 180.275C337.805 180.054 337.398 179.768 337.027 179.416V184.602H334.986V170.363ZM339.029 178.576C339.498 178.576 339.879 178.485 340.172 178.303C340.452 178.127 340.65 177.886 340.768 177.58C340.904 177.3 340.992 176.962 341.031 176.564C341.044 176.376 341.051 176.19 341.051 176.008C341.051 175.819 341.051 175.63 341.051 175.441C341.051 175.24 341.051 175.041 341.051 174.846C341.051 174.644 341.044 174.449 341.031 174.26C340.992 173.863 340.904 173.524 340.768 173.244C340.65 172.951 340.452 172.71 340.172 172.521C339.892 172.359 339.511 172.277 339.029 172.277C338.574 172.277 338.212 172.372 337.945 172.561C337.678 172.736 337.473 172.984 337.33 173.303C337.206 173.596 337.125 173.928 337.086 174.299C337.047 174.689 337.027 175.07 337.027 175.441C337.027 175.799 337.047 176.158 337.086 176.516C337.125 176.906 337.206 177.248 337.33 177.541C337.473 177.86 337.678 178.107 337.945 178.283C338.199 178.479 338.561 178.576 339.029 178.576ZM348.16 180.617C347.04 180.604 346.168 180.305 345.543 179.719C344.898 179.146 344.576 178.413 344.576 177.521C344.576 176.669 344.856 175.962 345.416 175.402C345.963 174.842 346.783 174.549 347.877 174.523H350.699V173.459C350.712 172.567 350.019 172.134 348.619 172.16C348.137 172.16 347.737 172.212 347.418 172.316C347.112 172.44 346.871 172.648 346.695 172.941L345.094 171.721C345.868 170.705 347.011 170.21 348.521 170.236C349.798 170.223 350.816 170.464 351.578 170.959C352.327 171.454 352.714 172.326 352.74 173.576V180.5H350.699V179.602H350.66C350.471 179.947 350.178 180.201 349.781 180.363C349.417 180.533 348.876 180.617 348.16 180.617ZM348.414 178.703C349.273 178.729 349.876 178.628 350.221 178.4C350.54 178.186 350.699 177.697 350.699 176.936V176.203H348.258C347.06 176.229 346.474 176.636 346.5 177.424C346.5 177.769 346.653 178.062 346.959 178.303C347.265 178.57 347.75 178.703 348.414 178.703ZM367.877 180.5H355.377V170.363H357.418V178.576H360.855V170.363H362.896V178.576H366.314V170.363H368.355V178.576H369.801V183.098H367.877V180.5ZM371.256 170.363H373.297V177.238L377.701 170.363H379.742V180.5H377.701V173.518L373.297 180.5H371.256V170.363ZM382.389 170.363H387.252C388.183 170.363 388.925 170.611 389.479 171.105C390.032 171.594 390.309 172.251 390.309 173.078C390.309 174.094 389.837 174.82 388.893 175.256C389.4 175.484 389.791 175.793 390.064 176.184C390.338 176.568 390.475 177.053 390.475 177.639C390.475 178.518 390.204 179.214 389.664 179.729C389.124 180.243 388.372 180.5 387.408 180.5H382.389V170.363ZM387.008 178.801C387.464 178.801 387.822 178.677 388.082 178.43C388.342 178.182 388.473 177.854 388.473 177.443C388.473 177.014 388.342 176.682 388.082 176.447C387.822 176.213 387.464 176.096 387.008 176.096H384.43V178.801H387.008ZM386.871 174.523C387.828 174.523 388.307 174.104 388.307 173.264C388.307 172.873 388.183 172.577 387.936 172.375C387.695 172.167 387.34 172.062 386.871 172.062H384.43V174.523H386.871ZM395.406 180.617C394.286 180.604 393.414 180.305 392.789 179.719C392.145 179.146 391.822 178.413 391.822 177.521C391.822 176.669 392.102 175.962 392.662 175.402C393.209 174.842 394.029 174.549 395.123 174.523H397.945V173.459C397.958 172.567 397.265 172.134 395.865 172.16C395.383 172.16 394.983 172.212 394.664 172.316C394.358 172.44 394.117 172.648 393.941 172.941L392.34 171.721C393.115 170.705 394.257 170.21 395.768 170.236C397.044 170.223 398.062 170.464 398.824 170.959C399.573 171.454 399.96 172.326 399.986 173.576V180.5H397.945V179.602H397.906C397.717 179.947 397.424 180.201 397.027 180.363C396.663 180.533 396.122 180.617 395.406 180.617ZM395.66 178.703C396.52 178.729 397.122 178.628 397.467 178.4C397.786 178.186 397.945 177.697 397.945 176.936V176.203H395.504C394.306 176.229 393.72 176.636 393.746 177.424C393.746 177.769 393.899 178.062 394.205 178.303C394.511 178.57 394.996 178.703 395.66 178.703ZM406.627 180.617C406.08 180.617 405.559 180.539 405.064 180.383C404.837 180.311 404.589 180.197 404.322 180.041C404.081 179.937 403.844 179.784 403.609 179.582C403.167 179.178 402.818 178.651 402.564 178C402.271 177.362 402.125 176.516 402.125 175.461C402.125 174.432 402.252 173.599 402.506 172.961C402.773 172.251 403.098 171.717 403.482 171.359C403.873 170.975 404.326 170.689 404.84 170.5C405.322 170.324 405.81 170.236 406.305 170.236C407.464 170.262 408.443 170.643 409.244 171.379C410.045 172.128 410.458 173.176 410.484 174.523V176.203H404.166C404.166 177.017 404.4 177.635 404.869 178.059C405.318 178.488 405.891 178.703 406.588 178.703C407.415 178.703 408.154 178.374 408.805 177.717L410.289 178.977C409.234 180.083 408.014 180.63 406.627 180.617ZM408.443 174.523C408.417 173.749 408.206 173.153 407.809 172.736C407.418 172.352 406.917 172.16 406.305 172.16C405.693 172.16 405.191 172.352 404.801 172.736C404.417 173.153 404.205 173.749 404.166 174.523H408.443ZM412.623 170.363H414.645L417.682 176.398L420.709 170.363H422.701V180.5H420.66V173.996L418.326 178.645H417.047L414.664 173.996V180.5H412.623V170.363ZM54.3027 204.615H54.7422C54.9245 204.615 55.0742 204.602 55.1914 204.576C55.3151 204.55 55.416 204.508 55.4941 204.449C55.5788 204.391 55.6504 204.309 55.709 204.205C55.7676 204.094 55.8327 203.951 55.9043 203.775L56.3633 202.535C56.5065 202.164 56.6855 201.871 56.9004 201.656C57.1152 201.435 57.3952 201.269 57.7402 201.158C57.5124 201.08 57.3008 200.956 57.1055 200.787C56.9167 200.611 56.7669 200.37 56.6562 200.064L56.3242 199.059C56.2526 198.87 56.1875 198.72 56.1289 198.609C56.0703 198.499 55.9954 198.414 55.9043 198.355C55.8197 198.29 55.7122 198.248 55.582 198.229C55.4583 198.209 55.2988 198.199 55.1035 198.199H54.7812V196.363H55.4844C56.1354 196.363 56.6465 196.497 57.0176 196.764C57.3952 197.031 57.6947 197.47 57.916 198.082L58.4043 199.439C58.5085 199.719 58.6842 199.947 58.9316 200.123C59.179 200.292 59.4753 200.377 59.8203 200.377H60.377V196.363H62.418V200.377H62.9648C63.3229 200.377 63.6257 200.292 63.873 200.123C64.1204 199.947 64.2962 199.719 64.4004 199.439L64.8789 198.082C65.1068 197.47 65.403 197.031 65.7676 196.764C66.1387 196.497 66.6562 196.363 67.3203 196.363H68.0039V198.199H67.7012C67.4993 198.199 67.3301 198.209 67.1934 198.229C67.0632 198.248 66.959 198.29 66.8809 198.355C66.8027 198.414 66.7311 198.499 66.666 198.609C66.6074 198.72 66.5456 198.87 66.4805 199.059L66.1191 200.064C66.015 200.37 65.8652 200.611 65.6699 200.787C65.4746 200.956 65.263 201.08 65.0352 201.158C65.3867 201.269 65.6667 201.435 65.875 201.656C66.0898 201.871 66.2721 202.164 66.4219 202.535L66.9004 203.775C66.9655 203.951 67.0273 204.094 67.0859 204.205C67.151 204.309 67.2227 204.391 67.3008 204.449C67.3789 204.508 67.4733 204.55 67.584 204.576C67.7012 204.602 67.8542 204.615 68.043 204.615H68.502V206.5H67.7598C67.4017 206.5 67.0859 206.467 66.8125 206.402C66.5391 206.337 66.3014 206.236 66.0996 206.1C65.8978 205.956 65.7188 205.768 65.5625 205.533C65.4128 205.299 65.2728 205.016 65.1426 204.684L64.5762 203.238C64.485 202.997 64.3711 202.815 64.2344 202.691C64.1042 202.561 63.9609 202.464 63.8047 202.398C63.6549 202.333 63.4987 202.294 63.3359 202.281C63.1797 202.268 63.0202 202.262 62.8574 202.262H62.418V206.5H60.377V202.262H59.9375C59.7812 202.262 59.6185 202.268 59.4492 202.281C59.2799 202.294 59.1172 202.333 58.9609 202.398C58.8112 202.464 58.668 202.561 58.5312 202.691C58.401 202.815 58.2904 202.997 58.1992 203.238L57.6621 204.684C57.5254 205.016 57.3789 205.299 57.2227 205.533C57.0729 205.768 56.8939 205.956 56.6855 206.1C56.4837 206.236 56.2493 206.337 55.9824 206.402C55.7155 206.467 55.3997 206.5 55.0352 206.5H54.3027V204.615ZM70.123 196.363H72.1641V203.238L76.5684 196.363H78.6094V206.5H76.5684V199.518L72.1641 206.5H70.123V196.363ZM81.2559 196.363H86.1191C87.0501 196.363 87.7923 196.611 88.3457 197.105C88.8991 197.594 89.1758 198.251 89.1758 199.078C89.1758 200.094 88.7038 200.82 87.7598 201.256C88.2676 201.484 88.6582 201.793 88.9316 202.184C89.2051 202.568 89.3418 203.053 89.3418 203.639C89.3418 204.518 89.0716 205.214 88.5312 205.729C87.9909 206.243 87.2389 206.5 86.2754 206.5H81.2559V196.363ZM85.875 204.801C86.3307 204.801 86.6888 204.677 86.9492 204.43C87.2096 204.182 87.3398 203.854 87.3398 203.443C87.3398 203.014 87.2096 202.682 86.9492 202.447C86.6888 202.213 86.3307 202.096 85.875 202.096H83.2969V204.801H85.875ZM85.7383 200.523C86.6953 200.523 87.1738 200.104 87.1738 199.264C87.1738 198.873 87.0501 198.577 86.8027 198.375C86.5618 198.167 86.207 198.062 85.7383 198.062H83.2969V200.523H85.7383ZM95.1719 206.617C94.4232 206.617 93.7884 206.471 93.2676 206.178C92.7533 205.911 92.3626 205.624 92.0957 205.318C91.7051 204.895 91.4251 204.41 91.2559 203.863C91.0801 203.329 90.9922 202.516 90.9922 201.422C90.9922 200.341 91.0801 199.521 91.2559 198.961C91.4382 198.388 91.7181 197.913 92.0957 197.535C92.3757 197.203 92.7663 196.904 93.2676 196.637C93.7754 196.37 94.4102 196.236 95.1719 196.236C95.9596 196.236 96.6074 196.37 97.1152 196.637C97.6035 196.904 97.9811 197.203 98.248 197.535C98.6387 197.913 98.9251 198.388 99.1074 198.961C99.2702 199.547 99.3516 200.367 99.3516 201.422C99.3516 202.49 99.2702 203.303 99.1074 203.863C98.9251 204.423 98.6387 204.908 98.248 205.318C98.1829 205.383 98.1113 205.458 98.0332 205.543C97.9551 205.621 97.8672 205.693 97.7695 205.758C97.5872 205.921 97.3691 206.061 97.1152 206.178C96.5944 206.471 95.9466 206.617 95.1719 206.617ZM95.1719 204.576C95.5299 204.576 95.8555 204.505 96.1484 204.361C96.4414 204.225 96.6628 204.052 96.8125 203.844C97.0273 203.564 97.1608 203.271 97.2129 202.965C97.2389 202.802 97.2617 202.594 97.2812 202.34C97.3008 202.086 97.3105 201.786 97.3105 201.441C97.3105 201.083 97.3008 200.774 97.2812 200.514C97.2617 200.253 97.2389 200.035 97.2129 199.859C97.1608 199.553 97.0273 199.273 96.8125 199.02C96.6628 198.805 96.4414 198.626 96.1484 198.482C95.8815 198.346 95.556 198.277 95.1719 198.277C94.8138 198.277 94.4948 198.346 94.2148 198.482C93.9479 198.613 93.7201 198.792 93.5312 199.02C93.3555 199.247 93.2285 199.527 93.1504 199.859C93.0723 200.204 93.0332 200.725 93.0332 201.422C93.0332 202.125 93.0723 202.639 93.1504 202.965C93.2285 203.297 93.3555 203.59 93.5312 203.844C93.7331 204.052 93.9609 204.225 94.2148 204.361C94.5339 204.505 94.8529 204.576 95.1719 204.576ZM103.512 198.277H100.396V196.363H108.551V198.277H105.553V206.5H103.512V198.277ZM110.104 196.363H112.145V200.318H116.168V196.363H118.209V206.5H116.168V202.242H112.145V206.5H110.104V196.363ZM120.846 196.363H122.887V200.182H125.562C126.552 200.182 127.346 200.471 127.945 201.051C128.544 201.63 128.844 202.392 128.844 203.336C128.844 204.286 128.544 205.051 127.945 205.631C127.346 206.21 126.552 206.5 125.562 206.5H120.846V196.363ZM125.348 204.703C125.816 204.703 126.181 204.579 126.441 204.332C126.702 204.085 126.832 203.74 126.832 203.297C126.832 202.874 126.702 202.538 126.441 202.291C126.181 202.044 125.816 201.92 125.348 201.92H122.887V204.703H125.348ZM130.25 196.363H132.291V206.5H130.25V196.363ZM137.271 201.324L133.951 196.363H136.393L138.414 199.645L140.426 196.363H142.867L139.547 201.324L143.014 206.5H140.572L138.414 203.121L136.246 206.5H133.805L137.271 201.324ZM149.342 196.363H151.383V203.238L155.787 196.363H157.828V206.5H155.787V199.518L151.383 206.5H149.342V196.363ZM165.279 196.363H167.32V197.418C168.004 196.656 168.876 196.262 169.938 196.236C171.168 196.249 172.076 196.692 172.662 197.564C172.955 197.896 173.147 198.316 173.238 198.824C173.29 199.091 173.326 199.443 173.346 199.879C173.372 200.309 173.385 200.829 173.385 201.441C173.385 202.04 173.372 202.555 173.346 202.984C173.326 203.408 173.29 203.753 173.238 204.02C173.147 204.527 172.955 204.954 172.662 205.299C172.369 205.702 172.001 206.015 171.559 206.236C171.122 206.464 170.582 206.591 169.938 206.617C169.436 206.617 168.971 206.503 168.541 206.275C168.098 206.054 167.691 205.768 167.32 205.416V210.602H165.279V196.363ZM169.322 204.576C169.791 204.576 170.172 204.485 170.465 204.303C170.745 204.127 170.943 203.886 171.061 203.58C171.197 203.3 171.285 202.962 171.324 202.564C171.337 202.376 171.344 202.19 171.344 202.008C171.344 201.819 171.344 201.63 171.344 201.441C171.344 201.24 171.344 201.041 171.344 200.846C171.344 200.644 171.337 200.449 171.324 200.26C171.285 199.863 171.197 199.524 171.061 199.244C170.943 198.951 170.745 198.71 170.465 198.521C170.185 198.359 169.804 198.277 169.322 198.277C168.867 198.277 168.505 198.372 168.238 198.561C167.971 198.736 167.766 198.984 167.623 199.303C167.499 199.596 167.418 199.928 167.379 200.299C167.34 200.689 167.32 201.07 167.32 201.441C167.32 201.799 167.34 202.158 167.379 202.516C167.418 202.906 167.499 203.248 167.623 203.541C167.766 203.86 167.971 204.107 168.238 204.283C168.492 204.479 168.854 204.576 169.322 204.576ZM178.453 206.617C177.333 206.604 176.461 206.305 175.836 205.719C175.191 205.146 174.869 204.413 174.869 203.521C174.869 202.669 175.149 201.962 175.709 201.402C176.256 200.842 177.076 200.549 178.17 200.523H180.992V199.459C181.005 198.567 180.312 198.134 178.912 198.16C178.43 198.16 178.03 198.212 177.711 198.316C177.405 198.44 177.164 198.648 176.988 198.941L175.387 197.721C176.161 196.705 177.304 196.21 178.814 196.236C180.09 196.223 181.109 196.464 181.871 196.959C182.62 197.454 183.007 198.326 183.033 199.576V206.5H180.992V205.602H180.953C180.764 205.947 180.471 206.201 180.074 206.363C179.71 206.533 179.169 206.617 178.453 206.617ZM178.707 204.703C179.566 204.729 180.169 204.628 180.514 204.4C180.833 204.186 180.992 203.697 180.992 202.936V202.203H178.551C177.353 202.229 176.767 202.636 176.793 203.424C176.793 203.769 176.946 204.062 177.252 204.303C177.558 204.57 178.043 204.703 178.707 204.703ZM188.395 206.617C187.555 206.617 186.832 206.484 186.227 206.217C185.628 205.95 185.068 205.536 184.547 204.977L186.031 203.717C186.363 204.055 186.699 204.306 187.037 204.469C187.382 204.625 187.835 204.703 188.395 204.703C189.02 204.703 189.521 204.589 189.898 204.361C190.283 204.133 190.475 203.798 190.475 203.355C190.475 202.919 190.331 202.613 190.045 202.438C189.758 202.255 189.312 202.164 188.707 202.164H187.232V200.484H188.736C189.225 200.484 189.615 200.377 189.908 200.162C190.201 199.947 190.348 199.648 190.348 199.264C190.348 198.873 190.178 198.59 189.84 198.414C189.501 198.232 189.02 198.141 188.395 198.141C187.978 198.141 187.568 198.212 187.164 198.355C186.767 198.492 186.409 198.714 186.09 199.02L184.635 197.76C184.876 197.519 185.12 197.307 185.367 197.125C185.621 196.936 185.901 196.777 186.207 196.646C186.52 196.51 186.868 196.409 187.252 196.344C187.636 196.272 188.082 196.236 188.59 196.236C189.137 196.236 189.651 196.282 190.133 196.373C190.615 196.458 191.028 196.627 191.373 196.881C191.692 197.109 191.933 197.408 192.096 197.779C192.265 198.15 192.35 198.551 192.35 198.98C192.35 199.475 192.219 199.924 191.959 200.328C191.699 200.725 191.337 201.015 190.875 201.197C191.363 201.386 191.757 201.689 192.057 202.105C192.363 202.516 192.516 203.001 192.516 203.561C192.516 204.081 192.392 204.566 192.145 205.016C191.897 205.458 191.546 205.813 191.09 206.08C190.745 206.295 190.338 206.438 189.869 206.51C189.407 206.581 188.915 206.617 188.395 206.617ZM193.453 204.576H194.615C194.791 204.14 194.947 203.684 195.084 203.209C195.227 202.734 195.341 202.184 195.426 201.559C195.51 200.934 195.576 200.201 195.621 199.361C195.673 198.521 195.699 197.522 195.699 196.363H202.535V204.576H203.932V209.098H202.018V206.5H195.377V209.098H193.453V204.576ZM200.494 204.576V198.277H197.633C197.633 199.104 197.61 199.833 197.564 200.465C197.519 201.09 197.454 201.653 197.369 202.154C197.291 202.649 197.197 203.095 197.086 203.492C196.975 203.883 196.858 204.244 196.734 204.576H200.494ZM209.4 206.617C208.854 206.617 208.333 206.539 207.838 206.383C207.61 206.311 207.363 206.197 207.096 206.041C206.855 205.937 206.617 205.784 206.383 205.582C205.94 205.178 205.592 204.651 205.338 204C205.045 203.362 204.898 202.516 204.898 201.461C204.898 200.432 205.025 199.599 205.279 198.961C205.546 198.251 205.872 197.717 206.256 197.359C206.646 196.975 207.099 196.689 207.613 196.5C208.095 196.324 208.583 196.236 209.078 196.236C210.237 196.262 211.217 196.643 212.018 197.379C212.818 198.128 213.232 199.176 213.258 200.523V202.203H206.939C206.939 203.017 207.174 203.635 207.643 204.059C208.092 204.488 208.665 204.703 209.361 204.703C210.188 204.703 210.927 204.374 211.578 203.717L213.062 204.977C212.008 206.083 210.787 206.63 209.4 206.617ZM211.217 200.523C211.191 199.749 210.979 199.153 210.582 198.736C210.191 198.352 209.69 198.16 209.078 198.16C208.466 198.16 207.965 198.352 207.574 198.736C207.19 199.153 206.979 199.749 206.939 200.523H211.217ZM214.195 204.576H214.518C214.732 204.576 214.931 204.56 215.113 204.527C215.302 204.495 215.471 204.397 215.621 204.234C215.777 204.065 215.911 203.811 216.021 203.473C216.139 203.134 216.236 202.662 216.314 202.057C216.399 201.445 216.461 200.676 216.5 199.752C216.539 198.821 216.559 197.691 216.559 196.363H223.414V206.5H221.383V198.277H218.502C218.502 199.508 218.466 200.566 218.395 201.451C218.329 202.337 218.232 203.082 218.102 203.688C217.978 204.293 217.815 204.785 217.613 205.162C217.418 205.533 217.19 205.816 216.93 206.012C216.669 206.207 216.376 206.337 216.051 206.402C215.725 206.467 215.367 206.5 214.977 206.5H214.195V204.576ZM226.061 196.363H228.102V200.182H230.777C231.767 200.182 232.561 200.471 233.16 201.051C233.759 201.63 234.059 202.392 234.059 203.336C234.059 204.286 233.759 205.051 233.16 205.631C232.561 206.21 231.767 206.5 230.777 206.5H226.061V196.363ZM230.562 204.703C231.031 204.703 231.396 204.579 231.656 204.332C231.917 204.085 232.047 203.74 232.047 203.297C232.047 202.874 231.917 202.538 231.656 202.291C231.396 202.044 231.031 201.92 230.562 201.92H228.102V204.703H230.562ZM235.465 196.363H237.506V206.5H235.465V196.363ZM240.143 196.363H245.006C245.937 196.363 246.679 196.611 247.232 197.105C247.786 197.594 248.062 198.251 248.062 199.078C248.062 200.094 247.59 200.82 246.646 201.256C247.154 201.484 247.545 201.793 247.818 202.184C248.092 202.568 248.229 203.053 248.229 203.639C248.229 204.518 247.958 205.214 247.418 205.729C246.878 206.243 246.126 206.5 245.162 206.5H240.143V196.363ZM244.762 204.801C245.217 204.801 245.576 204.677 245.836 204.43C246.096 204.182 246.227 203.854 246.227 203.443C246.227 203.014 246.096 202.682 245.836 202.447C245.576 202.213 245.217 202.096 244.762 202.096H242.184V204.801H244.762ZM244.625 200.523C245.582 200.523 246.061 200.104 246.061 199.264C246.061 198.873 245.937 198.577 245.689 198.375C245.449 198.167 245.094 198.062 244.625 198.062H242.184V200.523H244.625ZM253.16 206.617C252.04 206.604 251.168 206.305 250.543 205.719C249.898 205.146 249.576 204.413 249.576 203.521C249.576 202.669 249.856 201.962 250.416 201.402C250.963 200.842 251.783 200.549 252.877 200.523H255.699V199.459C255.712 198.567 255.019 198.134 253.619 198.16C253.137 198.16 252.737 198.212 252.418 198.316C252.112 198.44 251.871 198.648 251.695 198.941L250.094 197.721C250.868 196.705 252.011 196.21 253.521 196.236C254.798 196.223 255.816 196.464 256.578 196.959C257.327 197.454 257.714 198.326 257.74 199.576V206.5H255.699V205.602H255.66C255.471 205.947 255.178 206.201 254.781 206.363C254.417 206.533 253.876 206.617 253.16 206.617ZM253.414 204.703C254.273 204.729 254.876 204.628 255.221 204.4C255.54 204.186 255.699 203.697 255.699 202.936V202.203H253.258C252.06 202.229 251.474 202.636 251.5 203.424C251.5 203.769 251.653 204.062 251.959 204.303C252.265 204.57 252.75 204.703 253.414 204.703ZM264.381 206.617C263.834 206.617 263.313 206.539 262.818 206.383C262.59 206.311 262.343 206.197 262.076 206.041C261.835 205.937 261.598 205.784 261.363 205.582C260.921 205.178 260.572 204.651 260.318 204C260.025 203.362 259.879 202.516 259.879 201.461C259.879 200.432 260.006 199.599 260.26 198.961C260.527 198.251 260.852 197.717 261.236 197.359C261.627 196.975 262.079 196.689 262.594 196.5C263.076 196.324 263.564 196.236 264.059 196.236C265.217 196.262 266.197 196.643 266.998 197.379C267.799 198.128 268.212 199.176 268.238 200.523V202.203H261.92C261.92 203.017 262.154 203.635 262.623 204.059C263.072 204.488 263.645 204.703 264.342 204.703C265.169 204.703 265.908 204.374 266.559 203.717L268.043 204.977C266.988 206.083 265.768 206.63 264.381 206.617ZM266.197 200.523C266.171 199.749 265.96 199.153 265.562 198.736C265.172 198.352 264.671 198.16 264.059 198.16C263.447 198.16 262.945 198.352 262.555 198.736C262.171 199.153 261.959 199.749 261.92 200.523H266.197ZM270.377 196.363H272.398L275.436 202.398L278.463 196.363H280.455V206.5H278.414V199.996L276.08 204.645H274.801L272.418 199.996V206.5H270.377V196.363ZM291.715 206.617C290.504 206.617 289.452 206.21 288.561 205.396C287.61 204.583 287.128 203.264 287.115 201.441C287.141 199.586 287.623 198.251 288.561 197.438C289.465 196.611 290.517 196.21 291.715 196.236C292.503 196.262 293.196 196.425 293.795 196.725C294.413 197.044 294.934 197.47 295.357 198.004L293.854 199.342C293.339 198.645 292.656 198.29 291.803 198.277C290.051 198.251 289.169 199.306 289.156 201.441C289.169 203.557 290.051 204.602 291.803 204.576C292.669 204.55 293.352 204.199 293.854 203.521L295.357 204.859C294.902 205.367 294.381 205.781 293.795 206.1C293.183 206.445 292.49 206.617 291.715 206.617ZM296.783 196.363H301.646C302.577 196.363 303.32 196.611 303.873 197.105C304.426 197.594 304.703 198.251 304.703 199.078C304.703 200.094 304.231 200.82 303.287 201.256C303.795 201.484 304.186 201.793 304.459 202.184C304.732 202.568 304.869 203.053 304.869 203.639C304.869 204.518 304.599 205.214 304.059 205.729C303.518 206.243 302.766 206.5 301.803 206.5H296.783V196.363ZM301.402 204.801C301.858 204.801 302.216 204.677 302.477 204.43C302.737 204.182 302.867 203.854 302.867 203.443C302.867 203.014 302.737 202.682 302.477 202.447C302.216 202.213 301.858 202.096 301.402 202.096H298.824V204.801H301.402ZM301.266 200.523C302.223 200.523 302.701 200.104 302.701 199.264C302.701 198.873 302.577 198.577 302.33 198.375C302.089 198.167 301.734 198.062 301.266 198.062H298.824V200.523H301.266ZM307.018 196.363H309.059V203.238L313.463 196.363H315.504V206.5H313.463V199.518L309.059 206.5H307.018V196.363ZM318.15 196.363H320.191V200.318H324.215V196.363H326.256V206.5H324.215V202.242H320.191V206.5H318.15V196.363ZM328.893 196.363H330.934V203.238L335.338 196.363H337.379V206.5H335.338V199.518L330.934 206.5H328.893V196.363ZM340.025 196.363H342.066V200.318H346.09V196.363H348.131V206.5H346.09V202.242H342.066V206.5H340.025V196.363ZM350.572 208.678H351.168C351.435 208.678 351.682 208.606 351.91 208.463C352.125 208.326 352.285 208.105 352.389 207.799L352.945 206.1L349.312 196.363H351.471L353.873 203.463H353.912L356.305 196.363H358.473L354.107 208.6C353.827 209.361 353.44 209.889 352.945 210.182C352.444 210.462 351.878 210.602 351.246 210.602H350.572V208.678ZM359.713 207.984V204.459H361.754V206.5L359.713 207.984ZM372.047 206.617C370.927 206.604 370.055 206.305 369.43 205.719C368.785 205.146 368.463 204.413 368.463 203.521C368.463 202.669 368.743 201.962 369.303 201.402C369.85 200.842 370.67 200.549 371.764 200.523H374.586V199.459C374.599 198.567 373.906 198.134 372.506 198.16C372.024 198.16 371.624 198.212 371.305 198.316C370.999 198.44 370.758 198.648 370.582 198.941L368.98 197.721C369.755 196.705 370.898 196.21 372.408 196.236C373.684 196.223 374.703 196.464 375.465 196.959C376.214 197.454 376.601 198.326 376.627 199.576V206.5H374.586V205.602H374.547C374.358 205.947 374.065 206.201 373.668 206.363C373.303 206.533 372.763 206.617 372.047 206.617ZM372.301 204.703C373.16 204.729 373.762 204.628 374.107 204.4C374.426 204.186 374.586 203.697 374.586 202.936V202.203H372.145C370.947 202.229 370.361 202.636 370.387 203.424C370.387 203.769 370.54 204.062 370.846 204.303C371.152 204.57 371.637 204.703 372.301 204.703ZM386.793 206.617C385.953 206.617 385.23 206.484 384.625 206.217C384.026 205.95 383.466 205.536 382.945 204.977L384.43 203.717C384.762 204.055 385.097 204.306 385.436 204.469C385.781 204.625 386.233 204.703 386.793 204.703C387.418 204.703 387.919 204.589 388.297 204.361C388.681 204.133 388.873 203.798 388.873 203.355C388.873 202.919 388.73 202.613 388.443 202.438C388.157 202.255 387.711 202.164 387.105 202.164H385.631V200.484H387.135C387.623 200.484 388.014 200.377 388.307 200.162C388.6 199.947 388.746 199.648 388.746 199.264C388.746 198.873 388.577 198.59 388.238 198.414C387.9 198.232 387.418 198.141 386.793 198.141C386.376 198.141 385.966 198.212 385.562 198.355C385.165 198.492 384.807 198.714 384.488 199.02L383.033 197.76C383.274 197.519 383.518 197.307 383.766 197.125C384.02 196.936 384.299 196.777 384.605 196.646C384.918 196.51 385.266 196.409 385.65 196.344C386.035 196.272 386.48 196.236 386.988 196.236C387.535 196.236 388.049 196.282 388.531 196.373C389.013 196.458 389.426 196.627 389.771 196.881C390.09 197.109 390.331 197.408 390.494 197.779C390.663 198.15 390.748 198.551 390.748 198.98C390.748 199.475 390.618 199.924 390.357 200.328C390.097 200.725 389.736 201.015 389.273 201.197C389.762 201.386 390.156 201.689 390.455 202.105C390.761 202.516 390.914 203.001 390.914 203.561C390.914 204.081 390.79 204.566 390.543 205.016C390.296 205.458 389.944 205.813 389.488 206.08C389.143 206.295 388.736 206.438 388.268 206.51C387.805 206.581 387.314 206.617 386.793 206.617ZM395.836 206.617C394.716 206.604 393.844 206.305 393.219 205.719C392.574 205.146 392.252 204.413 392.252 203.521C392.252 202.669 392.532 201.962 393.092 201.402C393.639 200.842 394.459 200.549 395.553 200.523H398.375V199.459C398.388 198.567 397.695 198.134 396.295 198.16C395.813 198.16 395.413 198.212 395.094 198.316C394.788 198.44 394.547 198.648 394.371 198.941L392.77 197.721C393.544 196.705 394.687 196.21 396.197 196.236C397.473 196.223 398.492 196.464 399.254 196.959C400.003 197.454 400.39 198.326 400.416 199.576V206.5H398.375V205.602H398.336C398.147 205.947 397.854 206.201 397.457 206.363C397.092 206.533 396.552 206.617 395.836 206.617ZM396.09 204.703C396.949 204.729 397.551 204.628 397.896 204.4C398.215 204.186 398.375 203.697 398.375 202.936V202.203H395.934C394.736 202.229 394.15 202.636 394.176 203.424C394.176 203.769 394.329 204.062 394.635 204.303C394.941 204.57 395.426 204.703 396.09 204.703ZM405.074 198.277H401.959V196.363H410.113V198.277H407.115V206.5H405.074V198.277ZM415.67 206.617C415.123 206.617 414.602 206.539 414.107 206.383C413.88 206.311 413.632 206.197 413.365 206.041C413.124 205.937 412.887 205.784 412.652 205.582C412.21 205.178 411.861 204.651 411.607 204C411.314 203.362 411.168 202.516 411.168 201.461C411.168 200.432 411.295 199.599 411.549 198.961C411.816 198.251 412.141 197.717 412.525 197.359C412.916 196.975 413.368 196.689 413.883 196.5C414.365 196.324 414.853 196.236 415.348 196.236C416.507 196.262 417.486 196.643 418.287 197.379C419.088 198.128 419.501 199.176 419.527 200.523V202.203H413.209C413.209 203.017 413.443 203.635 413.912 204.059C414.361 204.488 414.934 204.703 415.631 204.703C416.458 204.703 417.197 204.374 417.848 203.717L419.332 204.977C418.277 206.083 417.057 206.63 415.67 206.617ZM417.486 200.523C417.46 199.749 417.249 199.153 416.852 198.736C416.461 198.352 415.96 198.16 415.348 198.16C414.736 198.16 414.234 198.352 413.844 198.736C413.46 199.153 413.248 199.749 413.209 200.523H417.486ZM421.666 196.363H423.688L426.725 202.398L429.752 196.363H431.744V206.5H429.703V199.996L427.369 204.645H426.09L423.707 199.996V206.5H421.666V196.363ZM55.3184 222.363H57.3594V226.318H61.3828V222.363H63.4238V232.5H61.3828V228.242H57.3594V232.5H55.3184V222.363ZM68.8438 232.617C67.724 232.604 66.8516 232.305 66.2266 231.719C65.582 231.146 65.2598 230.413 65.2598 229.521C65.2598 228.669 65.5397 227.962 66.0996 227.402C66.6465 226.842 67.4668 226.549 68.5605 226.523H71.3828V225.459C71.3958 224.567 70.7025 224.134 69.3027 224.16C68.821 224.16 68.4206 224.212 68.1016 224.316C67.7956 224.44 67.5547 224.648 67.3789 224.941L65.7773 223.721C66.5521 222.705 67.6947 222.21 69.2051 222.236C70.4811 222.223 71.5 222.464 72.2617 222.959C73.0104 223.454 73.3978 224.326 73.4238 225.576V232.5H71.3828V231.602H71.3438C71.1549 231.947 70.862 232.201 70.4648 232.363C70.1003 232.533 69.5599 232.617 68.8438 232.617ZM69.0977 230.703C69.957 230.729 70.5592 230.628 70.9043 230.4C71.2233 230.186 71.3828 229.697 71.3828 228.936V228.203H68.9414C67.7435 228.229 67.1576 228.636 67.1836 229.424C67.1836 229.769 67.3366 230.062 67.6426 230.303C67.9486 230.57 68.4336 230.703 69.0977 230.703ZM74.8594 230.576H76.0215C76.1973 230.14 76.3535 229.684 76.4902 229.209C76.6335 228.734 76.7474 228.184 76.832 227.559C76.9167 226.934 76.9818 226.201 77.0273 225.361C77.0794 224.521 77.1055 223.522 77.1055 222.363H83.9414V230.576H85.3379V235.098H83.4238V232.5H76.7832V235.098H74.8594V230.576ZM81.9004 230.576V224.277H79.0391C79.0391 225.104 79.0163 225.833 78.9707 226.465C78.9251 227.09 78.86 227.653 78.7754 228.154C78.6973 228.649 78.6029 229.095 78.4922 229.492C78.3815 229.883 78.2643 230.244 78.1406 230.576H81.9004ZM90.8066 232.617C90.2598 232.617 89.7389 232.539 89.2441 232.383C89.0163 232.311 88.7689 232.197 88.502 232.041C88.2611 231.937 88.0234 231.784 87.7891 231.582C87.3464 231.178 86.998 230.651 86.7441 230C86.4512 229.362 86.3047 228.516 86.3047 227.461C86.3047 226.432 86.4316 225.599 86.6855 224.961C86.9525 224.251 87.278 223.717 87.6621 223.359C88.0527 222.975 88.5052 222.689 89.0195 222.5C89.5013 222.324 89.9896 222.236 90.4844 222.236C91.6432 222.262 92.623 222.643 93.4238 223.379C94.2246 224.128 94.638 225.176 94.6641 226.523V228.203H88.3457C88.3457 229.017 88.5801 229.635 89.0488 230.059C89.498 230.488 90.071 230.703 90.7676 230.703C91.5944 230.703 92.3333 230.374 92.9844 229.717L94.4688 230.977C93.4141 232.083 92.1934 232.63 90.8066 232.617ZM92.623 226.523C92.597 225.749 92.3854 225.153 91.9883 224.736C91.5977 224.352 91.0964 224.16 90.4844 224.16C89.8724 224.16 89.3711 224.352 88.9805 224.736C88.5964 225.153 88.3848 225.749 88.3457 226.523H92.623ZM91.1973 220.781H93.3652V218.623H91.1973V220.781ZM87.6816 220.781H89.8398V218.623H87.6816V220.781ZM95.7871 230.615H96.2266C96.4089 230.615 96.5586 230.602 96.6758 230.576C96.7995 230.55 96.9004 230.508 96.9785 230.449C97.0632 230.391 97.1348 230.309 97.1934 230.205C97.252 230.094 97.3171 229.951 97.3887 229.775L97.8477 228.535C97.9909 228.164 98.1699 227.871 98.3848 227.656C98.5996 227.435 98.8796 227.269 99.2246 227.158C98.9967 227.08 98.7852 226.956 98.5898 226.787C98.401 226.611 98.2513 226.37 98.1406 226.064L97.8086 225.059C97.737 224.87 97.6719 224.72 97.6133 224.609C97.5547 224.499 97.4798 224.414 97.3887 224.355C97.304 224.29 97.1966 224.248 97.0664 224.229C96.9427 224.209 96.7832 224.199 96.5879 224.199H96.2656V222.363H96.9688C97.6198 222.363 98.1309 222.497 98.502 222.764C98.8796 223.031 99.179 223.47 99.4004 224.082L99.8887 225.439C99.9928 225.719 100.169 225.947 100.416 226.123C100.663 226.292 100.96 226.377 101.305 226.377H101.861V222.363H103.902V226.377H104.449C104.807 226.377 105.11 226.292 105.357 226.123C105.605 225.947 105.781 225.719 105.885 225.439L106.363 224.082C106.591 223.47 106.887 223.031 107.252 222.764C107.623 222.497 108.141 222.363 108.805 222.363H109.488V224.199H109.186C108.984 224.199 108.814 224.209 108.678 224.229C108.548 224.248 108.443 224.29 108.365 224.355C108.287 224.414 108.215 224.499 108.15 224.609C108.092 224.72 108.03 224.87 107.965 225.059L107.604 226.064C107.499 226.37 107.35 226.611 107.154 226.787C106.959 226.956 106.747 227.08 106.52 227.158C106.871 227.269 107.151 227.435 107.359 227.656C107.574 227.871 107.757 228.164 107.906 228.535L108.385 229.775C108.45 229.951 108.512 230.094 108.57 230.205C108.635 230.309 108.707 230.391 108.785 230.449C108.863 230.508 108.958 230.55 109.068 230.576C109.186 230.602 109.339 230.615 109.527 230.615H109.986V232.5H109.244C108.886 232.5 108.57 232.467 108.297 232.402C108.023 232.337 107.786 232.236 107.584 232.1C107.382 231.956 107.203 231.768 107.047 231.533C106.897 231.299 106.757 231.016 106.627 230.684L106.061 229.238C105.969 228.997 105.855 228.815 105.719 228.691C105.589 228.561 105.445 228.464 105.289 228.398C105.139 228.333 104.983 228.294 104.82 228.281C104.664 228.268 104.505 228.262 104.342 228.262H103.902V232.5H101.861V228.262H101.422C101.266 228.262 101.103 228.268 100.934 228.281C100.764 228.294 100.602 228.333 100.445 228.398C100.296 228.464 100.152 228.561 100.016 228.691C99.8854 228.815 99.7747 228.997 99.6836 229.238L99.1465 230.684C99.0098 231.016 98.8633 231.299 98.707 231.533C98.5573 231.768 98.3783 231.956 98.1699 232.1C97.9681 232.236 97.7337 232.337 97.4668 232.402C97.1999 232.467 96.8841 232.5 96.5195 232.5H95.7871V230.615ZM111.607 222.363H113.648V226.318H117.672V222.363H119.713V232.5H117.672V228.242H113.648V232.5H111.607V222.363ZM126.031 232.617C125.283 232.617 124.648 232.471 124.127 232.178C123.613 231.911 123.222 231.624 122.955 231.318C122.564 230.895 122.285 230.41 122.115 229.863C121.939 229.329 121.852 228.516 121.852 227.422C121.852 226.341 121.939 225.521 122.115 224.961C122.298 224.388 122.577 223.913 122.955 223.535C123.235 223.203 123.626 222.904 124.127 222.637C124.635 222.37 125.27 222.236 126.031 222.236C126.819 222.236 127.467 222.37 127.975 222.637C128.463 222.904 128.84 223.203 129.107 223.535C129.498 223.913 129.785 224.388 129.967 224.961C130.13 225.547 130.211 226.367 130.211 227.422C130.211 228.49 130.13 229.303 129.967 229.863C129.785 230.423 129.498 230.908 129.107 231.318C129.042 231.383 128.971 231.458 128.893 231.543C128.814 231.621 128.727 231.693 128.629 231.758C128.447 231.921 128.229 232.061 127.975 232.178C127.454 232.471 126.806 232.617 126.031 232.617ZM126.031 230.576C126.389 230.576 126.715 230.505 127.008 230.361C127.301 230.225 127.522 230.052 127.672 229.844C127.887 229.564 128.02 229.271 128.072 228.965C128.098 228.802 128.121 228.594 128.141 228.34C128.16 228.086 128.17 227.786 128.17 227.441C128.17 227.083 128.16 226.774 128.141 226.514C128.121 226.253 128.098 226.035 128.072 225.859C128.02 225.553 127.887 225.273 127.672 225.02C127.522 224.805 127.301 224.626 127.008 224.482C126.741 224.346 126.415 224.277 126.031 224.277C125.673 224.277 125.354 224.346 125.074 224.482C124.807 224.613 124.579 224.792 124.391 225.02C124.215 225.247 124.088 225.527 124.01 225.859C123.932 226.204 123.893 226.725 123.893 227.422C123.893 228.125 123.932 228.639 124.01 228.965C124.088 229.297 124.215 229.59 124.391 229.844C124.592 230.052 124.82 230.225 125.074 230.361C125.393 230.505 125.712 230.576 126.031 230.576ZM136.959 234.678H137.555C137.822 234.678 138.069 234.606 138.297 234.463C138.512 234.326 138.671 234.105 138.775 233.799L139.332 232.1L135.699 222.363H137.857L140.26 229.463H140.299L142.691 222.363H144.859L140.494 234.6C140.214 235.361 139.827 235.889 139.332 236.182C138.831 236.462 138.264 236.602 137.633 236.602H136.959V234.678ZM146.041 222.363H154.146V232.5H152.105V224.277H148.082V232.5H146.041V222.363ZM159.566 232.617C158.447 232.604 157.574 232.305 156.949 231.719C156.305 231.146 155.982 230.413 155.982 229.521C155.982 228.669 156.262 227.962 156.822 227.402C157.369 226.842 158.189 226.549 159.283 226.523H162.105V225.459C162.118 224.567 161.425 224.134 160.025 224.16C159.544 224.16 159.143 224.212 158.824 224.316C158.518 224.44 158.277 224.648 158.102 224.941L156.5 223.721C157.275 222.705 158.417 222.21 159.928 222.236C161.204 222.223 162.223 222.464 162.984 222.959C163.733 223.454 164.12 224.326 164.146 225.576V232.5H162.105V231.602H162.066C161.878 231.947 161.585 232.201 161.188 232.363C160.823 232.533 160.283 232.617 159.566 232.617ZM159.82 230.703C160.68 230.729 161.282 230.628 161.627 230.4C161.946 230.186 162.105 229.697 162.105 228.936V228.203H159.664C158.466 228.229 157.88 228.636 157.906 229.424C157.906 229.769 158.059 230.062 158.365 230.303C158.671 230.57 159.156 230.703 159.82 230.703ZM166.783 222.363H168.824V226.338H169.781C170.146 226.338 170.449 226.26 170.689 226.104C170.937 225.941 171.116 225.719 171.227 225.439L171.705 224.082C171.92 223.47 172.213 223.031 172.584 222.764C172.955 222.497 173.476 222.363 174.146 222.363H174.82V224.199H174.527C174.326 224.199 174.156 224.209 174.02 224.229C173.889 224.248 173.779 224.29 173.688 224.355C173.603 224.414 173.531 224.499 173.473 224.609C173.414 224.72 173.352 224.87 173.287 225.059L172.945 226.064C172.841 226.37 172.691 226.611 172.496 226.787C172.301 226.956 172.089 227.08 171.861 227.158C172.213 227.269 172.493 227.435 172.701 227.656C172.916 227.871 173.098 228.164 173.248 228.535L173.727 229.775C173.792 229.951 173.854 230.094 173.912 230.205C173.971 230.309 174.039 230.391 174.117 230.449C174.202 230.508 174.299 230.55 174.41 230.576C174.527 230.602 174.68 230.615 174.869 230.615H175.328V232.5H174.586C173.85 232.5 173.287 232.363 172.896 232.09C172.512 231.816 172.197 231.348 171.949 230.684L171.383 229.238C171.292 228.997 171.178 228.815 171.041 228.691C170.911 228.561 170.768 228.464 170.611 228.398C170.462 228.333 170.305 228.294 170.143 228.281C169.986 228.268 169.827 228.262 169.664 228.262H168.824V232.5H166.783V222.363ZM180.621 232.617C179.872 232.617 179.238 232.471 178.717 232.178C178.202 231.911 177.812 231.624 177.545 231.318C177.154 230.895 176.874 230.41 176.705 229.863C176.529 229.329 176.441 228.516 176.441 227.422C176.441 226.341 176.529 225.521 176.705 224.961C176.887 224.388 177.167 223.913 177.545 223.535C177.825 223.203 178.215 222.904 178.717 222.637C179.225 222.37 179.859 222.236 180.621 222.236C181.409 222.236 182.057 222.37 182.564 222.637C183.053 222.904 183.43 223.203 183.697 223.535C184.088 223.913 184.374 224.388 184.557 224.961C184.719 225.547 184.801 226.367 184.801 227.422C184.801 228.49 184.719 229.303 184.557 229.863C184.374 230.423 184.088 230.908 183.697 231.318C183.632 231.383 183.561 231.458 183.482 231.543C183.404 231.621 183.316 231.693 183.219 231.758C183.036 231.921 182.818 232.061 182.564 232.178C182.044 232.471 181.396 232.617 180.621 232.617ZM180.621 230.576C180.979 230.576 181.305 230.505 181.598 230.361C181.891 230.225 182.112 230.052 182.262 229.844C182.477 229.564 182.61 229.271 182.662 228.965C182.688 228.802 182.711 228.594 182.73 228.34C182.75 228.086 182.76 227.786 182.76 227.441C182.76 227.083 182.75 226.774 182.73 226.514C182.711 226.253 182.688 226.035 182.662 225.859C182.61 225.553 182.477 225.273 182.262 225.02C182.112 224.805 181.891 224.626 181.598 224.482C181.331 224.346 181.005 224.277 180.621 224.277C180.263 224.277 179.944 224.346 179.664 224.482C179.397 224.613 179.169 224.792 178.98 225.02C178.805 225.247 178.678 225.527 178.6 225.859C178.521 226.204 178.482 226.725 178.482 227.422C178.482 228.125 178.521 228.639 178.6 228.965C178.678 229.297 178.805 229.59 178.98 229.844C179.182 230.052 179.41 230.225 179.664 230.361C179.983 230.505 180.302 230.576 180.621 230.576ZM186.939 222.363H191.803C192.734 222.363 193.476 222.611 194.029 223.105C194.583 223.594 194.859 224.251 194.859 225.078C194.859 226.094 194.387 226.82 193.443 227.256C193.951 227.484 194.342 227.793 194.615 228.184C194.889 228.568 195.025 229.053 195.025 229.639C195.025 230.518 194.755 231.214 194.215 231.729C193.674 232.243 192.923 232.5 191.959 232.5H186.939V222.363ZM191.559 230.801C192.014 230.801 192.372 230.677 192.633 230.43C192.893 230.182 193.023 229.854 193.023 229.443C193.023 229.014 192.893 228.682 192.633 228.447C192.372 228.213 192.014 228.096 191.559 228.096H188.98V230.801H191.559ZM191.422 226.523C192.379 226.523 192.857 226.104 192.857 225.264C192.857 224.873 192.734 224.577 192.486 224.375C192.245 224.167 191.891 224.062 191.422 224.062H188.98V226.523H191.422ZM197.174 222.363H199.215V226.182H201.891C202.88 226.182 203.674 226.471 204.273 227.051C204.872 227.63 205.172 228.392 205.172 229.336C205.172 230.286 204.872 231.051 204.273 231.631C203.674 232.21 202.88 232.5 201.891 232.5H197.174V222.363ZM201.676 230.703C202.145 230.703 202.509 230.579 202.77 230.332C203.03 230.085 203.16 229.74 203.16 229.297C203.16 228.874 203.03 228.538 202.77 228.291C202.509 228.044 202.145 227.92 201.676 227.92H199.215V230.703H201.676ZM206.578 222.363H208.619V232.5H206.578V222.363ZM211.256 222.363H216.119C217.05 222.363 217.792 222.611 218.346 223.105C218.899 223.594 219.176 224.251 219.176 225.078C219.176 226.094 218.704 226.82 217.76 227.256C218.268 227.484 218.658 227.793 218.932 228.184C219.205 228.568 219.342 229.053 219.342 229.639C219.342 230.518 219.072 231.214 218.531 231.729C217.991 232.243 217.239 232.5 216.275 232.5H211.256V222.363ZM215.875 230.801C216.331 230.801 216.689 230.677 216.949 230.43C217.21 230.182 217.34 229.854 217.34 229.443C217.34 229.014 217.21 228.682 216.949 228.447C216.689 228.213 216.331 228.096 215.875 228.096H213.297V230.801H215.875ZM215.738 226.523C216.695 226.523 217.174 226.104 217.174 225.264C217.174 224.873 217.05 224.577 216.803 224.375C216.562 224.167 216.207 224.062 215.738 224.062H213.297V226.523H215.738ZM224.273 232.617C223.154 232.604 222.281 232.305 221.656 231.719C221.012 231.146 220.689 230.413 220.689 229.521C220.689 228.669 220.969 227.962 221.529 227.402C222.076 226.842 222.896 226.549 223.99 226.523H226.812V225.459C226.826 224.567 226.132 224.134 224.732 224.16C224.251 224.16 223.85 224.212 223.531 224.316C223.225 224.44 222.984 224.648 222.809 224.941L221.207 223.721C221.982 222.705 223.124 222.21 224.635 222.236C225.911 222.223 226.93 222.464 227.691 222.959C228.44 223.454 228.827 224.326 228.854 225.576V232.5H226.812V231.602H226.773C226.585 231.947 226.292 232.201 225.895 232.363C225.53 232.533 224.99 232.617 224.273 232.617ZM224.527 230.703C225.387 230.729 225.989 230.628 226.334 230.4C226.653 230.186 226.812 229.697 226.812 228.936V228.203H224.371C223.173 228.229 222.587 228.636 222.613 229.424C222.613 229.769 222.766 230.062 223.072 230.303C223.378 230.57 223.863 230.703 224.527 230.703ZM235.494 232.617C234.947 232.617 234.426 232.539 233.932 232.383C233.704 232.311 233.456 232.197 233.189 232.041C232.949 231.937 232.711 231.784 232.477 231.582C232.034 231.178 231.686 230.651 231.432 230C231.139 229.362 230.992 228.516 230.992 227.461C230.992 226.432 231.119 225.599 231.373 224.961C231.64 224.251 231.965 223.717 232.35 223.359C232.74 222.975 233.193 222.689 233.707 222.5C234.189 222.324 234.677 222.236 235.172 222.236C236.331 222.262 237.311 222.643 238.111 223.379C238.912 224.128 239.326 225.176 239.352 226.523V228.203H233.033C233.033 229.017 233.268 229.635 233.736 230.059C234.186 230.488 234.758 230.703 235.455 230.703C236.282 230.703 237.021 230.374 237.672 229.717L239.156 230.977C238.102 232.083 236.881 232.63 235.494 232.617ZM237.311 226.523C237.285 225.749 237.073 225.153 236.676 224.736C236.285 224.352 235.784 224.16 235.172 224.16C234.56 224.16 234.059 224.352 233.668 224.736C233.284 225.153 233.072 225.749 233.033 226.523H237.311ZM241.49 222.363H243.512L246.549 228.398L249.576 222.363H251.568V232.5H249.527V225.996L247.193 230.645H245.914L243.531 225.996V232.5H241.49V222.363ZM259.01 222.363H261.031L264.068 228.398L267.096 222.363H269.088V232.5H267.047V225.996L264.713 230.645H263.434L261.051 225.996V232.5H259.01V222.363ZM270.885 230.576H271.344C271.624 230.576 271.845 230.54 272.008 230.469C272.177 230.397 272.311 230.254 272.408 230.039L272.789 229.16C272.854 228.971 272.932 228.809 273.023 228.672C273.121 228.529 273.261 228.398 273.443 228.281C272.805 228.171 272.298 227.858 271.92 227.344C271.549 226.823 271.363 226.182 271.363 225.42C271.363 224.463 271.66 223.714 272.252 223.174C272.851 222.633 273.655 222.363 274.664 222.363H279.303V232.5H277.262V228.604H276.441C275.953 228.604 275.592 228.678 275.357 228.828C275.123 228.971 274.911 229.268 274.723 229.717L274.264 230.84C274.146 231.146 274.013 231.403 273.863 231.611C273.72 231.82 273.554 231.992 273.365 232.129C273.176 232.259 272.952 232.354 272.691 232.412C272.438 232.471 272.135 232.5 271.783 232.5H270.885V230.576ZM277.262 226.924V224.199H274.889C274.381 224.199 274 224.323 273.746 224.57C273.492 224.818 273.365 225.153 273.365 225.576C273.365 226.475 273.873 226.924 274.889 226.924H277.262ZM285.758 232.617C284.547 232.617 283.495 232.21 282.604 231.396C281.653 230.583 281.171 229.264 281.158 227.441C281.184 225.586 281.666 224.251 282.604 223.438C283.508 222.611 284.56 222.21 285.758 222.236C286.546 222.262 287.239 222.425 287.838 222.725C288.456 223.044 288.977 223.47 289.4 224.004L287.896 225.342C287.382 224.645 286.699 224.29 285.846 224.277C284.094 224.251 283.212 225.306 283.199 227.441C283.212 229.557 284.094 230.602 285.846 230.576C286.712 230.55 287.395 230.199 287.896 229.521L289.4 230.859C288.945 231.367 288.424 231.781 287.838 232.1C287.226 232.445 286.533 232.617 285.758 232.617ZM294.508 232.617C293.759 232.617 293.124 232.471 292.604 232.178C292.089 231.911 291.699 231.624 291.432 231.318C291.041 230.895 290.761 230.41 290.592 229.863C290.416 229.329 290.328 228.516 290.328 227.422C290.328 226.341 290.416 225.521 290.592 224.961C290.774 224.388 291.054 223.913 291.432 223.535C291.712 223.203 292.102 222.904 292.604 222.637C293.111 222.37 293.746 222.236 294.508 222.236C295.296 222.236 295.943 222.37 296.451 222.637C296.939 222.904 297.317 223.203 297.584 223.535C297.975 223.913 298.261 224.388 298.443 224.961C298.606 225.547 298.688 226.367 298.688 227.422C298.688 228.49 298.606 229.303 298.443 229.863C298.261 230.423 297.975 230.908 297.584 231.318C297.519 231.383 297.447 231.458 297.369 231.543C297.291 231.621 297.203 231.693 297.105 231.758C296.923 231.921 296.705 232.061 296.451 232.178C295.93 232.471 295.283 232.617 294.508 232.617ZM294.508 230.576C294.866 230.576 295.191 230.505 295.484 230.361C295.777 230.225 295.999 230.052 296.148 229.844C296.363 229.564 296.497 229.271 296.549 228.965C296.575 228.802 296.598 228.594 296.617 228.34C296.637 228.086 296.646 227.786 296.646 227.441C296.646 227.083 296.637 226.774 296.617 226.514C296.598 226.253 296.575 226.035 296.549 225.859C296.497 225.553 296.363 225.273 296.148 225.02C295.999 224.805 295.777 224.626 295.484 224.482C295.217 224.346 294.892 224.277 294.508 224.277C294.15 224.277 293.831 224.346 293.551 224.482C293.284 224.613 293.056 224.792 292.867 225.02C292.691 225.247 292.564 225.527 292.486 225.859C292.408 226.204 292.369 226.725 292.369 227.422C292.369 228.125 292.408 228.639 292.486 228.965C292.564 229.297 292.691 229.59 292.867 229.844C293.069 230.052 293.297 230.225 293.551 230.361C293.87 230.505 294.189 230.576 294.508 230.576ZM305.631 222.363H307.672V229.238L312.076 222.363H314.117V232.5H312.076V225.518L307.672 232.5H305.631V222.363ZM325.611 232.617C324.583 232.617 323.746 232.38 323.102 231.904C322.457 231.423 322.001 230.781 321.734 229.98C321.65 229.753 321.588 229.492 321.549 229.199C321.51 228.906 321.477 228.6 321.451 228.281C321.425 227.962 321.409 227.643 321.402 227.324C321.396 226.999 321.393 226.696 321.393 226.416V225.645C321.393 225.098 321.402 224.567 321.422 224.053C321.441 223.538 321.5 223.05 321.598 222.588C321.702 222.119 321.852 221.686 322.047 221.289C322.249 220.885 322.522 220.521 322.867 220.195C323.147 219.948 323.443 219.746 323.756 219.59C324.075 219.434 324.404 219.313 324.742 219.229C325.081 219.144 325.423 219.079 325.768 219.033C326.113 218.988 326.454 218.942 326.793 218.896C327.001 218.87 327.171 218.809 327.301 218.711C327.438 218.613 327.522 218.464 327.555 218.262H329.635C329.524 219.74 328.837 220.579 327.574 220.781C327.249 220.833 326.926 220.876 326.607 220.908C326.288 220.941 325.973 220.99 325.66 221.055C325.348 221.113 325.051 221.201 324.771 221.318C324.492 221.429 324.231 221.589 323.99 221.797C323.684 222.077 323.46 222.412 323.316 222.803C323.18 223.187 323.105 223.545 323.092 223.877H323.15C323.378 223.48 323.746 223.141 324.254 222.861C324.768 222.581 325.367 222.441 326.051 222.441C327.385 222.441 328.349 222.878 328.941 223.75C329.534 224.622 329.83 225.866 329.83 227.48C329.83 228.359 329.749 229.111 329.586 229.736C329.43 230.355 329.163 230.889 328.785 231.338C328.44 231.755 328.001 232.074 327.467 232.295C326.933 232.51 326.314 232.617 325.611 232.617ZM325.592 230.596C325.937 230.596 326.249 230.534 326.529 230.41C326.809 230.286 327.044 230.111 327.232 229.883C327.46 229.616 327.61 229.294 327.682 228.916C327.753 228.532 327.789 228.066 327.789 227.52C327.789 226.96 327.753 226.481 327.682 226.084C327.61 225.68 327.46 225.345 327.232 225.078C327.044 224.863 326.809 224.697 326.529 224.58C326.249 224.463 325.937 224.404 325.592 224.404C325.247 224.404 324.934 224.466 324.654 224.59C324.374 224.714 324.146 224.889 323.971 225.117C323.743 225.384 323.596 225.719 323.531 226.123C323.466 226.52 323.434 226.999 323.434 227.559C323.434 228.197 323.486 228.704 323.59 229.082C323.694 229.453 323.86 229.759 324.088 230C324.277 230.189 324.501 230.335 324.762 230.439C325.022 230.544 325.299 230.596 325.592 230.596ZM331.979 222.363H334.02V226.182H336.695C337.685 226.182 338.479 226.471 339.078 227.051C339.677 227.63 339.977 228.392 339.977 229.336C339.977 230.286 339.677 231.051 339.078 231.631C338.479 232.21 337.685 232.5 336.695 232.5H331.979V222.363ZM336.48 230.703C336.949 230.703 337.314 230.579 337.574 230.332C337.835 230.085 337.965 229.74 337.965 229.297C337.965 228.874 337.835 228.538 337.574 228.291C337.314 228.044 336.949 227.92 336.48 227.92H334.02V230.703H336.48ZM341.383 222.363H343.424V232.5H341.383V222.363ZM349.879 232.617C348.668 232.617 347.617 232.21 346.725 231.396C345.774 230.583 345.292 229.264 345.279 227.441C345.305 225.586 345.787 224.251 346.725 223.438C347.63 222.611 348.681 222.21 349.879 222.236C350.667 222.262 351.36 222.425 351.959 222.725C352.577 223.044 353.098 223.47 353.521 224.004L352.018 225.342C351.503 224.645 350.82 224.29 349.967 224.277C348.215 224.251 347.333 225.306 347.32 227.441C347.333 229.557 348.215 230.602 349.967 230.576C350.833 230.55 351.516 230.199 352.018 229.521L353.521 230.859C353.066 231.367 352.545 231.781 351.959 232.1C351.347 232.445 350.654 232.617 349.879 232.617ZM356.969 224.277H353.854V222.363H362.008V224.277H359.01V232.5H356.969V224.277ZM363.561 222.363H365.602V223.418C366.285 222.656 367.158 222.262 368.219 222.236C369.449 222.249 370.357 222.692 370.943 223.564C371.236 223.896 371.428 224.316 371.52 224.824C371.572 225.091 371.607 225.443 371.627 225.879C371.653 226.309 371.666 226.829 371.666 227.441C371.666 228.04 371.653 228.555 371.627 228.984C371.607 229.408 371.572 229.753 371.52 230.02C371.428 230.527 371.236 230.954 370.943 231.299C370.65 231.702 370.283 232.015 369.84 232.236C369.404 232.464 368.863 232.591 368.219 232.617C367.717 232.617 367.252 232.503 366.822 232.275C366.38 232.054 365.973 231.768 365.602 231.416V236.602H363.561V222.363ZM367.604 230.576C368.072 230.576 368.453 230.485 368.746 230.303C369.026 230.127 369.225 229.886 369.342 229.58C369.479 229.3 369.566 228.962 369.605 228.564C369.618 228.376 369.625 228.19 369.625 228.008C369.625 227.819 369.625 227.63 369.625 227.441C369.625 227.24 369.625 227.041 369.625 226.846C369.625 226.644 369.618 226.449 369.605 226.26C369.566 225.863 369.479 225.524 369.342 225.244C369.225 224.951 369.026 224.71 368.746 224.521C368.466 224.359 368.085 224.277 367.604 224.277C367.148 224.277 366.786 224.372 366.52 224.561C366.253 224.736 366.048 224.984 365.904 225.303C365.781 225.596 365.699 225.928 365.66 226.299C365.621 226.689 365.602 227.07 365.602 227.441C365.602 227.799 365.621 228.158 365.66 228.516C365.699 228.906 365.781 229.248 365.904 229.541C366.048 229.86 366.253 230.107 366.52 230.283C366.773 230.479 367.135 230.576 367.604 230.576ZM377.633 232.617C376.884 232.617 376.249 232.471 375.729 232.178C375.214 231.911 374.824 231.624 374.557 231.318C374.166 230.895 373.886 230.41 373.717 229.863C373.541 229.329 373.453 228.516 373.453 227.422C373.453 226.341 373.541 225.521 373.717 224.961C373.899 224.388 374.179 223.913 374.557 223.535C374.837 223.203 375.227 222.904 375.729 222.637C376.236 222.37 376.871 222.236 377.633 222.236C378.421 222.236 379.068 222.37 379.576 222.637C380.064 222.904 380.442 223.203 380.709 223.535C381.1 223.913 381.386 224.388 381.568 224.961C381.731 225.547 381.812 226.367 381.812 227.422C381.812 228.49 381.731 229.303 381.568 229.863C381.386 230.423 381.1 230.908 380.709 231.318C380.644 231.383 380.572 231.458 380.494 231.543C380.416 231.621 380.328 231.693 380.23 231.758C380.048 231.921 379.83 232.061 379.576 232.178C379.055 232.471 378.408 232.617 377.633 232.617ZM377.633 230.576C377.991 230.576 378.316 230.505 378.609 230.361C378.902 230.225 379.124 230.052 379.273 229.844C379.488 229.564 379.622 229.271 379.674 228.965C379.7 228.802 379.723 228.594 379.742 228.34C379.762 228.086 379.771 227.786 379.771 227.441C379.771 227.083 379.762 226.774 379.742 226.514C379.723 226.253 379.7 226.035 379.674 225.859C379.622 225.553 379.488 225.273 379.273 225.02C379.124 224.805 378.902 224.626 378.609 224.482C378.342 224.346 378.017 224.277 377.633 224.277C377.275 224.277 376.956 224.346 376.676 224.482C376.409 224.613 376.181 224.792 375.992 225.02C375.816 225.247 375.689 225.527 375.611 225.859C375.533 226.204 375.494 226.725 375.494 227.422C375.494 228.125 375.533 228.639 375.611 228.965C375.689 229.297 375.816 229.59 375.992 229.844C376.194 230.052 376.422 230.225 376.676 230.361C376.995 230.505 377.314 230.576 377.633 230.576ZM54.1172 256.576H55.2793C55.4551 256.14 55.6113 255.684 55.748 255.209C55.8913 254.734 56.0052 254.184 56.0898 253.559C56.1745 252.934 56.2396 252.201 56.2852 251.361C56.3372 250.521 56.3633 249.522 56.3633 248.363H63.1992V256.576H64.5957V261.098H62.6816V258.5H56.041V261.098H54.1172V256.576ZM61.1582 256.576V250.277H58.2969C58.2969 251.104 58.2741 251.833 58.2285 252.465C58.1829 253.09 58.1178 253.653 58.0332 254.154C57.9551 254.649 57.8607 255.095 57.75 255.492C57.6393 255.883 57.5221 256.244 57.3984 256.576H61.1582ZM69.7422 258.617C68.9935 258.617 68.3587 258.471 67.8379 258.178C67.3236 257.911 66.9329 257.624 66.666 257.318C66.2754 256.895 65.9954 256.41 65.8262 255.863C65.6504 255.329 65.5625 254.516 65.5625 253.422C65.5625 252.341 65.6504 251.521 65.8262 250.961C66.0085 250.388 66.2884 249.913 66.666 249.535C66.946 249.203 67.3366 248.904 67.8379 248.637C68.3457 248.37 68.9805 248.236 69.7422 248.236C70.5299 248.236 71.1777 248.37 71.6855 248.637C72.1738 248.904 72.5514 249.203 72.8184 249.535C73.209 249.913 73.4954 250.388 73.6777 250.961C73.8405 251.547 73.9219 252.367 73.9219 253.422C73.9219 254.49 73.8405 255.303 73.6777 255.863C73.4954 256.423 73.209 256.908 72.8184 257.318C72.7533 257.383 72.6816 257.458 72.6035 257.543C72.5254 257.621 72.4375 257.693 72.3398 257.758C72.1576 257.921 71.9395 258.061 71.6855 258.178C71.1647 258.471 70.5169 258.617 69.7422 258.617ZM69.7422 256.576C70.1003 256.576 70.4258 256.505 70.7188 256.361C71.0117 256.225 71.2331 256.052 71.3828 255.844C71.5977 255.564 71.7311 255.271 71.7832 254.965C71.8092 254.802 71.832 254.594 71.8516 254.34C71.8711 254.086 71.8809 253.786 71.8809 253.441C71.8809 253.083 71.8711 252.774 71.8516 252.514C71.832 252.253 71.8092 252.035 71.7832 251.859C71.7311 251.553 71.5977 251.273 71.3828 251.02C71.2331 250.805 71.0117 250.626 70.7188 250.482C70.4518 250.346 70.1263 250.277 69.7422 250.277C69.3841 250.277 69.0651 250.346 68.7852 250.482C68.5182 250.613 68.2904 250.792 68.1016 251.02C67.9258 251.247 67.7988 251.527 67.7207 251.859C67.6426 252.204 67.6035 252.725 67.6035 253.422C67.6035 254.125 67.6426 254.639 67.7207 254.965C67.7988 255.297 67.9258 255.59 68.1016 255.844C68.3034 256.052 68.5312 256.225 68.7852 256.361C69.1042 256.505 69.4232 256.576 69.7422 256.576ZM79.8789 258.617C78.668 258.617 77.6165 258.21 76.7246 257.396C75.7741 256.583 75.2923 255.264 75.2793 253.441C75.3053 251.586 75.7871 250.251 76.7246 249.438C77.6296 248.611 78.681 248.21 79.8789 248.236C80.6667 248.262 81.36 248.425 81.959 248.725C82.5775 249.044 83.0983 249.47 83.5215 250.004L82.0176 251.342C81.5033 250.645 80.8197 250.29 79.9668 250.277C78.2155 250.251 77.3333 251.306 77.3203 253.441C77.3333 255.557 78.2155 256.602 79.9668 256.576C80.8327 256.55 81.5163 256.199 82.0176 255.521L83.5215 256.859C83.0658 257.367 82.5449 257.781 81.959 258.1C81.347 258.445 80.6536 258.617 79.8789 258.617ZM86.9688 250.277H83.8535V248.363H92.0078V250.277H89.0098V258.5H86.9688V250.277ZM96.3438 258.617C95.224 258.604 94.3516 258.305 93.7266 257.719C93.082 257.146 92.7598 256.413 92.7598 255.521C92.7598 254.669 93.0397 253.962 93.5996 253.402C94.1465 252.842 94.9668 252.549 96.0605 252.523H98.8828V251.459C98.8958 250.567 98.2025 250.134 96.8027 250.16C96.321 250.16 95.9206 250.212 95.6016 250.316C95.2956 250.44 95.0547 250.648 94.8789 250.941L93.2773 249.721C94.0521 248.705 95.1947 248.21 96.7051 248.236C97.9811 248.223 99 248.464 99.7617 248.959C100.51 249.454 100.898 250.326 100.924 251.576V258.5H98.8828V257.602H98.8438C98.6549 257.947 98.362 258.201 97.9648 258.363C97.6003 258.533 97.0599 258.617 96.3438 258.617ZM96.5977 256.703C97.457 256.729 98.0592 256.628 98.4043 256.4C98.7233 256.186 98.8828 255.697 98.8828 254.936V254.203H96.4414C95.2435 254.229 94.6576 254.636 94.6836 255.424C94.6836 255.769 94.8366 256.062 95.1426 256.303C95.4486 256.57 95.9336 256.703 96.5977 256.703ZM103.561 248.363H108.424C109.355 248.363 110.097 248.611 110.65 249.105C111.204 249.594 111.48 250.251 111.48 251.078C111.48 252.094 111.008 252.82 110.064 253.256C110.572 253.484 110.963 253.793 111.236 254.184C111.51 254.568 111.646 255.053 111.646 255.639C111.646 256.518 111.376 257.214 110.836 257.729C110.296 258.243 109.544 258.5 108.58 258.5H103.561V248.363ZM108.18 256.801C108.635 256.801 108.993 256.677 109.254 256.43C109.514 256.182 109.645 255.854 109.645 255.443C109.645 255.014 109.514 254.682 109.254 254.447C108.993 254.213 108.635 254.096 108.18 254.096H105.602V256.801H108.18ZM108.043 252.523C109 252.523 109.479 252.104 109.479 251.264C109.479 250.873 109.355 250.577 109.107 250.375C108.867 250.167 108.512 250.062 108.043 250.062H105.602V252.523H108.043ZM112.594 256.576H112.916C113.131 256.576 113.329 256.56 113.512 256.527C113.701 256.495 113.87 256.397 114.02 256.234C114.176 256.065 114.309 255.811 114.42 255.473C114.537 255.134 114.635 254.662 114.713 254.057C114.798 253.445 114.859 252.676 114.898 251.752C114.938 250.821 114.957 249.691 114.957 248.363H121.812V258.5H119.781V250.277H116.9C116.9 251.508 116.865 252.566 116.793 253.451C116.728 254.337 116.63 255.082 116.5 255.688C116.376 256.293 116.214 256.785 116.012 257.162C115.816 257.533 115.589 257.816 115.328 258.012C115.068 258.207 114.775 258.337 114.449 258.402C114.124 258.467 113.766 258.5 113.375 258.5H112.594V256.576ZM123.619 256.576H124.078C124.358 256.576 124.579 256.54 124.742 256.469C124.911 256.397 125.045 256.254 125.143 256.039L125.523 255.16C125.589 254.971 125.667 254.809 125.758 254.672C125.855 254.529 125.995 254.398 126.178 254.281C125.54 254.171 125.032 253.858 124.654 253.344C124.283 252.823 124.098 252.182 124.098 251.42C124.098 250.463 124.394 249.714 124.986 249.174C125.585 248.633 126.389 248.363 127.398 248.363H132.037V258.5H129.996V254.604H129.176C128.688 254.604 128.326 254.678 128.092 254.828C127.857 254.971 127.646 255.268 127.457 255.717L126.998 256.84C126.881 257.146 126.747 257.403 126.598 257.611C126.454 257.82 126.288 257.992 126.1 258.129C125.911 258.259 125.686 258.354 125.426 258.412C125.172 258.471 124.869 258.5 124.518 258.5H123.619V256.576ZM129.996 252.924V250.199H127.623C127.115 250.199 126.734 250.323 126.48 250.57C126.227 250.818 126.1 251.153 126.1 251.576C126.1 252.475 126.607 252.924 127.623 252.924H129.996ZM138.678 258.617C138.131 258.617 137.61 258.539 137.115 258.383C136.887 258.311 136.64 258.197 136.373 258.041C136.132 257.937 135.895 257.784 135.66 257.582C135.217 257.178 134.869 256.651 134.615 256C134.322 255.362 134.176 254.516 134.176 253.461C134.176 252.432 134.303 251.599 134.557 250.961C134.824 250.251 135.149 249.717 135.533 249.359C135.924 248.975 136.376 248.689 136.891 248.5C137.372 248.324 137.861 248.236 138.355 248.236C139.514 248.262 140.494 248.643 141.295 249.379C142.096 250.128 142.509 251.176 142.535 252.523V254.203H136.217C136.217 255.017 136.451 255.635 136.92 256.059C137.369 256.488 137.942 256.703 138.639 256.703C139.465 256.703 140.204 256.374 140.855 255.717L142.34 256.977C141.285 258.083 140.064 258.63 138.678 258.617ZM140.494 252.523C140.468 251.749 140.257 251.153 139.859 250.736C139.469 250.352 138.967 250.16 138.355 250.16C137.743 250.16 137.242 250.352 136.852 250.736C136.467 251.153 136.256 251.749 136.217 252.523H140.494ZM144.674 248.363H146.695L149.732 254.398L152.76 248.363H154.752V258.5H152.711V251.996L150.377 256.645H149.098L146.715 251.996V258.5H144.674V248.363ZM162.193 248.363H167.057C167.988 248.363 168.73 248.611 169.283 249.105C169.837 249.594 170.113 250.251 170.113 251.078C170.113 252.094 169.641 252.82 168.697 253.256C169.205 253.484 169.596 253.793 169.869 254.184C170.143 254.568 170.279 255.053 170.279 255.639C170.279 256.518 170.009 257.214 169.469 257.729C168.928 258.243 168.176 258.5 167.213 258.5H162.193V248.363ZM166.812 256.801C167.268 256.801 167.626 256.677 167.887 256.43C168.147 256.182 168.277 255.854 168.277 255.443C168.277 255.014 168.147 254.682 167.887 254.447C167.626 254.213 167.268 254.096 166.812 254.096H164.234V256.801H166.812ZM166.676 252.523C167.633 252.523 168.111 252.104 168.111 251.264C168.111 250.873 167.988 250.577 167.74 250.375C167.499 250.167 167.145 250.062 166.676 250.062H164.234V252.523H166.676ZM177.232 248.363H179.254L182.291 254.398L185.318 248.363H187.311V258.5H185.27V251.996L182.936 256.645H181.656L179.273 251.996V258.5H177.232V248.363ZM192.73 258.617C191.611 258.604 190.738 258.305 190.113 257.719C189.469 257.146 189.146 256.413 189.146 255.521C189.146 254.669 189.426 253.962 189.986 253.402C190.533 252.842 191.354 252.549 192.447 252.523H195.27V251.459C195.283 250.567 194.589 250.134 193.189 250.16C192.708 250.16 192.307 250.212 191.988 250.316C191.682 250.44 191.441 250.648 191.266 250.941L189.664 249.721C190.439 248.705 191.581 248.21 193.092 248.236C194.368 248.223 195.387 248.464 196.148 248.959C196.897 249.454 197.285 250.326 197.311 251.576V258.5H195.27V257.602H195.23C195.042 257.947 194.749 258.201 194.352 258.363C193.987 258.533 193.447 258.617 192.73 258.617ZM192.984 256.703C193.844 256.729 194.446 256.628 194.791 256.4C195.11 256.186 195.27 255.697 195.27 254.936V254.203H192.828C191.63 254.229 191.044 254.636 191.07 255.424C191.07 255.769 191.223 256.062 191.529 256.303C191.835 256.57 192.32 256.703 192.984 256.703ZM199.947 248.363H206.529V250.277H201.988V258.5H199.947V248.363ZM210.855 258.617C209.736 258.604 208.863 258.305 208.238 257.719C207.594 257.146 207.271 256.413 207.271 255.521C207.271 254.669 207.551 253.962 208.111 253.402C208.658 252.842 209.479 252.549 210.572 252.523H213.395V251.459C213.408 250.567 212.714 250.134 211.314 250.16C210.833 250.16 210.432 250.212 210.113 250.316C209.807 250.44 209.566 250.648 209.391 250.941L207.789 249.721C208.564 248.705 209.706 248.21 211.217 248.236C212.493 248.223 213.512 248.464 214.273 248.959C215.022 249.454 215.41 250.326 215.436 251.576V258.5H213.395V257.602H213.355C213.167 257.947 212.874 258.201 212.477 258.363C212.112 258.533 211.572 258.617 210.855 258.617ZM211.109 256.703C211.969 256.729 212.571 256.628 212.916 256.4C213.235 256.186 213.395 255.697 213.395 254.936V254.203H210.953C209.755 254.229 209.169 254.636 209.195 255.424C209.195 255.769 209.348 256.062 209.654 256.303C209.96 256.57 210.445 256.703 211.109 256.703ZM220.797 258.617C219.957 258.617 219.234 258.484 218.629 258.217C218.03 257.95 217.47 257.536 216.949 256.977L218.434 255.717C218.766 256.055 219.101 256.306 219.439 256.469C219.785 256.625 220.237 256.703 220.797 256.703C221.422 256.703 221.923 256.589 222.301 256.361C222.685 256.133 222.877 255.798 222.877 255.355C222.877 254.919 222.734 254.613 222.447 254.438C222.161 254.255 221.715 254.164 221.109 254.164H219.635V252.484H221.139C221.627 252.484 222.018 252.377 222.311 252.162C222.604 251.947 222.75 251.648 222.75 251.264C222.75 250.873 222.581 250.59 222.242 250.414C221.904 250.232 221.422 250.141 220.797 250.141C220.38 250.141 219.97 250.212 219.566 250.355C219.169 250.492 218.811 250.714 218.492 251.02L217.037 249.76C217.278 249.519 217.522 249.307 217.77 249.125C218.023 248.936 218.303 248.777 218.609 248.646C218.922 248.51 219.27 248.409 219.654 248.344C220.038 248.272 220.484 248.236 220.992 248.236C221.539 248.236 222.053 248.282 222.535 248.373C223.017 248.458 223.43 248.627 223.775 248.881C224.094 249.109 224.335 249.408 224.498 249.779C224.667 250.15 224.752 250.551 224.752 250.98C224.752 251.475 224.622 251.924 224.361 252.328C224.101 252.725 223.74 253.015 223.277 253.197C223.766 253.386 224.16 253.689 224.459 254.105C224.765 254.516 224.918 255.001 224.918 255.561C224.918 256.081 224.794 256.566 224.547 257.016C224.299 257.458 223.948 257.813 223.492 258.08C223.147 258.295 222.74 258.438 222.271 258.51C221.809 258.581 221.318 258.617 220.797 258.617ZM227.057 248.363H229.098V255.238L233.502 248.363H235.543V258.5H233.502V251.518L229.098 258.5H227.057V248.363ZM238.189 248.363H240.23V252.318H244.254V248.363H246.295V258.5H244.254V254.242H240.23V258.5H238.189V248.363ZM248.932 248.363H250.973V252.182H253.648C254.638 252.182 255.432 252.471 256.031 253.051C256.63 253.63 256.93 254.392 256.93 255.336C256.93 256.286 256.63 257.051 256.031 257.631C255.432 258.21 254.638 258.5 253.648 258.5H248.932V248.363ZM253.434 256.703C253.902 256.703 254.267 256.579 254.527 256.332C254.788 256.085 254.918 255.74 254.918 255.297C254.918 254.874 254.788 254.538 254.527 254.291C254.267 254.044 253.902 253.92 253.434 253.92H250.973V256.703H253.434ZM258.336 248.363H260.377V258.5H258.336V248.363ZM263.072 258.5V256.459H265.113V258.5H263.072Z" fill="white"/>
<path d="M481.862 80.9944L492.297 57.3297C493.04 55.6449 495.472 55.7743 496.032 57.5283L503.476 80.8411C503.722 81.61 504.405 82.156 505.21 82.2253L531.646 84.5047C533.679 84.6799 534.175 87.4291 532.332 88.3041L507.29 100.191C506.374 100.626 505.928 101.679 506.254 102.64L515.194 129.023C515.835 130.916 513.61 132.476 512.05 131.227L491.1 114.457C490.404 113.9 489.423 113.871 488.695 114.386L465.032 131.131C463.356 132.317 461.195 130.509 462.066 128.65L473.834 103.521C474.276 102.578 473.92 101.453 473.015 100.936L449.828 87.6847C448.102 86.6983 448.716 84.071 450.7 83.9518L480.152 82.1839C480.9 82.139 481.56 81.6799 481.862 80.9944Z" fill="#8784D6"/>
</svg>
