<svg width="580" height="349" viewBox="0 0 580 349" fill="none" xmlns="http://www.w3.org/2000/svg">
<path d="M580 42.706C580 31.9753 571.532 23.1569 560.81 22.7225L20.8097 0.843151C9.45569 0.383118 0 9.46343 0 20.8268V327.016C0 338.625 9.84998 347.795 21.4286 346.965L561.429 308.293C571.893 307.544 580 298.836 580 288.344V42.706Z" fill="#462B74"/>
<path d="M106.088 77.648C105.416 77.648 104.864 77.744 104.432 77.936C104 78.08 103.592 78.368 103.208 78.8C102.824 79.232 102.56 79.76 102.416 80.384C102.272 81.008 102.152 81.704 102.056 82.472L101.408 88.448C101.36 89.072 101.288 89.648 101.192 90.176C101.096 90.656 101 91.16 100.904 91.688C100.808 92.168 100.664 92.6 100.472 92.984C100.184 93.656 99.824 94.256 99.392 94.784C99.008 95.264 98.624 95.648 98.24 95.936L105.872 122H98.384L91.904 99.176H87.8V122H80.456V70.736H87.8V92.696H90.248C91.112 92.696 91.808 92.576 92.336 92.336C92.864 92.096 93.296 91.76 93.632 91.328C93.968 90.896 94.208 90.416 94.352 89.888C94.496 89.312 94.616 88.688 94.712 88.016L95.432 81.896C95.48 81.704 95.528 81.32 95.576 80.744C95.672 80.12 95.816 79.424 96.008 78.656C96.2 77.888 96.464 77.096 96.8 76.28C97.136 75.464 97.568 74.696 98.096 73.976C99.008 72.824 100.112 72.008 101.408 71.528C102.752 71 104.312 70.736 106.088 70.736V77.648ZM124.381 104.072L120.781 85.496H120.637L117.037 104.072H124.381ZM106.237 122L117.685 70.736H123.805L135.253 122H127.909L125.749 110.984H115.741L113.581 122H106.237ZM158.433 122H151.089V99.248C150.705 99.296 150.225 99.368 149.649 99.464C149.073 99.512 148.305 99.536 147.345 99.536C145.665 99.536 144.033 99.296 142.449 98.816C140.865 98.336 139.545 97.592 138.489 96.584C137.433 95.576 136.641 94.28 136.113 92.696C135.633 91.112 135.393 89.432 135.393 87.656V70.736H142.737V86.792C142.737 87.608 142.833 88.424 143.025 89.24C143.217 90.056 143.577 90.728 144.105 91.256C145.017 92.168 146.385 92.624 148.209 92.624C148.593 92.624 148.977 92.624 149.361 92.624C149.745 92.576 150.057 92.528 150.297 92.48C150.585 92.432 150.849 92.384 151.089 92.336V70.736H158.433V122ZM164.64 122V70.736H186.528V77.648H171.984V92.696H184.656V99.608H171.984V114.656H186.528V122H164.64ZM213.896 107.384V110.552C213.896 112.136 213.584 113.648 212.96 115.088C212.384 116.48 211.568 117.728 210.512 118.832C209.456 119.936 208.208 120.824 206.768 121.496C205.376 122.12 203.864 122.432 202.232 122.432C200.84 122.432 199.424 122.24 197.984 121.856C196.544 121.472 195.248 120.8 194.096 119.84C192.944 118.88 191.984 117.656 191.216 116.168C190.496 114.632 190.136 112.688 190.136 110.336V82.112C190.136 80.432 190.424 78.872 191 77.432C191.576 75.992 192.392 74.744 193.448 73.688C194.504 72.632 195.752 71.816 197.192 71.24C198.68 70.616 200.312 70.304 202.088 70.304C205.544 70.304 208.352 71.432 210.512 73.688C211.568 74.792 212.384 76.112 212.96 77.648C213.584 79.136 213.896 80.768 213.896 82.544V85.424H206.552V82.976C206.552 81.536 206.144 80.288 205.328 79.232C204.512 78.176 203.408 77.648 202.016 77.648C200.192 77.648 198.968 78.224 198.344 79.376C197.768 80.48 197.48 81.896 197.48 83.624V109.832C197.48 111.32 197.792 112.568 198.416 113.576C199.088 114.584 200.264 115.088 201.944 115.088C202.424 115.088 202.928 115.016 203.456 114.872C204.032 114.68 204.56 114.392 205.04 114.008C205.472 113.624 205.832 113.096 206.12 112.424C206.408 111.752 206.552 110.912 206.552 109.904V107.384H213.896ZM223.289 122V77.648H214.793V70.736H239.129V77.648H230.633V122H223.289ZM241.652 122V70.736H252.38C254.732 70.736 256.724 71.096 258.356 71.816C260.036 72.536 261.404 73.496 262.46 74.696C263.516 75.896 264.26 77.288 264.692 78.872C265.172 80.408 265.412 82.016 265.412 83.696V85.568C265.412 86.96 265.292 88.136 265.052 89.096C264.86 90.056 264.548 90.896 264.116 91.616C263.3 92.96 262.052 94.112 260.372 95.072C262.1 95.888 263.372 97.088 264.188 98.672C265.004 100.256 265.412 102.416 265.412 105.152V108.032C265.412 112.544 264.308 116 262.1 118.4C259.94 120.8 256.46 122 251.66 122H241.652ZM248.996 98.24V114.656H252.164C253.652 114.656 254.804 114.44 255.62 114.008C256.484 113.576 257.132 112.976 257.564 112.208C257.996 111.44 258.26 110.528 258.356 109.472C258.452 108.416 258.5 107.264 258.5 106.016C258.5 104.72 258.428 103.592 258.284 102.632C258.14 101.672 257.852 100.856 257.42 100.184C256.94 99.512 256.292 99.032 255.476 98.744C254.66 98.408 253.58 98.24 252.236 98.24H248.996ZM248.996 77.648V91.76H252.308C254.756 91.76 256.388 91.16 257.204 89.96C258.068 88.712 258.5 86.912 258.5 84.56C258.5 82.256 258.02 80.528 257.06 79.376C256.148 78.224 254.468 77.648 252.02 77.648H248.996ZM271.156 82.832C271.156 80.768 271.516 78.944 272.236 77.36C272.956 75.776 273.916 74.456 275.116 73.4C276.268 72.392 277.564 71.624 279.004 71.096C280.492 70.568 281.98 70.304 283.468 70.304C284.956 70.304 286.42 70.568 287.86 71.096C289.348 71.624 290.692 72.392 291.892 73.4C293.044 74.456 293.98 75.776 294.7 77.36C295.42 78.944 295.78 80.768 295.78 82.832V109.904C295.78 112.064 295.42 113.912 294.7 115.448C293.98 116.984 293.044 118.256 291.892 119.264C290.692 120.32 289.348 121.112 287.86 121.64C286.42 122.168 284.956 122.432 283.468 122.432C281.98 122.432 280.492 122.168 279.004 121.64C277.564 121.112 276.268 120.32 275.116 119.264C273.916 118.256 272.956 116.984 272.236 115.448C271.516 113.912 271.156 112.064 271.156 109.904V82.832ZM278.5 109.904C278.5 111.68 278.98 113 279.94 113.864C280.948 114.68 282.124 115.088 283.468 115.088C284.812 115.088 285.964 114.68 286.924 113.864C287.932 113 288.436 111.68 288.436 109.904V82.832C288.436 81.056 287.932 79.76 286.924 78.944C285.964 78.08 284.812 77.648 283.468 77.648C282.124 77.648 280.948 78.08 279.94 78.944C278.98 79.76 278.5 81.056 278.5 82.832V109.904Z" fill="white"/>
<path d="M83.5039 168.762H85.5352L89.6172 178.039L93.6211 168.762H95.6621V183H93.5039V174.123H93.4648L90.4766 180.959H88.6797L85.7012 174.123H85.6621V183H83.5039V168.762ZM98.4941 172.863H100.535V176.682H103.211C104.201 176.682 104.995 176.971 105.594 177.551C106.193 178.13 106.492 178.892 106.492 179.836C106.492 180.786 106.193 181.551 105.594 182.131C104.995 182.71 104.201 183 103.211 183H98.4941V172.863ZM102.996 181.203C103.465 181.203 103.829 181.079 104.09 180.832C104.35 180.585 104.48 180.24 104.48 179.797C104.48 179.374 104.35 179.038 104.09 178.791C103.829 178.544 103.465 178.42 102.996 178.42H100.535V181.203H102.996ZM107.898 172.863H109.939V183H107.898V172.863ZM121.199 183.117C119.988 183.117 118.937 182.71 118.045 181.896C117.094 181.083 116.613 179.764 116.6 177.941C116.626 176.086 117.107 174.751 118.045 173.938C118.95 173.111 120.001 172.71 121.199 172.736C121.987 172.762 122.68 172.925 123.279 173.225C123.898 173.544 124.419 173.97 124.842 174.504L123.338 175.842C122.824 175.145 122.14 174.79 121.287 174.777C119.536 174.751 118.654 175.806 118.641 177.941C118.654 180.057 119.536 181.102 121.287 181.076C122.153 181.05 122.837 180.699 123.338 180.021L124.842 181.359C124.386 181.867 123.865 182.281 123.279 182.6C122.667 182.945 121.974 183.117 121.199 183.117ZM129.051 183.117C127.931 183.104 127.059 182.805 126.434 182.219C125.789 181.646 125.467 180.913 125.467 180.021C125.467 179.169 125.747 178.462 126.307 177.902C126.854 177.342 127.674 177.049 128.768 177.023H131.59V175.959C131.603 175.067 130.91 174.634 129.51 174.66C129.028 174.66 128.628 174.712 128.309 174.816C128.003 174.94 127.762 175.148 127.586 175.441L125.984 174.221C126.759 173.205 127.902 172.71 129.412 172.736C130.688 172.723 131.707 172.964 132.469 173.459C133.217 173.954 133.605 174.826 133.631 176.076V183H131.59V182.102H131.551C131.362 182.447 131.069 182.701 130.672 182.863C130.307 183.033 129.767 183.117 129.051 183.117ZM129.305 181.203C130.164 181.229 130.766 181.128 131.111 180.9C131.43 180.686 131.59 180.197 131.59 179.436V178.703H129.148C127.951 178.729 127.365 179.136 127.391 179.924C127.391 180.269 127.544 180.562 127.85 180.803C128.156 181.07 128.641 181.203 129.305 181.203ZM136.268 172.863H138.289L141.326 178.898L144.354 172.863H146.346V183H144.305V176.496L141.971 181.145H140.691L138.309 176.496V183H136.268V172.863ZM148.982 172.863H151.023V179.738L155.428 172.863H157.469V183H155.428V176.018L151.023 183H148.982V172.863ZM164.92 172.863H173.025V183H170.984V174.777H166.961V183H164.92V172.863ZM175.662 172.863H177.703V173.918C178.387 173.156 179.259 172.762 180.32 172.736C181.551 172.749 182.459 173.192 183.045 174.064C183.338 174.396 183.53 174.816 183.621 175.324C183.673 175.591 183.709 175.943 183.729 176.379C183.755 176.809 183.768 177.329 183.768 177.941C183.768 178.54 183.755 179.055 183.729 179.484C183.709 179.908 183.673 180.253 183.621 180.52C183.53 181.027 183.338 181.454 183.045 181.799C182.752 182.202 182.384 182.515 181.941 182.736C181.505 182.964 180.965 183.091 180.32 183.117C179.819 183.117 179.354 183.003 178.924 182.775C178.481 182.554 178.074 182.268 177.703 181.916V187.102H175.662V172.863ZM179.705 181.076C180.174 181.076 180.555 180.985 180.848 180.803C181.128 180.627 181.326 180.386 181.443 180.08C181.58 179.8 181.668 179.462 181.707 179.064C181.72 178.876 181.727 178.69 181.727 178.508C181.727 178.319 181.727 178.13 181.727 177.941C181.727 177.74 181.727 177.541 181.727 177.346C181.727 177.144 181.72 176.949 181.707 176.76C181.668 176.363 181.58 176.024 181.443 175.744C181.326 175.451 181.128 175.21 180.848 175.021C180.568 174.859 180.187 174.777 179.705 174.777C179.249 174.777 178.888 174.872 178.621 175.061C178.354 175.236 178.149 175.484 178.006 175.803C177.882 176.096 177.801 176.428 177.762 176.799C177.723 177.189 177.703 177.57 177.703 177.941C177.703 178.299 177.723 178.658 177.762 179.016C177.801 179.406 177.882 179.748 178.006 180.041C178.149 180.36 178.354 180.607 178.621 180.783C178.875 180.979 179.236 181.076 179.705 181.076ZM189.734 183.117C188.986 183.117 188.351 182.971 187.83 182.678C187.316 182.411 186.925 182.124 186.658 181.818C186.268 181.395 185.988 180.91 185.818 180.363C185.643 179.829 185.555 179.016 185.555 177.922C185.555 176.841 185.643 176.021 185.818 175.461C186.001 174.888 186.281 174.413 186.658 174.035C186.938 173.703 187.329 173.404 187.83 173.137C188.338 172.87 188.973 172.736 189.734 172.736C190.522 172.736 191.17 172.87 191.678 173.137C192.166 173.404 192.544 173.703 192.811 174.035C193.201 174.413 193.488 174.888 193.67 175.461C193.833 176.047 193.914 176.867 193.914 177.922C193.914 178.99 193.833 179.803 193.67 180.363C193.488 180.923 193.201 181.408 192.811 181.818C192.745 181.883 192.674 181.958 192.596 182.043C192.518 182.121 192.43 182.193 192.332 182.258C192.15 182.421 191.932 182.561 191.678 182.678C191.157 182.971 190.509 183.117 189.734 183.117ZM189.734 181.076C190.092 181.076 190.418 181.005 190.711 180.861C191.004 180.725 191.225 180.552 191.375 180.344C191.59 180.064 191.723 179.771 191.775 179.465C191.801 179.302 191.824 179.094 191.844 178.84C191.863 178.586 191.873 178.286 191.873 177.941C191.873 177.583 191.863 177.274 191.844 177.014C191.824 176.753 191.801 176.535 191.775 176.359C191.723 176.053 191.59 175.773 191.375 175.52C191.225 175.305 191.004 175.126 190.711 174.982C190.444 174.846 190.118 174.777 189.734 174.777C189.376 174.777 189.057 174.846 188.777 174.982C188.51 175.113 188.283 175.292 188.094 175.52C187.918 175.747 187.791 176.027 187.713 176.359C187.635 176.704 187.596 177.225 187.596 177.922C187.596 178.625 187.635 179.139 187.713 179.465C187.791 179.797 187.918 180.09 188.094 180.344C188.296 180.552 188.523 180.725 188.777 180.861C189.096 181.005 189.415 181.076 189.734 181.076ZM196.053 172.863H198.094V179.738L202.498 172.863H204.539V183H202.498V176.018L198.094 183H196.053V172.863ZM209.91 183.117C209.07 183.117 208.348 182.984 207.742 182.717C207.143 182.45 206.583 182.036 206.062 181.477L207.547 180.217C207.879 180.555 208.214 180.806 208.553 180.969C208.898 181.125 209.35 181.203 209.91 181.203C210.535 181.203 211.036 181.089 211.414 180.861C211.798 180.633 211.99 180.298 211.99 179.855C211.99 179.419 211.847 179.113 211.561 178.938C211.274 178.755 210.828 178.664 210.223 178.664H208.748V176.984H210.252C210.74 176.984 211.131 176.877 211.424 176.662C211.717 176.447 211.863 176.148 211.863 175.764C211.863 175.373 211.694 175.09 211.355 174.914C211.017 174.732 210.535 174.641 209.91 174.641C209.493 174.641 209.083 174.712 208.68 174.855C208.283 174.992 207.924 175.214 207.605 175.52L206.15 174.26C206.391 174.019 206.635 173.807 206.883 173.625C207.137 173.436 207.417 173.277 207.723 173.146C208.035 173.01 208.383 172.909 208.768 172.844C209.152 172.772 209.598 172.736 210.105 172.736C210.652 172.736 211.167 172.782 211.648 172.873C212.13 172.958 212.544 173.127 212.889 173.381C213.208 173.609 213.449 173.908 213.611 174.279C213.781 174.65 213.865 175.051 213.865 175.48C213.865 175.975 213.735 176.424 213.475 176.828C213.214 177.225 212.853 177.515 212.391 177.697C212.879 177.886 213.273 178.189 213.572 178.605C213.878 179.016 214.031 179.501 214.031 180.061C214.031 180.581 213.908 181.066 213.66 181.516C213.413 181.958 213.061 182.313 212.605 182.58C212.26 182.795 211.854 182.938 211.385 183.01C210.923 183.081 210.431 183.117 209.91 183.117ZM216.17 172.863H221.033C221.964 172.863 222.706 173.111 223.26 173.605C223.813 174.094 224.09 174.751 224.09 175.578C224.09 176.594 223.618 177.32 222.674 177.756C223.182 177.984 223.572 178.293 223.846 178.684C224.119 179.068 224.256 179.553 224.256 180.139C224.256 181.018 223.986 181.714 223.445 182.229C222.905 182.743 222.153 183 221.189 183H216.17V172.863ZM220.789 181.301C221.245 181.301 221.603 181.177 221.863 180.93C222.124 180.682 222.254 180.354 222.254 179.943C222.254 179.514 222.124 179.182 221.863 178.947C221.603 178.713 221.245 178.596 220.789 178.596H218.211V181.301H220.789ZM220.652 177.023C221.609 177.023 222.088 176.604 222.088 175.764C222.088 175.373 221.964 175.077 221.717 174.875C221.476 174.667 221.121 174.562 220.652 174.562H218.211V177.023H220.652ZM230.086 183.117C229.337 183.117 228.702 182.971 228.182 182.678C227.667 182.411 227.277 182.124 227.01 181.818C226.619 181.395 226.339 180.91 226.17 180.363C225.994 179.829 225.906 179.016 225.906 177.922C225.906 176.841 225.994 176.021 226.17 175.461C226.352 174.888 226.632 174.413 227.01 174.035C227.29 173.703 227.68 173.404 228.182 173.137C228.689 172.87 229.324 172.736 230.086 172.736C230.874 172.736 231.521 172.87 232.029 173.137C232.518 173.404 232.895 173.703 233.162 174.035C233.553 174.413 233.839 174.888 234.021 175.461C234.184 176.047 234.266 176.867 234.266 177.922C234.266 178.99 234.184 179.803 234.021 180.363C233.839 180.923 233.553 181.408 233.162 181.818C233.097 181.883 233.025 181.958 232.947 182.043C232.869 182.121 232.781 182.193 232.684 182.258C232.501 182.421 232.283 182.561 232.029 182.678C231.508 182.971 230.861 183.117 230.086 183.117ZM230.086 181.076C230.444 181.076 230.77 181.005 231.062 180.861C231.355 180.725 231.577 180.552 231.727 180.344C231.941 180.064 232.075 179.771 232.127 179.465C232.153 179.302 232.176 179.094 232.195 178.84C232.215 178.586 232.225 178.286 232.225 177.941C232.225 177.583 232.215 177.274 232.195 177.014C232.176 176.753 232.153 176.535 232.127 176.359C232.075 176.053 231.941 175.773 231.727 175.52C231.577 175.305 231.355 175.126 231.062 174.982C230.796 174.846 230.47 174.777 230.086 174.777C229.728 174.777 229.409 174.846 229.129 174.982C228.862 175.113 228.634 175.292 228.445 175.52C228.27 175.747 228.143 176.027 228.064 176.359C227.986 176.704 227.947 177.225 227.947 177.922C227.947 178.625 227.986 179.139 228.064 179.465C228.143 179.797 228.27 180.09 228.445 180.344C228.647 180.552 228.875 180.725 229.129 180.861C229.448 181.005 229.767 181.076 230.086 181.076ZM235.203 181.076H236.365C236.541 180.64 236.697 180.184 236.834 179.709C236.977 179.234 237.091 178.684 237.176 178.059C237.26 177.434 237.326 176.701 237.371 175.861C237.423 175.021 237.449 174.022 237.449 172.863H244.285V181.076H245.682V185.598H243.768V183H237.127V185.598H235.203V181.076ZM242.244 181.076V174.777H239.383C239.383 175.604 239.36 176.333 239.314 176.965C239.269 177.59 239.204 178.153 239.119 178.654C239.041 179.149 238.947 179.595 238.836 179.992C238.725 180.383 238.608 180.744 238.484 181.076H242.244ZM247.146 172.863H249.188V179.738L253.592 172.863H255.633V183H253.592V176.018L249.188 183H247.146V172.863ZM258.279 172.863H260.301L263.338 178.898L266.365 172.863H268.357V183H266.316V176.496L263.982 181.145H262.703L260.32 176.496V183H258.279V172.863ZM275.799 172.863H277.84V176.838H278.797C279.161 176.838 279.464 176.76 279.705 176.604C279.952 176.441 280.132 176.219 280.242 175.939L280.721 174.582C280.936 173.97 281.229 173.531 281.6 173.264C281.971 172.997 282.492 172.863 283.162 172.863H283.836V174.699H283.543C283.341 174.699 283.172 174.709 283.035 174.729C282.905 174.748 282.794 174.79 282.703 174.855C282.618 174.914 282.547 174.999 282.488 175.109C282.43 175.22 282.368 175.37 282.303 175.559L281.961 176.564C281.857 176.87 281.707 177.111 281.512 177.287C281.316 177.456 281.105 177.58 280.877 177.658C281.229 177.769 281.508 177.935 281.717 178.156C281.932 178.371 282.114 178.664 282.264 179.035L282.742 180.275C282.807 180.451 282.869 180.594 282.928 180.705C282.986 180.809 283.055 180.891 283.133 180.949C283.217 181.008 283.315 181.05 283.426 181.076C283.543 181.102 283.696 181.115 283.885 181.115H284.344V183H283.602C282.866 183 282.303 182.863 281.912 182.59C281.528 182.316 281.212 181.848 280.965 181.184L280.398 179.738C280.307 179.497 280.193 179.315 280.057 179.191C279.926 179.061 279.783 178.964 279.627 178.898C279.477 178.833 279.321 178.794 279.158 178.781C279.002 178.768 278.842 178.762 278.68 178.762H277.84V183H275.799V172.863ZM289.637 183.117C288.888 183.117 288.253 182.971 287.732 182.678C287.218 182.411 286.827 182.124 286.561 181.818C286.17 181.395 285.89 180.91 285.721 180.363C285.545 179.829 285.457 179.016 285.457 177.922C285.457 176.841 285.545 176.021 285.721 175.461C285.903 174.888 286.183 174.413 286.561 174.035C286.84 173.703 287.231 173.404 287.732 173.137C288.24 172.87 288.875 172.736 289.637 172.736C290.424 172.736 291.072 172.87 291.58 173.137C292.068 173.404 292.446 173.703 292.713 174.035C293.104 174.413 293.39 174.888 293.572 175.461C293.735 176.047 293.816 176.867 293.816 177.922C293.816 178.99 293.735 179.803 293.572 180.363C293.39 180.923 293.104 181.408 292.713 181.818C292.648 181.883 292.576 181.958 292.498 182.043C292.42 182.121 292.332 182.193 292.234 182.258C292.052 182.421 291.834 182.561 291.58 182.678C291.059 182.971 290.411 183.117 289.637 183.117ZM289.637 181.076C289.995 181.076 290.32 181.005 290.613 180.861C290.906 180.725 291.128 180.552 291.277 180.344C291.492 180.064 291.626 179.771 291.678 179.465C291.704 179.302 291.727 179.094 291.746 178.84C291.766 178.586 291.775 178.286 291.775 177.941C291.775 177.583 291.766 177.274 291.746 177.014C291.727 176.753 291.704 176.535 291.678 176.359C291.626 176.053 291.492 175.773 291.277 175.52C291.128 175.305 290.906 175.126 290.613 174.982C290.346 174.846 290.021 174.777 289.637 174.777C289.279 174.777 288.96 174.846 288.68 174.982C288.413 175.113 288.185 175.292 287.996 175.52C287.82 175.747 287.693 176.027 287.615 176.359C287.537 176.704 287.498 177.225 287.498 177.922C287.498 178.625 287.537 179.139 287.615 179.465C287.693 179.797 287.82 180.09 287.996 180.344C288.198 180.552 288.426 180.725 288.68 180.861C288.999 181.005 289.318 181.076 289.637 181.076ZM295.955 172.863H297.977L301.014 178.898L304.041 172.863H306.033V183H303.992V176.496L301.658 181.145H300.379L297.996 176.496V183H295.955V172.863ZM312.713 183.117C311.684 183.117 310.848 182.88 310.203 182.404C309.559 181.923 309.103 181.281 308.836 180.48C308.751 180.253 308.689 179.992 308.65 179.699C308.611 179.406 308.579 179.1 308.553 178.781C308.527 178.462 308.51 178.143 308.504 177.824C308.497 177.499 308.494 177.196 308.494 176.916V176.145C308.494 175.598 308.504 175.067 308.523 174.553C308.543 174.038 308.602 173.55 308.699 173.088C308.803 172.619 308.953 172.186 309.148 171.789C309.35 171.385 309.624 171.021 309.969 170.695C310.249 170.448 310.545 170.246 310.857 170.09C311.176 169.934 311.505 169.813 311.844 169.729C312.182 169.644 312.524 169.579 312.869 169.533C313.214 169.488 313.556 169.442 313.895 169.396C314.103 169.37 314.272 169.309 314.402 169.211C314.539 169.113 314.624 168.964 314.656 168.762H316.736C316.626 170.24 315.939 171.079 314.676 171.281C314.35 171.333 314.028 171.376 313.709 171.408C313.39 171.441 313.074 171.49 312.762 171.555C312.449 171.613 312.153 171.701 311.873 171.818C311.593 171.929 311.333 172.089 311.092 172.297C310.786 172.577 310.561 172.912 310.418 173.303C310.281 173.687 310.206 174.045 310.193 174.377H310.252C310.48 173.98 310.848 173.641 311.355 173.361C311.87 173.081 312.469 172.941 313.152 172.941C314.487 172.941 315.451 173.378 316.043 174.25C316.635 175.122 316.932 176.366 316.932 177.98C316.932 178.859 316.85 179.611 316.688 180.236C316.531 180.855 316.264 181.389 315.887 181.838C315.542 182.255 315.102 182.574 314.568 182.795C314.035 183.01 313.416 183.117 312.713 183.117ZM312.693 181.096C313.038 181.096 313.351 181.034 313.631 180.91C313.911 180.786 314.145 180.611 314.334 180.383C314.562 180.116 314.712 179.794 314.783 179.416C314.855 179.032 314.891 178.566 314.891 178.02C314.891 177.46 314.855 176.981 314.783 176.584C314.712 176.18 314.562 175.845 314.334 175.578C314.145 175.363 313.911 175.197 313.631 175.08C313.351 174.963 313.038 174.904 312.693 174.904C312.348 174.904 312.036 174.966 311.756 175.09C311.476 175.214 311.248 175.389 311.072 175.617C310.844 175.884 310.698 176.219 310.633 176.623C310.568 177.02 310.535 177.499 310.535 178.059C310.535 178.697 310.587 179.204 310.691 179.582C310.796 179.953 310.962 180.259 311.189 180.5C311.378 180.689 311.603 180.835 311.863 180.939C312.124 181.044 312.4 181.096 312.693 181.096ZM319.08 172.863H321.121V179.738L325.525 172.863H327.566V183H325.525V176.018L321.121 183H319.08V172.863ZM330.213 172.863H332.254V176.838H333.211C333.576 176.838 333.878 176.76 334.119 176.604C334.367 176.441 334.546 176.219 334.656 175.939L335.135 174.582C335.35 173.97 335.643 173.531 336.014 173.264C336.385 172.997 336.906 172.863 337.576 172.863H338.25V174.699H337.957C337.755 174.699 337.586 174.709 337.449 174.729C337.319 174.748 337.208 174.79 337.117 174.855C337.033 174.914 336.961 174.999 336.902 175.109C336.844 175.22 336.782 175.37 336.717 175.559L336.375 176.564C336.271 176.87 336.121 177.111 335.926 177.287C335.73 177.456 335.519 177.58 335.291 177.658C335.643 177.769 335.923 177.935 336.131 178.156C336.346 178.371 336.528 178.664 336.678 179.035L337.156 180.275C337.221 180.451 337.283 180.594 337.342 180.705C337.4 180.809 337.469 180.891 337.547 180.949C337.632 181.008 337.729 181.05 337.84 181.076C337.957 181.102 338.11 181.115 338.299 181.115H338.758V183H338.016C337.28 183 336.717 182.863 336.326 182.59C335.942 182.316 335.626 181.848 335.379 181.184L334.812 179.738C334.721 179.497 334.607 179.315 334.471 179.191C334.34 179.061 334.197 178.964 334.041 178.898C333.891 178.833 333.735 178.794 333.572 178.781C333.416 178.768 333.257 178.762 333.094 178.762H332.254V183H330.213V172.863ZM344.051 183.117C343.302 183.117 342.667 182.971 342.146 182.678C341.632 182.411 341.242 182.124 340.975 181.818C340.584 181.395 340.304 180.91 340.135 180.363C339.959 179.829 339.871 179.016 339.871 177.922C339.871 176.841 339.959 176.021 340.135 175.461C340.317 174.888 340.597 174.413 340.975 174.035C341.255 173.703 341.645 173.404 342.146 173.137C342.654 172.87 343.289 172.736 344.051 172.736C344.839 172.736 345.486 172.87 345.994 173.137C346.482 173.404 346.86 173.703 347.127 174.035C347.518 174.413 347.804 174.888 347.986 175.461C348.149 176.047 348.23 176.867 348.23 177.922C348.23 178.99 348.149 179.803 347.986 180.363C347.804 180.923 347.518 181.408 347.127 181.818C347.062 181.883 346.99 181.958 346.912 182.043C346.834 182.121 346.746 182.193 346.648 182.258C346.466 182.421 346.248 182.561 345.994 182.678C345.473 182.971 344.826 183.117 344.051 183.117ZM344.051 181.076C344.409 181.076 344.734 181.005 345.027 180.861C345.32 180.725 345.542 180.552 345.691 180.344C345.906 180.064 346.04 179.771 346.092 179.465C346.118 179.302 346.141 179.094 346.16 178.84C346.18 178.586 346.189 178.286 346.189 177.941C346.189 177.583 346.18 177.274 346.16 177.014C346.141 176.753 346.118 176.535 346.092 176.359C346.04 176.053 345.906 175.773 345.691 175.52C345.542 175.305 345.32 175.126 345.027 174.982C344.76 174.846 344.435 174.777 344.051 174.777C343.693 174.777 343.374 174.846 343.094 174.982C342.827 175.113 342.599 175.292 342.41 175.52C342.234 175.747 342.107 176.027 342.029 176.359C341.951 176.704 341.912 177.225 341.912 177.922C341.912 178.625 341.951 179.139 342.029 179.465C342.107 179.797 342.234 180.09 342.41 180.344C342.612 180.552 342.84 180.725 343.094 180.861C343.413 181.005 343.732 181.076 344.051 181.076ZM350.369 172.863H352.41V173.918C353.094 173.156 353.966 172.762 355.027 172.736C356.258 172.749 357.166 173.192 357.752 174.064C358.045 174.396 358.237 174.816 358.328 175.324C358.38 175.591 358.416 175.943 358.436 176.379C358.462 176.809 358.475 177.329 358.475 177.941C358.475 178.54 358.462 179.055 358.436 179.484C358.416 179.908 358.38 180.253 358.328 180.52C358.237 181.027 358.045 181.454 357.752 181.799C357.459 182.202 357.091 182.515 356.648 182.736C356.212 182.964 355.672 183.091 355.027 183.117C354.526 183.117 354.061 183.003 353.631 182.775C353.188 182.554 352.781 182.268 352.41 181.916V187.102H350.369V172.863ZM354.412 181.076C354.881 181.076 355.262 180.985 355.555 180.803C355.835 180.627 356.033 180.386 356.15 180.08C356.287 179.8 356.375 179.462 356.414 179.064C356.427 178.876 356.434 178.69 356.434 178.508C356.434 178.319 356.434 178.13 356.434 177.941C356.434 177.74 356.434 177.541 356.434 177.346C356.434 177.144 356.427 176.949 356.414 176.76C356.375 176.363 356.287 176.024 356.15 175.744C356.033 175.451 355.835 175.21 355.555 175.021C355.275 174.859 354.894 174.777 354.412 174.777C353.956 174.777 353.595 174.872 353.328 175.061C353.061 175.236 352.856 175.484 352.713 175.803C352.589 176.096 352.508 176.428 352.469 176.799C352.43 177.189 352.41 177.57 352.41 177.941C352.41 178.299 352.43 178.658 352.469 179.016C352.508 179.406 352.589 179.748 352.713 180.041C352.856 180.36 353.061 180.607 353.328 180.783C353.582 180.979 353.943 181.076 354.412 181.076ZM360.76 172.863H362.781L365.818 178.898L368.846 172.863H370.838V183H368.797V176.496L366.463 181.145H365.184L362.801 176.496V183H360.76V172.863ZM373.533 184.484V180.959H375.574V183L373.533 184.484ZM83.3184 198.863H88.1816C89.1126 198.863 89.8548 199.111 90.4082 199.605C90.9616 200.094 91.2383 200.751 91.2383 201.578C91.2383 202.594 90.7663 203.32 89.8223 203.756C90.3301 203.984 90.7207 204.293 90.9941 204.684C91.2676 205.068 91.4043 205.553 91.4043 206.139C91.4043 207.018 91.1341 207.714 90.5938 208.229C90.0534 208.743 89.3014 209 88.3379 209H83.3184V198.863ZM87.9375 207.301C88.3932 207.301 88.7513 207.177 89.0117 206.93C89.2721 206.682 89.4023 206.354 89.4023 205.943C89.4023 205.514 89.2721 205.182 89.0117 204.947C88.7513 204.713 88.3932 204.596 87.9375 204.596H85.3594V207.301H87.9375ZM87.8008 203.023C88.7578 203.023 89.2363 202.604 89.2363 201.764C89.2363 201.373 89.1126 201.077 88.8652 200.875C88.6243 200.667 88.2695 200.562 87.8008 200.562H85.3594V203.023H87.8008ZM93.5527 198.863H95.5938V202.682H98.2695C99.2591 202.682 100.053 202.971 100.652 203.551C101.251 204.13 101.551 204.892 101.551 205.836C101.551 206.786 101.251 207.551 100.652 208.131C100.053 208.71 99.2591 209 98.2695 209H93.5527V198.863ZM98.0547 207.203C98.5234 207.203 98.888 207.079 99.1484 206.832C99.4089 206.585 99.5391 206.24 99.5391 205.797C99.5391 205.374 99.4089 205.038 99.1484 204.791C98.888 204.544 98.5234 204.42 98.0547 204.42H95.5938V207.203H98.0547ZM102.957 198.863H104.998V209H102.957V198.863ZM107.635 198.863H109.676V199.918C110.359 199.156 111.232 198.762 112.293 198.736C113.523 198.749 114.432 199.192 115.018 200.064C115.311 200.396 115.503 200.816 115.594 201.324C115.646 201.591 115.682 201.943 115.701 202.379C115.727 202.809 115.74 203.329 115.74 203.941C115.74 204.54 115.727 205.055 115.701 205.484C115.682 205.908 115.646 206.253 115.594 206.52C115.503 207.027 115.311 207.454 115.018 207.799C114.725 208.202 114.357 208.515 113.914 208.736C113.478 208.964 112.938 209.091 112.293 209.117C111.792 209.117 111.326 209.003 110.896 208.775C110.454 208.554 110.047 208.268 109.676 207.916V213.102H107.635V198.863ZM111.678 207.076C112.146 207.076 112.527 206.985 112.82 206.803C113.1 206.627 113.299 206.386 113.416 206.08C113.553 205.8 113.641 205.462 113.68 205.064C113.693 204.876 113.699 204.69 113.699 204.508C113.699 204.319 113.699 204.13 113.699 203.941C113.699 203.74 113.699 203.541 113.699 203.346C113.699 203.144 113.693 202.949 113.68 202.76C113.641 202.363 113.553 202.024 113.416 201.744C113.299 201.451 113.1 201.21 112.82 201.021C112.54 200.859 112.16 200.777 111.678 200.777C111.222 200.777 110.861 200.872 110.594 201.061C110.327 201.236 110.122 201.484 109.979 201.803C109.855 202.096 109.773 202.428 109.734 202.799C109.695 203.189 109.676 203.57 109.676 203.941C109.676 204.299 109.695 204.658 109.734 205.016C109.773 205.406 109.855 205.748 109.979 206.041C110.122 206.36 110.327 206.607 110.594 206.783C110.848 206.979 111.209 207.076 111.678 207.076ZM120.809 209.117C119.689 209.104 118.816 208.805 118.191 208.219C117.547 207.646 117.225 206.913 117.225 206.021C117.225 205.169 117.505 204.462 118.064 203.902C118.611 203.342 119.432 203.049 120.525 203.023H123.348V201.959C123.361 201.067 122.667 200.634 121.268 200.66C120.786 200.66 120.385 200.712 120.066 200.816C119.76 200.94 119.52 201.148 119.344 201.441L117.742 200.221C118.517 199.205 119.66 198.71 121.17 198.736C122.446 198.723 123.465 198.964 124.227 199.459C124.975 199.954 125.363 200.826 125.389 202.076V209H123.348V208.102H123.309C123.12 208.447 122.827 208.701 122.43 208.863C122.065 209.033 121.525 209.117 120.809 209.117ZM121.062 207.203C121.922 207.229 122.524 207.128 122.869 206.9C123.188 206.686 123.348 206.197 123.348 205.436V204.703H120.906C119.708 204.729 119.122 205.136 119.148 205.924C119.148 206.269 119.301 206.562 119.607 206.803C119.913 207.07 120.398 207.203 121.062 207.203ZM140.525 209H128.025V198.863H130.066V207.076H133.504V198.863H135.545V207.076H138.963V198.863H141.004V207.076H142.449V211.598H140.525V209ZM143.904 198.863H145.945V205.738L150.35 198.863H152.391V209H150.35V202.018L145.945 209H143.904V198.863ZM155.037 198.863H159.9C160.831 198.863 161.574 199.111 162.127 199.605C162.68 200.094 162.957 200.751 162.957 201.578C162.957 202.594 162.485 203.32 161.541 203.756C162.049 203.984 162.439 204.293 162.713 204.684C162.986 205.068 163.123 205.553 163.123 206.139C163.123 207.018 162.853 207.714 162.312 208.229C161.772 208.743 161.02 209 160.057 209H155.037V198.863ZM159.656 207.301C160.112 207.301 160.47 207.177 160.73 206.93C160.991 206.682 161.121 206.354 161.121 205.943C161.121 205.514 160.991 205.182 160.73 204.947C160.47 204.713 160.112 204.596 159.656 204.596H157.078V207.301H159.656ZM159.52 203.023C160.477 203.023 160.955 202.604 160.955 201.764C160.955 201.373 160.831 201.077 160.584 200.875C160.343 200.667 159.988 200.562 159.52 200.562H157.078V203.023H159.52ZM168.055 209.117C166.935 209.104 166.062 208.805 165.438 208.219C164.793 207.646 164.471 206.913 164.471 206.021C164.471 205.169 164.751 204.462 165.311 203.902C165.857 203.342 166.678 203.049 167.771 203.023H170.594V201.959C170.607 201.067 169.913 200.634 168.514 200.66C168.032 200.66 167.632 200.712 167.312 200.816C167.007 200.94 166.766 201.148 166.59 201.441L164.988 200.221C165.763 199.205 166.906 198.71 168.416 198.736C169.692 198.723 170.711 198.964 171.473 199.459C172.221 199.954 172.609 200.826 172.635 202.076V209H170.594V208.102H170.555C170.366 208.447 170.073 208.701 169.676 208.863C169.311 209.033 168.771 209.117 168.055 209.117ZM168.309 207.203C169.168 207.229 169.77 207.128 170.115 206.9C170.434 206.686 170.594 206.197 170.594 205.436V204.703H168.152C166.954 204.729 166.368 205.136 166.395 205.924C166.395 206.269 166.548 206.562 166.854 206.803C167.16 207.07 167.645 207.203 168.309 207.203ZM179.275 209.117C178.729 209.117 178.208 209.039 177.713 208.883C177.485 208.811 177.238 208.697 176.971 208.541C176.73 208.437 176.492 208.284 176.258 208.082C175.815 207.678 175.467 207.151 175.213 206.5C174.92 205.862 174.773 205.016 174.773 203.961C174.773 202.932 174.9 202.099 175.154 201.461C175.421 200.751 175.747 200.217 176.131 199.859C176.521 199.475 176.974 199.189 177.488 199C177.97 198.824 178.458 198.736 178.953 198.736C180.112 198.762 181.092 199.143 181.893 199.879C182.693 200.628 183.107 201.676 183.133 203.023V204.703H176.814C176.814 205.517 177.049 206.135 177.518 206.559C177.967 206.988 178.54 207.203 179.236 207.203C180.063 207.203 180.802 206.874 181.453 206.217L182.938 207.477C181.883 208.583 180.662 209.13 179.275 209.117ZM181.092 203.023C181.066 202.249 180.854 201.653 180.457 201.236C180.066 200.852 179.565 200.66 178.953 200.66C178.341 200.66 177.84 200.852 177.449 201.236C177.065 201.653 176.854 202.249 176.814 203.023H181.092ZM185.271 198.863H187.293L190.33 204.898L193.357 198.863H195.35V209H193.309V202.496L190.975 207.145H189.695L187.312 202.496V209H185.271V198.863ZM201.775 207.115H202.215C202.397 207.115 202.547 207.102 202.664 207.076C202.788 207.05 202.889 207.008 202.967 206.949C203.051 206.891 203.123 206.809 203.182 206.705C203.24 206.594 203.305 206.451 203.377 206.275L203.836 205.035C203.979 204.664 204.158 204.371 204.373 204.156C204.588 203.935 204.868 203.769 205.213 203.658C204.985 203.58 204.773 203.456 204.578 203.287C204.389 203.111 204.24 202.87 204.129 202.564L203.797 201.559C203.725 201.37 203.66 201.22 203.602 201.109C203.543 200.999 203.468 200.914 203.377 200.855C203.292 200.79 203.185 200.748 203.055 200.729C202.931 200.709 202.771 200.699 202.576 200.699H202.254V198.863H202.957C203.608 198.863 204.119 198.997 204.49 199.264C204.868 199.531 205.167 199.97 205.389 200.582L205.877 201.939C205.981 202.219 206.157 202.447 206.404 202.623C206.652 202.792 206.948 202.877 207.293 202.877H207.85V198.863H209.891V202.877H210.438C210.796 202.877 211.098 202.792 211.346 202.623C211.593 202.447 211.769 202.219 211.873 201.939L212.352 200.582C212.579 199.97 212.876 199.531 213.24 199.264C213.611 198.997 214.129 198.863 214.793 198.863H215.477V200.699H215.174C214.972 200.699 214.803 200.709 214.666 200.729C214.536 200.748 214.432 200.79 214.354 200.855C214.275 200.914 214.204 200.999 214.139 201.109C214.08 201.22 214.018 201.37 213.953 201.559L213.592 202.564C213.488 202.87 213.338 203.111 213.143 203.287C212.947 203.456 212.736 203.58 212.508 203.658C212.859 203.769 213.139 203.935 213.348 204.156C213.562 204.371 213.745 204.664 213.895 205.035L214.373 206.275C214.438 206.451 214.5 206.594 214.559 206.705C214.624 206.809 214.695 206.891 214.773 206.949C214.852 207.008 214.946 207.05 215.057 207.076C215.174 207.102 215.327 207.115 215.516 207.115H215.975V209H215.232C214.874 209 214.559 208.967 214.285 208.902C214.012 208.837 213.774 208.736 213.572 208.6C213.37 208.456 213.191 208.268 213.035 208.033C212.885 207.799 212.745 207.516 212.615 207.184L212.049 205.738C211.958 205.497 211.844 205.315 211.707 205.191C211.577 205.061 211.434 204.964 211.277 204.898C211.128 204.833 210.971 204.794 210.809 204.781C210.652 204.768 210.493 204.762 210.33 204.762H209.891V209H207.85V204.762H207.41C207.254 204.762 207.091 204.768 206.922 204.781C206.753 204.794 206.59 204.833 206.434 204.898C206.284 204.964 206.141 205.061 206.004 205.191C205.874 205.315 205.763 205.497 205.672 205.738L205.135 207.184C204.998 207.516 204.852 207.799 204.695 208.033C204.546 208.268 204.367 208.456 204.158 208.6C203.956 208.736 203.722 208.837 203.455 208.902C203.188 208.967 202.872 209 202.508 209H201.775V207.115ZM217.596 198.863H219.637V205.738L224.041 198.863H226.082V209H224.041V202.018L219.637 209H217.596V198.863ZM228.729 198.863H233.592C234.523 198.863 235.265 199.111 235.818 199.605C236.372 200.094 236.648 200.751 236.648 201.578C236.648 202.594 236.176 203.32 235.232 203.756C235.74 203.984 236.131 204.293 236.404 204.684C236.678 205.068 236.814 205.553 236.814 206.139C236.814 207.018 236.544 207.714 236.004 208.229C235.464 208.743 234.712 209 233.748 209H228.729V198.863ZM233.348 207.301C233.803 207.301 234.161 207.177 234.422 206.93C234.682 206.682 234.812 206.354 234.812 205.943C234.812 205.514 234.682 205.182 234.422 204.947C234.161 204.713 233.803 204.596 233.348 204.596H230.77V207.301H233.348ZM233.211 203.023C234.168 203.023 234.646 202.604 234.646 201.764C234.646 201.373 234.523 201.077 234.275 200.875C234.035 200.667 233.68 200.562 233.211 200.562H230.77V203.023H233.211ZM242.645 209.117C241.896 209.117 241.261 208.971 240.74 208.678C240.226 208.411 239.835 208.124 239.568 207.818C239.178 207.395 238.898 206.91 238.729 206.363C238.553 205.829 238.465 205.016 238.465 203.922C238.465 202.841 238.553 202.021 238.729 201.461C238.911 200.888 239.191 200.413 239.568 200.035C239.848 199.703 240.239 199.404 240.74 199.137C241.248 198.87 241.883 198.736 242.645 198.736C243.432 198.736 244.08 198.87 244.588 199.137C245.076 199.404 245.454 199.703 245.721 200.035C246.111 200.413 246.398 200.888 246.58 201.461C246.743 202.047 246.824 202.867 246.824 203.922C246.824 204.99 246.743 205.803 246.58 206.363C246.398 206.923 246.111 207.408 245.721 207.818C245.656 207.883 245.584 207.958 245.506 208.043C245.428 208.121 245.34 208.193 245.242 208.258C245.06 208.421 244.842 208.561 244.588 208.678C244.067 208.971 243.419 209.117 242.645 209.117ZM242.645 207.076C243.003 207.076 243.328 207.005 243.621 206.861C243.914 206.725 244.135 206.552 244.285 206.344C244.5 206.064 244.633 205.771 244.686 205.465C244.712 205.302 244.734 205.094 244.754 204.84C244.773 204.586 244.783 204.286 244.783 203.941C244.783 203.583 244.773 203.274 244.754 203.014C244.734 202.753 244.712 202.535 244.686 202.359C244.633 202.053 244.5 201.773 244.285 201.52C244.135 201.305 243.914 201.126 243.621 200.982C243.354 200.846 243.029 200.777 242.645 200.777C242.286 200.777 241.967 200.846 241.688 200.982C241.421 201.113 241.193 201.292 241.004 201.52C240.828 201.747 240.701 202.027 240.623 202.359C240.545 202.704 240.506 203.225 240.506 203.922C240.506 204.625 240.545 205.139 240.623 205.465C240.701 205.797 240.828 206.09 241.004 206.344C241.206 206.552 241.434 206.725 241.688 206.861C242.007 207.005 242.326 207.076 242.645 207.076ZM250.984 200.777H247.869V198.863H256.023V200.777H253.025V209H250.984V200.777ZM257.576 198.863H259.617V202.818H263.641V198.863H265.682V209H263.641V204.742H259.617V209H257.576V198.863ZM268.318 198.863H270.359V202.682H273.035C274.025 202.682 274.819 202.971 275.418 203.551C276.017 204.13 276.316 204.892 276.316 205.836C276.316 206.786 276.017 207.551 275.418 208.131C274.819 208.71 274.025 209 273.035 209H268.318V198.863ZM272.82 207.203C273.289 207.203 273.654 207.079 273.914 206.832C274.174 206.585 274.305 206.24 274.305 205.797C274.305 205.374 274.174 205.038 273.914 204.791C273.654 204.544 273.289 204.42 272.82 204.42H270.359V207.203H272.82ZM277.723 198.863H279.764V209H277.723V198.863ZM284.744 203.824L281.424 198.863H283.865L285.887 202.145L287.898 198.863H290.34L287.02 203.824L290.486 209H288.045L285.887 205.621L283.719 209H281.277L284.744 203.824ZM296.814 198.863H298.855V205.738L303.26 198.863H305.301V209H303.26V202.018L298.855 209H296.814V198.863ZM316.434 209.117C315.685 209.117 315.05 208.971 314.529 208.678C314.015 208.411 313.624 208.124 313.357 207.818C312.967 207.395 312.687 206.91 312.518 206.363C312.342 205.829 312.254 205.016 312.254 203.922C312.254 202.841 312.342 202.021 312.518 201.461C312.7 200.888 312.98 200.413 313.357 200.035C313.637 199.703 314.028 199.404 314.529 199.137C315.037 198.87 315.672 198.736 316.434 198.736C317.221 198.736 317.869 198.87 318.377 199.137C318.865 199.404 319.243 199.703 319.51 200.035C319.9 200.413 320.187 200.888 320.369 201.461C320.532 202.047 320.613 202.867 320.613 203.922C320.613 204.99 320.532 205.803 320.369 206.363C320.187 206.923 319.9 207.408 319.51 207.818C319.445 207.883 319.373 207.958 319.295 208.043C319.217 208.121 319.129 208.193 319.031 208.258C318.849 208.421 318.631 208.561 318.377 208.678C317.856 208.971 317.208 209.117 316.434 209.117ZM316.434 207.076C316.792 207.076 317.117 207.005 317.41 206.861C317.703 206.725 317.924 206.552 318.074 206.344C318.289 206.064 318.423 205.771 318.475 205.465C318.501 205.302 318.523 205.094 318.543 204.84C318.562 204.586 318.572 204.286 318.572 203.941C318.572 203.583 318.562 203.274 318.543 203.014C318.523 202.753 318.501 202.535 318.475 202.359C318.423 202.053 318.289 201.773 318.074 201.52C317.924 201.305 317.703 201.126 317.41 200.982C317.143 200.846 316.818 200.777 316.434 200.777C316.076 200.777 315.757 200.846 315.477 200.982C315.21 201.113 314.982 201.292 314.793 201.52C314.617 201.747 314.49 202.027 314.412 202.359C314.334 202.704 314.295 203.225 314.295 203.922C314.295 204.625 314.334 205.139 314.412 205.465C314.49 205.797 314.617 206.09 314.793 206.344C314.995 206.552 315.223 206.725 315.477 206.861C315.796 207.005 316.115 207.076 316.434 207.076ZM326.795 209.117C325.766 209.117 324.93 208.88 324.285 208.404C323.641 207.923 323.185 207.281 322.918 206.48C322.833 206.253 322.771 205.992 322.732 205.699C322.693 205.406 322.661 205.1 322.635 204.781C322.609 204.462 322.592 204.143 322.586 203.824C322.579 203.499 322.576 203.196 322.576 202.916V202.145C322.576 201.598 322.586 201.067 322.605 200.553C322.625 200.038 322.684 199.55 322.781 199.088C322.885 198.619 323.035 198.186 323.23 197.789C323.432 197.385 323.706 197.021 324.051 196.695C324.331 196.448 324.627 196.246 324.939 196.09C325.258 195.934 325.587 195.813 325.926 195.729C326.264 195.644 326.606 195.579 326.951 195.533C327.296 195.488 327.638 195.442 327.977 195.396C328.185 195.37 328.354 195.309 328.484 195.211C328.621 195.113 328.706 194.964 328.738 194.762H330.818C330.708 196.24 330.021 197.079 328.758 197.281C328.432 197.333 328.11 197.376 327.791 197.408C327.472 197.441 327.156 197.49 326.844 197.555C326.531 197.613 326.235 197.701 325.955 197.818C325.675 197.929 325.415 198.089 325.174 198.297C324.868 198.577 324.643 198.912 324.5 199.303C324.363 199.687 324.288 200.045 324.275 200.377H324.334C324.562 199.98 324.93 199.641 325.438 199.361C325.952 199.081 326.551 198.941 327.234 198.941C328.569 198.941 329.533 199.378 330.125 200.25C330.717 201.122 331.014 202.366 331.014 203.98C331.014 204.859 330.932 205.611 330.77 206.236C330.613 206.855 330.346 207.389 329.969 207.838C329.624 208.255 329.184 208.574 328.65 208.795C328.117 209.01 327.498 209.117 326.795 209.117ZM326.775 207.096C327.12 207.096 327.433 207.034 327.713 206.91C327.993 206.786 328.227 206.611 328.416 206.383C328.644 206.116 328.794 205.794 328.865 205.416C328.937 205.032 328.973 204.566 328.973 204.02C328.973 203.46 328.937 202.981 328.865 202.584C328.794 202.18 328.644 201.845 328.416 201.578C328.227 201.363 327.993 201.197 327.713 201.08C327.433 200.963 327.12 200.904 326.775 200.904C326.43 200.904 326.118 200.966 325.838 201.09C325.558 201.214 325.33 201.389 325.154 201.617C324.926 201.884 324.78 202.219 324.715 202.623C324.65 203.02 324.617 203.499 324.617 204.059C324.617 204.697 324.669 205.204 324.773 205.582C324.878 205.953 325.044 206.259 325.271 206.5C325.46 206.689 325.685 206.835 325.945 206.939C326.206 207.044 326.482 207.096 326.775 207.096ZM333.162 198.863H335.203V199.918C335.887 199.156 336.759 198.762 337.82 198.736C339.051 198.749 339.959 199.192 340.545 200.064C340.838 200.396 341.03 200.816 341.121 201.324C341.173 201.591 341.209 201.943 341.229 202.379C341.255 202.809 341.268 203.329 341.268 203.941C341.268 204.54 341.255 205.055 341.229 205.484C341.209 205.908 341.173 206.253 341.121 206.52C341.03 207.027 340.838 207.454 340.545 207.799C340.252 208.202 339.884 208.515 339.441 208.736C339.005 208.964 338.465 209.091 337.82 209.117C337.319 209.117 336.854 209.003 336.424 208.775C335.981 208.554 335.574 208.268 335.203 207.916V213.102H333.162V198.863ZM337.205 207.076C337.674 207.076 338.055 206.985 338.348 206.803C338.628 206.627 338.826 206.386 338.943 206.08C339.08 205.8 339.168 205.462 339.207 205.064C339.22 204.876 339.227 204.69 339.227 204.508C339.227 204.319 339.227 204.13 339.227 203.941C339.227 203.74 339.227 203.541 339.227 203.346C339.227 203.144 339.22 202.949 339.207 202.76C339.168 202.363 339.08 202.024 338.943 201.744C338.826 201.451 338.628 201.21 338.348 201.021C338.068 200.859 337.687 200.777 337.205 200.777C336.749 200.777 336.388 200.872 336.121 201.061C335.854 201.236 335.649 201.484 335.506 201.803C335.382 202.096 335.301 202.428 335.262 202.799C335.223 203.189 335.203 203.57 335.203 203.941C335.203 204.299 335.223 204.658 335.262 205.016C335.301 205.406 335.382 205.748 335.506 206.041C335.649 206.36 335.854 206.607 336.121 206.783C336.375 206.979 336.736 207.076 337.205 207.076ZM346.336 209.117C345.216 209.104 344.344 208.805 343.719 208.219C343.074 207.646 342.752 206.913 342.752 206.021C342.752 205.169 343.032 204.462 343.592 203.902C344.139 203.342 344.959 203.049 346.053 203.023H348.875V201.959C348.888 201.067 348.195 200.634 346.795 200.66C346.313 200.66 345.913 200.712 345.594 200.816C345.288 200.94 345.047 201.148 344.871 201.441L343.27 200.221C344.044 199.205 345.187 198.71 346.697 198.736C347.973 198.723 348.992 198.964 349.754 199.459C350.503 199.954 350.89 200.826 350.916 202.076V209H348.875V208.102H348.836C348.647 208.447 348.354 208.701 347.957 208.863C347.592 209.033 347.052 209.117 346.336 209.117ZM346.59 207.203C347.449 207.229 348.051 207.128 348.396 206.9C348.715 206.686 348.875 206.197 348.875 205.436V204.703H346.434C345.236 204.729 344.65 205.136 344.676 205.924C344.676 206.269 344.829 206.562 345.135 206.803C345.441 207.07 345.926 207.203 346.59 207.203ZM357.596 209.117C356.567 209.117 355.73 208.88 355.086 208.404C354.441 207.923 353.986 207.281 353.719 206.48C353.634 206.253 353.572 205.992 353.533 205.699C353.494 205.406 353.462 205.1 353.436 204.781C353.41 204.462 353.393 204.143 353.387 203.824C353.38 203.499 353.377 203.196 353.377 202.916V202.145C353.377 201.598 353.387 201.067 353.406 200.553C353.426 200.038 353.484 199.55 353.582 199.088C353.686 198.619 353.836 198.186 354.031 197.789C354.233 197.385 354.507 197.021 354.852 196.695C355.132 196.448 355.428 196.246 355.74 196.09C356.059 195.934 356.388 195.813 356.727 195.729C357.065 195.644 357.407 195.579 357.752 195.533C358.097 195.488 358.439 195.442 358.777 195.396C358.986 195.37 359.155 195.309 359.285 195.211C359.422 195.113 359.507 194.964 359.539 194.762H361.619C361.508 196.24 360.822 197.079 359.559 197.281C359.233 197.333 358.911 197.376 358.592 197.408C358.273 197.441 357.957 197.49 357.645 197.555C357.332 197.613 357.036 197.701 356.756 197.818C356.476 197.929 356.215 198.089 355.975 198.297C355.669 198.577 355.444 198.912 355.301 199.303C355.164 199.687 355.089 200.045 355.076 200.377H355.135C355.363 199.98 355.73 199.641 356.238 199.361C356.753 199.081 357.352 198.941 358.035 198.941C359.37 198.941 360.333 199.378 360.926 200.25C361.518 201.122 361.814 202.366 361.814 203.98C361.814 204.859 361.733 205.611 361.57 206.236C361.414 206.855 361.147 207.389 360.77 207.838C360.424 208.255 359.985 208.574 359.451 208.795C358.917 209.01 358.299 209.117 357.596 209.117ZM357.576 207.096C357.921 207.096 358.234 207.034 358.514 206.91C358.794 206.786 359.028 206.611 359.217 206.383C359.445 206.116 359.594 205.794 359.666 205.416C359.738 205.032 359.773 204.566 359.773 204.02C359.773 203.46 359.738 202.981 359.666 202.584C359.594 202.18 359.445 201.845 359.217 201.578C359.028 201.363 358.794 201.197 358.514 201.08C358.234 200.963 357.921 200.904 357.576 200.904C357.231 200.904 356.919 200.966 356.639 201.09C356.359 201.214 356.131 201.389 355.955 201.617C355.727 201.884 355.581 202.219 355.516 202.623C355.451 203.02 355.418 203.499 355.418 204.059C355.418 204.697 355.47 205.204 355.574 205.582C355.678 205.953 355.844 206.259 356.072 206.5C356.261 206.689 356.486 206.835 356.746 206.939C357.007 207.044 357.283 207.096 357.576 207.096ZM366.746 209.117C365.626 209.104 364.754 208.805 364.129 208.219C363.484 207.646 363.162 206.913 363.162 206.021C363.162 205.169 363.442 204.462 364.002 203.902C364.549 203.342 365.369 203.049 366.463 203.023H369.285V201.959C369.298 201.067 368.605 200.634 367.205 200.66C366.723 200.66 366.323 200.712 366.004 200.816C365.698 200.94 365.457 201.148 365.281 201.441L363.68 200.221C364.454 199.205 365.597 198.71 367.107 198.736C368.383 198.723 369.402 198.964 370.164 199.459C370.913 199.954 371.3 200.826 371.326 202.076V209H369.285V208.102H369.246C369.057 208.447 368.764 208.701 368.367 208.863C368.003 209.033 367.462 209.117 366.746 209.117ZM367 207.203C367.859 207.229 368.462 207.128 368.807 206.9C369.126 206.686 369.285 206.197 369.285 205.436V204.703H366.844C365.646 204.729 365.06 205.136 365.086 205.924C365.086 206.269 365.239 206.562 365.545 206.803C365.851 207.07 366.336 207.203 367 207.203ZM375.984 200.777H372.869V198.863H381.023V200.777H378.025V209H375.984V200.777ZM382.576 198.863H384.617V202.682H387.293C388.283 202.682 389.077 202.971 389.676 203.551C390.275 204.13 390.574 204.892 390.574 205.836C390.574 206.786 390.275 207.551 389.676 208.131C389.077 208.71 388.283 209 387.293 209H382.576V198.863ZM387.078 207.203C387.547 207.203 387.911 207.079 388.172 206.832C388.432 206.585 388.562 206.24 388.562 205.797C388.562 205.374 388.432 205.038 388.172 204.791C387.911 204.544 387.547 204.42 387.078 204.42H384.617V207.203H387.078ZM391.98 198.863H394.021V209H391.98V198.863ZM396.658 198.863H401.521C402.452 198.863 403.195 199.111 403.748 199.605C404.301 200.094 404.578 200.751 404.578 201.578C404.578 202.594 404.106 203.32 403.162 203.756C403.67 203.984 404.061 204.293 404.334 204.684C404.607 205.068 404.744 205.553 404.744 206.139C404.744 207.018 404.474 207.714 403.934 208.229C403.393 208.743 402.641 209 401.678 209H396.658V198.863ZM401.277 207.301C401.733 207.301 402.091 207.177 402.352 206.93C402.612 206.682 402.742 206.354 402.742 205.943C402.742 205.514 402.612 205.182 402.352 204.947C402.091 204.713 401.733 204.596 401.277 204.596H398.699V207.301H401.277ZM401.141 203.023C402.098 203.023 402.576 202.604 402.576 201.764C402.576 201.373 402.452 201.077 402.205 200.875C401.964 200.667 401.609 200.562 401.141 200.562H398.699V203.023H401.141ZM409.676 209.117C408.556 209.104 407.684 208.805 407.059 208.219C406.414 207.646 406.092 206.913 406.092 206.021C406.092 205.169 406.372 204.462 406.932 203.902C407.479 203.342 408.299 203.049 409.393 203.023H412.215V201.959C412.228 201.067 411.535 200.634 410.135 200.66C409.653 200.66 409.253 200.712 408.934 200.816C408.628 200.94 408.387 201.148 408.211 201.441L406.609 200.221C407.384 199.205 408.527 198.71 410.037 198.736C411.313 198.723 412.332 198.964 413.094 199.459C413.842 199.954 414.23 200.826 414.256 202.076V209H412.215V208.102H412.176C411.987 208.447 411.694 208.701 411.297 208.863C410.932 209.033 410.392 209.117 409.676 209.117ZM409.93 207.203C410.789 207.229 411.391 207.128 411.736 206.9C412.055 206.686 412.215 206.197 412.215 205.436V204.703H409.773C408.576 204.729 407.99 205.136 408.016 205.924C408.016 206.269 408.169 206.562 408.475 206.803C408.781 207.07 409.266 207.203 409.93 207.203ZM420.896 209.117C420.35 209.117 419.829 209.039 419.334 208.883C419.106 208.811 418.859 208.697 418.592 208.541C418.351 208.437 418.113 208.284 417.879 208.082C417.436 207.678 417.088 207.151 416.834 206.5C416.541 205.862 416.395 205.016 416.395 203.961C416.395 202.932 416.521 202.099 416.775 201.461C417.042 200.751 417.368 200.217 417.752 199.859C418.143 199.475 418.595 199.189 419.109 199C419.591 198.824 420.079 198.736 420.574 198.736C421.733 198.762 422.713 199.143 423.514 199.879C424.314 200.628 424.728 201.676 424.754 203.023V204.703H418.436C418.436 205.517 418.67 206.135 419.139 206.559C419.588 206.988 420.161 207.203 420.857 207.203C421.684 207.203 422.423 206.874 423.074 206.217L424.559 207.477C423.504 208.583 422.283 209.13 420.896 209.117ZM422.713 203.023C422.687 202.249 422.475 201.653 422.078 201.236C421.688 200.852 421.186 200.66 420.574 200.66C419.962 200.66 419.461 200.852 419.07 201.236C418.686 201.653 418.475 202.249 418.436 203.023H422.713ZM426.893 198.863H428.914L431.951 204.898L434.979 198.863H436.971V209H434.93V202.496L432.596 207.145H431.316L428.934 202.496V209H426.893V198.863ZM87.1367 235.117C85.9258 235.117 84.8743 234.71 83.9824 233.896C83.0319 233.083 82.5501 231.764 82.5371 229.941C82.5632 228.086 83.0449 226.751 83.9824 225.938C84.8874 225.111 85.9388 224.71 87.1367 224.736C87.9245 224.762 88.6178 224.925 89.2168 225.225C89.8353 225.544 90.3561 225.97 90.7793 226.504L89.2754 227.842C88.7611 227.145 88.0775 226.79 87.2246 226.777C85.4733 226.751 84.5911 227.806 84.5781 229.941C84.5911 232.057 85.4733 233.102 87.2246 233.076C88.0905 233.05 88.7741 232.699 89.2754 232.021L90.7793 233.359C90.3236 233.867 89.8027 234.281 89.2168 234.6C88.6048 234.945 87.9115 235.117 87.1367 235.117ZM92.2051 224.863H97.0684C97.9993 224.863 98.7415 225.111 99.2949 225.605C99.8483 226.094 100.125 226.751 100.125 227.578C100.125 228.594 99.653 229.32 98.709 229.756C99.2168 229.984 99.6074 230.293 99.8809 230.684C100.154 231.068 100.291 231.553 100.291 232.139C100.291 233.018 100.021 233.714 99.4805 234.229C98.9401 234.743 98.1882 235 97.2246 235H92.2051V224.863ZM96.8242 233.301C97.2799 233.301 97.638 233.177 97.8984 232.93C98.1589 232.682 98.2891 232.354 98.2891 231.943C98.2891 231.514 98.1589 231.182 97.8984 230.947C97.638 230.713 97.2799 230.596 96.8242 230.596H94.2461V233.301H96.8242ZM96.6875 229.023C97.6445 229.023 98.123 228.604 98.123 227.764C98.123 227.373 97.9993 227.077 97.752 226.875C97.5111 226.667 97.1562 226.562 96.6875 226.562H94.2461V229.023H96.6875ZM102.439 224.863H104.48V231.738L108.885 224.863H110.926V235H108.885V228.018L104.48 235H102.439V224.863ZM113.572 224.863H115.613V228.818H119.637V224.863H121.678V235H119.637V230.742H115.613V235H113.572V224.863ZM124.314 224.863H126.355V231.738L130.76 224.863H132.801V235H130.76V228.018L126.355 235H124.314V224.863ZM135.447 224.863H137.488V228.818H141.512V224.863H143.553V235H141.512V230.742H137.488V235H135.447V224.863ZM145.994 237.178H146.59C146.857 237.178 147.104 237.106 147.332 236.963C147.547 236.826 147.706 236.605 147.811 236.299L148.367 234.6L144.734 224.863H146.893L149.295 231.963H149.334L151.727 224.863H153.895L149.529 237.1C149.249 237.861 148.862 238.389 148.367 238.682C147.866 238.962 147.299 239.102 146.668 239.102H145.994V237.178ZM155.135 236.484V232.959H157.176V235L155.135 236.484ZM167.469 235.117C166.349 235.104 165.477 234.805 164.852 234.219C164.207 233.646 163.885 232.913 163.885 232.021C163.885 231.169 164.165 230.462 164.725 229.902C165.271 229.342 166.092 229.049 167.186 229.023H170.008V227.959C170.021 227.067 169.327 226.634 167.928 226.66C167.446 226.66 167.046 226.712 166.727 226.816C166.421 226.94 166.18 227.148 166.004 227.441L164.402 226.221C165.177 225.205 166.32 224.71 167.83 224.736C169.106 224.723 170.125 224.964 170.887 225.459C171.635 225.954 172.023 226.826 172.049 228.076V235H170.008V234.102H169.969C169.78 234.447 169.487 234.701 169.09 234.863C168.725 235.033 168.185 235.117 167.469 235.117ZM167.723 233.203C168.582 233.229 169.184 233.128 169.529 232.9C169.848 232.686 170.008 232.197 170.008 231.436V230.703H167.566C166.368 230.729 165.783 231.136 165.809 231.924C165.809 232.269 165.962 232.562 166.268 232.803C166.574 233.07 167.059 233.203 167.723 233.203ZM182.215 235.117C181.375 235.117 180.652 234.984 180.047 234.717C179.448 234.45 178.888 234.036 178.367 233.477L179.852 232.217C180.184 232.555 180.519 232.806 180.857 232.969C181.202 233.125 181.655 233.203 182.215 233.203C182.84 233.203 183.341 233.089 183.719 232.861C184.103 232.633 184.295 232.298 184.295 231.855C184.295 231.419 184.152 231.113 183.865 230.938C183.579 230.755 183.133 230.664 182.527 230.664H181.053V228.984H182.557C183.045 228.984 183.436 228.877 183.729 228.662C184.021 228.447 184.168 228.148 184.168 227.764C184.168 227.373 183.999 227.09 183.66 226.914C183.322 226.732 182.84 226.641 182.215 226.641C181.798 226.641 181.388 226.712 180.984 226.855C180.587 226.992 180.229 227.214 179.91 227.52L178.455 226.26C178.696 226.019 178.94 225.807 179.188 225.625C179.441 225.436 179.721 225.277 180.027 225.146C180.34 225.01 180.688 224.909 181.072 224.844C181.456 224.772 181.902 224.736 182.41 224.736C182.957 224.736 183.471 224.782 183.953 224.873C184.435 224.958 184.848 225.127 185.193 225.381C185.512 225.609 185.753 225.908 185.916 226.279C186.085 226.65 186.17 227.051 186.17 227.48C186.17 227.975 186.04 228.424 185.779 228.828C185.519 229.225 185.158 229.515 184.695 229.697C185.184 229.886 185.577 230.189 185.877 230.605C186.183 231.016 186.336 231.501 186.336 232.061C186.336 232.581 186.212 233.066 185.965 233.516C185.717 233.958 185.366 234.313 184.91 234.58C184.565 234.795 184.158 234.938 183.689 235.01C183.227 235.081 182.736 235.117 182.215 235.117ZM191.258 235.117C190.138 235.104 189.266 234.805 188.641 234.219C187.996 233.646 187.674 232.913 187.674 232.021C187.674 231.169 187.954 230.462 188.514 229.902C189.061 229.342 189.881 229.049 190.975 229.023H193.797V227.959C193.81 227.067 193.117 226.634 191.717 226.66C191.235 226.66 190.835 226.712 190.516 226.816C190.21 226.94 189.969 227.148 189.793 227.441L188.191 226.221C188.966 225.205 190.109 224.71 191.619 224.736C192.895 224.723 193.914 224.964 194.676 225.459C195.424 225.954 195.812 226.826 195.838 228.076V235H193.797V234.102H193.758C193.569 234.447 193.276 234.701 192.879 234.863C192.514 235.033 191.974 235.117 191.258 235.117ZM191.512 233.203C192.371 233.229 192.973 233.128 193.318 232.9C193.637 232.686 193.797 232.197 193.797 231.436V230.703H191.355C190.158 230.729 189.572 231.136 189.598 231.924C189.598 232.269 189.751 232.562 190.057 232.803C190.363 233.07 190.848 233.203 191.512 233.203ZM200.496 226.777H197.381V224.863H205.535V226.777H202.537V235H200.496V226.777ZM211.092 235.117C210.545 235.117 210.024 235.039 209.529 234.883C209.301 234.811 209.054 234.697 208.787 234.541C208.546 234.437 208.309 234.284 208.074 234.082C207.632 233.678 207.283 233.151 207.029 232.5C206.736 231.862 206.59 231.016 206.59 229.961C206.59 228.932 206.717 228.099 206.971 227.461C207.238 226.751 207.563 226.217 207.947 225.859C208.338 225.475 208.79 225.189 209.305 225C209.786 224.824 210.275 224.736 210.77 224.736C211.928 224.762 212.908 225.143 213.709 225.879C214.51 226.628 214.923 227.676 214.949 229.023V230.703H208.631C208.631 231.517 208.865 232.135 209.334 232.559C209.783 232.988 210.356 233.203 211.053 233.203C211.88 233.203 212.618 232.874 213.27 232.217L214.754 233.477C213.699 234.583 212.479 235.13 211.092 235.117ZM212.908 229.023C212.882 228.249 212.671 227.653 212.273 227.236C211.883 226.852 211.382 226.66 210.77 226.66C210.158 226.66 209.656 226.852 209.266 227.236C208.882 227.653 208.67 228.249 208.631 229.023H212.908ZM217.088 224.863H219.109L222.146 230.898L225.174 224.863H227.166V235H225.125V228.496L222.791 233.145H221.512L219.129 228.496V235H217.088V224.863ZM234.607 224.863H236.648V228.818H240.672V224.863H242.713V235H240.672V230.742H236.648V235H234.607V224.863ZM248.133 235.117C247.013 235.104 246.141 234.805 245.516 234.219C244.871 233.646 244.549 232.913 244.549 232.021C244.549 231.169 244.829 230.462 245.389 229.902C245.936 229.342 246.756 229.049 247.85 229.023H250.672V227.959C250.685 227.067 249.992 226.634 248.592 226.66C248.11 226.66 247.71 226.712 247.391 226.816C247.085 226.94 246.844 227.148 246.668 227.441L245.066 226.221C245.841 225.205 246.984 224.71 248.494 224.736C249.77 224.723 250.789 224.964 251.551 225.459C252.299 225.954 252.687 226.826 252.713 228.076V235H250.672V234.102H250.633C250.444 234.447 250.151 234.701 249.754 234.863C249.389 235.033 248.849 235.117 248.133 235.117ZM248.387 233.203C249.246 233.229 249.848 233.128 250.193 232.9C250.512 232.686 250.672 232.197 250.672 231.436V230.703H248.23C247.033 230.729 246.447 231.136 246.473 231.924C246.473 232.269 246.626 232.562 246.932 232.803C247.238 233.07 247.723 233.203 248.387 233.203ZM254.148 233.076H255.311C255.486 232.64 255.643 232.184 255.779 231.709C255.923 231.234 256.036 230.684 256.121 230.059C256.206 229.434 256.271 228.701 256.316 227.861C256.368 227.021 256.395 226.022 256.395 224.863H263.23V233.076H264.627V237.598H262.713V235H256.072V237.598H254.148V233.076ZM261.189 233.076V226.777H258.328C258.328 227.604 258.305 228.333 258.26 228.965C258.214 229.59 258.149 230.153 258.064 230.654C257.986 231.149 257.892 231.595 257.781 231.992C257.671 232.383 257.553 232.744 257.43 233.076H261.189ZM270.096 235.117C269.549 235.117 269.028 235.039 268.533 234.883C268.305 234.811 268.058 234.697 267.791 234.541C267.55 234.437 267.312 234.284 267.078 234.082C266.635 233.678 266.287 233.151 266.033 232.5C265.74 231.862 265.594 231.016 265.594 229.961C265.594 228.932 265.721 228.099 265.975 227.461C266.242 226.751 266.567 226.217 266.951 225.859C267.342 225.475 267.794 225.189 268.309 225C268.79 224.824 269.279 224.736 269.773 224.736C270.932 224.762 271.912 225.143 272.713 225.879C273.514 226.628 273.927 227.676 273.953 229.023V230.703H267.635C267.635 231.517 267.869 232.135 268.338 232.559C268.787 232.988 269.36 233.203 270.057 233.203C270.883 233.203 271.622 232.874 272.273 232.217L273.758 233.477C272.703 234.583 271.482 235.13 270.096 235.117ZM271.912 229.023C271.886 228.249 271.674 227.653 271.277 227.236C270.887 226.852 270.385 226.66 269.773 226.66C269.161 226.66 268.66 226.852 268.27 227.236C267.885 227.653 267.674 228.249 267.635 229.023H271.912ZM270.486 223.281H272.654V221.123H270.486V223.281ZM266.971 223.281H269.129V221.123H266.971V223.281ZM275.076 233.115H275.516C275.698 233.115 275.848 233.102 275.965 233.076C276.089 233.05 276.189 233.008 276.268 232.949C276.352 232.891 276.424 232.809 276.482 232.705C276.541 232.594 276.606 232.451 276.678 232.275L277.137 231.035C277.28 230.664 277.459 230.371 277.674 230.156C277.889 229.935 278.169 229.769 278.514 229.658C278.286 229.58 278.074 229.456 277.879 229.287C277.69 229.111 277.54 228.87 277.43 228.564L277.098 227.559C277.026 227.37 276.961 227.22 276.902 227.109C276.844 226.999 276.769 226.914 276.678 226.855C276.593 226.79 276.486 226.748 276.355 226.729C276.232 226.709 276.072 226.699 275.877 226.699H275.555V224.863H276.258C276.909 224.863 277.42 224.997 277.791 225.264C278.169 225.531 278.468 225.97 278.689 226.582L279.178 227.939C279.282 228.219 279.458 228.447 279.705 228.623C279.952 228.792 280.249 228.877 280.594 228.877H281.15V224.863H283.191V228.877H283.738C284.096 228.877 284.399 228.792 284.646 228.623C284.894 228.447 285.07 228.219 285.174 227.939L285.652 226.582C285.88 225.97 286.176 225.531 286.541 225.264C286.912 224.997 287.43 224.863 288.094 224.863H288.777V226.699H288.475C288.273 226.699 288.104 226.709 287.967 226.729C287.837 226.748 287.732 226.79 287.654 226.855C287.576 226.914 287.505 226.999 287.439 227.109C287.381 227.22 287.319 227.37 287.254 227.559L286.893 228.564C286.788 228.87 286.639 229.111 286.443 229.287C286.248 229.456 286.036 229.58 285.809 229.658C286.16 229.769 286.44 229.935 286.648 230.156C286.863 230.371 287.046 230.664 287.195 231.035L287.674 232.275C287.739 232.451 287.801 232.594 287.859 232.705C287.924 232.809 287.996 232.891 288.074 232.949C288.152 233.008 288.247 233.05 288.357 233.076C288.475 233.102 288.628 233.115 288.816 233.115H289.275V235H288.533C288.175 235 287.859 234.967 287.586 234.902C287.312 234.837 287.075 234.736 286.873 234.6C286.671 234.456 286.492 234.268 286.336 234.033C286.186 233.799 286.046 233.516 285.916 233.184L285.35 231.738C285.258 231.497 285.145 231.315 285.008 231.191C284.878 231.061 284.734 230.964 284.578 230.898C284.428 230.833 284.272 230.794 284.109 230.781C283.953 230.768 283.794 230.762 283.631 230.762H283.191V235H281.15V230.762H280.711C280.555 230.762 280.392 230.768 280.223 230.781C280.053 230.794 279.891 230.833 279.734 230.898C279.585 230.964 279.441 231.061 279.305 231.191C279.174 231.315 279.064 231.497 278.973 231.738L278.436 233.184C278.299 233.516 278.152 233.799 277.996 234.033C277.846 234.268 277.667 234.456 277.459 234.6C277.257 234.736 277.023 234.837 276.756 234.902C276.489 234.967 276.173 235 275.809 235H275.076V233.115ZM290.896 224.863H292.938V228.818H296.961V224.863H299.002V235H296.961V230.742H292.938V235H290.896V224.863ZM305.32 235.117C304.572 235.117 303.937 234.971 303.416 234.678C302.902 234.411 302.511 234.124 302.244 233.818C301.854 233.395 301.574 232.91 301.404 232.363C301.229 231.829 301.141 231.016 301.141 229.922C301.141 228.841 301.229 228.021 301.404 227.461C301.587 226.888 301.867 226.413 302.244 226.035C302.524 225.703 302.915 225.404 303.416 225.137C303.924 224.87 304.559 224.736 305.32 224.736C306.108 224.736 306.756 224.87 307.264 225.137C307.752 225.404 308.13 225.703 308.396 226.035C308.787 226.413 309.074 226.888 309.256 227.461C309.419 228.047 309.5 228.867 309.5 229.922C309.5 230.99 309.419 231.803 309.256 232.363C309.074 232.923 308.787 233.408 308.396 233.818C308.331 233.883 308.26 233.958 308.182 234.043C308.104 234.121 308.016 234.193 307.918 234.258C307.736 234.421 307.518 234.561 307.264 234.678C306.743 234.971 306.095 235.117 305.32 235.117ZM305.32 233.076C305.678 233.076 306.004 233.005 306.297 232.861C306.59 232.725 306.811 232.552 306.961 232.344C307.176 232.064 307.309 231.771 307.361 231.465C307.387 231.302 307.41 231.094 307.43 230.84C307.449 230.586 307.459 230.286 307.459 229.941C307.459 229.583 307.449 229.274 307.43 229.014C307.41 228.753 307.387 228.535 307.361 228.359C307.309 228.053 307.176 227.773 306.961 227.52C306.811 227.305 306.59 227.126 306.297 226.982C306.03 226.846 305.704 226.777 305.32 226.777C304.962 226.777 304.643 226.846 304.363 226.982C304.096 227.113 303.868 227.292 303.68 227.52C303.504 227.747 303.377 228.027 303.299 228.359C303.221 228.704 303.182 229.225 303.182 229.922C303.182 230.625 303.221 231.139 303.299 231.465C303.377 231.797 303.504 232.09 303.68 232.344C303.882 232.552 304.109 232.725 304.363 232.861C304.682 233.005 305.001 233.076 305.32 233.076ZM316.248 237.178H316.844C317.111 237.178 317.358 237.106 317.586 236.963C317.801 236.826 317.96 236.605 318.064 236.299L318.621 234.6L314.988 224.863H317.146L319.549 231.963H319.588L321.98 224.863H324.148L319.783 237.1C319.503 237.861 319.116 238.389 318.621 238.682C318.12 238.962 317.553 239.102 316.922 239.102H316.248V237.178ZM325.33 224.863H333.436V235H331.395V226.777H327.371V235H325.33V224.863ZM338.855 235.117C337.736 235.104 336.863 234.805 336.238 234.219C335.594 233.646 335.271 232.913 335.271 232.021C335.271 231.169 335.551 230.462 336.111 229.902C336.658 229.342 337.479 229.049 338.572 229.023H341.395V227.959C341.408 227.067 340.714 226.634 339.314 226.66C338.833 226.66 338.432 226.712 338.113 226.816C337.807 226.94 337.566 227.148 337.391 227.441L335.789 226.221C336.564 225.205 337.706 224.71 339.217 224.736C340.493 224.723 341.512 224.964 342.273 225.459C343.022 225.954 343.41 226.826 343.436 228.076V235H341.395V234.102H341.355C341.167 234.447 340.874 234.701 340.477 234.863C340.112 235.033 339.572 235.117 338.855 235.117ZM339.109 233.203C339.969 233.229 340.571 233.128 340.916 232.9C341.235 232.686 341.395 232.197 341.395 231.436V230.703H338.953C337.755 230.729 337.169 231.136 337.195 231.924C337.195 232.269 337.348 232.562 337.654 232.803C337.96 233.07 338.445 233.203 339.109 233.203ZM346.072 224.863H348.113V228.838H349.07C349.435 228.838 349.738 228.76 349.979 228.604C350.226 228.441 350.405 228.219 350.516 227.939L350.994 226.582C351.209 225.97 351.502 225.531 351.873 225.264C352.244 224.997 352.765 224.863 353.436 224.863H354.109V226.699H353.816C353.615 226.699 353.445 226.709 353.309 226.729C353.178 226.748 353.068 226.79 352.977 226.855C352.892 226.914 352.82 226.999 352.762 227.109C352.703 227.22 352.641 227.37 352.576 227.559L352.234 228.564C352.13 228.87 351.98 229.111 351.785 229.287C351.59 229.456 351.378 229.58 351.15 229.658C351.502 229.769 351.782 229.935 351.99 230.156C352.205 230.371 352.387 230.664 352.537 231.035L353.016 232.275C353.081 232.451 353.143 232.594 353.201 232.705C353.26 232.809 353.328 232.891 353.406 232.949C353.491 233.008 353.589 233.05 353.699 233.076C353.816 233.102 353.969 233.115 354.158 233.115H354.617V235H353.875C353.139 235 352.576 234.863 352.186 234.59C351.801 234.316 351.486 233.848 351.238 233.184L350.672 231.738C350.581 231.497 350.467 231.315 350.33 231.191C350.2 231.061 350.057 230.964 349.9 230.898C349.751 230.833 349.594 230.794 349.432 230.781C349.275 230.768 349.116 230.762 348.953 230.762H348.113V235H346.072V224.863ZM359.91 235.117C359.161 235.117 358.527 234.971 358.006 234.678C357.492 234.411 357.101 234.124 356.834 233.818C356.443 233.395 356.163 232.91 355.994 232.363C355.818 231.829 355.73 231.016 355.73 229.922C355.73 228.841 355.818 228.021 355.994 227.461C356.176 226.888 356.456 226.413 356.834 226.035C357.114 225.703 357.505 225.404 358.006 225.137C358.514 224.87 359.148 224.736 359.91 224.736C360.698 224.736 361.346 224.87 361.854 225.137C362.342 225.404 362.719 225.703 362.986 226.035C363.377 226.413 363.663 226.888 363.846 227.461C364.008 228.047 364.09 228.867 364.09 229.922C364.09 230.99 364.008 231.803 363.846 232.363C363.663 232.923 363.377 233.408 362.986 233.818C362.921 233.883 362.85 233.958 362.771 234.043C362.693 234.121 362.605 234.193 362.508 234.258C362.326 234.421 362.107 234.561 361.854 234.678C361.333 234.971 360.685 235.117 359.91 235.117ZM359.91 233.076C360.268 233.076 360.594 233.005 360.887 232.861C361.18 232.725 361.401 232.552 361.551 232.344C361.766 232.064 361.899 231.771 361.951 231.465C361.977 231.302 362 231.094 362.02 230.84C362.039 230.586 362.049 230.286 362.049 229.941C362.049 229.583 362.039 229.274 362.02 229.014C362 228.753 361.977 228.535 361.951 228.359C361.899 228.053 361.766 227.773 361.551 227.52C361.401 227.305 361.18 227.126 360.887 226.982C360.62 226.846 360.294 226.777 359.91 226.777C359.552 226.777 359.233 226.846 358.953 226.982C358.686 227.113 358.458 227.292 358.27 227.52C358.094 227.747 357.967 228.027 357.889 228.359C357.811 228.704 357.771 229.225 357.771 229.922C357.771 230.625 357.811 231.139 357.889 231.465C357.967 231.797 358.094 232.09 358.27 232.344C358.471 232.552 358.699 232.725 358.953 232.861C359.272 233.005 359.591 233.076 359.91 233.076ZM366.229 224.863H371.092C372.023 224.863 372.765 225.111 373.318 225.605C373.872 226.094 374.148 226.751 374.148 227.578C374.148 228.594 373.676 229.32 372.732 229.756C373.24 229.984 373.631 230.293 373.904 230.684C374.178 231.068 374.314 231.553 374.314 232.139C374.314 233.018 374.044 233.714 373.504 234.229C372.964 234.743 372.212 235 371.248 235H366.229V224.863ZM370.848 233.301C371.303 233.301 371.661 233.177 371.922 232.93C372.182 232.682 372.312 232.354 372.312 231.943C372.312 231.514 372.182 231.182 371.922 230.947C371.661 230.713 371.303 230.596 370.848 230.596H368.27V233.301H370.848ZM370.711 229.023C371.668 229.023 372.146 228.604 372.146 227.764C372.146 227.373 372.023 227.077 371.775 226.875C371.535 226.667 371.18 226.562 370.711 226.562H368.27V229.023H370.711ZM376.463 224.863H378.504V228.682H381.18C382.169 228.682 382.964 228.971 383.562 229.551C384.161 230.13 384.461 230.892 384.461 231.836C384.461 232.786 384.161 233.551 383.562 234.131C382.964 234.71 382.169 235 381.18 235H376.463V224.863ZM380.965 233.203C381.434 233.203 381.798 233.079 382.059 232.832C382.319 232.585 382.449 232.24 382.449 231.797C382.449 231.374 382.319 231.038 382.059 230.791C381.798 230.544 381.434 230.42 380.965 230.42H378.504V233.203H380.965ZM385.867 224.863H387.908V235H385.867V224.863ZM390.545 224.863H395.408C396.339 224.863 397.081 225.111 397.635 225.605C398.188 226.094 398.465 226.751 398.465 227.578C398.465 228.594 397.993 229.32 397.049 229.756C397.557 229.984 397.947 230.293 398.221 230.684C398.494 231.068 398.631 231.553 398.631 232.139C398.631 233.018 398.361 233.714 397.82 234.229C397.28 234.743 396.528 235 395.564 235H390.545V224.863ZM395.164 233.301C395.62 233.301 395.978 233.177 396.238 232.93C396.499 232.682 396.629 232.354 396.629 231.943C396.629 231.514 396.499 231.182 396.238 230.947C395.978 230.713 395.62 230.596 395.164 230.596H392.586V233.301H395.164ZM395.027 229.023C395.984 229.023 396.463 228.604 396.463 227.764C396.463 227.373 396.339 227.077 396.092 226.875C395.851 226.667 395.496 226.562 395.027 226.562H392.586V229.023H395.027ZM403.562 235.117C402.443 235.104 401.57 234.805 400.945 234.219C400.301 233.646 399.979 232.913 399.979 232.021C399.979 231.169 400.258 230.462 400.818 229.902C401.365 229.342 402.186 229.049 403.279 229.023H406.102V227.959C406.115 227.067 405.421 226.634 404.021 226.66C403.54 226.66 403.139 226.712 402.82 226.816C402.514 226.94 402.273 227.148 402.098 227.441L400.496 226.221C401.271 225.205 402.413 224.71 403.924 224.736C405.2 224.723 406.219 224.964 406.98 225.459C407.729 225.954 408.117 226.826 408.143 228.076V235H406.102V234.102H406.062C405.874 234.447 405.581 234.701 405.184 234.863C404.819 235.033 404.279 235.117 403.562 235.117ZM403.816 233.203C404.676 233.229 405.278 233.128 405.623 232.9C405.942 232.686 406.102 232.197 406.102 231.436V230.703H403.66C402.462 230.729 401.876 231.136 401.902 231.924C401.902 232.269 402.055 232.562 402.361 232.803C402.667 233.07 403.152 233.203 403.816 233.203ZM414.783 235.117C414.236 235.117 413.715 235.039 413.221 234.883C412.993 234.811 412.745 234.697 412.479 234.541C412.238 234.437 412 234.284 411.766 234.082C411.323 233.678 410.975 233.151 410.721 232.5C410.428 231.862 410.281 231.016 410.281 229.961C410.281 228.932 410.408 228.099 410.662 227.461C410.929 226.751 411.255 226.217 411.639 225.859C412.029 225.475 412.482 225.189 412.996 225C413.478 224.824 413.966 224.736 414.461 224.736C415.62 224.762 416.6 225.143 417.4 225.879C418.201 226.628 418.615 227.676 418.641 229.023V230.703H412.322C412.322 231.517 412.557 232.135 413.025 232.559C413.475 232.988 414.048 233.203 414.744 233.203C415.571 233.203 416.31 232.874 416.961 232.217L418.445 233.477C417.391 234.583 416.17 235.13 414.783 235.117ZM416.6 229.023C416.574 228.249 416.362 227.653 415.965 227.236C415.574 226.852 415.073 226.66 414.461 226.66C413.849 226.66 413.348 226.852 412.957 227.236C412.573 227.653 412.361 228.249 412.322 229.023H416.6ZM420.779 224.863H422.801L425.838 230.898L428.865 224.863H430.857V235H428.816V228.496L426.482 233.145H425.203L422.82 228.496V235H420.779V224.863ZM83.3184 250.863H85.3398L88.377 256.898L91.4043 250.863H93.3965V261H91.3555V254.496L89.0215 259.145H87.7422L85.3594 254.496V261H83.3184V250.863ZM95.1934 259.076H95.6523C95.9323 259.076 96.1536 259.04 96.3164 258.969C96.4857 258.897 96.6191 258.754 96.7168 258.539L97.0977 257.66C97.1628 257.471 97.2409 257.309 97.332 257.172C97.4297 257.029 97.5697 256.898 97.752 256.781C97.1139 256.671 96.6061 256.358 96.2285 255.844C95.8574 255.323 95.6719 254.682 95.6719 253.92C95.6719 252.963 95.9681 252.214 96.5605 251.674C97.1595 251.133 97.9635 250.863 98.9727 250.863H103.611V261H101.57V257.104H100.75C100.262 257.104 99.9004 257.178 99.666 257.328C99.4316 257.471 99.2201 257.768 99.0312 258.217L98.5723 259.34C98.4551 259.646 98.3216 259.903 98.1719 260.111C98.0286 260.32 97.8626 260.492 97.6738 260.629C97.485 260.759 97.2604 260.854 97 260.912C96.7461 260.971 96.4434 261 96.0918 261H95.1934V259.076ZM101.57 255.424V252.699H99.1973C98.6895 252.699 98.3086 252.823 98.0547 253.07C97.8008 253.318 97.6738 253.653 97.6738 254.076C97.6738 254.975 98.1816 255.424 99.1973 255.424H101.57ZM110.066 261.117C108.855 261.117 107.804 260.71 106.912 259.896C105.962 259.083 105.48 257.764 105.467 255.941C105.493 254.086 105.975 252.751 106.912 251.938C107.817 251.111 108.868 250.71 110.066 250.736C110.854 250.762 111.548 250.925 112.146 251.225C112.765 251.544 113.286 251.97 113.709 252.504L112.205 253.842C111.691 253.145 111.007 252.79 110.154 252.777C108.403 252.751 107.521 253.806 107.508 255.941C107.521 258.057 108.403 259.102 110.154 259.076C111.02 259.05 111.704 258.699 112.205 258.021L113.709 259.359C113.253 259.867 112.732 260.281 112.146 260.6C111.535 260.945 110.841 261.117 110.066 261.117ZM118.816 261.117C118.068 261.117 117.433 260.971 116.912 260.678C116.398 260.411 116.007 260.124 115.74 259.818C115.35 259.395 115.07 258.91 114.9 258.363C114.725 257.829 114.637 257.016 114.637 255.922C114.637 254.841 114.725 254.021 114.9 253.461C115.083 252.888 115.363 252.413 115.74 252.035C116.02 251.703 116.411 251.404 116.912 251.137C117.42 250.87 118.055 250.736 118.816 250.736C119.604 250.736 120.252 250.87 120.76 251.137C121.248 251.404 121.626 251.703 121.893 252.035C122.283 252.413 122.57 252.888 122.752 253.461C122.915 254.047 122.996 254.867 122.996 255.922C122.996 256.99 122.915 257.803 122.752 258.363C122.57 258.923 122.283 259.408 121.893 259.818C121.827 259.883 121.756 259.958 121.678 260.043C121.6 260.121 121.512 260.193 121.414 260.258C121.232 260.421 121.014 260.561 120.76 260.678C120.239 260.971 119.591 261.117 118.816 261.117ZM118.816 259.076C119.174 259.076 119.5 259.005 119.793 258.861C120.086 258.725 120.307 258.552 120.457 258.344C120.672 258.064 120.805 257.771 120.857 257.465C120.883 257.302 120.906 257.094 120.926 256.84C120.945 256.586 120.955 256.286 120.955 255.941C120.955 255.583 120.945 255.274 120.926 255.014C120.906 254.753 120.883 254.535 120.857 254.359C120.805 254.053 120.672 253.773 120.457 253.52C120.307 253.305 120.086 253.126 119.793 252.982C119.526 252.846 119.201 252.777 118.816 252.777C118.458 252.777 118.139 252.846 117.859 252.982C117.592 253.113 117.365 253.292 117.176 253.52C117 253.747 116.873 254.027 116.795 254.359C116.717 254.704 116.678 255.225 116.678 255.922C116.678 256.625 116.717 257.139 116.795 257.465C116.873 257.797 117 258.09 117.176 258.344C117.378 258.552 117.605 258.725 117.859 258.861C118.178 259.005 118.497 259.076 118.816 259.076ZM129.939 250.863H131.98V257.738L136.385 250.863H138.426V261H136.385V254.018L131.98 261H129.939V250.863ZM149.92 261.117C148.891 261.117 148.055 260.88 147.41 260.404C146.766 259.923 146.31 259.281 146.043 258.48C145.958 258.253 145.896 257.992 145.857 257.699C145.818 257.406 145.786 257.1 145.76 256.781C145.734 256.462 145.717 256.143 145.711 255.824C145.704 255.499 145.701 255.196 145.701 254.916V254.145C145.701 253.598 145.711 253.067 145.73 252.553C145.75 252.038 145.809 251.55 145.906 251.088C146.01 250.619 146.16 250.186 146.355 249.789C146.557 249.385 146.831 249.021 147.176 248.695C147.456 248.448 147.752 248.246 148.064 248.09C148.383 247.934 148.712 247.813 149.051 247.729C149.389 247.644 149.731 247.579 150.076 247.533C150.421 247.488 150.763 247.442 151.102 247.396C151.31 247.37 151.479 247.309 151.609 247.211C151.746 247.113 151.831 246.964 151.863 246.762H153.943C153.833 248.24 153.146 249.079 151.883 249.281C151.557 249.333 151.235 249.376 150.916 249.408C150.597 249.441 150.281 249.49 149.969 249.555C149.656 249.613 149.36 249.701 149.08 249.818C148.8 249.929 148.54 250.089 148.299 250.297C147.993 250.577 147.768 250.912 147.625 251.303C147.488 251.687 147.413 252.045 147.4 252.377H147.459C147.687 251.98 148.055 251.641 148.562 251.361C149.077 251.081 149.676 250.941 150.359 250.941C151.694 250.941 152.658 251.378 153.25 252.25C153.842 253.122 154.139 254.366 154.139 255.98C154.139 256.859 154.057 257.611 153.895 258.236C153.738 258.855 153.471 259.389 153.094 259.838C152.749 260.255 152.309 260.574 151.775 260.795C151.242 261.01 150.623 261.117 149.92 261.117ZM149.9 259.096C150.245 259.096 150.558 259.034 150.838 258.91C151.118 258.786 151.352 258.611 151.541 258.383C151.769 258.116 151.919 257.794 151.99 257.416C152.062 257.032 152.098 256.566 152.098 256.02C152.098 255.46 152.062 254.981 151.99 254.584C151.919 254.18 151.769 253.845 151.541 253.578C151.352 253.363 151.118 253.197 150.838 253.08C150.558 252.963 150.245 252.904 149.9 252.904C149.555 252.904 149.243 252.966 148.963 253.09C148.683 253.214 148.455 253.389 148.279 253.617C148.051 253.884 147.905 254.219 147.84 254.623C147.775 255.02 147.742 255.499 147.742 256.059C147.742 256.697 147.794 257.204 147.898 257.582C148.003 257.953 148.169 258.259 148.396 258.5C148.585 258.689 148.81 258.835 149.07 258.939C149.331 259.044 149.607 259.096 149.9 259.096ZM156.287 250.863H158.328V254.682H161.004C161.993 254.682 162.788 254.971 163.387 255.551C163.986 256.13 164.285 256.892 164.285 257.836C164.285 258.786 163.986 259.551 163.387 260.131C162.788 260.71 161.993 261 161.004 261H156.287V250.863ZM160.789 259.203C161.258 259.203 161.622 259.079 161.883 258.832C162.143 258.585 162.273 258.24 162.273 257.797C162.273 257.374 162.143 257.038 161.883 256.791C161.622 256.544 161.258 256.42 160.789 256.42H158.328V259.203H160.789ZM165.691 250.863H167.732V261H165.691V250.863ZM174.188 261.117C172.977 261.117 171.925 260.71 171.033 259.896C170.083 259.083 169.601 257.764 169.588 255.941C169.614 254.086 170.096 252.751 171.033 251.938C171.938 251.111 172.99 250.71 174.188 250.736C174.975 250.762 175.669 250.925 176.268 251.225C176.886 251.544 177.407 251.97 177.83 252.504L176.326 253.842C175.812 253.145 175.128 252.79 174.275 252.777C172.524 252.751 171.642 253.806 171.629 255.941C171.642 258.057 172.524 259.102 174.275 259.076C175.141 259.05 175.825 258.699 176.326 258.021L177.83 259.359C177.374 259.867 176.854 260.281 176.268 260.6C175.656 260.945 174.962 261.117 174.188 261.117ZM181.277 252.777H178.162V250.863H186.316V252.777H183.318V261H181.277V252.777ZM187.869 250.863H189.91V251.918C190.594 251.156 191.466 250.762 192.527 250.736C193.758 250.749 194.666 251.192 195.252 252.064C195.545 252.396 195.737 252.816 195.828 253.324C195.88 253.591 195.916 253.943 195.936 254.379C195.962 254.809 195.975 255.329 195.975 255.941C195.975 256.54 195.962 257.055 195.936 257.484C195.916 257.908 195.88 258.253 195.828 258.52C195.737 259.027 195.545 259.454 195.252 259.799C194.959 260.202 194.591 260.515 194.148 260.736C193.712 260.964 193.172 261.091 192.527 261.117C192.026 261.117 191.561 261.003 191.131 260.775C190.688 260.554 190.281 260.268 189.91 259.916V265.102H187.869V250.863ZM191.912 259.076C192.381 259.076 192.762 258.985 193.055 258.803C193.335 258.627 193.533 258.386 193.65 258.08C193.787 257.8 193.875 257.462 193.914 257.064C193.927 256.876 193.934 256.69 193.934 256.508C193.934 256.319 193.934 256.13 193.934 255.941C193.934 255.74 193.934 255.541 193.934 255.346C193.934 255.144 193.927 254.949 193.914 254.76C193.875 254.363 193.787 254.024 193.65 253.744C193.533 253.451 193.335 253.21 193.055 253.021C192.775 252.859 192.394 252.777 191.912 252.777C191.456 252.777 191.095 252.872 190.828 253.061C190.561 253.236 190.356 253.484 190.213 253.803C190.089 254.096 190.008 254.428 189.969 254.799C189.93 255.189 189.91 255.57 189.91 255.941C189.91 256.299 189.93 256.658 189.969 257.016C190.008 257.406 190.089 257.748 190.213 258.041C190.356 258.36 190.561 258.607 190.828 258.783C191.082 258.979 191.443 259.076 191.912 259.076ZM201.941 261.117C201.193 261.117 200.558 260.971 200.037 260.678C199.523 260.411 199.132 260.124 198.865 259.818C198.475 259.395 198.195 258.91 198.025 258.363C197.85 257.829 197.762 257.016 197.762 255.922C197.762 254.841 197.85 254.021 198.025 253.461C198.208 252.888 198.488 252.413 198.865 252.035C199.145 251.703 199.536 251.404 200.037 251.137C200.545 250.87 201.18 250.736 201.941 250.736C202.729 250.736 203.377 250.87 203.885 251.137C204.373 251.404 204.751 251.703 205.018 252.035C205.408 252.413 205.695 252.888 205.877 253.461C206.04 254.047 206.121 254.867 206.121 255.922C206.121 256.99 206.04 257.803 205.877 258.363C205.695 258.923 205.408 259.408 205.018 259.818C204.952 259.883 204.881 259.958 204.803 260.043C204.725 260.121 204.637 260.193 204.539 260.258C204.357 260.421 204.139 260.561 203.885 260.678C203.364 260.971 202.716 261.117 201.941 261.117ZM201.941 259.076C202.299 259.076 202.625 259.005 202.918 258.861C203.211 258.725 203.432 258.552 203.582 258.344C203.797 258.064 203.93 257.771 203.982 257.465C204.008 257.302 204.031 257.094 204.051 256.84C204.07 256.586 204.08 256.286 204.08 255.941C204.08 255.583 204.07 255.274 204.051 255.014C204.031 254.753 204.008 254.535 203.982 254.359C203.93 254.053 203.797 253.773 203.582 253.52C203.432 253.305 203.211 253.126 202.918 252.982C202.651 252.846 202.326 252.777 201.941 252.777C201.583 252.777 201.264 252.846 200.984 252.982C200.717 253.113 200.49 253.292 200.301 253.52C200.125 253.747 199.998 254.027 199.92 254.359C199.842 254.704 199.803 255.225 199.803 255.922C199.803 256.625 199.842 257.139 199.92 257.465C199.998 257.797 200.125 258.09 200.301 258.344C200.503 258.552 200.73 258.725 200.984 258.861C201.303 259.005 201.622 259.076 201.941 259.076ZM211.863 259.076H213.025C213.201 258.64 213.357 258.184 213.494 257.709C213.637 257.234 213.751 256.684 213.836 256.059C213.921 255.434 213.986 254.701 214.031 253.861C214.083 253.021 214.109 252.022 214.109 250.863H220.945V259.076H222.342V263.598H220.428V261H213.787V263.598H211.863V259.076ZM218.904 259.076V252.777H216.043C216.043 253.604 216.02 254.333 215.975 254.965C215.929 255.59 215.864 256.153 215.779 256.654C215.701 257.149 215.607 257.595 215.496 257.992C215.385 258.383 215.268 258.744 215.145 259.076H218.904ZM227.488 261.117C226.74 261.117 226.105 260.971 225.584 260.678C225.07 260.411 224.679 260.124 224.412 259.818C224.021 259.395 223.742 258.91 223.572 258.363C223.396 257.829 223.309 257.016 223.309 255.922C223.309 254.841 223.396 254.021 223.572 253.461C223.755 252.888 224.035 252.413 224.412 252.035C224.692 251.703 225.083 251.404 225.584 251.137C226.092 250.87 226.727 250.736 227.488 250.736C228.276 250.736 228.924 250.87 229.432 251.137C229.92 251.404 230.298 251.703 230.564 252.035C230.955 252.413 231.242 252.888 231.424 253.461C231.587 254.047 231.668 254.867 231.668 255.922C231.668 256.99 231.587 257.803 231.424 258.363C231.242 258.923 230.955 259.408 230.564 259.818C230.499 259.883 230.428 259.958 230.35 260.043C230.271 260.121 230.184 260.193 230.086 260.258C229.904 260.421 229.686 260.561 229.432 260.678C228.911 260.971 228.263 261.117 227.488 261.117ZM227.488 259.076C227.846 259.076 228.172 259.005 228.465 258.861C228.758 258.725 228.979 258.552 229.129 258.344C229.344 258.064 229.477 257.771 229.529 257.465C229.555 257.302 229.578 257.094 229.598 256.84C229.617 256.586 229.627 256.286 229.627 255.941C229.627 255.583 229.617 255.274 229.598 255.014C229.578 254.753 229.555 254.535 229.529 254.359C229.477 254.053 229.344 253.773 229.129 253.52C228.979 253.305 228.758 253.126 228.465 252.982C228.198 252.846 227.872 252.777 227.488 252.777C227.13 252.777 226.811 252.846 226.531 252.982C226.264 253.113 226.036 253.292 225.848 253.52C225.672 253.747 225.545 254.027 225.467 254.359C225.389 254.704 225.35 255.225 225.35 255.922C225.35 256.625 225.389 257.139 225.467 257.465C225.545 257.797 225.672 258.09 225.848 258.344C226.049 258.552 226.277 258.725 226.531 258.861C226.85 259.005 227.169 259.076 227.488 259.076ZM237.625 261.117C236.414 261.117 235.363 260.71 234.471 259.896C233.52 259.083 233.038 257.764 233.025 255.941C233.051 254.086 233.533 252.751 234.471 251.938C235.376 251.111 236.427 250.71 237.625 250.736C238.413 250.762 239.106 250.925 239.705 251.225C240.324 251.544 240.844 251.97 241.268 252.504L239.764 253.842C239.249 253.145 238.566 252.79 237.713 252.777C235.962 252.751 235.079 253.806 235.066 255.941C235.079 258.057 235.962 259.102 237.713 259.076C238.579 259.05 239.262 258.699 239.764 258.021L241.268 259.359C240.812 259.867 240.291 260.281 239.705 260.6C239.093 260.945 238.4 261.117 237.625 261.117ZM244.715 252.777H241.6V250.863H249.754V252.777H246.756V261H244.715V252.777ZM254.09 261.117C252.97 261.104 252.098 260.805 251.473 260.219C250.828 259.646 250.506 258.913 250.506 258.021C250.506 257.169 250.786 256.462 251.346 255.902C251.893 255.342 252.713 255.049 253.807 255.023H256.629V253.959C256.642 253.067 255.949 252.634 254.549 252.66C254.067 252.66 253.667 252.712 253.348 252.816C253.042 252.94 252.801 253.148 252.625 253.441L251.023 252.221C251.798 251.205 252.941 250.71 254.451 250.736C255.727 250.723 256.746 250.964 257.508 251.459C258.257 251.954 258.644 252.826 258.67 254.076V261H256.629V260.102H256.59C256.401 260.447 256.108 260.701 255.711 260.863C255.346 261.033 254.806 261.117 254.09 261.117ZM254.344 259.203C255.203 259.229 255.805 259.128 256.15 258.9C256.469 258.686 256.629 258.197 256.629 257.436V256.703H254.188C252.99 256.729 252.404 257.136 252.43 257.924C252.43 258.269 252.583 258.562 252.889 258.803C253.195 259.07 253.68 259.203 254.344 259.203ZM261.307 250.863H266.17C267.101 250.863 267.843 251.111 268.396 251.605C268.95 252.094 269.227 252.751 269.227 253.578C269.227 254.594 268.755 255.32 267.811 255.756C268.318 255.984 268.709 256.293 268.982 256.684C269.256 257.068 269.393 257.553 269.393 258.139C269.393 259.018 269.122 259.714 268.582 260.229C268.042 260.743 267.29 261 266.326 261H261.307V250.863ZM265.926 259.301C266.382 259.301 266.74 259.177 267 258.93C267.26 258.682 267.391 258.354 267.391 257.943C267.391 257.514 267.26 257.182 267 256.947C266.74 256.713 266.382 256.596 265.926 256.596H263.348V259.301H265.926ZM265.789 255.023C266.746 255.023 267.225 254.604 267.225 253.764C267.225 253.373 267.101 253.077 266.854 252.875C266.613 252.667 266.258 252.562 265.789 252.562H263.348V255.023H265.789ZM270.34 259.076H270.662C270.877 259.076 271.076 259.06 271.258 259.027C271.447 258.995 271.616 258.897 271.766 258.734C271.922 258.565 272.055 258.311 272.166 257.973C272.283 257.634 272.381 257.162 272.459 256.557C272.544 255.945 272.605 255.176 272.645 254.252C272.684 253.321 272.703 252.191 272.703 250.863H279.559V261H277.527V252.777H274.646C274.646 254.008 274.611 255.066 274.539 255.951C274.474 256.837 274.376 257.582 274.246 258.188C274.122 258.793 273.96 259.285 273.758 259.662C273.562 260.033 273.335 260.316 273.074 260.512C272.814 260.707 272.521 260.837 272.195 260.902C271.87 260.967 271.512 261 271.121 261H270.34V259.076ZM281.365 259.076H281.824C282.104 259.076 282.326 259.04 282.488 258.969C282.658 258.897 282.791 258.754 282.889 258.539L283.27 257.66C283.335 257.471 283.413 257.309 283.504 257.172C283.602 257.029 283.742 256.898 283.924 256.781C283.286 256.671 282.778 256.358 282.4 255.844C282.029 255.323 281.844 254.682 281.844 253.92C281.844 252.963 282.14 252.214 282.732 251.674C283.331 251.133 284.135 250.863 285.145 250.863H289.783V261H287.742V257.104H286.922C286.434 257.104 286.072 257.178 285.838 257.328C285.604 257.471 285.392 257.768 285.203 258.217L284.744 259.34C284.627 259.646 284.493 259.903 284.344 260.111C284.201 260.32 284.035 260.492 283.846 260.629C283.657 260.759 283.432 260.854 283.172 260.912C282.918 260.971 282.615 261 282.264 261H281.365V259.076ZM287.742 255.424V252.699H285.369C284.861 252.699 284.48 252.823 284.227 253.07C283.973 253.318 283.846 253.653 283.846 254.076C283.846 254.975 284.354 255.424 285.369 255.424H287.742ZM296.424 261.117C295.877 261.117 295.356 261.039 294.861 260.883C294.633 260.811 294.386 260.697 294.119 260.541C293.878 260.437 293.641 260.284 293.406 260.082C292.964 259.678 292.615 259.151 292.361 258.5C292.068 257.862 291.922 257.016 291.922 255.961C291.922 254.932 292.049 254.099 292.303 253.461C292.57 252.751 292.895 252.217 293.279 251.859C293.67 251.475 294.122 251.189 294.637 251C295.118 250.824 295.607 250.736 296.102 250.736C297.26 250.762 298.24 251.143 299.041 251.879C299.842 252.628 300.255 253.676 300.281 255.023V256.703H293.963C293.963 257.517 294.197 258.135 294.666 258.559C295.115 258.988 295.688 259.203 296.385 259.203C297.212 259.203 297.951 258.874 298.602 258.217L300.086 259.477C299.031 260.583 297.811 261.13 296.424 261.117ZM298.24 255.023C298.214 254.249 298.003 253.653 297.605 253.236C297.215 252.852 296.714 252.66 296.102 252.66C295.49 252.66 294.988 252.852 294.598 253.236C294.214 253.653 294.002 254.249 293.963 255.023H298.24ZM302.42 250.863H304.441L307.479 256.898L310.506 250.863H312.498V261H310.457V254.496L308.123 259.145H306.844L304.461 254.496V261H302.42V250.863ZM319.939 250.863H324.803C325.734 250.863 326.476 251.111 327.029 251.605C327.583 252.094 327.859 252.751 327.859 253.578C327.859 254.594 327.387 255.32 326.443 255.756C326.951 255.984 327.342 256.293 327.615 256.684C327.889 257.068 328.025 257.553 328.025 258.139C328.025 259.018 327.755 259.714 327.215 260.229C326.674 260.743 325.923 261 324.959 261H319.939V250.863ZM324.559 259.301C325.014 259.301 325.372 259.177 325.633 258.93C325.893 258.682 326.023 258.354 326.023 257.943C326.023 257.514 325.893 257.182 325.633 256.947C325.372 256.713 325.014 256.596 324.559 256.596H321.98V259.301H324.559ZM324.422 255.023C325.379 255.023 325.857 254.604 325.857 253.764C325.857 253.373 325.734 253.077 325.486 252.875C325.245 252.667 324.891 252.562 324.422 252.562H321.98V255.023H324.422ZM334.979 250.863H337L340.037 256.898L343.064 250.863H345.057V261H343.016V254.496L340.682 259.145H339.402L337.02 254.496V261H334.979V250.863ZM350.477 261.117C349.357 261.104 348.484 260.805 347.859 260.219C347.215 259.646 346.893 258.913 346.893 258.021C346.893 257.169 347.173 256.462 347.732 255.902C348.279 255.342 349.1 255.049 350.193 255.023H353.016V253.959C353.029 253.067 352.335 252.634 350.936 252.66C350.454 252.66 350.053 252.712 349.734 252.816C349.428 252.94 349.188 253.148 349.012 253.441L347.41 252.221C348.185 251.205 349.327 250.71 350.838 250.736C352.114 250.723 353.133 250.964 353.895 251.459C354.643 251.954 355.031 252.826 355.057 254.076V261H353.016V260.102H352.977C352.788 260.447 352.495 260.701 352.098 260.863C351.733 261.033 351.193 261.117 350.477 261.117ZM350.73 259.203C351.59 259.229 352.192 259.128 352.537 258.9C352.856 258.686 353.016 258.197 353.016 257.436V256.703H350.574C349.376 256.729 348.79 257.136 348.816 257.924C348.816 258.269 348.969 258.562 349.275 258.803C349.581 259.07 350.066 259.203 350.73 259.203ZM357.693 250.863H364.275V252.777H359.734V261H357.693V250.863ZM368.602 261.117C367.482 261.104 366.609 260.805 365.984 260.219C365.34 259.646 365.018 258.913 365.018 258.021C365.018 257.169 365.298 256.462 365.857 255.902C366.404 255.342 367.225 255.049 368.318 255.023H371.141V253.959C371.154 253.067 370.46 252.634 369.061 252.66C368.579 252.66 368.178 252.712 367.859 252.816C367.553 252.94 367.312 253.148 367.137 253.441L365.535 252.221C366.31 251.205 367.452 250.71 368.963 250.736C370.239 250.723 371.258 250.964 372.02 251.459C372.768 251.954 373.156 252.826 373.182 254.076V261H371.141V260.102H371.102C370.913 260.447 370.62 260.701 370.223 260.863C369.858 261.033 369.318 261.117 368.602 261.117ZM368.855 259.203C369.715 259.229 370.317 259.128 370.662 258.9C370.981 258.686 371.141 258.197 371.141 257.436V256.703H368.699C367.501 256.729 366.915 257.136 366.941 257.924C366.941 258.269 367.094 258.562 367.4 258.803C367.706 259.07 368.191 259.203 368.855 259.203ZM378.543 261.117C377.703 261.117 376.98 260.984 376.375 260.717C375.776 260.45 375.216 260.036 374.695 259.477L376.18 258.217C376.512 258.555 376.847 258.806 377.186 258.969C377.531 259.125 377.983 259.203 378.543 259.203C379.168 259.203 379.669 259.089 380.047 258.861C380.431 258.633 380.623 258.298 380.623 257.855C380.623 257.419 380.48 257.113 380.193 256.938C379.907 256.755 379.461 256.664 378.855 256.664H377.381V254.984H378.885C379.373 254.984 379.764 254.877 380.057 254.662C380.35 254.447 380.496 254.148 380.496 253.764C380.496 253.373 380.327 253.09 379.988 252.914C379.65 252.732 379.168 252.641 378.543 252.641C378.126 252.641 377.716 252.712 377.312 252.855C376.915 252.992 376.557 253.214 376.238 253.52L374.783 252.26C375.024 252.019 375.268 251.807 375.516 251.625C375.77 251.436 376.049 251.277 376.355 251.146C376.668 251.01 377.016 250.909 377.4 250.844C377.785 250.772 378.23 250.736 378.738 250.736C379.285 250.736 379.799 250.782 380.281 250.873C380.763 250.958 381.176 251.127 381.521 251.381C381.84 251.609 382.081 251.908 382.244 252.279C382.413 252.65 382.498 253.051 382.498 253.48C382.498 253.975 382.368 254.424 382.107 254.828C381.847 255.225 381.486 255.515 381.023 255.697C381.512 255.886 381.906 256.189 382.205 256.605C382.511 257.016 382.664 257.501 382.664 258.061C382.664 258.581 382.54 259.066 382.293 259.516C382.046 259.958 381.694 260.313 381.238 260.58C380.893 260.795 380.486 260.938 380.018 261.01C379.555 261.081 379.064 261.117 378.543 261.117ZM384.803 250.863H386.844V257.738L391.248 250.863H393.289V261H391.248V254.018L386.844 261H384.803V250.863ZM395.936 250.863H397.977V254.818H402V250.863H404.041V261H402V256.742H397.977V261H395.936V250.863ZM406.678 250.863H408.719V254.682H411.395C412.384 254.682 413.178 254.971 413.777 255.551C414.376 256.13 414.676 256.892 414.676 257.836C414.676 258.786 414.376 259.551 413.777 260.131C413.178 260.71 412.384 261 411.395 261H406.678V250.863ZM411.18 259.203C411.648 259.203 412.013 259.079 412.273 258.832C412.534 258.585 412.664 258.24 412.664 257.797C412.664 257.374 412.534 257.038 412.273 256.791C412.013 256.544 411.648 256.42 411.18 256.42H408.719V259.203H411.18ZM416.082 250.863H418.123V261H416.082V250.863Z" fill="white"/>
<path d="M481.862 80.9944L492.297 57.3297C493.04 55.6449 495.472 55.7743 496.032 57.5283L503.476 80.8411C503.722 81.61 504.405 82.156 505.21 82.2253L531.646 84.5047C533.679 84.6799 534.175 87.4291 532.332 88.3041L507.29 100.191C506.374 100.626 505.928 101.679 506.254 102.64L515.194 129.023C515.835 130.916 513.61 132.476 512.05 131.227L491.1 114.457C490.404 113.9 489.423 113.871 488.695 114.386L465.032 131.131C463.356 132.317 461.195 130.509 462.066 128.65L473.834 103.521C474.276 102.578 473.92 101.453 473.015 100.936L449.828 87.6847C448.102 86.6983 448.716 84.071 450.7 83.9518L480.152 82.1839C480.9 82.139 481.56 81.6799 481.862 80.9944Z" fill="#8784D6"/>
</svg>
