<svg width="580" height="349" viewBox="0 0 580 349" fill="none" xmlns="http://www.w3.org/2000/svg">
<path d="M580 42.706C580 31.9753 571.532 23.1569 560.81 22.7225L20.8097 0.843151C9.45569 0.383118 0 9.46343 0 20.8268V327.016C0 338.625 9.84998 347.795 21.4286 346.965L561.429 308.293C571.893 307.544 580 298.836 580 288.344V42.706Z" fill="#462B74"/>
<path d="M52.456 119.5V68.236H63.472C65.488 68.236 67.264 68.5 68.8 69.028C70.336 69.556 71.728 70.492 72.976 71.836C74.224 73.18 75.088 74.764 75.568 76.588C76.048 78.364 76.288 80.788 76.288 83.86C76.288 86.164 76.144 88.108 75.856 89.692C75.616 91.276 75.064 92.764 74.2 94.156C73.192 95.836 71.848 97.156 70.168 98.116C68.488 99.028 66.28 99.484 63.544 99.484H59.8V119.5H52.456ZM59.8 75.148V92.572H63.328C64.816 92.572 65.968 92.356 66.784 91.924C67.6 91.492 68.2 90.892 68.584 90.124C68.968 89.404 69.184 88.516 69.232 87.46C69.328 86.404 69.376 85.228 69.376 83.932C69.376 82.732 69.352 81.604 69.304 80.548C69.256 79.444 69.04 78.484 68.656 77.668C68.272 76.852 67.696 76.228 66.928 75.796C66.16 75.364 65.056 75.148 63.616 75.148H59.8ZM93.2164 101.572L89.6164 82.996H89.4724L85.8724 101.572H93.2164ZM75.0724 119.5L86.5204 68.236H92.6404L104.088 119.5H96.7444L94.5844 108.484H84.5764L82.4164 119.5H75.0724ZM105.346 81.196C105.346 79.756 105.634 78.124 106.21 76.3C106.834 74.476 107.77 72.916 109.018 71.62C110.122 70.516 111.37 69.604 112.762 68.884C114.154 68.164 115.762 67.804 117.586 67.804C119.746 67.804 121.594 68.188 123.13 68.956C124.714 69.676 126.01 70.66 127.018 71.908C128.074 73.156 128.842 74.644 129.322 76.372C129.802 78.1 130.042 79.924 130.042 81.844C130.042 82.804 130.018 83.788 129.97 84.796C129.922 85.756 129.73 86.74 129.394 87.748C129.106 88.708 128.602 89.62 127.882 90.484C127.21 91.348 126.226 92.14 124.93 92.86C126.226 93.388 127.21 94.084 127.882 94.948C128.602 95.764 129.106 96.7 129.394 97.756C129.73 98.764 129.922 99.892 129.97 101.14C130.018 102.34 130.042 103.588 130.042 104.884C130.042 107.044 129.802 109.06 129.322 110.932C128.89 112.804 128.146 114.364 127.09 115.612C126.034 116.86 124.69 117.892 123.058 118.708C121.474 119.524 119.506 119.932 117.154 119.932C115.378 119.932 113.722 119.62 112.186 118.996C110.65 118.372 109.33 117.508 108.226 116.404C107.122 115.3 106.282 113.884 105.706 112.156C105.13 110.428 104.842 108.7 104.842 106.972V105.028H112.186L112.258 107.044C112.258 107.716 112.33 108.388 112.474 109.06C112.666 109.684 112.954 110.26 113.338 110.788C113.722 111.316 114.226 111.748 114.85 112.084C115.474 112.42 116.266 112.588 117.226 112.588C119.386 112.588 120.826 111.916 121.546 110.572C122.314 109.18 122.698 107.308 122.698 104.956C122.698 103.612 122.65 102.364 122.554 101.212C122.458 100.012 122.218 99.076 121.834 98.404C120.97 96.916 119.53 96.172 117.514 96.172H114.706V89.692H117.73C118.642 89.692 119.458 89.524 120.178 89.188C120.898 88.852 121.474 88.276 121.906 87.46C122.29 86.692 122.506 85.78 122.554 84.724C122.65 83.668 122.698 82.732 122.698 81.916C122.698 81.052 122.626 80.212 122.482 79.396C122.338 78.532 122.074 77.788 121.69 77.164C121.306 76.588 120.778 76.108 120.106 75.724C119.482 75.34 118.666 75.148 117.658 75.148C116.746 75.148 115.978 75.316 115.354 75.652C114.778 75.988 114.298 76.42 113.914 76.948C113.482 77.524 113.17 78.268 112.978 79.18C112.786 80.092 112.69 80.98 112.69 81.844V82.996H105.346V81.196ZM136.288 119.5V68.236H143.632V90.196H152.704V68.236H160.048V119.5H152.704V96.676H143.632V119.5H136.288ZM165.792 80.332C165.792 78.268 166.152 76.444 166.872 74.86C167.592 73.276 168.552 71.956 169.752 70.9C170.904 69.892 172.2 69.124 173.64 68.596C175.128 68.068 176.616 67.804 178.104 67.804C179.592 67.804 181.056 68.068 182.496 68.596C183.984 69.124 185.328 69.892 186.528 70.9C187.68 71.956 188.616 73.276 189.336 74.86C190.056 76.444 190.416 78.268 190.416 80.332V107.404C190.416 109.564 190.056 111.412 189.336 112.948C188.616 114.484 187.68 115.756 186.528 116.764C185.328 117.82 183.984 118.612 182.496 119.14C181.056 119.668 179.592 119.932 178.104 119.932C176.616 119.932 175.128 119.668 173.64 119.14C172.2 118.612 170.904 117.82 169.752 116.764C168.552 115.756 167.592 114.484 166.872 112.948C166.152 111.412 165.792 109.564 165.792 107.404V80.332ZM173.136 107.404C173.136 109.18 173.616 110.5 174.576 111.364C175.584 112.18 176.76 112.588 178.104 112.588C179.448 112.588 180.6 112.18 181.56 111.364C182.568 110.5 183.072 109.18 183.072 107.404V80.332C183.072 78.556 182.568 77.26 181.56 76.444C180.6 75.58 179.448 75.148 178.104 75.148C176.76 75.148 175.584 75.58 174.576 76.444C173.616 77.26 173.136 78.556 173.136 80.332V107.404ZM195.729 80.332C195.729 78.268 196.089 76.444 196.809 74.86C197.529 73.276 198.489 71.956 199.689 70.9C200.841 69.892 202.137 69.124 203.577 68.596C205.065 68.068 206.553 67.804 208.041 67.804C209.529 67.804 210.993 68.068 212.433 68.596C213.921 69.124 215.265 69.892 216.465 70.9C217.617 71.956 218.553 73.276 219.273 74.86C219.993 76.444 220.353 78.268 220.353 80.332V107.404C220.353 109.564 219.993 111.412 219.273 112.948C218.553 114.484 217.617 115.756 216.465 116.764C215.265 117.82 213.921 118.612 212.433 119.14C210.993 119.668 209.529 119.932 208.041 119.932C206.553 119.932 205.065 119.668 203.577 119.14C202.137 118.612 200.841 117.82 199.689 116.764C198.489 115.756 197.529 114.484 196.809 112.948C196.089 111.412 195.729 109.564 195.729 107.404V80.332ZM203.073 107.404C203.073 109.18 203.553 110.5 204.513 111.364C205.521 112.18 206.697 112.588 208.041 112.588C209.385 112.588 210.537 112.18 211.497 111.364C212.505 110.5 213.009 109.18 213.009 107.404V80.332C213.009 78.556 212.505 77.26 211.497 76.444C210.537 75.58 209.385 75.148 208.041 75.148C206.697 75.148 205.521 75.58 204.513 76.444C203.553 77.26 203.073 78.556 203.073 80.332V107.404ZM226.097 68.236H247.121V75.148H233.441V89.26H236.321C238.865 89.26 240.977 89.596 242.657 90.268C244.385 90.94 245.777 91.9 246.833 93.148C247.937 94.492 248.633 95.956 248.921 97.54C249.209 99.076 249.377 100.78 249.425 102.652V105.532C249.425 110.044 248.321 113.5 246.113 115.9C243.953 118.3 240.473 119.5 235.673 119.5H226.097V68.236ZM233.441 95.74V112.156H236.177C237.665 112.156 238.817 111.94 239.633 111.508C240.497 111.076 241.145 110.476 241.577 109.708C242.009 108.94 242.273 108.028 242.369 106.972C242.465 105.916 242.513 104.764 242.513 103.516C242.513 102.22 242.417 101.092 242.225 100.132C242.081 99.124 241.769 98.308 241.289 97.684C240.809 97.06 240.185 96.58 239.417 96.244C238.649 95.908 237.593 95.74 236.249 95.74H233.441ZM254.486 119.5V68.236H265.502C267.518 68.236 269.294 68.5 270.83 69.028C272.366 69.556 273.758 70.492 275.006 71.836C276.254 73.18 277.118 74.764 277.598 76.588C278.078 78.364 278.318 80.788 278.318 83.86C278.318 86.164 278.174 88.108 277.886 89.692C277.646 91.276 277.094 92.764 276.23 94.156C275.222 95.836 273.878 97.156 272.198 98.116C270.518 99.028 268.31 99.484 265.574 99.484H261.83V119.5H254.486ZM261.83 75.148V92.572H265.358C266.846 92.572 267.998 92.356 268.814 91.924C269.63 91.492 270.23 90.892 270.614 90.124C270.998 89.404 271.214 88.516 271.262 87.46C271.358 86.404 271.406 85.228 271.406 83.932C271.406 82.732 271.382 81.604 271.334 80.548C271.286 79.444 271.07 78.484 270.686 77.668C270.302 76.852 269.726 76.228 268.958 75.796C268.19 75.364 267.086 75.148 265.646 75.148H261.83ZM295.247 101.572L291.647 82.996H291.503L287.903 101.572H295.247ZM277.103 119.5L288.551 68.236H294.671L306.119 119.5H298.775L296.615 108.484H286.607L284.447 119.5H277.103ZM307.376 81.196C307.376 79.756 307.664 78.124 308.24 76.3C308.864 74.476 309.8 72.916 311.048 71.62C312.152 70.516 313.4 69.604 314.792 68.884C316.184 68.164 317.792 67.804 319.616 67.804C321.776 67.804 323.624 68.188 325.16 68.956C326.744 69.676 328.04 70.66 329.048 71.908C330.104 73.156 330.872 74.644 331.352 76.372C331.832 78.1 332.072 79.924 332.072 81.844C332.072 82.804 332.048 83.788 332 84.796C331.952 85.756 331.76 86.74 331.424 87.748C331.136 88.708 330.632 89.62 329.912 90.484C329.24 91.348 328.256 92.14 326.96 92.86C328.256 93.388 329.24 94.084 329.912 94.948C330.632 95.764 331.136 96.7 331.424 97.756C331.76 98.764 331.952 99.892 332 101.14C332.048 102.34 332.072 103.588 332.072 104.884C332.072 107.044 331.832 109.06 331.352 110.932C330.92 112.804 330.176 114.364 329.12 115.612C328.064 116.86 326.72 117.892 325.088 118.708C323.504 119.524 321.536 119.932 319.184 119.932C317.408 119.932 315.752 119.62 314.216 118.996C312.68 118.372 311.36 117.508 310.256 116.404C309.152 115.3 308.312 113.884 307.736 112.156C307.16 110.428 306.872 108.7 306.872 106.972V105.028H314.216L314.288 107.044C314.288 107.716 314.36 108.388 314.504 109.06C314.696 109.684 314.984 110.26 315.368 110.788C315.752 111.316 316.256 111.748 316.88 112.084C317.504 112.42 318.296 112.588 319.256 112.588C321.416 112.588 322.856 111.916 323.576 110.572C324.344 109.18 324.728 107.308 324.728 104.956C324.728 103.612 324.68 102.364 324.584 101.212C324.488 100.012 324.248 99.076 323.864 98.404C323 96.916 321.56 96.172 319.544 96.172H316.736V89.692H319.76C320.672 89.692 321.488 89.524 322.208 89.188C322.928 88.852 323.504 88.276 323.936 87.46C324.32 86.692 324.536 85.78 324.584 84.724C324.68 83.668 324.728 82.732 324.728 81.916C324.728 81.052 324.656 80.212 324.512 79.396C324.368 78.532 324.104 77.788 323.72 77.164C323.336 76.588 322.808 76.108 322.136 75.724C321.512 75.34 320.696 75.148 319.688 75.148C318.776 75.148 318.008 75.316 317.384 75.652C316.808 75.988 316.328 76.42 315.944 76.948C315.512 77.524 315.2 78.268 315.008 79.18C314.816 80.092 314.72 80.98 314.72 81.844V82.996H307.376V81.196ZM355.454 119.5V86.236H355.31L345.662 119.5H338.318V68.236H345.662V101.572H345.806L355.454 68.236H362.798V119.5H355.454ZM368.958 119.5V68.236H390.846V75.148H376.302V90.196H388.974V97.108H376.302V112.156H390.846V119.5H368.958Z" fill="white"/>
<path d="M55.4648 178.459H56.4805C56.9036 178.459 57.2357 178.368 57.4766 178.186C57.7174 177.997 57.9193 177.707 58.082 177.316L58.5801 176.164L54.0195 166.262H56.3438L59.7031 173.84L62.7598 166.262H65.0352L59.9375 178.176C59.6576 178.833 59.2799 179.387 58.8047 179.836C58.3359 180.279 57.7142 180.5 56.9395 180.5H55.4648V178.459ZM71.1973 170.363H73.2383V174.318H77.2617V170.363H79.3027V180.5H77.2617V176.242H73.2383V180.5H71.1973V170.363ZM84.7227 180.617C83.6029 180.604 82.7305 180.305 82.1055 179.719C81.4609 179.146 81.1387 178.413 81.1387 177.521C81.1387 176.669 81.4186 175.962 81.9785 175.402C82.5254 174.842 83.3457 174.549 84.4395 174.523H87.2617V173.459C87.2747 172.567 86.5814 172.134 85.1816 172.16C84.6999 172.16 84.2995 172.212 83.9805 172.316C83.6745 172.44 83.4336 172.648 83.2578 172.941L81.6562 171.721C82.431 170.705 83.5736 170.21 85.084 170.236C86.36 170.223 87.3789 170.464 88.1406 170.959C88.8893 171.454 89.2767 172.326 89.3027 173.576V180.5H87.2617V179.602H87.2227C87.0339 179.947 86.7409 180.201 86.3438 180.363C85.9792 180.533 85.4388 180.617 84.7227 180.617ZM84.9766 178.703C85.8359 178.729 86.4382 178.628 86.7832 178.4C87.1022 178.186 87.2617 177.697 87.2617 176.936V176.203H84.8203C83.6224 176.229 83.0365 176.636 83.0625 177.424C83.0625 177.769 83.2155 178.062 83.5215 178.303C83.8275 178.57 84.3125 178.703 84.9766 178.703ZM95.7578 180.617C94.5469 180.617 93.4954 180.21 92.6035 179.396C91.653 178.583 91.1712 177.264 91.1582 175.441C91.1842 173.586 91.666 172.251 92.6035 171.438C93.5085 170.611 94.5599 170.21 95.7578 170.236C96.5456 170.262 97.2389 170.425 97.8379 170.725C98.4564 171.044 98.9772 171.47 99.4004 172.004L97.8965 173.342C97.3822 172.645 96.6986 172.29 95.8457 172.277C94.0944 172.251 93.2122 173.306 93.1992 175.441C93.2122 177.557 94.0944 178.602 95.8457 178.576C96.7116 178.55 97.3952 178.199 97.8965 177.521L99.4004 178.859C98.9447 179.367 98.4238 179.781 97.8379 180.1C97.2259 180.445 96.5326 180.617 95.7578 180.617ZM109.635 180.617C109.088 180.617 108.567 180.539 108.072 180.383C107.844 180.311 107.597 180.197 107.33 180.041C107.089 179.937 106.852 179.784 106.617 179.582C106.174 179.178 105.826 178.651 105.572 178C105.279 177.362 105.133 176.516 105.133 175.461C105.133 174.432 105.26 173.599 105.514 172.961C105.781 172.251 106.106 171.717 106.49 171.359C106.881 170.975 107.333 170.689 107.848 170.5C108.329 170.324 108.818 170.236 109.312 170.236C110.471 170.262 111.451 170.643 112.252 171.379C113.053 172.128 113.466 173.176 113.492 174.523V176.203H107.174C107.174 177.017 107.408 177.635 107.877 178.059C108.326 178.488 108.899 178.703 109.596 178.703C110.423 178.703 111.161 178.374 111.812 177.717L113.297 178.977C112.242 180.083 111.021 180.63 109.635 180.617ZM111.451 174.523C111.425 173.749 111.214 173.153 110.816 172.736C110.426 172.352 109.924 172.16 109.312 172.16C108.701 172.16 108.199 172.352 107.809 172.736C107.424 173.153 107.213 173.749 107.174 174.523H111.451ZM119.449 180.617C118.238 180.617 117.187 180.21 116.295 179.396C115.344 178.583 114.863 177.264 114.85 175.441C114.876 173.586 115.357 172.251 116.295 171.438C117.2 170.611 118.251 170.21 119.449 170.236C120.237 170.262 120.93 170.425 121.529 170.725C122.148 171.044 122.669 171.47 123.092 172.004L121.588 173.342C121.074 172.645 120.39 172.29 119.537 172.277C117.786 172.251 116.904 173.306 116.891 175.441C116.904 177.557 117.786 178.602 119.537 178.576C120.403 178.55 121.087 178.199 121.588 177.521L123.092 178.859C122.636 179.367 122.115 179.781 121.529 180.1C120.917 180.445 120.224 180.617 119.449 180.617ZM126.539 172.277H123.424V170.363H131.578V172.277H128.58V180.5H126.539V172.277ZM133.131 170.363H135.172V174.182H137.848C138.837 174.182 139.632 174.471 140.23 175.051C140.829 175.63 141.129 176.392 141.129 177.336C141.129 178.286 140.829 179.051 140.23 179.631C139.632 180.21 138.837 180.5 137.848 180.5H133.131V170.363ZM137.633 178.703C138.102 178.703 138.466 178.579 138.727 178.332C138.987 178.085 139.117 177.74 139.117 177.297C139.117 176.874 138.987 176.538 138.727 176.291C138.466 176.044 138.102 175.92 137.633 175.92H135.172V178.703H137.633ZM146.578 178.576H147.74C147.916 178.14 148.072 177.684 148.209 177.209C148.352 176.734 148.466 176.184 148.551 175.559C148.635 174.934 148.701 174.201 148.746 173.361C148.798 172.521 148.824 171.522 148.824 170.363H155.66V178.576H157.057V183.098H155.143V180.5H148.502V183.098H146.578V178.576ZM153.619 178.576V172.277H150.758C150.758 173.104 150.735 173.833 150.689 174.465C150.644 175.09 150.579 175.653 150.494 176.154C150.416 176.649 150.322 177.095 150.211 177.492C150.1 177.883 149.983 178.244 149.859 178.576H153.619ZM162.525 180.617C161.979 180.617 161.458 180.539 160.963 180.383C160.735 180.311 160.488 180.197 160.221 180.041C159.98 179.937 159.742 179.784 159.508 179.582C159.065 179.178 158.717 178.651 158.463 178C158.17 177.362 158.023 176.516 158.023 175.461C158.023 174.432 158.15 173.599 158.404 172.961C158.671 172.251 158.997 171.717 159.381 171.359C159.771 170.975 160.224 170.689 160.738 170.5C161.22 170.324 161.708 170.236 162.203 170.236C163.362 170.262 164.342 170.643 165.143 171.379C165.943 172.128 166.357 173.176 166.383 174.523V176.203H160.064C160.064 177.017 160.299 177.635 160.768 178.059C161.217 178.488 161.79 178.703 162.486 178.703C163.313 178.703 164.052 178.374 164.703 177.717L166.188 178.977C165.133 180.083 163.912 180.63 162.525 180.617ZM164.342 174.523C164.316 173.749 164.104 173.153 163.707 172.736C163.316 172.352 162.815 172.16 162.203 172.16C161.591 172.16 161.09 172.352 160.699 172.736C160.315 173.153 160.104 173.749 160.064 174.523H164.342ZM172.34 180.617C171.129 180.617 170.077 180.21 169.186 179.396C168.235 178.583 167.753 177.264 167.74 175.441C167.766 173.586 168.248 172.251 169.186 171.438C170.09 170.611 171.142 170.21 172.34 170.236C173.128 170.262 173.821 170.425 174.42 170.725C175.038 171.044 175.559 171.47 175.982 172.004L174.479 173.342C173.964 172.645 173.281 172.29 172.428 172.277C170.676 172.251 169.794 173.306 169.781 175.441C169.794 177.557 170.676 178.602 172.428 178.576C173.294 178.55 173.977 178.199 174.479 177.521L175.982 178.859C175.527 179.367 175.006 179.781 174.42 180.1C173.808 180.445 173.115 180.617 172.34 180.617ZM176.568 178.576H177.027C177.307 178.576 177.529 178.54 177.691 178.469C177.861 178.397 177.994 178.254 178.092 178.039L178.473 177.16C178.538 176.971 178.616 176.809 178.707 176.672C178.805 176.529 178.945 176.398 179.127 176.281C178.489 176.171 177.981 175.858 177.604 175.344C177.232 174.823 177.047 174.182 177.047 173.42C177.047 172.463 177.343 171.714 177.936 171.174C178.535 170.633 179.339 170.363 180.348 170.363H184.986V180.5H182.945V176.604H182.125C181.637 176.604 181.275 176.678 181.041 176.828C180.807 176.971 180.595 177.268 180.406 177.717L179.947 178.84C179.83 179.146 179.697 179.403 179.547 179.611C179.404 179.82 179.238 179.992 179.049 180.129C178.86 180.259 178.635 180.354 178.375 180.412C178.121 180.471 177.818 180.5 177.467 180.5H176.568V178.576ZM182.945 174.924V172.199H180.572C180.064 172.199 179.684 172.323 179.43 172.57C179.176 172.818 179.049 173.153 179.049 173.576C179.049 174.475 179.557 174.924 180.572 174.924H182.945ZM189.645 172.277H186.529V170.363H194.684V172.277H191.686V180.5H189.645V172.277ZM196.236 170.363H198.277V174.338H199.234C199.599 174.338 199.902 174.26 200.143 174.104C200.39 173.941 200.569 173.719 200.68 173.439L201.158 172.082C201.373 171.47 201.666 171.031 202.037 170.764C202.408 170.497 202.929 170.363 203.6 170.363H204.273V172.199H203.98C203.779 172.199 203.609 172.209 203.473 172.229C203.342 172.248 203.232 172.29 203.141 172.355C203.056 172.414 202.984 172.499 202.926 172.609C202.867 172.72 202.805 172.87 202.74 173.059L202.398 174.064C202.294 174.37 202.145 174.611 201.949 174.787C201.754 174.956 201.542 175.08 201.314 175.158C201.666 175.269 201.946 175.435 202.154 175.656C202.369 175.871 202.551 176.164 202.701 176.535L203.18 177.775C203.245 177.951 203.307 178.094 203.365 178.205C203.424 178.309 203.492 178.391 203.57 178.449C203.655 178.508 203.753 178.55 203.863 178.576C203.98 178.602 204.133 178.615 204.322 178.615H204.781V180.5H204.039C203.303 180.5 202.74 180.363 202.35 180.09C201.965 179.816 201.65 179.348 201.402 178.684L200.836 177.238C200.745 176.997 200.631 176.815 200.494 176.691C200.364 176.561 200.221 176.464 200.064 176.398C199.915 176.333 199.758 176.294 199.596 176.281C199.439 176.268 199.28 176.262 199.117 176.262H198.277V180.5H196.236V170.363ZM206.393 170.363H208.434V177.238L212.838 170.363H214.879V180.5H212.838V173.518L208.434 180.5H206.393V170.363ZM222.33 170.363H224.371V171.418C225.055 170.656 225.927 170.262 226.988 170.236C228.219 170.249 229.127 170.692 229.713 171.564C230.006 171.896 230.198 172.316 230.289 172.824C230.341 173.091 230.377 173.443 230.396 173.879C230.423 174.309 230.436 174.829 230.436 175.441C230.436 176.04 230.423 176.555 230.396 176.984C230.377 177.408 230.341 177.753 230.289 178.02C230.198 178.527 230.006 178.954 229.713 179.299C229.42 179.702 229.052 180.015 228.609 180.236C228.173 180.464 227.633 180.591 226.988 180.617C226.487 180.617 226.021 180.503 225.592 180.275C225.149 180.054 224.742 179.768 224.371 179.416V184.602H222.33V170.363ZM226.373 178.576C226.842 178.576 227.223 178.485 227.516 178.303C227.796 178.127 227.994 177.886 228.111 177.58C228.248 177.3 228.336 176.962 228.375 176.564C228.388 176.376 228.395 176.19 228.395 176.008C228.395 175.819 228.395 175.63 228.395 175.441C228.395 175.24 228.395 175.041 228.395 174.846C228.395 174.644 228.388 174.449 228.375 174.26C228.336 173.863 228.248 173.524 228.111 173.244C227.994 172.951 227.796 172.71 227.516 172.521C227.236 172.359 226.855 172.277 226.373 172.277C225.917 172.277 225.556 172.372 225.289 172.561C225.022 172.736 224.817 172.984 224.674 173.303C224.55 173.596 224.469 173.928 224.43 174.299C224.391 174.689 224.371 175.07 224.371 175.441C224.371 175.799 224.391 176.158 224.43 176.516C224.469 176.906 224.55 177.248 224.674 177.541C224.817 177.86 225.022 178.107 225.289 178.283C225.543 178.479 225.904 178.576 226.373 178.576ZM235.504 180.617C234.384 180.604 233.512 180.305 232.887 179.719C232.242 179.146 231.92 178.413 231.92 177.521C231.92 176.669 232.2 175.962 232.76 175.402C233.307 174.842 234.127 174.549 235.221 174.523H238.043V173.459C238.056 172.567 237.363 172.134 235.963 172.16C235.481 172.16 235.081 172.212 234.762 172.316C234.456 172.44 234.215 172.648 234.039 172.941L232.438 171.721C233.212 170.705 234.355 170.21 235.865 170.236C237.141 170.223 238.16 170.464 238.922 170.959C239.671 171.454 240.058 172.326 240.084 173.576V180.5H238.043V179.602H238.004C237.815 179.947 237.522 180.201 237.125 180.363C236.76 180.533 236.22 180.617 235.504 180.617ZM235.758 178.703C236.617 178.729 237.219 178.628 237.564 178.4C237.883 178.186 238.043 177.697 238.043 176.936V176.203H235.602C234.404 176.229 233.818 176.636 233.844 177.424C233.844 177.769 233.997 178.062 234.303 178.303C234.609 178.57 235.094 178.703 235.758 178.703ZM245.445 180.617C244.605 180.617 243.883 180.484 243.277 180.217C242.678 179.95 242.118 179.536 241.598 178.977L243.082 177.717C243.414 178.055 243.749 178.306 244.088 178.469C244.433 178.625 244.885 178.703 245.445 178.703C246.07 178.703 246.572 178.589 246.949 178.361C247.333 178.133 247.525 177.798 247.525 177.355C247.525 176.919 247.382 176.613 247.096 176.438C246.809 176.255 246.363 176.164 245.758 176.164H244.283V174.484H245.787C246.275 174.484 246.666 174.377 246.959 174.162C247.252 173.947 247.398 173.648 247.398 173.264C247.398 172.873 247.229 172.59 246.891 172.414C246.552 172.232 246.07 172.141 245.445 172.141C245.029 172.141 244.618 172.212 244.215 172.355C243.818 172.492 243.46 172.714 243.141 173.02L241.686 171.76C241.926 171.519 242.171 171.307 242.418 171.125C242.672 170.936 242.952 170.777 243.258 170.646C243.57 170.51 243.919 170.409 244.303 170.344C244.687 170.272 245.133 170.236 245.641 170.236C246.188 170.236 246.702 170.282 247.184 170.373C247.665 170.458 248.079 170.627 248.424 170.881C248.743 171.109 248.984 171.408 249.146 171.779C249.316 172.15 249.4 172.551 249.4 172.98C249.4 173.475 249.27 173.924 249.01 174.328C248.749 174.725 248.388 175.015 247.926 175.197C248.414 175.386 248.808 175.689 249.107 176.105C249.413 176.516 249.566 177.001 249.566 177.561C249.566 178.081 249.443 178.566 249.195 179.016C248.948 179.458 248.596 179.813 248.141 180.08C247.796 180.295 247.389 180.438 246.92 180.51C246.458 180.581 245.966 180.617 245.445 180.617ZM251.705 170.363H253.746V174.318H257.77V170.363H259.811V180.5H257.77V176.242H253.746V180.5H251.705V170.363ZM262.447 170.363H264.488V174.182H267.164C268.154 174.182 268.948 174.471 269.547 175.051C270.146 175.63 270.445 176.392 270.445 177.336C270.445 178.286 270.146 179.051 269.547 179.631C268.948 180.21 268.154 180.5 267.164 180.5H262.447V170.363ZM266.949 178.703C267.418 178.703 267.783 178.579 268.043 178.332C268.303 178.085 268.434 177.74 268.434 177.297C268.434 176.874 268.303 176.538 268.043 176.291C267.783 176.044 267.418 175.92 266.949 175.92H264.488V178.703H266.949ZM271.852 170.363H273.893V180.5H271.852V170.363ZM278.873 175.324L275.553 170.363H277.994L280.016 173.645L282.027 170.363H284.469L281.148 175.324L284.615 180.5H282.174L280.016 177.121L277.848 180.5H275.406L278.873 175.324ZM55.3184 196.363H63.4238V206.5H61.3828V198.277H57.3594V206.5H55.3184V196.363ZM69.7422 206.617C68.9935 206.617 68.3587 206.471 67.8379 206.178C67.3236 205.911 66.9329 205.624 66.666 205.318C66.2754 204.895 65.9954 204.41 65.8262 203.863C65.6504 203.329 65.5625 202.516 65.5625 201.422C65.5625 200.341 65.6504 199.521 65.8262 198.961C66.0085 198.388 66.2884 197.913 66.666 197.535C66.946 197.203 67.3366 196.904 67.8379 196.637C68.3457 196.37 68.9805 196.236 69.7422 196.236C70.5299 196.236 71.1777 196.37 71.6855 196.637C72.1738 196.904 72.5514 197.203 72.8184 197.535C73.209 197.913 73.4954 198.388 73.6777 198.961C73.8405 199.547 73.9219 200.367 73.9219 201.422C73.9219 202.49 73.8405 203.303 73.6777 203.863C73.4954 204.423 73.209 204.908 72.8184 205.318C72.7533 205.383 72.6816 205.458 72.6035 205.543C72.5254 205.621 72.4375 205.693 72.3398 205.758C72.1576 205.921 71.9395 206.061 71.6855 206.178C71.1647 206.471 70.5169 206.617 69.7422 206.617ZM69.7422 204.576C70.1003 204.576 70.4258 204.505 70.7188 204.361C71.0117 204.225 71.2331 204.052 71.3828 203.844C71.5977 203.564 71.7311 203.271 71.7832 202.965C71.8092 202.802 71.832 202.594 71.8516 202.34C71.8711 202.086 71.8809 201.786 71.8809 201.441C71.8809 201.083 71.8711 200.774 71.8516 200.514C71.832 200.253 71.8092 200.035 71.7832 199.859C71.7311 199.553 71.5977 199.273 71.3828 199.02C71.2331 198.805 71.0117 198.626 70.7188 198.482C70.4518 198.346 70.1263 198.277 69.7422 198.277C69.3841 198.277 69.0651 198.346 68.7852 198.482C68.5182 198.613 68.2904 198.792 68.1016 199.02C67.9258 199.247 67.7988 199.527 67.7207 199.859C67.6426 200.204 67.6035 200.725 67.6035 201.422C67.6035 202.125 67.6426 202.639 67.7207 202.965C67.7988 203.297 67.9258 203.59 68.1016 203.844C68.3034 204.052 68.5312 204.225 68.7852 204.361C69.1042 204.505 69.4232 204.576 69.7422 204.576ZM74.8594 204.576H75.1816C75.3965 204.576 75.5951 204.56 75.7773 204.527C75.9661 204.495 76.1354 204.397 76.2852 204.234C76.4414 204.065 76.5749 203.811 76.6855 203.473C76.8027 203.134 76.9004 202.662 76.9785 202.057C77.0632 201.445 77.125 200.676 77.1641 199.752C77.2031 198.821 77.2227 197.691 77.2227 196.363H84.0781V206.5H82.0469V198.277H79.166C79.166 199.508 79.1302 200.566 79.0586 201.451C78.9935 202.337 78.8958 203.082 78.7656 203.688C78.6419 204.293 78.4792 204.785 78.2773 205.162C78.082 205.533 77.8542 205.816 77.5938 206.012C77.3333 206.207 77.0404 206.337 76.7148 206.402C76.3893 206.467 76.0312 206.5 75.6406 206.5H74.8594V204.576ZM86.5293 208.678H87.125C87.3919 208.678 87.6393 208.606 87.8672 208.463C88.082 208.326 88.2415 208.105 88.3457 207.799L88.9023 206.1L85.2695 196.363H87.4277L89.8301 203.463H89.8691L92.2617 196.363H94.4297L90.0645 208.6C89.7845 209.361 89.3971 209.889 88.9023 210.182C88.401 210.462 87.8346 210.602 87.2031 210.602H86.5293V208.678ZM100.777 206.021C100.478 206.236 100.172 206.389 99.8594 206.48C99.5469 206.572 99.153 206.617 98.6777 206.617C98.0202 206.617 97.4668 206.487 97.0176 206.227C96.5749 205.966 96.2005 205.618 95.8945 205.182C95.7578 204.98 95.6471 204.771 95.5625 204.557C95.4779 204.335 95.4095 204.078 95.3574 203.785C95.3118 203.486 95.2826 203.144 95.2695 202.76C95.2565 202.376 95.25 201.923 95.25 201.402C95.25 200.589 95.2793 199.876 95.3379 199.264C95.403 198.645 95.5885 198.092 95.8945 197.604C96.2005 197.122 96.5977 196.773 97.0859 196.559C97.5807 196.344 98.1374 196.236 98.7559 196.236C99.2311 196.236 99.6185 196.298 99.918 196.422C100.224 196.539 100.51 196.692 100.777 196.881V192.262H102.789V196.881C103.056 196.692 103.339 196.539 103.639 196.422C103.945 196.298 104.335 196.236 104.811 196.236C105.423 196.236 105.976 196.344 106.471 196.559C106.965 196.773 107.366 197.122 107.672 197.604C107.978 198.092 108.16 198.645 108.219 199.264C108.284 199.876 108.316 200.589 108.316 201.402C108.316 201.923 108.31 202.376 108.297 202.76C108.284 203.144 108.251 203.486 108.199 203.785C108.154 204.078 108.089 204.335 108.004 204.557C107.919 204.771 107.809 204.98 107.672 205.182C107.366 205.618 106.988 205.966 106.539 206.227C106.096 206.487 105.546 206.617 104.889 206.617C104.413 206.617 104.016 206.572 103.697 206.48C103.385 206.389 103.082 206.236 102.789 206.021V210.602H100.777V206.021ZM99.2344 204.576C99.5534 204.576 99.8431 204.514 100.104 204.391C100.364 204.26 100.589 204.091 100.777 203.883V198.98C100.589 198.766 100.367 198.596 100.113 198.473C99.8594 198.342 99.5729 198.277 99.2539 198.277C98.5703 198.277 98.069 198.512 97.75 198.98C97.431 199.449 97.2715 200.27 97.2715 201.441C97.2715 202.587 97.431 203.398 97.75 203.873C98.069 204.342 98.5638 204.576 99.2344 204.576ZM104.332 204.576C104.996 204.576 105.488 204.342 105.807 203.873C106.132 203.398 106.295 202.587 106.295 201.441C106.295 200.27 106.132 199.449 105.807 198.98C105.488 198.512 104.99 198.277 104.312 198.277C103.993 198.277 103.707 198.342 103.453 198.473C103.199 198.596 102.978 198.766 102.789 198.98V203.883C102.978 204.091 103.202 204.26 103.463 204.391C103.723 204.514 104.013 204.576 104.332 204.576ZM113.375 206.617C112.255 206.604 111.383 206.305 110.758 205.719C110.113 205.146 109.791 204.413 109.791 203.521C109.791 202.669 110.071 201.962 110.631 201.402C111.178 200.842 111.998 200.549 113.092 200.523H115.914V199.459C115.927 198.567 115.234 198.134 113.834 198.16C113.352 198.16 112.952 198.212 112.633 198.316C112.327 198.44 112.086 198.648 111.91 198.941L110.309 197.721C111.083 196.705 112.226 196.21 113.736 196.236C115.012 196.223 116.031 196.464 116.793 196.959C117.542 197.454 117.929 198.326 117.955 199.576V206.5H115.914V205.602H115.875C115.686 205.947 115.393 206.201 114.996 206.363C114.632 206.533 114.091 206.617 113.375 206.617ZM113.629 204.703C114.488 204.729 115.09 204.628 115.436 204.4C115.755 204.186 115.914 203.697 115.914 202.936V202.203H113.473C112.275 202.229 111.689 202.636 111.715 203.424C111.715 203.769 111.868 204.062 112.174 204.303C112.48 204.57 112.965 204.703 113.629 204.703ZM124.635 206.617C123.606 206.617 122.77 206.38 122.125 205.904C121.48 205.423 121.025 204.781 120.758 203.98C120.673 203.753 120.611 203.492 120.572 203.199C120.533 202.906 120.501 202.6 120.475 202.281C120.449 201.962 120.432 201.643 120.426 201.324C120.419 200.999 120.416 200.696 120.416 200.416V199.645C120.416 199.098 120.426 198.567 120.445 198.053C120.465 197.538 120.523 197.05 120.621 196.588C120.725 196.119 120.875 195.686 121.07 195.289C121.272 194.885 121.546 194.521 121.891 194.195C122.171 193.948 122.467 193.746 122.779 193.59C123.098 193.434 123.427 193.313 123.766 193.229C124.104 193.144 124.446 193.079 124.791 193.033C125.136 192.988 125.478 192.942 125.816 192.896C126.025 192.87 126.194 192.809 126.324 192.711C126.461 192.613 126.546 192.464 126.578 192.262H128.658C128.548 193.74 127.861 194.579 126.598 194.781C126.272 194.833 125.95 194.876 125.631 194.908C125.312 194.941 124.996 194.99 124.684 195.055C124.371 195.113 124.075 195.201 123.795 195.318C123.515 195.429 123.255 195.589 123.014 195.797C122.708 196.077 122.483 196.412 122.34 196.803C122.203 197.187 122.128 197.545 122.115 197.877H122.174C122.402 197.48 122.77 197.141 123.277 196.861C123.792 196.581 124.391 196.441 125.074 196.441C126.409 196.441 127.372 196.878 127.965 197.75C128.557 198.622 128.854 199.866 128.854 201.48C128.854 202.359 128.772 203.111 128.609 203.736C128.453 204.355 128.186 204.889 127.809 205.338C127.464 205.755 127.024 206.074 126.49 206.295C125.956 206.51 125.338 206.617 124.635 206.617ZM124.615 204.596C124.96 204.596 125.273 204.534 125.553 204.41C125.833 204.286 126.067 204.111 126.256 203.883C126.484 203.616 126.633 203.294 126.705 202.916C126.777 202.532 126.812 202.066 126.812 201.52C126.812 200.96 126.777 200.481 126.705 200.084C126.633 199.68 126.484 199.345 126.256 199.078C126.067 198.863 125.833 198.697 125.553 198.58C125.273 198.463 124.96 198.404 124.615 198.404C124.27 198.404 123.958 198.466 123.678 198.59C123.398 198.714 123.17 198.889 122.994 199.117C122.766 199.384 122.62 199.719 122.555 200.123C122.49 200.52 122.457 200.999 122.457 201.559C122.457 202.197 122.509 202.704 122.613 203.082C122.717 203.453 122.883 203.759 123.111 204C123.3 204.189 123.525 204.335 123.785 204.439C124.046 204.544 124.322 204.596 124.615 204.596ZM131.002 196.363H133.043V197.418C133.727 196.656 134.599 196.262 135.66 196.236C136.891 196.249 137.799 196.692 138.385 197.564C138.678 197.896 138.87 198.316 138.961 198.824C139.013 199.091 139.049 199.443 139.068 199.879C139.094 200.309 139.107 200.829 139.107 201.441C139.107 202.04 139.094 202.555 139.068 202.984C139.049 203.408 139.013 203.753 138.961 204.02C138.87 204.527 138.678 204.954 138.385 205.299C138.092 205.702 137.724 206.015 137.281 206.236C136.845 206.464 136.305 206.591 135.66 206.617C135.159 206.617 134.693 206.503 134.264 206.275C133.821 206.054 133.414 205.768 133.043 205.416V210.602H131.002V196.363ZM135.045 204.576C135.514 204.576 135.895 204.485 136.188 204.303C136.467 204.127 136.666 203.886 136.783 203.58C136.92 203.3 137.008 202.962 137.047 202.564C137.06 202.376 137.066 202.19 137.066 202.008C137.066 201.819 137.066 201.63 137.066 201.441C137.066 201.24 137.066 201.041 137.066 200.846C137.066 200.644 137.06 200.449 137.047 200.26C137.008 199.863 136.92 199.524 136.783 199.244C136.666 198.951 136.467 198.71 136.188 198.521C135.908 198.359 135.527 198.277 135.045 198.277C134.589 198.277 134.228 198.372 133.961 198.561C133.694 198.736 133.489 198.984 133.346 199.303C133.222 199.596 133.141 199.928 133.102 200.299C133.062 200.689 133.043 201.07 133.043 201.441C133.043 201.799 133.062 202.158 133.102 202.516C133.141 202.906 133.222 203.248 133.346 203.541C133.489 203.86 133.694 204.107 133.961 204.283C134.215 204.479 134.576 204.576 135.045 204.576ZM141.393 196.363H143.434V203.238L147.838 196.363H149.879V206.5H147.838V199.518L143.434 206.5H141.393V196.363ZM152.525 196.363H154.566V200.338H155.523C155.888 200.338 156.191 200.26 156.432 200.104C156.679 199.941 156.858 199.719 156.969 199.439L157.447 198.082C157.662 197.47 157.955 197.031 158.326 196.764C158.697 196.497 159.218 196.363 159.889 196.363H160.562V198.199H160.27C160.068 198.199 159.898 198.209 159.762 198.229C159.632 198.248 159.521 198.29 159.43 198.355C159.345 198.414 159.273 198.499 159.215 198.609C159.156 198.72 159.094 198.87 159.029 199.059L158.688 200.064C158.583 200.37 158.434 200.611 158.238 200.787C158.043 200.956 157.831 201.08 157.604 201.158C157.955 201.269 158.235 201.435 158.443 201.656C158.658 201.871 158.84 202.164 158.99 202.535L159.469 203.775C159.534 203.951 159.596 204.094 159.654 204.205C159.713 204.309 159.781 204.391 159.859 204.449C159.944 204.508 160.042 204.55 160.152 204.576C160.27 204.602 160.423 204.615 160.611 204.615H161.07V206.5H160.328C159.592 206.5 159.029 206.363 158.639 206.09C158.255 205.816 157.939 205.348 157.691 204.684L157.125 203.238C157.034 202.997 156.92 202.815 156.783 202.691C156.653 202.561 156.51 202.464 156.354 202.398C156.204 202.333 156.048 202.294 155.885 202.281C155.729 202.268 155.569 202.262 155.406 202.262H154.566V206.5H152.525V196.363ZM165.465 206.617C164.345 206.604 163.473 206.305 162.848 205.719C162.203 205.146 161.881 204.413 161.881 203.521C161.881 202.669 162.161 201.962 162.721 201.402C163.268 200.842 164.088 200.549 165.182 200.523H168.004V199.459C168.017 198.567 167.324 198.134 165.924 198.16C165.442 198.16 165.042 198.212 164.723 198.316C164.417 198.44 164.176 198.648 164 198.941L162.398 197.721C163.173 196.705 164.316 196.21 165.826 196.236C167.102 196.223 168.121 196.464 168.883 196.959C169.632 197.454 170.019 198.326 170.045 199.576V206.5H168.004V205.602H167.965C167.776 205.947 167.483 206.201 167.086 206.363C166.721 206.533 166.181 206.617 165.465 206.617ZM165.719 204.703C166.578 204.729 167.18 204.628 167.525 204.4C167.844 204.186 168.004 203.697 168.004 202.936V202.203H165.562C164.365 202.229 163.779 202.636 163.805 203.424C163.805 203.769 163.958 204.062 164.264 204.303C164.57 204.57 165.055 204.703 165.719 204.703ZM174.703 198.277H171.588V196.363H179.742V198.277H176.744V206.5H174.703V198.277ZM184.977 206.617C184.228 206.617 183.593 206.471 183.072 206.178C182.558 205.911 182.167 205.624 181.9 205.318C181.51 204.895 181.23 204.41 181.061 203.863C180.885 203.329 180.797 202.516 180.797 201.422C180.797 200.341 180.885 199.521 181.061 198.961C181.243 198.388 181.523 197.913 181.9 197.535C182.18 197.203 182.571 196.904 183.072 196.637C183.58 196.37 184.215 196.236 184.977 196.236C185.764 196.236 186.412 196.37 186.92 196.637C187.408 196.904 187.786 197.203 188.053 197.535C188.443 197.913 188.73 198.388 188.912 198.961C189.075 199.547 189.156 200.367 189.156 201.422C189.156 202.49 189.075 203.303 188.912 203.863C188.73 204.423 188.443 204.908 188.053 205.318C187.988 205.383 187.916 205.458 187.838 205.543C187.76 205.621 187.672 205.693 187.574 205.758C187.392 205.921 187.174 206.061 186.92 206.178C186.399 206.471 185.751 206.617 184.977 206.617ZM184.977 204.576C185.335 204.576 185.66 204.505 185.953 204.361C186.246 204.225 186.467 204.052 186.617 203.844C186.832 203.564 186.965 203.271 187.018 202.965C187.044 202.802 187.066 202.594 187.086 202.34C187.105 202.086 187.115 201.786 187.115 201.441C187.115 201.083 187.105 200.774 187.086 200.514C187.066 200.253 187.044 200.035 187.018 199.859C186.965 199.553 186.832 199.273 186.617 199.02C186.467 198.805 186.246 198.626 185.953 198.482C185.686 198.346 185.361 198.277 184.977 198.277C184.618 198.277 184.299 198.346 184.02 198.482C183.753 198.613 183.525 198.792 183.336 199.02C183.16 199.247 183.033 199.527 182.955 199.859C182.877 200.204 182.838 200.725 182.838 201.422C182.838 202.125 182.877 202.639 182.955 202.965C183.033 203.297 183.16 203.59 183.336 203.844C183.538 204.052 183.766 204.225 184.02 204.361C184.339 204.505 184.658 204.576 184.977 204.576ZM191.295 196.363H196.158C197.089 196.363 197.831 196.611 198.385 197.105C198.938 197.594 199.215 198.251 199.215 199.078C199.215 200.094 198.743 200.82 197.799 201.256C198.307 201.484 198.697 201.793 198.971 202.184C199.244 202.568 199.381 203.053 199.381 203.639C199.381 204.518 199.111 205.214 198.57 205.729C198.03 206.243 197.278 206.5 196.314 206.5H191.295V196.363ZM195.914 204.801C196.37 204.801 196.728 204.677 196.988 204.43C197.249 204.182 197.379 203.854 197.379 203.443C197.379 203.014 197.249 202.682 196.988 202.447C196.728 202.213 196.37 202.096 195.914 202.096H193.336V204.801H195.914ZM195.777 200.523C196.734 200.523 197.213 200.104 197.213 199.264C197.213 198.873 197.089 198.577 196.842 198.375C196.601 198.167 196.246 198.062 195.777 198.062H193.336V200.523H195.777ZM201.588 207.984V204.459H203.629V206.5L201.588 207.984ZM216.598 202.799C216.253 202.864 215.833 202.936 215.338 203.014C214.843 203.085 214.296 203.121 213.697 203.121C212.857 203.121 212.167 202.877 211.627 202.389C211.087 201.9 210.816 201.139 210.816 200.104V196.363H212.857V199.703C212.857 200.25 212.988 200.637 213.248 200.865C213.508 201.087 213.873 201.197 214.342 201.197C214.765 201.197 215.175 201.171 215.572 201.119C215.976 201.067 216.318 201.015 216.598 200.963V196.363H218.639V206.5H216.598V202.799ZM223.297 198.277H220.182V196.363H228.336V198.277H225.338V206.5H223.297V198.277ZM233.57 206.617C232.822 206.617 232.187 206.471 231.666 206.178C231.152 205.911 230.761 205.624 230.494 205.318C230.104 204.895 229.824 204.41 229.654 203.863C229.479 203.329 229.391 202.516 229.391 201.422C229.391 200.341 229.479 199.521 229.654 198.961C229.837 198.388 230.117 197.913 230.494 197.535C230.774 197.203 231.165 196.904 231.666 196.637C232.174 196.37 232.809 196.236 233.57 196.236C234.358 196.236 235.006 196.37 235.514 196.637C236.002 196.904 236.38 197.203 236.646 197.535C237.037 197.913 237.324 198.388 237.506 198.961C237.669 199.547 237.75 200.367 237.75 201.422C237.75 202.49 237.669 203.303 237.506 203.863C237.324 204.423 237.037 204.908 236.646 205.318C236.581 205.383 236.51 205.458 236.432 205.543C236.354 205.621 236.266 205.693 236.168 205.758C235.986 205.921 235.768 206.061 235.514 206.178C234.993 206.471 234.345 206.617 233.57 206.617ZM233.57 204.576C233.928 204.576 234.254 204.505 234.547 204.361C234.84 204.225 235.061 204.052 235.211 203.844C235.426 203.564 235.559 203.271 235.611 202.965C235.637 202.802 235.66 202.594 235.68 202.34C235.699 202.086 235.709 201.786 235.709 201.441C235.709 201.083 235.699 200.774 235.68 200.514C235.66 200.253 235.637 200.035 235.611 199.859C235.559 199.553 235.426 199.273 235.211 199.02C235.061 198.805 234.84 198.626 234.547 198.482C234.28 198.346 233.954 198.277 233.57 198.277C233.212 198.277 232.893 198.346 232.613 198.482C232.346 198.613 232.118 198.792 231.93 199.02C231.754 199.247 231.627 199.527 231.549 199.859C231.471 200.204 231.432 200.725 231.432 201.422C231.432 202.125 231.471 202.639 231.549 202.965C231.627 203.297 231.754 203.59 231.93 203.844C232.132 204.052 232.359 204.225 232.613 204.361C232.932 204.505 233.251 204.576 233.57 204.576ZM243.932 206.617C242.903 206.617 242.066 206.38 241.422 205.904C240.777 205.423 240.322 204.781 240.055 203.98C239.97 203.753 239.908 203.492 239.869 203.199C239.83 202.906 239.798 202.6 239.771 202.281C239.745 201.962 239.729 201.643 239.723 201.324C239.716 200.999 239.713 200.696 239.713 200.416V199.645C239.713 199.098 239.723 198.567 239.742 198.053C239.762 197.538 239.82 197.05 239.918 196.588C240.022 196.119 240.172 195.686 240.367 195.289C240.569 194.885 240.842 194.521 241.188 194.195C241.467 193.948 241.764 193.746 242.076 193.59C242.395 193.434 242.724 193.313 243.062 193.229C243.401 193.144 243.743 193.079 244.088 193.033C244.433 192.988 244.775 192.942 245.113 192.896C245.322 192.87 245.491 192.809 245.621 192.711C245.758 192.613 245.842 192.464 245.875 192.262H247.955C247.844 193.74 247.158 194.579 245.895 194.781C245.569 194.833 245.247 194.876 244.928 194.908C244.609 194.941 244.293 194.99 243.98 195.055C243.668 195.113 243.372 195.201 243.092 195.318C242.812 195.429 242.551 195.589 242.311 195.797C242.005 196.077 241.78 196.412 241.637 196.803C241.5 197.187 241.425 197.545 241.412 197.877H241.471C241.699 197.48 242.066 197.141 242.574 196.861C243.089 196.581 243.688 196.441 244.371 196.441C245.706 196.441 246.669 196.878 247.262 197.75C247.854 198.622 248.15 199.866 248.15 201.48C248.15 202.359 248.069 203.111 247.906 203.736C247.75 204.355 247.483 204.889 247.105 205.338C246.76 205.755 246.321 206.074 245.787 206.295C245.253 206.51 244.635 206.617 243.932 206.617ZM243.912 204.596C244.257 204.596 244.57 204.534 244.85 204.41C245.13 204.286 245.364 204.111 245.553 203.883C245.781 203.616 245.93 203.294 246.002 202.916C246.074 202.532 246.109 202.066 246.109 201.52C246.109 200.96 246.074 200.481 246.002 200.084C245.93 199.68 245.781 199.345 245.553 199.078C245.364 198.863 245.13 198.697 244.85 198.58C244.57 198.463 244.257 198.404 243.912 198.404C243.567 198.404 243.255 198.466 242.975 198.59C242.695 198.714 242.467 198.889 242.291 199.117C242.063 199.384 241.917 199.719 241.852 200.123C241.786 200.52 241.754 200.999 241.754 201.559C241.754 202.197 241.806 202.704 241.91 203.082C242.014 203.453 242.18 203.759 242.408 204C242.597 204.189 242.822 204.335 243.082 204.439C243.342 204.544 243.619 204.596 243.912 204.596ZM250.299 196.363H252.34V200.182H255.016C256.005 200.182 256.799 200.471 257.398 201.051C257.997 201.63 258.297 202.392 258.297 203.336C258.297 204.286 257.997 205.051 257.398 205.631C256.799 206.21 256.005 206.5 255.016 206.5H250.299V196.363ZM254.801 204.703C255.27 204.703 255.634 204.579 255.895 204.332C256.155 204.085 256.285 203.74 256.285 203.297C256.285 202.874 256.155 202.538 255.895 202.291C255.634 202.044 255.27 201.92 254.801 201.92H252.34V204.703H254.801ZM259.703 196.363H261.744V206.5H259.703V196.363ZM269.186 196.363H274.049C274.98 196.363 275.722 196.611 276.275 197.105C276.829 197.594 277.105 198.251 277.105 199.078C277.105 200.094 276.633 200.82 275.689 201.256C276.197 201.484 276.588 201.793 276.861 202.184C277.135 202.568 277.271 203.053 277.271 203.639C277.271 204.518 277.001 205.214 276.461 205.729C275.921 206.243 275.169 206.5 274.205 206.5H269.186V196.363ZM273.805 204.801C274.26 204.801 274.618 204.677 274.879 204.43C275.139 204.182 275.27 203.854 275.27 203.443C275.27 203.014 275.139 202.682 274.879 202.447C274.618 202.213 274.26 202.096 273.805 202.096H271.227V204.801H273.805ZM273.668 200.523C274.625 200.523 275.104 200.104 275.104 199.264C275.104 198.873 274.98 198.577 274.732 198.375C274.492 198.167 274.137 198.062 273.668 198.062H271.227V200.523H273.668ZM279.42 196.363H281.461V200.182H284.137C285.126 200.182 285.921 200.471 286.52 201.051C287.118 201.63 287.418 202.392 287.418 203.336C287.418 204.286 287.118 205.051 286.52 205.631C285.921 206.21 285.126 206.5 284.137 206.5H279.42V196.363ZM283.922 204.703C284.391 204.703 284.755 204.579 285.016 204.332C285.276 204.085 285.406 203.74 285.406 203.297C285.406 202.874 285.276 202.538 285.016 202.291C284.755 202.044 284.391 201.92 283.922 201.92H281.461V204.703H283.922ZM288.824 196.363H290.865V206.5H288.824V196.363ZM298.307 196.363H300.328L303.365 202.398L306.393 196.363H308.385V206.5H306.344V199.996L304.01 204.645H302.73L300.348 199.996V206.5H298.307V196.363ZM314.703 206.617C313.954 206.617 313.32 206.471 312.799 206.178C312.285 205.911 311.894 205.624 311.627 205.318C311.236 204.895 310.956 204.41 310.787 203.863C310.611 203.329 310.523 202.516 310.523 201.422C310.523 200.341 310.611 199.521 310.787 198.961C310.969 198.388 311.249 197.913 311.627 197.535C311.907 197.203 312.298 196.904 312.799 196.637C313.307 196.37 313.941 196.236 314.703 196.236C315.491 196.236 316.139 196.37 316.646 196.637C317.135 196.904 317.512 197.203 317.779 197.535C318.17 197.913 318.456 198.388 318.639 198.961C318.801 199.547 318.883 200.367 318.883 201.422C318.883 202.49 318.801 203.303 318.639 203.863C318.456 204.423 318.17 204.908 317.779 205.318C317.714 205.383 317.643 205.458 317.564 205.543C317.486 205.621 317.398 205.693 317.301 205.758C317.118 205.921 316.9 206.061 316.646 206.178C316.126 206.471 315.478 206.617 314.703 206.617ZM314.703 204.576C315.061 204.576 315.387 204.505 315.68 204.361C315.973 204.225 316.194 204.052 316.344 203.844C316.559 203.564 316.692 203.271 316.744 202.965C316.77 202.802 316.793 202.594 316.812 202.34C316.832 202.086 316.842 201.786 316.842 201.441C316.842 201.083 316.832 200.774 316.812 200.514C316.793 200.253 316.77 200.035 316.744 199.859C316.692 199.553 316.559 199.273 316.344 199.02C316.194 198.805 315.973 198.626 315.68 198.482C315.413 198.346 315.087 198.277 314.703 198.277C314.345 198.277 314.026 198.346 313.746 198.482C313.479 198.613 313.251 198.792 313.062 199.02C312.887 199.247 312.76 199.527 312.682 199.859C312.604 200.204 312.564 200.725 312.564 201.422C312.564 202.125 312.604 202.639 312.682 202.965C312.76 203.297 312.887 203.59 313.062 203.844C313.264 204.052 313.492 204.225 313.746 204.361C314.065 204.505 314.384 204.576 314.703 204.576ZM321.021 196.363H327.604V198.277H323.062V206.5H321.021V196.363ZM327.945 204.576H328.268C328.482 204.576 328.681 204.56 328.863 204.527C329.052 204.495 329.221 204.397 329.371 204.234C329.527 204.065 329.661 203.811 329.771 203.473C329.889 203.134 329.986 202.662 330.064 202.057C330.149 201.445 330.211 200.676 330.25 199.752C330.289 198.821 330.309 197.691 330.309 196.363H337.164V206.5H335.133V198.277H332.252C332.252 199.508 332.216 200.566 332.145 201.451C332.079 202.337 331.982 203.082 331.852 203.688C331.728 204.293 331.565 204.785 331.363 205.162C331.168 205.533 330.94 205.816 330.68 206.012C330.419 206.207 330.126 206.337 329.801 206.402C329.475 206.467 329.117 206.5 328.727 206.5H327.945V204.576ZM339.811 196.363H341.852V203.238L346.256 196.363H348.297V206.5H346.256V199.518L341.852 206.5H339.811V196.363ZM355.748 196.363H357.789V200.338H358.746C359.111 200.338 359.413 200.26 359.654 200.104C359.902 199.941 360.081 199.719 360.191 199.439L360.67 198.082C360.885 197.47 361.178 197.031 361.549 196.764C361.92 196.497 362.441 196.363 363.111 196.363H363.785V198.199H363.492C363.29 198.199 363.121 198.209 362.984 198.229C362.854 198.248 362.743 198.29 362.652 198.355C362.568 198.414 362.496 198.499 362.438 198.609C362.379 198.72 362.317 198.87 362.252 199.059L361.91 200.064C361.806 200.37 361.656 200.611 361.461 200.787C361.266 200.956 361.054 201.08 360.826 201.158C361.178 201.269 361.458 201.435 361.666 201.656C361.881 201.871 362.063 202.164 362.213 202.535L362.691 203.775C362.757 203.951 362.818 204.094 362.877 204.205C362.936 204.309 363.004 204.391 363.082 204.449C363.167 204.508 363.264 204.55 363.375 204.576C363.492 204.602 363.645 204.615 363.834 204.615H364.293V206.5H363.551C362.815 206.5 362.252 206.363 361.861 206.09C361.477 205.816 361.161 205.348 360.914 204.684L360.348 203.238C360.257 202.997 360.143 202.815 360.006 202.691C359.876 202.561 359.732 202.464 359.576 202.398C359.426 202.333 359.27 202.294 359.107 202.281C358.951 202.268 358.792 202.262 358.629 202.262H357.789V206.5H355.748V196.363ZM368.688 206.617C367.568 206.604 366.695 206.305 366.07 205.719C365.426 205.146 365.104 204.413 365.104 203.521C365.104 202.669 365.383 201.962 365.943 201.402C366.49 200.842 367.311 200.549 368.404 200.523H371.227V199.459C371.24 198.567 370.546 198.134 369.146 198.16C368.665 198.16 368.264 198.212 367.945 198.316C367.639 198.44 367.398 198.648 367.223 198.941L365.621 197.721C366.396 196.705 367.538 196.21 369.049 196.236C370.325 196.223 371.344 196.464 372.105 196.959C372.854 197.454 373.242 198.326 373.268 199.576V206.5H371.227V205.602H371.188C370.999 205.947 370.706 206.201 370.309 206.363C369.944 206.533 369.404 206.617 368.688 206.617ZM368.941 204.703C369.801 204.729 370.403 204.628 370.748 204.4C371.067 204.186 371.227 203.697 371.227 202.936V202.203H368.785C367.587 202.229 367.001 202.636 367.027 203.424C367.027 203.769 367.18 204.062 367.486 204.303C367.792 204.57 368.277 204.703 368.941 204.703ZM374.889 204.615H375.328C375.51 204.615 375.66 204.602 375.777 204.576C375.901 204.55 376.002 204.508 376.08 204.449C376.165 204.391 376.236 204.309 376.295 204.205C376.354 204.094 376.419 203.951 376.49 203.775L376.949 202.535C377.092 202.164 377.271 201.871 377.486 201.656C377.701 201.435 377.981 201.269 378.326 201.158C378.098 201.08 377.887 200.956 377.691 200.787C377.503 200.611 377.353 200.37 377.242 200.064L376.91 199.059C376.839 198.87 376.773 198.72 376.715 198.609C376.656 198.499 376.581 198.414 376.49 198.355C376.406 198.29 376.298 198.248 376.168 198.229C376.044 198.209 375.885 198.199 375.689 198.199H375.367V196.363H376.07C376.721 196.363 377.232 196.497 377.604 196.764C377.981 197.031 378.281 197.47 378.502 198.082L378.99 199.439C379.094 199.719 379.27 199.947 379.518 200.123C379.765 200.292 380.061 200.377 380.406 200.377H380.963V196.363H383.004V200.377H383.551C383.909 200.377 384.212 200.292 384.459 200.123C384.706 199.947 384.882 199.719 384.986 199.439L385.465 198.082C385.693 197.47 385.989 197.031 386.354 196.764C386.725 196.497 387.242 196.363 387.906 196.363H388.59V198.199H388.287C388.085 198.199 387.916 198.209 387.779 198.229C387.649 198.248 387.545 198.29 387.467 198.355C387.389 198.414 387.317 198.499 387.252 198.609C387.193 198.72 387.132 198.87 387.066 199.059L386.705 200.064C386.601 200.37 386.451 200.611 386.256 200.787C386.061 200.956 385.849 201.08 385.621 201.158C385.973 201.269 386.253 201.435 386.461 201.656C386.676 201.871 386.858 202.164 387.008 202.535L387.486 203.775C387.551 203.951 387.613 204.094 387.672 204.205C387.737 204.309 387.809 204.391 387.887 204.449C387.965 204.508 388.059 204.55 388.17 204.576C388.287 204.602 388.44 204.615 388.629 204.615H389.088V206.5H388.346C387.988 206.5 387.672 206.467 387.398 206.402C387.125 206.337 386.887 206.236 386.686 206.1C386.484 205.956 386.305 205.768 386.148 205.533C385.999 205.299 385.859 205.016 385.729 204.684L385.162 203.238C385.071 202.997 384.957 202.815 384.82 202.691C384.69 202.561 384.547 202.464 384.391 202.398C384.241 202.333 384.085 202.294 383.922 202.281C383.766 202.268 383.606 202.262 383.443 202.262H383.004V206.5H380.963V202.262H380.523C380.367 202.262 380.204 202.268 380.035 202.281C379.866 202.294 379.703 202.333 379.547 202.398C379.397 202.464 379.254 202.561 379.117 202.691C378.987 202.815 378.876 202.997 378.785 203.238L378.248 204.684C378.111 205.016 377.965 205.299 377.809 205.533C377.659 205.768 377.48 205.956 377.271 206.1C377.07 206.236 376.835 206.337 376.568 206.402C376.301 206.467 375.986 206.5 375.621 206.5H374.889V204.615ZM389.508 204.576H390.67C390.846 204.14 391.002 203.684 391.139 203.209C391.282 202.734 391.396 202.184 391.48 201.559C391.565 200.934 391.63 200.201 391.676 199.361C391.728 198.521 391.754 197.522 391.754 196.363H398.59V204.576H399.986V209.098H398.072V206.5H391.432V209.098H389.508V204.576ZM396.549 204.576V198.277H393.688C393.688 199.104 393.665 199.833 393.619 200.465C393.574 201.09 393.508 201.653 393.424 202.154C393.346 202.649 393.251 203.095 393.141 203.492C393.03 203.883 392.913 204.244 392.789 204.576H396.549ZM401.451 196.363H403.492V200.182H406.168C407.158 200.182 407.952 200.471 408.551 201.051C409.15 201.63 409.449 202.392 409.449 203.336C409.449 204.286 409.15 205.051 408.551 205.631C407.952 206.21 407.158 206.5 406.168 206.5H401.451V196.363ZM405.953 204.703C406.422 204.703 406.786 204.579 407.047 204.332C407.307 204.085 407.438 203.74 407.438 203.297C407.438 202.874 407.307 202.538 407.047 202.291C406.786 202.044 406.422 201.92 405.953 201.92H403.492V204.703H405.953ZM410.855 196.363H412.896V206.5H410.855V196.363ZM415.533 196.363H417.574V203.238L421.979 196.363H424.02V206.5H421.979V199.518L417.574 206.5H415.533V196.363ZM417.76 192.145C417.896 192.678 418.131 193.056 418.463 193.277C418.808 193.505 419.247 193.619 419.781 193.619C420.276 193.632 420.702 193.525 421.061 193.297C421.432 193.089 421.679 192.704 421.803 192.145H423.004C422.932 192.984 422.623 193.648 422.076 194.137C421.529 194.671 420.764 194.938 419.781 194.938C418.818 194.938 418.066 194.671 417.525 194.137C416.965 193.648 416.643 192.984 416.559 192.145H417.76ZM54.1172 230.576H55.2793C55.4551 230.14 55.6113 229.684 55.748 229.209C55.8913 228.734 56.0052 228.184 56.0898 227.559C56.1745 226.934 56.2396 226.201 56.2852 225.361C56.3372 224.521 56.3633 223.522 56.3633 222.363H63.1992V230.576H64.5957V235.098H62.6816V232.5H56.041V235.098H54.1172V230.576ZM61.1582 230.576V224.277H58.2969C58.2969 225.104 58.2741 225.833 58.2285 226.465C58.1829 227.09 58.1178 227.653 58.0332 228.154C57.9551 228.649 57.8607 229.095 57.75 229.492C57.6393 229.883 57.5221 230.244 57.3984 230.576H61.1582ZM70.0645 232.617C69.5176 232.617 68.9967 232.539 68.502 232.383C68.2741 232.311 68.0267 232.197 67.7598 232.041C67.5189 231.937 67.2812 231.784 67.0469 231.582C66.6042 231.178 66.2559 230.651 66.002 230C65.709 229.362 65.5625 228.516 65.5625 227.461C65.5625 226.432 65.6895 225.599 65.9434 224.961C66.2103 224.251 66.5358 223.717 66.9199 223.359C67.3105 222.975 67.763 222.689 68.2773 222.5C68.7591 222.324 69.2474 222.236 69.7422 222.236C70.901 222.262 71.8809 222.643 72.6816 223.379C73.4824 224.128 73.8958 225.176 73.9219 226.523V228.203H67.6035C67.6035 229.017 67.8379 229.635 68.3066 230.059C68.7559 230.488 69.3288 230.703 70.0254 230.703C70.8522 230.703 71.5911 230.374 72.2422 229.717L73.7266 230.977C72.6719 232.083 71.4512 232.63 70.0645 232.617ZM71.8809 226.523C71.8548 225.749 71.6432 225.153 71.2461 224.736C70.8555 224.352 70.3542 224.16 69.7422 224.16C69.1302 224.16 68.6289 224.352 68.2383 224.736C67.8542 225.153 67.6426 225.749 67.6035 226.523H71.8809ZM76.0605 222.363H78.1016V226.318H82.125V222.363H84.166V232.5H82.125V228.242H78.1016V232.5H76.0605V222.363ZM86.8027 222.363H88.8438V226.182H91.5195C92.5091 226.182 93.3034 226.471 93.9023 227.051C94.5013 227.63 94.8008 228.392 94.8008 229.336C94.8008 230.286 94.5013 231.051 93.9023 231.631C93.3034 232.21 92.5091 232.5 91.5195 232.5H86.8027V222.363ZM91.3047 230.703C91.7734 230.703 92.138 230.579 92.3984 230.332C92.6589 230.085 92.7891 229.74 92.7891 229.297C92.7891 228.874 92.6589 228.538 92.3984 228.291C92.138 228.044 91.7734 227.92 91.3047 227.92H88.8438V230.703H91.3047ZM101.451 222.363H108.033V224.277H103.492V232.5H101.451V222.363ZM113.258 232.617C112.509 232.617 111.874 232.471 111.354 232.178C110.839 231.911 110.449 231.624 110.182 231.318C109.791 230.895 109.511 230.41 109.342 229.863C109.166 229.329 109.078 228.516 109.078 227.422C109.078 226.341 109.166 225.521 109.342 224.961C109.524 224.388 109.804 223.913 110.182 223.535C110.462 223.203 110.852 222.904 111.354 222.637C111.861 222.37 112.496 222.236 113.258 222.236C114.046 222.236 114.693 222.37 115.201 222.637C115.689 222.904 116.067 223.203 116.334 223.535C116.725 223.913 117.011 224.388 117.193 224.961C117.356 225.547 117.438 226.367 117.438 227.422C117.438 228.49 117.356 229.303 117.193 229.863C117.011 230.423 116.725 230.908 116.334 231.318C116.269 231.383 116.197 231.458 116.119 231.543C116.041 231.621 115.953 231.693 115.855 231.758C115.673 231.921 115.455 232.061 115.201 232.178C114.68 232.471 114.033 232.617 113.258 232.617ZM113.258 230.576C113.616 230.576 113.941 230.505 114.234 230.361C114.527 230.225 114.749 230.052 114.898 229.844C115.113 229.564 115.247 229.271 115.299 228.965C115.325 228.802 115.348 228.594 115.367 228.34C115.387 228.086 115.396 227.786 115.396 227.441C115.396 227.083 115.387 226.774 115.367 226.514C115.348 226.253 115.325 226.035 115.299 225.859C115.247 225.553 115.113 225.273 114.898 225.02C114.749 224.805 114.527 224.626 114.234 224.482C113.967 224.346 113.642 224.277 113.258 224.277C112.9 224.277 112.581 224.346 112.301 224.482C112.034 224.613 111.806 224.792 111.617 225.02C111.441 225.247 111.314 225.527 111.236 225.859C111.158 226.204 111.119 226.725 111.119 227.422C111.119 228.125 111.158 228.639 111.236 228.965C111.314 229.297 111.441 229.59 111.617 229.844C111.819 230.052 112.047 230.225 112.301 230.361C112.62 230.505 112.939 230.576 113.258 230.576ZM121.598 224.277H118.482V222.363H126.637V224.277H123.639V232.5H121.598V224.277ZM131.871 232.617C131.122 232.617 130.488 232.471 129.967 232.178C129.452 231.911 129.062 231.624 128.795 231.318C128.404 230.895 128.124 230.41 127.955 229.863C127.779 229.329 127.691 228.516 127.691 227.422C127.691 226.341 127.779 225.521 127.955 224.961C128.137 224.388 128.417 223.913 128.795 223.535C129.075 223.203 129.465 222.904 129.967 222.637C130.475 222.37 131.109 222.236 131.871 222.236C132.659 222.236 133.307 222.37 133.814 222.637C134.303 222.904 134.68 223.203 134.947 223.535C135.338 223.913 135.624 224.388 135.807 224.961C135.969 225.547 136.051 226.367 136.051 227.422C136.051 228.49 135.969 229.303 135.807 229.863C135.624 230.423 135.338 230.908 134.947 231.318C134.882 231.383 134.811 231.458 134.732 231.543C134.654 231.621 134.566 231.693 134.469 231.758C134.286 231.921 134.068 232.061 133.814 232.178C133.294 232.471 132.646 232.617 131.871 232.617ZM131.871 230.576C132.229 230.576 132.555 230.505 132.848 230.361C133.141 230.225 133.362 230.052 133.512 229.844C133.727 229.564 133.86 229.271 133.912 228.965C133.938 228.802 133.961 228.594 133.98 228.34C134 228.086 134.01 227.786 134.01 227.441C134.01 227.083 134 226.774 133.98 226.514C133.961 226.253 133.938 226.035 133.912 225.859C133.86 225.553 133.727 225.273 133.512 225.02C133.362 224.805 133.141 224.626 132.848 224.482C132.581 224.346 132.255 224.277 131.871 224.277C131.513 224.277 131.194 224.346 130.914 224.482C130.647 224.613 130.419 224.792 130.23 225.02C130.055 225.247 129.928 225.527 129.85 225.859C129.771 226.204 129.732 226.725 129.732 227.422C129.732 228.125 129.771 228.639 129.85 228.965C129.928 229.297 130.055 229.59 130.23 229.844C130.432 230.052 130.66 230.225 130.914 230.361C131.233 230.505 131.552 230.576 131.871 230.576ZM138.189 222.363H143.053C143.984 222.363 144.726 222.611 145.279 223.105C145.833 223.594 146.109 224.251 146.109 225.078C146.109 226.094 145.637 226.82 144.693 227.256C145.201 227.484 145.592 227.793 145.865 228.184C146.139 228.568 146.275 229.053 146.275 229.639C146.275 230.518 146.005 231.214 145.465 231.729C144.924 232.243 144.173 232.5 143.209 232.5H138.189V222.363ZM142.809 230.801C143.264 230.801 143.622 230.677 143.883 230.43C144.143 230.182 144.273 229.854 144.273 229.443C144.273 229.014 144.143 228.682 143.883 228.447C143.622 228.213 143.264 228.096 142.809 228.096H140.23V230.801H142.809ZM142.672 226.523C143.629 226.523 144.107 226.104 144.107 225.264C144.107 224.873 143.984 224.577 143.736 224.375C143.495 224.167 143.141 224.062 142.672 224.062H140.23V226.523H142.672ZM148.424 222.363H150.465V229.238L154.869 222.363H156.91V232.5H154.869V225.518L150.465 232.5H148.424V222.363ZM161.578 224.277H158.463V222.363H166.617V224.277H163.619V232.5H161.578V224.277ZM168.17 222.363H170.211V226.182H172.887C173.876 226.182 174.671 226.471 175.27 227.051C175.868 227.63 176.168 228.392 176.168 229.336C176.168 230.286 175.868 231.051 175.27 231.631C174.671 232.21 173.876 232.5 172.887 232.5H168.17V222.363ZM172.672 230.703C173.141 230.703 173.505 230.579 173.766 230.332C174.026 230.085 174.156 229.74 174.156 229.297C174.156 228.874 174.026 228.538 173.766 228.291C173.505 228.044 173.141 227.92 172.672 227.92H170.211V230.703H172.672ZM188.277 228.799C187.932 228.864 187.512 228.936 187.018 229.014C186.523 229.085 185.976 229.121 185.377 229.121C184.537 229.121 183.847 228.877 183.307 228.389C182.766 227.9 182.496 227.139 182.496 226.104V222.363H184.537V225.703C184.537 226.25 184.667 226.637 184.928 226.865C185.188 227.087 185.553 227.197 186.021 227.197C186.445 227.197 186.855 227.171 187.252 227.119C187.656 227.067 187.997 227.015 188.277 226.963V222.363H190.318V232.5H188.277V228.799ZM194.977 224.277H191.861V222.363H200.016V224.277H197.018V232.5H194.977V224.277ZM205.25 232.617C204.501 232.617 203.867 232.471 203.346 232.178C202.831 231.911 202.441 231.624 202.174 231.318C201.783 230.895 201.503 230.41 201.334 229.863C201.158 229.329 201.07 228.516 201.07 227.422C201.07 226.341 201.158 225.521 201.334 224.961C201.516 224.388 201.796 223.913 202.174 223.535C202.454 223.203 202.844 222.904 203.346 222.637C203.854 222.37 204.488 222.236 205.25 222.236C206.038 222.236 206.686 222.37 207.193 222.637C207.682 222.904 208.059 223.203 208.326 223.535C208.717 223.913 209.003 224.388 209.186 224.961C209.348 225.547 209.43 226.367 209.43 227.422C209.43 228.49 209.348 229.303 209.186 229.863C209.003 230.423 208.717 230.908 208.326 231.318C208.261 231.383 208.189 231.458 208.111 231.543C208.033 231.621 207.945 231.693 207.848 231.758C207.665 231.921 207.447 232.061 207.193 232.178C206.673 232.471 206.025 232.617 205.25 232.617ZM205.25 230.576C205.608 230.576 205.934 230.505 206.227 230.361C206.52 230.225 206.741 230.052 206.891 229.844C207.105 229.564 207.239 229.271 207.291 228.965C207.317 228.802 207.34 228.594 207.359 228.34C207.379 228.086 207.389 227.786 207.389 227.441C207.389 227.083 207.379 226.774 207.359 226.514C207.34 226.253 207.317 226.035 207.291 225.859C207.239 225.553 207.105 225.273 206.891 225.02C206.741 224.805 206.52 224.626 206.227 224.482C205.96 224.346 205.634 224.277 205.25 224.277C204.892 224.277 204.573 224.346 204.293 224.482C204.026 224.613 203.798 224.792 203.609 225.02C203.434 225.247 203.307 225.527 203.229 225.859C203.15 226.204 203.111 226.725 203.111 227.422C203.111 228.125 203.15 228.639 203.229 228.965C203.307 229.297 203.434 229.59 203.609 229.844C203.811 230.052 204.039 230.225 204.293 230.361C204.612 230.505 204.931 230.576 205.25 230.576ZM211.314 227.979V225.938H217.33V227.979H211.314ZM221.734 224.277H218.619V222.363H226.773V224.277H223.775V232.5H221.734V224.277ZM232.008 232.617C231.259 232.617 230.624 232.471 230.104 232.178C229.589 231.911 229.199 231.624 228.932 231.318C228.541 230.895 228.261 230.41 228.092 229.863C227.916 229.329 227.828 228.516 227.828 227.422C227.828 226.341 227.916 225.521 228.092 224.961C228.274 224.388 228.554 223.913 228.932 223.535C229.212 223.203 229.602 222.904 230.104 222.637C230.611 222.37 231.246 222.236 232.008 222.236C232.796 222.236 233.443 222.37 233.951 222.637C234.439 222.904 234.817 223.203 235.084 223.535C235.475 223.913 235.761 224.388 235.943 224.961C236.106 225.547 236.188 226.367 236.188 227.422C236.188 228.49 236.106 229.303 235.943 229.863C235.761 230.423 235.475 230.908 235.084 231.318C235.019 231.383 234.947 231.458 234.869 231.543C234.791 231.621 234.703 231.693 234.605 231.758C234.423 231.921 234.205 232.061 233.951 232.178C233.43 232.471 232.783 232.617 232.008 232.617ZM232.008 230.576C232.366 230.576 232.691 230.505 232.984 230.361C233.277 230.225 233.499 230.052 233.648 229.844C233.863 229.564 233.997 229.271 234.049 228.965C234.075 228.802 234.098 228.594 234.117 228.34C234.137 228.086 234.146 227.786 234.146 227.441C234.146 227.083 234.137 226.774 234.117 226.514C234.098 226.253 234.075 226.035 234.049 225.859C233.997 225.553 233.863 225.273 233.648 225.02C233.499 224.805 233.277 224.626 232.984 224.482C232.717 224.346 232.392 224.277 232.008 224.277C231.65 224.277 231.331 224.346 231.051 224.482C230.784 224.613 230.556 224.792 230.367 225.02C230.191 225.247 230.064 225.527 229.986 225.859C229.908 226.204 229.869 226.725 229.869 227.422C229.869 228.125 229.908 228.639 229.986 228.965C230.064 229.297 230.191 229.59 230.367 229.844C230.569 230.052 230.797 230.225 231.051 230.361C231.37 230.505 231.689 230.576 232.008 230.576ZM243.131 222.363H245.172V226.318H249.195V222.363H251.236V232.5H249.195V228.242H245.172V232.5H243.131V222.363ZM257.555 232.617C256.806 232.617 256.171 232.471 255.65 232.178C255.136 231.911 254.745 231.624 254.479 231.318C254.088 230.895 253.808 230.41 253.639 229.863C253.463 229.329 253.375 228.516 253.375 227.422C253.375 226.341 253.463 225.521 253.639 224.961C253.821 224.388 254.101 223.913 254.479 223.535C254.758 223.203 255.149 222.904 255.65 222.637C256.158 222.37 256.793 222.236 257.555 222.236C258.342 222.236 258.99 222.37 259.498 222.637C259.986 222.904 260.364 223.203 260.631 223.535C261.021 223.913 261.308 224.388 261.49 224.961C261.653 225.547 261.734 226.367 261.734 227.422C261.734 228.49 261.653 229.303 261.49 229.863C261.308 230.423 261.021 230.908 260.631 231.318C260.566 231.383 260.494 231.458 260.416 231.543C260.338 231.621 260.25 231.693 260.152 231.758C259.97 231.921 259.752 232.061 259.498 232.178C258.977 232.471 258.329 232.617 257.555 232.617ZM257.555 230.576C257.913 230.576 258.238 230.505 258.531 230.361C258.824 230.225 259.046 230.052 259.195 229.844C259.41 229.564 259.544 229.271 259.596 228.965C259.622 228.802 259.645 228.594 259.664 228.34C259.684 228.086 259.693 227.786 259.693 227.441C259.693 227.083 259.684 226.774 259.664 226.514C259.645 226.253 259.622 226.035 259.596 225.859C259.544 225.553 259.41 225.273 259.195 225.02C259.046 224.805 258.824 224.626 258.531 224.482C258.264 224.346 257.939 224.277 257.555 224.277C257.197 224.277 256.878 224.346 256.598 224.482C256.331 224.613 256.103 224.792 255.914 225.02C255.738 225.247 255.611 225.527 255.533 225.859C255.455 226.204 255.416 226.725 255.416 227.422C255.416 228.125 255.455 228.639 255.533 228.965C255.611 229.297 255.738 229.59 255.914 229.844C256.116 230.052 256.344 230.225 256.598 230.361C256.917 230.505 257.236 230.576 257.555 230.576ZM263.873 222.363H268.736C269.667 222.363 270.41 222.611 270.963 223.105C271.516 223.594 271.793 224.251 271.793 225.078C271.793 226.094 271.321 226.82 270.377 227.256C270.885 227.484 271.275 227.793 271.549 228.184C271.822 228.568 271.959 229.053 271.959 229.639C271.959 230.518 271.689 231.214 271.148 231.729C270.608 232.243 269.856 232.5 268.893 232.5H263.873V222.363ZM268.492 230.801C268.948 230.801 269.306 230.677 269.566 230.43C269.827 230.182 269.957 229.854 269.957 229.443C269.957 229.014 269.827 228.682 269.566 228.447C269.306 228.213 268.948 228.096 268.492 228.096H265.914V230.801H268.492ZM268.355 226.523C269.312 226.523 269.791 226.104 269.791 225.264C269.791 224.873 269.667 224.577 269.42 224.375C269.179 224.167 268.824 224.062 268.355 224.062H265.914V226.523H268.355ZM277.789 232.617C277.04 232.617 276.406 232.471 275.885 232.178C275.37 231.911 274.98 231.624 274.713 231.318C274.322 230.895 274.042 230.41 273.873 229.863C273.697 229.329 273.609 228.516 273.609 227.422C273.609 226.341 273.697 225.521 273.873 224.961C274.055 224.388 274.335 223.913 274.713 223.535C274.993 223.203 275.383 222.904 275.885 222.637C276.393 222.37 277.027 222.236 277.789 222.236C278.577 222.236 279.225 222.37 279.732 222.637C280.221 222.904 280.598 223.203 280.865 223.535C281.256 223.913 281.542 224.388 281.725 224.961C281.887 225.547 281.969 226.367 281.969 227.422C281.969 228.49 281.887 229.303 281.725 229.863C281.542 230.423 281.256 230.908 280.865 231.318C280.8 231.383 280.729 231.458 280.65 231.543C280.572 231.621 280.484 231.693 280.387 231.758C280.204 231.921 279.986 232.061 279.732 232.178C279.212 232.471 278.564 232.617 277.789 232.617ZM277.789 230.576C278.147 230.576 278.473 230.505 278.766 230.361C279.059 230.225 279.28 230.052 279.43 229.844C279.645 229.564 279.778 229.271 279.83 228.965C279.856 228.802 279.879 228.594 279.898 228.34C279.918 228.086 279.928 227.786 279.928 227.441C279.928 227.083 279.918 226.774 279.898 226.514C279.879 226.253 279.856 226.035 279.83 225.859C279.778 225.553 279.645 225.273 279.43 225.02C279.28 224.805 279.059 224.626 278.766 224.482C278.499 224.346 278.173 224.277 277.789 224.277C277.431 224.277 277.112 224.346 276.832 224.482C276.565 224.613 276.337 224.792 276.148 225.02C275.973 225.247 275.846 225.527 275.768 225.859C275.689 226.204 275.65 226.725 275.65 227.422C275.65 228.125 275.689 228.639 275.768 228.965C275.846 229.297 275.973 229.59 276.148 229.844C276.35 230.052 276.578 230.225 276.832 230.361C277.151 230.505 277.47 230.576 277.789 230.576ZM288.111 232.617C287.564 232.617 287.044 232.539 286.549 232.383C286.321 232.311 286.074 232.197 285.807 232.041C285.566 231.937 285.328 231.784 285.094 231.582C284.651 231.178 284.303 230.651 284.049 230C283.756 229.362 283.609 228.516 283.609 227.461C283.609 226.432 283.736 225.599 283.99 224.961C284.257 224.251 284.583 223.717 284.967 223.359C285.357 222.975 285.81 222.689 286.324 222.5C286.806 222.324 287.294 222.236 287.789 222.236C288.948 222.262 289.928 222.643 290.729 223.379C291.529 224.128 291.943 225.176 291.969 226.523V228.203H285.65C285.65 229.017 285.885 229.635 286.354 230.059C286.803 230.488 287.376 230.703 288.072 230.703C288.899 230.703 289.638 230.374 290.289 229.717L291.773 230.977C290.719 232.083 289.498 232.63 288.111 232.617ZM289.928 226.523C289.902 225.749 289.69 225.153 289.293 224.736C288.902 224.352 288.401 224.16 287.789 224.16C287.177 224.16 286.676 224.352 286.285 224.736C285.901 225.153 285.689 225.749 285.65 226.523H289.928ZM298.912 222.363H300.953V229.238L305.357 222.363H307.398V232.5H305.357V225.518L300.953 232.5H298.912V222.363ZM314.85 222.363H316.891V226.318H320.914V222.363H322.955V232.5H320.914V228.242H316.891V232.5H314.85V222.363ZM329.596 232.617C329.049 232.617 328.528 232.539 328.033 232.383C327.805 232.311 327.558 232.197 327.291 232.041C327.05 231.937 326.812 231.784 326.578 231.582C326.135 231.178 325.787 230.651 325.533 230C325.24 229.362 325.094 228.516 325.094 227.461C325.094 226.432 325.221 225.599 325.475 224.961C325.742 224.251 326.067 223.717 326.451 223.359C326.842 222.975 327.294 222.689 327.809 222.5C328.29 222.324 328.779 222.236 329.273 222.236C330.432 222.262 331.412 222.643 332.213 223.379C333.014 224.128 333.427 225.176 333.453 226.523V228.203H327.135C327.135 229.017 327.369 229.635 327.838 230.059C328.287 230.488 328.86 230.703 329.557 230.703C330.383 230.703 331.122 230.374 331.773 229.717L333.258 230.977C332.203 232.083 330.982 232.63 329.596 232.617ZM331.412 226.523C331.386 225.749 331.174 225.153 330.777 224.736C330.387 224.352 329.885 224.16 329.273 224.16C328.661 224.16 328.16 224.352 327.77 224.736C327.385 225.153 327.174 225.749 327.135 226.523H331.412ZM339.273 232.617C338.525 232.617 337.89 232.471 337.369 232.178C336.855 231.911 336.464 231.624 336.197 231.318C335.807 230.895 335.527 230.41 335.357 229.863C335.182 229.329 335.094 228.516 335.094 227.422C335.094 226.341 335.182 225.521 335.357 224.961C335.54 224.388 335.82 223.913 336.197 223.535C336.477 223.203 336.868 222.904 337.369 222.637C337.877 222.37 338.512 222.236 339.273 222.236C340.061 222.236 340.709 222.37 341.217 222.637C341.705 222.904 342.083 223.203 342.35 223.535C342.74 223.913 343.027 224.388 343.209 224.961C343.372 225.547 343.453 226.367 343.453 227.422C343.453 228.49 343.372 229.303 343.209 229.863C343.027 230.423 342.74 230.908 342.35 231.318C342.285 231.383 342.213 231.458 342.135 231.543C342.057 231.621 341.969 231.693 341.871 231.758C341.689 231.921 341.471 232.061 341.217 232.178C340.696 232.471 340.048 232.617 339.273 232.617ZM339.273 230.576C339.632 230.576 339.957 230.505 340.25 230.361C340.543 230.225 340.764 230.052 340.914 229.844C341.129 229.564 341.262 229.271 341.314 228.965C341.34 228.802 341.363 228.594 341.383 228.34C341.402 228.086 341.412 227.786 341.412 227.441C341.412 227.083 341.402 226.774 341.383 226.514C341.363 226.253 341.34 226.035 341.314 225.859C341.262 225.553 341.129 225.273 340.914 225.02C340.764 224.805 340.543 224.626 340.25 224.482C339.983 224.346 339.658 224.277 339.273 224.277C338.915 224.277 338.596 224.346 338.316 224.482C338.049 224.613 337.822 224.792 337.633 225.02C337.457 225.247 337.33 225.527 337.252 225.859C337.174 226.204 337.135 226.725 337.135 227.422C337.135 228.125 337.174 228.639 337.252 228.965C337.33 229.297 337.457 229.59 337.633 229.844C337.835 230.052 338.062 230.225 338.316 230.361C338.635 230.505 338.954 230.576 339.273 230.576ZM349.635 232.617C348.606 232.617 347.77 232.38 347.125 231.904C346.48 231.423 346.025 230.781 345.758 229.98C345.673 229.753 345.611 229.492 345.572 229.199C345.533 228.906 345.501 228.6 345.475 228.281C345.449 227.962 345.432 227.643 345.426 227.324C345.419 226.999 345.416 226.696 345.416 226.416V225.645C345.416 225.098 345.426 224.567 345.445 224.053C345.465 223.538 345.523 223.05 345.621 222.588C345.725 222.119 345.875 221.686 346.07 221.289C346.272 220.885 346.546 220.521 346.891 220.195C347.171 219.948 347.467 219.746 347.779 219.59C348.098 219.434 348.427 219.313 348.766 219.229C349.104 219.144 349.446 219.079 349.791 219.033C350.136 218.988 350.478 218.942 350.816 218.896C351.025 218.87 351.194 218.809 351.324 218.711C351.461 218.613 351.546 218.464 351.578 218.262H353.658C353.548 219.74 352.861 220.579 351.598 220.781C351.272 220.833 350.95 220.876 350.631 220.908C350.312 220.941 349.996 220.99 349.684 221.055C349.371 221.113 349.075 221.201 348.795 221.318C348.515 221.429 348.255 221.589 348.014 221.797C347.708 222.077 347.483 222.412 347.34 222.803C347.203 223.187 347.128 223.545 347.115 223.877H347.174C347.402 223.48 347.77 223.141 348.277 222.861C348.792 222.581 349.391 222.441 350.074 222.441C351.409 222.441 352.372 222.878 352.965 223.75C353.557 224.622 353.854 225.866 353.854 227.48C353.854 228.359 353.772 229.111 353.609 229.736C353.453 230.355 353.186 230.889 352.809 231.338C352.464 231.755 352.024 232.074 351.49 232.295C350.956 232.51 350.338 232.617 349.635 232.617ZM349.615 230.596C349.96 230.596 350.273 230.534 350.553 230.41C350.833 230.286 351.067 230.111 351.256 229.883C351.484 229.616 351.633 229.294 351.705 228.916C351.777 228.532 351.812 228.066 351.812 227.52C351.812 226.96 351.777 226.481 351.705 226.084C351.633 225.68 351.484 225.345 351.256 225.078C351.067 224.863 350.833 224.697 350.553 224.58C350.273 224.463 349.96 224.404 349.615 224.404C349.27 224.404 348.958 224.466 348.678 224.59C348.398 224.714 348.17 224.889 347.994 225.117C347.766 225.384 347.62 225.719 347.555 226.123C347.49 226.52 347.457 226.999 347.457 227.559C347.457 228.197 347.509 228.704 347.613 229.082C347.717 229.453 347.883 229.759 348.111 230C348.3 230.189 348.525 230.335 348.785 230.439C349.046 230.544 349.322 230.596 349.615 230.596ZM356.002 222.363H358.043V226.182H360.719C361.708 226.182 362.503 226.471 363.102 227.051C363.701 227.63 364 228.392 364 229.336C364 230.286 363.701 231.051 363.102 231.631C362.503 232.21 361.708 232.5 360.719 232.5H356.002V222.363ZM360.504 230.703C360.973 230.703 361.337 230.579 361.598 230.332C361.858 230.085 361.988 229.74 361.988 229.297C361.988 228.874 361.858 228.538 361.598 228.291C361.337 228.044 360.973 227.92 360.504 227.92H358.043V230.703H360.504ZM365.406 222.363H367.447V232.5H365.406V222.363ZM375.543 228.799C375.198 228.864 374.778 228.936 374.283 229.014C373.788 229.085 373.242 229.121 372.643 229.121C371.803 229.121 371.113 228.877 370.572 228.389C370.032 227.9 369.762 227.139 369.762 226.104V222.363H371.803V225.703C371.803 226.25 371.933 226.637 372.193 226.865C372.454 227.087 372.818 227.197 373.287 227.197C373.71 227.197 374.12 227.171 374.518 227.119C374.921 227.067 375.263 227.015 375.543 226.963V222.363H377.584V232.5H375.543V228.799ZM380.221 222.363H382.262V226.318H386.285V222.363H388.326V232.5H386.285V228.242H382.262V232.5H380.221V222.363ZM394.645 232.617C393.896 232.617 393.261 232.471 392.74 232.178C392.226 231.911 391.835 231.624 391.568 231.318C391.178 230.895 390.898 230.41 390.729 229.863C390.553 229.329 390.465 228.516 390.465 227.422C390.465 226.341 390.553 225.521 390.729 224.961C390.911 224.388 391.191 223.913 391.568 223.535C391.848 223.203 392.239 222.904 392.74 222.637C393.248 222.37 393.883 222.236 394.645 222.236C395.432 222.236 396.08 222.37 396.588 222.637C397.076 222.904 397.454 223.203 397.721 223.535C398.111 223.913 398.398 224.388 398.58 224.961C398.743 225.547 398.824 226.367 398.824 227.422C398.824 228.49 398.743 229.303 398.58 229.863C398.398 230.423 398.111 230.908 397.721 231.318C397.656 231.383 397.584 231.458 397.506 231.543C397.428 231.621 397.34 231.693 397.242 231.758C397.06 231.921 396.842 232.061 396.588 232.178C396.067 232.471 395.419 232.617 394.645 232.617ZM394.645 230.576C395.003 230.576 395.328 230.505 395.621 230.361C395.914 230.225 396.135 230.052 396.285 229.844C396.5 229.564 396.633 229.271 396.686 228.965C396.712 228.802 396.734 228.594 396.754 228.34C396.773 228.086 396.783 227.786 396.783 227.441C396.783 227.083 396.773 226.774 396.754 226.514C396.734 226.253 396.712 226.035 396.686 225.859C396.633 225.553 396.5 225.273 396.285 225.02C396.135 224.805 395.914 224.626 395.621 224.482C395.354 224.346 395.029 224.277 394.645 224.277C394.286 224.277 393.967 224.346 393.688 224.482C393.421 224.613 393.193 224.792 393.004 225.02C392.828 225.247 392.701 225.527 392.623 225.859C392.545 226.204 392.506 226.725 392.506 227.422C392.506 228.125 392.545 228.639 392.623 228.965C392.701 229.297 392.828 229.59 393.004 229.844C393.206 230.052 393.434 230.225 393.688 230.361C394.007 230.505 394.326 230.576 394.645 230.576ZM404.967 232.617C404.42 232.617 403.899 232.539 403.404 232.383C403.176 232.311 402.929 232.197 402.662 232.041C402.421 231.937 402.184 231.784 401.949 231.582C401.507 231.178 401.158 230.651 400.904 230C400.611 229.362 400.465 228.516 400.465 227.461C400.465 226.432 400.592 225.599 400.846 224.961C401.113 224.251 401.438 223.717 401.822 223.359C402.213 222.975 402.665 222.689 403.18 222.5C403.661 222.324 404.15 222.236 404.645 222.236C405.803 222.262 406.783 222.643 407.584 223.379C408.385 224.128 408.798 225.176 408.824 226.523V228.203H402.506C402.506 229.017 402.74 229.635 403.209 230.059C403.658 230.488 404.231 230.703 404.928 230.703C405.755 230.703 406.493 230.374 407.145 229.717L408.629 230.977C407.574 232.083 406.354 232.63 404.967 232.617ZM406.783 226.523C406.757 225.749 406.546 225.153 406.148 224.736C405.758 224.352 405.257 224.16 404.645 224.16C404.033 224.16 403.531 224.352 403.141 224.736C402.757 225.153 402.545 225.749 402.506 226.523H406.783Z" fill="white"/>
<path d="M472.082 101.569L466.782 116.01C466.295 117.336 467.3 118.736 468.713 118.698L503.04 117.781C503.861 117.759 504.585 117.237 504.866 116.466L509.166 104.651C509.454 103.861 510.199 103.338 511.033 103.232C517.13 102.458 533 97.1628 533 82.6198C533 75.1638 525.461 72.4294 520.712 71.3692C519.408 71.0783 518.564 69.6181 518.682 68.2877C519.073 63.8563 517.458 56.2627 509.645 53.2694C497.408 48.581 491.824 58.0018 488.966 63.304C488.34 64.4657 486.695 64.7527 485.475 64.2485C479.881 61.9364 466.775 60.9599 461.091 70.8791C452.743 85.4502 463.108 95.3638 470.886 98.8879C471.911 99.352 472.469 100.513 472.082 101.569Z" fill="#8784D6"/>
<path d="M503.563 128.098L503.867 126.049C504.143 124.18 502.645 122.524 500.758 122.613L466.39 124.236C465.107 124.296 464.005 125.167 463.649 126.4L463.526 126.827C462.972 128.745 464.411 130.659 466.408 130.659H500.596C502.083 130.659 503.345 129.569 503.563 128.098Z" fill="#8784D6"/>
</svg>
