<svg width="495" height="297" viewBox="0 0 495 297" fill="none" xmlns="http://www.w3.org/2000/svg">
<path d="M494.076 39.2246C494.076 28.4939 485.607 19.6755 474.885 19.241L20.8097 0.84315C9.45566 0.383117 0 9.46343 0 20.8268V275.388C0 286.996 9.84998 296.166 21.4286 295.337L475.504 262.818C485.969 262.069 494.076 253.361 494.076 242.869V39.2246Z" fill="#4204AC"/>
<path d="M44.6207 100.944V58.2243H53.8007C55.4807 58.2243 56.9607 58.4443 58.2407 58.8843C59.5207 59.3243 60.6807 60.1043 61.7207 61.2243C62.7607 62.3443 63.4807 63.6643 63.8807 65.1843C64.2807 66.6643 64.4807 68.6843 64.4807 71.2443C64.4807 73.1643 64.3607 74.7843 64.1207 76.1043C63.9207 77.4243 63.4607 78.6643 62.7407 79.8243C61.9007 81.2243 60.7807 82.3243 59.3807 83.1243C57.9807 83.8843 56.1407 84.2643 53.8607 84.2643H50.7407V100.944H44.6207ZM50.7407 63.9843V78.5043H53.6807C54.9207 78.5043 55.8807 78.3243 56.5607 77.9643C57.2407 77.6043 57.7407 77.1043 58.0607 76.4643C58.3807 75.8643 58.5607 75.1243 58.6007 74.2443C58.6807 73.3643 58.7207 72.3843 58.7207 71.3043C58.7207 70.3043 58.7007 69.3643 58.6607 68.4843C58.6207 67.5643 58.4407 66.7643 58.1207 66.0843C57.8007 65.4043 57.3207 64.8843 56.6807 64.5243C56.0407 64.1643 55.1207 63.9843 53.9207 63.9843H50.7407ZM78.5878 86.0043L75.5878 70.5243H75.4678L72.4678 86.0043H78.5878ZM63.4678 100.944L73.0078 58.2243H78.1078L87.6478 100.944H81.5278L79.7278 91.7643H71.3878L69.5878 100.944H63.4678ZM88.6954 69.0243C88.6954 67.8243 88.9354 66.4643 89.4154 64.9443C89.9354 63.4243 90.7154 62.1243 91.7554 61.0443C92.6754 60.1243 93.7154 59.3643 94.8754 58.7643C96.0354 58.1643 97.3754 57.8643 98.8954 57.8643C100.695 57.8643 102.235 58.1843 103.515 58.8243C104.835 59.4243 105.915 60.2443 106.755 61.2843C107.635 62.3243 108.275 63.5643 108.675 65.0043C109.075 66.4443 109.275 67.9643 109.275 69.5643C109.275 70.3643 109.255 71.1843 109.215 72.0243C109.175 72.8243 109.015 73.6443 108.735 74.4843C108.495 75.2843 108.075 76.0443 107.475 76.7643C106.915 77.4843 106.095 78.1443 105.015 78.7443C106.095 79.1843 106.915 79.7643 107.475 80.4843C108.075 81.1643 108.495 81.9443 108.735 82.8243C109.015 83.6643 109.175 84.6043 109.215 85.6443C109.255 86.6443 109.275 87.6843 109.275 88.7643C109.275 90.5643 109.075 92.2443 108.675 93.8043C108.315 95.3643 107.695 96.6643 106.815 97.7043C105.935 98.7443 104.815 99.6043 103.455 100.284C102.135 100.964 100.495 101.304 98.5354 101.304C97.0554 101.304 95.6754 101.044 94.3954 100.524C93.1154 100.004 92.0154 99.2843 91.0954 98.3643C90.1754 97.4443 89.4754 96.2643 88.9954 94.8243C88.5154 93.3843 88.2754 91.9443 88.2754 90.5043V88.8843H94.3954L94.4554 90.5643C94.4554 91.1243 94.5154 91.6843 94.6354 92.2443C94.7954 92.7643 95.0354 93.2443 95.3554 93.6843C95.6754 94.1243 96.0954 94.4843 96.6154 94.7643C97.1354 95.0443 97.7954 95.1843 98.5954 95.1843C100.395 95.1843 101.595 94.6243 102.195 93.5043C102.835 92.3443 103.155 90.7843 103.155 88.8243C103.155 87.7043 103.115 86.6643 103.035 85.7043C102.955 84.7043 102.755 83.9243 102.435 83.3643C101.715 82.1243 100.515 81.5043 98.8354 81.5043H96.4954V76.1043H99.0154C99.7754 76.1043 100.455 75.9643 101.055 75.6843C101.655 75.4043 102.135 74.9243 102.495 74.2443C102.815 73.6043 102.995 72.8443 103.035 71.9643C103.115 71.0843 103.155 70.3043 103.155 69.6243C103.155 68.9043 103.095 68.2043 102.975 67.5243C102.855 66.8043 102.635 66.1843 102.315 65.6643C101.995 65.1843 101.555 64.7843 100.995 64.4643C100.475 64.1443 99.7954 63.9843 98.9554 63.9843C98.1954 63.9843 97.5554 64.1243 97.0354 64.4043C96.5554 64.6843 96.1554 65.0443 95.8354 65.4843C95.4754 65.9643 95.2154 66.5843 95.0554 67.3443C94.8954 68.1043 94.8154 68.8443 94.8154 69.5643V70.5243H88.6954V69.0243ZM114.481 100.944V58.2243H120.601V76.5243H128.161V58.2243H134.281V100.944H128.161V81.9243H120.601V100.944H114.481ZM139.068 68.3043C139.068 66.5843 139.368 65.0643 139.968 63.7443C140.568 62.4243 141.368 61.3243 142.368 60.4443C143.328 59.6043 144.408 58.9643 145.608 58.5243C146.848 58.0843 148.088 57.8643 149.328 57.8643C150.568 57.8643 151.788 58.0843 152.988 58.5243C154.228 58.9643 155.348 59.6043 156.348 60.4443C157.308 61.3243 158.088 62.4243 158.688 63.7443C159.288 65.0643 159.588 66.5843 159.588 68.3043V90.8643C159.588 92.6643 159.288 94.2043 158.688 95.4843C158.088 96.7643 157.308 97.8243 156.348 98.6643C155.348 99.5443 154.228 100.204 152.988 100.644C151.788 101.084 150.568 101.304 149.328 101.304C148.088 101.304 146.848 101.084 145.608 100.644C144.408 100.204 143.328 99.5443 142.368 98.6643C141.368 97.8243 140.568 96.7643 139.968 95.4843C139.368 94.2043 139.068 92.6643 139.068 90.8643V68.3043ZM145.188 90.8643C145.188 92.3443 145.588 93.4443 146.388 94.1643C147.228 94.8443 148.208 95.1843 149.328 95.1843C150.448 95.1843 151.408 94.8443 152.208 94.1643C153.048 93.4443 153.468 92.3443 153.468 90.8643V68.3043C153.468 66.8243 153.048 65.7443 152.208 65.0643C151.408 64.3443 150.448 63.9843 149.328 63.9843C148.208 63.9843 147.228 64.3443 146.388 65.0643C145.588 65.7443 145.188 66.8243 145.188 68.3043V90.8643ZM164.015 68.3043C164.015 66.5843 164.315 65.0643 164.915 63.7443C165.515 62.4243 166.315 61.3243 167.315 60.4443C168.275 59.6043 169.355 58.9643 170.555 58.5243C171.795 58.0843 173.035 57.8643 174.275 57.8643C175.515 57.8643 176.735 58.0843 177.935 58.5243C179.175 58.9643 180.295 59.6043 181.295 60.4443C182.255 61.3243 183.035 62.4243 183.635 63.7443C184.235 65.0643 184.535 66.5843 184.535 68.3043V90.8643C184.535 92.6643 184.235 94.2043 183.635 95.4843C183.035 96.7643 182.255 97.8243 181.295 98.6643C180.295 99.5443 179.175 100.204 177.935 100.644C176.735 101.084 175.515 101.304 174.275 101.304C173.035 101.304 171.795 101.084 170.555 100.644C169.355 100.204 168.275 99.5443 167.315 98.6643C166.315 97.8243 165.515 96.7643 164.915 95.4843C164.315 94.2043 164.015 92.6643 164.015 90.8643V68.3043ZM170.135 90.8643C170.135 92.3443 170.535 93.4443 171.335 94.1643C172.175 94.8443 173.155 95.1843 174.275 95.1843C175.395 95.1843 176.355 94.8443 177.155 94.1643C177.995 93.4443 178.415 92.3443 178.415 90.8643V68.3043C178.415 66.8243 177.995 65.7443 177.155 65.0643C176.355 64.3443 175.395 63.9843 174.275 63.9843C173.155 63.9843 172.175 64.3443 171.335 65.0643C170.535 65.7443 170.135 66.8243 170.135 68.3043V90.8643ZM189.321 58.2243H206.841V63.9843H195.441V75.7443H197.841C199.961 75.7443 201.721 76.0243 203.121 76.5843C204.561 77.1443 205.721 77.9443 206.601 78.9843C207.521 80.1043 208.101 81.3243 208.341 82.6443C208.581 83.9243 208.721 85.3443 208.761 86.9043V89.3043C208.761 93.0643 207.841 95.9443 206.001 97.9443C204.201 99.9443 201.301 100.944 197.301 100.944H189.321V58.2243ZM195.441 81.1443V94.8243H197.721C198.961 94.8243 199.921 94.6443 200.601 94.2843C201.321 93.9243 201.861 93.4243 202.221 92.7843C202.581 92.1443 202.801 91.3843 202.881 90.5043C202.961 89.6243 203.001 88.6643 203.001 87.6243C203.001 86.5443 202.921 85.6043 202.761 84.8043C202.641 83.9643 202.381 83.2843 201.981 82.7643C201.581 82.2443 201.061 81.8443 200.421 81.5643C199.781 81.2843 198.901 81.1443 197.781 81.1443H195.441ZM212.979 100.944V58.2243H222.159C223.839 58.2243 225.319 58.4443 226.599 58.8843C227.879 59.3243 229.039 60.1043 230.079 61.2243C231.119 62.3443 231.839 63.6643 232.239 65.1843C232.639 66.6643 232.839 68.6843 232.839 71.2443C232.839 73.1643 232.719 74.7843 232.479 76.1043C232.279 77.4243 231.819 78.6643 231.099 79.8243C230.259 81.2243 229.139 82.3243 227.739 83.1243C226.339 83.8843 224.499 84.2643 222.219 84.2643H219.099V100.944H212.979ZM219.099 63.9843V78.5043H222.039C223.279 78.5043 224.239 78.3243 224.919 77.9643C225.599 77.6043 226.099 77.1043 226.419 76.4643C226.739 75.8643 226.919 75.1243 226.959 74.2443C227.039 73.3643 227.079 72.3843 227.079 71.3043C227.079 70.3043 227.059 69.3643 227.019 68.4843C226.979 67.5643 226.799 66.7643 226.479 66.0843C226.159 65.4043 225.679 64.8843 225.039 64.5243C224.399 64.1643 223.479 63.9843 222.279 63.9843H219.099ZM246.946 86.0043L243.946 70.5243H243.826L240.826 86.0043H246.946ZM231.826 100.944L241.366 58.2243H246.466L256.006 100.944H249.886L248.086 91.7643H239.746L237.946 100.944H231.826ZM257.054 69.0243C257.054 67.8243 257.294 66.4643 257.774 64.9443C258.294 63.4243 259.074 62.1243 260.114 61.0443C261.034 60.1243 262.074 59.3643 263.234 58.7643C264.394 58.1643 265.734 57.8643 267.254 57.8643C269.054 57.8643 270.594 58.1843 271.874 58.8243C273.194 59.4243 274.274 60.2443 275.114 61.2843C275.994 62.3243 276.634 63.5643 277.034 65.0043C277.434 66.4443 277.634 67.9643 277.634 69.5643C277.634 70.3643 277.614 71.1843 277.574 72.0243C277.534 72.8243 277.374 73.6443 277.094 74.4843C276.854 75.2843 276.434 76.0443 275.834 76.7643C275.274 77.4843 274.454 78.1443 273.374 78.7443C274.454 79.1843 275.274 79.7643 275.834 80.4843C276.434 81.1643 276.854 81.9443 277.094 82.8243C277.374 83.6643 277.534 84.6043 277.574 85.6443C277.614 86.6443 277.634 87.6843 277.634 88.7643C277.634 90.5643 277.434 92.2443 277.034 93.8043C276.674 95.3643 276.054 96.6643 275.174 97.7043C274.294 98.7443 273.174 99.6043 271.814 100.284C270.494 100.964 268.854 101.304 266.894 101.304C265.414 101.304 264.034 101.044 262.754 100.524C261.474 100.004 260.374 99.2843 259.454 98.3643C258.534 97.4443 257.834 96.2643 257.354 94.8243C256.874 93.3843 256.634 91.9443 256.634 90.5043V88.8843H262.754L262.814 90.5643C262.814 91.1243 262.874 91.6843 262.994 92.2443C263.154 92.7643 263.394 93.2443 263.714 93.6843C264.034 94.1243 264.454 94.4843 264.974 94.7643C265.494 95.0443 266.154 95.1843 266.954 95.1843C268.754 95.1843 269.954 94.6243 270.554 93.5043C271.194 92.3443 271.514 90.7843 271.514 88.8243C271.514 87.7043 271.474 86.6643 271.394 85.7043C271.314 84.7043 271.114 83.9243 270.794 83.3643C270.074 82.1243 268.874 81.5043 267.194 81.5043H264.854V76.1043H267.374C268.134 76.1043 268.814 75.9643 269.414 75.6843C270.014 75.4043 270.494 74.9243 270.854 74.2443C271.174 73.6043 271.354 72.8443 271.394 71.9643C271.474 71.0843 271.514 70.3043 271.514 69.6243C271.514 68.9043 271.454 68.2043 271.334 67.5243C271.214 66.8043 270.994 66.1843 270.674 65.6643C270.354 65.1843 269.914 64.7843 269.354 64.4643C268.834 64.1443 268.154 63.9843 267.314 63.9843C266.554 63.9843 265.914 64.1243 265.394 64.4043C264.914 64.6843 264.514 65.0443 264.194 65.4843C263.834 65.9643 263.574 66.5843 263.414 67.3443C263.254 68.1043 263.174 68.8443 263.174 69.5643V70.5243H257.054V69.0243ZM297.119 100.944V73.2243H296.999L288.959 100.944H282.839V58.2243H288.959V86.0043H289.079L297.119 58.2243H303.239V100.944H297.119ZM308.372 100.944V58.2243H326.612V63.9843H314.492V76.5243H325.052V82.2843H314.492V94.8243H326.612V100.944H308.372Z" fill="white"/>
<path d="M47.1522 157.723V140.635H49.5042L52.6482 149.683H52.6962L55.8162 140.635H58.1922V157.723H55.7442V147.331H55.6962L53.2722 154.675H52.0482L49.6482 147.331H49.6002V157.723H47.1522ZM60.3442 157.723V145.555H62.7922V150.355H63.3922C64.0322 150.355 64.5922 150.419 65.0722 150.547C65.5682 150.659 65.9762 150.859 66.2962 151.147C66.6322 151.435 66.8802 151.819 67.0402 152.299C67.2162 152.779 67.3042 153.371 67.3042 154.075C67.3042 154.587 67.2242 155.083 67.0642 155.563C66.9202 156.027 66.6882 156.427 66.3682 156.763C65.9842 157.163 65.5282 157.427 65.0002 157.555C64.4722 157.667 63.9442 157.723 63.4162 157.723H60.3442ZM62.7922 155.683H63.6322C63.9842 155.683 64.2962 155.571 64.5682 155.347C64.8562 155.107 65.0002 154.683 65.0002 154.075C65.0002 153.579 64.9042 153.179 64.7122 152.875C64.5362 152.555 64.1602 152.395 63.5842 152.395H62.7922V155.683ZM68.3602 157.723V145.555H70.8082V157.723H68.3602ZM77.2661 157.723V145.555H84.5861V157.723H82.1381V147.595H79.7141V157.723H77.2661ZM86.5004 162.643V145.555H88.9484V146.659C89.2524 146.307 89.5644 146.011 89.8844 145.771C90.2044 145.531 90.6684 145.411 91.2764 145.411C92.2844 145.411 92.9964 145.795 93.4124 146.563C93.5564 146.835 93.6604 147.171 93.7244 147.571C93.7884 147.971 93.8204 148.507 93.8204 149.179V153.811C93.8204 154.707 93.7964 155.355 93.7484 155.755C93.6524 156.555 93.2844 157.155 92.6444 157.555C92.3244 157.763 91.8604 157.867 91.2524 157.867C90.7724 157.867 90.3404 157.763 89.9564 157.555C89.5884 157.331 89.2684 157.019 88.9964 156.619H88.9484V162.643H86.5004ZM91.3724 149.515C91.3724 149.019 91.2764 148.619 91.0844 148.315C90.8924 148.011 90.5884 147.859 90.1724 147.859C89.8044 147.859 89.5084 148.003 89.2844 148.291C89.0604 148.563 88.9484 148.923 88.9484 149.371V154.099C88.9484 154.483 89.0604 154.803 89.2844 155.059C89.5244 155.299 89.8204 155.419 90.1724 155.419C90.6364 155.419 90.9484 155.275 91.1084 154.987C91.2844 154.699 91.3724 154.363 91.3724 153.979V149.515ZM102.909 152.563H98.0606V154.219C98.0606 154.603 98.1646 154.899 98.3726 155.107C98.5966 155.315 98.8926 155.419 99.2606 155.419C99.7246 155.419 100.029 155.283 100.173 155.011C100.333 154.739 100.429 154.467 100.461 154.195H102.909C102.909 155.267 102.581 156.131 101.925 156.787C101.605 157.123 101.221 157.387 100.773 157.579C100.325 157.771 99.8206 157.867 99.2606 157.867C98.4926 157.867 97.8366 157.707 97.2926 157.387C96.7646 157.067 96.3566 156.643 96.0686 156.115C95.8926 155.795 95.7726 155.427 95.7086 155.011C95.6446 154.595 95.6126 154.139 95.6126 153.643V149.635C95.6126 149.139 95.6446 148.683 95.7086 148.267C95.7726 147.851 95.8926 147.483 96.0686 147.163C96.3566 146.635 96.7646 146.211 97.2926 145.891C97.8366 145.571 98.4926 145.411 99.2606 145.411C99.8206 145.411 100.325 145.507 100.773 145.699C101.237 145.891 101.629 146.155 101.949 146.491C102.589 147.211 102.909 148.115 102.909 149.203V152.563ZM98.0606 150.643H100.461V149.251C100.461 148.787 100.349 148.443 100.125 148.219C99.9166 147.979 99.6286 147.859 99.2606 147.859C98.8926 147.859 98.5966 147.979 98.3726 148.219C98.1646 148.443 98.0606 148.787 98.0606 149.251V150.643ZM105.464 157.723V160.123H103.4V155.683H104.504C104.68 155.347 104.832 154.899 104.96 154.339C105.104 153.779 105.216 153.187 105.296 152.563C105.36 152.051 105.4 151.523 105.416 150.979C105.432 150.435 105.44 149.939 105.44 149.491V145.555H112.16V155.683H113.312V160.123H111.248V157.723H105.464ZM107.744 147.595V149.419C107.744 149.627 107.736 149.883 107.72 150.187C107.704 150.475 107.68 150.779 107.648 151.099C107.632 151.403 107.608 151.707 107.576 152.011C107.56 152.299 107.536 152.547 107.504 152.755C107.44 153.171 107.336 153.667 107.192 154.243C107.064 154.803 106.912 155.283 106.736 155.683H109.712V147.595H107.744ZM114.184 155.419C114.36 155.419 114.536 155.371 114.712 155.275C114.904 155.179 115.096 155.011 115.288 154.771C115.448 154.579 115.576 154.307 115.672 153.955C115.768 153.587 115.84 153.211 115.888 152.827C115.936 152.427 115.968 152.051 115.984 151.699C116 151.331 116.008 151.051 116.008 150.859V145.555H122.728V157.723H120.28V147.595H118.312V149.851C118.312 150.411 118.296 150.979 118.264 151.555C118.232 152.115 118.176 152.659 118.096 153.187C118.032 153.699 117.944 154.179 117.832 154.627C117.72 155.075 117.576 155.459 117.4 155.779C117.064 156.403 116.624 156.883 116.08 157.219C115.536 157.555 114.92 157.723 114.232 157.723H114.064V155.419H114.184ZM129.382 157.723V156.475H129.334C129.014 156.923 128.686 157.267 128.35 157.507C128.03 157.747 127.574 157.867 126.982 157.867C126.694 157.867 126.398 157.819 126.094 157.723C125.806 157.643 125.526 157.483 125.254 157.243C124.982 157.019 124.758 156.699 124.582 156.283C124.422 155.851 124.342 155.299 124.342 154.627C124.342 153.939 124.398 153.339 124.51 152.827C124.622 152.299 124.83 151.859 125.134 151.507C125.422 151.171 125.814 150.923 126.31 150.763C126.806 150.587 127.438 150.499 128.206 150.499C128.286 150.499 128.374 150.499 128.47 150.499C128.566 150.499 128.654 150.507 128.734 150.523C128.814 150.539 128.91 150.547 129.022 150.547C129.134 150.547 129.254 150.555 129.382 150.571V149.299C129.382 148.883 129.294 148.539 129.118 148.267C128.942 147.995 128.622 147.859 128.158 147.859C127.838 147.859 127.542 147.963 127.27 148.171C127.014 148.379 126.846 148.683 126.766 149.083H124.39C124.454 147.995 124.822 147.115 125.494 146.443C125.814 146.123 126.198 145.875 126.646 145.699C127.094 145.507 127.598 145.411 128.158 145.411C128.67 145.411 129.15 145.491 129.598 145.651C130.046 145.811 130.438 146.051 130.774 146.371C131.094 146.691 131.35 147.091 131.542 147.571C131.734 148.051 131.83 148.611 131.83 149.251V157.723H129.382ZM129.382 152.491C129.11 152.443 128.886 152.419 128.71 152.419C128.182 152.419 127.726 152.547 127.342 152.803C126.974 153.043 126.79 153.491 126.79 154.147C126.79 154.611 126.902 154.987 127.126 155.275C127.35 155.563 127.662 155.707 128.062 155.707C128.478 155.707 128.798 155.571 129.022 155.299C129.262 155.027 129.382 154.643 129.382 154.147V152.491ZM133.633 157.723V145.555H139.441V147.715H136.081V157.723H133.633ZM144.968 157.723V156.475H144.92C144.6 156.923 144.272 157.267 143.936 157.507C143.616 157.747 143.16 157.867 142.568 157.867C142.28 157.867 141.984 157.819 141.68 157.723C141.392 157.643 141.112 157.483 140.84 157.243C140.568 157.019 140.344 156.699 140.168 156.283C140.008 155.851 139.928 155.299 139.928 154.627C139.928 153.939 139.984 153.339 140.096 152.827C140.208 152.299 140.416 151.859 140.72 151.507C141.008 151.171 141.4 150.923 141.896 150.763C142.392 150.587 143.024 150.499 143.792 150.499C143.872 150.499 143.96 150.499 144.056 150.499C144.152 150.499 144.24 150.507 144.32 150.523C144.4 150.539 144.496 150.547 144.608 150.547C144.72 150.547 144.84 150.555 144.968 150.571V149.299C144.968 148.883 144.88 148.539 144.704 148.267C144.528 147.995 144.208 147.859 143.744 147.859C143.424 147.859 143.128 147.963 142.856 148.171C142.6 148.379 142.432 148.683 142.352 149.083H139.976C140.04 147.995 140.408 147.115 141.08 146.443C141.4 146.123 141.784 145.875 142.232 145.699C142.68 145.507 143.184 145.411 143.744 145.411C144.256 145.411 144.736 145.491 145.184 145.651C145.632 145.811 146.024 146.051 146.36 146.371C146.68 146.691 146.936 147.091 147.128 147.571C147.32 148.051 147.416 148.611 147.416 149.251V157.723H144.968ZM144.968 152.491C144.696 152.443 144.472 152.419 144.296 152.419C143.768 152.419 143.312 152.547 142.928 152.803C142.56 153.043 142.376 153.491 142.376 154.147C142.376 154.611 142.488 154.987 142.712 155.275C142.936 155.563 143.248 155.707 143.648 155.707C144.064 155.707 144.384 155.571 144.608 155.299C144.848 155.027 144.968 154.643 144.968 154.147V152.491ZM156.299 152.563H151.451V154.219C151.451 154.603 151.555 154.899 151.763 155.107C151.987 155.315 152.283 155.419 152.651 155.419C153.115 155.419 153.419 155.283 153.563 155.011C153.723 154.739 153.819 154.467 153.851 154.195H156.299C156.299 155.267 155.971 156.131 155.315 156.787C154.995 157.123 154.611 157.387 154.163 157.579C153.715 157.771 153.211 157.867 152.651 157.867C151.883 157.867 151.227 157.707 150.683 157.387C150.155 157.067 149.747 156.643 149.459 156.115C149.283 155.795 149.163 155.427 149.099 155.011C149.035 154.595 149.003 154.139 149.003 153.643V149.635C149.003 149.139 149.035 148.683 149.099 148.267C149.163 147.851 149.283 147.483 149.459 147.163C149.747 146.635 150.155 146.211 150.683 145.891C151.227 145.571 151.883 145.411 152.651 145.411C153.211 145.411 153.715 145.507 154.163 145.699C154.627 145.891 155.019 146.155 155.339 146.491C155.979 147.211 156.299 148.115 156.299 149.203V152.563ZM151.451 150.643H153.851V149.251C153.851 148.787 153.739 148.443 153.515 148.219C153.307 147.979 153.019 147.859 152.651 147.859C152.283 147.859 151.987 147.979 151.763 148.219C151.555 148.443 151.451 148.787 151.451 149.251V150.643ZM158.102 157.723V145.555H160.598L163.07 152.083H163.118L165.59 145.555H168.086V157.723H165.734V150.355H165.686L163.718 155.731H162.47L160.502 150.355H160.454V157.723H158.102ZM185.883 145.555V157.723H174.555V145.555H177.003V155.683H178.995V145.555H181.443V155.683H183.435V145.555H185.883ZM193.147 157.723V149.995H193.099L190.387 157.723H187.891V145.555H190.195V153.283H190.243L192.931 145.555H195.451V157.723H193.147ZM197.477 162.643V145.555H199.925V146.659C200.229 146.307 200.541 146.011 200.861 145.771C201.181 145.531 201.645 145.411 202.253 145.411C203.261 145.411 203.973 145.795 204.389 146.563C204.533 146.835 204.637 147.171 204.701 147.571C204.765 147.971 204.797 148.507 204.797 149.179V153.811C204.797 154.707 204.773 155.355 204.725 155.755C204.629 156.555 204.261 157.155 203.621 157.555C203.301 157.763 202.837 157.867 202.229 157.867C201.749 157.867 201.317 157.763 200.933 157.555C200.565 157.331 200.245 157.019 199.973 156.619H199.925V162.643H197.477ZM202.349 149.515C202.349 149.019 202.253 148.619 202.061 148.315C201.869 148.011 201.565 147.859 201.149 147.859C200.781 147.859 200.485 148.003 200.261 148.291C200.037 148.563 199.925 148.923 199.925 149.371V154.099C199.925 154.483 200.037 154.803 200.261 155.059C200.501 155.299 200.797 155.419 201.149 155.419C201.613 155.419 201.925 155.275 202.085 154.987C202.261 154.699 202.349 154.363 202.349 153.979V149.515ZM206.589 149.635C206.589 149.139 206.621 148.683 206.685 148.267C206.749 147.851 206.869 147.483 207.045 147.163C207.333 146.635 207.741 146.211 208.269 145.891C208.813 145.571 209.469 145.411 210.237 145.411C211.005 145.411 211.653 145.571 212.181 145.891C212.725 146.211 213.141 146.635 213.429 147.163C213.605 147.483 213.725 147.851 213.789 148.267C213.853 148.683 213.885 149.139 213.885 149.635V153.643C213.885 154.139 213.853 154.595 213.789 155.011C213.725 155.427 213.605 155.795 213.429 156.115C213.141 156.643 212.725 157.067 212.181 157.387C211.653 157.707 211.005 157.867 210.237 157.867C209.469 157.867 208.813 157.707 208.269 157.387C207.741 157.067 207.333 156.643 207.045 156.115C206.869 155.795 206.749 155.427 206.685 155.011C206.621 154.595 206.589 154.139 206.589 153.643V149.635ZM209.037 154.027C209.037 154.491 209.141 154.843 209.349 155.083C209.573 155.307 209.869 155.419 210.237 155.419C210.605 155.419 210.893 155.307 211.101 155.083C211.325 154.843 211.437 154.491 211.437 154.027V149.251C211.437 148.787 211.325 148.443 211.101 148.219C210.893 147.979 210.605 147.859 210.237 147.859C209.869 147.859 209.573 147.979 209.349 148.219C209.141 148.443 209.037 148.787 209.037 149.251V154.027ZM215.688 157.723V145.555H218.136V150.523H219.072C219.44 150.523 219.688 150.395 219.816 150.139C219.944 149.883 220.048 149.563 220.128 149.179L220.392 147.787C220.488 147.419 220.608 147.091 220.752 146.803C220.912 146.499 221.12 146.259 221.376 146.083C221.648 145.891 221.96 145.755 222.312 145.675C222.68 145.595 223.096 145.555 223.56 145.555H223.608V147.715H223.536C223.248 147.715 223.008 147.771 222.816 147.883C222.624 147.979 222.488 148.211 222.408 148.579L222.168 149.923C222.152 149.971 222.128 150.067 222.096 150.211C222.08 150.355 222.04 150.515 221.976 150.691C221.912 150.851 221.824 151.011 221.712 151.171C221.616 151.331 221.488 151.451 221.328 151.531L223.776 157.723H221.28L219.336 152.563H218.136V157.723H215.688ZM230.225 157.723V149.995H230.177L227.465 157.723H224.969V145.555H227.273V153.283H227.321L230.009 145.555H232.529V157.723H230.225ZM239.811 157.723V149.995H239.763L237.051 157.723H234.555V145.555H236.859V153.283H236.907L239.595 145.555H242.115V157.723H239.811ZM237.123 141.043C237.139 141.139 237.147 141.259 237.147 141.403C237.163 141.531 237.203 141.667 237.267 141.811C237.347 141.939 237.467 142.051 237.627 142.147C237.787 142.243 238.019 142.291 238.323 142.291C238.627 142.291 238.859 142.243 239.019 142.147C239.179 142.051 239.291 141.939 239.355 141.811C239.435 141.667 239.475 141.531 239.475 141.403C239.491 141.259 239.507 141.139 239.523 141.043H241.563C241.483 141.939 241.187 142.627 240.675 143.107C240.179 143.587 239.395 143.827 238.323 143.827C237.251 143.827 236.459 143.587 235.947 143.107C235.451 142.611 235.163 141.923 235.083 141.043H237.123ZM253.226 157.723V156.475H253.178C252.858 156.923 252.53 157.267 252.194 157.507C251.874 157.747 251.418 157.867 250.826 157.867C250.538 157.867 250.242 157.819 249.938 157.723C249.65 157.643 249.37 157.483 249.098 157.243C248.826 157.019 248.602 156.699 248.426 156.283C248.266 155.851 248.186 155.299 248.186 154.627C248.186 153.939 248.242 153.339 248.354 152.827C248.466 152.299 248.674 151.859 248.978 151.507C249.266 151.171 249.658 150.923 250.154 150.763C250.65 150.587 251.282 150.499 252.05 150.499C252.13 150.499 252.218 150.499 252.314 150.499C252.41 150.499 252.498 150.507 252.578 150.523C252.658 150.539 252.754 150.547 252.866 150.547C252.978 150.547 253.098 150.555 253.226 150.571V149.299C253.226 148.883 253.138 148.539 252.962 148.267C252.786 147.995 252.466 147.859 252.002 147.859C251.682 147.859 251.386 147.963 251.114 148.171C250.858 148.379 250.69 148.683 250.61 149.083H248.234C248.298 147.995 248.666 147.115 249.338 146.443C249.658 146.123 250.042 145.875 250.49 145.699C250.938 145.507 251.442 145.411 252.002 145.411C252.514 145.411 252.994 145.491 253.442 145.651C253.89 145.811 254.282 146.051 254.618 146.371C254.938 146.691 255.194 147.091 255.386 147.571C255.578 148.051 255.674 148.611 255.674 149.251V157.723H253.226ZM253.226 152.491C252.954 152.443 252.73 152.419 252.554 152.419C252.026 152.419 251.57 152.547 251.186 152.803C250.818 153.043 250.634 153.491 250.634 154.147C250.634 154.611 250.746 154.987 250.97 155.275C251.194 155.563 251.506 155.707 251.906 155.707C252.322 155.707 252.642 155.571 252.866 155.299C253.106 155.027 253.226 154.643 253.226 154.147V152.491ZM260.069 154.219C260.069 154.603 260.173 154.899 260.381 155.107C260.605 155.315 260.901 155.419 261.269 155.419C261.733 155.419 262.037 155.283 262.181 155.011C262.341 154.739 262.437 154.467 262.469 154.195H264.917C264.917 155.267 264.589 156.131 263.933 156.787C263.613 157.123 263.229 157.387 262.781 157.579C262.333 157.771 261.829 157.867 261.269 157.867C260.501 157.867 259.845 157.707 259.301 157.387C258.773 157.067 258.365 156.643 258.077 156.115C257.901 155.795 257.781 155.427 257.717 155.011C257.653 154.595 257.621 154.139 257.621 153.643V149.635C257.621 149.139 257.653 148.683 257.717 148.267C257.781 147.851 257.901 147.483 258.077 147.163C258.365 146.635 258.773 146.211 259.301 145.891C259.845 145.571 260.501 145.411 261.269 145.411C261.829 145.411 262.333 145.507 262.781 145.699C263.245 145.891 263.637 146.155 263.957 146.491C264.597 147.211 264.917 148.147 264.917 149.299H262.469C262.469 148.803 262.357 148.443 262.133 148.219C261.925 147.979 261.637 147.859 261.269 147.859C260.901 147.859 260.605 147.979 260.381 148.219C260.173 148.443 260.069 148.787 260.069 149.251V154.219ZM268.483 154.219C268.483 154.603 268.587 154.899 268.795 155.107C269.019 155.315 269.315 155.419 269.683 155.419C270.147 155.419 270.451 155.283 270.595 155.011C270.755 154.739 270.851 154.467 270.883 154.195H273.331C273.331 155.267 273.003 156.131 272.347 156.787C272.027 157.123 271.643 157.387 271.195 157.579C270.747 157.771 270.243 157.867 269.683 157.867C268.915 157.867 268.259 157.707 267.715 157.387C267.187 157.067 266.779 156.643 266.491 156.115C266.315 155.795 266.195 155.427 266.131 155.011C266.067 154.595 266.035 154.139 266.035 153.643V149.635C266.035 149.139 266.067 148.683 266.131 148.267C266.195 147.851 266.315 147.483 266.491 147.163C266.779 146.635 267.187 146.211 267.715 145.891C268.259 145.571 268.915 145.411 269.683 145.411C270.243 145.411 270.747 145.507 271.195 145.699C271.659 145.891 272.051 146.155 272.371 146.491C273.011 147.211 273.331 148.147 273.331 149.299H270.883C270.883 148.803 270.771 148.443 270.547 148.219C270.339 147.979 270.051 147.859 269.683 147.859C269.315 147.859 269.019 147.979 268.795 148.219C268.587 148.443 268.483 148.787 268.483 149.251V154.219ZM274.558 149.635C274.558 149.139 274.59 148.683 274.654 148.267C274.718 147.851 274.838 147.483 275.014 147.163C275.302 146.635 275.71 146.211 276.238 145.891C276.782 145.571 277.438 145.411 278.206 145.411C278.974 145.411 279.622 145.571 280.15 145.891C280.694 146.211 281.11 146.635 281.398 147.163C281.574 147.483 281.694 147.851 281.758 148.267C281.822 148.683 281.854 149.139 281.854 149.635V153.643C281.854 154.139 281.822 154.595 281.758 155.011C281.694 155.427 281.574 155.795 281.398 156.115C281.11 156.643 280.694 157.067 280.15 157.387C279.622 157.707 278.974 157.867 278.206 157.867C277.438 157.867 276.782 157.707 276.238 157.387C275.71 157.067 275.302 156.643 275.014 156.115C274.838 155.795 274.718 155.427 274.654 155.011C274.59 154.595 274.558 154.139 274.558 153.643V149.635ZM277.006 154.027C277.006 154.491 277.11 154.843 277.318 155.083C277.542 155.307 277.838 155.419 278.206 155.419C278.574 155.419 278.862 155.307 279.07 155.083C279.294 154.843 279.406 154.491 279.406 154.027V149.251C279.406 148.787 279.294 148.443 279.07 148.219C278.862 147.979 278.574 147.859 278.206 147.859C277.838 147.859 277.542 147.979 277.318 148.219C277.11 148.443 277.006 148.787 277.006 149.251V154.027ZM283.657 162.643V145.555H286.105V146.659C286.409 146.307 286.721 146.011 287.041 145.771C287.361 145.531 287.825 145.411 288.433 145.411C289.441 145.411 290.153 145.795 290.569 146.563C290.713 146.835 290.817 147.171 290.881 147.571C290.945 147.971 290.977 148.507 290.977 149.179V153.811C290.977 154.707 290.953 155.355 290.905 155.755C290.809 156.555 290.441 157.155 289.801 157.555C289.481 157.763 289.017 157.867 288.409 157.867C287.929 157.867 287.497 157.763 287.113 157.555C286.745 157.331 286.425 157.019 286.153 156.619H286.105V162.643H283.657ZM288.529 149.515C288.529 149.019 288.433 148.619 288.241 148.315C288.049 148.011 287.745 147.859 287.329 147.859C286.961 147.859 286.665 148.003 286.441 148.291C286.217 148.563 286.105 148.923 286.105 149.371V154.099C286.105 154.483 286.217 154.803 286.441 155.059C286.681 155.299 286.977 155.419 287.329 155.419C287.793 155.419 288.105 155.275 288.265 154.987C288.441 154.699 288.529 154.363 288.529 153.979V149.515ZM294.26 157.723V147.715H291.86V145.555H299.108V147.715H296.708V157.723H294.26ZM305.366 157.723V149.995H305.318L302.606 157.723H300.11V145.555H302.414V153.283H302.462L305.15 145.555H307.67V157.723H305.366ZM309.696 157.723V145.555H312.192L314.664 152.083H314.712L317.184 145.555H319.68V157.723H317.328V150.355H317.28L315.312 155.731H314.064L312.096 150.355H312.048V157.723H309.696ZM328.776 152.563H323.928V154.219C323.928 154.603 324.032 154.899 324.24 155.107C324.464 155.315 324.76 155.419 325.128 155.419C325.592 155.419 325.896 155.283 326.04 155.011C326.2 154.739 326.296 154.467 326.328 154.195H328.776C328.776 155.267 328.448 156.131 327.792 156.787C327.472 157.123 327.088 157.387 326.64 157.579C326.192 157.771 325.688 157.867 325.128 157.867C324.36 157.867 323.704 157.707 323.16 157.387C322.632 157.067 322.224 156.643 321.936 156.115C321.76 155.795 321.64 155.427 321.576 155.011C321.512 154.595 321.48 154.139 321.48 153.643V149.635C321.48 149.139 321.512 148.683 321.576 148.267C321.64 147.851 321.76 147.483 321.936 147.163C322.224 146.635 322.632 146.211 323.16 145.891C323.704 145.571 324.36 145.411 325.128 145.411C325.688 145.411 326.192 145.507 326.64 145.699C327.104 145.891 327.496 146.155 327.816 146.491C328.456 147.211 328.776 148.115 328.776 149.203V152.563ZM323.928 150.643H326.328V149.251C326.328 148.787 326.216 148.443 325.992 148.219C325.784 147.979 325.496 147.859 325.128 147.859C324.76 147.859 324.464 147.979 324.24 148.219C324.032 148.443 323.928 148.787 323.928 149.251V150.643ZM330.579 157.723V145.555H333.027V150.523H335.499V145.555H337.947V157.723H335.499V152.563H333.027V157.723H330.579ZM341.346 157.723V147.715H338.946V145.555H346.194V147.715H343.794V157.723H341.346ZM47.0082 188.723V176.555H54.3282V188.723H51.8802V178.595H49.4562V188.723H47.0082ZM56.0266 180.635C56.0266 180.139 56.0586 179.683 56.1226 179.267C56.1866 178.851 56.3066 178.483 56.4826 178.163C56.7706 177.635 57.1786 177.211 57.7066 176.891C58.2506 176.571 58.9066 176.411 59.6746 176.411C60.4426 176.411 61.0906 176.571 61.6186 176.891C62.1626 177.211 62.5786 177.635 62.8666 178.163C63.0426 178.483 63.1626 178.851 63.2266 179.267C63.2906 179.683 63.3226 180.139 63.3226 180.635V184.643C63.3226 185.139 63.2906 185.595 63.2266 186.011C63.1626 186.427 63.0426 186.795 62.8666 187.115C62.5786 187.643 62.1626 188.067 61.6186 188.387C61.0906 188.707 60.4426 188.867 59.6746 188.867C58.9066 188.867 58.2506 188.707 57.7066 188.387C57.1786 188.067 56.7706 187.643 56.4826 187.115C56.3066 186.795 56.1866 186.427 56.1226 186.011C56.0586 185.595 56.0266 185.139 56.0266 184.643V180.635ZM58.4746 185.027C58.4746 185.491 58.5786 185.843 58.7866 186.083C59.0106 186.307 59.3066 186.419 59.6746 186.419C60.0426 186.419 60.3306 186.307 60.5386 186.083C60.7626 185.843 60.8746 185.491 60.8746 185.027V180.251C60.8746 179.787 60.7626 179.443 60.5386 179.219C60.3306 178.979 60.0426 178.859 59.6746 178.859C59.3066 178.859 59.0106 178.979 58.7866 179.219C58.5786 179.443 58.4746 179.787 58.4746 180.251V185.027ZM64.2854 186.419C64.4614 186.419 64.6374 186.371 64.8134 186.275C65.0054 186.179 65.1974 186.011 65.3894 185.771C65.5494 185.579 65.6774 185.307 65.7734 184.955C65.8694 184.587 65.9414 184.211 65.9894 183.827C66.0374 183.427 66.0694 183.051 66.0854 182.699C66.1014 182.331 66.1094 182.051 66.1094 181.859V176.555H72.8294V188.723H70.3814V178.595H68.4134V180.851C68.4134 181.411 68.3974 181.979 68.3654 182.555C68.3334 183.115 68.2774 183.659 68.1974 184.187C68.1334 184.699 68.0454 185.179 67.9334 185.627C67.8214 186.075 67.6774 186.459 67.5014 186.779C67.1654 187.403 66.7254 187.883 66.1814 188.219C65.6374 188.555 65.0214 188.723 64.3334 188.723H64.1654V186.419H64.2854ZM73.82 176.555H76.412L78.092 184.139H78.14L79.796 176.555H82.316L78.812 190.835C78.684 191.379 78.5 191.827 78.26 192.179C78.036 192.531 77.772 192.819 77.468 193.043C77.164 193.267 76.836 193.419 76.484 193.499C76.148 193.595 75.796 193.643 75.428 193.643H74.756V191.339H75.308C75.548 191.339 75.756 191.307 75.932 191.243C76.108 191.179 76.268 191.035 76.412 190.811C76.54 190.587 76.66 190.267 76.772 189.851C76.884 189.451 77.012 188.891 77.156 188.171L73.82 176.555ZM90.0575 177.515C90.1055 177.451 90.1775 177.363 90.2735 177.251C90.3855 177.123 90.5215 177.003 90.6815 176.891C90.8415 176.763 91.0335 176.659 91.2575 176.579C91.4815 176.499 91.7295 176.459 92.0015 176.459C92.4655 176.459 92.8575 176.547 93.1775 176.723C93.4975 176.899 93.7695 177.171 93.9935 177.539C94.1695 177.811 94.3135 178.195 94.4255 178.691C94.5375 179.171 94.5935 179.747 94.5935 180.419V184.811C94.5935 185.243 94.5615 185.699 94.4975 186.179C94.4495 186.659 94.3455 187.067 94.1855 187.403C93.9775 187.835 93.6815 188.179 93.2975 188.435C92.9295 188.691 92.5055 188.819 92.0255 188.819C91.5455 188.819 91.1535 188.731 90.8495 188.555C90.5615 188.379 90.3135 188.179 90.1055 187.955H90.0575V193.643H87.6095V187.955H87.5615C87.3535 188.179 87.0975 188.379 86.7935 188.555C86.5055 188.731 86.1215 188.819 85.6415 188.819C85.1615 188.819 84.7295 188.691 84.3455 188.435C83.9775 188.179 83.6895 187.835 83.4815 187.403C83.3215 187.067 83.2095 186.659 83.1455 186.179C83.0975 185.699 83.0735 185.243 83.0735 184.811V180.419C83.0735 179.747 83.1295 179.171 83.2415 178.691C83.3535 178.195 83.4975 177.811 83.6735 177.539C84.1215 176.819 84.7855 176.459 85.6655 176.459C85.9375 176.459 86.1855 176.499 86.4095 176.579C86.6335 176.659 86.8255 176.763 86.9855 176.891C87.1455 177.003 87.2735 177.123 87.3695 177.251C87.4815 177.363 87.5615 177.451 87.6095 177.515V171.635H90.0575V177.515ZM85.5215 184.979C85.5215 185.363 85.5855 185.699 85.7135 185.987C85.8415 186.275 86.1375 186.419 86.6015 186.419C86.9215 186.419 87.1775 186.307 87.3695 186.083C87.5615 185.859 87.6575 185.659 87.6575 185.483V179.819C87.6575 179.611 87.5535 179.403 87.3455 179.195C87.1375 178.971 86.8735 178.859 86.5535 178.859C86.1375 178.859 85.8575 179.011 85.7135 179.315C85.5855 179.619 85.5215 180.019 85.5215 180.515V184.979ZM92.1455 180.515C92.1455 180.019 92.0735 179.619 91.9295 179.315C91.8015 179.011 91.5295 178.859 91.1135 178.859C90.7935 178.859 90.5295 178.971 90.3215 179.195C90.1135 179.403 90.0095 179.611 90.0095 179.819V185.483C90.0095 185.659 90.1055 185.859 90.2975 186.083C90.4895 186.307 90.7455 186.419 91.0655 186.419C91.5295 186.419 91.8255 186.275 91.9535 185.987C92.0815 185.699 92.1455 185.363 92.1455 184.979V180.515ZM101.023 188.723V187.475H100.975C100.655 187.923 100.327 188.267 99.9911 188.507C99.6711 188.747 99.2151 188.867 98.6231 188.867C98.3351 188.867 98.0391 188.819 97.7351 188.723C97.4471 188.643 97.1671 188.483 96.8951 188.243C96.6231 188.019 96.3991 187.699 96.2231 187.283C96.0631 186.851 95.9831 186.299 95.9831 185.627C95.9831 184.939 96.0391 184.339 96.1511 183.827C96.2631 183.299 96.4711 182.859 96.7751 182.507C97.0631 182.171 97.4551 181.923 97.9511 181.763C98.4471 181.587 99.0791 181.499 99.8471 181.499C99.9271 181.499 100.015 181.499 100.111 181.499C100.207 181.499 100.295 181.507 100.375 181.523C100.455 181.539 100.551 181.547 100.663 181.547C100.775 181.547 100.895 181.555 101.023 181.571V180.299C101.023 179.883 100.935 179.539 100.759 179.267C100.583 178.995 100.263 178.859 99.7991 178.859C99.4791 178.859 99.1831 178.963 98.9111 179.171C98.6551 179.379 98.4871 179.683 98.4071 180.083H96.0311C96.0951 178.995 96.4631 178.115 97.1351 177.443C97.4551 177.123 97.8391 176.875 98.2871 176.699C98.7351 176.507 99.2391 176.411 99.7991 176.411C100.311 176.411 100.791 176.491 101.239 176.651C101.687 176.811 102.079 177.051 102.415 177.371C102.735 177.691 102.991 178.091 103.183 178.571C103.375 179.051 103.471 179.611 103.471 180.251V188.723H101.023ZM101.023 183.491C100.751 183.443 100.527 183.419 100.351 183.419C99.8231 183.419 99.3671 183.547 98.9831 183.803C98.6151 184.043 98.4311 184.491 98.4311 185.147C98.4311 185.611 98.5431 185.987 98.7671 186.275C98.9911 186.563 99.3031 186.707 99.7031 186.707C100.119 186.707 100.439 186.571 100.663 186.299C100.903 186.027 101.023 185.643 101.023 185.147V183.491ZM112.258 171.635C112.258 172.163 112.178 172.611 112.018 172.979C111.874 173.331 111.682 173.627 111.442 173.867C111.202 174.091 110.922 174.283 110.602 174.443C110.298 174.587 109.986 174.723 109.666 174.851C109.25 175.011 108.85 175.179 108.466 175.355C108.098 175.515 107.802 175.739 107.578 176.027C107.402 176.251 107.298 176.507 107.266 176.795C107.234 177.083 107.218 177.451 107.218 177.899H107.266C107.506 177.499 107.826 177.155 108.226 176.867C108.642 176.563 109.082 176.411 109.546 176.411C110.026 176.411 110.442 176.467 110.794 176.579C111.146 176.691 111.458 176.907 111.73 177.227C112.05 177.643 112.234 178.131 112.282 178.691C112.33 179.235 112.354 179.803 112.354 180.395V184.643C112.354 185.139 112.322 185.595 112.258 186.011C112.194 186.427 112.074 186.795 111.898 187.115C111.61 187.643 111.194 188.067 110.65 188.387C110.122 188.707 109.474 188.867 108.706 188.867C107.938 188.867 107.282 188.707 106.738 188.387C106.21 188.067 105.802 187.643 105.514 187.115C105.338 186.795 105.218 186.427 105.154 186.011C105.09 185.595 105.058 185.139 105.058 184.643V178.355C105.058 177.395 105.114 176.651 105.226 176.123C105.338 175.579 105.57 175.091 105.922 174.659C106.274 174.243 106.69 173.923 107.17 173.699C107.666 173.459 108.106 173.259 108.49 173.099C108.746 172.987 108.954 172.883 109.114 172.787C109.29 172.691 109.426 172.595 109.522 172.499C109.618 172.387 109.682 172.267 109.714 172.139C109.762 171.995 109.794 171.827 109.81 171.635H112.258ZM107.506 185.027C107.506 185.491 107.61 185.843 107.818 186.083C108.042 186.307 108.338 186.419 108.706 186.419C109.074 186.419 109.362 186.307 109.57 186.083C109.794 185.843 109.906 185.491 109.906 185.027V180.251C109.906 179.787 109.794 179.443 109.57 179.219C109.362 178.979 109.074 178.859 108.706 178.859C108.338 178.859 108.042 178.979 107.818 179.219C107.61 179.443 107.506 179.787 107.506 180.251V185.027ZM114.18 193.643V176.555H116.628V177.659C116.932 177.307 117.244 177.011 117.564 176.771C117.884 176.531 118.348 176.411 118.956 176.411C119.964 176.411 120.676 176.795 121.092 177.563C121.236 177.835 121.34 178.171 121.404 178.571C121.468 178.971 121.5 179.507 121.5 180.179V184.811C121.5 185.707 121.476 186.355 121.428 186.755C121.332 187.555 120.964 188.155 120.324 188.555C120.004 188.763 119.54 188.867 118.932 188.867C118.452 188.867 118.02 188.763 117.636 188.555C117.268 188.331 116.948 188.019 116.676 187.619H116.628V193.643H114.18ZM119.052 180.515C119.052 180.019 118.956 179.619 118.764 179.315C118.572 179.011 118.268 178.859 117.852 178.859C117.484 178.859 117.188 179.003 116.964 179.291C116.74 179.563 116.628 179.923 116.628 180.371V185.099C116.628 185.483 116.74 185.803 116.964 186.059C117.204 186.299 117.5 186.419 117.852 186.419C118.316 186.419 118.628 186.275 118.788 185.987C118.964 185.699 119.052 185.363 119.052 184.979V180.515ZM128.764 188.723V180.995H128.716L126.004 188.723H123.508V176.555H125.812V184.283H125.86L128.548 176.555H131.068V188.723H128.764ZM133.094 188.723V176.555H135.542V181.523H136.478C136.846 181.523 137.094 181.395 137.222 181.139C137.35 180.883 137.454 180.563 137.534 180.179L137.798 178.787C137.894 178.419 138.014 178.091 138.158 177.803C138.318 177.499 138.526 177.259 138.782 177.083C139.054 176.891 139.366 176.755 139.718 176.675C140.086 176.595 140.502 176.555 140.966 176.555H141.014V178.715H140.942C140.654 178.715 140.414 178.771 140.222 178.883C140.03 178.979 139.894 179.211 139.814 179.579L139.574 180.923C139.558 180.971 139.534 181.067 139.502 181.211C139.486 181.355 139.446 181.515 139.382 181.691C139.318 181.851 139.23 182.011 139.118 182.171C139.022 182.331 138.894 182.451 138.734 182.531L141.182 188.723H138.686L136.742 183.563H135.542V188.723H133.094ZM146.89 188.723V187.475H146.842C146.522 187.923 146.194 188.267 145.858 188.507C145.538 188.747 145.082 188.867 144.49 188.867C144.202 188.867 143.906 188.819 143.602 188.723C143.314 188.643 143.034 188.483 142.762 188.243C142.49 188.019 142.266 187.699 142.09 187.283C141.93 186.851 141.85 186.299 141.85 185.627C141.85 184.939 141.906 184.339 142.018 183.827C142.13 183.299 142.338 182.859 142.642 182.507C142.93 182.171 143.322 181.923 143.818 181.763C144.314 181.587 144.946 181.499 145.714 181.499C145.794 181.499 145.882 181.499 145.978 181.499C146.074 181.499 146.162 181.507 146.242 181.523C146.322 181.539 146.418 181.547 146.53 181.547C146.642 181.547 146.762 181.555 146.89 181.571V180.299C146.89 179.883 146.802 179.539 146.626 179.267C146.45 178.995 146.13 178.859 145.666 178.859C145.346 178.859 145.05 178.963 144.778 179.171C144.522 179.379 144.354 179.683 144.274 180.083H141.898C141.962 178.995 142.33 178.115 143.002 177.443C143.322 177.123 143.706 176.875 144.154 176.699C144.602 176.507 145.106 176.411 145.666 176.411C146.178 176.411 146.658 176.491 147.106 176.651C147.554 176.811 147.946 177.051 148.282 177.371C148.602 177.691 148.858 178.091 149.05 178.571C149.242 179.051 149.338 179.611 149.338 180.251V188.723H146.89ZM146.89 183.491C146.618 183.443 146.394 183.419 146.218 183.419C145.69 183.419 145.234 183.547 144.85 183.803C144.482 184.043 144.298 184.491 144.298 185.147C144.298 185.611 144.41 185.987 144.634 186.275C144.858 186.563 145.17 186.707 145.57 186.707C145.986 186.707 146.306 186.571 146.53 186.299C146.77 186.027 146.89 185.643 146.89 185.147V183.491ZM152.533 188.723V178.715H150.133V176.555H157.381V178.715H154.981V188.723H152.533ZM158.05 180.635C158.05 180.139 158.082 179.683 158.146 179.267C158.21 178.851 158.33 178.483 158.506 178.163C158.794 177.635 159.202 177.211 159.73 176.891C160.274 176.571 160.93 176.411 161.698 176.411C162.466 176.411 163.114 176.571 163.642 176.891C164.186 177.211 164.602 177.635 164.89 178.163C165.066 178.483 165.186 178.851 165.25 179.267C165.314 179.683 165.346 180.139 165.346 180.635V184.643C165.346 185.139 165.314 185.595 165.25 186.011C165.186 186.427 165.066 186.795 164.89 187.115C164.602 187.643 164.186 188.067 163.642 188.387C163.114 188.707 162.466 188.867 161.698 188.867C160.93 188.867 160.274 188.707 159.73 188.387C159.202 188.067 158.794 187.643 158.506 187.115C158.33 186.795 158.21 186.427 158.146 186.011C158.082 185.595 158.05 185.139 158.05 184.643V180.635ZM160.498 185.027C160.498 185.491 160.602 185.843 160.81 186.083C161.034 186.307 161.33 186.419 161.698 186.419C162.066 186.419 162.354 186.307 162.562 186.083C162.786 185.843 162.898 185.491 162.898 185.027V180.251C162.898 179.787 162.786 179.443 162.562 179.219C162.354 178.979 162.066 178.859 161.698 178.859C161.33 178.859 161.034 178.979 160.81 179.219C160.602 179.443 160.498 179.787 160.498 180.251V185.027ZM167.149 188.723V176.555H170.317C170.797 176.555 171.293 176.603 171.805 176.699C172.317 176.795 172.781 177.019 173.197 177.371C173.581 177.691 173.845 178.067 173.989 178.499C174.149 178.931 174.229 179.403 174.229 179.915C174.229 180.091 174.213 180.299 174.181 180.539C174.149 180.763 174.085 180.995 173.989 181.235C173.893 181.475 173.749 181.715 173.557 181.955C173.381 182.179 173.141 182.371 172.837 182.531C173.173 182.659 173.445 182.819 173.653 183.011C173.861 183.203 174.021 183.419 174.133 183.659C174.261 183.899 174.341 184.155 174.373 184.427C174.421 184.683 174.445 184.939 174.445 185.195C174.445 185.707 174.373 186.179 174.229 186.611C174.101 187.043 173.877 187.427 173.557 187.763C173.173 188.163 172.701 188.427 172.141 188.555C171.581 188.667 171.037 188.723 170.509 188.723H167.149ZM169.597 186.683H170.581C170.757 186.683 170.925 186.667 171.085 186.635C171.261 186.587 171.413 186.507 171.541 186.395C171.685 186.283 171.797 186.131 171.877 185.939C171.957 185.747 171.997 185.499 171.997 185.195C171.997 184.699 171.901 184.299 171.709 183.995C171.533 183.675 171.157 183.515 170.581 183.515H169.597V186.683ZM169.597 181.595H170.557C171.053 181.595 171.397 181.443 171.589 181.139C171.781 180.835 171.877 180.427 171.877 179.915C171.877 179.547 171.765 179.235 171.541 178.979C171.317 178.723 171.005 178.595 170.605 178.595H169.597V181.595ZM180.649 188.723V176.555H183.817C184.297 176.555 184.793 176.603 185.305 176.699C185.817 176.795 186.281 177.019 186.697 177.371C187.081 177.691 187.345 178.067 187.489 178.499C187.649 178.931 187.729 179.403 187.729 179.915C187.729 180.091 187.713 180.299 187.681 180.539C187.649 180.763 187.585 180.995 187.489 181.235C187.393 181.475 187.249 181.715 187.057 181.955C186.881 182.179 186.641 182.371 186.337 182.531C186.673 182.659 186.945 182.819 187.153 183.011C187.361 183.203 187.521 183.419 187.633 183.659C187.761 183.899 187.841 184.155 187.873 184.427C187.921 184.683 187.945 184.939 187.945 185.195C187.945 185.707 187.873 186.179 187.729 186.611C187.601 187.043 187.377 187.427 187.057 187.763C186.673 188.163 186.201 188.427 185.641 188.555C185.081 188.667 184.537 188.723 184.009 188.723H180.649ZM183.097 186.683H184.081C184.257 186.683 184.425 186.667 184.585 186.635C184.761 186.587 184.913 186.507 185.041 186.395C185.185 186.283 185.297 186.131 185.377 185.939C185.457 185.747 185.497 185.499 185.497 185.195C185.497 184.699 185.401 184.299 185.209 183.995C185.033 183.675 184.657 183.515 184.081 183.515H183.097V186.683ZM183.097 181.595H184.057C184.553 181.595 184.897 181.443 185.089 181.139C185.281 180.835 185.377 180.427 185.377 179.915C185.377 179.547 185.265 179.235 185.041 178.979C184.817 178.723 184.505 178.595 184.105 178.595H183.097V181.595ZM194.149 193.643V176.555H196.597V177.659C196.901 177.307 197.213 177.011 197.533 176.771C197.853 176.531 198.317 176.411 198.925 176.411C199.933 176.411 200.645 176.795 201.061 177.563C201.205 177.835 201.309 178.171 201.373 178.571C201.437 178.971 201.469 179.507 201.469 180.179V184.811C201.469 185.707 201.445 186.355 201.397 186.755C201.301 187.555 200.933 188.155 200.293 188.555C199.973 188.763 199.509 188.867 198.901 188.867C198.421 188.867 197.989 188.763 197.605 188.555C197.237 188.331 196.917 188.019 196.645 187.619H196.597V193.643H194.149ZM199.021 180.515C199.021 180.019 198.925 179.619 198.733 179.315C198.541 179.011 198.237 178.859 197.821 178.859C197.453 178.859 197.157 179.003 196.933 179.291C196.709 179.563 196.597 179.923 196.597 180.371V185.099C196.597 185.483 196.709 185.803 196.933 186.059C197.173 186.299 197.469 186.419 197.821 186.419C198.285 186.419 198.597 186.275 198.757 185.987C198.933 185.699 199.021 185.363 199.021 184.979V180.515ZM208.109 188.723V187.475H208.061C207.741 187.923 207.413 188.267 207.077 188.507C206.757 188.747 206.301 188.867 205.709 188.867C205.421 188.867 205.125 188.819 204.821 188.723C204.533 188.643 204.253 188.483 203.981 188.243C203.709 188.019 203.485 187.699 203.309 187.283C203.149 186.851 203.069 186.299 203.069 185.627C203.069 184.939 203.125 184.339 203.237 183.827C203.349 183.299 203.557 182.859 203.861 182.507C204.149 182.171 204.541 181.923 205.037 181.763C205.533 181.587 206.165 181.499 206.933 181.499C207.013 181.499 207.101 181.499 207.197 181.499C207.293 181.499 207.381 181.507 207.461 181.523C207.541 181.539 207.637 181.547 207.749 181.547C207.861 181.547 207.981 181.555 208.109 181.571V180.299C208.109 179.883 208.021 179.539 207.845 179.267C207.669 178.995 207.349 178.859 206.885 178.859C206.565 178.859 206.269 178.963 205.997 179.171C205.741 179.379 205.573 179.683 205.493 180.083H203.117C203.181 178.995 203.549 178.115 204.221 177.443C204.541 177.123 204.925 176.875 205.373 176.699C205.821 176.507 206.325 176.411 206.885 176.411C207.397 176.411 207.877 176.491 208.325 176.651C208.773 176.811 209.165 177.051 209.501 177.371C209.821 177.691 210.077 178.091 210.269 178.571C210.461 179.051 210.557 179.611 210.557 180.251V188.723H208.109ZM208.109 183.491C207.837 183.443 207.613 183.419 207.437 183.419C206.909 183.419 206.453 183.547 206.069 183.803C205.701 184.043 205.517 184.491 205.517 185.147C205.517 185.611 205.629 185.987 205.853 186.275C206.077 186.563 206.389 186.707 206.789 186.707C207.205 186.707 207.525 186.571 207.749 186.299C207.989 186.027 208.109 185.643 208.109 185.147V183.491ZM211.808 179.963C211.84 179.483 211.944 179.035 212.12 178.619C212.312 178.187 212.56 177.811 212.864 177.491C213.184 177.155 213.56 176.891 213.992 176.699C214.424 176.507 214.896 176.411 215.408 176.411C215.92 176.411 216.408 176.499 216.872 176.675C217.352 176.835 217.76 177.075 218.096 177.395C218.416 177.699 218.664 178.067 218.84 178.499C219.032 178.915 219.128 179.387 219.128 179.915C219.128 180.091 219.112 180.299 219.08 180.539C219.048 180.763 218.976 180.995 218.864 181.235C218.768 181.475 218.616 181.715 218.408 181.955C218.216 182.179 217.952 182.371 217.616 182.531C217.968 182.659 218.256 182.819 218.48 183.011C218.72 183.203 218.896 183.419 219.008 183.659C219.136 183.899 219.224 184.155 219.272 184.427C219.32 184.683 219.344 184.939 219.344 185.195C219.344 185.691 219.264 186.139 219.104 186.539C218.944 186.939 218.704 187.315 218.384 187.667C218.032 188.051 217.6 188.347 217.088 188.555C216.592 188.763 216.048 188.867 215.456 188.867C214.32 188.867 213.4 188.491 212.696 187.739C212.072 187.067 211.736 186.219 211.688 185.195H213.992C214.024 185.627 214.152 185.963 214.376 186.203C214.616 186.443 214.968 186.563 215.432 186.563C215.848 186.563 216.176 186.443 216.416 186.203C216.672 185.947 216.8 185.579 216.8 185.099C216.8 184.635 216.696 184.267 216.488 183.995C216.296 183.707 215.936 183.563 215.408 183.563H214.64V181.523H215.312C215.792 181.523 216.136 181.403 216.344 181.163C216.568 180.923 216.68 180.531 216.68 179.987C216.68 179.635 216.568 179.339 216.344 179.099C216.12 178.843 215.808 178.715 215.408 178.715C215.088 178.715 214.8 178.811 214.544 179.003C214.288 179.179 214.144 179.499 214.112 179.963H211.808ZM221.149 188.723V176.555H223.597V181.523H226.069V176.555H228.517V188.723H226.069V183.563H223.597V188.723H221.149ZM230.524 188.723V176.555H232.972V181.355H233.572C234.212 181.355 234.772 181.419 235.252 181.547C235.748 181.659 236.156 181.859 236.476 182.147C236.812 182.435 237.06 182.819 237.22 183.299C237.396 183.779 237.484 184.371 237.484 185.075C237.484 185.587 237.404 186.083 237.244 186.563C237.1 187.027 236.868 187.427 236.548 187.763C236.164 188.163 235.708 188.427 235.18 188.555C234.652 188.667 234.124 188.723 233.596 188.723H230.524ZM232.972 186.683H233.812C234.164 186.683 234.476 186.571 234.748 186.347C235.036 186.107 235.18 185.683 235.18 185.075C235.18 184.579 235.084 184.179 234.892 183.875C234.716 183.555 234.34 183.395 233.764 183.395H232.972V186.683ZM238.54 188.723V176.555H240.988V188.723H238.54ZM241.721 188.723L244.721 182.507L241.865 176.555H244.457L245.969 180.011L247.481 176.555H250.073L247.169 182.507L250.217 188.723H247.625L245.969 185.003L244.313 188.723H241.721ZM255.414 188.723V176.555H257.91L260.382 183.083H260.43L262.902 176.555H265.398V188.723H263.046V181.355H262.998L261.03 186.731H259.782L257.814 181.355H257.766V188.723H255.414ZM271.902 188.723V183.875H270.846L269.31 188.723H266.814L268.638 183.515C268.27 183.355 267.974 183.131 267.75 182.843C267.542 182.555 267.382 182.251 267.27 181.931C267.174 181.611 267.11 181.299 267.078 180.995C267.062 180.691 267.054 180.451 267.054 180.275C267.054 179.763 267.142 179.227 267.318 178.667C267.494 178.107 267.79 177.659 268.206 177.323C268.622 176.971 269.062 176.755 269.526 176.675C270.006 176.595 270.486 176.555 270.966 176.555H274.35V188.723H271.902ZM271.902 178.595H270.702C270.222 178.595 269.902 178.771 269.742 179.123C269.582 179.475 269.502 179.891 269.502 180.371C269.502 181.411 269.95 181.931 270.846 181.931H271.902V178.595ZM278.96 185.219C278.96 185.603 279.064 185.899 279.272 186.107C279.496 186.315 279.792 186.419 280.16 186.419C280.624 186.419 280.928 186.283 281.072 186.011C281.232 185.739 281.328 185.467 281.36 185.195H283.808C283.808 186.267 283.48 187.131 282.824 187.787C282.504 188.123 282.12 188.387 281.672 188.579C281.224 188.771 280.72 188.867 280.16 188.867C279.392 188.867 278.736 188.707 278.192 188.387C277.664 188.067 277.256 187.643 276.968 187.115C276.792 186.795 276.672 186.427 276.608 186.011C276.544 185.595 276.512 185.139 276.512 184.643V180.635C276.512 180.139 276.544 179.683 276.608 179.267C276.672 178.851 276.792 178.483 276.968 178.163C277.256 177.635 277.664 177.211 278.192 176.891C278.736 176.571 279.392 176.411 280.16 176.411C280.72 176.411 281.224 176.507 281.672 176.699C282.136 176.891 282.528 177.155 282.848 177.491C283.488 178.211 283.808 179.147 283.808 180.299H281.36C281.36 179.803 281.248 179.443 281.024 179.219C280.816 178.979 280.528 178.859 280.16 178.859C279.792 178.859 279.496 178.979 279.272 179.219C279.064 179.443 278.96 179.787 278.96 180.251V185.219ZM285.25 188.723V176.555H287.698V181.523H290.17V176.555H292.618V188.723H290.17V183.563H287.698V188.723H285.25ZM294.625 188.723V176.555H297.073V181.355H297.673C298.313 181.355 298.873 181.419 299.353 181.547C299.849 181.659 300.257 181.859 300.577 182.147C300.913 182.435 301.161 182.819 301.321 183.299C301.497 183.779 301.585 184.371 301.585 185.075C301.585 185.587 301.505 186.083 301.345 186.563C301.201 187.027 300.969 187.427 300.649 187.763C300.265 188.163 299.809 188.427 299.281 188.555C298.753 188.667 298.225 188.723 297.697 188.723H294.625ZM297.073 186.683H297.913C298.265 186.683 298.577 186.571 298.849 186.347C299.137 186.107 299.281 185.683 299.281 185.075C299.281 184.579 299.185 184.179 298.993 183.875C298.817 183.555 298.441 183.395 297.865 183.395H297.073V186.683ZM302.641 188.723V176.555H305.089V188.723H302.641ZM305.822 188.723L308.822 182.507L305.966 176.555H308.558L310.07 180.011L311.582 176.555H314.174L311.27 182.507L314.318 188.723H311.726L310.07 185.003L308.414 188.723H305.822ZM47.0082 219.723V207.555H49.4562V212.523H50.3922C50.7602 212.523 51.0082 212.395 51.1362 212.139C51.2642 211.883 51.3682 211.563 51.4482 211.179L51.7122 209.787C51.8082 209.419 51.9282 209.091 52.0722 208.803C52.2322 208.499 52.4402 208.259 52.6962 208.083C52.9682 207.891 53.2802 207.755 53.6322 207.675C54.0002 207.595 54.4162 207.555 54.8802 207.555H54.9282V209.715H54.8562C54.5682 209.715 54.3282 209.771 54.1362 209.883C53.9442 209.979 53.8082 210.211 53.7282 210.579L53.4882 211.923C53.4722 211.971 53.4482 212.067 53.4162 212.211C53.4002 212.355 53.3602 212.515 53.2962 212.691C53.2322 212.851 53.1442 213.011 53.0322 213.171C52.9362 213.331 52.8082 213.451 52.6482 213.531L55.0962 219.723H52.6002L50.6562 214.563H49.4562V219.723H47.0082ZM60.8043 219.723V218.475H60.7563C60.4363 218.923 60.1083 219.267 59.7723 219.507C59.4523 219.747 58.9963 219.867 58.4043 219.867C58.1163 219.867 57.8203 219.819 57.5163 219.723C57.2283 219.643 56.9483 219.483 56.6763 219.243C56.4043 219.019 56.1803 218.699 56.0043 218.283C55.8443 217.851 55.7643 217.299 55.7643 216.627C55.7643 215.939 55.8203 215.339 55.9323 214.827C56.0443 214.299 56.2523 213.859 56.5563 213.507C56.8443 213.171 57.2363 212.923 57.7323 212.763C58.2283 212.587 58.8603 212.499 59.6283 212.499C59.7083 212.499 59.7963 212.499 59.8923 212.499C59.9883 212.499 60.0763 212.507 60.1563 212.523C60.2363 212.539 60.3323 212.547 60.4443 212.547C60.5563 212.547 60.6763 212.555 60.8043 212.571V211.299C60.8043 210.883 60.7163 210.539 60.5403 210.267C60.3643 209.995 60.0443 209.859 59.5803 209.859C59.2603 209.859 58.9643 209.963 58.6923 210.171C58.4363 210.379 58.2683 210.683 58.1883 211.083H55.8123C55.8763 209.995 56.2443 209.115 56.9163 208.443C57.2363 208.123 57.6203 207.875 58.0683 207.699C58.5163 207.507 59.0203 207.411 59.5803 207.411C60.0923 207.411 60.5723 207.491 61.0203 207.651C61.4683 207.811 61.8603 208.051 62.1963 208.371C62.5163 208.691 62.7723 209.091 62.9643 209.571C63.1563 210.051 63.2523 210.611 63.2523 211.251V219.723H60.8043ZM60.8043 214.491C60.5323 214.443 60.3083 214.419 60.1323 214.419C59.6043 214.419 59.1483 214.547 58.7643 214.803C58.3963 215.043 58.2123 215.491 58.2123 216.147C58.2123 216.611 58.3243 216.987 58.5483 217.275C58.7723 217.563 59.0843 217.707 59.4843 217.707C59.9003 217.707 60.2203 217.571 60.4443 217.299C60.6843 217.027 60.8043 216.643 60.8043 216.147V214.491ZM66.4471 219.723V209.715H64.0471V207.555H71.2951V209.715H68.8951V219.723H66.4471ZM79.3773 214.563H74.5293V216.219C74.5293 216.603 74.6333 216.899 74.8413 217.107C75.0653 217.315 75.3613 217.419 75.7293 217.419C76.1933 217.419 76.4973 217.283 76.6413 217.011C76.8013 216.739 76.8973 216.467 76.9293 216.195H79.3773C79.3773 217.267 79.0493 218.131 78.3933 218.787C78.0733 219.123 77.6893 219.387 77.2413 219.579C76.7933 219.771 76.2893 219.867 75.7293 219.867C74.9613 219.867 74.3053 219.707 73.7613 219.387C73.2333 219.067 72.8253 218.643 72.5373 218.115C72.3613 217.795 72.2413 217.427 72.1773 217.011C72.1133 216.595 72.0813 216.139 72.0813 215.643V211.635C72.0813 211.139 72.1133 210.683 72.1773 210.267C72.2413 209.851 72.3613 209.483 72.5373 209.163C72.8253 208.635 73.2333 208.211 73.7613 207.891C74.3053 207.571 74.9613 207.411 75.7293 207.411C76.2893 207.411 76.7933 207.507 77.2413 207.699C77.7053 207.891 78.0973 208.155 78.4173 208.491C79.0573 209.211 79.3773 210.115 79.3773 211.203V214.563ZM74.5293 212.643H76.9293V211.251C76.9293 210.787 76.8173 210.443 76.5933 210.219C76.3853 209.979 76.0973 209.859 75.7293 209.859C75.3613 209.859 75.0653 209.979 74.8413 210.219C74.6333 210.443 74.5293 210.787 74.5293 211.251V212.643ZM81.1801 219.723V207.555H86.9881V209.715H83.6281V219.723H81.1801ZM87.5501 211.635C87.5501 211.139 87.5821 210.683 87.6461 210.267C87.7101 209.851 87.8301 209.483 88.0061 209.163C88.2941 208.635 88.7021 208.211 89.2301 207.891C89.7741 207.571 90.4301 207.411 91.1981 207.411C91.9661 207.411 92.6141 207.571 93.1421 207.891C93.6861 208.211 94.1021 208.635 94.3901 209.163C94.5661 209.483 94.6861 209.851 94.7501 210.267C94.8141 210.683 94.8461 211.139 94.8461 211.635V215.643C94.8461 216.139 94.8141 216.595 94.7501 217.011C94.6861 217.427 94.5661 217.795 94.3901 218.115C94.1021 218.643 93.6861 219.067 93.1421 219.387C92.6141 219.707 91.9661 219.867 91.1981 219.867C90.4301 219.867 89.7741 219.707 89.2301 219.387C88.7021 219.067 88.2941 218.643 88.0061 218.115C87.8301 217.795 87.7101 217.427 87.6461 217.011C87.5821 216.595 87.5501 216.139 87.5501 215.643V211.635ZM89.9981 216.027C89.9981 216.491 90.1021 216.843 90.3101 217.083C90.5341 217.307 90.8301 217.419 91.1981 217.419C91.5661 217.419 91.8541 217.307 92.0621 217.083C92.2861 216.843 92.3981 216.491 92.3981 216.027V211.251C92.3981 210.787 92.2861 210.443 92.0621 210.219C91.8541 209.979 91.5661 209.859 91.1981 209.859C90.8301 209.859 90.5341 209.979 90.3101 210.219C90.1021 210.443 89.9981 210.787 89.9981 211.251V216.027ZM96.6489 224.643V207.555H99.0969V208.659C99.4009 208.307 99.7129 208.011 100.033 207.771C100.353 207.531 100.817 207.411 101.425 207.411C102.433 207.411 103.145 207.795 103.561 208.563C103.705 208.835 103.809 209.171 103.873 209.571C103.937 209.971 103.969 210.507 103.969 211.179V215.811C103.969 216.707 103.945 217.355 103.897 217.755C103.801 218.555 103.433 219.155 102.793 219.555C102.473 219.763 102.009 219.867 101.401 219.867C100.921 219.867 100.489 219.763 100.105 219.555C99.7369 219.331 99.4169 219.019 99.1449 218.619H99.0969V224.643H96.6489ZM101.521 211.515C101.521 211.019 101.425 210.619 101.233 210.315C101.041 210.011 100.737 209.859 100.321 209.859C99.9529 209.859 99.6569 210.003 99.4329 210.291C99.2089 210.563 99.0969 210.923 99.0969 211.371V216.099C99.0969 216.483 99.2089 216.803 99.4329 217.059C99.6729 217.299 99.9689 217.419 100.321 217.419C100.785 217.419 101.097 217.275 101.257 216.987C101.433 216.699 101.521 216.363 101.521 215.979V211.515ZM111.233 219.723V211.995H111.185L108.473 219.723H105.977V207.555H108.281V215.283H108.329L111.017 207.555H113.537V219.723H111.233ZM120.051 219.723V214.875H118.995L117.459 219.723H114.963L116.787 214.515C116.419 214.355 116.123 214.131 115.899 213.843C115.691 213.555 115.531 213.251 115.419 212.931C115.323 212.611 115.259 212.299 115.227 211.995C115.211 211.691 115.203 211.451 115.203 211.275C115.203 210.763 115.291 210.227 115.467 209.667C115.643 209.107 115.939 208.659 116.355 208.323C116.771 207.971 117.211 207.755 117.675 207.675C118.155 207.595 118.635 207.555 119.115 207.555H122.499V219.723H120.051ZM120.051 209.595H118.851C118.371 209.595 118.051 209.771 117.891 210.123C117.731 210.475 117.651 210.891 117.651 211.371C117.651 212.411 118.099 212.931 118.995 212.931H120.051V209.595ZM123.244 219.723L126.244 213.507L123.388 207.555H125.98L127.492 211.011L129.004 207.555H131.596L128.692 213.507L131.74 219.723H129.148L127.492 216.003L125.836 219.723H123.244ZM138.042 219.723V222.123H135.978V217.683H137.082C137.258 217.347 137.41 216.899 137.538 216.339C137.682 215.779 137.794 215.187 137.874 214.563C137.938 214.051 137.978 213.523 137.994 212.979C138.01 212.435 138.018 211.939 138.018 211.491V207.555H144.738V217.683H145.89V222.123H143.826V219.723H138.042ZM140.322 209.595V211.419C140.322 211.627 140.314 211.883 140.298 212.187C140.282 212.475 140.258 212.779 140.226 213.099C140.21 213.403 140.186 213.707 140.154 214.011C140.138 214.299 140.114 214.547 140.082 214.755C140.018 215.171 139.914 215.667 139.77 216.243C139.642 216.803 139.49 217.283 139.314 217.683H142.29V209.595H140.322ZM146.762 217.419C146.938 217.419 147.114 217.371 147.29 217.275C147.482 217.179 147.674 217.011 147.866 216.771C148.026 216.579 148.154 216.307 148.25 215.955C148.346 215.587 148.418 215.211 148.466 214.827C148.514 214.427 148.546 214.051 148.562 213.699C148.578 213.331 148.586 213.051 148.586 212.859V207.555H155.306V219.723H152.858V209.595H150.89V211.851C150.89 212.411 150.874 212.979 150.842 213.555C150.81 214.115 150.754 214.659 150.674 215.187C150.61 215.699 150.522 216.179 150.41 216.627C150.298 217.075 150.154 217.459 149.978 217.779C149.642 218.403 149.202 218.883 148.658 219.219C148.114 219.555 147.498 219.723 146.81 219.723H146.642V217.419H146.762ZM161.817 219.723V214.875H160.761L159.225 219.723H156.729L158.553 214.515C158.185 214.355 157.889 214.131 157.665 213.843C157.457 213.555 157.297 213.251 157.185 212.931C157.089 212.611 157.025 212.299 156.993 211.995C156.977 211.691 156.969 211.451 156.969 211.275C156.969 210.763 157.057 210.227 157.233 209.667C157.409 209.107 157.705 208.659 158.121 208.323C158.537 207.971 158.977 207.755 159.441 207.675C159.921 207.595 160.401 207.555 160.881 207.555H164.265V219.723H161.817ZM161.817 209.595H160.617C160.137 209.595 159.817 209.771 159.657 210.123C159.497 210.475 159.417 210.891 159.417 211.371C159.417 212.411 159.865 212.931 160.761 212.931H161.817V209.595ZM170.735 219.723V207.555H173.903C174.383 207.555 174.879 207.603 175.391 207.699C175.903 207.795 176.367 208.019 176.783 208.371C177.167 208.691 177.431 209.067 177.575 209.499C177.735 209.931 177.815 210.403 177.815 210.915C177.815 211.091 177.799 211.299 177.767 211.539C177.735 211.763 177.671 211.995 177.575 212.235C177.479 212.475 177.335 212.715 177.143 212.955C176.967 213.179 176.727 213.371 176.423 213.531C176.759 213.659 177.031 213.819 177.239 214.011C177.447 214.203 177.607 214.419 177.719 214.659C177.847 214.899 177.927 215.155 177.959 215.427C178.007 215.683 178.031 215.939 178.031 216.195C178.031 216.707 177.959 217.179 177.815 217.611C177.687 218.043 177.463 218.427 177.143 218.763C176.759 219.163 176.287 219.427 175.727 219.555C175.167 219.667 174.623 219.723 174.095 219.723H170.735ZM173.183 217.683H174.167C174.343 217.683 174.511 217.667 174.671 217.635C174.847 217.587 174.999 217.507 175.127 217.395C175.271 217.283 175.383 217.131 175.463 216.939C175.543 216.747 175.583 216.499 175.583 216.195C175.583 215.699 175.487 215.299 175.295 214.995C175.119 214.675 174.743 214.515 174.167 214.515H173.183V217.683ZM173.183 212.595H174.143C174.639 212.595 174.983 212.443 175.175 212.139C175.367 211.835 175.463 211.427 175.463 210.915C175.463 210.547 175.351 210.235 175.127 209.979C174.903 209.723 174.591 209.595 174.191 209.595H173.183V212.595ZM184.414 219.723V218.475H184.366C184.046 218.923 183.718 219.267 183.382 219.507C183.062 219.747 182.606 219.867 182.014 219.867C181.726 219.867 181.43 219.819 181.126 219.723C180.838 219.643 180.558 219.483 180.286 219.243C180.014 219.019 179.79 218.699 179.614 218.283C179.454 217.851 179.374 217.299 179.374 216.627C179.374 215.939 179.43 215.339 179.542 214.827C179.654 214.299 179.862 213.859 180.166 213.507C180.454 213.171 180.846 212.923 181.342 212.763C181.838 212.587 182.47 212.499 183.238 212.499C183.318 212.499 183.406 212.499 183.502 212.499C183.598 212.499 183.686 212.507 183.766 212.523C183.846 212.539 183.942 212.547 184.054 212.547C184.166 212.547 184.286 212.555 184.414 212.571V211.299C184.414 210.883 184.326 210.539 184.15 210.267C183.974 209.995 183.654 209.859 183.19 209.859C182.87 209.859 182.574 209.963 182.302 210.171C182.046 210.379 181.878 210.683 181.798 211.083H179.422C179.486 209.995 179.854 209.115 180.526 208.443C180.846 208.123 181.23 207.875 181.678 207.699C182.126 207.507 182.63 207.411 183.19 207.411C183.702 207.411 184.182 207.491 184.63 207.651C185.078 207.811 185.47 208.051 185.806 208.371C186.126 208.691 186.382 209.091 186.574 209.571C186.766 210.051 186.862 210.611 186.862 211.251V219.723H184.414ZM184.414 214.491C184.142 214.443 183.918 214.419 183.742 214.419C183.214 214.419 182.758 214.547 182.374 214.803C182.006 215.043 181.822 215.491 181.822 216.147C181.822 216.611 181.934 216.987 182.158 217.275C182.382 217.563 182.694 217.707 183.094 217.707C183.51 217.707 183.83 217.571 184.054 217.299C184.294 217.027 184.414 216.643 184.414 216.147V214.491ZM199.992 207.555V219.723H188.664V207.555H191.112V217.683H193.104V207.555H195.552V217.683H197.544V207.555H199.992ZM207.256 219.723V211.995H207.208L204.496 219.723H202V207.555H204.304V215.283H204.352L207.04 207.555H209.56V219.723H207.256ZM210.314 219.723L213.314 213.507L210.458 207.555H213.05L214.562 211.011L216.074 207.555H218.666L215.762 213.507L218.81 219.723H216.218L214.562 216.003L212.906 219.723H210.314ZM224.008 219.723V207.555H226.456V212.523H227.392C227.76 212.523 228.008 212.395 228.136 212.139C228.264 211.883 228.368 211.563 228.448 211.179L228.712 209.787C228.808 209.419 228.928 209.091 229.072 208.803C229.232 208.499 229.44 208.259 229.696 208.083C229.968 207.891 230.28 207.755 230.632 207.675C231 207.595 231.416 207.555 231.88 207.555H231.928V209.715H231.856C231.568 209.715 231.328 209.771 231.136 209.883C230.944 209.979 230.808 210.211 230.728 210.579L230.488 211.923C230.472 211.971 230.448 212.067 230.416 212.211C230.4 212.355 230.36 212.515 230.296 212.691C230.232 212.851 230.144 213.011 230.032 213.171C229.936 213.331 229.808 213.451 229.648 213.531L232.096 219.723H229.6L227.656 214.563H226.456V219.723H224.008ZM232.375 207.555H234.967L236.647 215.139H236.695L238.351 207.555H240.871L237.367 221.835C237.239 222.379 237.055 222.827 236.815 223.179C236.591 223.531 236.327 223.819 236.023 224.043C235.719 224.267 235.391 224.419 235.039 224.499C234.703 224.595 234.351 224.643 233.983 224.643H233.311V222.339H233.863C234.103 222.339 234.311 222.307 234.487 222.243C234.663 222.179 234.823 222.035 234.967 221.811C235.095 221.587 235.215 221.267 235.327 220.851C235.439 220.451 235.567 219.891 235.711 219.171L232.375 207.555ZM241.004 217.419C241.18 217.419 241.356 217.371 241.532 217.275C241.724 217.179 241.916 217.011 242.108 216.771C242.268 216.579 242.396 216.307 242.492 215.955C242.588 215.587 242.66 215.211 242.708 214.827C242.756 214.427 242.788 214.051 242.804 213.699C242.82 213.331 242.828 213.051 242.828 212.859V207.555H249.548V219.723H247.1V209.595H245.132V211.851C245.132 212.411 245.116 212.979 245.084 213.555C245.052 214.115 244.996 214.659 244.916 215.187C244.852 215.699 244.764 216.179 244.652 216.627C244.54 217.075 244.396 217.459 244.22 217.779C243.884 218.403 243.444 218.883 242.9 219.219C242.356 219.555 241.74 219.723 241.052 219.723H240.884V217.419H241.004ZM256.827 219.723V211.995H256.779L254.067 219.723H251.571V207.555H253.875V215.283H253.923L256.611 207.555H259.131V219.723H256.827ZM261.157 219.723V207.555H263.605V212.523H266.077V207.555H268.525V219.723H266.077V214.563H263.605V219.723H261.157ZM275.164 219.723V218.475H275.116C274.796 218.923 274.468 219.267 274.132 219.507C273.812 219.747 273.356 219.867 272.764 219.867C272.476 219.867 272.18 219.819 271.876 219.723C271.588 219.643 271.308 219.483 271.036 219.243C270.764 219.019 270.54 218.699 270.364 218.283C270.204 217.851 270.124 217.299 270.124 216.627C270.124 215.939 270.18 215.339 270.292 214.827C270.404 214.299 270.612 213.859 270.916 213.507C271.204 213.171 271.596 212.923 272.092 212.763C272.588 212.587 273.22 212.499 273.988 212.499C274.068 212.499 274.156 212.499 274.252 212.499C274.348 212.499 274.436 212.507 274.516 212.523C274.596 212.539 274.692 212.547 274.804 212.547C274.916 212.547 275.036 212.555 275.164 212.571V211.299C275.164 210.883 275.076 210.539 274.9 210.267C274.724 209.995 274.404 209.859 273.94 209.859C273.62 209.859 273.324 209.963 273.052 210.171C272.796 210.379 272.628 210.683 272.548 211.083H270.172C270.236 209.995 270.604 209.115 271.276 208.443C271.596 208.123 271.98 207.875 272.428 207.699C272.876 207.507 273.38 207.411 273.94 207.411C274.452 207.411 274.932 207.491 275.38 207.651C275.828 207.811 276.22 208.051 276.556 208.371C276.876 208.691 277.132 209.091 277.324 209.571C277.516 210.051 277.612 210.611 277.612 211.251V219.723H275.164ZM275.164 214.491C274.892 214.443 274.668 214.419 274.492 214.419C273.964 214.419 273.508 214.547 273.124 214.803C272.756 215.043 272.572 215.491 272.572 216.147C272.572 216.611 272.684 216.987 272.908 217.275C273.132 217.563 273.444 217.707 273.844 217.707C274.26 217.707 274.58 217.571 274.804 217.299C275.044 217.027 275.164 216.643 275.164 216.147V214.491ZM279.414 224.643V207.555H281.862V208.659C282.166 208.307 282.478 208.011 282.798 207.771C283.118 207.531 283.582 207.411 284.19 207.411C285.198 207.411 285.91 207.795 286.326 208.563C286.47 208.835 286.574 209.171 286.638 209.571C286.702 209.971 286.734 210.507 286.734 211.179V215.811C286.734 216.707 286.71 217.355 286.662 217.755C286.566 218.555 286.198 219.155 285.558 219.555C285.238 219.763 284.774 219.867 284.166 219.867C283.686 219.867 283.254 219.763 282.87 219.555C282.502 219.331 282.182 219.019 281.91 218.619H281.862V224.643H279.414ZM284.286 211.515C284.286 211.019 284.19 210.619 283.998 210.315C283.806 210.011 283.502 209.859 283.086 209.859C282.718 209.859 282.422 210.003 282.198 210.291C281.974 210.563 281.862 210.923 281.862 211.371V216.099C281.862 216.483 281.974 216.803 282.198 217.059C282.438 217.299 282.734 217.419 283.086 217.419C283.55 217.419 283.862 217.275 284.022 216.987C284.198 216.699 284.286 216.363 284.286 215.979V211.515ZM288.743 219.723V207.555H291.191V212.523H293.663V207.555H296.111V219.723H293.663V214.563H291.191V219.723H288.743ZM298.118 219.723V207.555H300.566V212.355H301.166C301.806 212.355 302.366 212.419 302.846 212.547C303.342 212.659 303.75 212.859 304.07 213.147C304.406 213.435 304.654 213.819 304.814 214.299C304.99 214.779 305.078 215.371 305.078 216.075C305.078 216.587 304.998 217.083 304.838 217.563C304.694 218.027 304.462 218.427 304.142 218.763C303.758 219.163 303.302 219.427 302.774 219.555C302.246 219.667 301.718 219.723 301.19 219.723H298.118ZM300.566 217.683H301.406C301.758 217.683 302.07 217.571 302.342 217.347C302.63 217.107 302.774 216.683 302.774 216.075C302.774 215.579 302.678 215.179 302.486 214.875C302.31 214.555 301.934 214.395 301.358 214.395H300.566V217.683ZM306.134 219.723V207.555H308.582V219.723H306.134ZM309.314 219.723L312.314 213.507L309.458 207.555H312.05L313.562 211.011L315.074 207.555H317.666L314.762 213.507L317.81 219.723H315.218L313.562 216.003L311.906 219.723H309.314ZM51.3762 243.523V242.251C51.3762 241.787 51.2562 241.443 51.0162 241.219C50.7922 240.979 50.4962 240.859 50.1282 240.859C49.7602 240.859 49.4562 240.979 49.2162 241.219C48.9922 241.443 48.8802 241.803 48.8802 242.299H46.4322C46.4482 241.771 46.5362 241.275 46.6962 240.811C46.8722 240.331 47.1122 239.915 47.4162 239.563C47.7362 239.211 48.1202 238.931 48.5682 238.723C49.0322 238.515 49.5522 238.411 50.1282 238.411C50.7362 238.411 51.2722 238.515 51.7362 238.723C52.2162 238.915 52.6162 239.195 52.9362 239.563C53.3042 239.979 53.5442 240.443 53.6562 240.955C53.7682 241.467 53.8242 242.027 53.8242 242.635V246.643C53.8242 247.155 53.7682 247.683 53.6562 248.227C53.5602 248.771 53.3282 249.251 52.9602 249.667C52.6402 250.051 52.2482 250.347 51.7842 250.555C51.3362 250.763 50.8002 250.867 50.1762 250.867C49.6482 250.867 49.1602 250.779 48.7122 250.603C48.2642 250.411 47.8722 250.155 47.5362 249.835C47.2162 249.515 46.9522 249.131 46.7442 248.683C46.5522 248.219 46.4482 247.723 46.4322 247.195H48.8802C48.9122 247.467 49.0082 247.739 49.1682 248.011C49.3442 248.283 49.6642 248.419 50.1282 248.419C50.4962 248.419 50.7922 248.315 51.0162 248.107C51.2562 247.899 51.3762 247.603 51.3762 247.219V245.563H49.0962V243.523H51.3762ZM55.6332 250.723V238.555H58.0812V243.523H59.0172C59.3852 243.523 59.6332 243.395 59.7612 243.139C59.8892 242.883 59.9932 242.563 60.0732 242.179L60.3372 240.787C60.4332 240.419 60.5532 240.091 60.6972 239.803C60.8572 239.499 61.0652 239.259 61.3212 239.083C61.5932 238.891 61.9052 238.755 62.2572 238.675C62.6252 238.595 63.0412 238.555 63.5052 238.555H63.5532V240.715H63.4812C63.1932 240.715 62.9532 240.771 62.7612 240.883C62.5692 240.979 62.4332 241.211 62.3532 241.579L62.1132 242.923C62.0972 242.971 62.0732 243.067 62.0412 243.211C62.0252 243.355 61.9852 243.515 61.9212 243.691C61.8572 243.851 61.7692 244.011 61.6572 244.171C61.5612 244.331 61.4332 244.451 61.2732 244.531L63.7212 250.723H61.2252L59.2812 245.563H58.0812V250.723H55.6332ZM67.5065 247.219C67.5065 247.603 67.6105 247.899 67.8185 248.107C68.0425 248.315 68.3385 248.419 68.7065 248.419C69.1705 248.419 69.4745 248.283 69.6185 248.011C69.7785 247.739 69.8745 247.467 69.9065 247.195H72.3545C72.3545 248.267 72.0265 249.131 71.3705 249.787C71.0505 250.123 70.6665 250.387 70.2185 250.579C69.7705 250.771 69.2665 250.867 68.7065 250.867C67.9385 250.867 67.2825 250.707 66.7385 250.387C66.2105 250.067 65.8025 249.643 65.5145 249.115C65.3385 248.795 65.2185 248.427 65.1545 248.011C65.0905 247.595 65.0585 247.139 65.0585 246.643V242.635C65.0585 242.139 65.0905 241.683 65.1545 241.267C65.2185 240.851 65.3385 240.483 65.5145 240.163C65.8025 239.635 66.2105 239.211 66.7385 238.891C67.2825 238.571 67.9385 238.411 68.7065 238.411C69.2665 238.411 69.7705 238.507 70.2185 238.699C70.6825 238.891 71.0745 239.155 71.3945 239.491C72.0345 240.211 72.3545 241.147 72.3545 242.299H69.9065C69.9065 241.803 69.7945 241.443 69.5705 241.219C69.3625 240.979 69.0745 240.859 68.7065 240.859C68.3385 240.859 68.0425 240.979 67.8185 241.219C67.6105 241.443 67.5065 241.787 67.5065 242.251V247.219ZM73.7973 250.723V238.555H81.1173V250.723H78.6693V240.595H76.2453V250.723H73.7973ZM90.1117 245.563H85.2637V247.219C85.2637 247.603 85.3677 247.899 85.5757 248.107C85.7997 248.315 86.0957 248.419 86.4637 248.419C86.9277 248.419 87.2317 248.283 87.3757 248.011C87.5357 247.739 87.6317 247.467 87.6637 247.195H90.1117C90.1117 248.267 89.7837 249.131 89.1277 249.787C88.8077 250.123 88.4237 250.387 87.9757 250.579C87.5277 250.771 87.0237 250.867 86.4637 250.867C85.6957 250.867 85.0397 250.707 84.4957 250.387C83.9677 250.067 83.5597 249.643 83.2717 249.115C83.0957 248.795 82.9757 248.427 82.9117 248.011C82.8477 247.595 82.8157 247.139 82.8157 246.643V242.635C82.8157 242.139 82.8477 241.683 82.9117 241.267C82.9757 240.851 83.0957 240.483 83.2717 240.163C83.5597 239.635 83.9677 239.211 84.4957 238.891C85.0397 238.571 85.6957 238.411 86.4637 238.411C87.0237 238.411 87.5277 238.507 87.9757 238.699C88.4397 238.891 88.8317 239.155 89.1517 239.491C89.7917 240.211 90.1117 241.115 90.1117 242.203V245.563ZM85.2637 243.643H87.6637V242.251C87.6637 241.787 87.5517 241.443 87.3277 241.219C87.1197 240.979 86.8317 240.859 86.4637 240.859C86.0957 240.859 85.7997 240.979 85.5757 241.219C85.3677 241.443 85.2637 241.787 85.2637 242.251V243.643ZM91.9145 255.643V238.555H94.3625V239.659C94.6665 239.307 94.9785 239.011 95.2985 238.771C95.6185 238.531 96.0825 238.411 96.6905 238.411C97.6985 238.411 98.4105 238.795 98.8265 239.563C98.9705 239.835 99.0745 240.171 99.1385 240.571C99.2025 240.971 99.2345 241.507 99.2345 242.179V246.811C99.2345 247.707 99.2105 248.355 99.1625 248.755C99.0665 249.555 98.6985 250.155 98.0585 250.555C97.7385 250.763 97.2745 250.867 96.6665 250.867C96.1865 250.867 95.7545 250.763 95.3705 250.555C95.0025 250.331 94.6825 250.019 94.4105 249.619H94.3625V255.643H91.9145ZM96.7865 242.515C96.7865 242.019 96.6905 241.619 96.4985 241.315C96.3065 241.011 96.0025 240.859 95.5865 240.859C95.2185 240.859 94.9225 241.003 94.6985 241.291C94.4745 241.563 94.3625 241.923 94.3625 242.371V247.099C94.3625 247.483 94.4745 247.803 94.6985 248.059C94.9385 248.299 95.2345 248.419 95.5865 248.419C96.0505 248.419 96.3625 248.275 96.5225 247.987C96.6985 247.699 96.7865 247.363 96.7865 246.979V242.515ZM106.499 250.723V242.995H106.451L103.739 250.723H101.243V238.555H103.547V246.283H103.595L106.283 238.555H108.803V250.723H106.499ZM110.829 250.723V238.555H113.325L115.797 245.083H115.845L118.317 238.555H120.813V250.723H118.461V243.355H118.413L116.445 248.731H115.197L113.229 243.355H113.181V250.723H110.829ZM129.909 245.563H125.061V247.219C125.061 247.603 125.165 247.899 125.373 248.107C125.597 248.315 125.893 248.419 126.261 248.419C126.725 248.419 127.029 248.283 127.173 248.011C127.333 247.739 127.429 247.467 127.461 247.195H129.909C129.909 248.267 129.581 249.131 128.925 249.787C128.605 250.123 128.221 250.387 127.773 250.579C127.325 250.771 126.821 250.867 126.261 250.867C125.493 250.867 124.837 250.707 124.293 250.387C123.765 250.067 123.357 249.643 123.069 249.115C122.893 248.795 122.773 248.427 122.709 248.011C122.645 247.595 122.613 247.139 122.613 246.643V242.635C122.613 242.139 122.645 241.683 122.709 241.267C122.773 240.851 122.893 240.483 123.069 240.163C123.357 239.635 123.765 239.211 124.293 238.891C124.837 238.571 125.493 238.411 126.261 238.411C126.821 238.411 127.325 238.507 127.773 238.699C128.237 238.891 128.629 239.155 128.949 239.491C129.589 240.211 129.909 241.115 129.909 242.203V245.563ZM125.061 243.643H127.461V242.251C127.461 241.787 127.349 241.443 127.125 241.219C126.917 240.979 126.629 240.859 126.261 240.859C125.893 240.859 125.597 240.979 125.373 241.219C125.165 241.443 125.061 241.787 125.061 242.251V243.643ZM131.711 250.723V238.555H134.159V243.523H136.631V238.555H139.079V250.723H136.631V245.563H134.159V250.723H131.711ZM142.478 250.723V240.715H140.078V238.555H147.326V240.715H144.926V250.723H142.478ZM147.995 242.635C147.995 242.139 148.027 241.683 148.091 241.267C148.155 240.851 148.275 240.483 148.451 240.163C148.739 239.635 149.147 239.211 149.675 238.891C150.219 238.571 150.875 238.411 151.643 238.411C152.411 238.411 153.059 238.571 153.587 238.891C154.131 239.211 154.547 239.635 154.835 240.163C155.011 240.483 155.131 240.851 155.195 241.267C155.259 241.683 155.291 242.139 155.291 242.635V246.643C155.291 247.139 155.259 247.595 155.195 248.011C155.131 248.427 155.011 248.795 154.835 249.115C154.547 249.643 154.131 250.067 153.587 250.387C153.059 250.707 152.411 250.867 151.643 250.867C150.875 250.867 150.219 250.707 149.675 250.387C149.147 250.067 148.739 249.643 148.451 249.115C148.275 248.795 148.155 248.427 148.091 248.011C148.027 247.595 147.995 247.139 147.995 246.643V242.635ZM150.443 247.027C150.443 247.491 150.547 247.843 150.755 248.083C150.979 248.307 151.275 248.419 151.643 248.419C152.011 248.419 152.299 248.307 152.507 248.083C152.731 247.843 152.843 247.491 152.843 247.027V242.251C152.843 241.787 152.731 241.443 152.507 241.219C152.299 240.979 152.011 240.859 151.643 240.859C151.275 240.859 150.979 240.979 150.755 241.219C150.547 241.443 150.443 241.787 150.443 242.251V247.027ZM157.094 250.723V238.555H160.262C160.742 238.555 161.238 238.603 161.75 238.699C162.262 238.795 162.726 239.019 163.142 239.371C163.526 239.691 163.79 240.067 163.934 240.499C164.094 240.931 164.174 241.403 164.174 241.915C164.174 242.091 164.158 242.299 164.126 242.539C164.094 242.763 164.03 242.995 163.934 243.235C163.838 243.475 163.694 243.715 163.502 243.955C163.326 244.179 163.086 244.371 162.782 244.531C163.118 244.659 163.39 244.819 163.598 245.011C163.806 245.203 163.966 245.419 164.078 245.659C164.206 245.899 164.286 246.155 164.318 246.427C164.366 246.683 164.39 246.939 164.39 247.195C164.39 247.707 164.318 248.179 164.174 248.611C164.046 249.043 163.822 249.427 163.502 249.763C163.118 250.163 162.646 250.427 162.086 250.555C161.526 250.667 160.982 250.723 160.454 250.723H157.094ZM159.542 248.683H160.526C160.702 248.683 160.87 248.667 161.03 248.635C161.206 248.587 161.358 248.507 161.486 248.395C161.63 248.283 161.742 248.131 161.822 247.939C161.902 247.747 161.942 247.499 161.942 247.195C161.942 246.699 161.846 246.299 161.654 245.995C161.478 245.675 161.102 245.515 160.526 245.515H159.542V248.683ZM159.542 243.595H160.502C160.998 243.595 161.342 243.443 161.534 243.139C161.726 242.835 161.822 242.427 161.822 241.915C161.822 241.547 161.71 241.235 161.486 240.979C161.262 240.723 160.95 240.595 160.55 240.595H159.542V243.595Z" fill="white"/>
<path d="M404.275 82.3051C405.357 66.1093 417.531 49.0527 435.565 47.9465C454.913 46.7596 469.14 64.0281 470.601 82.3051C448.491 82.3051 426.386 82.3051 404.275 82.3051ZM410.692 81.5688C413.838 62.7975 423.394 51.924 439.016 49.0897C432.785 48.9485 423.591 52.1527 416.598 61.1634C412.109 66.9465 409.486 73.7348 408.714 81.5688C409.491 81.5688 410.123 81.5688 410.692 81.5688Z" fill="#8784D6"/>
<path d="M397.027 83.9131C423.98 83.9131 450.886 83.9131 477.847 83.9131C477.882 85.4463 477.592 86.7844 476.768 87.941C476.174 88.7749 475.4 89.0001 474.49 89.0001C460.016 88.9833 445.539 88.9867 431.066 88.9867C420.999 88.9867 410.93 88.9867 400.863 88.9867C398.233 88.9901 396.781 87.1106 397.027 83.9131Z" fill="#8784D6"/>
<path d="M437.451 46.7944C435.146 46.8146 433.203 44.6022 433.186 41.9427C433.168 39.2832 435.088 37.0271 437.387 37.0002C439.692 36.9733 441.614 39.1756 441.632 41.8688C441.652 44.5619 439.779 46.7709 437.451 46.7944ZM435.601 45.0494C434.07 42.8976 434.067 40.9206 435.534 38.8596C433.693 39.9792 433.594 43.6306 435.601 45.0494Z" fill="#8784D6"/>
</svg>
