<svg width="608" height="366" viewBox="0 0 608 366" fill="none" xmlns="http://www.w3.org/2000/svg">
<path d="M608 43.8406C608 33.1098 599.532 24.2914 588.81 23.8569L20.8098 0.843153C9.45575 0.38312 0 9.46343 0 20.8268V343.841C0 355.449 9.84998 364.619 21.4286 363.79L589.429 323.112C599.893 322.363 608 313.655 608 303.163V43.8406Z" fill="#8451DA"/>
<path d="M54.8215 122.614V71.3498H65.8375C67.8535 71.3498 69.6295 71.6138 71.1655 72.1418C72.7015 72.6698 74.0935 73.6058 75.3415 74.9498C76.5895 76.2938 77.4535 77.8778 77.9335 79.7018C78.4135 81.4778 78.6535 83.9018 78.6535 86.9738C78.6535 89.2778 78.5095 91.2218 78.2215 92.8058C77.9815 94.3898 77.4295 95.8778 76.5655 97.2698C75.5575 98.9498 74.2135 100.27 72.5335 101.23C70.8535 102.142 68.6455 102.598 65.9095 102.598H62.1655V122.614H54.8215ZM62.1655 78.2618V95.6858H65.6935C67.1815 95.6858 68.3335 95.4698 69.1495 95.0378C69.9655 94.6058 70.5655 94.0058 70.9495 93.2378C71.3335 92.5178 71.5495 91.6298 71.5975 90.5738C71.6935 89.5178 71.7415 88.3418 71.7415 87.0458C71.7415 85.8458 71.7175 84.7178 71.6695 83.6618C71.6215 82.5578 71.4055 81.5978 71.0215 80.7818C70.6375 79.9658 70.0615 79.3418 69.2935 78.9098C68.5255 78.4778 67.4215 78.2618 65.9815 78.2618H62.1655ZM95.582 104.686L91.982 86.1098H91.838L88.238 104.686H95.582ZM77.438 122.614L88.886 71.3498H95.006L106.454 122.614H99.11L96.95 111.598H86.942L84.782 122.614H77.438ZM107.711 84.3098C107.711 82.8698 107.999 81.2378 108.575 79.4138C109.199 77.5898 110.135 76.0298 111.383 74.7338C112.487 73.6298 113.735 72.7178 115.127 71.9978C116.519 71.2778 118.127 70.9178 119.951 70.9178C122.111 70.9178 123.959 71.3018 125.495 72.0698C127.079 72.7898 128.375 73.7738 129.383 75.0218C130.439 76.2698 131.207 77.7578 131.687 79.4858C132.167 81.2138 132.407 83.0378 132.407 84.9578C132.407 85.9178 132.383 86.9018 132.335 87.9098C132.287 88.8698 132.095 89.8538 131.759 90.8618C131.471 91.8218 130.967 92.7338 130.247 93.5978C129.575 94.4618 128.591 95.2538 127.295 95.9738C128.591 96.5018 129.575 97.1978 130.247 98.0618C130.967 98.8778 131.471 99.8138 131.759 100.87C132.095 101.878 132.287 103.006 132.335 104.254C132.383 105.454 132.407 106.702 132.407 107.998C132.407 110.158 132.167 112.174 131.687 114.046C131.255 115.918 130.511 117.478 129.455 118.726C128.399 119.974 127.055 121.006 125.423 121.822C123.839 122.638 121.871 123.046 119.519 123.046C117.743 123.046 116.087 122.734 114.551 122.11C113.015 121.486 111.695 120.622 110.591 119.518C109.487 118.414 108.647 116.998 108.071 115.27C107.495 113.542 107.207 111.814 107.207 110.086V108.142H114.551L114.623 110.158C114.623 110.83 114.695 111.502 114.839 112.174C115.031 112.798 115.319 113.374 115.703 113.902C116.087 114.43 116.591 114.862 117.215 115.198C117.839 115.534 118.631 115.702 119.591 115.702C121.751 115.702 123.191 115.03 123.911 113.686C124.679 112.294 125.063 110.422 125.063 108.07C125.063 106.726 125.015 105.478 124.919 104.326C124.823 103.126 124.583 102.19 124.199 101.518C123.335 100.03 121.895 99.2858 119.879 99.2858H117.071V92.8058H120.095C121.007 92.8058 121.823 92.6378 122.543 92.3018C123.263 91.9658 123.839 91.3898 124.271 90.5738C124.655 89.8058 124.871 88.8938 124.919 87.8378C125.015 86.7818 125.063 85.8458 125.063 85.0298C125.063 84.1658 124.991 83.3258 124.847 82.5098C124.703 81.6458 124.439 80.9018 124.055 80.2778C123.671 79.7018 123.143 79.2218 122.471 78.8378C121.847 78.4538 121.031 78.2618 120.023 78.2618C119.111 78.2618 118.343 78.4298 117.719 78.7658C117.143 79.1018 116.663 79.5338 116.279 80.0618C115.847 80.6378 115.535 81.3818 115.343 82.2938C115.151 83.2058 115.055 84.0938 115.055 84.9578V86.1098H107.711V84.3098ZM138.654 122.614V71.3498H145.998V93.3098H155.07V71.3498H162.414V122.614H155.07V99.7898H145.998V122.614H138.654ZM168.158 83.4458C168.158 81.3818 168.518 79.5578 169.238 77.9738C169.958 76.3898 170.918 75.0698 172.118 74.0138C173.27 73.0058 174.566 72.2378 176.006 71.7098C177.494 71.1818 178.982 70.9178 180.47 70.9178C181.958 70.9178 183.422 71.1818 184.862 71.7098C186.35 72.2378 187.694 73.0058 188.894 74.0138C190.046 75.0698 190.982 76.3898 191.702 77.9738C192.422 79.5578 192.782 81.3818 192.782 83.4458V110.518C192.782 112.678 192.422 114.526 191.702 116.062C190.982 117.598 190.046 118.87 188.894 119.878C187.694 120.934 186.35 121.726 184.862 122.254C183.422 122.782 181.958 123.046 180.47 123.046C178.982 123.046 177.494 122.782 176.006 122.254C174.566 121.726 173.27 120.934 172.118 119.878C170.918 118.87 169.958 117.598 169.238 116.062C168.518 114.526 168.158 112.678 168.158 110.518V83.4458ZM175.502 110.518C175.502 112.294 175.982 113.614 176.942 114.478C177.95 115.294 179.126 115.702 180.47 115.702C181.814 115.702 182.966 115.294 183.926 114.478C184.934 113.614 185.438 112.294 185.438 110.518V83.4458C185.438 81.6698 184.934 80.3738 183.926 79.5578C182.966 78.6938 181.814 78.2618 180.47 78.2618C179.126 78.2618 177.95 78.6938 176.942 79.5578C175.982 80.3738 175.502 81.6698 175.502 83.4458V110.518ZM198.094 83.4458C198.094 81.3818 198.454 79.5578 199.174 77.9738C199.894 76.3898 200.854 75.0698 202.054 74.0138C203.206 73.0058 204.502 72.2378 205.942 71.7098C207.43 71.1818 208.918 70.9178 210.406 70.9178C211.894 70.9178 213.358 71.1818 214.798 71.7098C216.286 72.2378 217.63 73.0058 218.83 74.0138C219.982 75.0698 220.918 76.3898 221.638 77.9738C222.358 79.5578 222.718 81.3818 222.718 83.4458V110.518C222.718 112.678 222.358 114.526 221.638 116.062C220.918 117.598 219.982 118.87 218.83 119.878C217.63 120.934 216.286 121.726 214.798 122.254C213.358 122.782 211.894 123.046 210.406 123.046C208.918 123.046 207.43 122.782 205.942 122.254C204.502 121.726 203.206 120.934 202.054 119.878C200.854 118.87 199.894 117.598 199.174 116.062C198.454 114.526 198.094 112.678 198.094 110.518V83.4458ZM205.438 110.518C205.438 112.294 205.918 113.614 206.878 114.478C207.886 115.294 209.062 115.702 210.406 115.702C211.75 115.702 212.902 115.294 213.862 114.478C214.87 113.614 215.374 112.294 215.374 110.518V83.4458C215.374 81.6698 214.87 80.3738 213.862 79.5578C212.902 78.6938 211.75 78.2618 210.406 78.2618C209.062 78.2618 207.886 78.6938 206.878 79.5578C205.918 80.3738 205.438 81.6698 205.438 83.4458V110.518ZM228.462 71.3498H249.486V78.2618H235.806V92.3738H238.686C241.23 92.3738 243.342 92.7098 245.022 93.3818C246.75 94.0538 248.142 95.0138 249.198 96.2618C250.302 97.6058 250.998 99.0698 251.286 100.654C251.574 102.19 251.742 103.894 251.79 105.766V108.646C251.79 113.158 250.686 116.614 248.478 119.014C246.318 121.414 242.838 122.614 238.038 122.614H228.462V71.3498ZM235.806 98.8538V115.27H238.542C240.03 115.27 241.182 115.054 241.998 114.622C242.862 114.19 243.51 113.59 243.942 112.822C244.374 112.054 244.638 111.142 244.734 110.086C244.83 109.03 244.878 107.878 244.878 106.63C244.878 105.334 244.782 104.206 244.59 103.246C244.446 102.238 244.134 101.422 243.654 100.798C243.174 100.174 242.55 99.6938 241.782 99.3578C241.014 99.0218 239.958 98.8538 238.614 98.8538H235.806ZM256.852 122.614V71.3498H267.868C269.884 71.3498 271.66 71.6138 273.196 72.1418C274.732 72.6698 276.124 73.6058 277.372 74.9498C278.62 76.2938 279.484 77.8778 279.964 79.7018C280.444 81.4778 280.684 83.9018 280.684 86.9738C280.684 89.2778 280.54 91.2218 280.252 92.8058C280.012 94.3898 279.46 95.8778 278.596 97.2698C277.588 98.9498 276.244 100.27 274.564 101.23C272.884 102.142 270.676 102.598 267.94 102.598H264.196V122.614H256.852ZM264.196 78.2618V95.6858H267.724C269.212 95.6858 270.364 95.4698 271.18 95.0378C271.996 94.6058 272.596 94.0058 272.98 93.2378C273.364 92.5178 273.58 91.6298 273.628 90.5738C273.724 89.5178 273.772 88.3418 273.772 87.0458C273.772 85.8458 273.748 84.7178 273.7 83.6618C273.652 82.5578 273.436 81.5978 273.052 80.7818C272.668 79.9658 272.092 79.3418 271.324 78.9098C270.556 78.4778 269.452 78.2618 268.012 78.2618H264.196ZM297.612 104.686L294.012 86.1098H293.868L290.268 104.686H297.612ZM279.468 122.614L290.916 71.3498H297.036L308.484 122.614H301.14L298.98 111.598H288.972L286.812 122.614H279.468ZM309.741 84.3098C309.741 82.8698 310.029 81.2378 310.605 79.4138C311.229 77.5898 312.165 76.0298 313.413 74.7338C314.517 73.6298 315.765 72.7178 317.157 71.9978C318.549 71.2778 320.157 70.9178 321.981 70.9178C324.141 70.9178 325.989 71.3018 327.525 72.0698C329.109 72.7898 330.405 73.7738 331.413 75.0218C332.469 76.2698 333.237 77.7578 333.717 79.4858C334.197 81.2138 334.437 83.0378 334.437 84.9578C334.437 85.9178 334.413 86.9018 334.365 87.9098C334.317 88.8698 334.125 89.8538 333.789 90.8618C333.501 91.8218 332.997 92.7338 332.277 93.5978C331.605 94.4618 330.621 95.2538 329.325 95.9738C330.621 96.5018 331.605 97.1978 332.277 98.0618C332.997 98.8778 333.501 99.8138 333.789 100.87C334.125 101.878 334.317 103.006 334.365 104.254C334.413 105.454 334.437 106.702 334.437 107.998C334.437 110.158 334.197 112.174 333.717 114.046C333.285 115.918 332.541 117.478 331.485 118.726C330.429 119.974 329.085 121.006 327.453 121.822C325.869 122.638 323.901 123.046 321.549 123.046C319.773 123.046 318.117 122.734 316.581 122.11C315.045 121.486 313.725 120.622 312.621 119.518C311.517 118.414 310.677 116.998 310.101 115.27C309.525 113.542 309.237 111.814 309.237 110.086V108.142H316.581L316.653 110.158C316.653 110.83 316.725 111.502 316.869 112.174C317.061 112.798 317.349 113.374 317.733 113.902C318.117 114.43 318.621 114.862 319.245 115.198C319.869 115.534 320.661 115.702 321.621 115.702C323.781 115.702 325.221 115.03 325.941 113.686C326.709 112.294 327.093 110.422 327.093 108.07C327.093 106.726 327.045 105.478 326.949 104.326C326.853 103.126 326.613 102.19 326.229 101.518C325.365 100.03 323.925 99.2858 321.909 99.2858H319.101V92.8058H322.125C323.037 92.8058 323.853 92.6378 324.573 92.3018C325.293 91.9658 325.869 91.3898 326.301 90.5738C326.685 89.8058 326.901 88.8938 326.949 87.8378C327.045 86.7818 327.093 85.8458 327.093 85.0298C327.093 84.1658 327.021 83.3258 326.877 82.5098C326.733 81.6458 326.469 80.9018 326.085 80.2778C325.701 79.7018 325.173 79.2218 324.501 78.8378C323.877 78.4538 323.061 78.2618 322.053 78.2618C321.141 78.2618 320.373 78.4298 319.749 78.7658C319.173 79.1018 318.693 79.5338 318.309 80.0618C317.877 80.6378 317.565 81.3818 317.373 82.2938C317.181 83.2058 317.085 84.0938 317.085 84.9578V86.1098H309.741V84.3098ZM357.82 122.614V89.3498H357.676L348.028 122.614H340.684V71.3498H348.028V104.686H348.172L357.82 71.3498H365.164V122.614H357.82ZM371.323 122.614V71.3498H393.211V78.2618H378.667V93.3098H391.339V100.222H378.667V115.27H393.211V122.614H371.323Z" fill="white"/>
<path d="M58.0718 186.207H59.0874C59.5106 186.207 59.8426 186.116 60.0835 185.934C60.3244 185.745 60.5262 185.455 60.689 185.065L61.187 183.912L56.6265 174.01H58.9507L62.3101 181.588L65.3667 174.01H67.6421L62.5444 185.924C62.2645 186.582 61.8869 187.135 61.4116 187.584C60.9429 188.027 60.3211 188.248 59.5464 188.248H58.0718V186.207ZM73.8042 178.112H75.8452V182.067H79.8687V178.112H81.9097V188.248H79.8687V183.99H75.8452V188.248H73.8042V178.112ZM87.3296 188.365C86.2098 188.352 85.3374 188.053 84.7124 187.467C84.0679 186.894 83.7456 186.162 83.7456 185.27C83.7456 184.417 84.0256 183.711 84.5854 183.151C85.1323 182.591 85.9526 182.298 87.0464 182.272H89.8687V181.207C89.8817 180.315 89.1883 179.882 87.7886 179.908C87.3068 179.908 86.9064 179.961 86.5874 180.065C86.2814 180.188 86.0405 180.397 85.8647 180.69L84.2632 179.469C85.0379 178.453 86.1805 177.959 87.6909 177.985C88.967 177.972 89.9858 178.212 90.7476 178.707C91.4963 179.202 91.8836 180.074 91.9097 181.324V188.248H89.8687V187.35H89.8296C89.6408 187.695 89.3478 187.949 88.9507 188.112C88.5861 188.281 88.0457 188.365 87.3296 188.365ZM87.5835 186.451C88.4429 186.477 89.0451 186.377 89.3901 186.149C89.7091 185.934 89.8687 185.446 89.8687 184.684V183.951H87.4272C86.2293 183.977 85.6434 184.384 85.6694 185.172C85.6694 185.517 85.8224 185.81 86.1284 186.051C86.4344 186.318 86.9194 186.451 87.5835 186.451ZM98.3647 188.365C97.1538 188.365 96.1024 187.959 95.2104 187.145C94.2599 186.331 93.7782 185.013 93.7651 183.19C93.7912 181.334 94.2729 180 95.2104 179.186C96.1154 178.359 97.1668 177.959 98.3647 177.985C99.1525 178.011 99.8459 178.173 100.445 178.473C101.063 178.792 101.584 179.218 102.007 179.752L100.503 181.09C99.9891 180.393 99.3055 180.039 98.4526 180.026C96.7013 180 95.8192 181.054 95.8062 183.19C95.8192 185.306 96.7013 186.351 98.4526 186.324C99.3185 186.298 100.002 185.947 100.503 185.27L102.007 186.608C101.552 187.115 101.031 187.529 100.445 187.848C99.8328 188.193 99.1395 188.365 98.3647 188.365ZM112.242 188.365C111.695 188.365 111.174 188.287 110.679 188.131C110.451 188.059 110.204 187.946 109.937 187.789C109.696 187.685 109.458 187.532 109.224 187.33C108.781 186.927 108.433 186.399 108.179 185.748C107.886 185.11 107.74 184.264 107.74 183.209C107.74 182.181 107.867 181.347 108.121 180.709C108.388 180 108.713 179.466 109.097 179.108C109.488 178.724 109.94 178.437 110.455 178.248C110.936 178.073 111.425 177.985 111.919 177.985C113.078 178.011 114.058 178.392 114.859 179.127C115.66 179.876 116.073 180.924 116.099 182.272V183.951H109.781C109.781 184.765 110.015 185.384 110.484 185.807C110.933 186.237 111.506 186.451 112.203 186.451C113.029 186.451 113.768 186.123 114.419 185.465L115.904 186.725C114.849 187.832 113.628 188.378 112.242 188.365ZM114.058 182.272C114.032 181.497 113.82 180.901 113.423 180.485C113.033 180.101 112.531 179.908 111.919 179.908C111.307 179.908 110.806 180.101 110.416 180.485C110.031 180.901 109.82 181.497 109.781 182.272H114.058ZM122.056 188.365C120.845 188.365 119.794 187.959 118.902 187.145C117.951 186.331 117.47 185.013 117.457 183.19C117.483 181.334 117.964 180 118.902 179.186C119.807 178.359 120.858 177.959 122.056 177.985C122.844 178.011 123.537 178.173 124.136 178.473C124.755 178.792 125.276 179.218 125.699 179.752L124.195 181.09C123.681 180.393 122.997 180.039 122.144 180.026C120.393 180 119.511 181.054 119.498 183.19C119.511 185.306 120.393 186.351 122.144 186.324C123.01 186.298 123.694 185.947 124.195 185.27L125.699 186.608C125.243 187.115 124.722 187.529 124.136 187.848C123.524 188.193 122.831 188.365 122.056 188.365ZM129.146 180.026H126.031V178.112H134.185V180.026H131.187V188.248H129.146V180.026ZM135.738 178.112H137.779V181.93H140.455C141.444 181.93 142.238 182.22 142.837 182.799C143.436 183.378 143.736 184.14 143.736 185.084C143.736 186.035 143.436 186.8 142.837 187.379C142.238 187.959 141.444 188.248 140.455 188.248H135.738V178.112ZM140.24 186.451C140.708 186.451 141.073 186.328 141.333 186.08C141.594 185.833 141.724 185.488 141.724 185.045C141.724 184.622 141.594 184.287 141.333 184.039C141.073 183.792 140.708 183.668 140.24 183.668H137.779V186.451H140.24ZM149.185 186.324H150.347C150.523 185.888 150.679 185.433 150.816 184.957C150.959 184.482 151.073 183.932 151.158 183.307C151.242 182.682 151.307 181.949 151.353 181.11C151.405 180.27 151.431 179.27 151.431 178.112H158.267V186.324H159.664V190.846H157.75V188.248H151.109V190.846H149.185V186.324ZM156.226 186.324V180.026H153.365C153.365 180.852 153.342 181.582 153.296 182.213C153.251 182.838 153.186 183.401 153.101 183.903C153.023 184.397 152.929 184.843 152.818 185.24C152.707 185.631 152.59 185.992 152.466 186.324H156.226ZM165.132 188.365C164.585 188.365 164.065 188.287 163.57 188.131C163.342 188.059 163.095 187.946 162.828 187.789C162.587 187.685 162.349 187.532 162.115 187.33C161.672 186.927 161.324 186.399 161.07 185.748C160.777 185.11 160.63 184.264 160.63 183.209C160.63 182.181 160.757 181.347 161.011 180.709C161.278 180 161.604 179.466 161.988 179.108C162.378 178.724 162.831 178.437 163.345 178.248C163.827 178.073 164.315 177.985 164.81 177.985C165.969 178.011 166.949 178.392 167.75 179.127C168.55 179.876 168.964 180.924 168.99 182.272V183.951H162.671C162.671 184.765 162.906 185.384 163.375 185.807C163.824 186.237 164.397 186.451 165.093 186.451C165.92 186.451 166.659 186.123 167.31 185.465L168.794 186.725C167.74 187.832 166.519 188.378 165.132 188.365ZM166.949 182.272C166.923 181.497 166.711 180.901 166.314 180.485C165.923 180.101 165.422 179.908 164.81 179.908C164.198 179.908 163.697 180.101 163.306 180.485C162.922 180.901 162.71 181.497 162.671 182.272H166.949ZM174.947 188.365C173.736 188.365 172.684 187.959 171.792 187.145C170.842 186.331 170.36 185.013 170.347 183.19C170.373 181.334 170.855 180 171.792 179.186C172.697 178.359 173.749 177.959 174.947 177.985C175.735 178.011 176.428 178.173 177.027 178.473C177.645 178.792 178.166 179.218 178.589 179.752L177.085 181.09C176.571 180.393 175.888 180.039 175.035 180.026C173.283 180 172.401 181.054 172.388 183.19C172.401 185.306 173.283 186.351 175.035 186.324C175.901 186.298 176.584 185.947 177.085 185.27L178.589 186.608C178.134 187.115 177.613 187.529 177.027 187.848C176.415 188.193 175.722 188.365 174.947 188.365ZM179.175 186.324H179.634C179.914 186.324 180.136 186.289 180.298 186.217C180.468 186.145 180.601 186.002 180.699 185.787L181.08 184.908C181.145 184.72 181.223 184.557 181.314 184.42C181.412 184.277 181.552 184.147 181.734 184.03C181.096 183.919 180.588 183.606 180.21 183.092C179.839 182.571 179.654 181.93 179.654 181.168C179.654 180.211 179.95 179.462 180.542 178.922C181.141 178.382 181.945 178.112 182.955 178.112H187.593V188.248H185.552V184.352H184.732C184.244 184.352 183.882 184.427 183.648 184.576C183.414 184.72 183.202 185.016 183.013 185.465L182.554 186.588C182.437 186.894 182.304 187.151 182.154 187.36C182.011 187.568 181.845 187.74 181.656 187.877C181.467 188.007 181.242 188.102 180.982 188.16C180.728 188.219 180.425 188.248 180.074 188.248H179.175V186.324ZM185.552 182.672V179.948H183.179C182.671 179.948 182.291 180.071 182.037 180.319C181.783 180.566 181.656 180.901 181.656 181.324C181.656 182.223 182.164 182.672 183.179 182.672H185.552ZM192.251 180.026H189.136V178.112H197.291V180.026H194.292V188.248H192.251V180.026ZM198.843 178.112H200.884V182.086H201.841C202.206 182.086 202.509 182.008 202.75 181.852C202.997 181.689 203.176 181.468 203.287 181.188L203.765 179.83C203.98 179.218 204.273 178.779 204.644 178.512C205.015 178.245 205.536 178.112 206.207 178.112H206.88V179.948H206.587C206.386 179.948 206.216 179.957 206.08 179.977C205.949 179.996 205.839 180.039 205.748 180.104C205.663 180.162 205.591 180.247 205.533 180.358C205.474 180.468 205.412 180.618 205.347 180.807L205.005 181.813C204.901 182.119 204.751 182.36 204.556 182.535C204.361 182.705 204.149 182.828 203.921 182.906C204.273 183.017 204.553 183.183 204.761 183.405C204.976 183.619 205.158 183.912 205.308 184.283L205.787 185.524C205.852 185.699 205.914 185.843 205.972 185.953C206.031 186.058 206.099 186.139 206.177 186.198C206.262 186.256 206.36 186.298 206.47 186.324C206.587 186.351 206.74 186.364 206.929 186.364H207.388V188.248H206.646C205.91 188.248 205.347 188.112 204.957 187.838C204.572 187.565 204.257 187.096 204.009 186.432L203.443 184.987C203.352 184.746 203.238 184.563 203.101 184.44C202.971 184.309 202.828 184.212 202.671 184.147C202.522 184.082 202.365 184.043 202.203 184.03C202.046 184.017 201.887 184.01 201.724 184.01H200.884V188.248H198.843V178.112ZM209 178.112H211.041V184.987L215.445 178.112H217.486V188.248H215.445V181.266L211.041 188.248H209V178.112ZM224.937 178.112H226.978V179.166C227.662 178.405 228.534 178.011 229.595 177.985C230.826 177.998 231.734 178.44 232.32 179.313C232.613 179.645 232.805 180.065 232.896 180.573C232.948 180.839 232.984 181.191 233.003 181.627C233.029 182.057 233.042 182.578 233.042 183.19C233.042 183.789 233.029 184.303 233.003 184.733C232.984 185.156 232.948 185.501 232.896 185.768C232.805 186.276 232.613 186.702 232.32 187.047C232.027 187.451 231.659 187.763 231.216 187.985C230.78 188.212 230.24 188.339 229.595 188.365C229.094 188.365 228.628 188.252 228.199 188.024C227.756 187.802 227.349 187.516 226.978 187.164V192.35H224.937V178.112ZM228.98 186.324C229.449 186.324 229.83 186.233 230.123 186.051C230.403 185.875 230.601 185.634 230.718 185.328C230.855 185.048 230.943 184.71 230.982 184.313C230.995 184.124 231.001 183.938 231.001 183.756C231.001 183.567 231.001 183.378 231.001 183.19C231.001 182.988 231.001 182.789 231.001 182.594C231.001 182.392 230.995 182.197 230.982 182.008C230.943 181.611 230.855 181.272 230.718 180.992C230.601 180.699 230.403 180.459 230.123 180.27C229.843 180.107 229.462 180.026 228.98 180.026C228.524 180.026 228.163 180.12 227.896 180.309C227.629 180.485 227.424 180.732 227.281 181.051C227.157 181.344 227.076 181.676 227.037 182.047C226.998 182.438 226.978 182.819 226.978 183.19C226.978 183.548 226.998 183.906 227.037 184.264C227.076 184.655 227.157 184.996 227.281 185.289C227.424 185.608 227.629 185.856 227.896 186.031C228.15 186.227 228.511 186.324 228.98 186.324ZM238.111 188.365C236.991 188.352 236.119 188.053 235.494 187.467C234.849 186.894 234.527 186.162 234.527 185.27C234.527 184.417 234.807 183.711 235.367 183.151C235.914 182.591 236.734 182.298 237.828 182.272H240.65V181.207C240.663 180.315 239.97 179.882 238.57 179.908C238.088 179.908 237.688 179.961 237.369 180.065C237.063 180.188 236.822 180.397 236.646 180.69L235.044 179.469C235.819 178.453 236.962 177.959 238.472 177.985C239.748 177.972 240.767 178.212 241.529 178.707C242.278 179.202 242.665 180.074 242.691 181.324V188.248H240.65V187.35H240.611C240.422 187.695 240.129 187.949 239.732 188.112C239.367 188.281 238.827 188.365 238.111 188.365ZM238.365 186.451C239.224 186.477 239.826 186.377 240.171 186.149C240.49 185.934 240.65 185.446 240.65 184.684V183.951H238.208C237.011 183.977 236.425 184.384 236.451 185.172C236.451 185.517 236.604 185.81 236.91 186.051C237.216 186.318 237.701 186.451 238.365 186.451ZM248.052 188.365C247.212 188.365 246.49 188.232 245.884 187.965C245.285 187.698 244.725 187.285 244.205 186.725L245.689 185.465C246.021 185.804 246.356 186.054 246.695 186.217C247.04 186.373 247.492 186.451 248.052 186.451C248.677 186.451 249.179 186.337 249.556 186.11C249.94 185.882 250.132 185.546 250.132 185.104C250.132 184.668 249.989 184.362 249.703 184.186C249.416 184.003 248.97 183.912 248.365 183.912H246.89V182.233H248.394C248.882 182.233 249.273 182.125 249.566 181.91C249.859 181.696 250.005 181.396 250.005 181.012C250.005 180.621 249.836 180.338 249.498 180.162C249.159 179.98 248.677 179.889 248.052 179.889C247.636 179.889 247.225 179.961 246.822 180.104C246.425 180.24 246.067 180.462 245.748 180.768L244.292 179.508C244.533 179.267 244.778 179.056 245.025 178.873C245.279 178.684 245.559 178.525 245.865 178.395C246.177 178.258 246.526 178.157 246.91 178.092C247.294 178.02 247.74 177.985 248.248 177.985C248.794 177.985 249.309 178.03 249.791 178.121C250.272 178.206 250.686 178.375 251.031 178.629C251.35 178.857 251.591 179.156 251.753 179.528C251.923 179.899 252.007 180.299 252.007 180.729C252.007 181.224 251.877 181.673 251.617 182.076C251.356 182.474 250.995 182.763 250.533 182.946C251.021 183.134 251.415 183.437 251.714 183.854C252.02 184.264 252.173 184.749 252.173 185.309C252.173 185.83 252.05 186.315 251.802 186.764C251.555 187.207 251.203 187.561 250.748 187.828C250.403 188.043 249.996 188.186 249.527 188.258C249.065 188.33 248.573 188.365 248.052 188.365ZM254.312 178.112H256.353V182.067H260.376V178.112H262.417V188.248H260.376V183.99H256.353V188.248H254.312V178.112ZM265.054 178.112H267.095V181.93H269.771C270.761 181.93 271.555 182.22 272.154 182.799C272.753 183.378 273.052 184.14 273.052 185.084C273.052 186.035 272.753 186.8 272.154 187.379C271.555 187.959 270.761 188.248 269.771 188.248H265.054V178.112ZM269.556 186.451C270.025 186.451 270.389 186.328 270.65 186.08C270.91 185.833 271.041 185.488 271.041 185.045C271.041 184.622 270.91 184.287 270.65 184.039C270.389 183.792 270.025 183.668 269.556 183.668H267.095V186.451H269.556ZM274.458 178.112H276.5V188.248H274.458V178.112ZM281.48 183.073L278.16 178.112H280.601L282.623 181.393L284.634 178.112H287.076L283.755 183.073L287.222 188.248H284.781L282.623 184.869L280.455 188.248H278.013L281.48 183.073ZM293.55 178.112H301.656V188.248H299.615V180.026H295.591V188.248H293.55V178.112ZM307.974 188.365C307.225 188.365 306.591 188.219 306.07 187.926C305.556 187.659 305.165 187.373 304.898 187.067C304.507 186.643 304.227 186.158 304.058 185.612C303.882 185.078 303.794 184.264 303.794 183.17C303.794 182.089 303.882 181.269 304.058 180.709C304.24 180.136 304.52 179.661 304.898 179.283C305.178 178.951 305.569 178.652 306.07 178.385C306.578 178.118 307.212 177.985 307.974 177.985C308.762 177.985 309.41 178.118 309.917 178.385C310.406 178.652 310.783 178.951 311.05 179.283C311.441 179.661 311.727 180.136 311.91 180.709C312.072 181.295 312.154 182.115 312.154 183.17C312.154 184.238 312.072 185.052 311.91 185.612C311.727 186.171 311.441 186.656 311.05 187.067C310.985 187.132 310.914 187.207 310.835 187.291C310.757 187.369 310.669 187.441 310.572 187.506C310.389 187.669 310.171 187.809 309.917 187.926C309.397 188.219 308.749 188.365 307.974 188.365ZM307.974 186.324C308.332 186.324 308.658 186.253 308.951 186.11C309.244 185.973 309.465 185.8 309.615 185.592C309.83 185.312 309.963 185.019 310.015 184.713C310.041 184.55 310.064 184.342 310.083 184.088C310.103 183.834 310.113 183.535 310.113 183.19C310.113 182.832 310.103 182.522 310.083 182.262C310.064 182.002 310.041 181.783 310.015 181.608C309.963 181.302 309.83 181.022 309.615 180.768C309.465 180.553 309.244 180.374 308.951 180.231C308.684 180.094 308.358 180.026 307.974 180.026C307.616 180.026 307.297 180.094 307.017 180.231C306.75 180.361 306.522 180.54 306.333 180.768C306.158 180.996 306.031 181.276 305.953 181.608C305.875 181.953 305.835 182.474 305.835 183.17C305.835 183.873 305.875 184.388 305.953 184.713C306.031 185.045 306.158 185.338 306.333 185.592C306.535 185.8 306.763 185.973 307.017 186.11C307.336 186.253 307.655 186.324 307.974 186.324ZM313.091 186.324H313.414C313.628 186.324 313.827 186.308 314.009 186.276C314.198 186.243 314.367 186.145 314.517 185.983C314.673 185.813 314.807 185.559 314.917 185.221C315.035 184.882 315.132 184.41 315.21 183.805C315.295 183.193 315.357 182.425 315.396 181.5C315.435 180.569 315.455 179.44 315.455 178.112H322.31V188.248H320.279V180.026H317.398C317.398 181.256 317.362 182.314 317.291 183.199C317.225 184.085 317.128 184.83 316.998 185.436C316.874 186.041 316.711 186.533 316.509 186.91C316.314 187.281 316.086 187.565 315.826 187.76C315.565 187.955 315.272 188.086 314.947 188.151C314.621 188.216 314.263 188.248 313.873 188.248H313.091V186.324ZM324.761 190.426H325.357C325.624 190.426 325.871 190.354 326.099 190.211C326.314 190.074 326.473 189.853 326.578 189.547L327.134 187.848L323.501 178.112H325.66L328.062 185.211H328.101L330.494 178.112H332.662L328.296 190.348C328.016 191.11 327.629 191.637 327.134 191.93C326.633 192.21 326.067 192.35 325.435 192.35H324.761V190.426ZM339.009 187.77C338.71 187.985 338.404 188.138 338.091 188.229C337.779 188.32 337.385 188.365 336.91 188.365C336.252 188.365 335.699 188.235 335.25 187.975C334.807 187.714 334.432 187.366 334.126 186.93C333.99 186.728 333.879 186.52 333.794 186.305C333.71 186.084 333.641 185.826 333.589 185.533C333.544 185.234 333.514 184.892 333.501 184.508C333.488 184.124 333.482 183.671 333.482 183.151C333.482 182.337 333.511 181.624 333.57 181.012C333.635 180.393 333.82 179.84 334.126 179.352C334.432 178.87 334.83 178.522 335.318 178.307C335.813 178.092 336.369 177.985 336.988 177.985C337.463 177.985 337.85 178.046 338.15 178.17C338.456 178.287 338.742 178.44 339.009 178.629V174.01H341.021V178.629C341.288 178.44 341.571 178.287 341.871 178.17C342.177 178.046 342.567 177.985 343.042 177.985C343.654 177.985 344.208 178.092 344.703 178.307C345.197 178.522 345.598 178.87 345.904 179.352C346.21 179.84 346.392 180.393 346.451 181.012C346.516 181.624 346.548 182.337 346.548 183.151C346.548 183.671 346.542 184.124 346.529 184.508C346.516 184.892 346.483 185.234 346.431 185.533C346.386 185.826 346.32 186.084 346.236 186.305C346.151 186.52 346.041 186.728 345.904 186.93C345.598 187.366 345.22 187.714 344.771 187.975C344.328 188.235 343.778 188.365 343.121 188.365C342.645 188.365 342.248 188.32 341.929 188.229C341.617 188.138 341.314 187.985 341.021 187.77V192.35H339.009V187.77ZM337.466 186.324C337.785 186.324 338.075 186.263 338.335 186.139C338.596 186.009 338.82 185.839 339.009 185.631V180.729C338.82 180.514 338.599 180.345 338.345 180.221C338.091 180.091 337.805 180.026 337.486 180.026C336.802 180.026 336.301 180.26 335.982 180.729C335.663 181.198 335.503 182.018 335.503 183.19C335.503 184.336 335.663 185.146 335.982 185.621C336.301 186.09 336.796 186.324 337.466 186.324ZM342.564 186.324C343.228 186.324 343.72 186.09 344.039 185.621C344.364 185.146 344.527 184.336 344.527 183.19C344.527 182.018 344.364 181.198 344.039 180.729C343.72 180.26 343.222 180.026 342.544 180.026C342.225 180.026 341.939 180.091 341.685 180.221C341.431 180.345 341.21 180.514 341.021 180.729V185.631C341.21 185.839 341.434 186.009 341.695 186.139C341.955 186.263 342.245 186.324 342.564 186.324ZM351.607 188.365C350.487 188.352 349.615 188.053 348.99 187.467C348.345 186.894 348.023 186.162 348.023 185.27C348.023 184.417 348.303 183.711 348.863 183.151C349.41 182.591 350.23 182.298 351.324 182.272H354.146V181.207C354.159 180.315 353.466 179.882 352.066 179.908C351.584 179.908 351.184 179.961 350.865 180.065C350.559 180.188 350.318 180.397 350.142 180.69L348.541 179.469C349.315 178.453 350.458 177.959 351.968 177.985C353.244 177.972 354.263 178.212 355.025 178.707C355.774 179.202 356.161 180.074 356.187 181.324V188.248H354.146V187.35H354.107C353.918 187.695 353.625 187.949 353.228 188.112C352.863 188.281 352.323 188.365 351.607 188.365ZM351.861 186.451C352.72 186.477 353.322 186.377 353.667 186.149C353.986 185.934 354.146 185.446 354.146 184.684V183.951H351.705C350.507 183.977 349.921 184.384 349.947 185.172C349.947 185.517 350.1 185.81 350.406 186.051C350.712 186.318 351.197 186.451 351.861 186.451ZM362.867 188.365C361.838 188.365 361.001 188.128 360.357 187.653C359.712 187.171 359.257 186.53 358.99 185.729C358.905 185.501 358.843 185.24 358.804 184.948C358.765 184.655 358.733 184.349 358.707 184.03C358.681 183.711 358.664 183.392 358.658 183.073C358.651 182.747 358.648 182.444 358.648 182.164V181.393C358.648 180.846 358.658 180.315 358.677 179.801C358.697 179.287 358.755 178.798 358.853 178.336C358.957 177.867 359.107 177.434 359.302 177.037C359.504 176.634 359.778 176.269 360.123 175.944C360.403 175.696 360.699 175.494 361.011 175.338C361.33 175.182 361.659 175.061 361.998 174.977C362.336 174.892 362.678 174.827 363.023 174.781C363.368 174.736 363.71 174.69 364.048 174.645C364.257 174.619 364.426 174.557 364.556 174.459C364.693 174.362 364.778 174.212 364.81 174.01H366.89C366.779 175.488 366.093 176.328 364.83 176.53C364.504 176.582 364.182 176.624 363.863 176.656C363.544 176.689 363.228 176.738 362.916 176.803C362.603 176.862 362.307 176.949 362.027 177.067C361.747 177.177 361.486 177.337 361.246 177.545C360.94 177.825 360.715 178.16 360.572 178.551C360.435 178.935 360.36 179.293 360.347 179.625H360.406C360.634 179.228 361.001 178.89 361.509 178.61C362.024 178.33 362.623 178.19 363.306 178.19C364.641 178.19 365.604 178.626 366.197 179.498C366.789 180.371 367.085 181.614 367.085 183.229C367.085 184.108 367.004 184.86 366.841 185.485C366.685 186.103 366.418 186.637 366.041 187.086C365.695 187.503 365.256 187.822 364.722 188.043C364.188 188.258 363.57 188.365 362.867 188.365ZM362.847 186.344C363.192 186.344 363.505 186.282 363.785 186.158C364.065 186.035 364.299 185.859 364.488 185.631C364.716 185.364 364.865 185.042 364.937 184.664C365.009 184.28 365.044 183.815 365.044 183.268C365.044 182.708 365.009 182.229 364.937 181.832C364.865 181.429 364.716 181.093 364.488 180.826C364.299 180.612 364.065 180.446 363.785 180.328C363.505 180.211 363.192 180.153 362.847 180.153C362.502 180.153 362.19 180.214 361.91 180.338C361.63 180.462 361.402 180.638 361.226 180.865C360.998 181.132 360.852 181.468 360.787 181.871C360.722 182.268 360.689 182.747 360.689 183.307C360.689 183.945 360.741 184.453 360.845 184.83C360.949 185.201 361.115 185.507 361.343 185.748C361.532 185.937 361.757 186.084 362.017 186.188C362.278 186.292 362.554 186.344 362.847 186.344ZM369.234 178.112H371.275V179.166C371.958 178.405 372.831 178.011 373.892 177.985C375.123 177.998 376.031 178.44 376.617 179.313C376.91 179.645 377.102 180.065 377.193 180.573C377.245 180.839 377.281 181.191 377.3 181.627C377.326 182.057 377.339 182.578 377.339 183.19C377.339 183.789 377.326 184.303 377.3 184.733C377.281 185.156 377.245 185.501 377.193 185.768C377.102 186.276 376.91 186.702 376.617 187.047C376.324 187.451 375.956 187.763 375.513 187.985C375.077 188.212 374.537 188.339 373.892 188.365C373.391 188.365 372.925 188.252 372.496 188.024C372.053 187.802 371.646 187.516 371.275 187.164V192.35H369.234V178.112ZM373.277 186.324C373.746 186.324 374.126 186.233 374.419 186.051C374.699 185.875 374.898 185.634 375.015 185.328C375.152 185.048 375.24 184.71 375.279 184.313C375.292 184.124 375.298 183.938 375.298 183.756C375.298 183.567 375.298 183.378 375.298 183.19C375.298 182.988 375.298 182.789 375.298 182.594C375.298 182.392 375.292 182.197 375.279 182.008C375.24 181.611 375.152 181.272 375.015 180.992C374.898 180.699 374.699 180.459 374.419 180.27C374.139 180.107 373.759 180.026 373.277 180.026C372.821 180.026 372.46 180.12 372.193 180.309C371.926 180.485 371.721 180.732 371.578 181.051C371.454 181.344 371.373 181.676 371.333 182.047C371.294 182.438 371.275 182.819 371.275 183.19C371.275 183.548 371.294 183.906 371.333 184.264C371.373 184.655 371.454 184.996 371.578 185.289C371.721 185.608 371.926 185.856 372.193 186.031C372.447 186.227 372.808 186.324 373.277 186.324ZM379.625 178.112H381.666V184.987L386.07 178.112H388.111V188.248H386.07V181.266L381.666 188.248H379.625V178.112ZM390.757 178.112H392.798V182.086H393.755C394.12 182.086 394.423 182.008 394.664 181.852C394.911 181.689 395.09 181.468 395.201 181.188L395.679 179.83C395.894 179.218 396.187 178.779 396.558 178.512C396.929 178.245 397.45 178.112 398.121 178.112H398.794V179.948H398.501C398.3 179.948 398.13 179.957 397.994 179.977C397.863 179.996 397.753 180.039 397.662 180.104C397.577 180.162 397.505 180.247 397.447 180.358C397.388 180.468 397.326 180.618 397.261 180.807L396.919 181.813C396.815 182.119 396.666 182.36 396.47 182.535C396.275 182.705 396.063 182.828 395.835 182.906C396.187 183.017 396.467 183.183 396.675 183.405C396.89 183.619 397.072 183.912 397.222 184.283L397.701 185.524C397.766 185.699 397.828 185.843 397.886 185.953C397.945 186.058 398.013 186.139 398.091 186.198C398.176 186.256 398.274 186.298 398.384 186.324C398.501 186.351 398.654 186.364 398.843 186.364H399.302V188.248H398.56C397.824 188.248 397.261 188.112 396.871 187.838C396.486 187.565 396.171 187.096 395.923 186.432L395.357 184.987C395.266 184.746 395.152 184.563 395.015 184.44C394.885 184.309 394.742 184.212 394.585 184.147C394.436 184.082 394.279 184.043 394.117 184.03C393.96 184.017 393.801 184.01 393.638 184.01H392.798V188.248H390.757V178.112ZM403.697 188.365C402.577 188.352 401.705 188.053 401.08 187.467C400.435 186.894 400.113 186.162 400.113 185.27C400.113 184.417 400.393 183.711 400.953 183.151C401.5 182.591 402.32 182.298 403.414 182.272H406.236V181.207C406.249 180.315 405.556 179.882 404.156 179.908C403.674 179.908 403.274 179.961 402.955 180.065C402.649 180.188 402.408 180.397 402.232 180.69L400.63 179.469C401.405 178.453 402.548 177.959 404.058 177.985C405.334 177.972 406.353 178.212 407.115 178.707C407.863 179.202 408.251 180.074 408.277 181.324V188.248H406.236V187.35H406.197C406.008 187.695 405.715 187.949 405.318 188.112C404.953 188.281 404.413 188.365 403.697 188.365ZM403.951 186.451C404.81 186.477 405.412 186.377 405.757 186.149C406.076 185.934 406.236 185.446 406.236 184.684V183.951H403.794C402.597 183.977 402.011 184.384 402.037 185.172C402.037 185.517 402.19 185.81 402.496 186.051C402.802 186.318 403.287 186.451 403.951 186.451ZM412.935 180.026H409.82V178.112H417.974V180.026H414.976V188.248H412.935V180.026ZM423.208 188.365C422.46 188.365 421.825 188.219 421.304 187.926C420.79 187.659 420.399 187.373 420.132 187.067C419.742 186.643 419.462 186.158 419.292 185.612C419.117 185.078 419.029 184.264 419.029 183.17C419.029 182.089 419.117 181.269 419.292 180.709C419.475 180.136 419.755 179.661 420.132 179.283C420.412 178.951 420.803 178.652 421.304 178.385C421.812 178.118 422.447 177.985 423.208 177.985C423.996 177.985 424.644 178.118 425.152 178.385C425.64 178.652 426.018 178.951 426.285 179.283C426.675 179.661 426.962 180.136 427.144 180.709C427.307 181.295 427.388 182.115 427.388 183.17C427.388 184.238 427.307 185.052 427.144 185.612C426.962 186.171 426.675 186.656 426.285 187.067C426.22 187.132 426.148 187.207 426.07 187.291C425.992 187.369 425.904 187.441 425.806 187.506C425.624 187.669 425.406 187.809 425.152 187.926C424.631 188.219 423.983 188.365 423.208 188.365ZM423.208 186.324C423.567 186.324 423.892 186.253 424.185 186.11C424.478 185.973 424.699 185.8 424.849 185.592C425.064 185.312 425.197 185.019 425.25 184.713C425.276 184.55 425.298 184.342 425.318 184.088C425.337 183.834 425.347 183.535 425.347 183.19C425.347 182.832 425.337 182.522 425.318 182.262C425.298 182.002 425.276 181.783 425.25 181.608C425.197 181.302 425.064 181.022 424.849 180.768C424.699 180.553 424.478 180.374 424.185 180.231C423.918 180.094 423.593 180.026 423.208 180.026C422.85 180.026 422.531 180.094 422.251 180.231C421.985 180.361 421.757 180.54 421.568 180.768C421.392 180.996 421.265 181.276 421.187 181.608C421.109 181.953 421.07 182.474 421.07 183.17C421.07 183.873 421.109 184.388 421.187 184.713C421.265 185.045 421.392 185.338 421.568 185.592C421.77 185.8 421.998 185.973 422.251 186.11C422.57 186.253 422.889 186.324 423.208 186.324ZM429.527 178.112H434.39C435.321 178.112 436.063 178.359 436.617 178.854C437.17 179.342 437.447 180 437.447 180.826C437.447 181.842 436.975 182.568 436.031 183.004C436.539 183.232 436.929 183.541 437.203 183.932C437.476 184.316 437.613 184.801 437.613 185.387C437.613 186.266 437.343 186.962 436.802 187.477C436.262 187.991 435.51 188.248 434.546 188.248H429.527V178.112ZM434.146 186.549C434.602 186.549 434.96 186.425 435.22 186.178C435.481 185.931 435.611 185.602 435.611 185.192C435.611 184.762 435.481 184.43 435.22 184.196C434.96 183.961 434.602 183.844 434.146 183.844H431.568V186.549H434.146ZM434.009 182.272C434.966 182.272 435.445 181.852 435.445 181.012C435.445 180.621 435.321 180.325 435.074 180.123C434.833 179.915 434.478 179.811 434.009 179.811H431.568V182.272H434.009ZM439.82 189.733V186.207H441.861V188.248L439.82 189.733ZM63.3843 210.547C63.0392 210.612 62.6193 210.684 62.1245 210.762C61.6297 210.834 61.0828 210.869 60.4839 210.869C59.644 210.869 58.9539 210.625 58.4136 210.137C57.8732 209.649 57.603 208.887 57.603 207.852V204.112H59.644V207.451C59.644 207.998 59.7743 208.386 60.0347 208.614C60.2951 208.835 60.6597 208.946 61.1284 208.946C61.5516 208.946 61.9618 208.92 62.3589 208.867C62.7625 208.815 63.1043 208.763 63.3843 208.711V204.112H65.4253V214.248H63.3843V210.547ZM70.0835 206.026H66.9683V204.112H75.1226V206.026H72.1245V214.248H70.0835V206.026ZM80.3569 214.365C79.6082 214.365 78.9735 214.219 78.4526 213.926C77.9383 213.659 77.5477 213.373 77.2808 213.067C76.8901 212.643 76.6102 212.158 76.4409 211.612C76.2651 211.078 76.1772 210.264 76.1772 209.17C76.1772 208.089 76.2651 207.269 76.4409 206.709C76.6232 206.136 76.9032 205.661 77.2808 205.283C77.5607 204.951 77.9513 204.652 78.4526 204.385C78.9604 204.118 79.5952 203.985 80.3569 203.985C81.1447 203.985 81.7925 204.118 82.3003 204.385C82.7886 204.652 83.1662 204.951 83.4331 205.283C83.8237 205.661 84.1102 206.136 84.2925 206.709C84.4552 207.295 84.5366 208.115 84.5366 209.17C84.5366 210.238 84.4552 211.052 84.2925 211.612C84.1102 212.171 83.8237 212.656 83.4331 213.067C83.368 213.132 83.2964 213.207 83.2183 213.291C83.1401 213.369 83.0522 213.441 82.9546 213.506C82.7723 213.669 82.5542 213.809 82.3003 213.926C81.7795 214.219 81.1317 214.365 80.3569 214.365ZM80.3569 212.324C80.715 212.324 81.0405 212.253 81.3335 212.11C81.6265 211.973 81.8478 211.8 81.9976 211.592C82.2124 211.312 82.3459 211.019 82.3979 210.713C82.424 210.55 82.4468 210.342 82.4663 210.088C82.4858 209.834 82.4956 209.535 82.4956 209.19C82.4956 208.832 82.4858 208.522 82.4663 208.262C82.4468 208.002 82.424 207.783 82.3979 207.608C82.3459 207.302 82.2124 207.022 81.9976 206.768C81.8478 206.553 81.6265 206.374 81.3335 206.231C81.0666 206.094 80.741 206.026 80.3569 206.026C79.9989 206.026 79.6799 206.094 79.3999 206.231C79.133 206.361 78.9051 206.54 78.7163 206.768C78.5405 206.996 78.4136 207.276 78.3354 207.608C78.2573 207.953 78.2183 208.474 78.2183 209.17C78.2183 209.873 78.2573 210.388 78.3354 210.713C78.4136 211.045 78.5405 211.338 78.7163 211.592C78.9181 211.8 79.146 211.973 79.3999 212.11C79.7189 212.253 80.0379 212.324 80.3569 212.324ZM90.7183 214.365C89.6896 214.365 88.853 214.128 88.2085 213.653C87.564 213.171 87.1082 212.53 86.8413 211.729C86.7567 211.501 86.6948 211.24 86.6558 210.948C86.6167 210.655 86.5841 210.349 86.5581 210.03C86.5321 209.711 86.5158 209.392 86.5093 209.073C86.5028 208.747 86.4995 208.444 86.4995 208.164V207.393C86.4995 206.846 86.5093 206.315 86.5288 205.801C86.5483 205.287 86.6069 204.798 86.7046 204.336C86.8088 203.867 86.9585 203.434 87.1538 203.037C87.3556 202.634 87.6291 202.269 87.9741 201.944C88.2541 201.696 88.5503 201.494 88.8628 201.338C89.1818 201.182 89.5106 201.061 89.8491 200.977C90.1877 200.892 90.5295 200.827 90.8745 200.781C91.2196 200.736 91.5614 200.69 91.8999 200.645C92.1082 200.619 92.2775 200.557 92.4077 200.459C92.5444 200.362 92.6291 200.212 92.6616 200.01H94.7417C94.631 201.488 93.9442 202.328 92.6812 202.53C92.3556 202.582 92.0334 202.624 91.7144 202.656C91.3953 202.689 91.0796 202.738 90.7671 202.803C90.4546 202.862 90.1584 202.949 89.8784 203.067C89.5985 203.177 89.3381 203.337 89.0972 203.545C88.7912 203.825 88.5666 204.16 88.4233 204.551C88.2866 204.935 88.2118 205.293 88.1987 205.625H88.2573C88.4852 205.228 88.853 204.89 89.3608 204.61C89.8752 204.33 90.4741 204.19 91.1577 204.19C92.4924 204.19 93.4559 204.626 94.0483 205.498C94.6408 206.371 94.937 207.614 94.937 209.229C94.937 210.108 94.8556 210.86 94.6929 211.485C94.5366 212.103 94.2697 212.637 93.8921 213.086C93.547 213.503 93.1076 213.822 92.5737 214.043C92.0399 214.258 91.4214 214.365 90.7183 214.365ZM90.6987 212.344C91.0438 212.344 91.3563 212.282 91.6362 212.158C91.9162 212.035 92.1506 211.859 92.3394 211.631C92.5672 211.364 92.717 211.042 92.7886 210.664C92.8602 210.28 92.896 209.815 92.896 209.268C92.896 208.708 92.8602 208.229 92.7886 207.832C92.717 207.429 92.5672 207.093 92.3394 206.826C92.1506 206.612 91.9162 206.446 91.6362 206.328C91.3563 206.211 91.0438 206.153 90.6987 206.153C90.3537 206.153 90.0412 206.214 89.7612 206.338C89.4813 206.462 89.2534 206.638 89.0776 206.865C88.8498 207.132 88.7033 207.468 88.6382 207.871C88.5731 208.268 88.5405 208.747 88.5405 209.307C88.5405 209.945 88.5926 210.453 88.6968 210.83C88.8009 211.201 88.967 211.507 89.1948 211.748C89.3836 211.937 89.6082 212.084 89.8687 212.188C90.1291 212.292 90.4058 212.344 90.6987 212.344ZM97.0854 204.112H99.1265V207.93H101.802C102.792 207.93 103.586 208.22 104.185 208.799C104.784 209.378 105.083 210.14 105.083 211.084C105.083 212.035 104.784 212.8 104.185 213.379C103.586 213.959 102.792 214.248 101.802 214.248H97.0854V204.112ZM101.587 212.451C102.056 212.451 102.421 212.328 102.681 212.08C102.942 211.833 103.072 211.488 103.072 211.045C103.072 210.622 102.942 210.287 102.681 210.039C102.421 209.792 102.056 209.668 101.587 209.668H99.1265V212.451H101.587ZM106.49 204.112H108.531V214.248H106.49V204.112ZM115.972 204.112H120.835C121.766 204.112 122.509 204.359 123.062 204.854C123.615 205.342 123.892 206 123.892 206.826C123.892 207.842 123.42 208.568 122.476 209.004C122.984 209.232 123.375 209.541 123.648 209.932C123.921 210.316 124.058 210.801 124.058 211.387C124.058 212.266 123.788 212.962 123.248 213.477C122.707 213.991 121.955 214.248 120.992 214.248H115.972V204.112ZM120.591 212.549C121.047 212.549 121.405 212.425 121.666 212.178C121.926 211.931 122.056 211.602 122.056 211.192C122.056 210.762 121.926 210.43 121.666 210.196C121.405 209.961 121.047 209.844 120.591 209.844H118.013V212.549H120.591ZM120.455 208.272C121.412 208.272 121.89 207.852 121.89 207.012C121.89 206.621 121.766 206.325 121.519 206.123C121.278 205.915 120.923 205.811 120.455 205.811H118.013V208.272H120.455ZM126.207 204.112H128.248V207.93H130.923C131.913 207.93 132.707 208.22 133.306 208.799C133.905 209.378 134.205 210.14 134.205 211.084C134.205 212.035 133.905 212.8 133.306 213.379C132.707 213.959 131.913 214.248 130.923 214.248H126.207V204.112ZM130.708 212.451C131.177 212.451 131.542 212.328 131.802 212.08C132.063 211.833 132.193 211.488 132.193 211.045C132.193 210.622 132.063 210.287 131.802 210.039C131.542 209.792 131.177 209.668 130.708 209.668H128.248V212.451H130.708ZM135.611 204.112H137.652V214.248H135.611V204.112ZM145.093 204.112H147.115L150.152 210.147L153.179 204.112H155.171V214.248H153.13V207.744L150.796 212.393H149.517L147.134 207.744V214.248H145.093V204.112ZM161.49 214.365C160.741 214.365 160.106 214.219 159.585 213.926C159.071 213.659 158.681 213.373 158.414 213.067C158.023 212.643 157.743 212.158 157.574 211.612C157.398 211.078 157.31 210.264 157.31 209.17C157.31 208.089 157.398 207.269 157.574 206.709C157.756 206.136 158.036 205.661 158.414 205.283C158.694 204.951 159.084 204.652 159.585 204.385C160.093 204.118 160.728 203.985 161.49 203.985C162.278 203.985 162.925 204.118 163.433 204.385C163.921 204.652 164.299 204.951 164.566 205.283C164.957 205.661 165.243 206.136 165.425 206.709C165.588 207.295 165.669 208.115 165.669 209.17C165.669 210.238 165.588 211.052 165.425 211.612C165.243 212.171 164.957 212.656 164.566 213.067C164.501 213.132 164.429 213.207 164.351 213.291C164.273 213.369 164.185 213.441 164.087 213.506C163.905 213.669 163.687 213.809 163.433 213.926C162.912 214.219 162.264 214.365 161.49 214.365ZM161.49 212.324C161.848 212.324 162.173 212.253 162.466 212.11C162.759 211.973 162.981 211.8 163.13 211.592C163.345 211.312 163.479 211.019 163.531 210.713C163.557 210.55 163.58 210.342 163.599 210.088C163.619 209.834 163.628 209.535 163.628 209.19C163.628 208.832 163.619 208.522 163.599 208.262C163.58 208.002 163.557 207.783 163.531 207.608C163.479 207.302 163.345 207.022 163.13 206.768C162.981 206.553 162.759 206.374 162.466 206.231C162.199 206.094 161.874 206.026 161.49 206.026C161.132 206.026 160.813 206.094 160.533 206.231C160.266 206.361 160.038 206.54 159.849 206.768C159.673 206.996 159.546 207.276 159.468 207.608C159.39 207.953 159.351 208.474 159.351 209.17C159.351 209.873 159.39 210.388 159.468 210.713C159.546 211.045 159.673 211.338 159.849 211.592C160.051 211.8 160.279 211.973 160.533 212.11C160.852 212.253 161.171 212.324 161.49 212.324ZM167.808 204.112H174.39V206.026H169.849V214.248H167.808V204.112ZM174.732 212.324H175.054C175.269 212.324 175.468 212.308 175.65 212.276C175.839 212.243 176.008 212.145 176.158 211.983C176.314 211.813 176.447 211.559 176.558 211.221C176.675 210.882 176.773 210.41 176.851 209.805C176.936 209.193 176.998 208.425 177.037 207.5C177.076 206.569 177.095 205.44 177.095 204.112H183.951V214.248H181.919V206.026H179.039C179.039 207.256 179.003 208.314 178.931 209.199C178.866 210.085 178.768 210.83 178.638 211.436C178.514 212.041 178.352 212.533 178.15 212.91C177.955 213.281 177.727 213.565 177.466 213.76C177.206 213.955 176.913 214.086 176.587 214.151C176.262 214.216 175.904 214.248 175.513 214.248H174.732V212.324ZM186.597 204.112H188.638V210.987L193.042 204.112H195.083V214.248H193.042V207.266L188.638 214.248H186.597V204.112ZM202.535 204.112H204.576V208.086H205.533C205.897 208.086 206.2 208.008 206.441 207.852C206.688 207.689 206.867 207.468 206.978 207.188L207.457 205.83C207.671 205.218 207.964 204.779 208.335 204.512C208.707 204.245 209.227 204.112 209.898 204.112H210.572V205.948H210.279C210.077 205.948 209.908 205.957 209.771 205.977C209.641 205.996 209.53 206.039 209.439 206.104C209.354 206.162 209.283 206.247 209.224 206.358C209.166 206.468 209.104 206.618 209.039 206.807L208.697 207.813C208.593 208.119 208.443 208.36 208.248 208.535C208.052 208.705 207.841 208.828 207.613 208.906C207.964 209.017 208.244 209.183 208.453 209.405C208.667 209.619 208.85 209.912 209 210.283L209.478 211.524C209.543 211.699 209.605 211.843 209.664 211.953C209.722 212.058 209.791 212.139 209.869 212.198C209.953 212.256 210.051 212.298 210.162 212.324C210.279 212.351 210.432 212.364 210.621 212.364H211.08V214.248H210.337C209.602 214.248 209.039 214.112 208.648 213.838C208.264 213.565 207.948 213.096 207.701 212.432L207.134 210.987C207.043 210.746 206.929 210.563 206.792 210.44C206.662 210.309 206.519 210.212 206.363 210.147C206.213 210.082 206.057 210.043 205.894 210.03C205.738 210.017 205.578 210.01 205.416 210.01H204.576V214.248H202.535V204.112ZM215.474 214.365C214.354 214.352 213.482 214.053 212.857 213.467C212.212 212.894 211.89 212.162 211.89 211.27C211.89 210.417 212.17 209.711 212.73 209.151C213.277 208.591 214.097 208.298 215.191 208.272H218.013V207.207C218.026 206.315 217.333 205.882 215.933 205.908C215.451 205.908 215.051 205.961 214.732 206.065C214.426 206.188 214.185 206.397 214.009 206.69L212.408 205.469C213.182 204.453 214.325 203.959 215.835 203.985C217.111 203.972 218.13 204.212 218.892 204.707C219.641 205.202 220.028 206.074 220.054 207.324V214.248H218.013V213.35H217.974C217.785 213.695 217.492 213.949 217.095 214.112C216.731 214.281 216.19 214.365 215.474 214.365ZM215.728 212.451C216.587 212.477 217.19 212.377 217.535 212.149C217.854 211.934 218.013 211.446 218.013 210.684V209.951H215.572C214.374 209.977 213.788 210.384 213.814 211.172C213.814 211.517 213.967 211.81 214.273 212.051C214.579 212.318 215.064 212.451 215.728 212.451ZM221.675 212.364H222.115C222.297 212.364 222.447 212.351 222.564 212.324C222.688 212.298 222.789 212.256 222.867 212.198C222.951 212.139 223.023 212.058 223.082 211.953C223.14 211.843 223.205 211.699 223.277 211.524L223.736 210.283C223.879 209.912 224.058 209.619 224.273 209.405C224.488 209.183 224.768 209.017 225.113 208.906C224.885 208.828 224.673 208.705 224.478 208.535C224.289 208.36 224.139 208.119 224.029 207.813L223.697 206.807C223.625 206.618 223.56 206.468 223.501 206.358C223.443 206.247 223.368 206.162 223.277 206.104C223.192 206.039 223.085 205.996 222.955 205.977C222.831 205.957 222.671 205.948 222.476 205.948H222.154V204.112H222.857C223.508 204.112 224.019 204.245 224.39 204.512C224.768 204.779 225.067 205.218 225.289 205.83L225.777 207.188C225.881 207.468 226.057 207.696 226.304 207.871C226.552 208.041 226.848 208.125 227.193 208.125H227.75V204.112H229.791V208.125H230.337C230.695 208.125 230.998 208.041 231.246 207.871C231.493 207.696 231.669 207.468 231.773 207.188L232.251 205.83C232.479 205.218 232.776 204.779 233.14 204.512C233.511 204.245 234.029 204.112 234.693 204.112H235.376V205.948H235.074C234.872 205.948 234.703 205.957 234.566 205.977C234.436 205.996 234.332 206.039 234.253 206.104C234.175 206.162 234.104 206.247 234.039 206.358C233.98 206.468 233.918 206.618 233.853 206.807L233.492 207.813C233.388 208.119 233.238 208.36 233.042 208.535C232.847 208.705 232.636 208.828 232.408 208.906C232.759 209.017 233.039 209.183 233.248 209.405C233.462 209.619 233.645 209.912 233.794 210.283L234.273 211.524C234.338 211.699 234.4 211.843 234.458 211.953C234.524 212.058 234.595 212.139 234.673 212.198C234.751 212.256 234.846 212.298 234.957 212.324C235.074 212.351 235.227 212.364 235.416 212.364H235.875V214.248H235.132C234.774 214.248 234.458 214.216 234.185 214.151C233.912 214.086 233.674 213.985 233.472 213.848C233.27 213.705 233.091 213.516 232.935 213.281C232.785 213.047 232.645 212.764 232.515 212.432L231.949 210.987C231.858 210.746 231.744 210.563 231.607 210.44C231.477 210.309 231.333 210.212 231.177 210.147C231.028 210.082 230.871 210.043 230.708 210.03C230.552 210.017 230.393 210.01 230.23 210.01H229.791V214.248H227.75V210.01H227.31C227.154 210.01 226.991 210.017 226.822 210.03C226.653 210.043 226.49 210.082 226.333 210.147C226.184 210.212 226.041 210.309 225.904 210.44C225.774 210.563 225.663 210.746 225.572 210.987L225.035 212.432C224.898 212.764 224.751 213.047 224.595 213.281C224.445 213.516 224.266 213.705 224.058 213.848C223.856 213.985 223.622 214.086 223.355 214.151C223.088 214.216 222.772 214.248 222.408 214.248H221.675V212.364ZM236.294 212.324H237.457C237.632 211.888 237.789 211.433 237.925 210.957C238.069 210.482 238.182 209.932 238.267 209.307C238.352 208.682 238.417 207.949 238.462 207.11C238.514 206.27 238.541 205.27 238.541 204.112H245.376V212.324H246.773V216.846H244.859V214.248H238.218V216.846H236.294V212.324ZM243.335 212.324V206.026H240.474C240.474 206.852 240.451 207.582 240.406 208.213C240.36 208.838 240.295 209.401 240.21 209.903C240.132 210.397 240.038 210.843 239.927 211.24C239.817 211.631 239.699 211.992 239.576 212.324H243.335ZM248.238 204.112H250.279V207.93H252.955C253.944 207.93 254.738 208.22 255.337 208.799C255.936 209.378 256.236 210.14 256.236 211.084C256.236 212.035 255.936 212.8 255.337 213.379C254.738 213.959 253.944 214.248 252.955 214.248H248.238V204.112ZM252.74 212.451C253.208 212.451 253.573 212.328 253.833 212.08C254.094 211.833 254.224 211.488 254.224 211.045C254.224 210.622 254.094 210.287 253.833 210.039C253.573 209.792 253.208 209.668 252.74 209.668H250.279V212.451H252.74ZM257.642 204.112H259.683V214.248H257.642V204.112ZM262.32 204.112H264.361V210.987L268.765 204.112H270.806V214.248H268.765V207.266L264.361 214.248H262.32V204.112ZM264.546 199.893C264.683 200.427 264.917 200.804 265.25 201.026C265.595 201.253 266.034 201.367 266.568 201.367C267.063 201.38 267.489 201.273 267.847 201.045C268.218 200.837 268.466 200.453 268.589 199.893H269.791C269.719 200.733 269.41 201.397 268.863 201.885C268.316 202.419 267.551 202.686 266.568 202.686C265.604 202.686 264.852 202.419 264.312 201.885C263.752 201.397 263.43 200.733 263.345 199.893H264.546ZM277.056 212.324H278.218C278.394 211.888 278.55 211.433 278.687 210.957C278.83 210.482 278.944 209.932 279.029 209.307C279.113 208.682 279.179 207.949 279.224 207.11C279.276 206.27 279.302 205.27 279.302 204.112H286.138V212.324H287.535V216.846H285.621V214.248H278.98V216.846H277.056V212.324ZM284.097 212.324V206.026H281.236C281.236 206.852 281.213 207.582 281.167 208.213C281.122 208.838 281.057 209.401 280.972 209.903C280.894 210.397 280.8 210.843 280.689 211.24C280.578 211.631 280.461 211.992 280.337 212.324H284.097ZM293.003 214.365C292.457 214.365 291.936 214.287 291.441 214.131C291.213 214.059 290.966 213.946 290.699 213.789C290.458 213.685 290.22 213.532 289.986 213.33C289.543 212.927 289.195 212.399 288.941 211.748C288.648 211.11 288.501 210.264 288.501 209.209C288.501 208.181 288.628 207.347 288.882 206.709C289.149 206 289.475 205.466 289.859 205.108C290.25 204.724 290.702 204.437 291.216 204.248C291.698 204.073 292.186 203.985 292.681 203.985C293.84 204.011 294.82 204.392 295.621 205.127C296.421 205.876 296.835 206.924 296.861 208.272V209.951H290.542C290.542 210.765 290.777 211.384 291.246 211.807C291.695 212.237 292.268 212.451 292.964 212.451C293.791 212.451 294.53 212.123 295.181 211.465L296.666 212.725C295.611 213.832 294.39 214.378 293.003 214.365ZM294.82 208.272C294.794 207.497 294.582 206.901 294.185 206.485C293.794 206.101 293.293 205.908 292.681 205.908C292.069 205.908 291.568 206.101 291.177 206.485C290.793 206.901 290.582 207.497 290.542 208.272H294.82ZM299 204.112H301.041V208.067H305.064V204.112H307.105V214.248H305.064V209.99H301.041V214.248H299V204.112ZM309.742 204.112H311.783V207.93H314.458C315.448 207.93 316.242 208.22 316.841 208.799C317.44 209.378 317.74 210.14 317.74 211.084C317.74 212.035 317.44 212.8 316.841 213.379C316.242 213.959 315.448 214.248 314.458 214.248H309.742V204.112ZM314.244 212.451C314.712 212.451 315.077 212.328 315.337 212.08C315.598 211.833 315.728 211.488 315.728 211.045C315.728 210.622 315.598 210.287 315.337 210.039C315.077 209.792 314.712 209.668 314.244 209.668H311.783V212.451H314.244ZM324.39 204.112H330.972V206.026H326.431V214.248H324.39V204.112ZM336.197 214.365C335.448 214.365 334.813 214.219 334.292 213.926C333.778 213.659 333.388 213.373 333.121 213.067C332.73 212.643 332.45 212.158 332.281 211.612C332.105 211.078 332.017 210.264 332.017 209.17C332.017 208.089 332.105 207.269 332.281 206.709C332.463 206.136 332.743 205.661 333.121 205.283C333.401 204.951 333.791 204.652 334.292 204.385C334.8 204.118 335.435 203.985 336.197 203.985C336.985 203.985 337.632 204.118 338.14 204.385C338.628 204.652 339.006 204.951 339.273 205.283C339.664 205.661 339.95 206.136 340.132 206.709C340.295 207.295 340.376 208.115 340.376 209.17C340.376 210.238 340.295 211.052 340.132 211.612C339.95 212.171 339.664 212.656 339.273 213.067C339.208 213.132 339.136 213.207 339.058 213.291C338.98 213.369 338.892 213.441 338.794 213.506C338.612 213.669 338.394 213.809 338.14 213.926C337.619 214.219 336.972 214.365 336.197 214.365ZM336.197 212.324C336.555 212.324 336.88 212.253 337.173 212.11C337.466 211.973 337.688 211.8 337.837 211.592C338.052 211.312 338.186 211.019 338.238 210.713C338.264 210.55 338.287 210.342 338.306 210.088C338.326 209.834 338.335 209.535 338.335 209.19C338.335 208.832 338.326 208.522 338.306 208.262C338.287 208.002 338.264 207.783 338.238 207.608C338.186 207.302 338.052 207.022 337.837 206.768C337.688 206.553 337.466 206.374 337.173 206.231C336.906 206.094 336.581 206.026 336.197 206.026C335.839 206.026 335.52 206.094 335.24 206.231C334.973 206.361 334.745 206.54 334.556 206.768C334.38 206.996 334.253 207.276 334.175 207.608C334.097 207.953 334.058 208.474 334.058 209.17C334.058 209.873 334.097 210.388 334.175 210.713C334.253 211.045 334.38 211.338 334.556 211.592C334.758 211.8 334.986 211.973 335.24 212.11C335.559 212.253 335.878 212.324 336.197 212.324ZM344.537 206.026H341.421V204.112H349.576V206.026H346.578V214.248H344.537V206.026ZM354.81 214.365C354.061 214.365 353.427 214.219 352.906 213.926C352.391 213.659 352.001 213.373 351.734 213.067C351.343 212.643 351.063 212.158 350.894 211.612C350.718 211.078 350.63 210.264 350.63 209.17C350.63 208.089 350.718 207.269 350.894 206.709C351.076 206.136 351.356 205.661 351.734 205.283C352.014 204.951 352.404 204.652 352.906 204.385C353.414 204.118 354.048 203.985 354.81 203.985C355.598 203.985 356.246 204.118 356.753 204.385C357.242 204.652 357.619 204.951 357.886 205.283C358.277 205.661 358.563 206.136 358.746 206.709C358.908 207.295 358.99 208.115 358.99 209.17C358.99 210.238 358.908 211.052 358.746 211.612C358.563 212.171 358.277 212.656 357.886 213.067C357.821 213.132 357.75 213.207 357.671 213.291C357.593 213.369 357.505 213.441 357.408 213.506C357.225 213.669 357.007 213.809 356.753 213.926C356.233 214.219 355.585 214.365 354.81 214.365ZM354.81 212.324C355.168 212.324 355.494 212.253 355.787 212.11C356.08 211.973 356.301 211.8 356.451 211.592C356.666 211.312 356.799 211.019 356.851 210.713C356.877 210.55 356.9 210.342 356.919 210.088C356.939 209.834 356.949 209.535 356.949 209.19C356.949 208.832 356.939 208.522 356.919 208.262C356.9 208.002 356.877 207.783 356.851 207.608C356.799 207.302 356.666 207.022 356.451 206.768C356.301 206.553 356.08 206.374 355.787 206.231C355.52 206.094 355.194 206.026 354.81 206.026C354.452 206.026 354.133 206.094 353.853 206.231C353.586 206.361 353.358 206.54 353.169 206.768C352.994 206.996 352.867 207.276 352.789 207.608C352.71 207.953 352.671 208.474 352.671 209.17C352.671 209.873 352.71 210.388 352.789 210.713C352.867 211.045 352.994 211.338 353.169 211.592C353.371 211.8 353.599 211.973 353.853 212.11C354.172 212.253 354.491 212.324 354.81 212.324ZM361.128 204.112H365.992C366.923 204.112 367.665 204.359 368.218 204.854C368.772 205.342 369.048 206 369.048 206.826C369.048 207.842 368.576 208.568 367.632 209.004C368.14 209.232 368.531 209.541 368.804 209.932C369.078 210.316 369.214 210.801 369.214 211.387C369.214 212.266 368.944 212.962 368.404 213.477C367.863 213.991 367.111 214.248 366.148 214.248H361.128V204.112ZM365.748 212.549C366.203 212.549 366.561 212.425 366.822 212.178C367.082 211.931 367.212 211.602 367.212 211.192C367.212 210.762 367.082 210.43 366.822 210.196C366.561 209.961 366.203 209.844 365.748 209.844H363.169V212.549H365.748ZM365.611 208.272C366.568 208.272 367.046 207.852 367.046 207.012C367.046 206.621 366.923 206.325 366.675 206.123C366.434 205.915 366.08 205.811 365.611 205.811H363.169V208.272H365.611ZM371.363 204.112H373.404V210.987L377.808 204.112H379.849V214.248H377.808V207.266L373.404 214.248H371.363V204.112ZM384.517 206.026H381.402V204.112H389.556V206.026H386.558V214.248H384.517V206.026ZM391.109 204.112H393.15V207.93H395.826C396.815 207.93 397.61 208.22 398.208 208.799C398.807 209.378 399.107 210.14 399.107 211.084C399.107 212.035 398.807 212.8 398.208 213.379C397.61 213.959 396.815 214.248 395.826 214.248H391.109V204.112ZM395.611 212.451C396.08 212.451 396.444 212.328 396.705 212.08C396.965 211.833 397.095 211.488 397.095 211.045C397.095 210.622 396.965 210.287 396.705 210.039C396.444 209.792 396.08 209.668 395.611 209.668H393.15V212.451H395.611ZM411.216 210.547C410.871 210.612 410.451 210.684 409.957 210.762C409.462 210.834 408.915 210.869 408.316 210.869C407.476 210.869 406.786 210.625 406.246 210.137C405.705 209.649 405.435 208.887 405.435 207.852V204.112H407.476V207.451C407.476 207.998 407.606 208.386 407.867 208.614C408.127 208.835 408.492 208.946 408.96 208.946C409.384 208.946 409.794 208.92 410.191 208.867C410.595 208.815 410.936 208.763 411.216 208.711V204.112H413.257V214.248H411.216V210.547ZM417.916 206.026H414.8V204.112H422.955V206.026H419.957V214.248H417.916V206.026ZM428.189 214.365C427.44 214.365 426.806 214.219 426.285 213.926C425.77 213.659 425.38 213.373 425.113 213.067C424.722 212.643 424.442 212.158 424.273 211.612C424.097 211.078 424.009 210.264 424.009 209.17C424.009 208.089 424.097 207.269 424.273 206.709C424.455 206.136 424.735 205.661 425.113 205.283C425.393 204.951 425.783 204.652 426.285 204.385C426.792 204.118 427.427 203.985 428.189 203.985C428.977 203.985 429.625 204.118 430.132 204.385C430.621 204.652 430.998 204.951 431.265 205.283C431.656 205.661 431.942 206.136 432.125 206.709C432.287 207.295 432.369 208.115 432.369 209.17C432.369 210.238 432.287 211.052 432.125 211.612C431.942 212.171 431.656 212.656 431.265 213.067C431.2 213.132 431.128 213.207 431.05 213.291C430.972 213.369 430.884 213.441 430.787 213.506C430.604 213.669 430.386 213.809 430.132 213.926C429.611 214.219 428.964 214.365 428.189 214.365ZM428.189 212.324C428.547 212.324 428.873 212.253 429.166 212.11C429.458 211.973 429.68 211.8 429.83 211.592C430.044 211.312 430.178 211.019 430.23 210.713C430.256 210.55 430.279 210.342 430.298 210.088C430.318 209.834 430.328 209.535 430.328 209.19C430.328 208.832 430.318 208.522 430.298 208.262C430.279 208.002 430.256 207.783 430.23 207.608C430.178 207.302 430.044 207.022 429.83 206.768C429.68 206.553 429.458 206.374 429.166 206.231C428.899 206.094 428.573 206.026 428.189 206.026C427.831 206.026 427.512 206.094 427.232 206.231C426.965 206.361 426.737 206.54 426.548 206.768C426.373 206.996 426.246 207.276 426.167 207.608C426.089 207.953 426.05 208.474 426.05 209.17C426.05 209.873 426.089 210.388 426.167 210.713C426.246 211.045 426.373 211.338 426.548 211.592C426.75 211.8 426.978 211.973 427.232 212.11C427.551 212.253 427.87 212.324 428.189 212.324ZM434.253 209.727V207.686H440.269V209.727H434.253ZM59.9468 232.026H56.8315V230.112H64.9858V232.026H61.9878V240.248H59.9468V232.026ZM70.2202 240.365C69.4715 240.365 68.8368 240.219 68.3159 239.926C67.8016 239.659 67.411 239.373 67.144 239.067C66.7534 238.643 66.4735 238.158 66.3042 237.612C66.1284 237.078 66.0405 236.264 66.0405 235.17C66.0405 234.089 66.1284 233.269 66.3042 232.709C66.4865 232.136 66.7664 231.661 67.144 231.283C67.424 230.951 67.8146 230.652 68.3159 230.385C68.8237 230.118 69.4585 229.985 70.2202 229.985C71.008 229.985 71.6558 230.118 72.1636 230.385C72.6519 230.652 73.0295 230.951 73.2964 231.283C73.687 231.661 73.9735 232.136 74.1558 232.709C74.3185 233.295 74.3999 234.115 74.3999 235.17C74.3999 236.238 74.3185 237.052 74.1558 237.612C73.9735 238.171 73.687 238.656 73.2964 239.067C73.2313 239.132 73.1597 239.207 73.0815 239.291C73.0034 239.369 72.9155 239.441 72.8179 239.506C72.6356 239.669 72.4175 239.809 72.1636 239.926C71.6427 240.219 70.995 240.365 70.2202 240.365ZM70.2202 238.324C70.5783 238.324 70.9038 238.253 71.1968 238.11C71.4897 237.973 71.7111 237.8 71.8608 237.592C72.0757 237.312 72.2091 237.019 72.2612 236.713C72.2873 236.55 72.3101 236.342 72.3296 236.088C72.3491 235.834 72.3589 235.535 72.3589 235.19C72.3589 234.832 72.3491 234.522 72.3296 234.262C72.3101 234.002 72.2873 233.783 72.2612 233.608C72.2091 233.302 72.0757 233.022 71.8608 232.768C71.7111 232.553 71.4897 232.374 71.1968 232.231C70.9299 232.094 70.6043 232.026 70.2202 232.026C69.8621 232.026 69.5431 232.094 69.2632 232.231C68.9963 232.361 68.7684 232.54 68.5796 232.768C68.4038 232.996 68.2769 233.276 68.1987 233.608C68.1206 233.953 68.0815 234.474 68.0815 235.17C68.0815 235.873 68.1206 236.388 68.1987 236.713C68.2769 237.045 68.4038 237.338 68.5796 237.592C68.7814 237.8 69.0093 237.973 69.2632 238.11C69.5822 238.253 69.9012 238.324 70.2202 238.324ZM81.3433 230.112H83.3843V234.067H87.4077V230.112H89.4487V240.248H87.4077V235.99H83.3843V240.248H81.3433V230.112ZM95.7671 240.365C95.0184 240.365 94.3836 240.219 93.8628 239.926C93.3485 239.659 92.9578 239.373 92.6909 239.067C92.3003 238.643 92.0203 238.158 91.8511 237.612C91.6753 237.078 91.5874 236.264 91.5874 235.17C91.5874 234.089 91.6753 233.269 91.8511 232.709C92.0334 232.136 92.3133 231.661 92.6909 231.283C92.9709 230.951 93.3615 230.652 93.8628 230.385C94.3706 230.118 95.0054 229.985 95.7671 229.985C96.5549 229.985 97.2026 230.118 97.7104 230.385C98.1987 230.652 98.5763 230.951 98.8433 231.283C99.2339 231.661 99.5203 232.136 99.7026 232.709C99.8654 233.295 99.9468 234.115 99.9468 235.17C99.9468 236.238 99.8654 237.052 99.7026 237.612C99.5203 238.171 99.2339 238.656 98.8433 239.067C98.7782 239.132 98.7065 239.207 98.6284 239.291C98.5503 239.369 98.4624 239.441 98.3647 239.506C98.1825 239.669 97.9644 239.809 97.7104 239.926C97.1896 240.219 96.5418 240.365 95.7671 240.365ZM95.7671 238.324C96.1252 238.324 96.4507 238.253 96.7437 238.11C97.0366 237.973 97.258 237.8 97.4077 237.592C97.6226 237.312 97.756 237.019 97.8081 236.713C97.8341 236.55 97.8569 236.342 97.8765 236.088C97.896 235.834 97.9058 235.535 97.9058 235.19C97.9058 234.832 97.896 234.522 97.8765 234.262C97.8569 234.002 97.8341 233.783 97.8081 233.608C97.756 233.302 97.6226 233.022 97.4077 232.768C97.258 232.553 97.0366 232.374 96.7437 232.231C96.4767 232.094 96.1512 232.026 95.7671 232.026C95.409 232.026 95.09 232.094 94.8101 232.231C94.5431 232.361 94.3153 232.54 94.1265 232.768C93.9507 232.996 93.8237 233.276 93.7456 233.608C93.6675 233.953 93.6284 234.474 93.6284 235.17C93.6284 235.873 93.6675 236.388 93.7456 236.713C93.8237 237.045 93.9507 237.338 94.1265 237.592C94.3283 237.8 94.5562 237.973 94.8101 238.11C95.1291 238.253 95.4481 238.324 95.7671 238.324ZM102.085 230.112H106.949C107.88 230.112 108.622 230.359 109.175 230.854C109.729 231.342 110.005 232 110.005 232.826C110.005 233.842 109.533 234.568 108.589 235.004C109.097 235.232 109.488 235.541 109.761 235.932C110.035 236.316 110.171 236.801 110.171 237.387C110.171 238.266 109.901 238.962 109.361 239.477C108.82 239.991 108.069 240.248 107.105 240.248H102.085V230.112ZM106.705 238.549C107.16 238.549 107.518 238.425 107.779 238.178C108.039 237.931 108.169 237.602 108.169 237.192C108.169 236.762 108.039 236.43 107.779 236.196C107.518 235.961 107.16 235.844 106.705 235.844H104.126V238.549H106.705ZM106.568 234.272C107.525 234.272 108.003 233.852 108.003 233.012C108.003 232.621 107.88 232.325 107.632 232.123C107.391 231.915 107.037 231.811 106.568 231.811H104.126V234.272H106.568ZM116.001 240.365C115.253 240.365 114.618 240.219 114.097 239.926C113.583 239.659 113.192 239.373 112.925 239.067C112.535 238.643 112.255 238.158 112.085 237.612C111.91 237.078 111.822 236.264 111.822 235.17C111.822 234.089 111.91 233.269 112.085 232.709C112.268 232.136 112.548 231.661 112.925 231.283C113.205 230.951 113.596 230.652 114.097 230.385C114.605 230.118 115.24 229.985 116.001 229.985C116.789 229.985 117.437 230.118 117.945 230.385C118.433 230.652 118.811 230.951 119.078 231.283C119.468 231.661 119.755 232.136 119.937 232.709C120.1 233.295 120.181 234.115 120.181 235.17C120.181 236.238 120.1 237.052 119.937 237.612C119.755 238.171 119.468 238.656 119.078 239.067C119.013 239.132 118.941 239.207 118.863 239.291C118.785 239.369 118.697 239.441 118.599 239.506C118.417 239.669 118.199 239.809 117.945 239.926C117.424 240.219 116.776 240.365 116.001 240.365ZM116.001 238.324C116.36 238.324 116.685 238.253 116.978 238.11C117.271 237.973 117.492 237.8 117.642 237.592C117.857 237.312 117.99 237.019 118.042 236.713C118.069 236.55 118.091 236.342 118.111 236.088C118.13 235.834 118.14 235.535 118.14 235.19C118.14 234.832 118.13 234.522 118.111 234.262C118.091 234.002 118.069 233.783 118.042 233.608C117.99 233.302 117.857 233.022 117.642 232.768C117.492 232.553 117.271 232.374 116.978 232.231C116.711 232.094 116.386 232.026 116.001 232.026C115.643 232.026 115.324 232.094 115.044 232.231C114.778 232.361 114.55 232.54 114.361 232.768C114.185 232.996 114.058 233.276 113.98 233.608C113.902 233.953 113.863 234.474 113.863 235.17C113.863 235.873 113.902 236.388 113.98 236.713C114.058 237.045 114.185 237.338 114.361 237.592C114.563 237.8 114.791 237.973 115.044 238.11C115.363 238.253 115.682 238.324 116.001 238.324ZM126.324 240.365C125.777 240.365 125.256 240.287 124.761 240.131C124.533 240.059 124.286 239.946 124.019 239.789C123.778 239.685 123.541 239.532 123.306 239.33C122.863 238.927 122.515 238.399 122.261 237.748C121.968 237.11 121.822 236.264 121.822 235.209C121.822 234.181 121.949 233.347 122.203 232.709C122.47 232 122.795 231.466 123.179 231.108C123.57 230.724 124.022 230.437 124.537 230.248C125.018 230.073 125.507 229.985 126.001 229.985C127.16 230.011 128.14 230.392 128.941 231.127C129.742 231.876 130.155 232.924 130.181 234.272V235.951H123.863C123.863 236.765 124.097 237.384 124.566 237.807C125.015 238.237 125.588 238.451 126.285 238.451C127.111 238.451 127.85 238.123 128.501 237.465L129.986 238.725C128.931 239.832 127.71 240.378 126.324 240.365ZM128.14 234.272C128.114 233.497 127.903 232.901 127.505 232.485C127.115 232.101 126.613 231.908 126.001 231.908C125.389 231.908 124.888 232.101 124.498 232.485C124.113 232.901 123.902 233.497 123.863 234.272H128.14ZM137.125 230.112H139.166V236.987L143.57 230.112H145.611V240.248H143.57V233.266L139.166 240.248H137.125V230.112ZM153.062 230.112H155.103V234.067H159.126V230.112H161.167V240.248H159.126V235.99H155.103V240.248H153.062V230.112ZM167.808 240.365C167.261 240.365 166.74 240.287 166.246 240.131C166.018 240.059 165.77 239.946 165.503 239.789C165.263 239.685 165.025 239.532 164.791 239.33C164.348 238.927 164 238.399 163.746 237.748C163.453 237.11 163.306 236.264 163.306 235.209C163.306 234.181 163.433 233.347 163.687 232.709C163.954 232 164.279 231.466 164.664 231.108C165.054 230.724 165.507 230.437 166.021 230.248C166.503 230.073 166.991 229.985 167.486 229.985C168.645 230.011 169.625 230.392 170.425 231.127C171.226 231.876 171.639 232.924 171.666 234.272V235.951H165.347C165.347 236.765 165.582 237.384 166.05 237.807C166.5 238.237 167.072 238.451 167.769 238.451C168.596 238.451 169.335 238.123 169.986 237.465L171.47 238.725C170.416 239.832 169.195 240.378 167.808 240.365ZM169.625 234.272C169.598 233.497 169.387 232.901 168.99 232.485C168.599 232.101 168.098 231.908 167.486 231.908C166.874 231.908 166.373 232.101 165.982 232.485C165.598 232.901 165.386 233.497 165.347 234.272H169.625ZM177.486 240.365C176.737 240.365 176.102 240.219 175.582 239.926C175.067 239.659 174.677 239.373 174.41 239.067C174.019 238.643 173.739 238.158 173.57 237.612C173.394 237.078 173.306 236.264 173.306 235.17C173.306 234.089 173.394 233.269 173.57 232.709C173.752 232.136 174.032 231.661 174.41 231.283C174.69 230.951 175.08 230.652 175.582 230.385C176.089 230.118 176.724 229.985 177.486 229.985C178.274 229.985 178.921 230.118 179.429 230.385C179.917 230.652 180.295 230.951 180.562 231.283C180.953 231.661 181.239 232.136 181.421 232.709C181.584 233.295 181.666 234.115 181.666 235.17C181.666 236.238 181.584 237.052 181.421 237.612C181.239 238.171 180.953 238.656 180.562 239.067C180.497 239.132 180.425 239.207 180.347 239.291C180.269 239.369 180.181 239.441 180.083 239.506C179.901 239.669 179.683 239.809 179.429 239.926C178.908 240.219 178.261 240.365 177.486 240.365ZM177.486 238.324C177.844 238.324 178.169 238.253 178.462 238.11C178.755 237.973 178.977 237.8 179.126 237.592C179.341 237.312 179.475 237.019 179.527 236.713C179.553 236.55 179.576 236.342 179.595 236.088C179.615 235.834 179.625 235.535 179.625 235.19C179.625 234.832 179.615 234.522 179.595 234.262C179.576 234.002 179.553 233.783 179.527 233.608C179.475 233.302 179.341 233.022 179.126 232.768C178.977 232.553 178.755 232.374 178.462 232.231C178.195 232.094 177.87 232.026 177.486 232.026C177.128 232.026 176.809 232.094 176.529 232.231C176.262 232.361 176.034 232.54 175.845 232.768C175.669 232.996 175.542 233.276 175.464 233.608C175.386 233.953 175.347 234.474 175.347 235.17C175.347 235.873 175.386 236.388 175.464 236.713C175.542 237.045 175.669 237.338 175.845 237.592C176.047 237.8 176.275 237.973 176.529 238.11C176.848 238.253 177.167 238.324 177.486 238.324ZM187.847 240.365C186.819 240.365 185.982 240.128 185.337 239.653C184.693 239.171 184.237 238.53 183.97 237.729C183.886 237.501 183.824 237.24 183.785 236.948C183.746 236.655 183.713 236.349 183.687 236.03C183.661 235.711 183.645 235.392 183.638 235.073C183.632 234.747 183.628 234.444 183.628 234.164V233.393C183.628 232.846 183.638 232.315 183.658 231.801C183.677 231.287 183.736 230.798 183.833 230.336C183.938 229.867 184.087 229.434 184.283 229.037C184.485 228.634 184.758 228.269 185.103 227.944C185.383 227.696 185.679 227.494 185.992 227.338C186.311 227.182 186.639 227.061 186.978 226.977C187.317 226.892 187.658 226.827 188.003 226.781C188.348 226.736 188.69 226.69 189.029 226.645C189.237 226.619 189.406 226.557 189.537 226.459C189.673 226.362 189.758 226.212 189.791 226.01H191.871C191.76 227.488 191.073 228.328 189.81 228.53C189.485 228.582 189.162 228.624 188.843 228.656C188.524 228.689 188.208 228.738 187.896 228.803C187.583 228.862 187.287 228.949 187.007 229.067C186.727 229.177 186.467 229.337 186.226 229.545C185.92 229.825 185.695 230.16 185.552 230.551C185.416 230.935 185.341 231.293 185.328 231.625H185.386C185.614 231.228 185.982 230.89 186.49 230.61C187.004 230.33 187.603 230.19 188.287 230.19C189.621 230.19 190.585 230.626 191.177 231.498C191.77 232.371 192.066 233.614 192.066 235.229C192.066 236.108 191.985 236.86 191.822 237.485C191.666 238.103 191.399 238.637 191.021 239.086C190.676 239.503 190.236 239.822 189.703 240.043C189.169 240.258 188.55 240.365 187.847 240.365ZM187.828 238.344C188.173 238.344 188.485 238.282 188.765 238.158C189.045 238.035 189.279 237.859 189.468 237.631C189.696 237.364 189.846 237.042 189.917 236.664C189.989 236.28 190.025 235.815 190.025 235.268C190.025 234.708 189.989 234.229 189.917 233.832C189.846 233.429 189.696 233.093 189.468 232.826C189.279 232.612 189.045 232.446 188.765 232.328C188.485 232.211 188.173 232.153 187.828 232.153C187.483 232.153 187.17 232.214 186.89 232.338C186.61 232.462 186.382 232.638 186.207 232.865C185.979 233.132 185.832 233.468 185.767 233.871C185.702 234.268 185.669 234.747 185.669 235.307C185.669 235.945 185.722 236.453 185.826 236.83C185.93 237.201 186.096 237.507 186.324 237.748C186.513 237.937 186.737 238.084 186.998 238.188C187.258 238.292 187.535 238.344 187.828 238.344ZM194.214 230.112H196.255V233.93H198.931C199.921 233.93 200.715 234.22 201.314 234.799C201.913 235.378 202.212 236.14 202.212 237.084C202.212 238.035 201.913 238.8 201.314 239.379C200.715 239.959 199.921 240.248 198.931 240.248H194.214V230.112ZM198.716 238.451C199.185 238.451 199.55 238.328 199.81 238.08C200.07 237.833 200.201 237.488 200.201 237.045C200.201 236.622 200.07 236.287 199.81 236.039C199.55 235.792 199.185 235.668 198.716 235.668H196.255V238.451H198.716ZM203.619 230.112H205.66V240.248H203.619V230.112ZM213.755 236.547C213.41 236.612 212.99 236.684 212.496 236.762C212.001 236.834 211.454 236.869 210.855 236.869C210.015 236.869 209.325 236.625 208.785 236.137C208.244 235.649 207.974 234.887 207.974 233.852V230.112H210.015V233.451C210.015 233.998 210.145 234.386 210.406 234.614C210.666 234.835 211.031 234.946 211.5 234.946C211.923 234.946 212.333 234.92 212.73 234.867C213.134 234.815 213.475 234.763 213.755 234.711V230.112H215.796V240.248H213.755V236.547ZM218.433 230.112H220.474V234.067H224.498V230.112H226.539V240.248H224.498V235.99H220.474V240.248H218.433V230.112ZM232.857 240.365C232.108 240.365 231.473 240.219 230.953 239.926C230.438 239.659 230.048 239.373 229.781 239.067C229.39 238.643 229.11 238.158 228.941 237.612C228.765 237.078 228.677 236.264 228.677 235.17C228.677 234.089 228.765 233.269 228.941 232.709C229.123 232.136 229.403 231.661 229.781 231.283C230.061 230.951 230.451 230.652 230.953 230.385C231.46 230.118 232.095 229.985 232.857 229.985C233.645 229.985 234.292 230.118 234.8 230.385C235.289 230.652 235.666 230.951 235.933 231.283C236.324 231.661 236.61 232.136 236.792 232.709C236.955 233.295 237.037 234.115 237.037 235.17C237.037 236.238 236.955 237.052 236.792 237.612C236.61 238.171 236.324 238.656 235.933 239.067C235.868 239.132 235.796 239.207 235.718 239.291C235.64 239.369 235.552 239.441 235.455 239.506C235.272 239.669 235.054 239.809 234.8 239.926C234.279 240.219 233.632 240.365 232.857 240.365ZM232.857 238.324C233.215 238.324 233.541 238.253 233.833 238.11C234.126 237.973 234.348 237.8 234.498 237.592C234.712 237.312 234.846 237.019 234.898 236.713C234.924 236.55 234.947 236.342 234.966 236.088C234.986 235.834 234.996 235.535 234.996 235.19C234.996 234.832 234.986 234.522 234.966 234.262C234.947 234.002 234.924 233.783 234.898 233.608C234.846 233.302 234.712 233.022 234.498 232.768C234.348 232.553 234.126 232.374 233.833 232.231C233.567 232.094 233.241 232.026 232.857 232.026C232.499 232.026 232.18 232.094 231.9 232.231C231.633 232.361 231.405 232.54 231.216 232.768C231.041 232.996 230.914 233.276 230.835 233.608C230.757 233.953 230.718 234.474 230.718 235.17C230.718 235.873 230.757 236.388 230.835 236.713C230.914 237.045 231.041 237.338 231.216 237.592C231.418 237.8 231.646 237.973 231.9 238.11C232.219 238.253 232.538 238.324 232.857 238.324ZM243.179 240.365C242.632 240.365 242.111 240.287 241.617 240.131C241.389 240.059 241.141 239.946 240.875 239.789C240.634 239.685 240.396 239.532 240.162 239.33C239.719 238.927 239.371 238.399 239.117 237.748C238.824 237.11 238.677 236.264 238.677 235.209C238.677 234.181 238.804 233.347 239.058 232.709C239.325 232 239.651 231.466 240.035 231.108C240.425 230.724 240.878 230.437 241.392 230.248C241.874 230.073 242.362 229.985 242.857 229.985C244.016 230.011 244.996 230.392 245.796 231.127C246.597 231.876 247.011 232.924 247.037 234.272V235.951H240.718C240.718 236.765 240.953 237.384 241.421 237.807C241.871 238.237 242.444 238.451 243.14 238.451C243.967 238.451 244.706 238.123 245.357 237.465L246.841 238.725C245.787 239.832 244.566 240.378 243.179 240.365ZM244.996 234.272C244.97 233.497 244.758 232.901 244.361 232.485C243.97 232.101 243.469 231.908 242.857 231.908C242.245 231.908 241.744 232.101 241.353 232.485C240.969 232.901 240.757 233.497 240.718 234.272H244.996Z" fill="white"/>
<path d="M494.906 106.379L489.267 121.744C488.78 123.07 489.785 124.47 491.198 124.432L527.391 123.465C528.212 123.443 528.936 122.921 529.217 122.15L533.77 109.639C534.058 108.849 534.801 108.327 535.636 108.224C541.976 107.444 558.731 101.907 558.731 86.6083C558.731 78.7254 550.693 75.8773 545.722 74.7864C544.418 74.5001 543.579 73.0403 543.71 71.711C544.163 67.0851 542.514 59.0074 534.249 55.841C521.334 50.8928 515.488 60.9364 512.511 66.4724C511.885 67.6347 510.247 67.9162 509.032 67.4005C503.238 64.941 489.35 63.8309 483.351 74.3008C474.567 89.6317 485.545 100.044 493.709 103.702C494.735 104.162 495.294 105.324 494.906 106.379Z" fill="#8784D6"/>
<path d="M527.855 134.406L528.217 131.96C528.494 130.091 526.995 128.435 525.108 128.524L488.801 130.239C487.519 130.299 486.417 131.169 486.061 132.403L485.85 133.134C485.296 135.053 486.735 136.967 488.732 136.967H524.887C526.374 136.967 527.637 135.877 527.855 134.406Z" fill="#8784D6"/>
</svg>
