<svg width="198" height="70" viewBox="0 0 198 70" fill="none" xmlns="http://www.w3.org/2000/svg">
<path fill-rule="evenodd" clip-rule="evenodd" d="M194.722 0.385119C194.947 0.258661 195.194 0.17374 195.449 0.134399C195.333 0.760169 195.054 1.34433 194.64 1.82807C193.797 2.8734 192.853 3.83316 191.821 4.69347C190.752 5.6145 189.646 6.48436 188.51 7.3184C187.621 8.01268 186.674 8.63061 185.681 9.16558C184.146 9.92799 182.457 10.4704 180.753 10.1889C179.464 9.97339 178.302 9.28124 177.499 8.24967C176.893 7.4846 176.427 6.61848 176.123 5.69126C175.864 5.00796 175.732 4.28311 175.734 3.55243C176.607 3.88218 177.501 4.15396 178.41 4.366C179.935 4.60742 181.489 4.60742 183.015 4.366C184.822 4.09789 186.596 3.64523 188.311 3.01516C190.491 2.25275 192.614 1.34196 194.707 0.369769L194.722 0.385119ZM18.9852 3.45521C20.2393 3.18853 21.5206 3.07174 22.8023 3.10727C25.9816 3.10727 29.1608 3.10727 32.3401 3.10727C34.1361 3.15332 36.0037 3.41939 37.5541 4.38135C38.4467 4.9616 39.1564 5.78308 39.6008 6.75044C40.2003 7.94142 40.4605 9.2744 40.353 10.6034C40.2285 12.5087 39.5131 14.3277 38.3063 15.8072C37.0313 17.4092 35.2479 18.5283 33.2508 18.9796C34.6813 19.2996 35.991 20.0202 37.0271 21.0571C37.496 21.6078 37.8517 22.2456 38.0739 22.9339C38.296 23.6223 38.3802 24.3477 38.3216 25.0686C38.145 28.0031 36.9382 30.781 34.9138 32.9127C33.8422 34.0899 32.458 34.9381 30.9227 35.3586C28.7698 35.9478 26.5433 36.2235 24.3118 36.1773C19.0773 36.1773 13.8479 36.1773 8.61337 36.1773C10.2849 27.6492 11.97 19.1212 13.6688 10.5932C13.8803 9.25407 14.2709 7.94953 14.8303 6.71462C15.2185 5.90119 15.781 5.1832 16.4779 4.61162C17.219 4.04638 18.0748 3.64995 18.9852 3.45009V3.45521ZM24.0201 10.5522C23.6591 10.7402 23.3463 11.0087 23.1058 11.337C22.8654 11.6653 22.7037 12.0446 22.6334 12.4455C22.4237 13.5558 22.1934 14.6559 21.9887 15.7663C23.4828 15.7663 24.9821 15.7663 26.4813 15.7663C27.16 15.7987 27.838 15.6889 28.4717 15.4439C29.0756 15.1623 29.5842 14.7107 29.9351 14.1442C30.4237 13.4235 30.6076 12.5388 30.4468 11.683C30.3675 11.3874 30.2133 11.1172 29.9991 10.8985C29.7849 10.6798 29.5179 10.52 29.2239 10.4345C28.3526 10.2095 27.4499 10.1317 26.5529 10.2043C25.6853 10.1292 24.8118 10.2462 23.9945 10.5471L24.0201 10.5522ZM20.5867 22.8326C20.203 24.8333 19.7885 26.8288 19.415 28.8295C21.0165 28.8295 22.6181 28.8295 24.2197 28.8295C25.1099 28.8738 25.9951 28.672 26.7781 28.2462C27.3667 27.8616 27.8474 27.3333 28.175 26.7111C28.4099 26.2821 28.531 25.8 28.5265 25.3109C28.522 24.8218 28.3922 24.342 28.1494 23.9174C27.9271 23.5356 27.5747 23.2468 27.1567 23.1038C26.3457 22.8544 25.4963 22.7538 24.6495 22.807C23.2935 22.807 21.9427 22.807 20.5918 22.807L20.5867 22.8326ZM51.7379 11.9184C53.634 11.3105 55.6226 11.042 57.612 11.1253C59.3596 11.1422 61.0846 11.522 62.6777 12.2408C64.1224 12.9193 65.359 13.9724 66.2589 15.2907C67.1587 16.609 67.689 18.1443 67.7945 19.7369C67.9122 21.0827 67.9685 22.5358 67.3084 23.7587C67.0434 24.1977 66.6893 24.5762 66.2689 24.8697C65.8484 25.1632 65.3711 25.3652 64.8677 25.4627C63.1228 25.8925 61.2859 25.8413 59.5206 25.8669C56.5989 25.8669 53.6823 25.8669 50.7606 25.8669C50.5182 26.9225 50.5322 28.0209 50.8015 29.07C50.8973 29.341 51.0556 29.5855 51.2637 29.7838C51.4717 29.9821 51.7236 30.1285 51.9989 30.2111C52.7049 30.4128 53.4416 30.4856 54.1735 30.426C54.8773 30.4388 55.5755 30.2992 56.2202 30.0166C56.6203 29.8019 56.9694 29.5035 57.2436 29.1416C57.5099 28.8089 57.8503 28.5431 58.2377 28.3654C58.6251 28.1877 59.0486 28.103 59.4745 28.1183C61.8334 28.1183 64.1974 28.1183 66.5613 28.1183C66.0207 29.7382 65.0872 31.1991 63.8443 32.3704C62.9551 33.207 61.979 33.9463 60.9328 34.5757C59.1467 35.6258 57.1655 36.3013 55.1099 36.561C53.3912 36.7929 51.6507 36.8152 49.9266 36.6275C48.0434 36.4528 46.2337 35.8109 44.6614 34.7599C43.4998 33.9237 42.5432 32.8349 41.8634 31.5755C41.1836 30.316 40.7984 28.9188 40.7368 27.4889C40.6712 25.3879 41.0459 23.2963 41.8369 21.3487C42.9656 18.5677 44.8256 16.1437 47.2198 14.3336C48.5841 13.2706 50.1211 12.4502 51.7635 11.9082L51.7379 11.9184ZM53.3599 17.7158C52.4031 18.5447 51.9682 19.7983 51.7226 21.0059C53.6363 21.0059 55.5448 21.0059 57.4585 21.0059C57.7437 21.0309 58.031 21.0066 58.3079 20.9343C58.4513 20.844 58.5673 20.7161 58.643 20.5646C58.7188 20.413 58.7516 20.2435 58.7377 20.0746C58.8303 19.3181 58.7098 18.5508 58.3898 17.8591C58.1376 17.5439 57.8186 17.2886 57.4558 17.1116C57.0931 16.9346 56.6955 16.8404 56.2919 16.8357C55.7691 16.7785 55.2402 16.8269 54.7366 16.9781C54.2329 17.1293 53.7648 17.3801 53.3599 17.7158ZM84.7721 12.4864C83.6199 13.1795 82.636 14.1197 81.8913 15.2392C82.1062 14.088 82.3672 12.9469 82.5565 11.7905C80.9873 11.7167 79.4147 11.8076 77.8644 12.0617C76.6353 12.2618 75.4955 12.829 74.5947 13.6888C73.4639 14.8197 72.8908 16.3701 72.5173 17.8949C72.1131 19.6397 71.8061 21.405 71.4428 23.1601C70.0305 30.3236 68.5927 37.5128 67.1907 44.6968C68.4648 44.6968 69.7491 44.6968 71.0232 44.6149C72.3302 44.5683 73.6122 44.2438 74.7841 43.6632C75.7477 43.1222 76.5321 42.3111 77.0406 41.3299C77.6137 40.2221 78.0075 39.0304 78.2072 37.7993C78.4733 36.4638 78.7189 35.1232 79.0106 33.7877C79.3208 34.4855 79.7832 35.1051 80.3641 35.6009C80.9449 36.0967 81.6293 36.4563 82.3672 36.6531C83.6364 36.9815 84.9609 37.0368 86.2531 36.8154C87.5453 36.594 88.7758 36.101 89.8633 35.3688C92.6162 33.496 94.4685 30.5539 95.5481 27.448C96.2338 25.4381 96.672 23.3521 96.8529 21.2362C97.0013 19.1894 96.8836 17.0301 96.0137 15.1267C95.5088 13.9551 94.6616 12.9634 93.5832 12.2817C92.4148 11.6025 91.0815 11.259 89.7303 11.2891C87.9919 11.2195 86.2683 11.634 84.7516 12.4864H84.7721ZM84.4037 17.3985C84.71 17.3185 85.0306 17.3105 85.3405 17.3753C85.6503 17.4401 85.941 17.5759 86.1895 17.7721C86.6208 18.2028 86.8871 18.7716 86.9416 19.3787C87.0432 20.4453 87.0036 21.5206 86.8239 22.5768C86.619 23.9844 86.3233 25.3774 85.9387 26.747C85.6669 27.7819 85.2241 28.7642 84.6288 29.6533C84.365 30.0254 84.0172 30.3301 83.6135 30.5426C83.2099 30.7551 82.7619 30.8694 82.3058 30.8762C82.0027 30.9056 81.697 30.8614 81.4146 30.7473C81.1322 30.6333 80.8815 30.4529 80.6838 30.2213C80.3176 29.7597 80.1272 29.183 80.1465 28.5941C80.1687 27.9141 80.2631 27.2383 80.4279 26.5781C80.8526 24.4649 81.2568 22.3465 81.6866 20.2384C81.8175 19.4151 82.2408 18.6666 82.8789 18.1302C83.3348 17.7834 83.8574 17.5343 84.4139 17.3985H84.4037ZM105.843 12.1436C107.762 11.683 109.752 11.7803 111.707 11.7905C111.303 13.7758 110.924 15.7714 110.52 17.7567C110.356 18.6829 110.136 19.5988 110.008 20.53H114.521C114.9 18.647 115.202 16.6924 116.164 14.9936C116.821 13.7948 117.892 12.8763 119.178 12.4096C121.332 11.637 123.66 11.8007 125.906 11.7854C124.74 17.6152 123.583 23.4296 122.437 29.2286C122.094 30.8507 121.634 32.5085 120.59 33.8338C119.796 34.8227 118.693 35.5165 117.458 35.8037C115.483 36.3154 113.416 36.2284 111.39 36.2335C112.06 32.9179 112.695 29.5817 113.37 26.2762C111.835 26.2506 110.341 26.2762 108.821 26.2762C108.632 27.2996 108.417 28.3485 108.212 29.3872C107.961 31.0203 107.322 32.5694 106.35 33.9054C105.558 34.8526 104.481 35.5185 103.28 35.8037C101.294 36.3154 99.222 36.2284 97.1855 36.2438C98.301 30.5641 99.4215 24.8879 100.547 19.215C100.885 17.5418 101.305 15.8226 102.307 14.4001C103.155 13.2378 104.404 12.4318 105.812 12.1385L105.843 12.1436ZM133.356 12.2715C132.222 12.6003 131.217 13.2724 130.481 14.1954C129.457 15.5258 128.987 17.1887 128.649 18.8005C127.513 24.6132 126.336 30.4208 125.221 36.2387H139.287C141.004 36.2082 142.709 35.9307 144.347 35.4149C145.814 34.99 147.123 34.1409 148.108 32.9741C149.169 31.6451 149.911 30.0908 150.278 28.4304C150.633 27.0562 150.633 25.614 150.278 24.2397C150.065 23.5551 149.715 22.9211 149.248 22.3765C148.782 21.8319 148.209 21.3881 147.566 21.0724C145.846 20.2026 143.871 20.09 141.978 20.1053C140.678 20.1053 139.374 20.1053 138.074 20.1053C138.586 17.3269 139.174 14.5485 139.716 11.77C137.598 11.77 135.429 11.6421 133.377 12.2561L133.356 12.2715ZM137.276 25.7389C137.987 25.3808 138.811 25.4575 139.589 25.4422C140.274 25.3778 140.961 25.5318 141.553 25.8822C141.717 26.0333 141.843 26.221 141.92 26.43C141.998 26.639 142.025 26.8633 141.999 27.0847C141.979 27.7724 141.839 28.4515 141.584 29.0905C141.389 29.6498 140.991 30.1155 140.469 30.3953C139.704 30.6632 138.892 30.7678 138.084 30.7023H135.603C135.812 29.5766 136.037 28.456 136.263 27.3303C136.305 27.006 136.419 26.6953 136.596 26.4202C136.773 26.1451 137.009 25.9125 137.286 25.7389H137.276ZM158.853 12.2152C160.854 11.6626 162.947 11.7854 164.994 11.7905C163.806 17.7209 162.655 23.6615 161.463 29.597C161.095 31.2344 160.568 32.9179 159.416 34.2022C158.551 35.0929 157.433 35.695 156.213 35.9265C154.34 36.3359 152.411 36.2643 150.513 36.2694C151.639 30.5624 152.766 24.8572 153.895 19.1536C154.228 17.4292 154.683 15.6588 155.768 14.2415C156.541 13.2512 157.621 12.5457 158.838 12.2357L158.853 12.2152ZM173.221 12.0617C171.912 12.274 170.708 12.9083 169.793 13.8679C168.662 15.1113 168.14 16.7641 167.772 18.3759C166.605 24.2295 165.459 30.0934 164.298 35.9521C164.272 36.0442 164.206 36.2642 164.369 36.2489C165.838 36.2489 167.317 36.2898 168.785 36.1721C170.248 36.1101 171.669 35.6636 172.904 34.8776C174.113 33.9479 175.166 32.8322 176.025 31.5721C177.023 30.2469 178.011 28.9165 178.942 27.5452C179.873 26.1739 180.83 24.864 181.731 23.5029C181.582 24.3983 181.362 25.2887 181.188 26.1841C180.487 29.5356 179.776 32.8923 179.09 36.2489C180.627 36.2924 182.165 36.2412 183.696 36.0954C184.969 35.9883 186.193 35.5566 187.252 34.8418C188.3 34.0134 189.077 32.8909 189.483 31.6182C189.853 30.526 190.132 29.405 190.317 28.2667C191.396 22.7712 192.502 17.286 193.561 11.7854C191.647 11.7854 189.713 11.6933 187.83 12.0873C186.548 12.3434 185.361 12.949 184.402 13.8372C183.205 15.0527 182.119 16.373 181.158 17.7823C180.375 18.8057 179.623 19.87 178.886 20.9343C177.827 22.4693 176.767 23.9788 175.754 25.5394C176.839 20.9752 177.765 16.3752 178.737 11.7905C176.895 11.7905 175.033 11.6933 173.221 12.0719V12.0617ZM97.032 45.0601C115.313 43.716 133.629 43.0986 151.982 43.2078C167.25 43.2999 182.505 43.9036 197.746 45.0191V45.0549C197.515 45.6696 197.094 46.1946 196.544 46.5542C195.557 47.127 194.457 47.4763 193.32 47.5775C190.317 47.9408 187.288 47.6441 184.279 47.5366C175.389 47.1477 166.494 46.9772 157.595 47.0249C139.686 47.117 121.806 47.9937 103.955 49.655C84.0092 51.4639 64.1763 54.354 44.5437 58.3126C29.714 61.2922 15.0772 65.1624 0.712997 69.9022C1.33329 67.4773 2.60354 65.2676 4.38687 63.5113C6.36607 61.5471 8.66801 59.9375 11.1922 58.7527C14.5827 57.1381 18.1743 55.9851 21.871 55.3244C29.5207 53.6358 37.2215 52.2543 44.9735 51.0263C62.2325 48.2939 79.6092 46.3648 97.032 45.0754V45.0601ZM130.624 57.9289C129.769 58.7513 129.178 59.8092 128.925 60.9682C128.717 61.7657 128.643 62.5922 128.705 63.4141C128.731 63.7787 128.835 64.1333 129.012 64.4532C129.189 64.7732 129.433 65.0507 129.728 65.2664C130.44 65.6931 131.264 65.8963 132.092 65.8497C133.068 65.8853 134.036 65.661 134.896 65.1999C135.236 65.0124 135.533 64.7572 135.77 64.45C136.007 64.1428 136.178 63.7902 136.273 63.4141C136.434 62.8949 136.394 62.3341 136.16 61.8432C136.014 61.619 135.821 61.4295 135.594 61.288C135.366 61.1466 135.111 61.0567 134.845 61.0245C135.288 60.9314 135.701 60.7311 136.048 60.4412C136.282 60.2412 136.467 59.9888 136.586 59.7044C136.705 59.4199 136.756 59.1114 136.733 58.8038C136.711 58.5009 136.612 58.2085 136.446 57.9537C136.281 57.6988 136.054 57.4897 135.787 57.3455C134.947 56.9256 134.001 56.767 133.07 56.8901C132.16 56.9632 131.297 57.3213 130.603 57.9135L130.624 57.9289ZM132.292 58.8396C131.791 59.2678 131.434 59.8394 131.269 60.477C131.842 60.477 132.42 60.477 132.998 60.477C133.426 60.4815 133.843 60.3448 134.185 60.0882C134.338 59.9528 134.451 59.7784 134.512 59.5837C134.574 59.3891 134.581 59.1814 134.533 58.9829C134.479 58.8539 134.394 58.74 134.287 58.6508C134.179 58.5617 134.051 58.5001 133.914 58.4712C133.63 58.4097 133.337 58.4113 133.054 58.4758C132.771 58.5404 132.506 58.6663 132.277 58.8448L132.292 58.8396ZM131.008 61.8483C130.855 62.4444 130.869 63.0711 131.049 63.6597C131.149 63.8429 131.297 63.9954 131.477 64.1009C131.658 64.2064 131.863 64.2608 132.072 64.2584C132.391 64.2989 132.716 64.2635 133.019 64.155C133.322 64.0465 133.596 63.8681 133.817 63.6341C133.95 63.4585 134.038 63.2527 134.073 63.0349C134.108 62.8171 134.088 62.5941 134.016 62.3856C133.91 62.2321 133.768 62.1058 133.604 62.0169C133.44 61.928 133.257 61.879 133.07 61.8739C132.379 61.8023 131.678 61.8739 130.987 61.8381L131.008 61.8483ZM139.834 57.8419C139.21 58.4113 138.704 59.0987 138.347 59.8645C137.989 60.6303 137.787 61.4594 137.752 62.3037C137.643 63.1002 137.786 63.9108 138.161 64.6217C138.371 64.9335 138.647 65.196 138.968 65.3912C139.29 65.5864 139.65 65.7097 140.023 65.7525C141.09 65.9165 142.178 65.8696 143.227 65.6143C143.621 65.5017 144.112 65.4301 144.322 65.0259C144.502 64.6212 144.581 64.1786 144.552 63.7364C144.511 63.542 144.27 63.6392 144.143 63.6597C143.204 64.0282 142.197 64.1905 141.19 64.1356C140.992 64.1269 140.799 64.0725 140.626 63.9766C140.453 63.8807 140.305 63.746 140.192 63.583C139.957 63.0643 139.91 62.4798 140.059 61.9302C141.419 62.0193 142.784 61.858 144.086 61.4543C144.451 61.3368 144.786 61.1426 145.069 60.8849C145.352 60.6273 145.577 60.312 145.729 59.9602C145.858 59.6298 145.904 59.2727 145.863 58.9204C145.822 58.568 145.695 58.2311 145.493 57.9391C145.121 57.4618 144.595 57.1275 144.004 56.9925C143.291 56.8058 142.544 56.7853 141.821 56.9326C141.098 57.0798 140.418 57.3909 139.834 57.8419ZM141.262 58.9471C140.821 59.3573 140.517 59.8933 140.392 60.4821C141.262 60.4821 142.183 60.5384 143.001 60.1751C143.183 60.1057 143.341 59.9861 143.457 59.8303C143.573 59.6744 143.642 59.4888 143.656 59.2951C143.657 59.1165 143.597 58.9431 143.486 58.8029C143.376 58.6627 143.221 58.5639 143.048 58.5224C142.739 58.4367 142.413 58.4303 142.101 58.5036C141.789 58.5769 141.5 58.7277 141.262 58.942V58.9471ZM150.948 57.4837C150.51 57.7444 150.155 58.1242 149.925 58.5787C149.925 58.1386 150.083 57.7242 150.109 57.2893C150.109 57.192 150.027 57.146 149.986 57.0744C149.393 56.9315 148.771 56.9708 148.2 57.1869C147.428 60.871 146.716 64.5705 145.964 68.2597C145.964 68.4183 145.841 68.6691 146.026 68.7714C146.493 68.9016 146.982 68.9381 147.463 68.8788C147.719 68.843 148.082 68.8123 148.164 68.5156C148.405 67.3285 148.625 66.1362 148.865 64.9338C149.238 65.3298 149.712 65.6149 150.237 65.7576C150.806 65.8826 151.397 65.8669 151.959 65.7118C152.521 65.5566 153.036 65.2667 153.46 64.8673C154.346 63.9588 154.94 62.8057 155.164 61.5567C155.442 60.4778 155.419 59.3435 155.098 58.2768C154.974 57.9301 154.764 57.6211 154.486 57.3799C154.208 57.1387 153.872 56.9735 153.511 56.9004C153.068 56.8217 152.614 56.8318 152.175 56.9302C151.736 57.0286 151.32 57.2132 150.953 57.4735L150.948 57.4837ZM151.761 58.8141C151.034 59.09 150.432 59.621 150.068 60.3082C149.666 61.0882 149.408 61.934 149.305 62.8052C149.234 63.015 149.433 63.1787 149.551 63.3169C149.713 63.5186 149.922 63.6786 150.158 63.7836C150.395 63.8886 150.654 63.9356 150.912 63.9206C151.187 63.8891 151.45 63.7929 151.681 63.6399C151.911 63.4869 152.102 63.2815 152.237 63.0406C152.748 62.1841 153.023 61.208 153.036 60.211C153.082 59.7927 152.986 59.3711 152.764 59.0136C152.633 58.8824 152.466 58.7922 152.285 58.754C152.103 58.7159 151.914 58.7314 151.741 58.7987L151.761 58.8141ZM158.997 57.4376C157.921 58.1223 157.134 59.1785 156.786 60.4054C156.47 61.3416 156.345 62.3315 156.418 63.3169C156.435 63.6834 156.525 64.0428 156.684 64.3734C156.843 64.704 157.068 64.9991 157.344 65.2408C158.13 65.7622 159.084 65.9669 160.015 65.8139C160.769 65.7467 161.484 65.4482 162.062 64.9594C162.334 64.4077 162.449 63.7916 162.394 63.1787C162.319 63.1591 162.24 63.1558 162.163 63.169C162.087 63.1823 162.014 63.2117 161.949 63.2555C161.46 63.6391 160.877 63.8831 160.261 63.9616C160.025 64.0064 159.781 63.9899 159.554 63.9138C159.326 63.8376 159.122 63.7043 158.961 63.5267C158.67 62.9115 158.61 62.2123 158.792 61.5567C158.903 60.633 159.321 59.7735 159.979 59.116C160.254 58.8906 160.587 58.7472 160.94 58.7019C161.293 58.6567 161.651 58.7115 161.975 58.8601C162.297 58.9983 162.538 59.2746 162.855 59.4281C162.965 59.3832 163.063 59.3138 163.142 59.2251C163.221 59.1364 163.278 59.0308 163.31 58.9164C163.47 58.5119 163.533 58.0756 163.494 57.6423C163.081 57.2305 162.539 56.9724 161.959 56.9106C160.932 56.7164 159.87 56.8981 158.966 57.4223L158.997 57.4376ZM166.16 57.5707C165.177 58.4098 164.494 59.547 164.216 60.8096C163.88 61.9444 163.861 63.1492 164.16 64.2942C164.267 64.6564 164.468 64.9842 164.742 65.2446C165.016 65.505 165.353 65.6889 165.72 65.7781C166.351 65.8978 167.003 65.8455 167.607 65.6268C168.211 65.408 168.745 65.0308 169.154 64.5347C169.276 64.4221 169.281 64.1765 169.44 64.1253C169.323 64.586 169.239 65.0545 169.189 65.5273C169.302 65.7115 169.542 65.686 169.732 65.7115C170.191 65.7721 170.658 65.714 171.088 65.5427C171.369 64.4733 171.533 63.3783 171.763 62.2986C172.091 60.6664 172.423 59.0341 172.74 57.4018C172.838 57.1204 172.5 57.0743 172.311 57.0488C171.822 56.9687 171.32 57.0199 170.857 57.1972C170.763 57.4804 170.695 57.7715 170.653 58.067C170.294 57.5642 169.785 57.1881 169.2 56.9925C168.68 56.8511 168.135 56.8316 167.607 56.9354C167.079 57.0393 166.582 57.2637 166.155 57.5911L166.16 57.5707ZM167.782 58.9573C167.378 59.2105 167.058 59.5772 166.861 60.0114C166.453 60.8599 166.25 61.7923 166.268 62.7336C166.253 62.9467 166.292 63.1601 166.382 63.3541C166.471 63.5481 166.608 63.7166 166.779 63.8439C166.986 63.9202 167.208 63.9465 167.426 63.9207C167.645 63.8949 167.855 63.8177 168.038 63.6955C168.612 63.3236 169.075 62.8039 169.379 62.1912C169.731 61.4035 169.96 60.5666 170.059 59.7095C169.857 59.4266 169.608 59.1808 169.322 58.9829C169.089 58.8482 168.824 58.7773 168.555 58.7773C168.285 58.7773 168.021 58.8482 167.787 58.9829L167.782 58.9573ZM101.233 57.0948C100.946 57.1511 100.931 57.4888 100.972 57.7191C101.397 60.3645 101.898 62.9996 102.307 65.645C101.857 66.2949 101.351 66.8986 100.89 67.5331C100.611 67.8631 100.363 68.2176 100.148 68.5923L100.266 68.7816C100.769 68.8963 101.288 68.9275 101.801 68.8737C102.006 68.8807 102.211 68.8377 102.396 68.7486C102.581 68.6595 102.742 68.5269 102.865 68.3621C104.196 66.4279 105.654 64.5705 106.769 62.4931C107.586 60.9837 108.281 59.4112 108.847 57.7907C108.937 57.5814 108.946 57.3463 108.872 57.1306C108.624 57.0121 108.349 56.9609 108.074 56.9822C107.61 56.9349 107.141 56.9926 106.703 57.1511C106.64 57.264 106.592 57.3843 106.56 57.5093C106.02 59.4582 105.18 61.3107 104.068 62.9996C103.832 61.4339 103.607 59.863 103.372 58.2921C103.338 57.8805 103.259 57.4738 103.136 57.0795C102.507 56.9462 101.857 56.9462 101.228 57.0795L101.233 57.0948ZM110.617 57.1767C110.565 57.2985 110.525 57.4254 110.499 57.5553C110.131 59.423 109.747 61.2906 109.379 63.1838C109.241 63.9718 109.031 64.7445 108.939 65.5376C109.258 65.6876 109.611 65.7512 109.962 65.7218C110.32 65.7448 110.679 65.6943 111.016 65.5734C111.144 65.5324 111.16 65.3841 111.19 65.2766C111.4 64.2533 111.589 63.2299 111.809 62.2065H114.946C114.777 63.1378 114.572 64.069 114.393 65.0003C114.338 65.1649 114.322 65.3402 114.347 65.512C114.516 65.6706 114.772 65.6399 114.987 65.6706C115.505 65.7373 116.031 65.6794 116.522 65.5018C116.762 64.6165 116.89 63.7057 117.09 62.8103C117.443 60.9938 117.827 59.1825 118.164 57.366C118.246 57.0743 117.873 57.0385 117.653 57.0129C117.082 56.9282 116.498 56.9844 115.954 57.1767C115.708 58.2 115.524 59.2695 115.319 60.3235C114.265 60.3235 113.211 60.3235 112.162 60.3235C112.357 59.3309 112.562 58.3433 112.751 57.3507C112.812 57.0948 112.485 57.0232 112.295 57.0129C111.722 56.9267 111.137 56.9758 110.586 57.1562L110.617 57.1767ZM120.39 57.3711C120.047 59.0392 119.72 60.7124 119.392 62.3856C119.164 63.2156 119.22 64.0982 119.551 64.8929C119.671 65.1079 119.834 65.2956 120.031 65.4436C120.227 65.5917 120.452 65.6969 120.692 65.7525C121.415 65.936 122.179 65.8655 122.857 65.5529C123.538 65.2587 124.117 64.769 124.52 64.1458C124.487 64.6082 124.423 65.068 124.33 65.5222C124.571 65.6645 124.851 65.7255 125.128 65.6962C125.478 65.7239 125.829 65.6677 126.152 65.5325C126.372 64.7752 126.474 63.9974 126.663 63.2248C127.057 61.2087 127.492 59.203 127.856 57.1869C127.366 57.0025 126.838 56.9461 126.321 57.0232C126.065 57.059 125.645 57.0232 125.604 57.3814C125.374 58.4968 125.164 59.6123 124.939 60.7329C124.784 61.5547 124.433 62.3271 123.916 62.9843C123.624 63.3457 123.248 63.6303 122.821 63.8132C122.65 63.9009 122.456 63.9313 122.267 63.9C122.078 63.8686 121.905 63.7772 121.772 63.6392C121.595 63.0276 121.606 62.3771 121.803 61.7716C122.094 60.2724 122.396 58.768 122.688 57.2688L122.585 57.1102C122.031 56.9842 121.458 56.9651 120.897 57.0539C120.708 57.0846 120.436 57.1306 120.426 57.3711H120.39ZM175.892 57.1051C175.708 57.1829 175.547 57.3072 175.425 57.466C175.303 57.6247 175.224 57.8124 175.197 58.0107C174.47 60.3986 173.74 62.7864 173.007 65.1743C172.976 65.3124 172.884 65.5017 173.032 65.6041C173.427 65.7005 173.835 65.7282 174.24 65.686C174.487 65.7108 174.736 65.6513 174.946 65.5171C175.031 65.3692 175.096 65.211 175.14 65.0463C175.78 62.9126 176.501 60.8045 177.018 58.635C177.018 59.2848 177.074 59.9295 177.146 60.5743C177.33 62.1349 177.489 63.7006 177.658 65.2613C177.658 65.6911 178.169 65.6911 178.507 65.7013C178.932 65.7013 179.443 65.7678 179.786 65.4557C180.047 65.077 180.211 64.6472 180.436 64.2481C181.383 62.3907 182.386 60.5589 183.24 58.6554C183.24 59.0187 183.143 59.3718 183.097 59.7351C182.851 61.485 182.764 63.2504 182.585 65.0054C182.585 65.205 182.498 65.4403 182.611 65.6246C183.074 65.7167 183.548 65.7374 184.018 65.686C184.253 65.686 184.617 65.6194 184.647 65.3227C184.883 62.928 185.087 60.5333 185.312 58.1591C185.364 57.9076 185.364 57.6483 185.312 57.3967C185.179 57.105 184.801 57.0743 184.54 57.0795C184.028 57.0795 183.47 57.0539 182.943 57.1153C182.712 57.145 182.491 57.2303 182.299 57.364C182.108 57.4976 181.951 57.6756 181.843 57.8828C181.25 58.988 180.692 60.1086 180.098 61.2139C179.761 61.8535 179.484 62.5289 179.177 63.1941C179.177 62.9536 179.147 62.7182 179.142 62.4828C179.096 61.1064 178.845 59.7453 178.696 58.3894C178.706 57.9988 178.579 57.6171 178.338 57.3097C177.985 57.1026 177.573 57.0163 177.166 57.0641C176.74 57.0391 176.312 57.0528 175.887 57.1051H175.892Z" fill="#FF010C"/>
</svg>
