<svg width="173" height="96" viewBox="0 0 173 96" fill="none" xmlns="http://www.w3.org/2000/svg">
<path d="M164.899 13.0955C164.9 10.5124 162.934 8.35233 160.362 8.11175L85.739 1.13152C85.434 1.10299 85.127 1.10254 84.822 1.13019L9.57095 7.95035C6.9972 8.18361 5.02671 10.34 5.02569 12.9245L5.00453 66.24C5.0035 68.8286 6.97843 70.9914 9.55664 71.2251L84.8281 78.0469C85.1261 78.0738 85.4258 78.0741 85.7237 78.0475L160.326 71.3925C162.903 71.1627 164.877 69.0049 164.878 66.4177L164.899 13.0955Z" fill="url(#paint0_linear_566_220)"/>
<path d="M160.825 84.3839L134.122 71.9531L154.045 52.8139L160.825 84.3839Z" fill="#462B74"/>
<path d="M69.0826 14.488V30.66H71.7606V14.488H74.4126V30.66H77.0906V14.488H79.7426V33H66.4306V14.488H69.0826ZM89.763 27.41H84.511V29.204C84.511 29.62 84.6236 29.9407 84.849 30.166C85.0916 30.3913 85.4123 30.504 85.811 30.504C86.3136 30.504 86.643 30.3567 86.799 30.062C86.9723 29.7673 87.0763 29.4727 87.111 29.178H89.763C89.763 30.3393 89.4076 31.2753 88.697 31.986C88.3503 32.35 87.9343 32.636 87.449 32.844C86.9636 33.052 86.4176 33.156 85.811 33.156C84.979 33.156 84.2683 32.9827 83.679 32.636C83.107 32.2893 82.665 31.83 82.353 31.258C82.1623 30.9113 82.0323 30.5127 81.963 30.062C81.8936 29.6113 81.859 29.1173 81.859 28.58V24.238C81.859 23.7007 81.8936 23.2067 81.963 22.756C82.0323 22.3053 82.1623 21.9067 82.353 21.56C82.665 20.988 83.107 20.5287 83.679 20.182C84.2683 19.8353 84.979 19.662 85.811 19.662C86.4176 19.662 86.9636 19.766 87.449 19.974C87.9516 20.182 88.3763 20.468 88.723 20.832C89.4163 21.612 89.763 22.5913 89.763 23.77V27.41ZM84.511 25.33H87.111V23.822C87.111 23.3193 86.9896 22.9467 86.747 22.704C86.5216 22.444 86.2096 22.314 85.811 22.314C85.4123 22.314 85.0916 22.444 84.849 22.704C84.6236 22.9467 84.511 23.3193 84.511 23.822V25.33ZM99.048 20.858C99.1 20.7887 99.178 20.6933 99.282 20.572C99.4034 20.4333 99.5507 20.3033 99.724 20.182C99.8974 20.0433 100.105 19.9307 100.348 19.844C100.591 19.7573 100.859 19.714 101.154 19.714C101.657 19.714 102.081 19.8093 102.428 20C102.775 20.1907 103.069 20.4853 103.312 20.884C103.503 21.1787 103.659 21.5947 103.78 22.132C103.901 22.652 103.962 23.276 103.962 24.004V28.762C103.962 29.23 103.927 29.724 103.858 30.244C103.806 30.764 103.693 31.206 103.52 31.57C103.295 32.038 102.974 32.4107 102.558 32.688C102.159 32.9653 101.7 33.104 101.18 33.104C100.66 33.104 100.235 33.0087 99.906 32.818C99.594 32.6273 99.3254 32.4107 99.1 32.168H99.048V38.33H96.396V32.168H96.344C96.1187 32.4107 95.8414 32.6273 95.512 32.818C95.2 33.0087 94.784 33.104 94.264 33.104C93.744 33.104 93.276 32.9653 92.86 32.688C92.4614 32.4107 92.1494 32.038 91.924 31.57C91.7507 31.206 91.6294 30.764 91.56 30.244C91.508 29.724 91.482 29.23 91.482 28.762V24.004C91.482 23.276 91.5427 22.652 91.664 22.132C91.7854 21.5947 91.9414 21.1787 92.132 20.884C92.6174 20.104 93.3367 19.714 94.29 19.714C94.5847 19.714 94.8534 19.7573 95.096 19.844C95.3387 19.9307 95.5467 20.0433 95.72 20.182C95.8934 20.3033 96.032 20.4333 96.136 20.572C96.2574 20.6933 96.344 20.7887 96.396 20.858V14.488H99.048V20.858ZM94.134 28.944C94.134 29.36 94.2034 29.724 94.342 30.036C94.4807 30.348 94.8014 30.504 95.304 30.504C95.6507 30.504 95.928 30.3827 96.136 30.14C96.344 29.8973 96.448 29.6807 96.448 29.49V23.354C96.448 23.1287 96.3354 22.9033 96.11 22.678C95.8847 22.4353 95.5987 22.314 95.252 22.314C94.8014 22.314 94.498 22.4787 94.342 22.808C94.2034 23.1373 94.134 23.5707 94.134 24.108V28.944ZM101.31 24.108C101.31 23.5707 101.232 23.1373 101.076 22.808C100.937 22.4787 100.643 22.314 100.192 22.314C99.8454 22.314 99.5594 22.4353 99.334 22.678C99.1087 22.9033 98.996 23.1287 98.996 23.354V29.49C98.996 29.6807 99.1 29.8973 99.308 30.14C99.516 30.3827 99.7934 30.504 100.14 30.504C100.643 30.504 100.963 30.348 101.102 30.036C101.241 29.724 101.31 29.36 101.31 28.944V24.108ZM31.2483 63.33V44.818H33.9003V46.014C34.2296 45.6327 34.5676 45.312 34.9143 45.052C35.2609 44.792 35.7636 44.662 36.4223 44.662C37.5143 44.662 38.2856 45.078 38.7363 45.91C38.8923 46.2047 39.0049 46.5687 39.0743 47.002C39.1436 47.4353 39.1783 48.016 39.1783 48.744V53.762C39.1783 54.7327 39.1523 55.4347 39.1003 55.868C38.9963 56.7347 38.5976 57.3847 37.9043 57.818C37.5576 58.0433 37.0549 58.156 36.3963 58.156C35.8763 58.156 35.4083 58.0433 34.9923 57.818C34.5936 57.5753 34.2469 57.2373 33.9523 56.804H33.9003V63.33H31.2483ZM36.5263 49.108C36.5263 48.5707 36.4223 48.1373 36.2143 47.808C36.0063 47.4787 35.6769 47.314 35.2263 47.314C34.8276 47.314 34.5069 47.47 34.2643 47.782C34.0216 48.0767 33.9003 48.4667 33.9003 48.952V54.074C33.9003 54.49 34.0216 54.8367 34.2643 55.114C34.5243 55.374 34.8449 55.504 35.2263 55.504C35.7289 55.504 36.0669 55.348 36.2403 55.036C36.4309 54.724 36.5263 54.36 36.5263 53.944V49.108ZM49.0237 52.41H43.7717V54.204C43.7717 54.62 43.8844 54.9407 44.1097 55.166C44.3524 55.3913 44.6731 55.504 45.0717 55.504C45.5744 55.504 45.9037 55.3567 46.0597 55.062C46.2331 54.7673 46.3371 54.4727 46.3717 54.178H49.0237C49.0237 55.3393 48.6684 56.2753 47.9577 56.986C47.6111 57.35 47.1951 57.636 46.7097 57.844C46.2244 58.052 45.6784 58.156 45.0717 58.156C44.2397 58.156 43.5291 57.9827 42.9397 57.636C42.3677 57.2893 41.9257 56.83 41.6137 56.258C41.4231 55.9113 41.2931 55.5127 41.2237 55.062C41.1544 54.6113 41.1197 54.1173 41.1197 53.58V49.238C41.1197 48.7007 41.1544 48.2067 41.2237 47.756C41.2931 47.3053 41.4231 46.9067 41.6137 46.56C41.9257 45.988 42.3677 45.5287 42.9397 45.182C43.5291 44.8353 44.2397 44.662 45.0717 44.662C45.6784 44.662 46.2244 44.766 46.7097 44.974C47.2124 45.182 47.6371 45.468 47.9837 45.832C48.6771 46.612 49.0237 47.5913 49.0237 48.77V52.41ZM43.7717 50.33H46.3717V48.822C46.3717 48.3193 46.2504 47.9467 46.0077 47.704C45.7824 47.444 45.4704 47.314 45.0717 47.314C44.6731 47.314 44.3524 47.444 44.1097 47.704C43.8844 47.9467 43.7717 48.3193 43.7717 48.822V50.33ZM50.9768 58V44.818H53.6288V50.2H54.6428C55.0414 50.2 55.3101 50.0613 55.4488 49.784C55.5874 49.5067 55.7001 49.16 55.7868 48.744L56.0728 47.236C56.1768 46.8373 56.3068 46.482 56.4628 46.17C56.6361 45.8407 56.8614 45.5807 57.1388 45.39C57.4334 45.182 57.7714 45.0347 58.1528 44.948C58.5514 44.8613 59.0021 44.818 59.5048 44.818H59.5568V47.158H59.4788C59.1668 47.158 58.9068 47.2187 58.6988 47.34C58.4908 47.444 58.3434 47.6953 58.2568 48.094L57.9968 49.55C57.9794 49.602 57.9534 49.706 57.9188 49.862C57.9014 50.018 57.8581 50.1913 57.7888 50.382C57.7194 50.5553 57.6241 50.7287 57.5028 50.902C57.3988 51.0753 57.2601 51.2053 57.0868 51.292L59.7388 58H57.0348L54.9288 52.41H53.6288V58H50.9768ZM60.7975 49.238C60.7975 48.7007 60.8321 48.2067 60.9015 47.756C60.9708 47.3053 61.1008 46.9067 61.2915 46.56C61.6035 45.988 62.0455 45.5287 62.6175 45.182C63.2068 44.8353 63.9175 44.662 64.7495 44.662C65.5815 44.662 66.2835 44.8353 66.8555 45.182C67.4448 45.5287 67.8955 45.988 68.2075 46.56C68.3981 46.9067 68.5281 47.3053 68.5975 47.756C68.6668 48.2067 68.7015 48.7007 68.7015 49.238V53.58C68.7015 54.1173 68.6668 54.6113 68.5975 55.062C68.5281 55.5127 68.3981 55.9113 68.2075 56.258C67.8955 56.83 67.4448 57.2893 66.8555 57.636C66.2835 57.9827 65.5815 58.156 64.7495 58.156C63.9175 58.156 63.2068 57.9827 62.6175 57.636C62.0455 57.2893 61.6035 56.83 61.2915 56.258C61.1008 55.9113 60.9708 55.5127 60.9015 55.062C60.8321 54.6113 60.7975 54.1173 60.7975 53.58V49.238ZM63.4495 53.996C63.4495 54.4987 63.5621 54.88 63.7875 55.14C64.0301 55.3827 64.3508 55.504 64.7495 55.504C65.1481 55.504 65.4601 55.3827 65.6855 55.14C65.9281 54.88 66.0495 54.4987 66.0495 53.996V48.822C66.0495 48.3193 65.9281 47.9467 65.6855 47.704C65.4601 47.444 65.1481 47.314 64.7495 47.314C64.3508 47.314 64.0301 47.444 63.7875 47.704C63.5621 47.9467 63.4495 48.3193 63.4495 48.822V53.996ZM70.6545 58V44.818H73.3585L76.0365 51.89H76.0885L78.7665 44.818H81.4705V58H78.9225V50.018H78.8705L76.7385 55.842H75.3865L73.2545 50.018H73.2025V58H70.6545ZM91.3245 52.41H86.0725V54.204C86.0725 54.62 86.1852 54.9407 86.4105 55.166C86.6532 55.3913 86.9738 55.504 87.3725 55.504C87.8752 55.504 88.2045 55.3567 88.3605 55.062C88.5338 54.7673 88.6378 54.4727 88.6725 54.178H91.3245C91.3245 55.3393 90.9692 56.2753 90.2585 56.986C89.9118 57.35 89.4958 57.636 89.0105 57.844C88.5252 58.052 87.9792 58.156 87.3725 58.156C86.5405 58.156 85.8298 57.9827 85.2405 57.636C84.6685 57.2893 84.2265 56.83 83.9145 56.258C83.7238 55.9113 83.5938 55.5127 83.5245 55.062C83.4552 54.6113 83.4205 54.1173 83.4205 53.58V49.238C83.4205 48.7007 83.4552 48.2067 83.5245 47.756C83.5938 47.3053 83.7238 46.9067 83.9145 46.56C84.2265 45.988 84.6685 45.5287 85.2405 45.182C85.8298 44.8353 86.5405 44.662 87.3725 44.662C87.9792 44.662 88.5252 44.766 89.0105 44.974C89.5132 45.182 89.9378 45.468 90.2845 45.832C90.9778 46.612 91.3245 47.5913 91.3245 48.77V52.41ZM86.0725 50.33H88.6725V48.822C88.6725 48.3193 88.5512 47.9467 88.3085 47.704C88.0832 47.444 87.7712 47.314 87.3725 47.314C86.9738 47.314 86.6532 47.444 86.4105 47.704C86.1852 47.9467 86.0725 48.3193 86.0725 48.822V50.33ZM93.2775 58V44.818H95.9295V50.2H98.6075V44.818H101.26V58H98.6075V52.41H95.9295V58H93.2775ZM104.63 58V60.6H102.394V55.79H103.59C103.78 55.426 103.945 54.9407 104.084 54.334C104.24 53.7273 104.361 53.086 104.448 52.41C104.517 51.8553 104.56 51.2833 104.578 50.694C104.595 50.1047 104.604 49.5673 104.604 49.082V44.818H111.884V55.79H113.132V60.6H110.896V58H104.63ZM107.1 47.028V49.004C107.1 49.2293 107.091 49.5067 107.074 49.836C107.056 50.148 107.03 50.4773 106.996 50.824C106.978 51.1533 106.952 51.4827 106.918 51.812C106.9 52.124 106.874 52.3927 106.84 52.618C106.77 53.0687 106.658 53.606 106.502 54.23C106.363 54.8367 106.198 55.3567 106.008 55.79H109.232V47.028H107.1ZM113.208 44.818H116.016L117.836 53.034H117.888L119.682 44.818H122.412L118.616 60.288C118.478 60.8773 118.278 61.3627 118.018 61.744C117.776 62.1253 117.49 62.4373 117.16 62.68C116.831 62.9227 116.476 63.0873 116.094 63.174C115.73 63.278 115.349 63.33 114.95 63.33H114.222V60.834H114.82C115.08 60.834 115.306 60.7993 115.496 60.73C115.687 60.6607 115.86 60.5047 116.016 60.262C116.155 60.0193 116.285 59.6727 116.406 59.222C116.528 58.7887 116.666 58.182 116.822 57.402L113.208 44.818ZM131.137 52.41H125.885V54.204C125.885 54.62 125.998 54.9407 126.223 55.166C126.466 55.3913 126.786 55.504 127.185 55.504C127.688 55.504 128.017 55.3567 128.173 55.062C128.346 54.7673 128.45 54.4727 128.485 54.178H131.137C131.137 55.3393 130.782 56.2753 130.071 56.986C129.724 57.35 129.308 57.636 128.823 57.844C128.338 58.052 127.792 58.156 127.185 58.156C126.353 58.156 125.642 57.9827 125.053 57.636C124.481 57.2893 124.039 56.83 123.727 56.258C123.536 55.9113 123.406 55.5127 123.337 55.062C123.268 54.6113 123.233 54.1173 123.233 53.58V49.238C123.233 48.7007 123.268 48.2067 123.337 47.756C123.406 47.3053 123.536 46.9067 123.727 46.56C124.039 45.988 124.481 45.5287 125.053 45.182C125.642 44.8353 126.353 44.662 127.185 44.662C127.792 44.662 128.338 44.766 128.823 44.974C129.326 45.182 129.75 45.468 130.097 45.832C130.79 46.612 131.137 47.5913 131.137 48.77V52.41ZM125.885 50.33H128.485V48.822C128.485 48.3193 128.364 47.9467 128.121 47.704C127.896 47.444 127.584 47.314 127.185 47.314C126.786 47.314 126.466 47.444 126.223 47.704C125.998 47.9467 125.885 48.3193 125.885 48.822V50.33ZM134.598 58V47.158H131.998V44.818H139.85V47.158H137.25V58H134.598Z" fill="white"/>
<defs>
<linearGradient id="paint0_linear_566_220" x1="5.01514" y1="39.5006" x2="164.889" y2="39.564" gradientUnits="userSpaceOnUse">
<stop stop-color="#8451DA"/>
<stop offset="0.815" stop-color="#462B74"/>
</linearGradient>
</defs>
</svg>
