<svg width="36" height="39" viewBox="0 0 36 39" fill="none" xmlns="http://www.w3.org/2000/svg">
<path d="M11.9553 19.4094C11.9553 22.8203 9.28756 25.5826 6.00012 25.5826C2.71268 25.5826 0.044965 22.8203 0.044965 19.4094C0.044965 15.9985 2.71268 13.2361 6.00012 13.2361C9.28756 13.2361 11.9553 15.9985 11.9553 19.4094Z" fill="white" stroke="#A1A1A1" stroke-width="0.08993"/>
<path d="M35.9553 6.97285C35.9553 10.3838 33.2876 13.1461 30.0001 13.1461C26.7127 13.1461 24.045 10.3838 24.045 6.97285C24.045 3.56193 26.7127 0.799604 30.0001 0.799604C33.2876 0.799604 35.9553 3.56193 35.9553 6.97285Z" fill="white" stroke="#A1A1A1" stroke-width="0.08993"/>
<path d="M35.9553 31.8446C35.9553 35.2555 33.2876 38.0178 30.0001 38.0178C26.7127 38.0178 24.045 35.2555 24.045 31.8446C24.045 28.4336 26.7127 25.6713 30.0001 25.6713C33.2876 25.6713 35.9553 28.4336 35.9553 31.8446Z" fill="white" stroke="#A1A1A1" stroke-width="0.08993"/>
<path d="M6 19.409L29.9997 6.97253" stroke="white" stroke-width="3" stroke-miterlimit="10"/>
<path d="M29.9997 31.8449L6 19.4093" stroke="white" stroke-width="3" stroke-miterlimit="10"/>
</svg>
